<svg fill="none" xmlns="http://www.w3.org/2000/svg" viewBox="0 0 738 488"><g filter="url(#a)"><rect x="1" y="1" width="728" height="478" rx="11" fill="#fff" stroke="#E2E8F0" stroke-width="2"/><path d="M504 430.9h-3.5l-.4 1.1h-2l3.9-8.7h.6l3.8 8.7h-1.9l-.5-1.1Zm-1.7-4.4-1.2 3h2.3l-1.1-3Zm8.8-1a3 3 0 0 1 1.6.4c.5.3.9.6 1.2 1.2.2.5.4 1 .4 1.7 0 .6-.2 1.2-.4 1.7a3 3 0 0 1-2.7 1.6c-.5 0-.9 0-1.3-.2l-.8-.7v.8h-1.6v-9.8h1.7v4c.5-.5 1.1-.8 2-.8Zm-.3 5c.5 0 .9-.1 1.2-.4.3-.4.5-.8.5-1.3 0-.6-.2-1-.5-1.3-.3-.3-.7-.5-1.2-.5-.4 0-.8.2-1.1.5-.3.3-.5.7-.5 1.3 0 .6.2 1 .5 1.3.3.3.7.5 1.1.5Zm7 1.7c-.6 0-1.2-.2-1.6-.4a3 3 0 0 1-1.1-.9l.8-1c.6.5 1.2.8 1.8.8l.6-.1c.2-.1.3-.2.3-.4s0-.3-.2-.3l-.5-.3-.7-.3a4 4 0 0 1-1.3-.8c-.3-.3-.4-.7-.4-1.2 0-.6.2-1 .6-1.4.5-.3 1-.5 1.7-.5 1 0 1.8.3 2.3 1l-.8 1a2 2 0 0 0-1.5-.5 1 1 0 0 0-.5 0l-.2.4c0 .1 0 .2.2.3l.5.3.6.2 1.4.9c.3.2.4.6.4 1.1 0 .6-.2 1.1-.7 1.5-.5.4-1 .6-1.8.6Zm9.8-3.8-.1 1H523c0 .4.3.7.6 1l1.2.2c.6 0 1.2-.2 1.8-.6l.7 1.2a3.9 3.9 0 0 1-4.4.5 3.3 3.3 0 0 1-1.7-3 3.3 3.3 0 0 1 1.6-2.8 3.4 3.4 0 0 1 3.3 0c.5.2.8.5 1.1 1 .3.5.4 1 .4 1.5Zm-3.1-1.6c-.4 0-.7.2-1 .4-.3.2-.4.5-.5 1h2.9c0-.5-.2-.8-.4-1-.3-.2-.6-.4-1-.4Zm8-1.4c.7 0 1.3.3 1.7.7.5.5.7 1.1.7 2v3.9H533v-3.8c0-.3 0-.6-.3-.9-.2-.2-.5-.3-.9-.3-.3 0-.6.1-.8.3-.3.3-.4.6-.4 1v3.7H529v-6.4h1.6v.5l.8-.5 1-.2Zm7.1 6.8c-.6 0-1.2-.2-1.7-.5s-1-.7-1.2-1.2a3.3 3.3 0 0 1 1.2-4.6 3.5 3.5 0 0 1 3.4 0c.5.2.9.6 1.1 1.1l-1.2 1c-.2-.3-.4-.6-.7-.7-.2-.2-.5-.3-.8-.3-.5 0-1 .2-1.3.5-.3.4-.4.8-.4 1.3s.1 1 .4 1.3c.4.3.8.4 1.3.4.3 0 .6 0 .8-.2l.7-.7 1.2 1a3 3 0 0 1-2.8 1.6Zm10-3.8v1H545c.1.4.3.7.6 1l1.2.2c.7 0 1.3-.2 1.8-.6l.7 1.2a3.9 3.9 0 0 1-4.3.5 3.3 3.3 0 0 1-1.8-3 3.4 3.4 0 0 1 1.7-2.8 3.4 3.4 0 0 1 3.3 0c.4.2.8.5 1 1 .3.5.4 1 .4 1.5Zm-3-1.6c-.4 0-.8.2-1 .4-.3.2-.5.5-.6 1h3c0-.5-.2-.8-.5-1-.2-.2-.6-.4-1-.4Zm11.4 3.8h.8v1.4a5 5 0 0 1-1.2.2c-.8 0-1.5-.2-2-.6-.4-.4-.6-1-.6-1.9V427h-1v-1.4h1v-1.7h1.8v1.7h1.8v1.4h-1.8v2.6c0 .3 0 .6.2.8l1 .2Zm5 1.5c-.6 0-1.2-.1-1.7-.4-.6-.3-1-.7-1.3-1.2-.3-.5-.4-1.1-.4-1.7 0-.6.1-1.2.4-1.7.3-.5.7-1 1.3-1.2.5-.3 1-.5 1.7-.5a3.4 3.4 0 0 1 3.5 3.4c0 .6-.2 1.2-.5 1.7s-.7.9-1.3 1.2c-.5.3-1 .4-1.7.4Zm0-1.6c.5 0 .9-.1 1.2-.5.3-.3.5-.7.5-1.2s-.2-1-.5-1.3c-.3-.3-.7-.5-1.2-.5s-.9.2-1.2.5c-.3.4-.4.8-.4 1.3s.1 1 .4 1.2c.3.4.7.5 1.2.5Zm20.1-7-3.4 8.7h-.6l-2.4-5.4-2.4 5.4h-.6l-3.4-8.8h2l1.9 5 2.2-5.1h.6l2.2 5.2 2-5h1.9Zm3.5 8.6c-.6 0-1.2-.1-1.8-.4a3.3 3.3 0 0 1-1.7-3c0-.5.2-1.1.5-1.6s.7-1 1.3-1.2c.5-.3 1-.5 1.7-.5a3.4 3.4 0 0 1 3.5 3.4c0 .6-.2 1.2-.5 1.7s-.7.9-1.3 1.2c-.5.3-1 .4-1.7.4Zm0-1.6c.5 0 .9-.1 1.2-.5.3-.3.5-.7.5-1.2s-.2-1-.5-1.3c-.3-.3-.7-.5-1.2-.5s-.9.2-1.2.5c-.3.4-.5.8-.5 1.3s.2 1 .5 1.2c.3.4.7.5 1.2.5Zm8.2-5h.6v1.6h-.5c-.5 0-1 .2-1.2.4-.4.3-.5.7-.5 1.3v3.2h-1.8v-6.4h1.6v.7a2.2 2.2 0 0 1 1.8-.8Zm6 6.5-2.6-3.6v3.6h-1.7v-9.8h1.7v6.1l2.3-2.7h2.1l-2.4 2.8 2.6 3.6h-2Zm8.7-3.6v1h-4.6c.1.4.3.7.6 1l1.2.2c.6 0 1.2-.2 1.8-.6l.7 1.2a3.9 3.9 0 0 1-4.4.5 3.3 3.3 0 0 1-1.7-3 3.3 3.3 0 0 1 1.7-2.8 3.4 3.4 0 0 1 3.3 0c.4.2.8.5 1 1 .3.5.4 1 .4 1.5Zm-3-1.6c-.4 0-.8.2-1 .4-.3.2-.5.5-.6 1h3c0-.5-.2-.8-.5-1-.3-.2-.6-.4-1-.4Zm10.8-4.6v9.8h-1.6v-.8c-.2.3-.5.5-.9.7-.3.2-.7.3-1.1.3a3 3 0 0 1-1.7-.5c-.4-.3-.8-.7-1-1.2-.3-.5-.5-1-.5-1.7s.2-1.2.4-1.7a3 3 0 0 1 2.8-1.7c.8 0 1.4.3 1.9.8v-4h1.7Zm-3.3 8.4c.4 0 .8-.2 1.1-.5.3-.3.5-.7.5-1.3 0-.6-.2-1-.5-1.3-.3-.3-.7-.5-1.1-.5-.5 0-.9.2-1.2.5-.3.3-.5.7-.5 1.3 0 .5.2 1 .5 1.3.3.3.7.5 1.2.5Zm8.8-7.2h1.8v3.3h3.8v-3.3h1.7v8.6h-1.7v-3.7h-3.8v3.7h-1.8v-8.6Zm12.2 8.7c-.6 0-1.2-.1-1.8-.4a3.4 3.4 0 0 1-1.6-3c0-.5.1-1.1.4-1.6.3-.5.7-1 1.3-1.2.5-.3 1-.5 1.7-.5a3.4 3.4 0 0 1 3.5 3.4c0 .6-.2 1.2-.5 1.7s-.7.9-1.3 1.2c-.5.3-1 .4-1.7.4Zm0-1.6c.5 0 .9-.1 1.2-.5.3-.3.5-.7.5-1.2s-.2-1-.5-1.3c-.3-.3-.7-.5-1.2-.5s-.9.2-1.2.5c-.3.4-.5.8-.5 1.3s.2 1 .5 1.2c.3.4.7.5 1.2.5Zm7.7 1.7c-.5 0-1-.2-1.5-.4-.4-.3-.8-.6-1-1-.3-.5-.4-1-.4-1.6v-3.6h1.7v3.7c0 .4.1.7.4 1l.8.2c.4 0 .7 0 .9-.3.2-.2.3-.5.3-.9v-3.7h1.8v3.6a3 3 0 0 1-.4 1.5c-.3.5-.6.8-1 1-.5.3-1 .5-1.6.5Zm8-6.7h.6v1.6h-.4c-.6 0-1 .2-1.3.4-.3.3-.5.7-.5 1.3v3.2h-1.7v-6.4h1.6v.7a2.3 2.3 0 0 1 1.7-.8Zm3.8 6.7c-.6 0-1-.2-1.5-.4s-.9-.5-1.2-.9l1-1c.5.5 1 .8 1.7.8l.6-.1c.2-.1.2-.2.2-.4l-.1-.3-.5-.3-.7-.3a4 4 0 0 1-1.3-.8c-.3-.3-.5-.7-.5-1.2 0-.6.2-1 .7-1.4.4-.3 1-.5 1.7-.5 1 0 1.7.3 2.3 1l-.9 1a2 2 0 0 0-1.4-.5 1 1 0 0 0-.5 0l-.2.4.1.3.6.3.6.2 1.4.9c.3.2.4.6.4 1.1 0 .6-.2 1.1-.7 1.5-.5.4-1 .6-1.8.6Zm12.9-.2-2.3-3h-1.3v3h-1.7v-8.6h3.2c.6 0 1.1.1 1.6.4.5.2.8.5 1.1 1 .3.4.4.8.4 1.4a2.7 2.7 0 0 1-1.5 2.4l2.4 3.4h-2Zm-3.6-4.6h1.5c.4 0 .7 0 1-.3.2-.2.3-.5.3-1 0-.3-.1-.6-.3-.8-.3-.2-.6-.3-1-.3h-1.5v2.4Zm12.3 1v1h-4.6c.1.4.3.7.6 1l1.2.2c.6 0 1.2-.2 1.8-.6l.7 1.2a3.9 3.9 0 0 1-4.4.5 3.3 3.3 0 0 1-1.7-3 3.3 3.3 0 0 1 1.7-2.8 3.4 3.4 0 0 1 3.3 0c.4.2.8.5 1 1 .3.5.4 1 .4 1.5Zm-3-1.6c-.4 0-.8.2-1 .4-.3.2-.5.5-.6 1h3c0-.5-.2-.8-.5-1-.3-.2-.6-.4-1-.4Zm7.5 5.4c-.7 0-1.2-.2-1.8-.5a3.3 3.3 0 0 1-1.7-3 3.3 3.3 0 0 1 1.7-2.8 3.5 3.5 0 0 1 3.4 0c.5.2.9.6 1.2 1.1l-1.3 1-.6-.7-.9-.3c-.5 0-.9.2-1.2.5-.3.4-.5.8-.5 1.3s.2 1 .5 1.3c.3.3.7.4 1.2.4.3 0 .6 0 .9-.2l.6-.7 1.3 1a3 3 0 0 1-2.8 1.6Zm5 0c-.3 0-.6-.2-.8-.4-.3-.2-.4-.5-.4-.9 0-.3.1-.6.4-.8.2-.2.5-.4.8-.4.4 0 .6.2.9.4.2.2.3.5.3.8 0 .4 0 .7-.3 1-.2.1-.5.3-.9.3Zm3.7 0c-.4 0-.7-.2-.9-.4-.2-.2-.4-.5-.4-.9 0-.3.2-.6.4-.8.2-.2.5-.4.9-.4.3 0 .6.2.8.4.3.2.4.5.4.8 0 .4-.1.7-.4 1-.2.1-.5.3-.8.3Zm3.6 0c-.3 0-.6-.2-.9-.4-.2-.2-.3-.5-.3-.9 0-.3.1-.6.3-.8.3-.2.6-.4 1-.4.3 0 .5.2.8.4.2.2.3.5.3.8 0 .4-.1.7-.3 1-.3.1-.5.3-.9.3ZM515.7 401v8h-1.6v-6l-1.5.5-.4-1.4 3-1h.5Zm7.1 0v.5l-3.6 7.5h-1.7l3.2-6.5h-3.4v-1.4h5.5Zm.8 8.1c-.3 0-.6 0-.8-.3a1 1 0 0 1-.3-.8c0-.3.1-.5.3-.8.2-.2.5-.3.8-.3.3 0 .6.1.8.3.2.3.3.5.3.8 0 .3 0 .6-.3.8a1 1 0 0 1-.8.3Zm7.6-8v.4l-3.6 7.5h-1.8l3.2-6.5h-3.4v-1.4h5.6Zm3 3.8c-.4 0-.7-.1-1-.3a2 2 0 0 1-.8-.7 2 2 0 0 1-.3-1c0-.4.1-.7.3-1l.8-.7a2 2 0 0 1 1-.3 2 2 0 0 1 1.8 1l.2 1c0 .4 0 .7-.2 1a2 2 0 0 1-1.8 1Zm4-3.8h1.4L535 409h-1.3l4.6-8Zm-4 2.7.6-.3.2-.6c0-.2 0-.4-.2-.6a.7.7 0 0 0-.6-.2c-.2 0-.4 0-.6.2l-.2.6c0 .3 0 .5.2.6l.6.3Zm4.9 5.3c-.4 0-.7 0-1-.2a2 2 0 0 1-.8-.7 2 2 0 0 1-.3-1c0-.4.1-.7.3-1l.8-.8a2 2 0 0 1 1-.2c.4 0 .7 0 1 .2a1.9 1.9 0 0 1 1 1.8c0 .3 0 .7-.2 1a2 2 0 0 1-1.8 1Zm0-1.1c.2 0 .4 0 .5-.2l.3-.6c0-.3-.1-.5-.3-.7a.7.7 0 0 0-.5-.2c-.3 0-.4 0-.6.2l-.2.7c0 .2 0 .4.2.6l.6.2Z" fill="#475569"/><path fill-rule="evenodd" clip-rule="evenodd" d="M297 392V43h1v349h-1Z" fill="#E2E8F0"/><path fill-rule="evenodd" clip-rule="evenodd" d="M77.6 43.3H690v1.1H77.6v-1ZM77.6 105.3H690v1H77.6v-1ZM77.6 168.3H690v1H77.6v-1ZM77.6 231.3H690v1H77.6v-1ZM77.6 293.2H690v1H77.6v-1ZM77.6 356.2H690v1H77.6v-1ZM77.6 391.1H690v1H77.6v-1Z" fill="#E2E8F0"/><path fill-rule="evenodd" clip-rule="evenodd" d="M142 392V43h1v349h-1ZM296 392V40v352ZM451 392V43h1v349h-1Z" fill="#E2E8F0"/><path fill-rule="evenodd" clip-rule="evenodd" d="M522 392V43h2v349h-2Z" fill="#475569"/><path fill-rule="evenodd" clip-rule="evenodd" d="M607 392V40v352Z" fill="#E2E8F0"/><path d="M48.8 43.3c0-1.8 1.5-3.3 3.3-3.3h13.4c1.8 0 3.2 1.5 3.2 3.3 0 1.8-1.4 3.3-3.2 3.3H52.1a3.3 3.3 0 0 1-3.3-3.3ZM48.8 106.3c0-1.8 1.5-3.3 3.3-3.3h13.4c1.8 0 3.2 1.5 3.2 3.3 0 1.8-1.4 3.3-3.2 3.3H52.1a3.3 3.3 0 0 1-3.3-3.3ZM48.8 168.8c0-1.6 1.5-2.8 3.3-2.8h13.4c1.8 0 3.2 1.2 3.2 2.8 0 1.5-1.4 2.7-3.2 2.7H52.1c-1.8 0-3.3-1.2-3.3-2.7ZM48.8 231.2c0-1.8 1.5-3.3 3.3-3.3h13.4c1.8 0 3.2 1.5 3.2 3.3 0 1.8-1.4 3.3-3.2 3.3H52.1a3.3 3.3 0 0 1-3.3-3.3ZM48.8 293.7c0-1.6 1.5-2.8 3.3-2.8h13.4c1.8 0 3.2 1.2 3.2 2.8 0 1.5-1.4 2.7-3.2 2.7H52.1c-1.8 0-3.3-1.2-3.3-2.7ZM48.8 356.1c0-1.8 1.5-3.3 3.3-3.3h13.4c1.8 0 3.2 1.5 3.2 3.3 0 1.8-1.4 3.3-3.2 3.3H52.1a3.3 3.3 0 0 1-3.3-3.3ZM48.8 391.6c0-1.6 1.5-2.8 3.3-2.8h13.4c1.8 0 3.2 1.2 3.2 2.8 0 1.5-1.4 2.7-3.2 2.7H52.1c-1.8 0-3.3-1.2-3.3-2.7ZM131.8 404.8c0-1.5 1.4-2.7 3.2-2.7h13.4c1.8 0 3.2 1.2 3.2 2.7 0 1.5-1.4 2.8-3.2 2.8H135c-1.8 0-3.2-1.3-3.2-2.8ZM286.5 404.8c0-1.5 1.5-2.7 3.2-2.7h13.5c1.8 0 3.2 1.2 3.2 2.7 0 1.5-1.4 2.8-3.2 2.8h-13.5c-1.7 0-3.2-1.3-3.2-2.8ZM442.4 404.8c0-1.5 1.3-2.7 3-2.7h12.7c1.7 0 3 1.2 3 2.7 0 1.5-1.3 2.8-3 2.8h-12.7c-1.7 0-3-1.3-3-2.8ZM597.1 404.8c0-1.5 1.4-2.7 3-2.7H613c1.7 0 3 1.2 3 2.7 0 1.5-1.3 2.8-3 2.8h-12.7c-1.7 0-3-1.3-3-2.8Z" fill="#E2E8F0"/><path opacity=".6" fill-rule="evenodd" clip-rule="evenodd" d="M115.2 140c0 5.8-5 10.5-11 10.5-6.2 0-11.1-4.7-11.1-10.5s5-10.5 11-10.5c6.1 0 11 4.7 11 10.5M341.8 171.5a23.2 23.2 0 1 1-46.4 0 23.2 23.2 0 0 1 46.4 0M522 72c0 14-11.2 25.5-24.9 25.5A25.2 25.2 0 0 1 472.2 72c0-14 11.2-25.5 24.9-25.5A25.2 25.2 0 0 1 522 72.1M690 69.3a21.6 21.6 0 1 1-43.1 0 21.6 21.6 0 0 1 43.1 0M653.5 105.8a19.3 19.3 0 1 1-38.7 0 19.3 19.3 0 0 1 38.7 0M314.1 356.1a22.1 22.1 0 1 1-44.2 0 22.1 22.1 0 0 1 44.3 0M549.6 213c0 21-16.8 38.1-37.6 38.1-20.7 0-37.6-17-37.6-38.1 0-21 16.9-38.2 37.6-38.2 20.8 0 37.6 17.1 37.6 38.2M539.7 306.4a24.3 24.3 0 1 1-48.7 0 24.3 24.3 0 0 1 48.7 0M575 276.5a19.9 19.9 0 1 1-39.8 0 19.9 19.9 0 0 1 39.8 0M635.8 182a24.6 24.6 0 0 1-24.3 24.9 24.6 24.6 0 0 1-24.3-24.9 24.6 24.6 0 0 1 24.3-24.8 24.6 24.6 0 0 1 24.3 24.8" fill="#9ADDFC"/><path opacity=".6" fill-rule="evenodd" clip-rule="evenodd" d="M655.7 160a31.2 31.2 0 0 1-31 31.4c-17 0-30.9-14-30.9-31.5a31.2 31.2 0 0 1 31-31.5c17 0 31 14.1 31 31.5M501 195.3a12.7 12.7 0 1 1-25.5 0 12.7 12.7 0 0 1 25.5 0M561.8 186.4a3.9 3.9 0 1 1-7.8 0 3.9 3.9 0 0 1 7.8 0" fill="#9ADDFC"/><path d="m42.8 185.6 1-1c.9-1 1.7-1.8 1.7-3 0-1.3-1.2-2.3-2.7-2.3-1.7 0-2.7 1.2-2.7 2.4v.7h1.6v-.6c0-.7.4-1.1 1-1.1.7 0 1.1.4 1.1 1 0 .7-.3 1.2-1 2l-2.8 2.8v.4h5.7v-1.3h-2.9ZM48 187c.5 0 1-.5 1-1 0-.6-.5-1.1-1-1.1a1 1 0 0 0-1.2 1c0 .6.5 1.1 1.1 1.1ZM53.6 182.1l1.7-2.3v-.4h-5v1.4H53l-1.6 2.2v.4h1c1 0 1.5.3 1.5 1 0 .8-.6 1.2-1.3 1.2-.8 0-1.3-.4-1.7-1l-1 .7a3 3 0 0 0 2.7 1.7c1.6 0 3-1 3-2.6 0-1.2-1-2-2-2.3ZM60.8 183c.7-.4 1.1-1 1.1-1.8 0-1.2-1.1-2-2.5-2-1.5 0-2.6.8-2.6 2 0 .8.5 1.4 1.2 1.8-1 .3-1.5 1-1.5 1.9 0 1.3 1.2 2.1 2.9 2.1 1.6 0 2.8-.8 2.8-2.1 0-1-.6-1.6-1.4-2Zm-1.4-2.5c.6 0 1 .3 1 .8s-.4.8-1 1c-.7-.2-1.1-.5-1.1-1s.5-.8 1-.8Zm0 5.3c-1 0-1.3-.4-1.3-1s.5-.9 1.3-1.2c.7.3 1.3.6 1.3 1.2s-.4 1-1.3 1ZM65.3 183c1.1 0 2-.8 2-1.9 0-1-.9-1.8-2-1.8-1 0-2 .8-2 1.8s1 1.9 2 1.9Zm-.4 3.9H66l4.4-7.5h-1.2l-4.4 7.5Zm.4-5c-.4 0-.7-.3-.7-.8 0-.4.3-.8.7-.8.5 0 .8.4.8.8 0 .5-.3.8-.8.8Zm4.8 5c1 0 2-.7 2-1.8 0-1-1-1.8-2-1.8-1.1 0-2 .8-2 1.8s.9 1.9 2 1.9Zm0-1c-.5 0-.8-.3-.8-.8s.3-.8.8-.8c.4 0 .7.3.7.8s-.3.8-.7.8Z" fill="#FF8F8F"/><path fill-rule="evenodd" clip-rule="evenodd" d="M77.6 183.7H690v1H77.6v-1Z" fill="#FF8F8F"/></g><defs><filter id="a" x="0" y="0" width="738" height="488" filterUnits="userSpaceOnUse" color-interpolation-filters="sRGB"><feFlood flood-opacity="0" result="BackgroundImageFix"/><feColorMatrix in="SourceAlpha" values="0 0 0 0 0 0 0 0 0 0 0 0 0 0 0 0 0 0 127 0" result="hardAlpha"/><feOffset dx="8" dy="8"/><feComposite in2="hardAlpha" operator="out"/><feColorMatrix values="0 0 0 0 0.886275 0 0 0 0 0.909804 0 0 0 0 0.941176 0 0 0 1 0"/><feBlend in2="BackgroundImageFix" result="effect1_dropShadow_903_38716"/><feBlend in="SourceGraphic" in2="effect1_dropShadow_903_38716" result="shape"/></filter></defs></svg>