<svg fill="none" xmlns="http://www.w3.org/2000/svg" viewBox="0 0 630 384"><g filter="url(#a)"><rect x="1" y="1" width="620" height="374" rx="11" fill="#fff" stroke="#E2E8F0" stroke-width="2"/><path d="M52 330.5a3.5 3.5 0 1 1-7 0 3.5 3.5 0 0 1 7 0Z" fill="#67CBFA"/><path d="M120 330.5a3.5 3.5 0 1 1-7 0 3.5 3.5 0 0 1 7 0Z" fill="#B7E4A2"/><path d="M287 330.5a3.5 3.5 0 1 1-7 0 3.5 3.5 0 0 1 7 0Z" fill="#B8A4E1"/><path d="M413 330.5a3.5 3.5 0 1 1-7 0 3.5 3.5 0 0 1 7 0Z" fill="#FF8F8F"/><path d="m59.8 330.1.6.5c.2.3.3.5.3.8a1.5 1.5 0 0 1-.8 1.4 2 2 0 0 1-1 .2h-2.3v-5.3h1.9c.3 0 .6 0 .8.2a1.4 1.4 0 0 1 .9 1.3c0 .4-.2.7-.4 1Zm-2.2-1.5v1.3h.8l.5-.2.2-.5c0-.1 0-.3-.2-.4l-.5-.2h-.8Zm1.3 3.5c.2 0 .4 0 .5-.2.2-.1.2-.3.2-.5s0-.4-.2-.5a.8.8 0 0 0-.5-.2h-1.3v1.4H59ZM63 329c.6 0 1 .1 1.3.4.3.3.4.7.4 1.2v2.4h-1v-.4c0 .2-.3.3-.5.4l-.7.1c-.4 0-.7-.1-1-.3-.2-.3-.3-.5-.3-.9 0-.3.1-.6.4-.8.2-.2.6-.3 1-.3h1v-.2l-.1-.5c-.1-.2-.3-.2-.6-.2a1 1 0 0 0-.5.1 2 2 0 0 0-.5.4l-.6-.6c.5-.6 1-.8 1.7-.8Zm-.2 3.3c.3 0 .5 0 .6-.2l.3-.6h-1.3l-.1.4.1.3.4.1Zm4.2.8c-.4 0-.7 0-1-.2a2 2 0 0 1-.7-.6l.6-.6c.3.3.7.5 1.1.5h.4l.1-.3v-.2l-.4-.2-.4-.2c-.4-.1-.7-.3-.8-.5a1 1 0 0 1-.3-.7c0-.3.1-.6.4-.8.3-.2.6-.3 1-.3.6 0 1.1.1 1.5.5l-.6.7c-.2-.2-.5-.4-.9-.4l-.3.1v.4l.3.2.4.1.9.5.2.7c0 .4-.1.7-.4 1-.3.2-.7.3-1.1.3Zm6-2.3-.1.6h-2.8c0 .2.2.4.4.6l.7.2c.4 0 .8-.2 1.1-.4l.5.7a2.4 2.4 0 0 1-2.7.3 2 2 0 0 1-1-1.8 2 2 0 0 1 1-1.8 2.1 2.1 0 0 1 2 0c.3.2.5.4.6.7.2.2.3.6.3.9Zm-2-1-.5.2a1 1 0 0 0-.4.6H72c0-.2 0-.4-.2-.6a.9.9 0 0 0-.6-.2Zm5-2h2l1 .1.6.6c.2.3.3.6.3 1a1.6 1.6 0 0 1-1 1.4c-.2.2-.6.2-1 .2h-.8v1.9H76v-5.3Zm2 2.4c.2 0 .4 0 .5-.2.2-.2.3-.3.3-.6 0-.2-.1-.4-.3-.5a.8.8 0 0 0-.5-.2h-1v1.5h1ZM82 329c.5 0 1 .1 1.2.4.4.3.5.7.5 1.2v2.4h-1v-.4l-.5.4-.7.1c-.4 0-.7-.1-1-.3-.2-.3-.4-.5-.4-.9 0-.3.2-.6.4-.8.3-.2.7-.3 1.1-.3h1v-.2c0-.2 0-.4-.2-.5 0-.2-.3-.2-.5-.2a1 1 0 0 0-.5.1 2 2 0 0 0-.6.4l-.5-.6c.4-.6 1-.8 1.7-.8Zm-.2 3.3c.2 0 .4 0 .6-.2.2-.2.2-.4.2-.6H81.5l-.2.4c0 .1 0 .2.2.3l.4.1Zm6.7-3.3-1.9 4.3-.6 1-1 .2h-.7v-1h1l.3-.5.2-.2-1.6-3.8h1.2l1 2.6 1-2.6h1.1ZM127.1 333.1a2.8 2.8 0 0 1-2.4-1.3c-.3-.5-.4-1-.4-1.4 0-.5.1-1 .4-1.4.2-.4.6-.8 1-1 .4-.3.9-.4 1.4-.4a2.8 2.8 0 0 1 2.4 1.4c.3.4.4.9.4 1.4 0 .5-.1 1-.4 1.4-.2.4-.6.7-1 1-.4.2-.9.3-1.4.3Zm0-1c.3 0 .6 0 .9-.2l.6-.6.2-1c0-.3 0-.6-.2-.8l-.6-.7-.9-.2-.9.2-.6.7-.2.9c0 .3 0 .6.2.9a1.6 1.6 0 0 0 1.5.8Zm5.6 0h.5v.9a3 3 0 0 1-.7.1c-.5 0-1-.1-1.2-.4-.3-.2-.4-.6-.4-1V330h-.6v-1h.6v-1h1v1h1.2v1H132v1.5c0 .2 0 .4.2.5l.5.1Zm3.4-3.1c.4 0 .8.1 1 .4.3.3.5.7.5 1.1v2.5h-1.1v-2.3c0-.2 0-.4-.2-.6a.7.7 0 0 0-.5-.2l-.6.2-.2.6v2.3h-1v-6h1v2.4c.1-.2.3-.3.5-.3l.6-.1Zm6.1 1.8v.6h-2.8c0 .2.2.4.4.6l.7.2c.4 0 .8-.2 1.1-.4l.5.7a2.4 2.4 0 0 1-2.7.3 2 2 0 0 1-1-1.8 2 2 0 0 1 1-1.8 2.1 2.1 0 0 1 2 0l.6.7c.2.2.2.6.2.9Zm-1.9-1-.6.2a1 1 0 0 0-.3.6h1.8l-.3-.6a.9.9 0 0 0-.6-.2Zm4.8-.8h.3v1h-.3c-.3 0-.5 0-.7.3-.2.1-.3.4-.3.7v2h-1v-4h.9v.5a1.4 1.4 0 0 1 1-.5Zm3.2-1.3h1v4.3h2.4v1h-3.4v-5.3Zm5.9 5.4c-.4 0-.8-.1-1.1-.3l-.8-.7a2 2 0 0 1-.3-1c0-.5.1-.8.3-1.1l.8-.8c.3-.2.7-.2 1-.2a2.1 2.1 0 0 1 2.2 2c0 .4-.1.7-.3 1a2 2 0 0 1-.8.8c-.3.2-.6.3-1 .3Zm0-1c.3 0 .5-.1.7-.3.2-.2.3-.5.3-.8a1 1 0 0 0-.3-.8 1 1 0 0 0-.7-.3 1 1 0 0 0-.8.3 1 1 0 0 0-.3.8c0 .3.1.6.3.8.2.2.5.3.8.3Zm5-3.1c.5 0 .8.1 1.1.4.3.3.4.7.4 1.1v2.5h-1v-2.3l-.3-.6a.7.7 0 0 0-.5-.2c-.2 0-.4 0-.6.2l-.2.6v2.3h-1v-4h1v.4l.5-.3.6-.1Zm6.4 0v3.6c0 .6-.2 1.1-.5 1.4-.4.4-.9.5-1.5.5-.8 0-1.4-.2-2-.7l.6-.8.6.4.7.2c.3 0 .6-.1.8-.3.2-.1.3-.4.3-.7v-.2l-.6.4h-.7a2 2 0 0 1-1-.2l-.6-.7c-.2-.3-.2-.6-.2-1s0-.7.2-1l.7-.7a2 2 0 0 1 1-.2l.7.1.5.4v-.5h1Zm-2 3c.2 0 .5-.1.7-.3.2-.2.3-.5.3-.8 0-.3-.1-.6-.3-.8a1 1 0 0 0-.7-.2 1 1 0 0 0-.8.3 1 1 0 0 0-.3.7c0 .3.1.6.3.8.2.2.5.3.8.3Zm6-3.3H168v-1h4.4v1h-1.7v4.3h-1v-4.3Zm6.5 2v.7h-2.8c0 .2.2.4.4.6l.7.2c.4 0 .7-.2 1-.4l.5.7a2.4 2.4 0 0 1-2.7.3 2 2 0 0 1-1-1.8 2 2 0 0 1 1-1.8 2.1 2.1 0 0 1 2 0l.7.7.2.9Zm-1.9-.9-.6.2a1 1 0 0 0-.3.6h1.8l-.3-.6a.9.9 0 0 0-.6-.2Zm4.8-.8h.3v1h-.3c-.3 0-.6 0-.7.3-.2.1-.3.4-.3.7v2h-1.1v-4h1v.5a1.4 1.4 0 0 1 1-.5Zm5.5 0c.5 0 .8.1 1.1.4.3.3.4.7.4 1.1v2.5h-1v-2.3l-.3-.6a.7.7 0 0 0-.5-.2l-.5.2-.2.6v2.3h-1v-2.3l-.3-.6a.7.7 0 0 0-.5-.2l-.5.2-.2.6v2.3h-1v-4h.9v.4c.1-.1.3-.3.5-.3l.6-.1c.5 0 1 .1 1.2.5l.6-.4.7-.1Zm4.7-1.3h1v5.3h-1v-5.3Zm4.2 1.3c.5 0 .9.1 1.1.4.3.3.4.7.4 1.1v2.5h-1v-2.3l-.2-.6a.7.7 0 0 0-.6-.2c-.2 0-.4 0-.5.2-.2.2-.2.4-.2.6v2.3h-1.1v-4h1v.4l.5-.3.6-.1Zm4.4 4.1c-.4 0-.8-.1-1-.3-.4-.2-.7-.4-.9-.7a2 2 0 0 1-.2-1 2 2 0 0 1 1-1.9 2.2 2.2 0 0 1 2.1 0l.7.7-.7.6-.5-.4a1 1 0 0 0-.5-.2 1 1 0 0 0-.7.3 1 1 0 0 0-.3.8c0 .3 0 .6.3.8.2.2.4.3.7.3l.5-.1.5-.5.7.6a1.9 1.9 0 0 1-1.7 1Zm6-2.3v.6H201c0 .2.2.4.4.6l.7.2c.4 0 .8-.2 1.1-.4l.5.7a2.4 2.4 0 0 1-2.7.3 2 2 0 0 1-1-1.8 2 2 0 0 1 3-1.8c.2.2.5.4.6.7.2.2.3.6.3.9Zm-1.8-1-.6.2a1 1 0 0 0-.4.6h1.8c0-.2 0-.4-.2-.6a.9.9 0 0 0-.6-.2Zm4.8-.8c.4 0 .8.1 1 .4.3.3.5.7.5 1.1v2.5h-1.1v-2.3c0-.2 0-.4-.2-.6a.7.7 0 0 0-.5-.2c-.3 0-.4 0-.6.2l-.2.6v2.3h-1v-4h1v.4l.4-.3.7-.1Zm4.5 3.1h.5v.9a3 3 0 0 1-.8.1c-.5 0-.9-.1-1.1-.4-.3-.2-.5-.6-.5-1V330h-.6v-1h.6v-1h1.1v1h1.1v1h-1v2l.7.1Zm1.2-3h1v3.9h-1v-4Zm.5-.8-.5-.2a.6.6 0 0 1-.2-.5c0-.2 0-.4.2-.5l.5-.2c.2 0 .4 0 .5.2l.2.5c0 .2 0 .3-.2.5l-.5.2Zm5.4.7-2 4.1h-.3l-2-4h1.1l1 2.2 1-2.3h1.2Zm4 1.8v.6h-2.8l.4.6.7.2c.4 0 .8-.2 1.2-.4l.4.7a2.4 2.4 0 0 1-2.7.3 2 2 0 0 1-1-1.8 2 2 0 0 1 1-1.8 2.1 2.1 0 0 1 2 0c.3.2.5.4.6.7.2.2.3.6.3.9Zm-1.8-1-.6.2a1 1 0 0 0-.4.6h1.8c0-.2 0-.4-.2-.6a.9.9 0 0 0-.6-.2Zm8 .3c.3.2.6.3.7.5.2.3.3.5.3.8a1.5 1.5 0 0 1-.9 1.4 2 2 0 0 1-.9.2h-2.3v-5.3h1.9c.3 0 .6 0 .8.2a1.4 1.4 0 0 1 .8 1.3c0 .4-.1.7-.4 1Zm-2-1.5v1.3h.7l.5-.2.2-.5-.2-.4-.5-.2h-.8Zm1.2 3.5c.2 0 .4 0 .5-.2l.2-.5c0-.2 0-.4-.2-.5a.8.8 0 0 0-.5-.2h-1.3v1.4h1.3Zm6.2-1.3v.6h-2.8l.3.6.8.2c.4 0 .7-.2 1-.4l.5.7a2.4 2.4 0 0 1-2.7.3 2 2 0 0 1-1-1.8 2 2 0 0 1 1-1.8 2.1 2.1 0 0 1 2 0l.7.7.2.9Zm-1.9-1-.6.2a1 1 0 0 0-.3.6h1.8l-.3-.6a.9.9 0 0 0-.6-.2Zm4.8-.8c.5 0 .8.1 1.1.4.3.3.4.7.4 1.1v2.5h-1v-2.3l-.3-.6a.7.7 0 0 0-.5-.2c-.2 0-.4 0-.5.2-.2.2-.2.4-.2.6v2.3h-1.1v-4h1v.4l.5-.3.6-.1Zm6.2 1.8v.6h-2.9l.4.6.7.2c.4 0 .8-.2 1.2-.4l.4.7a2.4 2.4 0 0 1-2.7.3 2 2 0 0 1-1-1.8 2 2 0 0 1 1-1.8 2.1 2.1 0 0 1 2 0c.3.2.5.4.6.7.2.2.3.6.3.9Zm-2-1-.5.2a1 1 0 0 0-.4.6h1.8c0-.2 0-.4-.2-.6a.9.9 0 0 0-.6-.2Zm4.7-2-.5.2-.2.5v.5h.9v1h-.9v3h-1v-3h-.6v-1h.5v-.6c0-.5.2-.9.4-1.1.3-.3.7-.4 1.2-.4h.6v1h-.4Zm.9 1.2h1v4h-1v-4Zm.5-.7-.4-.2a.6.6 0 0 1-.2-.5c0-.2 0-.4.2-.5l.4-.2c.2 0 .4 0 .5.2.2.1.2.3.2.5s0 .3-.2.5l-.5.2Zm3.6 3.8h.5v.9a3 3 0 0 1-.7.1c-.5 0-1-.1-1.2-.4-.3-.2-.4-.6-.4-1V330h-.6v-1h.6v-1h1v1h1.2v1H250v1.5l.1.5.6.1Zm2.5 1c-.3 0-.7 0-1-.2a2 2 0 0 1-.6-.6l.5-.6c.4.3.7.5 1.1.5h.4l.1-.3v-.2l-.4-.2-.4-.2c-.4-.1-.6-.3-.8-.5a1 1 0 0 1-.3-.7c0-.3.1-.6.4-.8.3-.2.6-.3 1-.3.7 0 1.1.1 1.5.5l-.6.7c-.2-.2-.5-.4-.8-.4l-.4.1v.4l.4.2.3.1.9.5c.2.2.2.4.2.7 0 .4-.1.7-.4 1-.3.2-.6.3-1.1.3ZM294.1 333.1a2.8 2.8 0 0 1-2.4-1.3c-.3-.5-.4-1-.4-1.4 0-.5.1-1 .4-1.4.2-.4.6-.8 1-1 .4-.3.9-.4 1.4-.4a2.8 2.8 0 0 1 2.4 1.4c.3.4.4.9.4 1.4 0 .5-.1 1-.4 1.4-.2.4-.6.7-1 1-.4.2-.9.3-1.4.3Zm0-1c.3 0 .6 0 .9-.2l.6-.6.2-1c0-.3 0-.6-.2-.8l-.6-.7-.9-.2-.9.2-.6.7-.2.9c0 .3 0 .6.2.9a1.6 1.6 0 0 0 1.5.8Zm5.6 0h.5v.9a3 3 0 0 1-.7.1c-.5 0-1-.1-1.2-.4-.3-.2-.4-.6-.4-1V330h-.6v-1h.6v-1h1v1h1.2v1H299v1.5c0 .2 0 .4.2.5l.5.1Zm3.4-3.1c.4 0 .8.1 1 .4.3.3.5.7.5 1.1v2.5h-1.1v-2.3c0-.2 0-.4-.2-.6a.7.7 0 0 0-.5-.2l-.6.2-.2.6v2.3h-1v-6h1v2.4c.1-.2.3-.3.5-.3l.6-.1Zm6.1 1.8v.6h-2.8c0 .2.2.4.4.6l.7.2c.4 0 .8-.2 1.1-.4l.5.7a2.4 2.4 0 0 1-2.7.3 2 2 0 0 1-1-1.8 2 2 0 0 1 1-1.8 2.1 2.1 0 0 1 2 0l.6.7c.2.2.2.6.2.9Zm-1.9-1-.6.2a1 1 0 0 0-.3.6h1.8l-.3-.6a.9.9 0 0 0-.6-.2Zm4.8-.8h.3v1h-.3c-.3 0-.5 0-.7.3-.2.1-.3.4-.3.7v2H310v-4h1v.5a1.4 1.4 0 0 1 1-.5Zm4.8 4.1-1.2-.3c-.3-.2-.6-.5-.8-.9l.7-.5.6.5c.2.2.4.2.7.2l.6-.1.2-.4c0-.2 0-.3-.2-.4l-.5-.3-.6-.3c-.4-.1-.7-.4-.9-.6-.2-.2-.3-.5-.3-.9 0-.3 0-.5.2-.8l.6-.5 1-.2c.3 0 .7.1 1 .3l.7.7-.8.6c-.2-.4-.6-.6-1-.6l-.5.1-.1.4.1.3.5.3.6.3 1 .6c.2.3.3.6.3 1a1.5 1.5 0 0 1-1 1.3l-.9.2Zm4.5 0a2 2 0 0 1-1-.2c-.3-.2-.5-.4-.6-.7a2 2 0 0 1-.3-1V329h1.1v2.3c0 .3 0 .5.2.6l.6.2c.2 0 .4 0 .5-.2l.2-.6V329h1v2.3c0 .3 0 .6-.2 1l-.6.6a2 2 0 0 1-1 .2Zm5-4.1c.4 0 .7 0 1 .2.3.2.5.4.7.8l.2 1c0 .4 0 .8-.2 1a1.9 1.9 0 0 1-2.4 1l-.5-.4v1.8h-1V329h1v.5c0-.2.2-.3.5-.4l.7-.1Zm-.2 3.1c.3 0 .5 0 .7-.3.2-.2.3-.5.3-.8a1 1 0 0 0-.3-.8 1 1 0 0 0-.7-.3 1 1 0 0 0-.7.3c-.2.2-.3.5-.3.8 0 .4.1.6.3.8.2.2.4.3.7.3Zm5.2-3.1c.3 0 .6 0 1 .2.2.2.5.4.6.8.2.3.3.6.3 1s-.1.8-.3 1a1.9 1.9 0 0 1-2.3 1l-.5-.4v1.8H329V329h1v.5l.5-.4.8-.1Zm-.2 3.1c.2 0 .5 0 .7-.3.2-.2.3-.5.3-.8a1 1 0 0 0-.3-.8 1 1 0 0 0-.7-.3 1 1 0 0 0-.8.3l-.2.8c0 .4 0 .6.2.8.2.2.5.3.8.3Zm2.8-5.1h1.1v6h-1v-6Zm5.8 3.8v.6H337c0 .2.2.4.4.6l.7.2c.4 0 .7-.2 1-.4l.5.7a2.4 2.4 0 0 1-2.7.3 2 2 0 0 1-1-1.8 2 2 0 0 1 1-1.8 2.1 2.1 0 0 1 2 0l.7.7.2.9Zm-1.9-1-.6.2a1 1 0 0 0-.3.6h1.8l-.3-.6a.9.9 0 0 0-.6-.2Zm7.3-.8c.5 0 .8.1 1 .4.4.3.5.7.5 1.1v2.5h-1v-2.3l-.3-.6a.7.7 0 0 0-.5-.2l-.5.2c-.2.2-.2.4-.2.6v2.3H343v-2.3c0-.2 0-.4-.2-.6a.7.7 0 0 0-.5-.2l-.5.2c-.2.2-.2.4-.2.6v2.3h-1.1v-4h1v.4c.1-.1.3-.3.5-.3l.6-.1c.5 0 1 .1 1.2.5l.5-.4.8-.1Zm6.1 1.8v.6h-2.8c0 .2.2.4.4.6l.7.2c.4 0 .8-.2 1.1-.4l.5.7a2.4 2.4 0 0 1-2.7.3 2 2 0 0 1-1-1.8 2 2 0 0 1 3-1.8c.2.2.5.4.6.7.2.2.2.6.2.9Zm-1.9-1-.6.2a1 1 0 0 0-.3.6h1.8c0-.2 0-.4-.3-.6a.9.9 0 0 0-.6-.2Zm4.9-.8c.4 0 .8.1 1 .4.3.3.5.7.5 1.1v2.5h-1.1v-2.3c0-.2 0-.4-.2-.6a.7.7 0 0 0-.6-.2c-.2 0-.4 0-.5.2l-.2.6v2.3h-1v-4h.9v.4l.5-.3.7-.1Zm4.4 3.1h.6v.9a3 3 0 0 1-.8.1c-.5 0-.9-.1-1.2-.4-.2-.2-.4-.6-.4-1V330h-.6v-1h.6v-1h1.1v1h1.1v1h-1v2l.6.1Zm2.9-3.1c.5 0 1 .1 1.2.4.3.3.5.7.5 1.2v2.4h-1v-.4l-.5.4-.7.1c-.4 0-.8-.1-1-.3-.3-.3-.4-.5-.4-.9 0-.3.1-.6.4-.8.3-.2.6-.3 1.1-.3h1v-.2c0-.2 0-.4-.2-.5-.1-.2-.3-.2-.5-.2a1 1 0 0 0-.6.1 2 2 0 0 0-.5.4l-.5-.6c.4-.6 1-.8 1.7-.8Zm-.2 3.3c.2 0 .4 0 .6-.2l.2-.6h-1.3l-.1.4c0 .1 0 .2.2.3l.4.1Zm2.8-5.3h1.1v6h-1v-6Zm4.3.7h2c.4 0 .7 0 1 .2l.7.6.2 1a1.6 1.6 0 0 1-.9 1.4c-.3.2-.6.2-1 .2h-.9v1.9h-1v-5.3Zm2 2.5c.3 0 .5 0 .6-.2.2-.2.2-.3.2-.6 0-.2 0-.4-.2-.5a.8.8 0 0 0-.6-.2h-.9v1.5h1Zm4.2-1.2c.5 0 1 .1 1.2.4.3.3.5.7.5 1.2v2.4h-1v-.4l-.5.4-.7.1c-.4 0-.8-.1-1-.3-.3-.3-.4-.5-.4-.9 0-.3.1-.6.4-.8.3-.2.7-.3 1.1-.3h1v-.2c0-.2 0-.4-.2-.5-.1-.2-.3-.2-.5-.2a1 1 0 0 0-.6.1 2 2 0 0 0-.5.4l-.5-.6c.4-.6 1-.8 1.7-.8Zm-.2 3.3c.2 0 .4 0 .6-.2l.2-.6H374l-.1.4c0 .1 0 .2.2.3l.4.1Zm6.7-3.3-2 4.3c-.1.5-.3.8-.6 1l-.9.2h-.7v-1h1l.3-.5.1-.2-1.5-3.8h1.1l1 2.6 1-2.6h1.2ZM420.1 333.1a2.8 2.8 0 0 1-2.4-1.3c-.3-.5-.4-1-.4-1.4 0-.5.1-1 .4-1.4.2-.4.6-.8 1-1 .4-.3.9-.4 1.4-.4a2.8 2.8 0 0 1 2.4 1.4c.3.4.4.9.4 1.4 0 .5-.1 1-.4 1.4-.2.4-.6.7-1 1-.4.2-.9.3-1.4.3Zm0-1c.3 0 .6 0 .9-.2l.6-.6.2-1c0-.3 0-.6-.2-.8l-.6-.7-.9-.2-.9.2-.6.7-.2.9c0 .3 0 .6.2.9a1.6 1.6 0 0 0 1.5.8Zm7.4-3-2 4h-.3l-2-4h1.1l1 2.2 1-2.3h1.2Zm4.1 1.7v.6h-2.9l.4.6.8.2c.3 0 .7-.2 1-.4l.5.7a2.4 2.4 0 0 1-2.7.3 2 2 0 0 1-1-1.8 2 2 0 0 1 3-1.8l.7.7.2.9Zm-2-1-.5.2a1 1 0 0 0-.4.6h1.8c0-.2 0-.4-.2-.6a.9.9 0 0 0-.6-.2Zm4.8-.8h.4v1h-.3c-.3 0-.6 0-.8.3-.2.1-.3.4-.3.7v2h-1v-4h1v.5a1.4 1.4 0 0 1 1-.5Zm3 3.1h.5v.9a3 3 0 0 1-.7.1c-.5 0-1-.1-1.2-.4-.3-.2-.4-.6-.4-1V330h-.6v-1h.6v-1h1v1h1.2v1h-1.1v1.5c0 .2 0 .4.2.5l.5.1Zm1.2-3h1.1v3.9h-1v-4Zm.6-.8-.5-.2a.6.6 0 0 1-.2-.5c0-.2 0-.4.2-.5l.5-.2c.2 0 .3 0 .5.2l.2.5-.2.5-.5.2Zm6.1.7c.5 0 .8.1 1.1.4.3.3.4.7.4 1.1v2.5h-1v-2.3l-.3-.6a.7.7 0 0 0-.5-.2l-.5.2-.2.6v2.3h-1v-2.3l-.3-.6a.7.7 0 0 0-.5-.2l-.5.2c-.2.2-.2.4-.2.6v2.3h-1.1v-4h1v.4c.1-.1.3-.3.5-.3l.6-.1c.5 0 1 .1 1.2.5.1-.2.3-.3.6-.4l.7-.1Zm6.2 1.8-.1.6h-2.8c0 .2.2.4.4.6l.7.2c.4 0 .8-.2 1.1-.4l.5.7a2.4 2.4 0 0 1-2.7.3 2 2 0 0 1-1-1.8 2 2 0 0 1 1-1.8 2.1 2.1 0 0 1 2 0c.2.2.5.4.6.7.2.2.3.6.3.9Zm-2-1-.5.2a1 1 0 0 0-.4.6h1.8c0-.2 0-.4-.2-.6a.9.9 0 0 0-.6-.2Zm6.6 3.3-1.2-.3c-.3-.2-.6-.5-.8-.9l.7-.5.6.5c.2.2.4.2.7.2l.6-.1.2-.4c0-.2 0-.3-.2-.4l-.5-.3-.6-.3c-.4-.1-.7-.4-.9-.6-.2-.2-.3-.5-.3-.9a1.4 1.4 0 0 1 .8-1.3l1-.2c.3 0 .7.1 1 .3l.7.7-.8.6c-.3-.4-.6-.6-1-.6l-.5.1-.1.4v.3l.6.3.6.3 1 .6c.2.3.3.6.3 1a1.5 1.5 0 0 1-1 1.3l-.9.2Zm4.5 0a2 2 0 0 1-1-.2c-.3-.2-.5-.4-.6-.7a2 2 0 0 1-.3-1V329h1.1v2.3c0 .3 0 .5.2.6l.6.2c.2 0 .3 0 .5-.2l.2-.6V329h1v2.3c0 .3 0 .6-.2 1l-.6.6a2 2 0 0 1-1 .2Zm5-4.1c.4 0 .7 0 1 .2.3.2.5.4.7.8l.2 1c0 .4 0 .8-.2 1a1.8 1.8 0 0 1-1.7 1h-.7l-.5-.4v1.8h-1V329h1v.5c0-.2.2-.3.5-.4l.7-.1Zm-.2 3.1c.3 0 .5 0 .7-.3.2-.2.3-.5.3-.8a1 1 0 0 0-.3-.8 1 1 0 0 0-.7-.3 1 1 0 0 0-.7.3c-.2.2-.3.5-.3.8 0 .4.1.6.3.8.2.2.4.3.7.3Zm5.2-3.1c.3 0 .6 0 1 .2.2.2.5.4.6.8.2.3.3.6.3 1s-.1.8-.3 1a1.9 1.9 0 0 1-2.3 1l-.5-.4v1.8h-1.1V329h1v.5l.5-.4.8-.1Zm-.2 3.1c.2 0 .5 0 .7-.3.2-.2.3-.5.3-.8a1 1 0 0 0-.3-.8 1 1 0 0 0-.7-.3 1 1 0 0 0-.8.3c-.2.2-.2.5-.2.8 0 .4 0 .6.2.8.2.2.5.3.8.3Zm2.8-5.1h1.1v6h-1v-6Zm5.8 3.8v.6h-2.8c0 .2.2.4.4.6l.7.2c.4 0 .7-.2 1-.4l.5.7a2.4 2.4 0 0 1-2.7.3 2 2 0 0 1-1-1.8 2 2 0 0 1 3-1.8l.7.7.2.9Zm-1.9-1-.6.2a1 1 0 0 0-.3.6h1.8l-.3-.6a.9.9 0 0 0-.6-.2Zm7.3-.8c.5 0 .8.1 1 .4.4.3.5.7.5 1.1v2.5h-1v-2.3l-.3-.6a.7.7 0 0 0-.5-.2l-.5.2c-.2.2-.2.4-.2.6v2.3h-1.1v-2.3c0-.2 0-.4-.2-.6a.7.7 0 0 0-.5-.2l-.5.2c-.2.2-.2.4-.2.6v2.3h-1.1v-4h1v.4c.1-.1.3-.3.5-.3l.6-.1c.5 0 1 .1 1.2.5l.5-.4.8-.1Zm6.1 1.8v.6h-2.8c0 .2.2.4.4.6l.7.2c.4 0 .8-.2 1.1-.4l.5.7a2.4 2.4 0 0 1-2.7.3 2 2 0 0 1-1-1.8 2 2 0 0 1 1-1.8 2.1 2.1 0 0 1 2 0c.2.2.5.4.6.7.2.2.2.6.2.9Zm-1.9-1-.6.2a1 1 0 0 0-.3.6h1.8c0-.2 0-.4-.3-.6a.9.9 0 0 0-.6-.2Zm4.9-.8c.4 0 .8.1 1 .4.3.3.4.7.4 1.1v2.5h-1v-2.3c0-.2 0-.4-.2-.6a.7.7 0 0 0-.6-.2c-.2 0-.4 0-.5.2l-.2.6v2.3h-1v-4h.9v.4l.5-.3.7-.1Zm4.4 3.1h.6v.9a3 3 0 0 1-.8.1c-.5 0-.9-.1-1.2-.4-.2-.2-.4-.6-.4-1V330h-.6v-1h.6v-1h1.1v1h1.1v1h-1.1v1.5c0 .2 0 .4.2.5l.5.1Zm2.9-3.1c.5 0 1 .1 1.2.4.3.3.5.7.5 1.2v2.4h-1v-.4l-.5.4-.7.1c-.4 0-.8-.1-1-.3-.3-.3-.4-.5-.4-.9 0-.3.1-.6.4-.8.3-.2.6-.3 1.1-.3h1v-.2c0-.2 0-.4-.2-.5-.1-.2-.3-.2-.5-.2a1 1 0 0 0-.6.1 2 2 0 0 0-.5.4l-.5-.6c.4-.6 1-.8 1.7-.8Zm-.2 3.3c.2 0 .4 0 .6-.2l.2-.6h-1.3l-.1.4.1.3.5.1Zm2.8-5.3h1.1v6h-1v-6Zm4.3.7h2c.4 0 .7 0 1 .2l.7.6.2 1a1.6 1.6 0 0 1-.9 1.4c-.3.2-.6.2-1 .2h-.9v1.9h-1v-5.3Zm2 2.5c.3 0 .5 0 .6-.2.2-.2.2-.3.2-.6 0-.2 0-.4-.2-.5a.8.8 0 0 0-.6-.2h-.9v1.5h1Zm4.2-1.2c.5 0 1 .1 1.2.4.3.3.5.7.5 1.2v2.4h-1v-.4l-.5.4-.7.1c-.4 0-.8-.1-1-.3-.3-.3-.4-.5-.4-.9 0-.3.1-.6.4-.8.3-.2.6-.3 1.1-.3h1v-.2c0-.2 0-.4-.2-.5-.1-.2-.3-.2-.5-.2a1 1 0 0 0-.6.1 2 2 0 0 0-.5.4l-.5-.6c.4-.6 1-.8 1.7-.8Zm-.2 3.3c.2 0 .4 0 .6-.2l.2-.6h-1.3l-.1.4c0 .1 0 .2.2.3l.4.1Zm6.7-3.3-2 4.3c-.1.5-.3.8-.6 1l-.9.2h-.7v-1h1l.3-.5.1-.2-1.5-3.8h1.1l1 2.6 1-2.6h1.2Z" fill="#475569"/><path stroke="#E2E8F0" d="M85.5 282 85.5 76"/><path stroke="#E2E8F0" d="M184.5 282 184.5 76"/><path stroke="#E2E8F0" d="M283.5 282 283.5 76"/><path stroke="#E2E8F0" d="M382.5 282 382.5 76"/><path stroke="#E2E8F0" d="M481.5 282 481.5 76"/><path stroke="#E2E8F0" d="M581.5 282 581.5 76"/><rect x="40" y="84" width="34" height="6" rx="3" fill="#E2E8F0"/><rect x="45" y="109" width="29" height="6" rx="3" fill="#E2E8F0"/><rect x="60" y="134" width="14" height="6" rx="3" fill="#E2E8F0"/><rect x="40" y="159" width="34" height="6" rx="3" fill="#E2E8F0"/><rect x="49" y="184" width="25" height="6" rx="3" fill="#E2E8F0"/><rect x="45" y="209" width="29" height="6" rx="3" fill="#E2E8F0"/><rect x="40" y="234" width="34" height="6" rx="3" fill="#E2E8F0"/><rect x="49" y="259" width="25" height="6" rx="3" fill="#E2E8F0"/><rect x="73" y="291" width="26" height="6" rx="3" fill="#E2E8F0"/><rect x="171" y="291" width="26" height="6" rx="3" fill="#E2E8F0"/><rect x="268" y="291" width="26" height="6" rx="3" fill="#E2E8F0"/><rect x="370" y="291" width="26" height="6" rx="3" fill="#E2E8F0"/><rect x="469" y="291" width="26" height="6" rx="3" fill="#E2E8F0"/><rect x="568" y="291" width="26" height="6" rx="3" fill="#E2E8F0"/><path fill="#67CBFA" d="M86 81H206V93H86z"/><path fill="#67CBFA" d="M86 106H246V118H86z"/><path fill="#67CBFA" d="M86 131H133V143H86z"/><path fill="#67CBFA" d="M86 156H115V168H86z"/><path fill="#67CBFA" d="M86 181H126V193H86z"/><path fill="#67CBFA" d="M86 206H104V218H86z"/><path fill="#67CBFA" d="M86 230H108V242H86z"/><path fill="#67CBFA" d="M86 256H96V268H86z"/><path fill="#FF8F8F" d="M493 81H568V93H493z"/><path fill="#FF8F8F" d="M275 106H298V118H275z"/><path fill="#FF8F8F" d="M160 131H167V143H160z"/><path fill="#FF8F8F" d="M136 156H140V168H136z"/><path fill="#FF8F8F" d="M134 206H136V218H134z"/><path fill="#FF8F8F" d="M117 230H124V242H117z"/><path fill="#FF8F8F" d="M145 181H147V193H145z"/><path fill="#B7E4A2" d="M206 81H229V93H206z"/><path fill="#B7E4A2" d="M246 106H248V118H246z"/><path fill="#B7E4A2" d="M133 131H140V143H133z"/><path fill="#B7E4A2" d="M115 156H119V168H115z"/><path fill="#B7E4A2" d="M126 181H140V193H126z"/><path fill="#B7E4A2" d="M104 206H109V218H104z"/><path fill="#B7E4A2" d="M108 230H111V242H108z"/><path fill="#B7E4A2" d="M96 256H110V268H96z"/><path fill="#B8A4E1" d="M229 81H493V93H229z"/><path fill="#B8A4E1" d="M248 106H275V118H248z"/><path fill="#B8A4E1" d="M140 131H160V143H140z"/><path fill="#B8A4E1" d="M119 156H136V168H119z"/><path fill="#B8A4E1" d="M140 181H145V193H140z"/><path fill="#B8A4E1" d="M109 206H134V218H109z"/><path fill="#B8A4E1" d="M111 230H117V242H111z"/><path fill="#B8A4E1" d="M110 256H111V268H110z"/><path fill="#FF8F8F" d="M111 256H112V268H111z"/><path d="M46 52.9h-3.5l-.4 1.1h-2l3.9-8.7h.6l3.8 8.7h-1.9l-.5-1.1Zm-1.7-4.4-1.2 3h2.3l-1.1-3Zm7.9 5.7c-.6 0-1.2-.2-1.8-.5a3.3 3.3 0 0 1-1.7-3 3.3 3.3 0 0 1 1.7-2.8 3.5 3.5 0 0 1 3.5 0c.4.2.8.6 1 1.1l-1.1 1-.7-.7c-.3-.2-.5-.3-.9-.3-.5 0-.9.2-1.2.5-.3.4-.5.8-.5 1.3s.2 1 .5 1.3c.3.3.7.4 1.2.4.3 0 .6 0 .9-.2l.7-.7 1.2 1a3 3 0 0 1-2.8 1.6Zm7.3-1.6h.8V54a5 5 0 0 1-1.2.2c-.8 0-1.5-.2-2-.6-.4-.4-.6-1-.6-1.9V49h-1v-1.4h1v-1.7h1.8v1.7H60V49h-1.8v2.6c0 .3 0 .6.2.8l1 .2Zm4.8 1.6c-.5 0-1-.2-1.5-.4-.4-.3-.8-.6-1-1-.3-.5-.4-1-.4-1.6v-3.6H63v3.7c0 .4.1.7.4 1l.8.2c.4 0 .7 0 .9-.3.2-.2.3-.5.3-.9v-3.7h1.8v3.6a3 3 0 0 1-.4 1.5c-.3.5-.6.8-1 1-.5.3-1 .5-1.6.5Zm7.2-6.8c.8 0 1.5.3 2 .7.5.5.7 1.2.7 2V54h-1.6v-.6l-.8.5c-.4.2-.7.3-1.1.3-.7 0-1.3-.2-1.7-.6-.4-.3-.6-.8-.6-1.4 0-.5.3-1 .7-1.3.4-.4 1-.5 1.8-.5h1.6V50c0-.4-.1-.7-.3-.9-.2-.2-.5-.3-1-.3l-.8.3-.8.6-1-1c.8-1 1.8-1.4 2.9-1.4ZM71 53c.4 0 .7-.1 1-.4.2-.2.4-.5.4-1H71c-.3 0-.5 0-.7.2l-.2.5c0 .2 0 .4.3.5l.6.2Zm4.7-8.6h1.7V54h-1.7v-9.8Zm13.3 0V54h-1.6v-.8c-.2.3-.5.5-.9.7-.3.2-.7.3-1.2.3a3 3 0 0 1-1.6-.5c-.5-.3-.8-.7-1-1.2-.4-.5-.5-1-.5-1.7s.1-1.2.4-1.7a3 3 0 0 1 2.7-1.7c.8 0 1.5.3 2 .8v-4H89Zm-3.4 8.3c.5 0 .9-.2 1.2-.5.3-.3.5-.7.5-1.3 0-.6-.2-1-.5-1.3-.3-.3-.7-.5-1.2-.5-.4 0-.8.2-1.1.5-.4.3-.5.7-.5 1.3 0 .5.1 1 .5 1.3.3.3.7.5 1.1.5Zm5-5h1.8V54h-1.8v-6.4Zm.9-1.3c-.3 0-.6-.1-.8-.3a1 1 0 0 1-.3-.8c0-.3 0-.5.3-.8.2-.2.5-.3.8-.3.3 0 .6.1.8.3.2.3.3.5.3.8 0 .3-.1.6-.3.8-.2.2-.5.3-.8.3Zm5.9 1.2h.5v1.6h-.4c-.6 0-1 .2-1.3.4-.3.3-.5.7-.5 1.3V54h-1.7v-6.4h1.6v.7a2.3 2.3 0 0 1 1.8-.8Zm7.4 3-.1.9h-4.5c0 .4.3.7.6 1l1.2.2c.6 0 1.2-.2 1.8-.6l.7 1.2a3.9 3.9 0 0 1-4.4.5 3.3 3.3 0 0 1-1.7-3A3.3 3.3 0 0 1 100 48a3.4 3.4 0 0 1 3.3 0c.5.2.8.5 1.1 1 .3.5.4 1 .4 1.5Zm-3.1-1.7c-.4 0-.7.2-1 .4-.3.2-.4.5-.5 1h2.9c0-.5-.2-.8-.4-1-.3-.2-.6-.4-1-.4Zm7.4 5.4c-.6 0-1.2-.2-1.7-.5-.6-.3-1-.7-1.3-1.2-.3-.5-.4-1.1-.4-1.7a3.3 3.3 0 0 1 1.7-3 3.5 3.5 0 0 1 3.4 0c.5.3.8.7 1.1 1.2l-1.2 1c-.2-.3-.4-.6-.7-.7-.2-.2-.5-.3-.9-.3-.5 0-.9.2-1.2.5-.3.4-.5.8-.5 1.3s.2 1 .5 1.3c.3.3.7.4 1.2.4.4 0 .7 0 .9-.2l.7-.7 1.2 1a3 3 0 0 1-2.8 1.6Zm7.3-1.6h.8V54a5 5 0 0 1-1.2.2c-.8 0-1.4-.2-1.9-.6-.5-.4-.7-1-.7-1.9V49h-1v-1.4h1v-1.7h1.8v1.7h1.8V49h-1.8v2.6c0 .3 0 .6.3.8l.9.2Zm8.5 1.6c-.6 0-1.2-.2-1.7-.5s-1-.7-1.2-1.2a3.3 3.3 0 0 1 1.2-4.6 3.5 3.5 0 0 1 3.4 0c.5.2.9.6 1.1 1.1l-1.2 1c-.2-.3-.4-.6-.7-.7-.2-.2-.5-.3-.8-.3-.5 0-1 .2-1.3.5-.3.4-.4.8-.4 1.3s.1 1 .4 1.3c.4.3.8.4 1.3.4.3 0 .6 0 .8-.2l.7-.7 1.2 1a3 3 0 0 1-2.8 1.6Zm7 0c-.7 0-1.3-.2-1.8-.5a3.4 3.4 0 0 1-1.7-3c0-.5.2-1.1.5-1.6s.7-1 1.2-1.2c.5-.3 1.1-.5 1.8-.5a3.4 3.4 0 0 1 3.4 3.4c0 .6-.1 1.2-.4 1.7-.4.5-.8.9-1.3 1.2-.5.3-1.1.4-1.8.4Zm0-1.7c.4 0 .8-.1 1.1-.5.4-.3.5-.7.5-1.2s-.1-1-.5-1.3a1.6 1.6 0 0 0-2.4 0c-.2.4-.4.8-.4 1.3s.2 1 .5 1.2c.3.4.7.5 1.2.5Zm12.1-5c.8 0 1.4.2 1.8.6.5.5.7 1.1.7 2V54h-1.8v-3.7c0-.4 0-.7-.3-1a1 1 0 0 0-.8-.3c-.4 0-.7.1-.9.3-.2.3-.3.6-.3 1V54h-1.8v-3.7c0-.4 0-.7-.3-1a1 1 0 0 0-.8-.3c-.4 0-.6.1-.9.3-.2.3-.3.6-.3 1V54h-1.7v-6.4h1.6v.5l.8-.5 1-.2c.8 0 1.5.3 1.9 1 .3-.3.6-.6 1-.7a3 3 0 0 1 1.1-.3Zm7.7 0a3 3 0 0 1 1.6.4c.5.3.8.6 1.1 1.2.3.5.4 1 .4 1.7 0 .6-.1 1.2-.4 1.7a3 3 0 0 1-1.1 1.2 3 3 0 0 1-1.6.5 3 3 0 0 1-1-.2l-1-.6v3h-1.7v-8.8h1.6v.8c.2-.3.5-.6.9-.7l1.2-.3Zm-.3 5c.4 0 .8-.1 1.2-.4.3-.4.4-.8.4-1.3s-.1-1-.4-1.3c-.4-.3-.7-.5-1.2-.5s-.8.2-1.2.5c-.3.3-.5.7-.5 1.3 0 .5.2 1 .5 1.3.3.3.7.5 1.2.5Zm10.7-2-.1.9h-4.5c0 .4.3.7.6 1l1.2.2c.6 0 1.2-.2 1.8-.6l.7 1.2a3.9 3.9 0 0 1-4.4.5 3.2 3.2 0 0 1-1.7-3 3.3 3.3 0 0 1 1.7-2.8 3.4 3.4 0 0 1 3.2 0c.5.2.9.5 1.1 1 .3.5.4 1 .4 1.5Zm-3.1-1.7c-.4 0-.7.2-1 .4-.2.2-.4.5-.5 1h2.9c0-.5-.2-.8-.4-1-.3-.2-.6-.4-1-.4Zm7.8-1.4c.8 0 1.4.3 1.8.7.4.5.7 1.1.7 2V54h-1.8v-3.8l-.3-.9c-.2-.2-.5-.3-.9-.3l-.9.3c-.2.3-.3.6-.3 1V54h-1.8v-6.4h1.6v.5c.3-.2.5-.4.9-.5l1-.2Zm6 6.8c-.5 0-1-.2-1.4-.4-.5-.2-.9-.5-1.2-.9l1-1c.5.5 1 .8 1.7.8l.6-.1c.2-.1.2-.2.2-.4l-.1-.3-.5-.3-.7-.3a4 4 0 0 1-1.3-.8c-.3-.3-.5-.7-.5-1.2 0-.6.2-1 .7-1.4.4-.3 1-.5 1.7-.5 1 0 1.7.3 2.3 1l-.9 1a2 2 0 0 0-1.4-.5 1 1 0 0 0-.5 0l-.2.4.1.3.6.3.6.2 1.4.9c.3.2.4.6.4 1.1 0 .6-.2 1.1-.7 1.5-.5.4-1 .6-1.8.6Zm6.4-6.8c.9 0 1.5.3 2 .7.5.5.8 1.2.8 2V54h-1.6v-.6c-.3.2-.5.4-.9.5-.3.2-.7.3-1 .3-.8 0-1.3-.2-1.7-.6-.4-.3-.6-.8-.6-1.4 0-.5.2-1 .6-1.3.5-.4 1-.5 1.8-.5h1.6V50c0-.4 0-.7-.3-.9-.2-.2-.5-.3-.9-.3-.3 0-.6.1-.8.3l-.9.6-.9-1c.8-1 1.7-1.4 2.8-1.4ZM179 53c.4 0 .7-.1 1-.4.2-.2.3-.5.3-1H179c-.3 0-.5 0-.7.2-.2 0-.2.3-.2.5s0 .4.2.5l.7.2Zm8-.3h.8V54a5 5 0 0 1-1.2.2c-.8 0-1.5-.2-2-.6-.4-.4-.6-1-.6-1.9V49h-1v-1.4h1v-1.7h1.8v1.7h1.8V49h-1.8v2.6c0 .3 0 .6.2.8l1 .2Zm2-5h1.7V54h-1.8v-6.4Zm.8-1.3c-.3 0-.6-.1-.8-.3a1 1 0 0 1-.3-.8c0-.3 0-.5.3-.8.2-.2.5-.3.8-.3.3 0 .6.1.8.3.2.3.3.5.3.8 0 .3 0 .6-.3.8-.2.2-.5.3-.8.3Zm5.6 7.8c-.7 0-1.3-.1-1.8-.4a3.4 3.4 0 0 1-1.7-3c0-.5.2-1.1.5-1.6s.7-1 1.2-1.2c.6-.3 1.1-.5 1.8-.5a3.4 3.4 0 0 1 3.4 3.4c0 .6-.1 1.2-.4 1.7-.3.5-.8.9-1.3 1.2-.5.3-1.1.4-1.7.4Zm0-1.6c.4 0 .8-.1 1.2-.5.3-.3.4-.7.4-1.2s-.1-1-.4-1.3c-.4-.3-.8-.5-1.2-.5-.5 0-1 .2-1.2.5-.3.4-.5.8-.5 1.3s.2 1 .5 1.2c.3.4.7.5 1.2.5Zm8.2-5c.7 0 1.3.2 1.7.6.5.5.7 1.1.7 2V54h-1.8v-3.8c0-.3 0-.6-.3-.9-.2-.2-.5-.3-.9-.3-.3 0-.6.1-.8.3-.3.3-.4.6-.4 1V54h-1.7v-6.4h1.6v.5l.8-.5 1-.2Zm11.1 0a3 3 0 0 1 1.6.4c.5.3.9.6 1.2 1.2.2.5.4 1 .4 1.7 0 .6-.2 1.2-.4 1.7a3 3 0 0 1-2.7 1.6c-.5 0-.9 0-1.3-.2l-.8-.7v.8H211v-9.8h1.7v4c.5-.5 1.1-.8 2-.8Zm-.3 5c.5 0 .9-.1 1.2-.4.3-.4.5-.8.5-1.3 0-.6-.2-1-.5-1.3-.3-.3-.7-.5-1.2-.5-.4 0-.8.2-1.1.5-.4.3-.5.7-.5 1.3 0 .6.1 1 .5 1.3.3.3.7.5 1.1.5Zm10.8-5-3 7c-.4.7-.7 1.2-1.1 1.5-.4.3-1 .5-1.5.5-.4 0-.8 0-1.2-.2V55h.8c.3 0 .6 0 .8-.2.2 0 .4-.3.5-.6l.2-.5-2.4-6h1.8l1.6 4.2 1.7-4.2h1.8Zm7.5 6.6c-.6 0-1.2-.1-1.8-.4a3.3 3.3 0 0 1-1.7-3c0-.5.2-1.1.5-1.6s.7-1 1.3-1.2c.5-.3 1-.5 1.7-.5a3.4 3.4 0 0 1 3.5 3.4c0 .6-.2 1.2-.5 1.7s-.7.9-1.3 1.2c-.5.3-1 .4-1.7.4Zm0-1.6c.5 0 .9-.1 1.2-.5.3-.3.5-.7.5-1.2s-.2-1-.5-1.3c-.3-.3-.7-.5-1.2-.5s-.9.2-1.2.5c-.3.4-.5.8-.5 1.3s.2 1 .5 1.2c.3.4.7.5 1.2.5Zm8-5h.7v1.6h-.5c-.5 0-1 .2-1.3.4-.3.3-.4.7-.4 1.3V54h-1.8v-6.4h1.6v.7a2.2 2.2 0 0 1 1.8-.8Zm8 0v5.8c0 1-.4 1.8-1 2.4-.6.5-1.4.8-2.4.8-1.2 0-2.2-.4-3.1-1.2l.9-1.2 1 .6 1 .2c.6 0 1-.1 1.3-.4.3-.2.5-.6.5-1.1V53c-.2.3-.5.5-.9.6a3 3 0 0 1-1 .2c-.7 0-1.2-.1-1.7-.4-.4-.3-.8-.6-1-1.1a3.3 3.3 0 0 1 0-3.3c.2-.5.6-1 1-1.2.5-.2 1-.4 1.6-.4.5 0 .9.1 1.3.3.3.1.6.4.8.7v-.8h1.6Zm-3.4 4.8c.4 0 .8-.1 1.1-.4.4-.3.5-.8.5-1.3 0-.6-.1-1-.5-1.3-.3-.2-.7-.4-1.1-.4-.5 0-.9.2-1.2.5-.3.3-.5.7-.5 1.2s.2 1 .5 1.3c.3.3.7.4 1.2.4Zm7.6-4.9c.8 0 1.5.3 2 .7.5.5.8 1.2.8 2V54H254v-.6l-.8.5c-.3.2-.7.3-1.1.3-.7 0-1.3-.2-1.6-.6-.4-.3-.6-.8-.6-1.4 0-.5.2-1 .6-1.3.4-.4 1-.5 1.8-.5h1.6V50c0-.4-.1-.7-.3-.9-.2-.2-.5-.3-.9-.3l-.9.3-.8.6-1-1c.8-1 1.8-1.4 2.9-1.4Zm-.4 5.5c.4 0 .7-.1 1-.4.3-.2.4-.5.4-1h-1.4c-.3 0-.5 0-.6.2-.2 0-.3.3-.3.5s.1.4.3.5l.6.2Zm8.2-5.5c.8 0 1.3.3 1.8.7.4.5.6 1.1.6 2V54h-1.7v-3.8c0-.3-.1-.6-.4-.9-.2-.2-.5-.3-.8-.3-.4 0-.7.1-.9.3-.2.3-.3.6-.3 1V54h-1.8v-6.4h1.6v.5l.8-.5 1.1-.2Zm4 .2h1.7V54h-1.7v-6.4Zm.9-1.3c-.4 0-.6-.1-.8-.3a1 1 0 0 1-.4-.8c0-.3.1-.5.4-.8.2-.2.4-.3.8-.3.3 0 .5.1.7.3.3.3.4.5.4.8 0 .3-.1.6-.4.8-.2.2-.4.3-.7.3Zm7.4 6.2V54h-5.6v-.5l3-4.5h-2.7v-1.4h5.3v.4l-3 4.5h3Zm3.6-5c.9 0 1.5.2 2 .6.5.5.8 1.2.8 2V54h-1.6v-.6c-.3.2-.5.4-.9.5-.3.2-.7.3-1 .3-.8 0-1.3-.2-1.7-.6-.4-.3-.6-.8-.6-1.4 0-.5.2-1 .6-1.3.5-.4 1-.5 1.8-.5h1.6V50c0-.4 0-.7-.3-.9-.2-.2-.5-.3-.9-.3-.3 0-.6.1-.8.3l-.9.6-.9-1c.8-1 1.7-1.4 2.8-1.4Zm-.3 5.4c.4 0 .7-.1 1-.4.2-.2.3-.5.3-1h-1.3c-.3 0-.5 0-.7.2-.2 0-.2.3-.2.5s0 .4.2.5l.7.2Zm8-.3h.8V54a5 5 0 0 1-1.2.2c-.8 0-1.5-.2-2-.6-.4-.4-.6-1-.6-1.9V49h-1v-1.4h1v-1.7h1.8v1.7h1.8V49H283v2.6c0 .3 0 .6.2.8l1 .2Zm2-5h1.7V54h-1.8v-6.4Zm.8-1.3c-.3 0-.6-.1-.8-.3a1 1 0 0 1-.3-.8c0-.3 0-.5.3-.8.2-.2.5-.3.8-.3.3 0 .6.1.8.3.2.3.3.5.3.8 0 .3 0 .6-.3.8-.2.2-.5.3-.8.3Zm5.6 7.8c-.7 0-1.3-.1-1.8-.4a3.4 3.4 0 0 1-1.7-3c0-.5.2-1.1.5-1.6s.7-1 1.2-1.2c.6-.3 1.1-.5 1.8-.5a3.4 3.4 0 0 1 3.4 3.4c0 .6-.1 1.2-.4 1.7-.3.5-.8.9-1.3 1.2-.5.3-1.1.4-1.7.4Zm0-1.6c.4 0 .8-.1 1.2-.5.3-.3.4-.7.4-1.2s-.1-1-.4-1.3c-.4-.3-.8-.5-1.2-.5-.5 0-1 .2-1.2.5-.3.4-.5.8-.5 1.3s.2 1 .5 1.2c.3.4.7.5 1.2.5Zm8.2-5c.7 0 1.3.2 1.7.6.5.5.7 1.1.7 2V54h-1.8v-3.8c0-.3 0-.6-.3-.9-.2-.2-.5-.3-.9-.3-.3 0-.6.1-.8.3-.3.3-.4.6-.4 1V54h-1.7v-6.4h1.6v.5l.8-.5 1-.2Zm10.1 0c.8 0 1.5.2 2 .6.5.5.8 1.2.8 2V54H312v-.6l-.8.5c-.3.2-.7.3-1.1.3-.7 0-1.2-.2-1.6-.6-.4-.3-.6-.8-.6-1.4 0-.5.2-1 .6-1.3.4-.4 1-.5 1.8-.5h1.6V50c0-.4-.1-.7-.3-.9-.2-.2-.5-.3-.9-.3l-.9.3-.8.6-1-1c.8-1 1.8-1.4 2.9-1.4Zm-.4 5.4c.4 0 .7-.1 1-.4.3-.2.4-.5.4-1h-1.4c-.3 0-.5 0-.6.2-.2 0-.3.3-.3.5s.1.4.3.5l.6.2Zm8.2-5.5c.8 0 1.3.3 1.8.7.4.5.6 1.1.6 2V54h-1.7v-3.8c0-.3-.1-.6-.4-.9-.2-.2-.5-.3-.8-.3-.4 0-.7.1-.9.3-.2.3-.3.6-.3 1V54h-1.8v-6.4h1.6v.5l.8-.5 1.1-.2Zm10.4-3.1V54h-1.6v-.8c-.2.3-.5.5-.9.7-.3.2-.7.3-1.2.3a3 3 0 0 1-1.6-.5c-.4-.3-.8-.7-1-1.2-.3-.5-.5-1-.5-1.7s.2-1.2.4-1.7a3 3 0 0 1 2.7-1.7c.9 0 1.5.3 2 .8v-4h1.7Zm-3.3 8.3c.4 0 .8-.2 1.1-.5.3-.3.5-.7.5-1.3 0-.6-.2-1-.5-1.3-.3-.3-.7-.5-1.1-.5-.5 0-.9.2-1.2.5-.3.3-.5.7-.5 1.3 0 .5.2 1 .5 1.3.3.3.7.5 1.2.5Zm11.5 1.6c-.6 0-1.2-.2-1.7-.5s-1-.7-1.3-1.2c-.3-.5-.4-1.1-.4-1.7a3.3 3.3 0 0 1 1.7-3 3.5 3.5 0 0 1 3.4 0c.5.3.8.7 1.1 1.2l-1.2 1c-.2-.3-.4-.6-.7-.7-.2-.2-.5-.3-.8-.3-.5 0-1 .2-1.3.5-.3.4-.4.8-.4 1.3s.1 1 .4 1.3c.4.3.8.4 1.3.4.3 0 .6 0 .8-.2l.7-.7 1.2 1a3 3 0 0 1-2.8 1.6Zm7 0c-.7 0-1.3-.2-1.8-.5a3.4 3.4 0 0 1-1.7-3c0-.5.1-1.1.5-1.6.3-.5.7-1 1.2-1.2.5-.3 1.1-.5 1.7-.5a3.4 3.4 0 0 1 3.5 3.4c0 .6-.2 1.2-.5 1.7s-.7.9-1.2 1.2c-.6.3-1.1.4-1.8.4Zm0-1.7c.4 0 .8-.1 1.1-.5.3-.3.5-.7.5-1.2s-.2-1-.5-1.3c-.3-.3-.7-.5-1.2-.5-.4 0-.8.2-1.2.5-.3.4-.4.8-.4 1.3s.1 1 .4 1.2c.4.4.8.5 1.2.5Zm12.1-5c.8 0 1.4.2 1.8.6.4.5.7 1.1.7 2V54h-1.8v-3.7c0-.4-.1-.7-.3-1a1 1 0 0 0-.8-.3c-.4 0-.7.1-.9.3-.2.3-.3.6-.3 1V54H353v-3.7c0-.4 0-.7-.3-1a1 1 0 0 0-.8-.3c-.4 0-.7.1-.9.3-.2.3-.3.6-.3 1V54H349v-6.4h1.7v.5l.7-.5 1-.2c1 0 1.6.3 2 1 .2-.3.5-.6 1-.7a3 3 0 0 1 1.1-.3Zm7.7 0a3 3 0 0 1 1.6.4c.5.3.8.6 1.1 1.2.3.5.4 1 .4 1.7 0 .6-.1 1.2-.4 1.7a3 3 0 0 1-1.1 1.2 3 3 0 0 1-1.6.5 3 3 0 0 1-1.1-.2l-.8-.6v3h-1.8v-8.8h1.6v.8c.2-.3.5-.6.9-.7.3-.2.7-.3 1.2-.3Zm-.3 5c.4 0 .8-.1 1.1-.4.4-.4.5-.8.5-1.3s-.1-1-.5-1.3c-.3-.3-.7-.5-1.1-.5-.5 0-.9.2-1.2.5-.3.3-.5.7-.5 1.3 0 .5.2 1 .5 1.3.3.3.7.5 1.2.5Zm10.7-2-.1.9H370c0 .4.3.7.6 1l1.2.2c.6 0 1.2-.2 1.8-.6l.7 1.2a3.9 3.9 0 0 1-4.4.5 3.2 3.2 0 0 1-1.7-3 3.3 3.3 0 0 1 1.6-2.8 3.4 3.4 0 0 1 3.3 0c.5.2.8.5 1 1 .3.5.5 1 .5 1.5Zm-3.1-1.7c-.4 0-.7.2-1 .4-.3.2-.5.5-.5 1h2.9c0-.5-.2-.8-.4-1-.3-.2-.6-.4-1-.4Zm7.8-1.4c.8 0 1.3.3 1.8.7.4.5.6 1.1.6 2V54H380v-3.8l-.3-.9-.9-.3c-.4 0-.7.1-.9.3-.2.3-.3.6-.3 1V54h-1.8v-6.4h1.6v.5l.8-.5 1.1-.2Zm6 6.8c-.5 0-1-.2-1.5-.4-.4-.2-.8-.5-1-.9l.8-1c.6.5 1.2.8 1.8.8l.6-.1.2-.4-.1-.3-.5-.3-.7-.3a4 4 0 0 1-1.4-.8c-.2-.3-.4-.7-.4-1.2 0-.6.2-1 .7-1.4.4-.3 1-.5 1.7-.5 1 0 1.7.3 2.3 1l-.9 1a2 2 0 0 0-1.4-.5 1 1 0 0 0-.5 0c-.2.1-.2.3-.2.4l.1.3.6.3.6.2 1.3.9c.3.2.5.6.5 1.1 0 .6-.3 1.1-.7 1.5-.5.4-1.1.6-1.8.6Zm6.4-6.8c.9 0 1.5.3 2 .7.5.5.8 1.2.8 2V54h-1.6v-.6l-.9.5c-.3.2-.7.3-1.1.3-.7 0-1.2-.2-1.6-.6-.4-.3-.6-.8-.6-1.4 0-.5.2-1 .6-1.3.5-.4 1-.5 1.8-.5h1.6V50c0-.4 0-.7-.3-.9-.2-.2-.5-.3-.9-.3l-.9.3-.8.6-.9-1c.8-1 1.7-1.4 2.8-1.4Zm-.3 5.5c.3 0 .7-.1 1-.4.2-.2.3-.5.3-1h-1.4c-.2 0-.5 0-.6.2-.2 0-.3.3-.3.5s.1.4.3.5l.7.2Zm8-.3h.8V54a5 5 0 0 1-1.2.2c-.9 0-1.5-.2-2-.6-.4-.4-.6-1-.6-1.9V49h-1v-1.4h1v-1.7h1.7v1.7h1.9V49H398v2.6c0 .3.1.6.3.8l1 .2Zm2-5h1.7V54h-1.8v-6.4Zm.8-1.3c-.3 0-.6-.1-.8-.3a1 1 0 0 1-.3-.8c0-.3 0-.5.3-.8.2-.2.5-.3.8-.3.3 0 .6.1.8.3.2.3.3.5.3.8 0 .3-.1.6-.3.8-.2.2-.5.3-.8.3Zm5.5 7.8c-.6 0-1.2-.1-1.7-.4a3.4 3.4 0 0 1-1.7-3c0-.5.2-1.1.5-1.6s.7-1 1.2-1.2c.5-.3 1.1-.5 1.8-.5a3.4 3.4 0 0 1 3.4 3.4c0 .6-.1 1.2-.5 1.7-.3.5-.7.9-1.2 1.2-.5.3-1.1.4-1.8.4Zm0-1.6c.5 0 1-.1 1.2-.5.4-.3.5-.7.5-1.2s-.1-1-.5-1.3a1.6 1.6 0 0 0-2.4 0c-.3.4-.4.8-.4 1.3s.1 1 .5 1.2c.3.4.7.5 1.2.5Zm8.2-5c.8 0 1.4.2 1.8.6.4.5.7 1.1.7 2V54h-1.8v-3.8c0-.3 0-.6-.3-.9-.2-.2-.5-.3-.9-.3l-.9.3c-.2.3-.3.6-.3 1V54h-1.7v-6.4h1.6v.5l.8-.5 1-.2Zm10.8 5h.9V54a5 5 0 0 1-1.2.2c-.8 0-1.5-.2-2-.6-.4-.4-.6-1-.6-1.9V49h-1v-1.4h1v-1.7h1.7v1.7h1.9V49h-1.9v2.6c0 .3.1.6.3.8l1 .2Zm8.3-5-3.1 7c-.3.7-.7 1.2-1 1.5-.5.3-1 .5-1.6.5-.3 0-.7 0-1.1-.2V55h.7c.4 0 .6 0 .8-.2.2 0 .4-.3.6-.6l.2-.5-2.5-6h1.9l1.5 4.2 1.7-4.2h1.9Zm4.5 0a3 3 0 0 1 1.6.4c.5.3.9.6 1.1 1.2.3.5.4 1 .4 1.7 0 .6 0 1.2-.4 1.7a3 3 0 0 1-1 1.2 3 3 0 0 1-1.7.5 3 3 0 0 1-1-.2l-.9-.6v3h-1.8v-8.8h1.7v.8c.2-.3.5-.6.8-.7l1.2-.3Zm-.3 5c.5 0 .9-.1 1.2-.4.3-.4.5-.8.5-1.3s-.2-1-.5-1.3c-.3-.3-.7-.5-1.2-.5-.4 0-.8.2-1.1.5-.4.3-.5.7-.5 1.3 0 .5.1 1 .4 1.3.4.3.8.5 1.2.5Zm10.7-2v.9h-4.6c.1.4.3.7.6 1l1.2.2c.6 0 1.2-.2 1.8-.6l.7 1.2a3.9 3.9 0 0 1-4.4.5 3.3 3.3 0 0 1-1.7-3 3.3 3.3 0 0 1 1.7-2.8 3.4 3.4 0 0 1 3.3 0c.4.2.8.5 1 1 .3.5.4 1 .4 1.5Zm-3-1.7c-.4 0-.8.2-1 .4-.3.2-.5.5-.6 1h3c0-.5-.2-.8-.5-1-.3-.2-.6-.4-1-.4Z" fill="#475569"/></g><defs><filter id="a" x="0" y="0" width="630" height="384" filterUnits="userSpaceOnUse" color-interpolation-filters="sRGB"><feFlood flood-opacity="0" result="BackgroundImageFix"/><feColorMatrix in="SourceAlpha" values="0 0 0 0 0 0 0 0 0 0 0 0 0 0 0 0 0 0 127 0" result="hardAlpha"/><feOffset dx="8" dy="8"/><feComposite in2="hardAlpha" operator="out"/><feColorMatrix values="0 0 0 0 0.886275 0 0 0 0 0.909804 0 0 0 0 0.941176 0 0 0 1 0"/><feBlend in2="BackgroundImageFix" result="effect1_dropShadow_903_27060"/><feBlend in="SourceGraphic" in2="effect1_dropShadow_903_27060" result="shape"/></filter></defs></svg>