<svg fill="none" xmlns="http://www.w3.org/2000/svg" viewBox="0 0 738 396"><g filter="url(#a)"><rect x="1" y="1" width="728" height="386" rx="11" fill="#fff" stroke="#E2E8F0" stroke-width="2"/><path d="M46.5 52.8h-3.8l-.5 1.2h-2l4.1-9.4h.6l4.2 9.4h-2l-.6-1.2Zm-1.9-4.7-1.2 3.1h2.5l-1.3-3ZM54 47c.7 0 1.2.2 1.7.5.6.3 1 .7 1.2 1.3.3.5.5 1.1.5 1.8a4 4 0 0 1-.5 1.9c-.2.5-.6 1-1.2 1.3-.5.3-1 .5-1.7.5L53 54l-1-.7v3.2h-1.8v-9.4h1.7v.8c.2-.3.5-.5 1-.7.3-.2.7-.3 1.2-.3Zm-.3 5.5c.5 0 .9-.1 1.2-.5.4-.3.6-.8.6-1.4 0-.5-.2-1-.6-1.3-.3-.4-.7-.6-1.2-.6s-1 .2-1.3.5c-.3.3-.5.8-.5 1.4 0 .6.2 1.1.5 1.5.4.3.8.4 1.3.4Zm9-5.5c.6 0 1.2.2 1.7.5s1 .7 1.2 1.3c.3.5.4 1.1.4 1.8a4 4 0 0 1-.4 1.9c-.3.5-.7 1-1.2 1.3-.5.3-1 .5-1.7.5l-1.2-.2-.9-.7v3.2h-1.9v-9.4h1.8v.8c.2-.3.5-.5.9-.7.4-.2.8-.3 1.3-.3Zm-.4 5.5c.5 0 1-.1 1.3-.5.3-.3.5-.8.5-1.4 0-.5-.2-1-.5-1.3-.3-.4-.8-.6-1.3-.6-.4 0-.9.2-1.2.5-.3.3-.5.8-.5 1.4 0 .6.1 1.1.5 1.5.3.3.7.4 1.2.4Zm5-8.9h2V54h-2V43.5Zm3.7 3.6h1.9V54H71v-7Zm1-1.4c-.4 0-.7-.1-1-.3-.1-.2-.3-.5-.3-.9 0-.3.2-.6.4-.8.2-.2.5-.3.8-.3.4 0 .7 0 .9.3.2.2.4.5.4.8 0 .4-.2.7-.4.9-.2.2-.5.3-.9.3Zm6 8.5c-.7 0-1.4-.2-2-.5a3.6 3.6 0 0 1-1.8-3.2 3.5 3.5 0 0 1 1.9-3.1 3.8 3.8 0 0 1 3.6 0c.5.3 1 .7 1.3 1.2l-1.4 1-.7-.7c-.3-.2-.6-.3-1-.3-.5 0-.9.2-1.2.6-.4.3-.6.8-.6 1.3 0 .6.2 1 .6 1.4.3.4.7.5 1.3.5.3 0 .6 0 .9-.2.3-.2.5-.4.7-.8l1.4 1a3.3 3.3 0 0 1-3 1.8Zm7-7.3c1 0 1.7.3 2.2.8.5.5.8 1.2.8 2.2V54h-1.7v-.7c-.3.3-.6.5-1 .6a3 3 0 0 1-1.1.3c-.8 0-1.4-.2-1.8-.6a2 2 0 0 1-.6-1.5c0-.6.2-1.1.7-1.5a3 3 0 0 1 1.9-.5H86v-.3c0-.4 0-.7-.3-1l-1-.2c-.3 0-.6 0-1 .2l-.8.7-1-1.2c.8-1 1.8-1.4 3-1.4Zm-.3 5.9c.4 0 .7-.1 1-.4.3-.3.4-.6.4-1h-1.5l-.7.1-.2.5c0 .3 0 .4.2.6l.8.2Zm8.8-5.9c.8 0 1.4.3 1.9.8.4.5.7 1.2.7 2V54h-2v-4c0-.4 0-.8-.3-1-.2-.3-.5-.4-.9-.4s-.7.1-1 .4c-.2.2-.3.6-.3 1v4h-1.9v-7h1.7v.7l1-.6 1-.2Zm7.8 5.6h.9V54l-1.3.2a3 3 0 0 1-2-.7c-.5-.4-.8-1-.8-2v-2.8h-1V47h1v-1.8h2v1.8h1.9v1.6h-2v2.7c0 .4.1.7.3.8.2.2.6.3 1 .3Zm6-7.7h2v3.5h4v-3.5h2V54h-2v-4h-4v4h-2v-9.2ZM117 47h1.9V54h-2v-7Zm1-1.4c-.4 0-.7-.1-1-.3-.2-.2-.3-.5-.3-.9 0-.3.1-.6.4-.8.2-.2.5-.3.8-.3.4 0 .6 0 .9.3.2.2.3.5.3.8 0 .4 0 .7-.3.9-.3.2-.5.3-.9.3Zm6.2 1.3h.7v1.7h-.5a2 2 0 0 0-1.4.5c-.3.3-.5.7-.5 1.3V54h-1.9v-7h1.7v.9a2.4 2.4 0 0 1 2-1Zm8 3.1v1h-5c.2.5.4.9.7 1 .4.3.8.4 1.3.4.7 0 1.3-.2 2-.7l.7 1.3a4.2 4.2 0 0 1-4.7.6 3.5 3.5 0 0 1-1.8-3.2 3.6 3.6 0 0 1 1.7-3.1 3.7 3.7 0 0 1 3.6 0c.5.2.9.6 1.1 1.1.3.5.5 1 .5 1.6Zm-3.3-1.7c-.4 0-.7.2-1 .4-.3.3-.5.6-.6 1h3.1c0-.4-.1-.7-.4-1-.3-.2-.7-.4-1-.4Zm8.6-3.6h6.2v1.7h-4.3v1.8h3.2V50h-3.2v2.3h4.5V54h-6.4v-9.2Zm14 2.3-3.4 7h-.6l-3.4-7h2l1.7 3.9 1.8-4h2Zm7.2 3v1h-5c.2.5.4.9.7 1 .4.3.8.4 1.3.4.7 0 1.3-.2 2-.7l.7 1.3a4.2 4.2 0 0 1-4.7.6 3.5 3.5 0 0 1-1.9-3.2 3.6 3.6 0 0 1 1.8-3.1 3.7 3.7 0 0 1 3.6 0c.5.2.8.6 1.1 1.1.3.5.4 1 .4 1.6Zm-3.3-1.7c-.4 0-.7.2-1 .4-.3.3-.5.6-.6 1h3.1c0-.4-.2-.7-.4-1-.3-.2-.7-.4-1.1-.4Zm8.4-1.5c.8 0 1.5.3 2 .8.4.5.6 1.2.6 2V54h-1.8v-4c0-.4-.2-.8-.4-1-.2-.3-.5-.4-1-.4-.3 0-.6.1-.9.4-.2.2-.3.6-.3 1v4h-2v-7h1.8v.7l.9-.6 1.1-.2Zm7.9 5.6h.9V54l-1.3.2a3 3 0 0 1-2-.7c-.6-.4-.8-1-.8-2v-2.8h-1V47h1v-1.8h1.9v1.8h2v1.6h-2v2.7c0 .4 0 .7.3.8.2.2.5.3 1 .3Zm4.3 1.7c-.6 0-1.1-.1-1.6-.4-.5-.2-1-.6-1.2-1l1-1.1c.5.6 1.2 1 1.9 1l.6-.2c.2-.1.3-.3.3-.5l-.2-.3-.6-.3-.7-.3c-.6-.3-1.1-.5-1.4-.9-.3-.3-.5-.7-.5-1.2 0-.7.2-1.2.7-1.5a3 3 0 0 1 1.9-.6c1 0 1.8.4 2.4 1l-.9 1.2c-.5-.4-1-.6-1.6-.6a1 1 0 0 0-.5 0l-.2.4c0 .2 0 .3.2.4l.5.3.7.2c.7.3 1.2.6 1.5 1 .3.2.4.6.4 1.2a2 2 0 0 1-.7 1.6 3 3 0 0 1-2 .6Zm7.8-7.1h2V54h-2v-7Zm1-1.4c-.4 0-.7-.1-.9-.3-.2-.2-.3-.5-.3-.9 0-.3 0-.6.3-.8.2-.2.5-.3.9-.3.3 0 .6 0 .8.3.3.2.4.5.4.8 0 .4-.1.7-.4.9-.2.2-.5.3-.8.3Zm6.4 1.2c.8 0 1.4.3 2 .8.4.5.6 1.2.6 2V54H192v-4c0-.4 0-.8-.3-1-.3-.3-.6-.4-1-.4-.3 0-.7.1-1 .4-.2.2-.3.6-.3 1v4h-1.9v-7h1.8v.7l.9-.6a3 3 0 0 1 1.1-.2Zm8.2-2.1h3.5c.6 0 1.2 0 1.7.3s.9.6 1.2 1c.3.5.4 1 .4 1.6a2.9 2.9 0 0 1-1.6 2.7c-.5.2-1 .3-1.7.3h-1.6V54h-1.9v-9.2Zm3.5 4.3a1.3 1.3 0 0 0 1.4-1.3c0-.5-.2-.8-.4-1-.3-.3-.6-.4-1-.4h-1.6v2.7h1.6Zm10.9 1c0 .4 0 .7-.2 1h-4.8c.1.5.3.9.7 1 .3.3.7.4 1.2.4.7 0 1.4-.2 2-.7l.8 1.3a4.2 4.2 0 0 1-4.8.6 3.5 3.5 0 0 1-1.8-3.2 3.6 3.6 0 0 1 1.8-3.1 3.7 3.7 0 0 1 3.5 0c.5.2.9.6 1.2 1.1.2.5.4 1 .4 1.6Zm-3.4-1.7c-.4 0-.7.2-1 .4-.3.3-.5.6-.6 1h3.1c0-.4-.1-.7-.4-1-.3-.2-.6-.4-1-.4Zm8.4-1.4h.6v1.7h-.5a2 2 0 0 0-1.4.5c-.3.3-.5.7-.5 1.3V54h-1.9v-7h1.7v.9a2.4 2.4 0 0 1 2-1Zm1.6 0h1.9v7h-1.9v-7Zm1-1.3c-.4 0-.7-.1-1-.3-.2-.2-.3-.5-.3-.9 0-.3.2-.6.4-.8.2-.2.5-.3.8-.3.4 0 .7 0 .9.3.2.2.4.5.4.8 0 .4-.2.7-.4.9-.2.2-.5.3-.9.3Zm6 8.5a3.7 3.7 0 0 1-3.7-3.6c0-.7 0-1.3.4-1.9.3-.6.8-1 1.4-1.3a3.7 3.7 0 0 1 5.6 3.1c0 .7-.2 1.3-.5 1.9-.4.5-.8 1-1.4 1.3-.6.3-1.2.5-1.9.5Zm0-1.8c.4 0 .9-.2 1.2-.5.4-.4.5-.8.5-1.4 0-.5-.1-1-.5-1.3-.3-.4-.8-.6-1.3-.6s-1 .2-1.3.6c-.3.3-.5.8-.5 1.3 0 .6.2 1 .5 1.4.4.3.8.5 1.3.5Zm12-8.9V54h-1.8v-.9c-.2.4-.6.6-1 .8a3 3 0 0 1-1.2.3c-.7 0-1.3-.2-1.8-.5s-.9-.7-1.2-1.3a4 4 0 0 1-.4-1.9c0-.6.1-1.3.4-1.8a3.2 3.2 0 0 1 3-1.8c.8 0 1.5.3 2 .8v-4.2h2Zm-3.7 9c.5 0 .9-.2 1.2-.5.4-.4.6-.8.6-1.5 0-.6-.2-1-.6-1.4-.3-.3-.7-.5-1.2-.5s-1 .2-1.3.6c-.3.3-.5.8-.5 1.3 0 .6.2 1 .5 1.4.4.4.8.5 1.3.5Z" fill="#475569"/><path d="M248.8 47c.7 0 1.2 0 1.7.4.5.3 1 .7 1.2 1.3.3.5.5 1.2.5 1.8a4 4 0 0 1-.5 1.9 3.2 3.2 0 0 1-3 1.8l-1.2-.3c-.4-.2-.7-.4-1-.8v.9h-1.7V43.5h2v4.2c.4-.5 1.1-.8 2-.8Zm-.3 5.4c.5 0 .9-.1 1.2-.5.4-.3.5-.8.5-1.4 0-.5-.1-1-.5-1.3-.3-.4-.7-.6-1.2-.6s-1 .2-1.3.5c-.3.4-.5.8-.5 1.4 0 .7.2 1.1.5 1.5.4.3.8.4 1.3.4Zm11.6-5.3-3.3 7.5a4 4 0 0 1-1.2 1.6c-.4.3-1 .5-1.6.5-.4 0-.8 0-1.2-.2V55h.8l.9-.1.6-.7.2-.5-2.7-6.5h2l1.7 4.5 1.8-4.5h2Zm10.5 6.9-2.4-3.3H267V54h-2v-9.2h3.5c.7 0 1.3 0 1.8.3s.9.6 1.1 1c.3.5.5 1 .5 1.6a2.9 2.9 0 0 1-1.7 2.7l2.7 3.6h-2.2Zm-3.7-5h1.5c.5 0 .8 0 1-.3.3-.2.4-.6.4-1s0-.7-.3-1c-.3-.2-.6-.3-1-.3h-1.6v2.7Zm13 1.1v1h-5c.2.5.4.9.7 1 .4.3.8.4 1.3.4.7 0 1.3-.2 2-.7l.7 1.3a4.2 4.2 0 0 1-4.7.6 3.5 3.5 0 0 1-1.8-3.2 3.6 3.6 0 0 1 1.7-3.1 3.7 3.7 0 0 1 3.6 0c.5.2.9.6 1.1 1.1.3.5.4 1 .4 1.6Zm-3.3-1.7c-.4 0-.7.2-1 .4-.3.3-.5.6-.6 1h3.1c0-.4-.2-.7-.4-1-.3-.2-.7-.4-1-.4Zm11.6-1.3v9.4h-1.9v-3.2c-.2.3-.5.5-.9.7l-1.2.2a3.2 3.2 0 0 1-2.9-1.8 4 4 0 0 1-.4-1.9c0-.7.1-1.3.4-1.8a3.2 3.2 0 0 1 3-1.8c.4 0 .9.1 1.2.3l1 .7v-.8h1.7Zm-3.6 5.3c.5 0 .9-.1 1.2-.4.4-.4.5-.9.5-1.5s-.1-1-.5-1.4c-.3-.3-.7-.5-1.2-.5s-1 .2-1.3.6c-.3.3-.5.8-.5 1.3 0 .6.2 1 .5 1.4.4.4.8.5 1.3.5Zm8.5 1.8c-.6 0-1.2-.2-1.7-.4a3 3 0 0 1-1.1-1.2c-.3-.4-.4-1-.4-1.7v-3.8h1.9v4c0 .4 0 .7.3 1 .3.2.6.3 1 .3.3 0 .6 0 .9-.3.2-.3.4-.6.4-1v-4h1.9v3.8c0 .7-.2 1.3-.5 1.7-.2.5-.6 1-1.1 1.2-.5.2-1 .4-1.6.4Zm4.8-7.1h2V54h-2v-7Zm1-1.4c-.4 0-.7-.1-.9-.3-.2-.2-.3-.5-.3-.9 0-.3 0-.6.3-.8.2-.2.5-.3.9-.3.3 0 .6 0 .8.3.3.2.4.5.4.8 0 .4-.1.7-.4.9-.2.2-.5.3-.8.3Zm4.9 8.5c-.6 0-1.2-.1-1.7-.4-.5-.2-.9-.6-1.2-1l1-1.1c.6.6 1.2 1 2 1l.5-.2c.2-.1.3-.3.3-.5 0-.1 0-.2-.2-.3l-.5-.3-.8-.3c-.6-.3-1-.5-1.4-.9-.3-.3-.5-.7-.5-1.2 0-.7.3-1.2.7-1.5a3 3 0 0 1 1.9-.6c1 0 1.9.4 2.5 1l-1 1.2c-.4-.4-1-.6-1.5-.6a1 1 0 0 0-.6 0l-.2.4c0 .2 0 .3.2.4l.6.3.6.2c.7.3 1.2.6 1.5 1 .3.2.5.6.5 1.2a2 2 0 0 1-.8 1.6 3 3 0 0 1-2 .6Zm4-7.1h1.9V54h-2v-7Zm1-1.4c-.4 0-.7-.1-1-.3-.2-.2-.3-.5-.3-.9 0-.3.1-.6.4-.8.2-.2.5-.3.8-.3.3 0 .6 0 .9.3.2.2.3.5.3.8 0 .4 0 .7-.3.9l-.9.3Zm6.1 6.8h1V54l-1.4.2a3 3 0 0 1-2-.7c-.5-.4-.7-1-.7-2v-2.8h-1.1V47h1v-1.8h2v1.8h2v1.6h-2v2.7c0 .4 0 .7.3.8.2.2.5.3 1 .3Zm2.2-5.4h1.9V54h-2v-7Zm1-1.4c-.4 0-.7-.1-1-.3-.2-.2-.3-.5-.3-.9 0-.3.1-.6.4-.8.2-.2.5-.3.8-.3.4 0 .6 0 .9.3.2.2.3.5.3.8 0 .4 0 .7-.3.9-.3.2-.5.3-.9.3Zm5.9 8.5a3.7 3.7 0 0 1-3.2-1.8c-.3-.6-.5-1.2-.5-1.9 0-.6.2-1.2.5-1.8.3-.6.8-1 1.3-1.3.6-.3 1.2-.5 2-.5a3.7 3.7 0 0 1 3.6 3.6c0 .7-.1 1.3-.5 1.9-.3.5-.7 1-1.3 1.3-.6.3-1.2.5-1.9.5Zm0-1.8c.5 0 1-.2 1.3-.5.3-.4.5-.8.5-1.4 0-.5-.2-1-.5-1.3-.3-.4-.8-.6-1.3-.6s-1 .2-1.3.6c-.3.3-.5.8-.5 1.3 0 .6.2 1 .5 1.4.4.3.8.5 1.3.5Zm8.8-5.5c.8 0 1.5.3 2 .8.4.5.6 1.2.6 2V54h-1.8v-4c0-.4-.2-.8-.4-1-.2-.3-.5-.4-1-.4-.3 0-.6.1-.9.4-.2.2-.3.6-.3 1v4h-2v-7h1.8v.7l.9-.6a3 3 0 0 1 1.1-.2Zm14.5 2.4v.5l-6.5 2.8V51l3.5-1.5-3.5-1.5v-1.6l6.5 2.9Zm5.2-4.5h1.9v7.5h4V54h-5.9v-9.2Zm10.3 9.4a3.7 3.7 0 0 1-3.7-3.6c0-.7.2-1.3.5-1.9.4-.6.8-1 1.4-1.3.5-.3 1.2-.5 1.9-.5a3.7 3.7 0 0 1 3.7 3.6c0 .7-.2 1.3-.5 1.9-.4.5-.8 1-1.4 1.3-.6.3-1.2.5-1.9.5Zm0-1.8c.6 0 1-.2 1.3-.5.4-.4.5-.8.5-1.4 0-.5-.1-1-.5-1.3-.3-.4-.7-.6-1.2-.6-.6 0-1 .2-1.3.6-.4.3-.5.8-.5 1.3 0 .6.1 1 .5 1.4.3.3.7.5 1.3.5Zm8.4 1.8a3.8 3.8 0 0 1-3.2-1.8c-.3-.6-.5-1.2-.5-1.9a3.5 3.5 0 0 1 1.9-3.1 3.8 3.8 0 0 1 3.6 0c.5.3 1 .7 1.2 1.2l-1.3 1-.7-.7c-.3-.2-.6-.3-1-.3-.5 0-1 .2-1.3.6-.3.3-.5.8-.5 1.3 0 .6.2 1 .5 1.4.4.4.8.5 1.4.5.3 0 .6 0 .9-.2.3-.2.5-.4.7-.8l1.3 1a3.3 3.3 0 0 1-3 1.8Zm7.1-7.3a3 3 0 0 1 2.2.8c.5.5.8 1.2.8 2.2V54h-1.7v-.7c-.3.3-.6.5-1 .6a3 3 0 0 1-1.1.3c-.8 0-1.4-.2-1.8-.6a2 2 0 0 1-.6-1.5c0-.6.2-1.1.7-1.5a3 3 0 0 1 1.9-.5h1.7v-.3c0-.4-.1-.7-.3-1l-1-.2c-.3 0-.6 0-1 .2l-.8.7-1-1.2c.8-1 1.8-1.4 3-1.4Zm-.3 5.9c.4 0 .7-.1 1-.4.3-.3.4-.6.4-1H378l-.7.1-.2.5c0 .3 0 .4.2.6l.8.2Zm8.5-.3h1V54l-1.4.2a3 3 0 0 1-2-.7c-.5-.4-.7-1-.7-2v-2.8h-1.1V47h1v-1.8h2v1.8h2v1.6h-2v2.7c0 .4 0 .7.3.8.2.2.5.3 1 .3Zm2.2-5.4h1.9V54h-2v-7Zm1-1.4c-.4 0-.7-.1-1-.3-.2-.2-.3-.5-.3-.9 0-.3.1-.6.4-.8.2-.2.5-.3.8-.3.3 0 .6 0 .9.3.2.2.3.5.3.8 0 .4-.1.7-.3.9l-.9.3Zm5.9 8.5a3.7 3.7 0 0 1-3.7-3.6c0-.7.2-1.3.5-1.9.3-.6.8-1 1.3-1.3.6-.3 1.2-.5 2-.5a3.7 3.7 0 0 1 3.6 3.6 3.6 3.6 0 0 1-1.9 3.1c-.5.4-1.1.6-1.8.6Zm0-1.8c.5 0 1-.2 1.3-.5.3-.4.5-.8.5-1.4 0-.5-.2-1-.5-1.3-.4-.4-.8-.6-1.3-.6s-1 .2-1.3.6c-.3.3-.5.8-.5 1.3 0 .6.2 1 .5 1.4.4.3.8.5 1.3.5Zm8.8-5.5c.8 0 1.5.3 2 .8.4.5.6 1.2.6 2V54h-1.8v-4c0-.4-.2-.8-.4-1-.2-.3-.5-.4-1-.4-.3 0-.6.1-.9.4-.2.2-.3.6-.3 1v4h-2v-7h1.8v.7l.9-.6 1.1-.2Zm6.6 7.3c-.7 0-1.2-.1-1.7-.4-.5-.2-.9-.6-1.2-1l1-1.1c.5.6 1.2 1 1.9 1l.6-.2c.2-.1.3-.3.3-.5 0-.1 0-.2-.2-.3l-.5-.3-.8-.3c-.6-.3-1.1-.5-1.4-.9-.3-.3-.5-.7-.5-1.2 0-.7.3-1.2.7-1.5a3 3 0 0 1 1.9-.6c1 0 1.8.4 2.5 1l-1 1.2c-.5-.4-1-.6-1.5-.6a1 1 0 0 0-.6 0l-.2.4c0 .2 0 .3.2.4l.5.3.7.2c.7.3 1.2.6 1.5 1 .3.2.5.6.5 1.2a2 2 0 0 1-.8 1.6 3 3 0 0 1-2 .6Zm7.9-9.4h1.8v3.5h4.1v-3.5h2V54h-2v-4h-4v4h-2v-9.2Zm9.6 2.3h1.9V54h-1.9v-7Zm1-1.4c-.4 0-.7-.1-1-.3-.1-.2-.3-.5-.3-.9 0-.3.2-.6.4-.8.2-.2.5-.3.8-.3.4 0 .7 0 .9.3.2.2.4.5.4.8 0 .4-.2.7-.4.9-.2.2-.5.3-.9.3Zm9.1 4.4-.1 1h-4.9c.1.5.4.9.7 1 .4.3.8.4 1.3.4.7 0 1.3-.2 2-.7l.7 1.3a4.2 4.2 0 0 1-4.7.6 3.5 3.5 0 0 1-1.9-3.2 3.6 3.6 0 0 1 1.8-3.1 3.7 3.7 0 0 1 3.6 0c.4.2.8.6 1.1 1.1.3.5.4 1 .4 1.6Zm-3.3-1.7c-.4 0-.8.2-1 .4-.4.3-.6.6-.7 1h3.2c0-.4-.2-.7-.5-1-.3-.2-.6-.4-1-.4Zm8.3-1.4h.6v1.7h-.5a2 2 0 0 0-1.4.5c-.3.3-.5.7-.5 1.3V54H440v-7h1.7v.9a2.4 2.4 0 0 1 1.9-1Zm4.3 0c1 0 1.7.2 2.2.7.5.5.8 1.2.8 2.2V54h-1.7v-.7c-.3.3-.6.5-1 .6a3 3 0 0 1-1.1.3c-.8 0-1.4-.2-1.8-.6a2 2 0 0 1-.6-1.5c0-.6.2-1.1.7-1.5a3 3 0 0 1 1.9-.5h1.7v-.3c0-.4 0-.7-.3-1l-1-.2c-.3 0-.6 0-1 .2l-.8.7-1-1.2c.8-1 1.8-1.4 3-1.4Zm-.3 5.8c.4 0 .7-.1 1-.4.3-.3.4-.6.4-1h-1.5l-.7.1-.2.5c0 .3 0 .4.2.6l.8.2Zm8.6-5.8h.6v1.7h-.5a2 2 0 0 0-1.3.5c-.3.3-.5.7-.5 1.3V54h-2v-7h1.8v.9a2.4 2.4 0 0 1 2-1Zm4.9 7.2c-.7 0-1.3-.2-2-.5a3.6 3.6 0 0 1-1.8-3.2 3.5 3.5 0 0 1 1.9-3.1 3.8 3.8 0 0 1 3.7 0c.5.3.9.7 1.2 1.2l-1.3 1-.8-.7c-.2-.2-.5-.3-1-.3-.4 0-.9.2-1.2.6-.4.3-.5.8-.5 1.3 0 .6.1 1 .5 1.4.3.4.8.5 1.3.5.3 0 .7 0 1-.2l.7-.8 1.3 1a3.3 3.3 0 0 1-3 1.8Zm8-7.3c.8 0 1.4.3 1.9.8s.7 1.2.7 2V54h-1.9v-4c0-.4-.1-.8-.3-1-.3-.3-.6-.4-1-.4-.3 0-.7.1-1 .4-.2.2-.3.6-.3 1v4h-1.9V43.5h2v4.2c.2-.3.4-.5.8-.6l1-.2Zm11 .2-3.3 7.5a4 4 0 0 1-1.2 1.6c-.4.3-1 .5-1.6.5-.4 0-.8 0-1.2-.2V55h.8l.9-.1.6-.7.2-.5-2.7-6.5h2l1.7 4.5 1.8-4.5h2Zm12.4 3.3-1.2 1.7L493 54h-2.2l-.6-.7a4 4 0 0 1-4.1.5c-.5-.2-.8-.5-1-.9-.3-.4-.5-.8-.5-1.3s.2-1 .5-1.4a7 7 0 0 1 1.4-1.4c-.3-.3-.5-.7-.6-1l-.2-1c0-.7.2-1.2.7-1.6.4-.4 1-.6 1.7-.6s1.2.2 1.7.6c.4.3.6.8.6 1.4 0 .5-.1.9-.4 1.3l-1.1 1.2 1.3 1.6a87.3 87.3 0 0 0 1.3-1.9l1.5 1-.4.6Zm-4.5-4.2c-.2 0-.4 0-.5.2l-.2.4.1.5c0 .2.2.4.4.6l.6-.6c.2-.1.2-.3.2-.5s0-.3-.2-.4l-.4-.2Zm-.3 6.3a2 2 0 0 0 1.3-.5l-1.6-2-.8.8a1 1 0 0 0-.2.6c0 .3.2.6.4.8.2.2.5.3.9.3Zm15.1.3H499l-.5 1.2h-2l4.1-9.4h.6l4.1 9.4h-2l-.5-1.2Zm-1.9-4.7-1.2 3.1h2.4l-1.2-3Zm9.4-1.2c.6 0 1.2.2 1.7.5s1 .7 1.2 1.3c.3.5.5 1.1.5 1.8a4 4 0 0 1-.5 1.9 3.3 3.3 0 0 1-4 1.6l-1-.7v3.2h-1.9v-9.4h1.8v.8c.2-.3.5-.5.9-.7.4-.2.8-.3 1.3-.3Zm-.4 5.5c.6 0 1-.1 1.3-.5.4-.3.5-.8.5-1.4 0-.5-.1-1-.5-1.3-.3-.4-.7-.6-1.3-.6-.4 0-.8.2-1.2.5-.3.3-.5.8-.5 1.4 0 .6.2 1.1.5 1.5.4.3.8.4 1.3.4Zm9-5.5c.7 0 1.3.2 1.8.5s.9.7 1.2 1.3c.3.5.4 1.1.4 1.8a4 4 0 0 1-.4 1.9c-.3.5-.7 1-1.2 1.3-.5.3-1 .5-1.7.5l-1.2-.2-1-.7v3.2H515v-9.4h1.7v.8l1-.7c.4-.2.8-.3 1.3-.3Zm-.3 5.5c.5 0 1-.1 1.3-.5.3-.3.5-.8.5-1.4 0-.5-.2-1-.5-1.3-.3-.4-.8-.6-1.3-.6s-.9.2-1.2.5c-.4.3-.5.8-.5 1.4 0 .6.1 1.1.5 1.5.3.3.7.4 1.2.4Zm5-8.9h2V54h-2V43.5Zm3.7 3.6h1.9V54h-2v-7Zm1-1.4c-.4 0-.7-.1-1-.3-.2-.2-.3-.5-.3-.9 0-.3.1-.6.4-.8.2-.2.5-.3.8-.3.4 0 .6 0 .9.3.2.2.3.5.3.8 0 .4 0 .7-.3.9-.3.2-.5.3-.9.3Zm6 8.5a3.8 3.8 0 0 1-3.2-1.8 3.5 3.5 0 0 1 1.3-5 3.8 3.8 0 0 1 3.6 0c.5.3 1 .7 1.2 1.2l-1.3 1-.7-.7c-.3-.2-.6-.3-1-.3-.5 0-1 .2-1.3.6-.3.3-.5.8-.5 1.3 0 .6.2 1 .5 1.4.4.4.8.5 1.4.5.3 0 .6 0 .9-.2.2-.2.5-.4.7-.8l1.3 1a3.3 3.3 0 0 1-3 1.8Zm7-7.3c1 0 1.7.3 2.2.8.5.5.8 1.2.8 2.2V54h-1.7v-.7c-.3.3-.6.5-1 .6a3 3 0 0 1-1.1.3c-.8 0-1.4-.2-1.8-.6a2 2 0 0 1-.6-1.5c0-.6.2-1.1.7-1.5a3 3 0 0 1 1.9-.5h1.7v-.3c0-.4-.1-.7-.3-1l-1-.2c-.3 0-.6 0-1 .2l-.8.7-1-1.2c.8-1 1.8-1.4 3-1.4Zm-.3 5.9c.4 0 .7-.1 1-.4.3-.3.4-.6.4-1H541l-.7.1c-.2.1-.2.3-.2.5 0 .3 0 .4.2.6l.8.2Zm8.7-5.9c.8 0 1.5.3 2 .8.4.5.7 1.2.7 2V54h-2v-4c0-.4 0-.8-.3-1-.2-.3-.5-.4-1-.4-.3 0-.6.1-.9.4-.2.2-.3.6-.3 1v4h-2v-7h1.8v.7l.9-.6 1.1-.2Zm7.9 5.6h.9V54l-1.3.2a3 3 0 0 1-2-.7c-.5-.4-.8-1-.8-2v-2.8h-1V47h1v-1.8h1.9v1.8h2v1.6h-2v2.7c0 .4.1.7.3.8.2.2.5.3 1 .3Zm12.3-3.2v.5l-6.5 2.8V51l3.5-1.5-3.5-1.5v-1.6l6.5 2.9Zm10 3.5H576l-.5 1.2h-2l4-9.4h.7l4.1 9.4h-2l-.5-1.2Zm-2-4.7-1.2 3.1h2.5l-1.2-3Zm9.5-1.2c.6 0 1.2.2 1.7.5s.9.7 1.2 1.3c.3.5.4 1.1.4 1.8a4 4 0 0 1-.4 1.9c-.3.5-.7 1-1.2 1.3-.5.3-1.1.5-1.7.5l-1.2-.2-1-.7v3.2h-1.8v-9.4h1.7v.8l1-.7c.3-.2.8-.3 1.3-.3Zm-.4 5.5c.5 0 1-.1 1.3-.5.3-.3.5-.8.5-1.4 0-.5-.2-1-.5-1.3-.4-.4-.8-.6-1.3-.6s-.9.2-1.2.5c-.4.3-.5.8-.5 1.4 0 .6.1 1.1.5 1.5.3.3.7.4 1.2.4Zm9-5.5c.7 0 1.2.2 1.7.5.6.3 1 .7 1.2 1.3.3.5.5 1.1.5 1.8a4 4 0 0 1-.5 1.9 3.3 3.3 0 0 1-4 1.6l-1-.7v3.2h-1.8v-9.4h1.7v.8c.2-.3.5-.5 1-.7.3-.2.7-.3 1.2-.3Zm-.3 5.5c.5 0 .9-.1 1.2-.5.4-.3.6-.8.6-1.4 0-.5-.2-1-.6-1.3-.3-.4-.7-.6-1.2-.6s-1 .2-1.3.5c-.3.3-.5.8-.5 1.4 0 .6.2 1.1.5 1.5.4.3.8.4 1.3.4Zm5-8.9h2V54h-2V43.5Zm3.6 3.6h2V54h-2v-7Zm1-1.4c-.4 0-.6-.1-.9-.3-.2-.2-.3-.5-.3-.9 0-.3.1-.6.3-.8.3-.2.5-.3.9-.3.3 0 .6 0 .8.3.3.2.4.5.4.8 0 .4-.1.7-.4.9-.2.2-.5.3-.8.3Zm6 8.5a3.8 3.8 0 0 1-3.2-1.8c-.4-.6-.5-1.2-.5-1.9a3.5 3.5 0 0 1 1.8-3.1 3.8 3.8 0 0 1 3.7 0c.5.3.9.7 1.2 1.2l-1.3 1-.8-.7c-.2-.2-.5-.3-.9-.3-.5 0-1 .2-1.3.6-.3.3-.5.8-.5 1.3 0 .6.2 1 .5 1.4.3.4.8.5 1.3.5.4 0 .7 0 1-.2.2-.2.5-.4.7-.8l1.3 1a3.3 3.3 0 0 1-3 1.8Zm7-7.3c1 0 1.7.3 2.2.8.6.5.9 1.2.9 2.2V54h-1.8v-.7c-.2.3-.5.5-.9.6a3 3 0 0 1-1.2.3c-.7 0-1.3-.2-1.7-.6a2 2 0 0 1-.7-1.5c0-.6.2-1.1.7-1.5a3 3 0 0 1 2-.5h1.7v-.3c0-.4-.1-.7-.4-1l-1-.2c-.3 0-.6 0-.9.2-.3.1-.5.4-.9.7l-1-1.2c.9-1 1.9-1.4 3-1.4Zm-.3 5.9c.4 0 .8-.1 1-.4.3-.3.5-.6.5-1H618l-.7.1c-.2.1-.3.3-.3.5 0 .3.1.4.3.6l.7.2Zm8.8-5.9c.8 0 1.4.3 2 .8.4.5.6 1.2.6 2V54h-1.9v-4c0-.4 0-.8-.3-1-.3-.3-.6-.4-1-.4-.3 0-.7.1-1 .4-.2.2-.3.6-.3 1v4H623v-7h1.8v.7l.9-.6 1.1-.2Zm7.8 5.6h1V54l-1.4.2a3 3 0 0 1-2-.7c-.5-.4-.7-1-.7-2v-2.8h-1.1V47h1v-1.8h2v1.8h2v1.6h-2v2.7c0 .4 0 .7.3.8.2.2.5.3 1 .3Zm9 1.7c-.8 0-1.5-.2-2.1-.6a4 4 0 0 1-1.5-1.5l1.3-1c.3.5.7.8 1 1 .4.3.8.4 1.3.4.4 0 .7-.1 1-.3.2-.2.3-.4.3-.7 0-.3 0-.5-.2-.6a4 4 0 0 0-1-.6l-1-.4a5 5 0 0 1-1.6-1.1c-.4-.5-.6-1-.6-1.6A2.4 2.4 0 0 1 642 45c.5-.2 1-.3 1.6-.3.7 0 1.3.2 1.8.5s1 .7 1.2 1.2l-1.3 1c-.4-.7-1-1-1.7-1-.3 0-.6 0-.8.2-.3.2-.4.4-.4.7l.3.6.8.4 1 .5a5 5 0 0 1 1.8 1.1c.4.5.5 1 .5 1.6a2.6 2.6 0 0 1-1.5 2.4c-.5.3-1 .4-1.7.4Zm8 0c-.7 0-1.4-.2-2-.5a3.6 3.6 0 0 1-1.8-3.1c0-.7.2-1.3.5-1.9.4-.6.8-1 1.4-1.3.5-.3 1.2-.5 1.9-.5a3.7 3.7 0 0 1 3.7 3.6c0 .7-.2 1.3-.5 1.9-.4.5-.8 1-1.4 1.3-.6.3-1.2.5-1.9.5Zm0-1.8c.5 0 .9-.2 1.2-.5.4-.4.5-.8.5-1.4 0-.5-.1-1-.5-1.3-.3-.4-.7-.6-1.2-.6-.6 0-1 .2-1.3.6-.4.3-.5.8-.5 1.3 0 .6.1 1 .5 1.4.3.3.7.5 1.3.5Zm8.1 1.8c-.6 0-1.1-.2-1.6-.4a3 3 0 0 1-1.2-1.2c-.2-.4-.4-1-.4-1.7v-3.8h2v4c0 .4 0 .7.3 1 .2.2.6.3 1 .3.3 0 .6 0 .9-.3.2-.3.3-.6.3-1v-4h2v3.8c0 .7-.2 1.3-.5 1.7-.3.5-.6 1-1.1 1.2-.5.2-1 .4-1.7.4Zm8.5-7.2h.6v1.7h-.5a2 2 0 0 0-1.3.5c-.3.3-.5.7-.5 1.3V54h-2v-7h1.8v.9a2.4 2.4 0 0 1 2-1Zm4.9 7.2c-.7 0-1.3-.2-2-.5a3.6 3.6 0 0 1-1.8-3.2 3.5 3.5 0 0 1 1.9-3.1 3.8 3.8 0 0 1 3.7 0c.5.3.9.7 1.2 1.2l-1.3 1-.8-.7c-.2-.2-.5-.3-1-.3-.4 0-.9.2-1.2.6-.4.3-.5.8-.5 1.3 0 .6.1 1 .5 1.4.3.4.8.5 1.3.5.3 0 .7 0 1-.2l.7-.8 1.3 1a3.3 3.3 0 0 1-3 1.8Zm10.6-4-.1 1h-4.9c.1.4.3.8.7 1 .3.2.7.3 1.3.3.6 0 1.3-.2 1.9-.7l.8 1.3a4.2 4.2 0 0 1-4.8.6 3.5 3.5 0 0 1-1.8-3.2 3.6 3.6 0 0 1 1.8-3.1 3.7 3.7 0 0 1 3.5 0c.5.2.9.6 1.2 1.1.2.5.4 1 .4 1.6Zm-3.3-1.8c-.4 0-.8.2-1 .4-.4.3-.6.6-.7 1h3.2c0-.4-.2-.7-.5-1-.3-.2-.6-.4-1-.4Z" fill="#94A3B8"/><rect x="41" y="107" width="29" height="9" rx="4.5" fill="#E2E8F0"/><rect x="41" y="169" width="29" height="9" rx="4.5" fill="#E2E8F0"/><rect x="41" y="231" width="29" height="9" rx="4.5" fill="#E2E8F0"/><rect x="41" y="294" width="29" height="9" rx="4.5" fill="#E2E8F0"/><path stroke="#E2E8F0" d="M673 112.5 81 112.5"/><path stroke="#E2E8F0" d="M673 174.5 81 174.5"/><path stroke="#E2E8F0" d="M673 236.5 81 236.5"/><path stroke="#E2E8F0" d="M673 299.5 81 299.5"/><path stroke="#E2E8F0" d="M150.5 332 150.5 82"/><rect x="136" y="339" width="29" height="9" rx="4.5" fill="#E2E8F0"/><circle cx="151" cy="297" r="26" fill="#9576D2"/><circle cx="151" cy="236" r="21" fill="#9576D2"/><circle cx="151" cy="174" r="11" fill="#9576D2"/><circle cx="151" cy="112" r="15" fill="#9576D2"/><path stroke="#E2E8F0" d="M416.5 332 416.5 82"/><rect x="402" y="339" width="29" height="9" rx="4.5" fill="#E2E8F0"/><circle cx="417" cy="297" r="10" fill="#9576D2"/><circle cx="417" cy="236" r="12" fill="#9576D2"/><circle cx="417" cy="174" r="8" fill="#9576D2"/><circle cx="417" cy="112" r="11" fill="#9576D2"/><path stroke="#E2E8F0" d="M543.5 332 543.5 82"/><rect x="529" y="339" width="29" height="9" rx="4.5" fill="#E2E8F0"/><circle cx="544" cy="299" r="8" fill="#9576D2"/><circle cx="544" cy="236" r="7" fill="#9576D2"/><circle cx="544" cy="174" r="10" fill="#9576D2"/><circle cx="544" cy="112" r="8" fill="#9576D2"/><path stroke="#E2E8F0" d="M672.5 332 672.5 82"/><rect x="658" y="339" width="29" height="9" rx="4.5" fill="#E2E8F0"/><circle cx="673" cy="299" r="17" fill="#9576D2"/><circle cx="673" cy="236" r="12" fill="#9576D2"/><circle cx="673" cy="174" r="8" fill="#9576D2"/><circle cx="673" cy="112" r="14" fill="#9576D2"/><path stroke="#E2E8F0" d="M289.5 332 289.5 82"/><rect x="275" y="339" width="29" height="9" rx="4.5" fill="#E2E8F0"/><circle cx="289.5" cy="299" r="3" fill="#9576D2"/><circle cx="290" cy="236" r="6" fill="#9576D2"/><circle cx="290" cy="174" r="10" fill="#9576D2"/><circle cx="290" cy="112" r="9" fill="#9576D2"/></g><defs><filter id="a" x="0" y="0" width="738" height="396" filterUnits="userSpaceOnUse" color-interpolation-filters="sRGB"><feFlood flood-opacity="0" result="BackgroundImageFix"/><feColorMatrix in="SourceAlpha" values="0 0 0 0 0 0 0 0 0 0 0 0 0 0 0 0 0 0 127 0" result="hardAlpha"/><feOffset dx="8" dy="8"/><feComposite in2="hardAlpha" operator="out"/><feColorMatrix values="0 0 0 0 0.886275 0 0 0 0 0.909804 0 0 0 0 0.941176 0 0 0 1 0"/><feBlend in2="BackgroundImageFix" result="effect1_dropShadow_903_28627"/><feBlend in="SourceGraphic" in2="effect1_dropShadow_903_28627" result="shape"/></filter></defs></svg>