<svg fill="none" xmlns="http://www.w3.org/2000/svg" viewBox="0 0 631 367"><g filter="url(#a)"><rect x="1" y="1" width="620" height="357" rx="11" fill="#fff" stroke="#E2E8F0" stroke-width="2"/><path d="M46.6 49c.5.2 1 .5 1.2.9.3.4.4.8.4 1.4a2.6 2.6 0 0 1-1.4 2.4c-.5.2-1 .3-1.6.3h-4.1v-9.2h3.3c.5 0 1 0 1.5.3a2.4 2.4 0 0 1 1.4 2.2c0 .7-.2 1.3-.7 1.7Zm-3.7-2.6v2.1h1.3c.4 0 .7-.1.9-.3.2-.2.3-.4.3-.8a1 1 0 0 0-.3-.7c-.2-.2-.5-.3-.9-.3h-1.3Zm2.2 6c.4 0 .7-.1 1-.3.2-.2.3-.5.3-.9a1 1 0 0 0-.4-.8c-.2-.2-.5-.3-1-.3H43v2.3h2.2Zm8-5.4h.7v1.7h-.5a2 2 0 0 0-1.4.5c-.3.3-.5.7-.5 1.3V54h-1.9v-7h1.7v.9a2.4 2.4 0 0 1 2-1Zm8 3.1v1h-5c.2.5.4.9.7 1 .4.3.8.4 1.3.4.7 0 1.3-.2 2-.7l.7 1.3a4.2 4.2 0 0 1-4.7.6 3.5 3.5 0 0 1-1.8-3.2 3.6 3.6 0 0 1 1.7-3.1 3.7 3.7 0 0 1 3.6 0c.5.2.9.6 1.1 1.1.3.5.5 1 .5 1.6Zm-3.3-1.7c-.4 0-.7.2-1 .4-.3.3-.5.6-.6 1h3.1c0-.4-.1-.7-.4-1-.3-.2-.7-.4-1-.4Zm7.5-1.5c1 0 1.7.3 2.2.8.5.5.8 1.2.8 2.2V54h-1.7v-.7c-.3.3-.6.5-1 .6a3 3 0 0 1-1.1.3c-.8 0-1.4-.2-1.8-.6a2 2 0 0 1-.6-1.5c0-.6.2-1.1.7-1.5a3 3 0 0 1 1.9-.5h1.7v-.3c0-.4-.1-.7-.3-1l-1-.2c-.3 0-.6 0-1 .2l-.8.7-1-1.2c.8-1 1.8-1.4 3-1.4Zm-.3 5.9c.4 0 .7-.1 1-.4.3-.3.4-.6.4-1H65l-.7.1c-.2.1-.2.3-.2.5 0 .3 0 .4.2.6l.8.2Zm9.7 1.2-2.8-3.8V54h-2V43.5h2V50l2.5-3h2.2L74 50.2l2.8 3.9h-2.1Zm9.6-10.5V54h-1.7v-.9c-.2.4-.6.6-1 .8a3 3 0 0 1-1.2.3 3.3 3.3 0 0 1-3-1.8 4 4 0 0 1-.4-1.9c0-.6.2-1.3.4-1.8a3.2 3.2 0 0 1 3-1.8c.8 0 1.5.3 2 .8v-4.2h2Zm-3.6 9c.5 0 .9-.2 1.3-.5.3-.4.5-.8.5-1.5 0-.6-.2-1-.5-1.4-.4-.3-.8-.5-1.3-.5s-1 .2-1.3.6c-.3.3-.5.8-.5 1.3 0 .6.2 1 .5 1.4.4.4.8.5 1.3.5Zm8.7 1.7c-.7 0-1.3-.2-2-.5-.5-.3-1-.8-1.2-1.3-.4-.6-.5-1.2-.5-1.9 0-.6.1-1.2.5-1.8.3-.6.7-1 1.3-1.3.6-.3 1.2-.5 1.9-.5a3.7 3.7 0 0 1 3.7 3.6c0 .7-.2 1.3-.5 1.9-.3.5-.8 1-1.4 1.3-.5.3-1.1.5-1.8.5Zm0-1.8c.5 0 1-.2 1.3-.5.3-.4.5-.8.5-1.4 0-.5-.2-1-.5-1.3-.4-.4-.8-.6-1.3-.6s-1 .2-1.3.6c-.3.3-.5.8-.5 1.3 0 .6.2 1 .5 1.4.3.3.8.5 1.3.5Zm15.7-5.3-3.3 7h-.6l-2-4-2 4h-.6l-3.2-7h2l1.6 4 2-4.2h.5l2 4 1.6-3.8h2Zm4.7-.2c.8 0 1.4.3 1.9.8s.7 1.2.7 2V54h-1.9v-4c0-.4 0-.8-.3-1-.3-.3-.6-.4-1-.4-.3 0-.7.1-1 .4-.2.2-.3.6-.3 1v4H106v-7h1.8v.7l.9-.6 1.1-.2Zm11.4 7.3c-.7 0-1.3-.2-2-.5-.5-.3-1-.8-1.2-1.3-.4-.6-.5-1.2-.5-1.9 0-.6.1-1.2.5-1.8.3-.6.7-1 1.3-1.3.6-.3 1.2-.5 1.9-.5a3.7 3.7 0 0 1 3.7 3.6c0 .7-.2 1.3-.5 1.9-.3.5-.8 1-1.4 1.3-.5.3-1.1.5-1.8.5Zm0-1.8c.5 0 1-.2 1.3-.5.3-.4.5-.8.5-1.4 0-.5-.2-1-.5-1.3-.4-.4-.8-.6-1.3-.6s-1 .2-1.3.6c-.3.3-.5.8-.5 1.3 0 .6.2 1 .5 1.4.3.3.8.5 1.3.5Zm8.5-7.4c-.4 0-.7.1-1 .3l-.2.8v1h1.5v1.6h-1.5V54h-2v-5.3h-1V47h1v-1.2c0-.8.3-1.5.8-2 .5-.3 1.1-.6 2-.6.3 0 .6 0 1 .2V45h-.6Zm10.2 4c.5.2 1 .5 1.2.9.3.4.4.8.4 1.4a2.6 2.6 0 0 1-1.4 2.4c-.5.2-1 .3-1.6.3h-4.1v-9.2h3.3c.5 0 1 0 1.5.3a2.4 2.4 0 0 1 1.4 2.2c0 .7-.3 1.3-.7 1.7Zm-3.7-2.6v2.1h1.3c.4 0 .7-.1.9-.3.2-.2.3-.4.3-.8a1 1 0 0 0-.3-.7c-.2-.2-.5-.3-.9-.3h-1.3Zm2.2 6c.4 0 .7-.1 1-.3.2-.2.3-.5.3-.9a1 1 0 0 0-.4-.8c-.2-.2-.5-.3-1-.3h-2.1v2.3h2.2Zm7.5 1.8c-.6 0-1.1-.2-1.6-.4a3 3 0 0 1-1.2-1.2c-.2-.4-.4-1-.4-1.7v-3.8h2v4c0 .4 0 .7.3 1 .2.2.6.3 1 .3.3 0 .6 0 .8-.3.3-.3.4-.6.4-1v-4h2v3.8c0 .7-.2 1.3-.5 1.7-.3.5-.6 1-1.1 1.2-.5.2-1 .4-1.7.4Zm11.8-10.7V54H156v-.9c-.3.4-.6.6-1 .8a3 3 0 0 1-1.2.3c-.7 0-1.3-.2-1.8-.5s-.9-.7-1.2-1.3a4 4 0 0 1-.4-1.9c0-.6.1-1.3.4-1.8a3.2 3.2 0 0 1 3-1.8c.8 0 1.5.3 2 .8v-4.2h2Zm-3.6 9c.5 0 .9-.2 1.2-.5.4-.4.6-.8.6-1.5 0-.6-.2-1-.6-1.4-.3-.3-.7-.5-1.2-.5s-1 .2-1.3.6c-.3.3-.5.8-.5 1.3 0 .6.2 1 .5 1.4.4.4.8.5 1.3.5Zm12.3-5.4v6.1c0 1.2-.3 2-1 2.6-.6.6-1.5.9-2.6.9a5 5 0 0 1-3.4-1.3l1-1.3 1.1.6 1.2.3c.5 0 1-.2 1.3-.4.3-.3.5-.7.5-1.3V53l-1 .6-1.1.2c-.6 0-1.2-.2-1.7-.4-.5-.3-1-.7-1.2-1.3-.3-.5-.4-1-.4-1.8 0-.6.1-1.2.4-1.7.3-.6.7-1 1.2-1.3.5-.2 1-.4 1.7-.4.5 0 1 .1 1.3.3l1 .7v-.8h1.7Zm-3.6 5c.5 0 .9 0 1.2-.4.4-.3.5-.8.5-1.4 0-.6-.1-1-.5-1.3-.3-.3-.7-.5-1.2-.5s-1 .2-1.3.5c-.3.3-.5.8-.5 1.3 0 .6.2 1 .5 1.4.4.3.8.5 1.3.5Zm11.8-2v1h-5c.2.5.4.9.7 1 .4.3.8.4 1.3.4.7 0 1.3-.2 2-.7l.7 1.3a4.2 4.2 0 0 1-4.7.6 3.5 3.5 0 0 1-1.8-3.2 3.6 3.6 0 0 1 1.7-3.1 3.7 3.7 0 0 1 3.6 0c.5.2.8.6 1.1 1.1.3.5.4 1 .4 1.6Zm-3.3-1.7c-.4 0-.7.2-1 .4-.3.3-.5.6-.6 1h3.1c0-.4-.2-.7-.4-1-.3-.2-.7-.4-1-.4Zm8.2 4h1V54l-1.4.2a3 3 0 0 1-2-.7c-.5-.4-.7-1-.7-2v-2.8h-1.1V47h1v-1.8h2v1.8h1.9v1.6h-2v2.7c0 .4.1.7.3.8.3.2.6.3 1 .3Zm10.8.4h-3.8L186 54h-2l4.1-9.4h.6L193 54h-2l-.6-1.2Zm-1.9-4.7-1.2 3.1h2.5l-1.3-3Zm5.5-4.6h1.8V54H194V43.5Zm3.6 0h1.9V54h-2V43.5Zm6.9 10.7a3.7 3.7 0 0 1-3.2-1.8c-.3-.6-.5-1.2-.5-1.9 0-.6.2-1.2.5-1.8.3-.6.8-1 1.3-1.3.6-.3 1.2-.5 2-.5a3.7 3.7 0 0 1 3.6 3.6c0 .7-.1 1.3-.5 1.9-.3.5-.7 1-1.3 1.3-.6.3-1.2.5-1.9.5Zm0-1.8c.5 0 1-.2 1.3-.5.3-.4.5-.8.5-1.4 0-.5-.2-1-.5-1.3-.3-.4-.8-.6-1.3-.6s-1 .2-1.3.6c-.3.3-.5.8-.5 1.3 0 .6.2 1 .5 1.4.4.3.8.5 1.3.5Zm8.4 1.8a3.8 3.8 0 0 1-3.2-1.8c-.4-.6-.5-1.2-.5-1.9a3.5 3.5 0 0 1 1.8-3.1 3.8 3.8 0 0 1 3.7 0c.5.3 1 .7 1.2 1.2l-1.3 1-.7-.7c-.3-.2-.6-.3-1-.3-.5 0-1 .2-1.3.6-.3.3-.5.8-.5 1.3 0 .6.2 1 .5 1.4.4.4.8.5 1.3.5.4 0 .7 0 1-.2.2-.2.5-.4.7-.8l1.3 1a3.3 3.3 0 0 1-3 1.8Zm7.1-7.3c1 0 1.6.3 2.2.8.5.5.8 1.2.8 2.2V54H221v-.7c-.2.3-.5.5-.9.6a3 3 0 0 1-1.2.3c-.7 0-1.3-.2-1.7-.6a2 2 0 0 1-.7-1.5c0-.6.3-1.1.7-1.5a3 3 0 0 1 2-.5h1.7v-.3c0-.4-.1-.7-.4-1l-1-.2c-.3 0-.6 0-.9.2l-.8.7-1-1.2c.8-1 1.8-1.4 3-1.4Zm-.4 5.9c.4 0 .8-.1 1-.4.3-.3.5-.6.5-1h-1.5l-.7.1c-.2.1-.3.3-.3.5 0 .3.1.4.3.6l.7.2Zm8.6-.3h.9V54l-1.3.2a3 3 0 0 1-2-.7c-.5-.4-.8-1-.8-2v-2.8h-1V47h1v-1.8h2v1.8h1.9v1.6h-2v2.7c0 .4.1.7.3.8.2.2.6.3 1 .3Zm2.1-5.4h2V54h-2v-7Zm1-1.4c-.4 0-.6-.1-.9-.3-.2-.2-.3-.5-.3-.9 0-.3 0-.6.3-.8.3-.2.5-.3.9-.3.3 0 .6 0 .8.3.3.2.4.5.4.8 0 .4-.1.7-.4.9-.2.2-.5.3-.8.3Zm6 8.5c-.7 0-1.3-.2-2-.5-.5-.3-1-.8-1.2-1.3-.4-.6-.5-1.2-.5-1.9 0-.6.1-1.2.5-1.8.3-.6.7-1 1.3-1.3.6-.3 1.2-.5 1.9-.5a3.7 3.7 0 0 1 3.7 3.6c0 .7-.2 1.3-.5 1.9-.3.5-.8 1-1.4 1.3-.5.3-1.2.5-1.8.5Zm0-1.8c.5 0 1-.2 1.2-.5.4-.4.6-.8.6-1.4 0-.5-.2-1-.6-1.3-.3-.4-.7-.6-1.2-.6-.6 0-1 .2-1.3.6-.4.3-.5.8-.5 1.3 0 .6.1 1 .5 1.4.3.3.7.5 1.3.5ZM246 47c.8 0 1.4.3 1.9.8s.7 1.2.7 2V54h-1.9v-4c0-.4-.1-.8-.3-1-.3-.3-.6-.4-1-.4-.3 0-.7.1-1 .4-.2.2-.3.6-.3 1v4h-1.9v-7h1.8v.7l.8-.6a3 3 0 0 1 1.2-.2Zm14.4.2-3.5 7h-.6l-3.4-7h2l1.7 3.9 1.8-4h2Zm3 7c-.6 0-1.2 0-1.7-.3-.5-.2-.9-.6-1.2-1l1-1.1c.5.6 1.2 1 1.9 1l.6-.2c.2-.1.3-.3.3-.5 0-.1 0-.2-.2-.3l-.5-.3-.8-.3c-.6-.3-1.1-.5-1.4-.9-.3-.3-.5-.7-.5-1.2 0-.7.3-1.2.7-1.5a3 3 0 0 1 1.9-.6c1 0 1.8.4 2.5 1l-1 1.2c-.5-.4-1-.6-1.5-.6a1 1 0 0 0-.6 0l-.2.4c0 .2 0 .3.2.4l.5.3.7.2c.7.3 1.2.6 1.5 1 .3.2.5.6.5 1.2a2 2 0 0 1-.8 1.6 3 3 0 0 1-2 .6Zm5 0c-.4 0-.7 0-1-.3-.2-.2-.3-.6-.3-1 0-.3 0-.6.3-.9.3-.2.6-.3 1-.3.3 0 .7 0 .9.3.2.3.4.6.4 1 0 .3-.1.7-.4.9-.2.2-.5.4-1 .4Zm6.6-9.3h3.5c.7 0 1.2 0 1.7.3s1 .6 1.2 1c.3.5.4 1 .4 1.6a2.9 2.9 0 0 1-1.6 2.7c-.5.2-1 .3-1.7.3H277V54H275v-9.2Zm3.5 4.3c.5 0 .8-.1 1-.4.3-.2.4-.6.4-1s-.1-.7-.4-1c-.2-.2-.6-.3-1-.3H277v2.7h1.6Zm8.2-2.1h.6v1.7h-.5a2 2 0 0 0-1.3.5c-.4.3-.5.7-.5 1.3V54h-2v-7h1.8v.9a2.4 2.4 0 0 1 2-1Zm4.8 7.2a3.7 3.7 0 0 1-3.2-1.8c-.3-.6-.5-1.2-.5-1.9 0-.6.2-1.2.5-1.8.4-.6.8-1 1.4-1.3.6-.3 1.2-.5 1.9-.5a3.7 3.7 0 0 1 3.7 3.6c0 .7-.2 1.3-.5 1.9-.4.5-.8 1-1.4 1.3-.6.3-1.2.5-1.9.5Zm0-1.8c.6 0 1-.2 1.3-.5.4-.4.5-.8.5-1.4 0-.5-.1-1-.5-1.3-.3-.4-.7-.6-1.2-.6-.6 0-1 .2-1.3.6-.4.3-.5.8-.5 1.3 0 .6.1 1 .5 1.4.3.3.7.5 1.3.5Zm12-8.9V54h-1.7v-.9c-.2.4-.5.6-1 .8a3 3 0 0 1-1.2.3c-.7 0-1.2-.2-1.8-.5-.5-.3-.9-.7-1.1-1.3a4 4 0 0 1-.5-1.9c0-.6.2-1.3.5-1.8a3.2 3.2 0 0 1 2.9-1.8c.9 0 1.6.3 2 .8v-4.2h2Zm-3.6 9c.5 0 1-.2 1.3-.5.3-.4.5-.8.5-1.5 0-.6-.2-1-.5-1.4-.4-.3-.8-.5-1.3-.5s-.9.2-1.2.6c-.4.3-.6.8-.6 1.3 0 .6.2 1 .5 1.4.4.4.8.5 1.3.5Zm8.5 1.7c-.6 0-1.1-.2-1.6-.4a3 3 0 0 1-1.2-1.2c-.3-.4-.4-1-.4-1.7v-3.8h1.9v4a1.3 1.3 0 0 0 1.3 1.3c.4 0 .7 0 1-.3.2-.3.3-.6.3-1v-4h1.9v3.8c0 .7-.1 1.3-.4 1.7-.3.5-.7 1-1.2 1.2-.4.2-1 .4-1.6.4Zm8.2 0a3.8 3.8 0 0 1-3.2-1.8c-.4-.6-.5-1.2-.5-1.9a3.5 3.5 0 0 1 1.8-3.1 3.8 3.8 0 0 1 3.7 0c.5.3.9.7 1.2 1.2l-1.3 1-.8-.7c-.2-.2-.5-.3-.9-.3-.5 0-1 .2-1.3.6-.3.3-.5.8-.5 1.3 0 .6.2 1 .5 1.4.3.4.8.5 1.3.5.4 0 .7 0 1-.2l.7-.8 1.3 1a3.3 3.3 0 0 1-3 1.8Zm7.8-1.7h.9V54l-1.3.2a3 3 0 0 1-2-.7c-.5-.4-.8-1-.8-2v-2.8h-1V47h1v-1.8h2v1.8h1.9v1.6h-2v2.7c0 .4.1.7.3.8.2.2.6.3 1 .3Zm2.1-5.4h2V54h-2v-7Zm1-1.4c-.4 0-.7-.1-.9-.3-.2-.2-.3-.5-.3-.9 0-.3 0-.6.3-.8.2-.2.5-.3.9-.3.3 0 .6 0 .8.3.3.2.4.5.4.8 0 .4-.1.7-.4.9-.2.2-.5.3-.8.3Zm9.4 1.4-3.5 7h-.6l-3.4-7h2L333 51l1.8-4h2Zm1 0h1.8V54h-1.9v-7Zm.9-1.4c-.4 0-.7-.1-.9-.3-.2-.2-.3-.5-.3-.9 0-.3 0-.6.3-.8.2-.2.5-.3.9-.3.3 0 .6 0 .8.3.3.2.4.5.4.8 0 .4-.1.7-.4.9-.2.2-.5.3-.8.3Zm6.2 6.8h.9V54l-1.3.2a3 3 0 0 1-2-.7c-.5-.4-.8-1-.8-2v-2.8h-1V47h1v-1.8h2v1.8h1.9v1.6h-2v2.7c0 .4.1.7.3.8.2.2.6.3 1 .3ZM354 47l-3.4 7.5a4 4 0 0 1-1.1 1.6c-.4.3-1 .5-1.6.5-.4 0-.8 0-1.2-.2V55h.8l.8-.1c.3-.1.5-.4.6-.7l.2-.5-2.6-6.5h2l1.7 4.5 1.8-4.5h2Zm9.2 7a5 5 0 0 1-2.5-.6 4.8 4.8 0 0 1 2.5-9c.8 0 1.6.3 2.2.6.7.4 1.3.9 1.7 1.5l-1.3 1.1a3 3 0 0 0-2.6-1.4 3 3 0 0 0-1.5.4c-.5.3-.8.7-1.1 1.1-.2.5-.4 1-.4 1.6 0 .6.2 1.1.4 1.6.3.4.6.8 1.1 1 .5.3 1 .5 1.6.5.6 0 1-.1 1.4-.3.5-.2.8-.5 1-.9v-.7h-2.5v-1.7h4.4v2.8a5 5 0 0 1-4.4 2.5Zm9.1 0c-.7 0-1.3-.1-1.9-.4a3.6 3.6 0 0 1-1.8-3.1c0-.7.2-1.3.5-1.9.3-.6.8-1 1.4-1.3a3.7 3.7 0 0 1 5.6 3.1c0 .7-.2 1.3-.5 1.9-.4.5-.8 1-1.4 1.3-.6.3-1.2.5-1.9.5Zm0-1.7c.5 0 1-.2 1.3-.5.4-.4.5-.8.5-1.4 0-.5-.1-1-.5-1.3-.3-.4-.8-.6-1.3-.6s-1 .2-1.3.6c-.3.3-.5.8-.5 1.3 0 .6.2 1 .5 1.4.4.3.8.5 1.3.5Zm8-5.5c.8 0 1.6.3 2 .8.6.5 1 1.2 1 2.2V54h-1.8v-.7c-.3.3-.6.5-1 .6a3 3 0 0 1-1.1.3c-.8 0-1.4-.2-1.8-.6a2 2 0 0 1-.6-1.5c0-.6.2-1.1.7-1.5a3 3 0 0 1 1.9-.5h1.7v-.3c0-.4-.1-.7-.3-1l-1-.2c-.3 0-.6 0-1 .2l-.8.7-1-1.2c.8-1 1.8-1.4 3-1.4Zm-.4 5.9c.4 0 .7-.1 1-.4.3-.3.4-.6.4-1h-1.5l-.7.1c-.2.1-.2.3-.2.5 0 .3 0 .4.2.6l.8.2Zm5-9.3h1.9V54h-2V43.5Zm12.3 9.3h-3.8l-.5 1.2h-2l4-9.4h.7l4.1 9.4h-2l-.5-1.2Zm-2-4.7-1.2 3.1h2.5l-1.2-3Zm8.6 4.4h.9V54l-1.3.2a3 3 0 0 1-2-.7c-.5-.4-.8-1-.8-2v-2.8h-1V47h1v-1.8h2v1.8h1.9v1.6h-2v2.7c0 .4.1.7.3.8.2.2.6.3 1 .3Zm5.3 0h.9V54l-1.3.2a3 3 0 0 1-2-.7c-.6-.4-.8-1-.8-2v-2.8h-1.1V47h1v-1.8h2v1.8h2v1.6h-2v2.7c0 .4 0 .7.3.8.2.2.5.3 1 .3Zm5-5.6c.8 0 1.6.3 2 .8.6.5.9 1.2.9 2.2V54h-1.7v-.7c-.3.3-.6.5-1 .6a3 3 0 0 1-1.2.3c-.7 0-1.3-.2-1.7-.6a2 2 0 0 1-.6-1.5c0-.6.2-1.1.7-1.5a3 3 0 0 1 1.9-.5h1.7v-.3c0-.4-.1-.7-.3-1l-1-.2c-.3 0-.7 0-1 .2l-.8.7-1-1.2c.8-1 1.8-1.4 3-1.4Zm-.4 5.9c.4 0 .7-.1 1-.4.3-.3.4-.6.4-1h-1.5l-.7.1c-.2.1-.2.3-.2.5 0 .3 0 .4.2.6l.8.2Zm5-5.7h1.9V54h-2v-7Zm1-1.4c-.4 0-.7-.1-1-.3-.2-.2-.3-.5-.3-.9 0-.3.1-.6.4-.8.2-.2.5-.3.8-.3.3 0 .6 0 .9.3.2.2.3.5.3.8 0 .4 0 .7-.3.9l-.9.3ZM426 47c.8 0 1.4.3 1.9.8.4.5.7 1.2.7 2V54h-2v-4c0-.4 0-.8-.3-1-.2-.3-.5-.4-.9-.4s-.7.1-1 .4c-.2.2-.3.6-.3 1v4h-2v-7h1.8v.7l1-.6 1-.2Zm12.3 0c.8 0 1.5.3 2 .8.4.5.6 1.2.6 2V54H439v-4c0-.4 0-.8-.3-1-.2-.3-.5-.4-.9-.4s-.7.1-1 .4c-.2.2-.3.5-.3 1v4h-1.9v-4c0-.4 0-.8-.3-1-.2-.3-.5-.4-.9-.4s-.7.1-1 .4c-.1.2-.3.6-.3 1v4h-1.9v-7h1.8v.7c.2-.3.5-.4.8-.6l1.1-.2c1 0 1.6.3 2.1 1l1-.7c.4-.2.8-.3 1.3-.3Zm10.8 3.2-.1 1H444c.1.5.3.9.7 1 .3.3.7.4 1.2.4.7 0 1.4-.2 2-.7l.8 1.3a4.2 4.2 0 0 1-4.8.6 3.5 3.5 0 0 1-1.8-3.2 3.6 3.6 0 0 1 1.8-3.1 3.7 3.7 0 0 1 3.5 0c.5.2.9.6 1.2 1.1.2.5.4 1 .4 1.6Zm-3.3-1.7c-.4 0-.8.2-1.1.4-.3.3-.5.6-.6 1h3.1c0-.4-.1-.7-.4-1-.3-.2-.6-.4-1-.4Zm8.4-1.5c.8 0 1.4.3 1.9.8s.7 1.2.7 2V54h-1.9v-4c0-.4-.1-.8-.4-1-.2-.3-.5-.4-.9-.4s-.7.1-1 .4c-.2.2-.3.6-.3 1v4h-1.9v-7h1.8v.7l.8-.6a3 3 0 0 1 1.2-.2Zm7.8 5.6h1V54l-1.4.2a3 3 0 0 1-2-.7c-.5-.4-.8-1-.8-2v-2.8h-1V47h1v-1.8h2v1.8h1.9v1.6h-2v2.7c0 .4.1.7.3.8.2.2.6.3 1 .3Z" fill="#475569"/><rect x="382" y="309" width="20" height="10" rx="5" fill="#E2E8F0"/><rect x="174" y="309" width="20" height="10" rx="5" fill="#E2E8F0"/><rect x="114" y="309" width="20" height="10" rx="5" fill="#E2E8F0"/><rect x="232" y="309" width="20" height="10" rx="5" fill="#E2E8F0"/><rect x="290" y="309" width="20" height="10" rx="5" fill="#E2E8F0"/><rect x="440" y="309" width="20" height="10" rx="5" fill="#E2E8F0"/><rect x="498" y="309" width="20" height="10" rx="5" fill="#E2E8F0"/><rect x="547" y="309" width="20" height="10" rx="5" fill="#E2E8F0"/><path d="M42.4 109.4v6.7h-.5l-3.8-4v3.9h-1.3v-6.7h.4l3.8 4v-3.9h1.4Zm3.6 6.7c-.5 0-1-.1-1.3-.3l-1-1c-.2-.4-.3-.8-.3-1.3s.1-.9.3-1.3l1-1c.4-.1.8-.3 1.3-.3a2.6 2.6 0 0 1 2.7 2.6c0 .5-.1 1-.4 1.3-.2.4-.5.7-1 1-.3.2-.8.3-1.3.3Zm0-1.2c.4 0 .7-.2 1-.4.2-.3.3-.6.3-1s-.1-.7-.4-1c-.2-.2-.5-.3-.9-.3-.3 0-.6.1-.9.4-.2.2-.3.5-.3 1 0 .3 0 .6.3.9.3.2.6.4 1 .4Zm6.2-4 .5.1v1.2h-.4c-.4 0-.7.1-1 .4-.2.2-.3.5-.3 1v2.4h-1.4v-5H51v.6a1.7 1.7 0 0 1 1.3-.6Zm3.8 4h.6v1.1l-1 .1c-.6 0-1-.1-1.4-.4-.3-.4-.5-.8-.5-1.4v-2.1h-.8V111h.8v-1.2H55v1.3h1.4v1H55v2c0 .3.1.5.3.6.1.2.3.2.7.2Zm4.2-4c.6 0 1 .2 1.3.6.4.3.5.8.5 1.4v3.1h-1.3v-2.9c0-.3 0-.5-.3-.7a.9.9 0 0 0-.6-.2 1 1 0 0 0-.7.2 1 1 0 0 0-.3.7v2.9h-1.3v-7.5h1.3v3l.6-.4.8-.2Zm7.8 0c.6 0 1.1.2 1.5.6.4.3.6.9.6 1.6v2.9h-1.3v-.5a2 2 0 0 1-.6.5l-.9.1c-.5 0-.9-.1-1.2-.4-.3-.3-.5-.6-.5-1 0-.5.2-.9.5-1.1.4-.3.8-.4 1.4-.4h1.2v-.2c0-.3 0-.5-.2-.7l-.7-.2c-.2 0-.5 0-.7.2-.2 0-.4.3-.6.5l-.7-.8c.6-.7 1.3-1 2.2-1Zm-.3 4.2c.3 0 .5 0 .7-.2.2-.2.3-.5.3-.8h-1l-.5.1c-.2.1-.2.2-.2.4s0 .3.2.4l.5.1ZM74 111c.6 0 1 .2 1.3.6.4.3.5.8.5 1.4v3.1h-1.3v-2.9c0-.3 0-.5-.3-.7a.9.9 0 0 0-.6-.3 1 1 0 0 0-.7.3 1 1 0 0 0-.3.7v2.9h-1.3v-5h1.2v.5l.7-.4.8-.2Zm8-2.4v7.5h-1.3v-.6c-.1.2-.3.4-.6.5-.3.2-.6.2-1 .2s-.8 0-1.2-.3c-.3-.2-.6-.5-.8-1-.2-.3-.3-.8-.3-1.3s0-1 .3-1.3a2.3 2.3 0 0 1 2-1.3 2 2 0 0 1 1.5.6v-3H82Zm-2.6 6.4c.3 0 .6-.1.9-.4.2-.2.4-.5.4-1 0-.4-.2-.7-.4-1l-.9-.3c-.4 0-.7 0-.9.3-.2.3-.4.6-.4 1s.1.8.4 1c.2.3.5.4 1 .4Zm8.7 1.2a3 3 0 0 1-1.5-.4 3 3 0 0 1-1-1l.9-.7.7.7 1 .2c.2 0 .4 0 .6-.2.2-.1.2-.3.2-.5l-.1-.5a3 3 0 0 0-.7-.3l-.7-.4c-.5-.2-.9-.4-1.2-.7-.3-.3-.4-.7-.4-1.1a1.7 1.7 0 0 1 1-1.7l1.2-.2c.5 0 1 0 1.3.3.4.2.7.6.9 1l-1 .6c-.3-.5-.7-.7-1.2-.7a1 1 0 0 0-.6.2c-.2 0-.2.2-.2.4l.1.4.6.4.8.3c.5.3 1 .5 1.2.8.3.3.4.7.4 1.1a1.8 1.8 0 0 1-1.1 1.8l-1.2.2Zm5.7 0c-.5 0-1-.1-1.4-.3l-1-1c-.1-.4-.3-.8-.3-1.3s.2-.9.4-1.3.5-.7 1-1c.4-.1.8-.3 1.3-.3a2.6 2.6 0 0 1 2.6 2.6c0 .5 0 1-.3 1.3-.2.4-.6.7-1 1-.4.2-.8.3-1.3.3Zm0-1.2a1.3 1.3 0 0 0 1.3-1.3c0-.5-.2-.8-.4-1-.2-.3-.5-.4-1-.4-.3 0-.6.1-.8.4-.3.2-.4.5-.4 1 0 .3.1.6.4.9.2.2.5.4.9.4Zm5.8 1.2c-.4 0-.8 0-1.1-.3-.4-.2-.7-.4-.9-.8-.2-.3-.3-.7-.3-1.2V111h1.4v3c0 .2 0 .4.3.6.1.2.4.3.6.3.3 0 .5-.1.7-.3.2-.2.3-.4.3-.7V111h1.3v2.8c0 .5 0 .9-.3 1.2a2 2 0 0 1-.8.8c-.3.2-.7.3-1.2.3Zm6-1.2h.7v1.1l-1 .1c-.6 0-1-.1-1.4-.4-.4-.4-.5-.8-.5-1.4v-2.1h-.8V111h.8v-1.2h1.3v1.3h1.4v1h-1.4v2c0 .3 0 .5.2.6.2.2.4.2.7.2Zm4.3-4c.5 0 1 .2 1.3.6.3.3.5.8.5 1.4v3.1h-1.3v-2.9c0-.3-.1-.5-.3-.7a.9.9 0 0 0-.6-.2 1 1 0 0 0-.7.2 1 1 0 0 0-.3.7v2.9h-1.3v-7.5h1.3v3l.6-.4.8-.2ZM99.1 159.4l-2.6 6.7H96l-1.8-4.1-1.9 4.1H92l-2.6-6.7h1.5l1.4 3.9 1.8-4h.4l1.7 4 1.5-3.9h1.5Zm4.9 3.8-.1.8h-3.5l.5.7c.2.2.6.3 1 .3s.9-.2 1.3-.5l.6.9a3 3 0 0 1-3.4.4 2.5 2.5 0 0 1-1.3-2.3 2.6 2.6 0 0 1 1.2-2.2 2.6 2.6 0 0 1 2.6 0c.3.1.6.4.8.8.2.3.3.7.3 1.1Zm-2.4-1.2c-.3 0-.5.1-.7.3-.3.2-.4.4-.5.7h2.3a1 1 0 0 0-.3-.7c-.3-.2-.5-.3-.8-.3Zm5 4.1c-.5 0-.9 0-1.2-.2l-1-.7.8-.9c.4.5.9.7 1.4.7h.4l.2-.4-.1-.2-.4-.3-.6-.2-1-.6c-.2-.2-.3-.5-.3-.9s.2-.8.5-1c.3-.3.8-.5 1.3-.5.8 0 1.3.3 1.8.8l-.7.8c-.3-.3-.7-.5-1-.5l-.5.1-.1.3v.2l.5.2.5.2c.5.2.8.4 1 .7.3.2.4.5.4.8 0 .5-.2 1-.6 1.2-.3.3-.8.4-1.4.4Zm5.3-1.2h.7v1.1l-1 .1c-.6 0-1-.1-1.4-.4-.4-.4-.5-.8-.5-1.4v-2.1h-.8V161h.8v-1.3h1.3v1.3h1.4v1H111v2c0 .3 0 .5.2.6.2.2.4.2.7.2ZM93.8 208.4h4.4v1.2h-3v1.4h2.2v1.1h-2.3v1.7h3.2v1.2h-4.5v-6.6Zm7.5 1.5c.7 0 1.2.2 1.6.6.4.3.6.9.6 1.6v2.9h-1.3v-.5a2 2 0 0 1-.6.5l-.9.1c-.5 0-1-.1-1.2-.4-.3-.3-.5-.6-.5-1 0-.5.2-.9.5-1.1.3-.3.8-.4 1.4-.4h1.2v-.2c0-.3 0-.5-.2-.7l-.7-.2c-.3 0-.5 0-.7.2-.2 0-.4.3-.6.5l-.7-.8c.6-.7 1.3-1 2.1-1Zm-.2 4.2c.3 0 .5 0 .7-.2.2-.2.3-.5.3-.8h-1l-.6.1-.1.4c0 .2 0 .3.2.4l.5.1Zm5.2 1c-.5 0-.9 0-1.2-.2-.4-.2-.7-.4-.9-.7l.7-.9c.4.5.9.7 1.4.7h.4l.2-.4-.1-.2-.4-.3-.5-.2-1-.6c-.3-.2-.4-.5-.4-.9s.2-.8.5-1c.4-.3.8-.5 1.3-.5.8 0 1.4.3 1.8.8l-.7.8c-.3-.3-.7-.5-1-.5l-.5.1v.5l.4.2.5.2c.5.2.8.4 1 .7.3.2.4.5.4.8 0 .5-.2 1-.6 1.2-.3.3-.8.4-1.3.4Zm5.4-1.2h.6v1.1l-1 .1c-.6 0-1-.1-1.4-.4-.3-.4-.5-.8-.5-1.4v-2.1h-.8V210h.8v-1.3h1.3v1.3h1.4v1h-1.4v2c0 .3.1.5.3.6.1.2.3.2.7.2ZM64.9 265.1a3.5 3.5 0 0 1-3-1.7 3.3 3.3 0 0 1 0-3.5c.3-.5.7-.9 1.2-1.2.6-.3 1.2-.4 1.8-.4a3.5 3.5 0 0 1 3 1.7c.4.5.5 1 .5 1.7 0 .6-.1 1.2-.5 1.7-.3.6-.7 1-1.2 1.3-.6.3-1.2.4-1.8.4Zm0-1.2c.4 0 .8-.1 1-.3.4-.2.7-.4.8-.8.2-.3.3-.7.3-1.1 0-.4 0-.8-.3-1.1a2 2 0 0 0-.7-.8c-.3-.2-.7-.3-1-.3-.5 0-.9.1-1.2.3a2 2 0 0 0-.7.8 2.3 2.3 0 0 0 0 2.3c.1.3.4.5.7.7.3.2.7.3 1.1.3Zm7.3-4c.5 0 .9.2 1.2.4.4.2.7.5.9.9.2.4.3.8.3 1.3s-.1 1-.3 1.4c-.2.3-.5.7-.9.9-.3.2-.7.3-1.2.3l-.8-.1-.7-.5v2.3h-1.3V260h1.2v.7l.7-.6.9-.2Zm-.3 4c.4 0 .7-.1 1-.4.2-.2.3-.6.3-1s0-.7-.3-1c-.3-.2-.6-.3-1-.3-.3 0-.6 0-.8.3-.3.2-.4.6-.4 1 0 .5.1.8.4 1 .2.3.5.4.8.4Zm8.3-1.7v.8h-3.6l.5.7c.3.2.6.3 1 .3s.9-.2 1.3-.5l.6.9a3 3 0 0 1-3.4.4 2.5 2.5 0 0 1-1.3-2.3 2.6 2.6 0 0 1 1.2-2.2 2.6 2.6 0 0 1 2.6 0c.3.1.6.4.8.8.2.3.3.7.3 1.1Zm-2.4-1.2c-.3 0-.5.1-.7.3l-.5.7H79a1 1 0 0 0-.3-.7c-.2-.2-.5-.3-.8-.3Zm6-1h.4v1.2h-.4c-.4 0-.7.2-1 .4-.2.2-.3.5-.3 1v2.4h-1.3v-5h1.2v.6a1.7 1.7 0 0 1 1.4-.6Zm3 0c.7 0 1.2.1 1.6.5.4.4.6.9.6 1.6v2.9h-1.3v-.5a2 2 0 0 1-.6.5l-.9.1c-.5 0-1-.1-1.2-.4-.3-.3-.5-.6-.5-1 0-.5.2-.9.5-1.1.4-.3.8-.4 1.4-.4h1.2v-.2c0-.3 0-.5-.2-.7l-.7-.2c-.2 0-.5 0-.7.2-.2 0-.4.3-.6.5l-.7-.8c.6-.7 1.3-1 2.2-1Zm-.2 4.1c.3 0 .5 0 .7-.2.2-.2.3-.5.3-.8h-1l-.5.1c-.2.1-.2.2-.2.4s0 .3.2.4l.5.1Zm6.1-.2h.7v1.1l-1 .1c-.6 0-1-.1-1.4-.4-.4-.4-.6-.8-.6-1.4v-2.1h-.7V260h.7v-1.3h1.4v1.3h1.4v1h-1.4v2c0 .3 0 .5.2.6.2.2.4.2.7.2Zm1.5-3.8h1.4v4.9h-1.4v-5Zm.7-1-.6-.3a.8.8 0 0 1-.3-.6l.3-.6.6-.2c.2 0 .5 0 .6.3.2.1.3.3.3.6 0 .2-.1.4-.3.5-.1.2-.4.3-.6.3Zm4.3 6c-.5 0-1-.1-1.4-.3-.4-.3-.7-.6-.9-1-.2-.4-.4-.8-.4-1.3s.2-.9.4-1.3.5-.7 1-1c.4-.1.8-.3 1.3-.3a2.6 2.6 0 0 1 2.7 2.6c0 .5-.2 1-.4 1.3-.2.4-.6.7-1 1-.4.2-.8.3-1.3.3Zm0-1.2c.4 0 .7-.2 1-.4.2-.3.3-.6.3-1s-.1-.7-.4-1c-.2-.2-.5-.3-.9-.3s-.7.1-1 .4c-.2.2-.3.5-.3 1 0 .3.1.6.4.9.2.2.5.4.9.4Zm6.3-4c.6 0 1 .2 1.4.6.3.4.5.8.5 1.4v3.1H106v-2.9c0-.3 0-.5-.2-.7a.9.9 0 0 0-.7-.3 1 1 0 0 0-.7.3 1 1 0 0 0-.2.7v2.9h-1.4v-5h1.2v.5l.7-.4.8-.2Zm4.7 5.2c-.5 0-.9 0-1.2-.2-.4-.2-.7-.4-.9-.7l.7-.9c.4.5.9.7 1.4.7h.4l.2-.4-.1-.2-.4-.3-.5-.2-1-.6c-.3-.2-.4-.5-.4-.9s.2-.8.5-1c.4-.3.8-.5 1.3-.5.8 0 1.4.3 1.8.8l-.7.8c-.3-.3-.7-.5-1-.5l-.5.1-.1.3.1.2.4.2.5.2c.5.2.8.4 1 .7.3.2.4.5.4.8 0 .5-.2 1-.6 1.2-.3.3-.8.4-1.3.4Z" fill="#E2E8F0"/><path fill-rule="evenodd" clip-rule="evenodd" d="M183.8 76.3v222.6h-1V76.3h1ZM242.1 76.3v222.6h-1V76.3h1ZM300.4 76.3v222.6h-1V76.3h1Z" fill="#E2E8F0"/><path fill-rule="evenodd" clip-rule="evenodd" d="M123.5 76.8h1V298h190v1h-191V76.8Z" fill="#E2E8F0"/><path d="M124 93.8h149.4v38.6H124V93.8ZM124 143.6h60v38.7h-60v-38.7ZM124 192.9h56.5v38.7H124v-38.7ZM124 242.7h27v38.7h-27v-38.7Z" fill="#02A9F7"/><path fill-rule="evenodd" clip-rule="evenodd" d="M392.2 76.3v222.4h-1V76.3h1ZM421.3 76.3v222.4h-1V76.3h1ZM450.5 76.3v222.4h-1V76.3h1ZM479.6 76.3v222.4h-1V76.3h1ZM508.2 76.3v222.4h-1V76.3h1ZM537.8 76.3v222.4h-1V76.3h1ZM567 76v223h-1V76h1Z" fill="#E2E8F0"/><path fill-rule="evenodd" clip-rule="evenodd" d="M361 76.8h1v221.1h204.7v1.1H361V76.8Z" fill="#E2E8F0"/><path d="M361.6 93.7h162.2v38.7H361.6V93.7ZM361.6 143.5H515v38.7H361.6v-38.7ZM361.6 192.8h159.3v38.7H361.6v-38.7ZM361.6 242.6H531v38.7H361.6v-38.7Z" fill="#9576D2"/></g><defs><filter id="a" x="0" y="0" width="630" height="367" filterUnits="userSpaceOnUse" color-interpolation-filters="sRGB"><feFlood flood-opacity="0" result="BackgroundImageFix"/><feColorMatrix in="SourceAlpha" values="0 0 0 0 0 0 0 0 0 0 0 0 0 0 0 0 0 0 127 0" result="hardAlpha"/><feOffset dx="8" dy="8"/><feComposite in2="hardAlpha" operator="out"/><feColorMatrix values="0 0 0 0 0.886275 0 0 0 0 0.909804 0 0 0 0 0.941176 0 0 0 1 0"/><feBlend in2="BackgroundImageFix" result="effect1_dropShadow_903_40153"/><feBlend in="SourceGraphic" in2="effect1_dropShadow_903_40153" result="shape"/></filter></defs></svg>