<svg fill="none" xmlns="http://www.w3.org/2000/svg" viewBox="0 0 945 493"><path fill="#F1F5F9" d="M496 264H945V472H496z"/><path fill="#D5F5F6" d="M42 51H491V259H42z"/><path stroke="#E2E8F0" d="M945 93.5 42 93.5"/><path stroke="#E2E8F0" d="M945 147.5 42 147.5"/><path stroke="#E2E8F0" d="M945 200.5 42 200.5"/><path stroke="#E2E8F0" d="M945 253.5 42 253.5"/><path stroke="#fff" stroke-width="3" d="M945 261.5 42 261.5"/><path stroke="#E2E8F0" d="M945 307.5 42 307.5"/><path stroke="#E2E8F0" d="M945 360.5 42 360.5"/><path stroke="#E2E8F0" d="M945 414.5 42 414.5"/><path stroke="#E2E8F0" d="M945 467.5 42 467.5"/><path stroke="#E2E8F0" d="M163.5 51 163.5 467"/><path stroke="#E2E8F0" d="M297.5 51 297.5 467"/><path stroke="#E2E8F0" d="M432.5 51 432.5 467"/><path stroke="#fff" stroke-width="3" d="M495.5 51 495.5 467"/><path stroke="#E2E8F0" d="M566.5 51 566.5 467"/><path stroke="#E2E8F0" d="M700.5 51 700.5 467"/><path stroke="#E2E8F0" d="M835.5 51 835.5 467"/><path d="M9.4 19.3c3.4 0 6.2-1.8 7.5-4.3v-4.7H9.3v2.8h4.4v1.3a5 5 0 0 1-4.2 2c-3.2 0-5.3-2.2-5.3-5.3 0-3 2-5.2 5.1-5.2 2 0 3.4.8 4.5 2.3L16 6.3a7.9 7.9 0 0 0-6.7-3.4 8.2 8.2 0 1 0 0 16.4Zm15.8 0a6.3 6.3 0 1 0 0-12.4 6.2 6.2 0 1 0 0 12.4Zm0-3c-1.8 0-3-1.4-3-3.2 0-2 1.2-3.3 3-3.3s3.1 1.4 3.1 3.3c0 1.8-1.3 3.2-3 3.2ZM39 6.9c-2 0-3.8.7-5.2 2.4l1.7 2c1-1 1.9-1.6 3.2-1.6 1.4 0 2.2.8 2.2 2v.6h-3c-2.8 0-4.5 1.3-4.5 3.4 0 2 1.5 3.6 4.1 3.6 1.5 0 2.8-.6 3.6-1.5V19h3v-7c0-3.4-2-5.1-5-5.1Zm-.6 10c-1 0-1.7-.5-1.7-1.3s.6-1.2 1.6-1.2H41v.2c0 1.4-1.2 2.3-2.5 2.3Zm8.8 2.1h3.3V1h-3.3v18Zm22.4 0h3.5l-7-16.1H65L57.9 19h3.5l.9-2h6.4l1 2Zm-2-4.7h-4.2l2.1-5.4 2.1 5.4Zm12.7 5c2.4 0 4.2-1.2 5.2-3l-2.3-1.7c-.7 1-1.5 1.7-2.8 1.7-1.9 0-3.1-1.4-3.1-3.3 0-1.8 1.2-3.2 3-3.2 1.4 0 2.3.7 3 1.7l2.2-1.7c-1-1.8-2.8-3-5.2-3a6.2 6.2 0 1 0 0 12.4Zm14-12.4c-1.3 0-2.4.4-3.2 1.2V1H88v18H91v-7c0-1.3 1-2.2 2.3-2.2 1.3 0 2.2.9 2.2 2.3V19h3.2v-7.4c0-2.8-1.7-4.7-4.4-4.7Zm9.2-2.1a2 2 0 0 0 2.1-2c0-1.2-1-2-2-2a2 2 0 1 0 0 4ZM102 19h3.3V7.1h-3.3V19Zm17.6-6.6c0-3.1-2.3-5.5-5.6-5.5a6.1 6.1 0 0 0-6.2 6.2c0 3.5 2.7 6.2 6.5 6.2 1.8 0 3.4-.7 4.8-1.8l-1.4-2.2c-1 .7-2 1.2-3.3 1.2-1.7 0-3-.8-3.3-2.3h8.3l.2-1.8Zm-5.7-3c1.4 0 2.5 1 2.6 2.5H111c.3-1.5 1.4-2.4 2.8-2.4Zm15.8-2.3-3 6.7-3-6.7h-3.4l6 12.2h1L133.1 7h-3.5Zm16 5.3c0-3.1-2.2-5.5-5.6-5.5a6.1 6.1 0 0 0-6.2 6.2c0 3.5 2.8 6.2 6.5 6.2 1.9 0 3.4-.7 4.8-1.8l-1.4-2.2c-1 .7-2 1.2-3.3 1.2-1.7 0-3-.8-3.3-2.3h8.3l.2-1.8Zm-5.7-3c1.4 0 2.6 1 2.6 2.5H137c.4-1.5 1.5-2.4 2.8-2.4ZM162 7c-1.6 0-3 .6-3.9 1.7a4 4 0 0 0-3.5-1.7c-1.4 0-2.6.5-3.4 1.3v-1h-3V19h3.3v-7c0-1.3.9-2.2 2.2-2.2 1.3 0 2.1.9 2.1 2.3V19h3.2v-7c0-1.3 1-2.2 2.2-2.2 1.3 0 2.1.9 2.1 2.3V19h3.3v-7.4c0-2.8-1.7-4.7-4.5-4.7Zm18.8 5.5c0-3.1-2.3-5.5-5.6-5.5A6.1 6.1 0 0 0 169 13c0 3.5 2.7 6.2 6.5 6.2 1.8 0 3.4-.7 4.7-1.8l-1.3-2.2c-1 .7-2 1.2-3.3 1.2-1.7 0-3-.8-3.3-2.3h8.3l.2-1.8Zm-5.7-3c1.4 0 2.5 1 2.6 2.5h-5.4c.3-1.5 1.4-2.4 2.8-2.4ZM189.7 7c-1.5 0-2.7.5-3.5 1.3v-1h-3V19h3.3v-7c0-1.3.9-2.2 2.2-2.2 1.3 0 2.2.9 2.2 2.3V19h3.2v-7.4c0-2.8-1.6-4.7-4.4-4.7Zm13.7 9.5c-1.5 0-2.2-.5-2.2-1.9V10h3.3V7h-3.3v-3h-3.3v3H196V10h2v5c0 3 1.7 4.4 4.7 4.4a9 9 0 0 0 2.2-.3v-2.7h-1.5Zm18-9.3-3 6.7-3-6.7h-3.5l6 12.2h1L224.8 7h-3.5Zm8.7 12.2c2.6 0 4.7-1.4 4.7-3.8 0-1.9-1.2-2.8-3.4-3.6l-1.1-.5c-.9-.4-1.3-.6-1.3-1 0-.6.5-.9 1.3-.9 1 0 2 .4 2.7 1.1l1.6-2a5.5 5.5 0 0 0-4.3-1.7c-2.5 0-4.3 1.2-4.3 3.5 0 1.9 1.2 2.8 3.2 3.6l1.3.6c.7.3 1.2.5 1.2 1 0 .7-.7 1-1.5 1-1.3 0-2.4-.6-3.3-1.6l-1.7 2a6 6 0 0 0 5 2.3Zm8.9 0c1.3 0 2.2-1 2.2-2.2 0-1.3-1-2.3-2.2-2.3-1.3 0-2.3 1-2.3 2.3 0 1.2 1 2.2 2.3 2.2Zm25.3-.3-4.5-6.2a4.9 4.9 0 0 0 2.8-4.5c0-3.1-2.4-5.1-5.8-5.1h-6V19h3.3v-5.6h2.4l4.1 5.6h3.7ZM254 6h2.7c1.6 0 2.4 1 2.4 2.3 0 1.3-.8 2.3-2.4 2.3h-2.7V6Zm22.7 6.4c0-3.1-2.2-5.5-5.6-5.5A6.1 6.1 0 0 0 265 13c0 3.5 2.7 6.2 6.5 6.2 1.8 0 3.4-.7 4.8-1.8l-1.4-2.2c-1 .7-2 1.2-3.3 1.2-1.7 0-3-.8-3.3-2.3h8.3l.2-1.8Zm-5.7-3c1.4 0 2.5 1 2.6 2.5h-5.4c.3-1.5 1.4-2.4 2.8-2.4Zm12 9.9c2.7 0 4.7-1.4 4.7-3.8 0-1.9-1.2-2.8-3.3-3.6l-1.2-.5c-.8-.4-1.2-.6-1.2-1 0-.6.5-.9 1.3-.9 1 0 1.8.4 2.6 1.1l1.6-2a5.5 5.5 0 0 0-4.2-1.7c-2.5 0-4.4 1.2-4.4 3.5 0 1.9 1.2 2.8 3.2 3.6l1.3.6c.7.3 1.2.5 1.2 1 0 .7-.7 1-1.5 1-1.2 0-2.3-.6-3.3-1.6l-1.6 2a6 6 0 0 0 4.9 2.3ZM292 4.8a2 2 0 0 0 2-2c0-1.2-.9-2-2-2a2 2 0 1 0 0 4ZM290.3 19h3.2V7.1h-3.2V19Zm15.4-11.9v1.5a4.6 4.6 0 0 0-4-1.7c-3.2 0-5.6 2.3-5.6 5.8 0 3.6 2.4 6 5.7 6 1.5 0 2.7-.5 3.6-1.5v.7c0 1.9-1.3 2.8-3.2 2.8a6 6 0 0 1-3.8-1.6l-1.7 2.3a8.5 8.5 0 0 0 5.8 2.2c3.6 0 6.1-2 6.1-6V7.2h-3Zm-3.3 8.8c-1.6 0-3-1.2-3-3.2a3 3 0 0 1 3-3c1.5 0 3 .8 3 3s-1.4 3.2-3 3.2Zm16-9c-1.6 0-2.8.5-3.6 1.3v-1h-3V19h3.3v-7c0-1.3 1-2.2 2.2-2.2 1.4 0 2.3.9 2.3 2.3V19h3.2v-7.4c0-2.8-1.7-4.7-4.5-4.7Zm12.4 0c-2.1 0-3.8.7-5.2 2.4l1.7 2c1-1 1.8-1.6 3.1-1.6 1.5 0 2.2.8 2.2 2v.6h-3c-2.7 0-4.5 1.3-4.5 3.4 0 2 1.6 3.6 4.1 3.6 1.6 0 2.8-.6 3.7-1.5V19h3v-7c0-3.4-2.1-5.1-5.1-5.1Zm-.7 10c-1 0-1.7-.5-1.7-1.3s.6-1.2 1.7-1.2h2.5v.2c0 1.4-1.1 2.3-2.5 2.3Zm15-.5c-1.5 0-2.2-.5-2.2-1.9V10h3.3V7H343v-3h-3.3v3h-1.9V10h2v5c0 3 1.7 4.4 4.7 4.4a9 9 0 0 0 2.2-.3v-2.7h-1.5Zm5.5-11.6a2 2 0 0 0 2-2c0-1.2-.9-2-2-2a2 2 0 1 0 0 4ZM349 19h3.2V7.1H349V19Zm12 .3c3.6 0 6.5-2.8 6.5-6.3 0-3.4-2.9-6.1-6.4-6.1a6.2 6.2 0 1 0 0 12.4Zm0-3c-1.7 0-3-1.4-3-3.2 0-2 1.3-3.3 3-3.3 1.8 0 3.2 1.4 3.2 3.3 0 1.8-1.4 3.2-3.1 3.2Zm15.5-9.4c-1.5 0-2.7.5-3.5 1.3v-1h-3V19h3.2v-7c0-1.3 1-2.2 2.3-2.2 1.3 0 2.2.9 2.2 2.3V19h3.2v-7.4c0-2.8-1.7-4.7-4.4-4.7ZM404.3 19l-4.4-6.2a4.9 4.9 0 0 0 2.7-4.5c0-3.1-2.3-5.1-5.7-5.1h-6V19h3.3v-5.6h2.4l4.1 5.6h3.6Zm-10-13h2.6c1.5 0 2.4 1 2.4 2.3 0 1.3-.9 2.3-2.4 2.3h-2.7V6Zm16.5.9c-2.1 0-3.8.7-5.2 2.4l1.6 2c1-1 2-1.6 3.2-1.6 1.5 0 2.2.8 2.2 2v.6h-3c-2.7 0-4.5 1.3-4.5 3.4 0 2 1.5 3.6 4.1 3.6 1.6 0 2.8-.6 3.7-1.5V19h3v-7c0-3.4-2.1-5.1-5.1-5.1Zm-.7 10c-1 0-1.7-.5-1.7-1.3s.6-1.2 1.7-1.2h2.5v.2c0 1.4-1.1 2.3-2.5 2.3Zm15-.5c-1.5 0-2.3-.5-2.3-1.9V10h3.4V7h-3.4v-3h-3.2v3h-1.9V10h2v5c0 3 1.7 4.4 4.7 4.4a9 9 0 0 0 2.2-.3v-2.7H425Zm14.7-4c0-3.1-2.2-5.5-5.5-5.5A6.1 6.1 0 0 0 428 13c0 3.5 2.8 6.2 6.5 6.2 1.9 0 3.4-.7 4.8-1.8l-1.4-2.2c-1 .7-2 1.2-3.3 1.2-1.7 0-3-.8-3.3-2.3h8.3l.2-1.8Zm-5.7-3c1.4 0 2.6 1 2.6 2.5h-5.4c.4-1.5 1.5-2.4 2.8-2.4Z" fill="#1E293B"/><rect y="87" width="34" height="11" rx="5.5" fill="#E2E8F0"/><rect y="141" width="34" height="11" rx="5.5" fill="#E2E8F0"/><rect y="194" width="34" height="11" rx="5.5" fill="#E2E8F0"/><rect y="301" width="34" height="11" rx="5.5" fill="#E2E8F0"/><rect y="354" width="34" height="11" rx="5.5" fill="#E2E8F0"/><rect y="408" width="34" height="11" rx="5.5" fill="#E2E8F0"/><rect y="461" width="34" height="11" rx="5.5" fill="#E2E8F0"/><rect x="146" y="482" width="34" height="11" rx="5.5" fill="#E2E8F0"/><rect x="280" y="482" width="34" height="11" rx="5.5" fill="#E2E8F0"/><rect x="415" y="482" width="34" height="11" rx="5.5" fill="#E2E8F0"/><rect x="549" y="482" width="34" height="11" rx="5.5" fill="#E2E8F0"/><rect x="683" y="482" width="34" height="11" rx="5.5" fill="#E2E8F0"/><rect x="818" y="482" width="34" height="11" rx="5.5" fill="#E2E8F0"/><circle cx="234" cy="337" r="18" fill="#64748B"/><circle cx="372.5" cy="199.5" r="38.5" fill="#64748B"/><circle cx="541.5" cy="318.5" r="12.5" fill="#64748B"/><circle cx="475.5" cy="334.5" r="7.5" fill="#64748B"/><circle cx="96.5" cy="416.5" r="6.5" fill="#64748B"/><path d="m262.8 332.3-3.6 4.6-3.6-4.6h-.6v8.7h1.7v-4.6l2.2 2.7h.6l2.1-2.7v4.6h1.8v-8.7h-.6Zm5 2.1c-1.1 0-2 .5-2.8 1.3l1 1.1c.5-.5 1-.9 1.6-.9.8 0 1.2.5 1.2 1.2v.3h-1.6c-1.5 0-2.4.7-2.4 1.8s.8 2 2.2 2c.8 0 1.5-.3 2-.8v.6h1.6v-3.8c0-1.9-1.1-2.8-2.8-2.8Zm-.3 5.5c-.6 0-1-.3-1-.7 0-.5.4-.7 1-.7h1.3v.1c0 .7-.6 1.3-1.3 1.3Zm8.1-5.4c-.7 0-1.3.3-1.7.8v-.7h-1.6v6.4h1.7v-3.2c0-1.2.7-1.7 1.7-1.7h.5v-1.5l-.6-.1Zm8 6.5-2.6-3.6 2.5-2.8h-2.1l-2.3 2.7v-6h-1.8v9.7h1.8v-3.6l2.5 3.6h2Zm6.8-3.6a3 3 0 0 0-3-3 3.3 3.3 0 0 0-3.4 3.4c0 1.9 1.4 3.4 3.5 3.4a4 4 0 0 0 2.6-1l-.8-1.2c-.5.4-1 .6-1.8.6-.9 0-1.6-.4-1.8-1.2h4.5l.2-1Zm-3.1-1.6c.7 0 1.3.5 1.4 1.3h-3c.2-.8.8-1.3 1.6-1.3Zm7.7 3.8c-.8 0-1.2-.3-1.2-1V336h1.9v-1.4h-1.9v-1.7h-1.7v1.7h-1v1.4h1v2.7c0 1.7 1 2.5 2.5 2.5l1.3-.2v-1.5h-.9Zm3-6.3c.6 0 1.1-.5 1.1-1 0-.7-.5-1.2-1.1-1.2a1 1 0 1 0 0 2.2Zm-.9 7.7h1.8v-6.4H297v6.4Zm7-6.6c-.8 0-1.4.3-1.9.8v-.6h-1.6v6.4h1.8v-3.8c0-.7.5-1.2 1.2-1.2s1.2.5 1.2 1.2v3.8h1.7v-4c0-1.5-.9-2.6-2.4-2.6Zm9 .2v.8c-.5-.6-1.2-1-2.1-1-1.8 0-3.1 1.3-3.1 3.2 0 2 1.3 3.2 3 3.2.9 0 1.6-.3 2-.8v.4c0 1-.7 1.5-1.7 1.5-.8 0-1.4-.3-2-.8l-1 1.2c.7.6 1.8 1.2 3.2 1.2 1.9 0 3.3-1 3.3-3.2v-5.7H313Zm-1.8 4.7c-.9 0-1.6-.6-1.6-1.7 0-1 .7-1.7 1.6-1.7.8 0 1.7.5 1.7 1.7s-.8 1.7-1.7 1.7ZM418 204.2a4.5 4.5 0 1 0 0-8.9 4.5 4.5 0 1 0 0 8.9Zm0-1.7c-1.5 0-2.7-1.1-2.7-2.8 0-1.6 1.2-2.8 2.8-2.8 1.5 0 2.7 1.2 2.7 2.8 0 1.7-1.2 2.8-2.7 2.8Zm9.7-5c-1 0-1.7.3-2.1.9v-.8H424v8.7h1.7v-3c.5.6 1.2.9 2 .9 1.8 0 3-1.5 3-3.4 0-2-1.2-3.4-3-3.4Zm-.4 5c-.8 0-1.6-.5-1.6-1.7 0-1.3.8-1.8 1.6-1.8 1 0 1.7.7 1.7 1.8 0 1-.7 1.8-1.7 1.8Zm10.9-2a3 3 0 0 0-3-3 3.3 3.3 0 0 0-3.4 3.3c0 1.9 1.5 3.4 3.5 3.4a4 4 0 0 0 2.6-1l-.7-1.2c-.6.4-1.1.6-1.8.6-1 0-1.6-.4-1.8-1.2h4.5l.1-1Zm-3.1-1.7c.7 0 1.4.5 1.4 1.3h-3c.3-.8.9-1.3 1.6-1.3Zm7.8-1.3c-.7 0-1.3.3-1.7.8v-.7h-1.6v6.4h1.7v-3.2c0-1.2.7-1.7 1.8-1.7h.4v-1.5l-.6-.1Zm4.2 0c-1.1 0-2 .4-2.8 1.2l1 1.1c.5-.5 1-.9 1.6-.9.8 0 1.2.5 1.2 1.2v.3h-1.6c-1.5 0-2.4.7-2.4 1.8s.8 2 2.2 2c.8 0 1.5-.3 2-.8v.6h1.6v-3.8c0-1.9-1.1-2.8-2.8-2.8Zm-.3 5.4c-.6 0-1-.3-1-.7 0-.5.4-.7 1-.7h1.3c0 .8-.6 1.4-1.3 1.4Zm8-.3c-.7 0-1.1-.3-1.1-1V199h1.8v-1.4h-1.8v-1.7h-1.8v1.7h-1v1.4h1v2.7c0 1.7 1 2.5 2.6 2.5l1.2-.2v-1.5h-.8Zm3-6.3c.7 0 1.2-.5 1.2-1 0-.7-.5-1.2-1.2-1.2a1 1 0 1 0 0 2.2Zm-.8 7.7h1.7v-6.4H457v6.4Zm6.5.1c2 0 3.5-1.5 3.5-3.3 0-1.9-1.5-3.4-3.5-3.4a3.4 3.4 0 1 0 0 6.7Zm0-1.6c-1 0-1.6-.7-1.6-1.7s.7-1.8 1.6-1.8c1 0 1.7.8 1.7 1.8s-.7 1.7-1.7 1.7Zm8.4-5c-.8 0-1.5.2-2 .7v-.6h-1.5v6.4h1.7v-3.8c0-.7.5-1.2 1.2-1.2.8 0 1.2.5 1.2 1.2v3.8h1.8v-4c0-1.5-1-2.6-2.4-2.6Zm6.2 6.7c1.4 0 2.5-.8 2.5-2.1 0-1-.7-1.5-1.8-2l-.7-.2c-.4-.2-.6-.3-.6-.6s.2-.4.6-.4c.6 0 1 .2 1.5.6l.9-1.1a3 3 0 0 0-2.3-1c-1.4 0-2.4.7-2.4 2 0 1 .7 1.5 1.7 2l.7.2c.4.2.7.3.7.6s-.4.5-.8.5c-.7 0-1.3-.3-1.8-.9l-1 1.1c.7.8 1.6 1.3 2.8 1.3ZM561 323.2c1.7 0 3.1-.9 3.9-2.2l-1.4-1c-.5 1-1.4 1.5-2.4 1.5a2.7 2.7 0 0 1-2.8-2.8c0-1.6 1.2-2.8 2.8-2.8 1 0 1.9.5 2.4 1.4l1.4-.9a4.3 4.3 0 0 0-3.8-2.1 4.4 4.4 0 1 0 0 8.9Zm8.1 0c1.7 0 3-1.2 3-3v-3.6h-1.8v3.7c0 .8-.5 1.2-1.2 1.2-.6 0-1.2-.4-1.2-1.2v-3.7h-1.7v3.6c0 1.8 1.2 3 3 3Zm6.7 0c1.5 0 2.6-.8 2.6-2.1 0-1-.7-1.5-1.9-2l-.6-.2c-.4-.2-.6-.3-.6-.6s.2-.4.6-.4c.6 0 1 .2 1.5.6l.9-1.1a3 3 0 0 0-2.3-1c-1.4 0-2.4.7-2.4 2 0 1 .6 1.5 1.7 2l.7.2c.4.2.7.3.7.6s-.4.5-.8.5c-.7 0-1.3-.3-1.8-.9l-1 1.1c.7.8 1.6 1.3 2.7 1.3Zm7.2-1.6c-.8 0-1.2-.3-1.2-1V318h1.8v-1.4h-1.8v-1.7H580v1.7h-1v1.4h1v2.7c0 1.7 1 2.5 2.6 2.5l1.2-.2v-1.5h-.8Zm5 1.5c2 0 3.5-1.5 3.5-3.3 0-1.9-1.5-3.4-3.5-3.4a3.4 3.4 0 1 0 0 6.7Zm0-1.6c-1 0-1.6-.7-1.6-1.7s.7-1.8 1.6-1.8c1 0 1.7.8 1.7 1.8s-.7 1.7-1.7 1.7Zm12.4-5c-1 0-1.7.3-2.2.8-.4-.5-1-.9-1.9-.9-.8 0-1.4.3-1.8.7v-.5h-1.6v6.4h1.7v-3.7c0-.8.5-1.3 1.2-1.3s1.2.5 1.2 1.3v3.7h1.7v-3.8c0-.7.5-1.2 1.2-1.2s1.1.5 1.1 1.3v3.7h1.8v-4c0-1.5-.9-2.6-2.4-2.6Zm10.1 3a3 3 0 0 0-3-3 3.3 3.3 0 0 0-3.4 3.3c0 1.9 1.5 3.4 3.5 3.4a4 4 0 0 0 2.6-1l-.7-1.2c-.5.4-1.1.6-1.8.6-1 0-1.6-.4-1.8-1.2h4.5l.1-1Zm-3.1-1.7c.7 0 1.4.5 1.4 1.3h-3c.3-.8.9-1.3 1.6-1.3Zm7.8-1.3c-.7 0-1.3.3-1.7.8v-.7h-1.6v6.4h1.7v-3.2c0-1.2.7-1.7 1.8-1.7h.4v-1.5l-.6-.1Zm8.2 6.7c1.7 0 3-1 3-2.6 0-1.2-.8-2-2.1-2.5l-1-.5c-.6-.2-1-.5-1-1s.5-.8 1-.8c.8 0 1.3.4 1.7 1l1.2-1a3 3 0 0 0-2.8-1.5c-1.7 0-2.9 1-2.9 2.4 0 1.2 1 2 2 2.5l1 .4c.7.3 1.1.5 1.1 1 0 .6-.5 1-1.2 1-1 0-1.7-.6-2.1-1.3l-1.2 1a3.7 3.7 0 0 0 3.3 1.9Zm7.3 0c1.7 0 3-1.2 3-3v-3.6h-1.8v3.7c0 .8-.5 1.2-1.2 1.2s-1.2-.4-1.2-1.2v-3.7h-1.8v3.6c0 1.8 1.3 3 3 3Zm8.3-6.8c-.9 0-1.6.4-2 1v-.8h-1.6v8.7h1.7v-3c.5.6 1.1.9 2 .9 1.8 0 3-1.5 3-3.4 0-2-1.2-3.4-3-3.4Zm-.3 5.2c-.8 0-1.6-.6-1.6-1.8 0-1.3.8-1.8 1.6-1.8 1 0 1.7.7 1.7 1.8 0 1-.8 1.8-1.7 1.8Zm8.5-5.2c-.9 0-1.6.4-2 1v-.8h-1.7v8.7h1.8v-3c.4.6 1.1.9 2 .9 1.7 0 3-1.5 3-3.4 0-2-1.3-3.4-3-3.4Zm-.3 5.2c-.8 0-1.6-.6-1.6-1.8 0-1.3.8-1.8 1.6-1.8 1 0 1.6.7 1.6 1.8 0 1-.7 1.8-1.6 1.8Zm7.9 1.5c2 0 3.4-1.5 3.4-3.3 0-1.9-1.5-3.4-3.4-3.4a3.4 3.4 0 1 0 0 6.7Zm0-1.6c-1 0-1.7-.7-1.7-1.7s.7-1.8 1.7-1.8 1.7.8 1.7 1.8-.8 1.7-1.7 1.7Zm8.2-5c-.7 0-1.3.3-1.8.8v-.7h-1.6v6.4h1.8v-3.2c0-1.2.7-1.7 1.7-1.7h.5v-1.5l-.6-.1Zm5 5c-.9 0-1.2-.2-1.2-1V318h1.8v-1.4h-1.8v-1.7H665v1.7h-1v1.4h1v2.7c0 1.7 1 2.5 2.6 2.5l1.2-.2v-1.5h-.8ZM452 356h1.7v-3.3h3.2v-1.5h-3.2V349h4v-1.6H452v8.6Zm7.7-7.7c.6 0 1.1-.5 1.1-1 0-.7-.5-1.2-1.1-1.2a1 1 0 1 0 0 2.2Zm-.9 7.7h1.8v-6.4h-1.8v6.4Zm7-6.6c-.8 0-1.4.3-1.9.8v-.6h-1.6v6.4h1.8v-3.8c0-.7.5-1.2 1.2-1.2s1.2.5 1.2 1.2v3.8h1.7v-4c0-1.5-.9-2.6-2.4-2.6Zm6.8 0c-1.2 0-2 .5-2.8 1.3l.9 1.1c.5-.5 1-.9 1.7-.9.8 0 1.2.5 1.2 1.2v.3H472c-1.5 0-2.5.7-2.5 1.8s.8 2 2.2 2c.9 0 1.6-.3 2-.8v.6h1.6v-3.8c0-1.9-1.1-2.8-2.7-2.8Zm-.4 5.5c-.5 0-1-.3-1-.7 0-.5.4-.7 1-.7h1.4v.1c0 .7-.6 1.3-1.4 1.3Zm8.3-5.5c-.8 0-1.4.3-1.9.8v-.6H477v6.4h1.8v-3.8c0-.7.5-1.2 1.2-1.2s1.2.5 1.2 1.2v3.8h1.7v-4c0-1.5-.9-2.6-2.4-2.6Zm7.2 6.8c1.3 0 2.3-.7 2.8-1.6l-1.2-1c-.4.6-.9 1-1.6 1-1 0-1.7-.8-1.7-1.8s.7-1.8 1.7-1.8c.7 0 1.2.4 1.6 1l1.2-1a3 3 0 0 0-2.8-1.6c-2 0-3.5 1.5-3.5 3.4s1.6 3.4 3.5 3.4Zm10-3.8a3 3 0 0 0-3-3 3.3 3.3 0 0 0-3.4 3.4c0 1.9 1.5 3.4 3.5 3.4a4 4 0 0 0 2.6-1l-.7-1.2c-.6.4-1.1.6-1.8.6-1 0-1.6-.4-1.8-1.2h4.5v-1Zm-3.1-1.6c.7 0 1.4.5 1.4 1.3h-3c.3-.8.9-1.3 1.6-1.3ZM110 421.2a4.5 4.5 0 1 0 0-8.9 4.5 4.5 0 1 0 0 8.9Zm0-1.7c-1.5 0-2.7-1.1-2.7-2.8 0-1.6 1.2-2.8 2.8-2.8 1.5 0 2.7 1.2 2.7 2.8 0 1.7-1.2 2.8-2.7 2.8Zm9.7-5c-1 0-1.7.3-2.1.9v-.8H116v8.7h1.7v-3c.5.6 1.2.9 2 .9 1.8 0 3-1.5 3-3.4 0-2-1.2-3.4-3-3.4Zm-.4 5c-.8 0-1.6-.5-1.6-1.7 0-1.3.8-1.8 1.6-1.8 1 0 1.7.7 1.7 1.8 0 1-.7 1.8-1.7 1.8Zm10.9-2a3 3 0 0 0-3-3 3.3 3.3 0 0 0-3.4 3.3c0 1.9 1.5 3.4 3.5 3.4a4 4 0 0 0 2.6-1l-.7-1.2c-.5.4-1.1.6-1.8.6-1 0-1.6-.4-1.8-1.2h4.5l.1-1Zm-3.1-1.7c.7 0 1.4.5 1.4 1.3h-3c.3-.8.9-1.3 1.6-1.3Zm7.8-1.3c-.7 0-1.3.3-1.7.8v-.7h-1.6v6.4h1.7v-3.2c0-1.2.7-1.7 1.8-1.7h.4v-1.5l-.6-.1Zm4.2 0c-1.1 0-2 .4-2.8 1.2l1 1.1c.5-.5 1-.9 1.6-.9.8 0 1.2.5 1.2 1.2v.3h-1.6c-1.5 0-2.4.7-2.4 1.8s.8 2 2.2 2c.8 0 1.5-.3 2-.8v.6h1.6v-3.8c0-1.9-1.1-2.8-2.8-2.8Zm-.3 5.4c-.6 0-1-.3-1-.7 0-.5.4-.7 1-.7h1.3v.1c0 .7-.6 1.3-1.3 1.3Zm8-.3c-.7 0-1.1-.3-1.1-1V416h1.8v-1.4h-1.8v-1.7h-1.8v1.7h-1v1.4h1v2.7c0 1.7 1 2.5 2.6 2.5l1.2-.2v-1.5h-.8Zm3-6.3c.7 0 1.2-.5 1.2-1 0-.7-.5-1.2-1.2-1.2a1 1 0 1 0 0 2.2Zm-.8 7.7h1.7v-6.4H149v6.4Zm6.5.1c2 0 3.5-1.5 3.5-3.3 0-1.9-1.5-3.4-3.5-3.4a3.4 3.4 0 1 0 0 6.7Zm0-1.6c-1 0-1.6-.7-1.6-1.7s.7-1.8 1.6-1.8c1 0 1.7.8 1.7 1.8s-.7 1.7-1.7 1.7Zm8.4-5c-.8 0-1.5.2-2 .6v-.5h-1.5v6.4h1.7v-3.8c0-.7.5-1.2 1.2-1.2.8 0 1.2.5 1.2 1.2v3.8h1.8v-4c0-1.5-1-2.6-2.4-2.6Zm6.2 6.7c1.4 0 2.5-.8 2.5-2.1 0-1-.7-1.5-1.8-2l-.7-.2c-.4-.2-.6-.3-.6-.6s.2-.4.6-.4c.6 0 1 .2 1.5.6l.9-1.1a3 3 0 0 0-2.3-1c-1.4 0-2.4.7-2.4 2 0 1 .7 1.5 1.7 2l.7.2c.4.2.7.3.7.6s-.4.5-.8.5c-.7 0-1.3-.3-1.8-.9l-1 1.1c.7.8 1.6 1.3 2.8 1.3ZM55.1 77h6.4v-1.8h-4.3V67h-2V77Zm11.3.2a4 4 0 0 0 4-4 4 4 0 0 0-4-3.8 3.9 3.9 0 1 0 0 7.8Zm0-1.9c-1.1 0-2-.8-2-2s.9-2 2-2c1 0 1.9.8 1.9 2s-.8 2-2 2Zm14.8-5.7-1.7 4.1-2-4.3h-.8l-2 4.4-1.7-4.2h-2.2l3.5 7.6h.6l2.2-4.3 2.1 4.3h.7l3.4-7.6h-2.1Zm16 7.4-2.8-3.9a3 3 0 0 0 1.7-2.8c0-2-1.4-3.2-3.5-3.2h-3.8V77h2v-3.5h1.6l2.5 3.5h2.3Zm-6.3-8.1h1.7c1 0 1.5.6 1.5 1.4 0 .9-.6 1.4-1.5 1.4h-1.7V69Zm14.1 4c0-2-1.4-3.5-3.4-3.5a3.8 3.8 0 0 0-4 3.9c0 2.2 1.8 3.9 4.1 3.9 1.2 0 2.2-.4 3-1.1l-.8-1.4c-.6.5-1.3.7-2.1.7-1 0-1.9-.5-2-1.4h5.1l.1-1.1Zm-3.5-1.9c.8 0 1.6.6 1.6 1.5h-3.4c.2-.9 1-1.5 1.8-1.5Zm7.5 6.2c1.6 0 3-.9 3-2.4 0-1.1-.8-1.7-2.2-2.3l-.7-.3c-.5-.2-.8-.3-.8-.6 0-.4.4-.5.8-.5.6 0 1.2.2 1.7.7l1-1.3a3.4 3.4 0 0 0-2.7-1c-1.5 0-2.7.7-2.7 2.1 0 1.2.8 1.8 2 2.3l.8.3c.5.2.8.4.8.7 0 .4-.4.6-1 .6a3 3 0 0 1-2-1l-1 1.2c.6 1 1.7 1.5 3 1.5Zm5.5-9c.7 0 1.3-.6 1.3-1.3 0-.7-.6-1.3-1.3-1.3-.8 0-1.3.6-1.3 1.3 0 .7.5 1.2 1.3 1.2Zm-1 8.8h2v-7.4h-2V77Zm9.6-7.4v1c-.5-.8-1.4-1.2-2.5-1.2-2 0-3.5 1.4-3.5 3.7 0 2.2 1.5 3.7 3.5 3.7a3 3 0 0 0 2.3-1v.5c0 1.2-.8 1.8-2 1.8-1 0-1.6-.4-2.4-1l-1 1.4c.8.8 2 1.4 3.6 1.4 2.2 0 3.8-1.2 3.8-3.7v-6.6h-1.8Zm-2 5.5c-1 0-2-.8-2-2 0-1.3 1-2 2-2 .9 0 1.8.6 1.8 2 0 1.3-.9 2-1.8 2Zm9.9-5.7a3 3 0 0 0-2.2.8v-.6h-1.9V77h2v-4.3c0-.9.7-1.5 1.5-1.5s1.4.6 1.4 1.5V77h2v-4.6c0-1.8-1-3-2.8-3Zm7.8 0a4 4 0 0 0-3.3 1.5l1 1.3c.7-.7 1.2-1 2-1 1 0 1.4.5 1.4 1.3v.3h-1.8c-1.8 0-2.8.8-2.8 2.2 0 1.2.9 2.2 2.5 2.2a3 3 0 0 0 2.3-1v.8h1.8v-4.4c0-2.1-1.2-3.2-3.1-3.2Zm-.4 6.3c-.7 0-1.1-.3-1.1-.8s.4-.8 1-.8h1.6v.1c0 .9-.7 1.5-1.5 1.5Zm9.3-.3c-1 0-1.4-.3-1.4-1.2v-3h2.1v-1.6h-2v-1.9h-2.1v1.9h-1.2v1.7h1.2v3c0 2 1.1 2.9 3 2.9.5 0 1 0 1.4-.2v-1.7h-1Zm3.4-7.3c.8 0 1.3-.5 1.3-1.2s-.5-1.3-1.3-1.3c-.7 0-1.3.6-1.3 1.3 0 .7.6 1.2 1.3 1.2Zm-1 8.9h2v-7.4h-2V77Zm7.6.2a4 4 0 0 0 4-4 4 4 0 0 0-4-3.8 3.9 3.9 0 1 0 0 7.8Zm0-1.9c-1 0-2-.8-2-2s1-2 2-2c1.1 0 2 .8 2 2s-.9 2-2 2Zm9.6-5.9a3 3 0 0 0-2.2.8v-.6h-1.8V77h2v-4.3c0-.9.6-1.5 1.4-1.5.8 0 1.4.6 1.4 1.5V77h2v-4.6c0-1.8-1-3-2.8-3Zm4.7 10.3h1.6l.8-4.5h-2.3v4.5Zm8.6-2.7h2v-4.3h4.4V77h2v-9.9h-2v3.8h-4.4V67h-2V77Zm11.5-8.9c.7 0 1.3-.5 1.3-1.2s-.6-1.3-1.3-1.3c-.7 0-1.3.6-1.3 1.3 0 .7.6 1.2 1.3 1.2Zm-1 8.9h2v-7.4h-2V77Zm9.6-7.4v1c-.5-.8-1.3-1.2-2.4-1.2-2 0-3.6 1.4-3.6 3.7 0 2.2 1.5 3.7 3.6 3.7a3 3 0 0 0 2.2-1v.5c0 1.2-.8 1.8-2 1.8-.9 0-1.6-.4-2.3-1l-1.1 1.4c.8.8 2 1.4 3.6 1.4 2.3 0 3.9-1.2 3.9-3.7v-6.6h-1.9Zm-2 5.5c-1 0-2-.8-2-2 0-1.3 1-2 2-2s1.9.6 1.9 2c0 1.3-1 2-1.9 2Zm10-5.7c-.9 0-1.6.3-2 .8v-4.5h-2.1V77h2v-4.3c0-.9.6-1.5 1.4-1.5.8 0 1.4.6 1.4 1.5V77h2v-4.6c0-1.8-1-3-2.8-3Zm14.6 7.6h2.2l-4.4-10h-.7L216 77h2.2l.5-1.3h4l.6 1.3Zm-1.2-3h-2.7l1.4-3.3L222 74Zm8 3.2c1.4 0 2.5-.8 3.1-1.9l-1.4-1c-.4.6-1 1-1.8 1-1.1 0-1.9-.8-1.9-2s.8-2 2-2c.8 0 1.3.4 1.7 1l1.4-1a3.5 3.5 0 0 0-3.2-1.9c-2.2 0-4 1.7-4 3.9s1.8 3.9 4 3.9Zm8.7-7.8c-.8 0-1.5.3-2 .8v-4.5h-2V77h2v-4.3c0-.9.6-1.5 1.4-1.5.8 0 1.4.6 1.4 1.5V77h2v-4.6c0-1.8-1.1-3-2.8-3Zm5.7-1.3c.7 0 1.3-.5 1.3-1.2s-.6-1.3-1.3-1.3c-.7 0-1.3.6-1.3 1.3 0 .7.6 1.2 1.3 1.2Zm-1 8.9h2v-7.4h-2V77Zm11-4.1c0-2-1.4-3.5-3.5-3.5a3.8 3.8 0 0 0-3.9 3.9c0 2.2 1.7 3.9 4 3.9 1.2 0 2.2-.4 3-1.1l-.8-1.4c-.6.5-1.2.7-2 .7-1.1 0-1.9-.5-2.1-1.4h5.2l.1-1.1Zm-3.6-1.9c.9 0 1.6.6 1.6 1.5h-3.3c.2-.9.9-1.5 1.7-1.5Zm10-1.4-2 4.2-1.8-4.2H255l3.6 7.6h.7l3.7-7.6h-2.2Zm10 3.3c0-2-1.5-3.5-3.6-3.5a3.8 3.8 0 0 0-3.8 3.9c0 2.2 1.7 3.9 4 3.9 1.2 0 2.2-.4 3-1.1l-.8-1.4c-.6.5-1.3.7-2.1.7-1.1 0-1.9-.5-2.1-1.4h5.2l.1-1.1Zm-3.6-1.9c.8 0 1.6.6 1.6 1.5h-3.4c.2-.9 1-1.5 1.8-1.5Zm13.8-1.6c-1 0-2 .4-2.5 1-.5-.6-1.2-1-2.2-1-1 0-1.6.3-2.1.8v-.6h-1.9V77h2v-4.3c0-1 .6-1.5 1.4-1.5.8 0 1.3.6 1.3 1.5V77h2v-4.4c0-.8.6-1.4 1.4-1.4.8 0 1.3.6 1.3 1.5V77h2v-4.6c0-1.8-1-3-2.7-3Zm11.7 3.5c0-2-1.5-3.5-3.5-3.5a3.8 3.8 0 0 0-4 3.9c0 2.2 1.8 3.9 4.1 3.9 1.2 0 2.2-.4 3-1.1l-.8-1.4c-.6.5-1.3.7-2.1.7-1 0-1.8-.5-2-1.4h5.1l.2-1.1Zm-3.6-1.9c.8 0 1.6.6 1.6 1.5h-3.4c.2-.9 1-1.5 1.8-1.5Zm9.2-1.6a3 3 0 0 0-2.2.8v-.6h-1.9V77h2v-4.3c0-.9.6-1.5 1.5-1.5.8 0 1.3.6 1.3 1.5V77h2v-4.6c0-1.8-1-3-2.7-3Zm8.5 6c-1 0-1.4-.3-1.4-1.2v-3h2.1v-1.6h-2v-1.9h-2v1.9h-1.3v1.7h1.2v3c0 2 1.2 2.9 3 2.9.5 0 1 0 1.4-.2v-1.7h-1ZM683.1 455h6.4v-1.8h-4.3V445h-2v9.9Zm11.3.2a4 4 0 0 0 4-4 4 4 0 0 0-4-3.8 3.9 3.9 0 1 0 0 7.8Zm0-1.9c-1.1 0-2-.8-2-2s.9-2 2-2c1 0 1.9.8 1.9 2 0 1.1-.8 2-2 2Zm14.8-5.7-1.7 4.1-2-4.3h-.8l-2 4.4-1.7-4.2h-2.2l3.5 7.6h.6l2.2-4.3 2.1 4.3h.7l3.4-7.6h-2.1Zm16 7.4-2.8-3.9a3 3 0 0 0 1.7-2.8c0-2-1.4-3.2-3.5-3.2h-3.8v9.9h2v-3.5h1.6l2.5 3.5h2.3Zm-6.3-8.1h1.7c1 0 1.5.6 1.5 1.4 0 .8-.6 1.4-1.5 1.4h-1.7V447Zm14.1 4c0-2-1.4-3.5-3.4-3.5a3.8 3.8 0 0 0-4 3.9c0 2.2 1.8 3.9 4.1 3.9 1.2 0 2.2-.4 3-1.1l-.8-1.4c-.6.5-1.3.7-2.1.7-1 0-1.9-.5-2-1.4h5.1l.1-1.1Zm-3.5-1.9c.8 0 1.6.6 1.6 1.5h-3.4c.2-.9 1-1.5 1.8-1.5Zm7.5 6.2c1.6 0 3-.9 3-2.4 0-1.1-.8-1.7-2.2-2.3l-.7-.3c-.5-.2-.8-.3-.8-.6 0-.4.4-.5.8-.5.6 0 1.2.2 1.7.7l1-1.3a3.4 3.4 0 0 0-2.7-1c-1.5 0-2.7.7-2.7 2.1 0 1.2.8 1.8 2 2.3l.8.3c.5.2.8.4.8.7 0 .4-.4.6-1 .6a3 3 0 0 1-2-1l-1 1.2c.6 1 1.7 1.5 3 1.5Zm5.5-9c.7 0 1.3-.6 1.3-1.3 0-.7-.6-1.3-1.3-1.3-.8 0-1.3.6-1.3 1.3 0 .7.5 1.2 1.3 1.2Zm-1 8.8h2v-7.4h-2v7.4Zm9.6-7.4v.9c-.5-.7-1.4-1-2.5-1-2 0-3.5 1.4-3.5 3.6s1.5 3.7 3.5 3.7a3 3 0 0 0 2.3-1v.5c0 1.2-.8 1.8-2 1.8-1 0-1.6-.4-2.4-1l-1 1.4c.8.8 2 1.4 3.6 1.4 2.2 0 3.8-1.2 3.8-3.7v-6.6h-1.8Zm-2 5.5c-1 0-2-.8-2-2 0-1.3 1-2 2-2 .9 0 1.8.6 1.8 2 0 1.3-.9 2-1.8 2Zm9.9-5.7a3 3 0 0 0-2.2.9v-.7h-1.9v7.4h2v-4.3c0-.9.7-1.5 1.5-1.5s1.4.6 1.4 1.5v4.3h2v-4.6c0-1.8-1-3-2.8-3Zm7.8 0a4 4 0 0 0-3.3 1.5l1 1.3c.7-.7 1.2-1 2-1 1 0 1.4.5 1.4 1.3v.3h-1.8c-1.8 0-2.8.8-2.8 2.2 0 1.2.9 2.2 2.5 2.2a3 3 0 0 0 2.3-1v.8h1.8v-4.4c0-2.1-1.2-3.2-3.1-3.2Zm-.4 6.3c-.7 0-1.1-.3-1.1-.8s.4-.8 1-.8h1.6v.1c0 .9-.7 1.5-1.5 1.5Zm9.3-.3c-1 0-1.4-.3-1.4-1.2v-3h2.1v-1.6h-2v-1.9h-2.1v1.9h-1.2v1.7h1.2v3c0 2 1.1 2.9 3 2.9.5 0 1 0 1.4-.2v-1.7h-1Zm3.4-7.3c.8 0 1.3-.5 1.3-1.2s-.5-1.3-1.3-1.3c-.7 0-1.3.6-1.3 1.3 0 .7.6 1.2 1.3 1.2Zm-1 8.9h2v-7.4h-2v7.4Zm7.6.2a4 4 0 0 0 4-4 4 4 0 0 0-4-3.8 3.9 3.9 0 1 0 0 7.8Zm0-1.9c-1.1 0-2-.8-2-2s.9-2 2-2 2 .8 2 2c0 1.1-.9 2-2 2Zm9.6-5.9a3 3 0 0 0-2.2.9v-.7h-1.8v7.4h2v-4.3c0-.9.6-1.5 1.4-1.5.8 0 1.4.6 1.4 1.5v4.3h2v-4.6c0-1.8-1-3-2.8-3Zm4.7 10.3h1.6l.8-4.5h-2.3v4.5Zm8.6-2.7h6.4v-1.8h-4.4V445h-2v9.9Zm11.2.2a4 4 0 0 0 4-4 4 4 0 0 0-4-3.8 3.9 3.9 0 1 0 0 7.8Zm0-1.9c-1 0-1.9-.8-1.9-2s.8-2 2-2c1 0 1.9.8 1.9 2 0 1.1-.9 2-2 2Zm14.8-5.7-1.7 4.1-2-4.3h-.7l-2 4.4-1.8-4.2h-2.1l3.4 7.6h.7l2.1-4.3 2.2 4.3h.6l3.5-7.6h-2.2ZM848 455h2.1l-4.4-10h-.7l-4.4 10h2.2l.5-1.3h4.1l.6 1.3Zm-1.3-3H844l1.3-3.3 1.3 3.3Zm8 3.2c1.4 0 2.5-.8 3.2-1.9l-1.4-1c-.5.6-1 1-1.8 1-1.2 0-2-.9-2-2 0-1.2.8-2 2-2 .8 0 1.3.4 1.8 1l1.4-1a3.5 3.5 0 0 0-3.3-1.9c-2.2 0-4 1.7-4 3.9s1.8 3.9 4 3.9Zm8.7-7.8c-.8 0-1.5.3-2 .8v-4.4h-2V455h2v-4.3c0-.9.6-1.5 1.4-1.5.8 0 1.4.6 1.4 1.5v4.3h2v-4.6c0-1.8-1-3-2.8-3Zm5.7-1.3c.8 0 1.3-.5 1.3-1.2s-.5-1.3-1.3-1.3c-.7 0-1.3.6-1.3 1.3 0 .7.6 1.2 1.3 1.2Zm-1 8.9h2v-7.4h-2v7.4Zm11-4.1c0-2-1.4-3.5-3.5-3.5a3.8 3.8 0 0 0-3.9 3.9c0 2.2 1.8 3.9 4.1 3.9 1.1 0 2.1-.4 3-1.1l-.9-1.4c-.6.5-1.2.7-2 .7-1.1 0-1.9-.5-2.1-1.4h5.2l.1-1.1Zm-3.6-1.9c.9 0 1.6.6 1.7 1.5h-3.4c.2-.9.9-1.5 1.8-1.5Zm10-1.4-2 4.2-1.8-4.2h-2.1l3.7 7.6h.6l3.7-7.6h-2.1Zm10 3.3c0-2-1.5-3.5-3.5-3.5a3.8 3.8 0 0 0-4 3.9c0 2.2 1.8 3.9 4.1 3.9 1.2 0 2.2-.4 3-1.1l-.8-1.4c-.6.5-1.3.7-2.1.7-1 0-1.8-.5-2-1.4h5.1l.2-1.1Zm-3.6-1.9c.8 0 1.6.6 1.6 1.5H890c.2-.9 1-1.5 1.8-1.5Zm13.8-1.6c-1 0-2 .4-2.5 1-.5-.6-1.2-1-2.2-1-.9 0-1.6.3-2.1.8v-.6H897v7.4h2v-4.3c0-.9.6-1.5 1.4-1.5.8 0 1.3.6 1.3 1.5v4.3h2v-4.4c0-.8.6-1.4 1.4-1.4.8 0 1.4.6 1.4 1.5v4.3h2v-4.6c0-1.8-1-3-2.8-3Zm11.7 3.5c0-2-1.4-3.5-3.5-3.5a3.8 3.8 0 0 0-4 3.9c0 2.2 1.8 3.9 4.2 3.9 1 0 2-.4 3-1.1l-1-1.4c-.5.5-1.2.7-2 .7-1 0-1.8-.5-2-1.4h5.1l.2-1.1Zm-3.6-1.9c.9 0 1.6.6 1.6 1.5H912c.3-.9 1-1.5 1.8-1.5Zm9.2-1.6a3 3 0 0 0-2.2.9v-.7H919v7.4h2v-4.3c0-.9.7-1.5 1.5-1.5s1.4.6 1.4 1.5v4.3h2v-4.6c0-1.8-1-3-2.8-3Zm8.5 6c-.9 0-1.3-.3-1.3-1.2v-3h2v-1.6h-2v-1.9h-2v1.9H927v1.7h1.1v3c0 2 1.2 2.9 3 2.9.5 0 1 0 1.4-.2v-1.7h-1Z" fill="#1E293B"/><circle cx="660" cy="184" r="13" fill="#64748B"/><circle cx="771" cy="288" r="13" fill="#64748B"/><path d="M678.7 188.2c1.7 0 3-1 3-2.6 0-1.2-.8-2-2.1-2.5l-1-.5c-.6-.2-1-.4-1-1 0-.5.5-.8 1-.8.8 0 1.3.4 1.7 1l1.2-1a3 3 0 0 0-2.8-1.5c-1.6 0-2.9 1-2.9 2.4 0 1.2 1 2 2.1 2.5l1 .4c.6.3 1 .5 1 1 0 .6-.4 1-1.2 1-1 0-1.6-.6-2.1-1.3l-1.2 1a3.7 3.7 0 0 0 3.3 1.9Zm7-6.8c-1 0-2 .5-2.7 1.3l.9 1.1c.5-.5 1-.9 1.7-.9.8 0 1.2.5 1.2 1.2v.3h-1.6c-1.5 0-2.5.7-2.5 1.8s.8 2 2.3 2c.8 0 1.5-.3 2-.8v.6h1.5v-3.8c0-1.9-1-2.8-2.7-2.8Zm-.3 5.5c-.5 0-.9-.3-.9-.7 0-.5.3-.7.9-.7h1.4c0 .8-.6 1.4-1.4 1.4Zm4.8 1.1h1.8v-9.8h-1.8v9.8Zm9.5-3.6a3 3 0 0 0-3-3 3.3 3.3 0 0 0-3.4 3.4c0 1.9 1.5 3.4 3.6 3.4a4 4 0 0 0 2.5-1l-.7-1.2c-.5.4-1 .6-1.8.6-1 0-1.6-.4-1.8-1.2h4.5l.1-1Zm-3-1.6c.7 0 1.3.5 1.3 1.3h-2.9c.2-.8.8-1.3 1.5-1.3Zm6.5 5.4c1.4 0 2.5-.8 2.5-2.1 0-1-.7-1.5-1.8-2l-.6-.2c-.5-.2-.7-.3-.7-.6s.3-.4.7-.4c.5 0 1 .2 1.4.6l1-1.1a3 3 0 0 0-2.4-1c-1.4 0-2.4.7-2.4 2 0 1 .7 1.5 1.8 2l.7.2c.4.2.6.3.6.6s-.3.5-.8.5c-.7 0-1.3-.3-1.8-.9l-.9 1.1c.6.8 1.5 1.3 2.7 1.3ZM787 292h6v-1.6h-4.3v-2.2h3v-1.5h-3V285h4v-1.6H787v8.6Zm6.8-3.4h3.3V287h-3.3v1.5Zm8.9 3.6c1.7 0 3-.9 3.8-2.2l-1.3-1c-.6 1-1.4 1.5-2.5 1.5a2.7 2.7 0 0 1-2.8-2.8c0-1.6 1.2-2.8 2.8-2.8 1 0 1.9.5 2.5 1.4l1.3-.9a4.3 4.3 0 0 0-3.8-2.1 4.4 4.4 0 1 0 0 8.9Zm8.1 0c2 0 3.5-1.6 3.5-3.4 0-1.9-1.6-3.4-3.5-3.4a3.4 3.4 0 1 0 0 6.7Zm0-1.7c-1 0-1.6-.7-1.6-1.7s.7-1.8 1.6-1.8c1 0 1.7.8 1.7 1.8s-.7 1.7-1.7 1.7Zm12.3-5c-.9 0-1.6.3-2.1.8-.4-.5-1-.9-2-.9-.7 0-1.3.3-1.7.7v-.5h-1.6v6.4h1.7v-3.7c0-.8.5-1.3 1.2-1.3s1.1.5 1.1 1.3v3.7h1.8v-3.8c0-.7.5-1.2 1.2-1.2s1.1.5 1.1 1.3v3.7h1.8v-4c0-1.5-1-2.6-2.5-2.6Zm11.6 0c-.9 0-1.6.3-2.1.8-.4-.5-1-.9-2-.9-.7 0-1.3.3-1.7.7v-.5h-1.7v6.4h1.8v-3.7c0-.8.5-1.3 1.2-1.3s1.1.5 1.1 1.3v3.7h1.8v-3.8c0-.7.5-1.2 1.2-1.2s1.1.5 1.1 1.3v3.7h1.8v-4c0-1.5-1-2.6-2.5-2.6Zm10.2 3a3 3 0 0 0-3-3 3.3 3.3 0 0 0-3.4 3.3c0 1.9 1.5 3.4 3.5 3.4a4 4 0 0 0 2.6-1l-.8-1.2c-.5.4-1 .6-1.8.6-.9 0-1.6-.4-1.8-1.2h4.5l.2-1Zm-3.1-1.7c.7 0 1.3.5 1.4 1.3h-3c.2-.8.8-1.3 1.6-1.3Zm7.8-1.3c-.7 0-1.3.3-1.8.8v-.7h-1.6v6.4h1.8v-3.2c0-1.2.7-1.7 1.7-1.7h.5v-1.5l-.6-.1Zm4.6 6.7c1.3 0 2.3-.7 2.8-1.6l-1.2-1c-.4.6-.8 1-1.5 1-1 0-1.7-.8-1.7-1.8s.7-1.8 1.7-1.8c.7 0 1.1.4 1.5 1l1.2-1a3 3 0 0 0-2.8-1.6c-1.9 0-3.4 1.5-3.4 3.4s1.5 3.4 3.4 3.4Zm10-3.8a3 3 0 0 0-3-3 3.3 3.3 0 0 0-3.4 3.4c0 1.9 1.5 3.4 3.6 3.4a4 4 0 0 0 2.5-1l-.7-1.2c-.5.4-1 .6-1.8.6-1 0-1.6-.4-1.8-1.2h4.5l.1-1Zm-3-1.6c.7 0 1.3.5 1.3 1.3h-2.9c.2-.8.8-1.3 1.5-1.3Z" fill="#1E293B"/></svg>