<svg xmlns="http://www.w3.org/2000/svg" fill="none" viewBox="0 0 738 420"><g filter="url(#a)"><rect width="728" height="410" x="1" y="1" fill="#fff" stroke="#E2E8F0" stroke-width="2" rx="11"/><g clip-path="url(#b)"><path fill="#fff" d="M242 114H1611V289H242z"/><path fill="#F1F5F9" d="m248.5 112 1.4 1.4-113.8 113.9-65 65-1.5-1.4 179-178.9Z"/><path fill="#F1F5F9" d="M258.8 112H260.8V365H258.8z" transform="rotate(45 258.8 112)"/><path fill="#F1F5F9" d="M269.1 112H271.1V365H269.1z" transform="rotate(45 269.1 112)"/><path fill="#F1F5F9" d="M279.5 112H281.5V365H279.5z" transform="rotate(45 279.5 112)"/><path fill="#F1F5F9" d="m289.8 112 1.4 1.4-113.9 113.9-65 65-1.4-1.4L289.8 112ZM300 112l1.5 1.4-113.8 113.9-65.1 65-1.4-1.4L300 112ZM310.4 112l1.4 1.4L198 227.3l-65 65-1.5-1.4L310.4 112Z"/><path fill="#F1F5F9" d="M320.7 112H322.7V365H320.7z" transform="rotate(45 320.7 112)"/><path fill="#F1F5F9" d="M331 112H333V365H331z" transform="rotate(45 331 112)"/><path fill="#F1F5F9" d="M341.3 112H343.3V365H341.3z" transform="rotate(45 341.3 112)"/><path fill="#F1F5F9" d="m351.6 112 1.5 1.4-113.9 113.9-65 65-1.5-1.4 179-178.9ZM362 112l1.4 1.4-113.9 113.9-65 65-1.4-1.4L362 112ZM372.3 112l1.4 1.4-113.9 113.9-65 65-1.4-1.4L372.3 112Z"/><path fill="#F1F5F9" d="M382.6 112H384.6V365H382.6z" transform="rotate(45 382.6 112)"/><path fill="#F1F5F9" d="M392.9 112H394.9V365H392.9z" transform="rotate(45 392.9 112)"/><path fill="#F1F5F9" d="M403.2 112H405.2V365H403.2z" transform="rotate(45 403.2 112)"/><path fill="#F1F5F9" d="m413.5 112 1.4 1.4-113.8 113.9-65 65-1.5-1.4 179-178.9ZM423.8 112l1.4 1.4-113.8 113.9-65 65-1.5-1.4L424 112ZM434.1 112l1.5 1.4-113.9 113.9-65 65-1.5-1.4 179-178.9Z"/><path fill="#F1F5F9" d="M444.5 112H446.5V365H444.5z" transform="rotate(45 444.5 112)"/><path fill="#F1F5F9" d="M454.8 112H456.8V365H454.8z" transform="rotate(45 454.8 112)"/><path fill="#F1F5F9" d="M465.1 112H467.1V365H465.1z" transform="rotate(45 465 112)"/><path fill="#F1F5F9" d="m475.4 112 1.4 1.4L363 227.3l-65 65-1.5-1.4L475.4 112ZM485.7 112l1.4 1.4-113.8 113.9-65 65-1.5-1.4L485.7 112ZM496 112l1.4 1.4-113.8 113.9-65 65-1.5-1.4 179-178.9Z"/><path fill="#F1F5F9" d="M506.3 112H508.3V365H506.3z" transform="rotate(45 506.3 112)"/><path fill="#F1F5F9" d="M516.6 112H518.6V365H516.6z" transform="rotate(45 516.6 112)"/><path fill="#F1F5F9" d="M527 112H529V365H527z" transform="rotate(45 527 112)"/><path fill="#F1F5F9" d="m537.3 112 1.4 1.4-113.9 113.9-65 65-1.4-1.4L537.3 112ZM547.6 112l1.4 1.4L435 227.3l-65 65-1.4-1.4L547.6 112ZM557.9 112l1.4 1.4-113.8 113.9-65.1 65-1.4-1.4L557.9 112Z"/><path fill="#F1F5F9" d="M568.2 112H570.2V365H568.2z" transform="rotate(45 568.2 112)"/><path fill="#F1F5F9" d="M578.5 112H580.5V365H578.5z" transform="rotate(45 578.5 112)"/><path fill="#F1F5F9" d="M588.8 112H590.8V365H588.8z" transform="rotate(45 588.8 112)"/><path fill="#F1F5F9" d="m599.1 112 1.5 1.4-113.9 113.9-65 65-1.5-1.4 179-178.9ZM609.5 112l1.4 1.4L497 227.3l-65 65-1.4-1.4L609.5 112ZM619.8 112l1.4 1.4-113.9 113.9-65 65-1.4-1.4L619.8 112Z"/><path fill="#F1F5F9" d="M630.1 112H632.1V365H630.1z" transform="rotate(45 630 112)"/><path fill="#F1F5F9" d="M640.4 112H642.4V365H640.4z" transform="rotate(45 640.4 112)"/><path fill="#F1F5F9" d="M650.7 112H652.7V365H650.7z" transform="rotate(45 650.7 112)"/><path fill="#F1F5F9" d="m661 112 1.4 1.4-113.8 113.9-65 65-1.5-1.4 179-178.9ZM671.3 112l1.4 1.4L559 227.3l-65 65-1.5-1.4 179-178.9ZM681.6 112l1.4 1.4-113.8 113.9-65 65-1.5-1.4 179-178.9Z"/><path fill="#F1F5F9" d="M691.9 112H693.9V365H691.9z" transform="rotate(45 692 112)"/><path fill="#F1F5F9" d="M702.3 112H704.3V365H702.3z" transform="rotate(45 702.3 112)"/><path fill="#F1F5F9" d="M712.6 112H714.6V365H712.6z" transform="rotate(45 712.6 112)"/><path fill="#F1F5F9" d="m722.9 112 1.4 1.4-113.8 113.9-65.1 65-1.4-1.4L722.9 112ZM733.2 112l1.4 1.4-113.8 113.9-65 65-1.5-1.4L733.2 112ZM743.5 112l1.4 1.4-113.8 113.9-65 65-1.5-1.4 179-178.9Z"/><path fill="#F1F5F9" d="M753.8 112H755.8V365H753.8z" transform="rotate(45 753.8 112)"/><path fill="#F1F5F9" d="M764.1 112H766.1V365H764.1z" transform="rotate(45 764.1 112)"/><path fill="#F1F5F9" d="M774.4 112H776.4V365H774.4z" transform="rotate(45 774.4 112)"/><path fill="#F1F5F9" d="m784.8 112 1.4 1.4-113.9 113.9-65 65-1.4-1.4L784.8 112ZM795 112l1.5 1.4-113.9 113.9-65 65-1.4-1.4L795 112ZM805.4 112l1.4 1.4L693 227.3l-65.1 65-1.4-1.4L805.4 112Z"/><path fill="#F1F5F9" d="M815.7 112H817.7V365H815.7z" transform="rotate(45 815.7 112)"/><path fill="#F1F5F9" d="M826 112H828V365H826z" transform="rotate(45 826 112)"/><path fill="#F1F5F9" d="M836.3 112H838.3V365H836.3z" transform="rotate(45 836.3 112)"/><path fill="#F1F5F9" d="m846.6 112 1.4 1.4-113.8 113.9-65 65-1.5-1.4 179-178.9ZM857 112l1.4 1.4-113.9 113.9-65 65-1.5-1.4L857 112ZM867.3 112l1.4 1.4-113.9 113.9-65 65-1.4-1.4L867.3 112Z"/><path fill="#F1F5F9" d="M877.6 112H879.6V365H877.6z" transform="rotate(45 877.6 112)"/></g><path fill="#475569" d="M672.7 89.1a4.2 4.2 0 0 1-3.6-2 4 4 0 0 1-.6-2c0-.8.2-1.5.6-2.1a4.2 4.2 0 0 1 3.6-2 4.2 4.2 0 0 1 3.7 2c.3.6.5 1.3.5 2a4 4 0 0 1-2.1 3.6c-.6.4-1.3.5-2.1.5Zm0-1.5c.5 0 1 0 1.3-.3.4-.2.7-.5 1-.9.1-.4.3-.9.3-1.4 0-.5-.2-.9-.4-1.3s-.5-.7-.9-1c-.4-.2-.8-.3-1.3-.3s-1 .1-1.3.4c-.4.2-.7.5-.9.9-.2.4-.3.8-.3 1.3s0 1 .3 1.4a2.6 2.6 0 0 0 2.2 1.2Zm8.3 1.5c-.5 0-1 0-1.6-.4-.5-.2-.8-.6-1.1-1a3 3 0 0 1-.4-1.7 3 3 0 0 1 1.5-2.7 3.2 3.2 0 0 1 3.2 0c.4.3.8.6 1 1l-1.1 1-.6-.7-.8-.2c-.5 0-.9.2-1.2.5-.3.3-.4.7-.4 1.1 0 .5.1.9.4 1.2.3.3.7.5 1.2.5.3 0 .5-.1.8-.3l.6-.6 1.1.9A2.9 2.9 0 0 1 681 89Zm6.9-1.4h.7V89l-1 .1c-.8 0-1.4-.1-1.8-.5-.5-.4-.7-1-.7-1.7v-2.5h-.9v-1.3h1v-1.5h1.6V83h1.6v1.3h-1.6v2.4c0 .3 0 .5.2.7l.9.2Zm-21.2 15v1.3H661v-.3l2.8-3.1.9-1.1c.2-.3.2-.6.2-.9 0-.3 0-.6-.3-.8a1 1 0 0 0-.8-.4 1 1 0 0 0-.8.4c-.2.2-.3.5-.3.8v.6h-1.5a2.7 2.7 0 0 1 .2-2l1-.9c.4-.2 1-.4 1.5-.4s1 .1 1.4.4c.4.2.7.5 1 .9.2.4.3.8.3 1.3s-.1 1-.4 1.5c-.3.4-.7 1-1.3 1.5l-1 1.1h3Zm4.5 1.4c-.7 0-1.3-.1-1.8-.5-.4-.4-.8-.9-1-1.5-.2-.6-.4-1.3-.4-2.1 0-1.2.3-2.2.8-3 .6-.7 1.4-1 2.4-1s1.8.3 2.3 1c.5.8.8 1.8.8 3 0 .8-.1 1.5-.3 2.1-.3.6-.6 1.1-1 1.5-.6.4-1.1.5-1.8.5Zm0-1.5c1 0 1.4-.8 1.4-2.6a4 4 0 0 0-.3-2c-.2-.3-.6-.6-1.1-.6-.5 0-1 .3-1.1.7-.3.4-.4 1-.4 1.9 0 1.8.5 2.6 1.5 2.6Zm10.2 0v1.4h-5.9v-.3l2.9-3.1.8-1.1.3-.9c0-.3-.1-.6-.3-.8a1 1 0 0 0-.8-.4 1 1 0 0 0-.8.4c-.2.2-.3.5-.3.8v.6h-1.6a2.7 2.7 0 0 1 .2-2l1-.9c.4-.2 1-.4 1.5-.4s1 .1 1.4.4c.4.2.7.5 1 .9.2.4.3.8.3 1.3s-.1 1-.4 1.5c-.3.4-.7 1-1.3 1.5l-1 1.1h3Zm7 0v1.4h-5.9v-.3l2.9-3.1.8-1.1.3-.9c0-.3-.1-.6-.3-.8a1 1 0 0 0-.8-.4 1 1 0 0 0-.8.4c-.2.2-.3.5-.3.8v.6h-1.6a2.7 2.7 0 0 1 .2-2l1-.9c.4-.2 1-.4 1.5-.4s1 .1 1.4.4c.4.2.8.5 1 .9.2.4.3.8.3 1.3s-.1 1-.4 1.5c-.3.4-.7 1-1.3 1.5l-1 1.1h3ZM657.8 245.4v8.6h-1v-7.4l-1.9.6-.2-.9 2.7-.9h.4Zm3.2 8.7c-.2 0-.4 0-.6-.2a.8.8 0 0 1-.2-.6.8.8 0 0 1 .8-.8c.2 0 .4 0 .6.2.2.2.2.4.2.6 0 .3 0 .5-.2.6-.2.2-.4.2-.6.2Zm5.4-5.5c.6 0 1 .1 1.5.3a2.4 2.4 0 0 1 1.5 2.4c0 .6-.2 1-.5 1.5-.2.4-.6.8-1 1-.5.2-1 .3-1.6.3-.7 0-1.3-.1-1.8-.5-.5-.3-.9-.7-1.1-1.2l.7-.5c.2.4.5.7.9 1 .4.2.8.3 1.3.3.6 0 1-.2 1.4-.5.4-.4.6-.8.6-1.4 0-.6-.2-1-.6-1.3-.3-.3-.9-.5-1.6-.5h-2v-4h4.8v.8h-3.7v2.4h1.2Zm7.7 5.5c-1 0-1.9-.4-2.4-1.2-.5-.9-.8-2-.8-3.3 0-1.3.3-2.3.8-3.1.5-.8 1.3-1.2 2.4-1.2 1 0 1.8.4 2.3 1.2.5.8.8 1.8.8 3.1s-.3 2.4-.8 3.3c-.5.8-1.3 1.2-2.3 1.2Zm0-.9c.7 0 1.2-.3 1.5-1 .4-.6.5-1.5.5-2.6 0-1-.1-1.9-.5-2.5-.3-.6-.8-.9-1.5-.9-.8 0-1.3.3-1.6 1-.4.5-.5 1.4-.5 2.4 0 1.1.1 2 .5 2.6.3.7.8 1 1.6 1Zm7-3.7a2.2 2.2 0 0 1-1.8-1 2 2 0 0 1-.4-1.1c0-.4.1-.8.3-1 .2-.4.4-.7.8-.8a2.1 2.1 0 0 1 2.1 0 2 2 0 0 1 1 1.8 2 2 0 0 1-1 1.8c-.3.2-.7.3-1 .3Zm4.4-4h1l-5 8.5h-.9l5-8.6Zm-4.5 3.2c.4 0 .7-.1 1-.4.2-.2.3-.5.3-1 0-.3 0-.6-.3-.9-.3-.3-.6-.4-1-.4-.3 0-.6.1-.9.4-.2.3-.3.6-.3 1s0 .7.3 1c.3.2.6.3 1 .3Zm5 5.4c-.4 0-.7 0-1-.2-.4-.2-.6-.5-.8-.8-.2-.3-.3-.7-.3-1a2 2 0 0 1 1-1.9 2 2 0 0 1 1.1-.3c.4 0 .7.1 1 .3a2 2 0 0 1 1.1 1.8 2 2 0 0 1-1 1.9l-1 .2Zm0-.7c.4 0 .7-.2 1-.4.2-.3.3-.6.3-1s-.1-.7-.4-1c-.2-.2-.5-.3-.9-.3-.3 0-.7.1-.9.4-.2.2-.4.5-.4 1 0 .3.2.6.4.9.2.3.6.4 1 .4ZM679 217.7c.6 0 1 .1 1.5.4.4.2.7.6 1 1 .2.4.4.9.4 1.4a2.8 2.8 0 0 1-3 2.9 3 3 0 0 1-2.5-1.4c-.2-.5-.4-1-.4-1.5l.3-1.2a10.2 10.2 0 0 1 1-1.5l2-3.1h1.2l-2.1 3.1.7-.1Zm0 4.8a1.9 1.9 0 0 0 1.6-1 2 2 0 0 0 0-2l-.7-.7c-.3-.2-.6-.2-1-.2a1.9 1.9 0 0 0-1.6 1 2 2 0 0 0 0 2 2 2 0 0 0 1.6.9Zm7.3-4.6c.5 0 .9.2 1.3.4a2.4 2.4 0 0 1 1.2 2.2 2.7 2.7 0 0 1-1.5 2.5 3.3 3.3 0 0 1-4.4-1.4l.7-.5 1 1c.3.2.7.4 1.2.4.6 0 1-.2 1.4-.6.4-.3.6-.8.6-1.4 0-.5-.2-1-.6-1.3-.4-.3-.9-.4-1.6-.4h-.8v-.3l2.2-2.9h-3.5v-1h5.1v.4l-2.3 2.9ZM685 193.7c-1 0-1.8-.4-2.4-1.3-.5-.8-.7-2-.7-3.2 0-1.3.2-2.4.8-3.2.5-.8 1.3-1.2 2.3-1.2 1 0 1.8.4 2.3 1.2.6.8.8 1.9.8 3.2 0 1.3-.2 2.4-.7 3.2-.6.9-1.3 1.3-2.4 1.3Zm0-1c.7 0 1.3-.3 1.6-1 .3-.6.5-1.4.5-2.5 0-1-.2-2-.5-2.5-.3-.6-.9-1-1.6-1-.7 0-1.3.4-1.6 1-.3.6-.5 1.4-.5 2.5 0 1 .2 2 .5 2.6.4.6.9 1 1.6 1ZM654.7 164.1c-1 0-1.9-.4-2.4-1.2-.5-.9-.8-2-.8-3.3 0-1.3.3-2.3.8-3.1.6-.8 1.3-1.2 2.4-1.2 1 0 1.8.4 2.3 1.2.5.8.8 1.8.8 3.1s-.3 2.4-.8 3.3c-.5.8-1.3 1.2-2.3 1.2Zm0-.9c.7 0 1.2-.3 1.5-1 .4-.6.6-1.5.6-2.6 0-1-.2-1.9-.5-2.5-.4-.6-.9-.9-1.6-.9-.8 0-1.3.3-1.6 1-.4.5-.5 1.4-.5 2.4 0 1.1.2 2 .5 2.6.3.7.9 1 1.6 1Zm5.7 1c-.3 0-.5-.1-.6-.3a.8.8 0 0 1-.3-.6.8.8 0 0 1 .9-.8c.2 0 .4 0 .5.2l.3.6c0 .3-.1.5-.3.6-.1.2-.3.2-.5.2Zm5.7 0c-1 0-1.9-.5-2.4-1.3-.5-.9-.8-2-.8-3.3 0-1.3.3-2.3.8-3.1.5-.8 1.3-1.2 2.4-1.2 1 0 1.8.4 2.3 1.2.5.8.8 1.8.8 3.1s-.3 2.4-.8 3.3c-.5.8-1.3 1.2-2.3 1.2Zm0-1c.7 0 1.2-.3 1.5-1 .4-.6.5-1.5.5-2.6 0-1-.1-1.9-.4-2.5-.4-.6-1-.9-1.6-.9-.8 0-1.3.3-1.6 1-.4.5-.5 1.4-.5 2.4 0 1.1.1 2 .5 2.6.3.7.8 1 1.6 1Zm8 1c-1 0-1.9-.5-2.4-1.3-.5-.9-.8-2-.8-3.3 0-1.3.3-2.3.8-3.1.5-.8 1.3-1.2 2.4-1.2 1 0 1.8.4 2.3 1.2.5.8.8 1.8.8 3.1s-.3 2.4-.8 3.3c-.5.8-1.3 1.2-2.3 1.2Zm0-1c.7 0 1.2-.3 1.5-1 .4-.6.5-1.5.5-2.6 0-1-.1-1.9-.5-2.5-.3-.6-.8-.9-1.5-.9-.8 0-1.3.3-1.6 1-.4.5-.5 1.4-.5 2.4 0 1.1.1 2 .5 2.6.3.7.8 1 1.6 1Zm7-3.7a2.2 2.2 0 0 1-1.8-1 2 2 0 0 1-.4-1.1c0-.4.1-.8.3-1 .2-.4.4-.7.8-.8a2.1 2.1 0 0 1 2.1 0 2 2 0 0 1 1 1.8 2 2 0 0 1-1 1.8c-.3.2-.7.3-1 .3Zm4.4-4h1l-5 8.5h-.9l5-8.6Zm-4.5 3.2c.4 0 .7-.1 1-.4.2-.2.3-.5.3-1 0-.3 0-.6-.3-.9-.3-.3-.6-.4-1-.4-.3 0-.6.1-.9.4-.2.3-.3.6-.3 1s0 .7.3 1c.3.2.6.3 1 .3Zm5 5.4c-.4 0-.7 0-1-.2-.4-.2-.6-.5-.8-.8-.2-.3-.3-.7-.3-1a2 2 0 0 1 1-1.9 2 2 0 0 1 1.1-.3c.4 0 .7.1 1 .3a2 2 0 0 1 1.1 1.8 2 2 0 0 1-1 1.9l-1 .2Zm0-.7c.4 0 .7-.2 1-.4.2-.3.3-.6.3-1s-.1-.7-.4-1c-.2-.2-.5-.3-.9-.3-.3 0-.7.1-.9.4-.2.2-.4.5-.4 1 0 .3.2.6.4.9.2.3.6.4 1 .4ZM662 131.9h-1.3v1.6h-1v-1.6h-4.3v-.3l2.8-6.7h1l-2.5 6h3v-2.8h1v2.9h1.2v.9Zm2.3 1.7c-.2 0-.4 0-.6-.2a.8.8 0 0 1-.2-.6.8.8 0 0 1 .8-.8c.2 0 .4 0 .6.2l.2.6c0 .2 0 .4-.2.6l-.6.2Zm5.6-5.5c.4 0 .9.2 1.2.4a2.4 2.4 0 0 1 1.3 2.2 2.7 2.7 0 0 1-1.5 2.6 3.3 3.3 0 0 1-4.4-1.5l.7-.5c.2.4.6.8 1 1 .3.2.7.4 1.2.4s1-.2 1.4-.6c.4-.3.6-.8.6-1.3 0-.6-.2-1-.6-1.3-.4-.4-1-.5-1.6-.5h-.9v-.3l2.3-2.9H667v-1h5.2v.4l-2.3 2.9Zm8 .9c1.3.5 2 1.2 2 2.3 0 .4-.2.8-.4 1.2-.2.3-.6.6-1 .8a4 4 0 0 1-1.6.3c-.6 0-1.2 0-1.6-.3-.5-.2-.8-.5-1-.8a2 2 0 0 1-.5-1.2c0-1 .7-1.8 2-2.3l-1.1-.9c-.3-.3-.5-.7-.5-1.2 0-.7.3-1.2.8-1.6a3 3 0 0 1 1.9-.6 3 3 0 0 1 1.8.6c.5.4.8.9.8 1.6 0 .9-.6 1.6-1.7 2Zm-2.7-2c0 .3.2.6.4.8.3.2.7.5 1.3.7.5-.2 1-.4 1.2-.7.2-.2.4-.5.4-.9s-.2-.7-.5-1c-.3-.2-.7-.3-1.1-.3-.5 0-.9.1-1.2.4-.3.2-.5.5-.5 1Zm1.7 5.7c.6 0 1-.1 1.4-.4.4-.2.5-.6.5-1 0-.5-.1-.9-.5-1.1-.3-.3-.8-.5-1.4-.8-.7.3-1.2.5-1.5.8-.4.2-.5.6-.5 1 0 .5.1.9.5 1.1.3.3.8.4 1.5.4Zm5-7.8h1v8.6h-1v-8.6Zm6.6 8.6h-1.3l-4.3-4.6 3.9-4h1.3l-3.8 4 4.2 4.6ZM605.3 89.1c-.6 0-1.2-.1-1.8-.4-.5-.3-1-.8-1.2-1.3l1-.8 1 .8c.2.2.6.3 1 .3s.7 0 .9-.2c.2-.2.3-.4.3-.7 0-.2-.1-.4-.3-.5l-.7-.5-.9-.3c-.6-.3-1-.6-1.4-1a2 2 0 0 1 .8-3.3c.4-.2.8-.3 1.3-.3a2.9 2.9 0 0 1 2.6 1.5l-1 .9c-.5-.6-1-1-1.6-1-.3 0-.5.1-.7.3-.2.1-.3.3-.3.5 0 .3.1.4.2.5l.8.5.9.4c.6.2 1.1.6 1.4 1 .4.3.5.7.5 1.3a2.2 2.2 0 0 1-1.3 2l-1.5.3Zm9.7-3.4-.1.9h-4.2c.1.4.3.6.6.9.3.2.7.3 1 .3.7 0 1.2-.2 1.7-.6l.7 1a3.6 3.6 0 0 1-4 .5A3 3 0 0 1 609 86a3 3 0 0 1 1.5-2.7 3.2 3.2 0 0 1 3 0c.5.2.8.6 1 1 .3.4.4.9.4 1.4Zm-2.9-1.5c-.3 0-.6.1-.9.4l-.5.8h2.7c0-.3-.1-.6-.4-.8-.2-.3-.5-.4-.9-.4Zm7.6-1.3c.5 0 1 .2 1.4.4.5.3.8.7 1 1.1.3.5.4 1 .4 1.6 0 .6 0 1.1-.3 1.6s-.6.9-1 1.1c-.5.3-1 .4-1.5.4l-1-.1c-.3-.2-.6-.3-.8-.6v2.8h-1.6V83h1.4v.7c.2-.3.5-.5.8-.6.4-.2.7-.3 1.2-.3Zm-.3 4.8c.4 0 .7-.2 1-.5.3-.3.5-.7.5-1.2s-.2-.9-.5-1.2c-.2-.3-.6-.4-1-.4-.5 0-.8.1-1.1.4-.3.3-.4.7-.4 1.2 0 .6.1 1 .4 1.2.3.3.6.5 1 .5Zm-18.7 15v1.3H595v-.3l2.8-3.1.9-1.1c.2-.3.2-.6.2-.9 0-.3 0-.6-.3-.8a1 1 0 0 0-.8-.4 1 1 0 0 0-.8.4c-.2.2-.3.5-.3.8v.6h-1.5a2.7 2.7 0 0 1 .2-2l1-.9c.4-.2 1-.4 1.5-.4s1 .1 1.4.4c.4.2.7.5 1 .9.2.4.3.8.3 1.3s-.1 1-.4 1.5c-.3.4-.7 1-1.3 1.5l-1 1.1h3Zm4.5 1.4c-.7 0-1.3-.1-1.8-.5-.4-.4-.8-.9-1-1.5-.2-.6-.4-1.3-.4-2.1 0-1.2.3-2.2.8-3 .6-.7 1.4-1 2.4-1s1.8.3 2.3 1c.5.8.8 1.8.8 3 0 .8-.1 1.5-.3 2.1-.3.6-.6 1.1-1 1.5-.6.4-1.1.5-1.8.5Zm0-1.5c1 0 1.4-.8 1.4-2.6a4 4 0 0 0-.3-2c-.2-.3-.6-.6-1.1-.6-.5 0-1 .3-1.1.7-.3.4-.4 1-.4 1.9 0 1.8.5 2.6 1.5 2.6Zm10.2 0v1.4h-5.9v-.3l2.9-3.1.8-1.1.3-.9c0-.3-.1-.6-.3-.8a1 1 0 0 0-.8-.4 1 1 0 0 0-.8.4c-.2.2-.3.5-.3.8v.6h-1.6a2.7 2.7 0 0 1 .2-2l1-.9c.4-.2 1-.4 1.5-.4s1 .1 1.4.4c.4.2.7.5 1 .9.2.4.3.8.3 1.3s-.1 1-.4 1.5c-.3.4-.7 1-1.3 1.5l-1 1.1h3Zm7 0v1.4h-5.9v-.3l2.9-3.1.8-1.1.3-.9c0-.3-.1-.6-.3-.8a1 1 0 0 0-.8-.4 1 1 0 0 0-.8.4c-.2.2-.3.5-.3.8v.6h-1.6a2.7 2.7 0 0 1 .2-2l1-.9c.4-.2 1-.4 1.5-.4s1 .1 1.4.4c.4.2.8.5 1 .9.2.4.3.8.3 1.3s-.1 1-.4 1.5c-.3.4-.7 1-1.3 1.5l-1 1.1h3ZM591.1 245.4v8.6h-1v-7.4l-1.8.6-.3-.9 2.8-.9h.3Zm3.3 8.7c-.3 0-.5 0-.6-.2a.8.8 0 0 1-.3-.6.8.8 0 0 1 .9-.8c.2 0 .4 0 .5.2l.3.6c0 .3-.1.5-.3.6-.1.2-.3.2-.5.2Zm5.7 0c-1 0-1.9-.4-2.4-1.2-.5-.9-.8-2-.8-3.3 0-1.3.3-2.3.8-3.1.5-.8 1.3-1.2 2.4-1.2 1 0 1.8.4 2.3 1.2.5.8.8 1.8.8 3.1s-.3 2.4-.8 3.3c-.5.8-1.3 1.2-2.3 1.2Zm0-.9c.7 0 1.2-.3 1.5-1 .4-.6.5-1.5.5-2.6 0-1-.1-1.9-.4-2.5-.4-.6-1-.9-1.6-.9-.8 0-1.3.3-1.6 1-.4.5-.5 1.4-.5 2.4 0 1.1.1 2 .5 2.6.3.7.8 1 1.6 1Zm8 1c-1 0-1.9-.5-2.4-1.3-.5-.9-.8-2-.8-3.3 0-1.3.3-2.3.8-3.1.5-.8 1.3-1.2 2.4-1.2 1 0 1.8.4 2.3 1.2.5.8.8 1.8.8 3.1s-.3 2.4-.8 3.3c-.5.8-1.3 1.2-2.3 1.2Zm0-1c.7 0 1.2-.3 1.5-1 .4-.6.5-1.5.5-2.6 0-1-.1-1.9-.5-2.5-.3-.6-.8-.9-1.5-.9-.8 0-1.3.3-1.6 1-.4.5-.5 1.4-.5 2.4 0 1.1.1 2 .5 2.6.3.7.8 1 1.6 1Zm7-3.7a2.2 2.2 0 0 1-1.8-1 2 2 0 0 1-.4-1.1c0-.4.1-.8.3-1 .2-.4.4-.7.8-.8a2.1 2.1 0 0 1 2.1 0 2 2 0 0 1 1 1.8 2 2 0 0 1-1 1.8c-.3.2-.7.3-1 .3Zm4.4-4h1l-5 8.5h-.9l5-8.6Zm-4.5 3.2c.4 0 .7-.1 1-.4.2-.2.3-.5.3-1 0-.3 0-.6-.3-.9-.3-.3-.6-.4-1-.4-.3 0-.6.1-.9.4-.2.3-.3.6-.3 1s0 .7.3 1c.3.2.6.3 1 .3Zm5 5.4c-.4 0-.7 0-1-.2-.4-.2-.6-.5-.8-.8-.2-.3-.3-.7-.3-1a2 2 0 0 1 1-1.9 2 2 0 0 1 1.1-.3c.4 0 .7.1 1 .3a2 2 0 0 1 1.1 1.8 2 2 0 0 1-1 1.9l-1 .2Zm0-.7c.4 0 .7-.2 1-.4.2-.3.3-.6.3-1s-.1-.7-.4-1c-.2-.2-.5-.3-.9-.3-.3 0-.7.1-.9.4-.2.2-.4.5-.4 1 0 .3.2.6.4.9.2.3.6.4 1 .4ZM616 221.7h-1.3v1.6h-1v-1.6h-4.3v-.3l2.8-6.7h1l-2.5 6h3V218h1v2.9h1.3v.9Zm6.8.6v1h-6v-.3l3.1-3.3 1.2-1.3.3-1.2c0-.5-.1-.9-.4-1.2-.3-.4-.7-.5-1.2-.5s-1 .1-1.3.5c-.3.3-.4.7-.4 1.2v.7h-1v-.7c0-.5 0-.9.2-1.3l1-1c.4-.2 1-.4 1.5-.4s1 .1 1.4.4c.4.2.7.5 1 1 .2.3.3.7.3 1.2l-.3 1.2c-.1.3-.3.7-.6 1l-1 1-1.8 2h4ZM619 193.7c-1 0-1.8-.4-2.4-1.3-.5-.8-.7-2-.7-3.2 0-1.3.2-2.4.8-3.2.5-.8 1.3-1.2 2.3-1.2 1 0 1.8.4 2.3 1.2.6.8.8 1.9.8 3.2 0 1.3-.2 2.4-.7 3.2-.6.9-1.3 1.3-2.4 1.3Zm0-1c.7 0 1.3-.3 1.6-1 .3-.6.5-1.4.5-2.5 0-1-.2-2-.5-2.5-.3-.6-.9-1-1.6-1-.7 0-1.3.4-1.6 1-.3.6-.5 1.4-.5 2.5 0 1 .2 2 .5 2.6.4.6.9 1 1.6 1ZM588.7 164.1c-1 0-1.9-.4-2.4-1.2-.5-.9-.8-2-.8-3.3 0-1.3.3-2.3.8-3.1.6-.8 1.3-1.2 2.4-1.2 1 0 1.8.4 2.3 1.2.5.8.8 1.8.8 3.1s-.3 2.4-.8 3.3c-.5.8-1.3 1.2-2.3 1.2Zm0-.9c.7 0 1.2-.3 1.5-1 .4-.6.6-1.5.6-2.6 0-1-.2-1.9-.5-2.5-.4-.6-.9-.9-1.6-.9-.8 0-1.3.3-1.6 1-.4.5-.5 1.4-.5 2.4 0 1.1.2 2 .5 2.6.3.7.9 1 1.6 1Zm5.7 1c-.3 0-.5-.1-.6-.3a.8.8 0 0 1-.3-.6.8.8 0 0 1 .9-.8c.2 0 .4 0 .5.2l.3.6c0 .3-.1.5-.3.6-.1.2-.3.2-.5.2Zm5.7 0c-1 0-1.9-.5-2.4-1.3-.5-.9-.8-2-.8-3.3 0-1.3.3-2.3.8-3.1.5-.8 1.3-1.2 2.4-1.2 1 0 1.8.4 2.3 1.2.5.8.8 1.8.8 3.1s-.3 2.4-.8 3.3c-.5.8-1.3 1.2-2.3 1.2Zm0-1c.7 0 1.2-.3 1.5-1 .4-.6.5-1.5.5-2.6 0-1-.1-1.9-.4-2.5-.4-.6-1-.9-1.6-.9-.8 0-1.3.3-1.6 1-.4.5-.5 1.4-.5 2.4 0 1.1.1 2 .5 2.6.3.7.8 1 1.6 1Zm8 1c-1 0-1.9-.5-2.4-1.3-.5-.9-.8-2-.8-3.3 0-1.3.3-2.3.8-3.1.5-.8 1.3-1.2 2.4-1.2 1 0 1.8.4 2.3 1.2.5.8.8 1.8.8 3.1s-.3 2.4-.8 3.3c-.5.8-1.3 1.2-2.3 1.2Zm0-1c.7 0 1.2-.3 1.5-1 .4-.6.5-1.5.5-2.6 0-1-.1-1.9-.5-2.5-.3-.6-.8-.9-1.5-.9-.8 0-1.3.3-1.6 1-.4.5-.5 1.4-.5 2.4 0 1.1.1 2 .5 2.6.3.7.8 1 1.6 1Zm7-3.7a2.2 2.2 0 0 1-1.8-1 2 2 0 0 1-.4-1.1c0-.4.1-.8.3-1 .2-.4.4-.7.8-.8a2.1 2.1 0 0 1 2.1 0 2 2 0 0 1 1 1.8 2 2 0 0 1-1 1.8c-.3.2-.7.3-1 .3Zm4.4-4h1l-5 8.5h-.9l5-8.6Zm-4.5 3.2c.4 0 .7-.1 1-.4.2-.2.3-.5.3-1 0-.3 0-.6-.3-.9-.3-.3-.6-.4-1-.4-.3 0-.6.1-.9.4-.2.3-.3.6-.3 1s0 .7.3 1c.3.2.6.3 1 .3Zm5 5.4c-.4 0-.7 0-1-.2-.4-.2-.6-.5-.8-.8-.2-.3-.3-.7-.3-1a2 2 0 0 1 1-1.9 2 2 0 0 1 1.1-.3c.4 0 .7.1 1 .3a2 2 0 0 1 1.1 1.8 2 2 0 0 1-1 1.9l-1 .2Zm0-.7c.4 0 .7-.2 1-.4.2-.3.3-.6.3-1s-.1-.7-.4-1c-.2-.2-.5-.3-.9-.3-.3 0-.7.1-.9.4-.2.2-.4.5-.4 1 0 .3.2.6.4.9.2.3.6.4 1 .4ZM596 131.9h-1.2v1.6h-1v-1.6h-4.4v-.3l2.9-6.7h1l-2.6 6h3v-2.8h1v2.9h1.3v.9Zm2.4 1.7c-.3 0-.4 0-.6-.2a.8.8 0 0 1-.2-.6.8.8 0 0 1 .8-.8c.2 0 .4 0 .5.2.2.2.3.3.3.6 0 .2 0 .4-.3.6l-.5.2Zm8.4-1v.9h-6v-.3l3-3.3c.6-.5 1-1 1.2-1.3.2-.4.4-.8.4-1.2 0-.5-.2-.9-.5-1.2-.3-.4-.7-.5-1.2-.5s-1 .1-1.2.5c-.3.3-.5.8-.5 1.2v.8h-1v-.8c0-.5 0-.9.3-1.3.2-.4.5-.7 1-1a2.7 2.7 0 0 1 2.9 0c.3.2.6.5.9 1 .2.3.3.8.3 1.2 0 .4 0 .8-.2 1.2l-.6 1-1 1-1.9 2h4Zm4.3-7.9a2.9 2.9 0 0 1 2.7 3.9c0 .3-.2.5-.3.7l-.7 1-2.1 3.2h-1.2l2.1-3.2a2 2 0 0 1-.7.1 2.8 2.8 0 0 1-2.8-2.8 2.8 2.8 0 0 1 3-2.9Zm0 4.9a1.9 1.9 0 0 0 1.9-2c0-.4-.1-.7-.3-1-.1-.3-.4-.5-.7-.7-.3-.2-.6-.2-1-.2a2 2 0 0 0-1.6 1 2 2 0 0 0-.3 1l.3 1a2 2 0 0 0 1.7.9Zm4.7-4.7h1v8.6h-1v-8.6Zm6.7 8.6h-1.3l-4.3-4.6 3.9-4h1.3l-3.8 4 4.2 4.6ZM535.3 88H532l-.5 1H530l3.5-8h.5l3.6 8h-1.8l-.4-1Zm-1.6-4-1 2.6h2l-1-2.6ZM541 89a3 3 0 0 1-1.5-.3c-.4-.2-.7-.5-1-1a3 3 0 0 1-.3-1.4V83h1.6v3.4c0 .4.1.6.3.8.3.3.5.4.9.4.3 0 .5-.1.7-.4.3-.2.4-.4.4-.8v-3.4h1.6v3.3c0 .5-.1 1-.4 1.4-.2.5-.5.8-1 1-.4.2-.8.3-1.3.3Zm10.2-6v5.2c0 1-.3 1.7-.8 2.2-.6.6-1.3.8-2.3.8-1 0-2-.4-2.9-1.1l.9-1.1.9.5c.3.2.6.2 1 .2.5 0 .9 0 1.1-.3.3-.3.5-.6.5-1V88a2 2 0 0 1-.8.5c-.3.2-.7.2-1 .2-.6 0-1-.1-1.5-.4-.4-.2-.8-.5-1-1-.3-.4-.4-1-.4-1.5 0-.6.1-1.1.4-1.6.2-.4.6-.8 1-1 .4-.2 1-.4 1.5-.4.4 0 .8.1 1 .3.4.1.7.3 1 .6v-.7h1.4Zm-3.1 4.4c.4 0 .8-.2 1-.5.4-.2.5-.6.5-1.2 0-.5-.1-.9-.4-1.1-.3-.3-.7-.4-1.1-.4-.4 0-.8.1-1.1.4-.3.3-.4.7-.4 1.2 0 .4.1.8.4 1.1.3.3.7.5 1.1.5Zm-18.4 15.1v1.4H524v-.3l2.8-3.1.9-1.1c.2-.3.2-.6.2-.9 0-.3 0-.6-.3-.8a1 1 0 0 0-.8-.4 1 1 0 0 0-.8.4c-.2.2-.3.5-.3.8v.6h-1.5a2.7 2.7 0 0 1 .2-2l1-.9c.4-.2 1-.4 1.5-.4s1 .1 1.4.4c.4.2.7.5 1 .9.2.4.3.8.3 1.3s-.1 1-.4 1.5c-.3.4-.7 1-1.3 1.5l-1 1.1h3Zm4.5 1.5c-.7 0-1.3-.1-1.8-.5-.4-.4-.8-.9-1-1.5-.2-.6-.4-1.3-.4-2.1 0-1.2.3-2.2.8-3 .6-.7 1.4-1 2.4-1s1.8.3 2.3 1c.5.8.8 1.8.8 3 0 .8-.1 1.5-.3 2.1-.3.6-.6 1.1-1 1.5-.6.4-1.1.5-1.8.5Zm0-1.5c1 0 1.4-.8 1.4-2.6a4 4 0 0 0-.3-2c-.2-.3-.6-.6-1.1-.6-.5 0-1 .3-1.1.7-.3.4-.4 1-.4 1.9 0 1.8.5 2.6 1.5 2.6Zm10.2 0v1.4h-5.9v-.3l2.9-3.1.8-1.1.3-.9c0-.3-.1-.6-.3-.8a1 1 0 0 0-.8-.4 1 1 0 0 0-.8.4c-.2.2-.3.5-.3.8v.6h-1.6a2.7 2.7 0 0 1 .2-2l1-.9c.4-.2 1-.4 1.5-.4s1 .1 1.4.4c.4.2.7.5 1 .9.2.4.3.8.3 1.3s-.1 1-.4 1.5c-.3.4-.7 1-1.3 1.5l-1 1.1h3Zm7 0v1.4h-5.9v-.3l2.9-3.1.8-1.1.3-.9c0-.3-.1-.6-.3-.8a1 1 0 0 0-.8-.4 1 1 0 0 0-.8.4c-.2.2-.3.5-.3.8v.6h-1.6a2.7 2.7 0 0 1 .2-2l1-.9c.4-.2 1-.4 1.5-.4s1 .1 1.4.4c.4.2.8.5 1 .9.2.4.3.8.3 1.3s-.1 1-.4 1.5c-.3.4-.7 1-1.3 1.5l-1 1.1h3ZM517.7 254.1c-1 0-1.9-.4-2.4-1.2-.5-.9-.8-2-.8-3.3 0-1.3.3-2.3.8-3.1.6-.8 1.3-1.2 2.4-1.2 1 0 1.8.4 2.3 1.2.5.8.8 1.8.8 3.1s-.3 2.4-.8 3.3c-.5.8-1.3 1.2-2.3 1.2Zm0-.9c.7 0 1.2-.3 1.5-1 .4-.6.6-1.5.6-2.6 0-1-.2-1.9-.5-2.5-.4-.6-.9-.9-1.6-.9-.8 0-1.3.3-1.6 1-.4.5-.5 1.4-.5 2.4 0 1.1.2 2 .5 2.6.3.7.9 1 1.6 1Zm5.7 1c-.3 0-.5-.1-.6-.3a.8.8 0 0 1-.3-.6.8.8 0 0 1 .9-.8c.2 0 .4 0 .5.2l.3.6c0 .3-.1.5-.3.6-.1.2-.3.2-.5.2Zm5.7 0c-1 0-1.9-.5-2.4-1.3-.5-.9-.8-2-.8-3.3 0-1.3.3-2.3.8-3.1.5-.8 1.3-1.2 2.4-1.2 1 0 1.8.4 2.3 1.2.5.8.8 1.8.8 3.1s-.3 2.4-.8 3.3c-.5.8-1.3 1.2-2.3 1.2Zm0-1c.7 0 1.2-.3 1.5-1 .4-.6.5-1.5.5-2.6 0-1-.1-1.9-.4-2.5-.4-.6-1-.9-1.6-.9-.8 0-1.3.3-1.6 1-.4.5-.5 1.4-.5 2.4 0 1.1.1 2 .5 2.6.3.7.8 1 1.6 1Zm8 1c-1 0-1.9-.5-2.4-1.3-.5-.9-.8-2-.8-3.3 0-1.3.3-2.3.8-3.1.5-.8 1.3-1.2 2.4-1.2 1 0 1.8.4 2.3 1.2.5.8.8 1.8.8 3.1s-.3 2.4-.8 3.3c-.5.8-1.3 1.2-2.3 1.2Zm0-1c.7 0 1.2-.3 1.5-1 .4-.6.5-1.5.5-2.6 0-1-.1-1.9-.5-2.5-.3-.6-.8-.9-1.5-.9-.8 0-1.3.3-1.6 1-.4.5-.5 1.4-.5 2.4 0 1.1.1 2 .5 2.6.3.7.8 1 1.6 1Zm7-3.7a2.2 2.2 0 0 1-1.8-1 2 2 0 0 1-.4-1.1c0-.4.1-.8.3-1 .2-.4.4-.7.8-.8a2.1 2.1 0 0 1 2.1 0 2 2 0 0 1 1 1.8 2 2 0 0 1-1 1.8c-.3.2-.7.3-1 .3Zm4.4-4h1l-5 8.5h-.9l5-8.6Zm-4.5 3.2c.4 0 .7-.1 1-.4.2-.2.3-.5.3-1 0-.3 0-.6-.3-.9-.3-.3-.6-.4-1-.4-.3 0-.6.1-.9.4-.2.3-.3.6-.3 1s0 .7.3 1c.3.2.6.3 1 .3Zm5 5.4c-.4 0-.7 0-1-.2-.4-.2-.6-.5-.8-.8-.2-.3-.3-.7-.3-1a2 2 0 0 1 1-1.9 2 2 0 0 1 1.1-.3c.4 0 .7.1 1 .3a2 2 0 0 1 1.1 1.8 2 2 0 0 1-1 1.9l-1 .2Zm0-.7c.4 0 .7-.2 1-.4.2-.3.3-.6.3-1s-.1-.7-.4-1c-.2-.2-.5-.3-.9-.3-.3 0-.7.1-.9.4-.2.2-.4.5-.4 1 0 .3.2.6.4.9.2.3.6.4 1 .4ZM548.5 223.4c-1 0-1.8-.4-2.3-1.3-.6-.8-.8-1.9-.8-3.2 0-1.3.3-2.4.8-3.2.5-.8 1.3-1.2 2.3-1.2 1 0 1.9.4 2.4 1.2.5.8.8 1.9.8 3.2 0 1.3-.3 2.4-.8 3.2-.5.9-1.3 1.3-2.4 1.3Zm0-1c.8 0 1.3-.3 1.6-1 .3-.5.5-1.4.5-2.5 0-1-.1-2-.5-2.5-.3-.6-.8-1-1.6-1-.7 0-1.2.4-1.6 1-.3.6-.5 1.4-.5 2.5 0 1 .2 2 .5 2.6.4.6 1 1 1.6 1ZM548 193.7c-1 0-1.8-.4-2.4-1.3-.5-.8-.7-2-.7-3.2 0-1.3.2-2.4.8-3.2.5-.8 1.3-1.2 2.3-1.2 1 0 1.8.4 2.3 1.2.6.8.8 1.9.8 3.2 0 1.3-.2 2.4-.7 3.2-.6.9-1.3 1.3-2.4 1.3Zm0-1c.7 0 1.3-.3 1.6-1 .3-.6.5-1.4.5-2.5 0-1-.2-2-.5-2.5-.3-.6-.9-1-1.6-1-.7 0-1.3.4-1.6 1-.3.6-.5 1.4-.5 2.5 0 1 .2 2 .5 2.6.4.6.9 1 1.6 1ZM517.7 164.1c-1 0-1.9-.4-2.4-1.2-.5-.9-.8-2-.8-3.3 0-1.3.3-2.3.8-3.1.6-.8 1.3-1.2 2.4-1.2 1 0 1.8.4 2.3 1.2.5.8.8 1.8.8 3.1s-.3 2.4-.8 3.3c-.5.8-1.3 1.2-2.3 1.2Zm0-.9c.7 0 1.2-.3 1.5-1 .4-.6.6-1.5.6-2.6 0-1-.2-1.9-.5-2.5-.4-.6-.9-.9-1.6-.9-.8 0-1.3.3-1.6 1-.4.5-.5 1.4-.5 2.4 0 1.1.2 2 .5 2.6.3.7.9 1 1.6 1Zm5.7 1c-.3 0-.5-.1-.6-.3a.8.8 0 0 1-.3-.6.8.8 0 0 1 .9-.8c.2 0 .4 0 .5.2l.3.6c0 .3-.1.5-.3.6-.1.2-.3.2-.5.2Zm5.7 0c-1 0-1.9-.5-2.4-1.3-.5-.9-.8-2-.8-3.3 0-1.3.3-2.3.8-3.1.5-.8 1.3-1.2 2.4-1.2 1 0 1.8.4 2.3 1.2.5.8.8 1.8.8 3.1s-.3 2.4-.8 3.3c-.5.8-1.3 1.2-2.3 1.2Zm0-1c.7 0 1.2-.3 1.5-1 .4-.6.5-1.5.5-2.6 0-1-.1-1.9-.4-2.5-.4-.6-1-.9-1.6-.9-.8 0-1.3.3-1.6 1-.4.5-.5 1.4-.5 2.4 0 1.1.1 2 .5 2.6.3.7.8 1 1.6 1Zm8 1c-1 0-1.9-.5-2.4-1.3-.5-.9-.8-2-.8-3.3 0-1.3.3-2.3.8-3.1.5-.8 1.3-1.2 2.4-1.2 1 0 1.8.4 2.3 1.2.5.8.8 1.8.8 3.1s-.3 2.4-.8 3.3c-.5.8-1.3 1.2-2.3 1.2Zm0-1c.7 0 1.2-.3 1.5-1 .4-.6.5-1.5.5-2.6 0-1-.1-1.9-.5-2.5-.3-.6-.8-.9-1.5-.9-.8 0-1.3.3-1.6 1-.4.5-.5 1.4-.5 2.4 0 1.1.1 2 .5 2.6.3.7.8 1 1.6 1Zm7-3.7a2.2 2.2 0 0 1-1.8-1 2 2 0 0 1-.4-1.1c0-.4.1-.8.3-1 .2-.4.4-.7.8-.8a2.1 2.1 0 0 1 2.1 0 2 2 0 0 1 1 1.8 2 2 0 0 1-1 1.8c-.3.2-.7.3-1 .3Zm4.4-4h1l-5 8.5h-.9l5-8.6Zm-4.5 3.2c.4 0 .7-.1 1-.4.2-.2.3-.5.3-1 0-.3 0-.6-.3-.9-.3-.3-.6-.4-1-.4-.3 0-.6.1-.9.4-.2.3-.3.6-.3 1s0 .7.3 1c.3.2.6.3 1 .3Zm5 5.4c-.4 0-.7 0-1-.2-.4-.2-.6-.5-.8-.8-.2-.3-.3-.7-.3-1a2 2 0 0 1 1-1.9 2 2 0 0 1 1.1-.3c.4 0 .7.1 1 .3a2 2 0 0 1 1.1 1.8 2 2 0 0 1-1 1.9l-1 .2Zm0-.7c.4 0 .7-.2 1-.4.2-.3.3-.6.3-1s-.1-.7-.4-1c-.2-.2-.5-.3-.9-.3-.3 0-.7.1-.9.4-.2.2-.4.5-.4 1 0 .3.2.6.4.9.2.3.6.4 1 .4ZM525.2 131.9h-1.3v1.6h-1v-1.6h-4.3v-.3l2.8-6.7h1l-2.5 6h3v-2.8h1v2.9h1.3v.9Zm2.3 1.7c-.2 0-.4 0-.5-.2a.8.8 0 0 1-.3-.6.8.8 0 0 1 .8-.8c.3 0 .5 0 .6.2.2.2.3.3.3.6l-.3.6-.6.2Zm8.4-1v.9h-6v-.3l3.1-3.3 1.2-1.3.3-1.2c0-.5-.1-.9-.4-1.2-.3-.4-.7-.5-1.2-.5s-1 .1-1.3.5c-.3.3-.4.8-.4 1.2v.8h-1v-.8c0-.5 0-.9.3-1.3.2-.4.5-.7 1-1 .3-.2.8-.4 1.4-.4.5 0 1 .2 1.4.4.4.2.7.5 1 1 .2.3.3.8.3 1.2l-.3 1.2c-.1.3-.3.7-.6 1l-1 1-1.8 2h4Zm4.5-4.5c.5 0 .9.2 1.3.4a2.4 2.4 0 0 1 1.2 2.2 2.7 2.7 0 0 1-1.5 2.6 3.3 3.3 0 0 1-4.4-1.5l.7-.5c.3.4.6.8 1 1 .3.2.7.4 1.2.4.6 0 1-.2 1.4-.6.4-.3.6-.8.6-1.3 0-.6-.2-1-.6-1.3-.4-.4-.9-.5-1.6-.5h-.8v-.3l2.2-2.9h-3.5v-1h5.1v.4l-2.3 2.9Zm4.4-3.2h1v8.6h-1v-8.6Zm6.7 8.6h-1.3l-4.3-4.6 3.9-4h1.3l-3.8 4 4.2 4.6ZM470.6 89.1l-1.2-.1v-1.4h.8l.9-.1c.2-.2.2-.4.2-.8v-5.6h1.7v5.8c0 .7-.2 1.3-.7 1.7-.4.4-1 .5-1.7.5Zm6.7 0a3 3 0 0 1-1.4-.3c-.4-.2-.8-.5-1-1a3 3 0 0 1-.3-1.4V83h1.6v3.4c0 .4 0 .6.3.8.2.3.5.4.8.4.3 0 .6-.1.8-.4.2-.2.3-.4.3-.8v-3.4h1.6v3.3c0 .5 0 1-.3 1.4-.3.5-.6.8-1 1-.4.2-.9.3-1.4.3Zm4.3-9.1h1.6v9h-1.6v-9Zm-19.9 22.6v1.4H456v-.3l2.8-3.1.9-1.1c.2-.3.2-.6.2-.9 0-.3 0-.6-.3-.8a1 1 0 0 0-.8-.4 1 1 0 0 0-.8.4c-.2.2-.3.5-.3.8v.6h-1.5a2.7 2.7 0 0 1 .2-2l1-.9c.4-.2 1-.4 1.5-.4s1 .1 1.4.4c.4.2.7.5 1 .9.2.4.3.8.3 1.3s-.1 1-.4 1.5c-.3.4-.7 1-1.3 1.5l-1 1.1h3Zm4.5 1.5c-.7 0-1.3-.1-1.8-.5-.4-.4-.8-.9-1-1.5-.2-.6-.4-1.3-.4-2.1 0-1.2.3-2.2.8-3 .6-.7 1.4-1 2.4-1s1.8.3 2.3 1c.5.8.8 1.8.8 3 0 .8-.1 1.5-.3 2.1-.3.6-.6 1.1-1 1.5-.6.4-1.1.5-1.8.5Zm0-1.5c1 0 1.4-.8 1.4-2.6a4 4 0 0 0-.3-2c-.2-.3-.6-.6-1.1-.6-.5 0-.9.3-1.1.7-.3.4-.4 1-.4 1.9 0 1.8.5 2.6 1.5 2.6Zm10.2 0v1.4h-5.9v-.3l2.9-3.1.8-1.1.3-.9c0-.3-.1-.6-.3-.8a1 1 0 0 0-.8-.4 1 1 0 0 0-.8.4c-.2.2-.3.5-.3.8v.6h-1.6a2.7 2.7 0 0 1 .2-2l1-.9c.4-.2 1-.4 1.5-.4s1 .1 1.4.4c.4.2.7.5 1 .9.2.4.3.8.3 1.3s-.1 1-.4 1.5c-.3.4-.7 1-1.3 1.5l-1 1.1h3Zm7 0v1.4h-5.9v-.3l2.9-3.1.8-1.1.3-.9c0-.3-.1-.6-.3-.8a1 1 0 0 0-.8-.4 1 1 0 0 0-.8.4c-.2.2-.3.5-.3.8v.6h-1.6a2.7 2.7 0 0 1 .2-2l1-.9c.4-.2 1-.4 1.5-.4s1 .1 1.4.4c.4.2.8.5 1 .9.2.4.3.8.3 1.3s-.1 1-.4 1.5c-.3.4-.7 1-1.3 1.5l-1 1.1h3ZM449.7 254.1c-1 0-1.9-.4-2.4-1.2-.5-.9-.8-2-.8-3.3 0-1.3.3-2.3.8-3.1.6-.8 1.3-1.2 2.4-1.2 1 0 1.8.4 2.3 1.2.5.8.8 1.8.8 3.1s-.3 2.4-.8 3.3c-.5.8-1.3 1.2-2.3 1.2Zm0-.9c.7 0 1.2-.3 1.6-1 .3-.6.5-1.5.5-2.6 0-1-.2-1.9-.5-2.5-.4-.6-.9-.9-1.6-.9-.8 0-1.3.3-1.6 1-.4.5-.5 1.4-.5 2.4 0 1.1.2 2 .5 2.6.3.7.9 1 1.6 1Zm5.7 1c-.3 0-.5-.1-.6-.3a.8.8 0 0 1-.3-.6.8.8 0 0 1 .9-.8c.2 0 .4 0 .5.2l.3.6c0 .3-.1.5-.3.6-.1.2-.3.2-.5.2Zm5.7 0c-1 0-1.9-.5-2.4-1.3-.5-.9-.8-2-.8-3.3 0-1.3.3-2.3.8-3.1.5-.8 1.3-1.2 2.4-1.2 1 0 1.8.4 2.3 1.2.5.8.8 1.8.8 3.1s-.3 2.4-.8 3.3c-.5.8-1.3 1.2-2.3 1.2Zm0-1c.7 0 1.2-.3 1.5-1 .4-.6.5-1.5.5-2.6 0-1-.1-1.9-.4-2.5-.4-.6-1-.9-1.6-.9-.8 0-1.3.3-1.6 1-.4.5-.5 1.4-.5 2.4 0 1.1.1 2 .5 2.6.3.7.8 1 1.6 1Zm8 1c-1 0-1.9-.5-2.4-1.3-.5-.9-.8-2-.8-3.3 0-1.3.3-2.3.8-3.1.5-.8 1.3-1.2 2.4-1.2 1 0 1.8.4 2.3 1.2.5.8.8 1.8.8 3.1s-.3 2.4-.8 3.3c-.5.8-1.3 1.2-2.3 1.2Zm0-1c.7 0 1.2-.3 1.5-1 .4-.6.5-1.5.5-2.6 0-1-.1-1.9-.5-2.5-.3-.6-.8-.9-1.5-.9-.8 0-1.3.3-1.6 1-.4.5-.5 1.4-.5 2.4 0 1.1.1 2 .5 2.6.3.7.8 1 1.6 1Zm7-3.7a2.2 2.2 0 0 1-1.8-1 2 2 0 0 1-.4-1.1c0-.4.1-.8.3-1 .2-.4.4-.7.8-.8a2.1 2.1 0 0 1 2.1 0 2 2 0 0 1 1 1.8 2 2 0 0 1-1 1.8c-.3.2-.7.3-1 .3Zm4.4-4h1l-5 8.5h-.9l5-8.6Zm-4.5 3.2c.4 0 .7-.1 1-.4.2-.2.3-.5.3-1 0-.3 0-.6-.3-.9-.3-.3-.6-.4-1-.4-.3 0-.6.1-.9.4-.2.3-.3.6-.3 1s0 .7.3 1c.3.2.6.3 1 .3Zm5 5.4c-.4 0-.7 0-1-.2-.4-.2-.6-.5-.8-.8-.2-.3-.3-.7-.3-1a2 2 0 0 1 1-1.9 2 2 0 0 1 1.1-.3c.4 0 .7.1 1 .3a2 2 0 0 1 1.1 1.8 2 2 0 0 1-1 1.9l-1 .2Zm0-.7c.4 0 .7-.2 1-.4.2-.3.3-.6.3-1s-.1-.7-.4-1c-.2-.2-.5-.3-.9-.3-.3 0-.7.1-.9.4-.2.2-.4.5-.4 1 0 .3.2.6.4.9.2.3.6.4 1 .4ZM480.5 223.4c-1 0-1.8-.4-2.3-1.3-.6-.8-.8-1.9-.8-3.2 0-1.3.3-2.4.8-3.2.5-.8 1.3-1.2 2.3-1.2 1 0 1.9.4 2.4 1.2.5.8.8 1.9.8 3.2 0 1.3-.3 2.4-.8 3.2-.5.9-1.3 1.3-2.4 1.3Zm0-1c.8 0 1.3-.3 1.6-1 .3-.5.5-1.4.5-2.5 0-1-.1-2-.5-2.5-.3-.6-.8-1-1.6-1-.7 0-1.2.4-1.6 1-.3.6-.5 1.4-.5 2.5 0 1 .2 2 .5 2.6.4.6 1 1 1.6 1ZM468 192.6v1h-6v-.3l3.1-3.3 1.2-1.3.3-1.2c0-.5-.1-1-.4-1.2-.3-.4-.7-.5-1.2-.5s-1 .1-1.3.5c-.3.3-.4.7-.4 1.2v.7h-1v-.7c0-.5 0-.9.2-1.3.3-.4.6-.8 1-1 .4-.3 1-.4 1.5-.4s1 .1 1.4.4c.4.2.7.5 1 1 .2.3.3.7.3 1.2l-.3 1.2c-.1.3-.3.7-.6 1l-1 1-1.8 2h4Zm7.3 0v1h-6v-.3l3-3.3c.6-.5 1-1 1.2-1.3.3-.4.4-.8.4-1.2 0-.5-.1-1-.5-1.2-.2-.4-.6-.5-1.1-.5-.6 0-1 .1-1.3.5-.3.3-.5.7-.5 1.2l.1.7h-1l-.1-.7c0-.5 0-.9.3-1.3.2-.4.6-.8 1-1 .4-.3.9-.4 1.5-.4.5 0 1 .1 1.3.4.5.2.8.5 1 1 .2.3.4.7.4 1.2l-.3 1.2-.6 1-1 1-1.8 2h4Zm4.7 1c-1 0-1.8-.3-2.4-1.2-.5-.8-.7-2-.7-3.2 0-1.3.2-2.4.8-3.2.5-.8 1.3-1.2 2.3-1.2 1 0 1.8.4 2.3 1.2.6.8.8 1.9.8 3.2 0 1.3-.2 2.4-.7 3.2-.6.9-1.3 1.3-2.4 1.3Zm0-.9c.7 0 1.3-.3 1.6-1 .3-.6.5-1.4.5-2.5 0-1-.2-2-.5-2.5-.3-.6-.9-1-1.6-1-.7 0-1.3.4-1.6 1-.3.6-.5 1.4-.5 2.5 0 1 .2 2 .5 2.6.4.6.9 1 1.6 1ZM450 158.6c.4 0 1 .1 1.4.3a2.4 2.4 0 0 1 1.4 2.4c0 .6-.1 1-.4 1.5-.3.4-.6.8-1.1 1l-1.5.3c-.7 0-1.3-.1-1.8-.5-.5-.3-.9-.7-1.2-1.2l.7-.5 1 1c.3.2.8.3 1.3.3.6 0 1-.2 1.4-.5.4-.4.6-.8.6-1.4 0-.6-.2-1-.6-1.3-.4-.3-.9-.5-1.6-.5h-2v-4h4.8v.8h-3.7v2.4h1.2Zm5.4 5.5c-.3 0-.5 0-.6-.2a.8.8 0 0 1-.3-.6.8.8 0 0 1 .9-.8c.2 0 .4 0 .5.2l.3.6c0 .3-.1.5-.3.6-.1.2-.3.2-.5.2Zm5.7 0c-1 0-1.9-.4-2.4-1.2-.5-.9-.8-2-.8-3.3 0-1.3.3-2.3.8-3.1.5-.8 1.3-1.2 2.4-1.2 1 0 1.8.4 2.3 1.2.5.8.8 1.8.8 3.1s-.3 2.4-.8 3.3c-.5.8-1.3 1.2-2.3 1.2Zm0-.9c.7 0 1.2-.3 1.5-1 .4-.6.5-1.5.5-2.6 0-1-.1-1.9-.4-2.5-.4-.6-1-.9-1.6-.9-.8 0-1.3.3-1.6 1-.4.5-.5 1.4-.5 2.4 0 1.1.1 2 .5 2.6.3.7.8 1 1.6 1Zm8 1c-1 0-1.9-.5-2.4-1.3-.5-.9-.8-2-.8-3.3 0-1.3.3-2.3.8-3.1.5-.8 1.3-1.2 2.4-1.2 1 0 1.8.4 2.3 1.2.5.8.8 1.8.8 3.1s-.3 2.4-.8 3.3c-.5.8-1.3 1.2-2.3 1.2Zm0-1c.7 0 1.2-.3 1.5-1 .4-.6.5-1.5.5-2.6 0-1-.1-1.9-.5-2.5-.3-.6-.8-.9-1.5-.9-.8 0-1.3.3-1.6 1-.4.5-.5 1.4-.5 2.4 0 1.1.1 2 .5 2.6.3.7.8 1 1.6 1Zm7-3.7a2.2 2.2 0 0 1-1.8-1 2 2 0 0 1-.4-1.1c0-.4.1-.8.3-1 .2-.4.4-.7.8-.8a2.1 2.1 0 0 1 2.1 0 2 2 0 0 1 1 1.8 2 2 0 0 1-1 1.8c-.3.2-.7.3-1 .3Zm4.4-4h1l-5 8.5h-.9l5-8.6Zm-4.5 3.2c.4 0 .7-.1 1-.4.2-.2.3-.5.3-1 0-.3 0-.6-.3-.9-.3-.3-.6-.4-1-.4-.3 0-.6.1-.9.4-.2.3-.3.6-.3 1s0 .7.3 1c.3.2.6.3 1 .3Zm5 5.4c-.4 0-.7 0-1-.2-.4-.2-.6-.5-.8-.8-.2-.3-.3-.7-.3-1a2 2 0 0 1 1-1.9 2 2 0 0 1 1.1-.3c.4 0 .7.1 1 .3a2 2 0 0 1 1.1 1.8 2 2 0 0 1-1 1.9l-1 .2Zm0-.7c.4 0 .7-.2 1-.4.2-.3.3-.6.3-1s-.1-.7-.4-1c-.2-.2-.5-.3-.9-.3-.3 0-.7.1-.9.4-.2.2-.4.5-.4 1 0 .3.2.6.4.9.2.3.6.4 1 .4ZM460 131.9h-1.2v1.6h-1v-1.6h-4.4v-.3l2.9-6.7h1l-2.6 6h3v-2.8h1v2.9h1.3v.9Zm2.4 1.7c-.3 0-.5 0-.6-.2a.8.8 0 0 1-.3-.6.8.8 0 0 1 .9-.8c.2 0 .4 0 .5.2.2.2.3.3.3.6l-.3.6-.5.2Zm4.7-8.7v8.6h-1V126l-2 .6-.2-1 2.8-.8h.4Zm5-.2a2.9 2.9 0 0 1 2.7 3.9c0 .3-.2.5-.3.7l-.7 1-2.1 3.2h-1.2l2.1-3.2a2 2 0 0 1-.7.1 2.8 2.8 0 0 1-2.8-2.8 2.8 2.8 0 0 1 3-2.9Zm0 4.9a1.9 1.9 0 0 0 1.9-2c0-.4-.1-.7-.3-1-.1-.3-.4-.5-.7-.7-.3-.2-.6-.2-1-.2a2 2 0 0 0-1.6 1 2 2 0 0 0-.3 1l.3 1a2 2 0 0 0 1.7.9Zm4.7-4.7h1v8.6h-1v-8.6Zm6.7 8.6h-1.3l-4.3-4.6 3.9-4h1.3l-3.8 4 4.2 4.6ZM400.8 89.1l-1.2-.1v-1.4h.8l.9-.1c.2-.2.3-.4.3-.8v-5.6h1.6v5.8c0 .7-.2 1.3-.7 1.7-.4.4-1 .5-1.7.5Zm6.7 0a3 3 0 0 1-1.4-.3c-.4-.2-.7-.5-1-1a3 3 0 0 1-.3-1.4V83h1.6v3.4c0 .4 0 .6.3.8.2.3.5.4.8.4.3 0 .6-.1.8-.4.2-.2.3-.4.3-.8v-3.4h1.6v3.3c0 .5 0 1-.3 1.4-.3.5-.6.8-1 1-.4.2-.9.3-1.4.3ZM415 83c.7 0 1.2.2 1.6.7.4.4.6 1 .6 1.7V89h-1.6v-3.5c0-.3 0-.6-.3-.8a1 1 0 0 0-.8-.3c-.3 0-.6 0-.8.3-.2.2-.3.5-.3.8V89h-1.6v-6h1.5v.6l.7-.5 1-.2Zm-19.3 19.7v1.4H390v-.3l2.8-3.1.9-1.1c.2-.3.2-.6.2-.9 0-.3 0-.6-.3-.8a1 1 0 0 0-.8-.4 1 1 0 0 0-.8.4c-.2.2-.3.5-.3.8v.6h-1.5a2.7 2.7 0 0 1 .2-2l1-.9c.4-.2 1-.4 1.5-.4s1 .1 1.4.4c.4.2.7.5 1 .9.2.4.3.8.3 1.3s-.1 1-.4 1.5c-.3.4-.7 1-1.3 1.5l-1 1.1h3Zm4.5 1.5c-.7 0-1.3-.1-1.8-.5-.4-.4-.8-.9-1-1.5-.2-.6-.4-1.3-.4-2.1 0-1.2.3-2.2.8-3 .6-.7 1.4-1 2.4-1s1.8.3 2.3 1c.5.8.8 1.8.8 3 0 .8-.1 1.5-.3 2.1-.3.6-.6 1.1-1 1.5-.6.4-1.1.5-1.8.5Zm0-1.5c1 0 1.4-.8 1.4-2.6a4 4 0 0 0-.3-2c-.2-.3-.6-.6-1.1-.6-.5 0-.9.3-1.1.7-.3.4-.4 1-.4 1.9 0 1.8.5 2.6 1.5 2.6Zm10.2 0v1.4h-5.9v-.3l2.9-3.1.8-1.1.3-.9c0-.3-.1-.6-.3-.8a1 1 0 0 0-.8-.4 1 1 0 0 0-.8.4c-.2.2-.3.5-.3.8v.6h-1.6a2.7 2.7 0 0 1 .2-2l1-.9c.4-.2 1-.4 1.5-.4s1 .1 1.4.4c.4.2.7.5 1 .9.2.4.3.8.3 1.3s-.1 1-.4 1.5c-.3.4-.7 1-1.3 1.5l-1 1.1h3Zm7 0v1.4h-5.9v-.3l2.9-3.1.8-1.1.3-.9c0-.3-.1-.6-.3-.8a1 1 0 0 0-.8-.4 1 1 0 0 0-.8.4c-.2.2-.3.5-.3.8v.6h-1.6a2.7 2.7 0 0 1 .2-2l1-.9c.4-.2 1-.4 1.5-.4s1 .1 1.4.4c.4.2.8.5 1 .9.2.4.3.8.3 1.3s-.1 1-.4 1.5c-.3.4-.7 1-1.3 1.5l-1 1.1h3ZM383.7 254.1c-1 0-1.9-.4-2.4-1.2-.5-.9-.8-2-.8-3.3 0-1.3.3-2.3.8-3.1.6-.8 1.3-1.2 2.4-1.2 1 0 1.8.4 2.3 1.2.5.8.8 1.8.8 3.1s-.3 2.4-.8 3.3c-.5.8-1.3 1.2-2.3 1.2Zm0-.9c.7 0 1.2-.3 1.6-1 .3-.6.5-1.5.5-2.6 0-1-.2-1.9-.5-2.5-.4-.6-.9-.9-1.6-.9-.8 0-1.3.3-1.6 1-.4.5-.5 1.4-.5 2.4 0 1.1.2 2 .5 2.6.3.7.9 1 1.6 1Zm5.7 1c-.3 0-.5-.1-.6-.3a.8.8 0 0 1-.3-.6.8.8 0 0 1 .9-.8c.2 0 .4 0 .5.2l.3.6c0 .3-.1.5-.3.6-.1.2-.3.2-.5.2Zm5.7 0c-1 0-1.9-.5-2.4-1.3-.5-.9-.8-2-.8-3.3 0-1.3.3-2.3.8-3.1.5-.8 1.3-1.2 2.4-1.2 1 0 1.8.4 2.3 1.2.5.8.8 1.8.8 3.1s-.3 2.4-.8 3.3c-.5.8-1.3 1.2-2.3 1.2Zm0-1c.7 0 1.2-.3 1.5-1 .4-.6.5-1.5.5-2.6 0-1-.1-1.9-.4-2.5-.4-.6-1-.9-1.6-.9-.8 0-1.3.3-1.6 1-.4.5-.5 1.4-.5 2.4 0 1.1.1 2 .5 2.6.3.7.8 1 1.6 1Zm8 1c-1 0-1.9-.5-2.4-1.3-.5-.9-.8-2-.8-3.3 0-1.3.3-2.3.8-3.1.5-.8 1.3-1.2 2.4-1.2 1 0 1.8.4 2.3 1.2.5.8.8 1.8.8 3.1s-.3 2.4-.8 3.3c-.5.8-1.3 1.2-2.3 1.2Zm0-1c.7 0 1.2-.3 1.5-1 .4-.6.5-1.5.5-2.6 0-1-.1-1.9-.5-2.5-.3-.6-.8-.9-1.5-.9-.8 0-1.3.3-1.6 1-.4.5-.5 1.4-.5 2.4 0 1.1.1 2 .5 2.6.3.7.8 1 1.6 1Zm7-3.7a2.2 2.2 0 0 1-1.8-1 2 2 0 0 1-.4-1.1c0-.4.1-.8.3-1 .2-.4.4-.7.8-.8a2.1 2.1 0 0 1 2.1 0 2 2 0 0 1 1 1.8 2 2 0 0 1-1 1.8c-.3.2-.7.3-1 .3Zm4.4-4h1l-5 8.5h-.9l5-8.6Zm-4.5 3.2c.4 0 .7-.1 1-.4.2-.2.3-.5.3-1 0-.3 0-.6-.3-.9-.3-.3-.6-.4-1-.4-.3 0-.6.1-.9.4-.2.3-.3.6-.3 1s0 .7.3 1c.3.2.6.3 1 .3Zm5 5.4c-.4 0-.7 0-1-.2-.4-.2-.6-.5-.8-.8-.2-.3-.3-.7-.3-1a2 2 0 0 1 1-1.9 2 2 0 0 1 1.1-.3c.4 0 .7.1 1 .3a2 2 0 0 1 1.1 1.8 2 2 0 0 1-1 1.9l-1 .2Zm0-.7c.4 0 .7-.2 1-.4.2-.3.3-.6.3-1s-.1-.7-.4-1c-.2-.2-.5-.3-.9-.3-.3 0-.7.1-.9.4-.2.2-.4.5-.4 1 0 .3.2.6.4.9.2.3.6.4 1 .4ZM414.5 223.4c-1 0-1.8-.4-2.3-1.3-.6-.8-.8-1.9-.8-3.2 0-1.3.3-2.4.8-3.2.5-.8 1.3-1.2 2.3-1.2 1 0 1.9.4 2.4 1.2.5.8.8 1.9.8 3.2 0 1.3-.3 2.4-.8 3.2-.5.9-1.3 1.3-2.4 1.3Zm0-1c.8 0 1.3-.3 1.6-1 .3-.5.5-1.4.5-2.5 0-1-.1-2-.5-2.5-.3-.6-.8-1-1.6-1-.7 0-1.2.4-1.6 1-.3.6-.5 1.4-.5 2.5 0 1 .2 2 .5 2.6.4.6 1 1 1.6 1ZM414 193.7c-1 0-1.8-.4-2.4-1.3-.5-.8-.7-2-.7-3.2 0-1.3.2-2.4.8-3.2.5-.8 1.3-1.2 2.3-1.2 1 0 1.8.4 2.3 1.2.6.8.8 1.9.8 3.2 0 1.3-.2 2.4-.7 3.2-.6.9-1.3 1.3-2.4 1.3Zm0-1c.7 0 1.3-.3 1.6-1 .3-.6.5-1.4.5-2.5 0-1-.2-2-.5-2.5-.3-.6-.9-1-1.6-1-.7 0-1.3.4-1.6 1-.3.6-.5 1.4-.5 2.5 0 1 .2 2 .5 2.6.4.6.9 1 1.6 1ZM383.7 164.1c-1 0-1.9-.4-2.4-1.2-.5-.9-.8-2-.8-3.3 0-1.3.3-2.3.8-3.1.6-.8 1.3-1.2 2.4-1.2 1 0 1.8.4 2.3 1.2.5.8.8 1.8.8 3.1s-.3 2.4-.8 3.3c-.5.8-1.3 1.2-2.3 1.2Zm0-.9c.7 0 1.2-.3 1.6-1 .3-.6.5-1.5.5-2.6 0-1-.2-1.9-.5-2.5-.4-.6-.9-.9-1.6-.9-.8 0-1.3.3-1.6 1-.4.5-.5 1.4-.5 2.4 0 1.1.2 2 .5 2.6.3.7.9 1 1.6 1Zm5.7 1c-.3 0-.5-.1-.6-.3a.8.8 0 0 1-.3-.6.8.8 0 0 1 .9-.8c.2 0 .4 0 .5.2l.3.6c0 .3-.1.5-.3.6-.1.2-.3.2-.5.2Zm5.7 0c-1 0-1.9-.5-2.4-1.3-.5-.9-.8-2-.8-3.3 0-1.3.3-2.3.8-3.1.5-.8 1.3-1.2 2.4-1.2 1 0 1.8.4 2.3 1.2.5.8.8 1.8.8 3.1s-.3 2.4-.8 3.3c-.5.8-1.3 1.2-2.3 1.2Zm0-1c.7 0 1.2-.3 1.5-1 .4-.6.5-1.5.5-2.6 0-1-.1-1.9-.4-2.5-.4-.6-1-.9-1.6-.9-.8 0-1.3.3-1.6 1-.4.5-.5 1.4-.5 2.4 0 1.1.1 2 .5 2.6.3.7.8 1 1.6 1Zm8 1c-1 0-1.9-.5-2.4-1.3-.5-.9-.8-2-.8-3.3 0-1.3.3-2.3.8-3.1.5-.8 1.3-1.2 2.4-1.2 1 0 1.8.4 2.3 1.2.5.8.8 1.8.8 3.1s-.3 2.4-.8 3.3c-.5.8-1.3 1.2-2.3 1.2Zm0-1c.7 0 1.2-.3 1.5-1 .4-.6.5-1.5.5-2.6 0-1-.1-1.9-.5-2.5-.3-.6-.8-.9-1.5-.9-.8 0-1.3.3-1.6 1-.4.5-.5 1.4-.5 2.4 0 1.1.1 2 .5 2.6.3.7.8 1 1.6 1Zm7-3.7a2.2 2.2 0 0 1-1.8-1 2 2 0 0 1-.4-1.1c0-.4.1-.8.3-1 .2-.4.4-.7.8-.8a2.1 2.1 0 0 1 2.1 0 2 2 0 0 1 1 1.8 2 2 0 0 1-1 1.8c-.3.2-.7.3-1 .3Zm4.4-4h1l-5 8.5h-.9l5-8.6Zm-4.5 3.2c.4 0 .7-.1 1-.4.2-.2.3-.5.3-1 0-.3 0-.6-.3-.9-.3-.3-.6-.4-1-.4-.3 0-.6.1-.9.4-.2.3-.3.6-.3 1s0 .7.3 1c.3.2.6.3 1 .3Zm5 5.4c-.4 0-.7 0-1-.2-.4-.2-.6-.5-.8-.8-.2-.3-.3-.7-.3-1a2 2 0 0 1 1-1.9 2 2 0 0 1 1.1-.3c.4 0 .7.1 1 .3a2 2 0 0 1 1.1 1.8 2 2 0 0 1-1 1.9l-1 .2Zm0-.7c.4 0 .7-.2 1-.4.2-.3.3-.6.3-1s-.1-.7-.4-1c-.2-.2-.5-.3-.9-.3-.3 0-.7.1-.9.4-.2.2-.4.5-.4 1 0 .3.2.6.4.9.2.3.6.4 1 .4ZM393.4 131.9h-1.2v1.6h-1v-1.6h-4.4v-.3l2.9-6.7h1l-2.6 6h3v-2.8h1v2.9h1.3v.9Zm2.4 1.7c-.3 0-.5 0-.6-.2a.8.8 0 0 1-.3-.6.8.8 0 0 1 .9-.8c.2 0 .4 0 .5.2.2.2.3.3.3.6l-.3.6-.5.2Zm8.7-1.7h-1.2v1.6h-1v-1.6H398v-.3l2.8-6.7h1l-2.5 6h3v-2.8h1v2.9h1.2v.9Zm3.7-7v8.6h-1V126l-1.9.6-.2-1 2.7-.8h.4Zm2.6 0h1v8.6h-1v-8.6Zm6.7 8.6h-1.3l-4.3-4.6 3.9-4h1.3l-3.8 4 4.2 4.6ZM338 81v8h-1.7v-4.2l-2 2.5h-.5l-2-2.5V89h-1.6v-8h.5l3.3 4.2 3.4-4.3h.5Zm4 2c.8 0 1.4.1 1.8.6.5.4.7 1 .7 1.9V89h-1.4v-.6l-.8.6-1 .1c-.7 0-1.2-.1-1.6-.4-.3-.4-.5-.8-.5-1.3 0-.6.2-1 .6-1.3.4-.3 1-.5 1.6-.5h1.5v-.2a1 1 0 0 0-.3-.8c-.2-.2-.4-.3-.8-.3l-.8.2a3 3 0 0 0-.8.6l-.8-1c.7-.8 1.6-1.2 2.6-1.2Zm-.3 5c.3 0 .6-.2.9-.4.2-.2.3-.5.3-.8h-1.3a1 1 0 0 0-.6 0l-.2.5c0 .2.1.4.3.5l.6.2Zm10.2-5-2.9 6.5c-.3.6-.6 1-1 1.4-.3.3-.8.4-1.3.4a4 4 0 0 1-1-.1v-1.4h.6l.7-.1c.2-.1.4-.3.5-.7l.2-.4-2.3-5.5h1.8l1.4 3.9 1.6-4h1.7Zm-22.2 19.6v1.4H324v-.3l2.8-3.1.9-1.1c.2-.3.2-.6.2-.9 0-.3 0-.6-.3-.8a1 1 0 0 0-.8-.4 1 1 0 0 0-.8.4c-.2.2-.3.5-.3.8v.6h-1.5a2.7 2.7 0 0 1 .2-2l1-.9c.4-.2 1-.4 1.5-.4s1 .1 1.4.4c.4.2.7.5 1 .9.2.4.3.8.3 1.3s-.1 1-.4 1.5c-.3.4-.7 1-1.3 1.5l-1 1.1h3Zm4.5 1.5c-.7 0-1.3-.1-1.8-.5-.4-.4-.8-.9-1-1.5-.2-.6-.4-1.3-.4-2.1 0-1.2.3-2.2.8-3 .6-.7 1.4-1 2.4-1s1.8.3 2.3 1c.5.8.8 1.8.8 3 0 .8-.1 1.5-.3 2.1-.3.6-.6 1.1-1 1.5-.6.4-1.1.5-1.8.5Zm0-1.5c1 0 1.4-.8 1.4-2.6a4 4 0 0 0-.3-2c-.2-.3-.6-.6-1.1-.6-.5 0-.9.3-1.1.7-.3.4-.4 1-.4 1.9 0 1.8.5 2.6 1.5 2.6Zm10.2 0v1.4h-5.9v-.3l2.9-3.1.8-1.1.3-.9c0-.3-.1-.6-.3-.8a1 1 0 0 0-.8-.4 1 1 0 0 0-.8.4c-.2.2-.3.5-.3.8v.6h-1.6a2.7 2.7 0 0 1 .2-2l1-.9c.4-.2 1-.4 1.5-.4s1 .1 1.4.4c.4.2.7.5 1 .9.2.4.3.8.3 1.3s-.1 1-.4 1.5c-.3.4-.7 1-1.3 1.5l-1 1.1h3Zm7 0v1.4h-5.9v-.3l2.9-3.1.8-1.1.3-.9c0-.3-.1-.6-.3-.8a1 1 0 0 0-.8-.4 1 1 0 0 0-.8.4c-.2.2-.3.5-.3.8v.6h-1.6a2.7 2.7 0 0 1 .2-2l1-.9c.4-.2 1-.4 1.5-.4s1 .1 1.4.4c.4.2.8.5 1 .9.2.4.3.8.3 1.3s-.1 1-.4 1.5c-.3.4-.7 1-1.3 1.5l-1 1.1h3ZM317.7 254.1c-1 0-1.9-.4-2.4-1.2-.5-.9-.8-2-.8-3.3 0-1.3.3-2.3.8-3.1.6-.8 1.3-1.2 2.4-1.2 1 0 1.8.4 2.3 1.2.5.8.8 1.8.8 3.1s-.3 2.4-.8 3.3c-.5.8-1.3 1.2-2.3 1.2Zm0-.9c.7 0 1.2-.3 1.6-1 .3-.6.5-1.5.5-2.6 0-1-.2-1.9-.5-2.5-.4-.6-.9-.9-1.6-.9-.8 0-1.3.3-1.6 1-.4.5-.5 1.4-.5 2.4 0 1.1.2 2 .5 2.6.3.7.9 1 1.6 1Zm5.7 1c-.3 0-.5-.1-.6-.3a.8.8 0 0 1-.3-.6.8.8 0 0 1 .9-.8c.2 0 .4 0 .5.2l.3.6c0 .3-.1.5-.3.6-.1.2-.3.2-.5.2Zm5.7 0c-1 0-1.9-.5-2.4-1.3-.5-.9-.8-2-.8-3.3 0-1.3.3-2.3.8-3.1.5-.8 1.3-1.2 2.4-1.2 1 0 1.8.4 2.3 1.2.5.8.8 1.8.8 3.1s-.3 2.4-.8 3.3c-.5.8-1.3 1.2-2.3 1.2Zm0-1c.7 0 1.2-.3 1.5-1 .4-.6.5-1.5.5-2.6 0-1-.1-1.9-.4-2.5-.4-.6-1-.9-1.6-.9-.8 0-1.3.3-1.6 1-.4.5-.5 1.4-.5 2.4 0 1.1.1 2 .5 2.6.3.7.8 1 1.6 1Zm8 1c-1 0-1.9-.5-2.4-1.3-.5-.9-.8-2-.8-3.3 0-1.3.3-2.3.8-3.1.5-.8 1.3-1.2 2.4-1.2 1 0 1.8.4 2.3 1.2.5.8.8 1.8.8 3.1s-.3 2.4-.8 3.3c-.5.8-1.3 1.2-2.3 1.2Zm0-1c.7 0 1.2-.3 1.5-1 .4-.6.5-1.5.5-2.6 0-1-.1-1.9-.5-2.5-.3-.6-.8-.9-1.5-.9-.8 0-1.3.3-1.6 1-.4.5-.5 1.4-.5 2.4 0 1.1.1 2 .5 2.6.3.7.8 1 1.6 1Zm7-3.7a2.2 2.2 0 0 1-1.8-1 2 2 0 0 1-.4-1.1c0-.4.1-.8.3-1 .2-.4.4-.7.8-.8a2.1 2.1 0 0 1 2.1 0 2 2 0 0 1 1 1.8 2 2 0 0 1-1 1.8c-.3.2-.7.3-1 .3Zm4.4-4h1l-5 8.5h-.9l5-8.6Zm-4.5 3.2c.4 0 .7-.1 1-.4.2-.2.3-.5.3-1 0-.3 0-.6-.3-.9-.3-.3-.6-.4-1-.4-.3 0-.6.1-.9.4-.2.3-.3.6-.3 1s0 .7.3 1c.3.2.6.3 1 .3Zm5 5.4c-.4 0-.7 0-1-.2-.4-.2-.6-.5-.8-.8-.2-.3-.3-.7-.3-1a2 2 0 0 1 1-1.9 2 2 0 0 1 1.1-.3c.4 0 .7.1 1 .3a2 2 0 0 1 1.1 1.8 2 2 0 0 1-1 1.9l-1 .2Zm0-.7c.4 0 .7-.2 1-.4.2-.3.3-.6.3-1s-.1-.7-.4-1c-.2-.2-.5-.3-.9-.3-.3 0-.7.1-.9.4-.2.2-.4.5-.4 1 0 .3.2.6.4.9.2.3.6.4 1 .4ZM348.5 223.4c-1 0-1.8-.4-2.3-1.3-.6-.8-.8-1.9-.8-3.2 0-1.3.3-2.4.8-3.2.5-.8 1.3-1.2 2.3-1.2 1 0 1.9.4 2.4 1.2.5.8.8 1.9.8 3.2 0 1.3-.3 2.4-.8 3.2-.5.9-1.3 1.3-2.4 1.3Zm0-1c.8 0 1.3-.3 1.6-1 .3-.5.5-1.4.5-2.5 0-1-.1-2-.5-2.5-.3-.6-.8-1-1.6-1-.7 0-1.2.4-1.6 1-.3.6-.5 1.4-.5 2.5 0 1 .2 2 .5 2.6.4.6 1 1 1.6 1ZM348 193.7c-1 0-1.8-.4-2.4-1.3-.5-.8-.7-2-.7-3.2 0-1.3.2-2.4.8-3.2.5-.8 1.3-1.2 2.3-1.2 1 0 1.8.4 2.3 1.2.6.8.8 1.9.8 3.2 0 1.3-.2 2.4-.7 3.2-.6.9-1.3 1.3-2.4 1.3Zm0-1c.7 0 1.3-.3 1.6-1 .3-.6.5-1.4.5-2.5 0-1-.2-2-.5-2.5-.3-.6-.9-1-1.6-1-.7 0-1.3.4-1.6 1-.3.6-.5 1.4-.5 2.5 0 1 .2 2 .5 2.6.4.6.9 1 1.6 1ZM317.7 164.1c-1 0-1.9-.4-2.4-1.2-.5-.9-.8-2-.8-3.3 0-1.3.3-2.3.8-3.1.6-.8 1.3-1.2 2.4-1.2 1 0 1.8.4 2.3 1.2.5.8.8 1.8.8 3.1s-.3 2.4-.8 3.3c-.5.8-1.3 1.2-2.3 1.2Zm0-.9c.7 0 1.2-.3 1.6-1 .3-.6.5-1.5.5-2.6 0-1-.2-1.9-.5-2.5-.4-.6-.9-.9-1.6-.9-.8 0-1.3.3-1.6 1-.4.5-.5 1.4-.5 2.4 0 1.1.2 2 .5 2.6.3.7.9 1 1.6 1Zm5.7 1c-.3 0-.5-.1-.6-.3a.8.8 0 0 1-.3-.6.8.8 0 0 1 .9-.8c.2 0 .4 0 .5.2l.3.6c0 .3-.1.5-.3.6-.1.2-.3.2-.5.2Zm5.7 0c-1 0-1.9-.5-2.4-1.3-.5-.9-.8-2-.8-3.3 0-1.3.3-2.3.8-3.1.5-.8 1.3-1.2 2.4-1.2 1 0 1.8.4 2.3 1.2.5.8.8 1.8.8 3.1s-.3 2.4-.8 3.3c-.5.8-1.3 1.2-2.3 1.2Zm0-1c.7 0 1.2-.3 1.5-1 .4-.6.5-1.5.5-2.6 0-1-.1-1.9-.4-2.5-.4-.6-1-.9-1.6-.9-.8 0-1.3.3-1.6 1-.4.5-.5 1.4-.5 2.4 0 1.1.1 2 .5 2.6.3.7.8 1 1.6 1Zm8 1c-1 0-1.9-.5-2.4-1.3-.5-.9-.8-2-.8-3.3 0-1.3.3-2.3.8-3.1.5-.8 1.3-1.2 2.4-1.2 1 0 1.8.4 2.3 1.2.5.8.8 1.8.8 3.1s-.3 2.4-.8 3.3c-.5.8-1.3 1.2-2.3 1.2Zm0-1c.7 0 1.2-.3 1.5-1 .4-.6.5-1.5.5-2.6 0-1-.1-1.9-.5-2.5-.3-.6-.8-.9-1.5-.9-.8 0-1.3.3-1.6 1-.4.5-.5 1.4-.5 2.4 0 1.1.1 2 .5 2.6.3.7.8 1 1.6 1Zm7-3.7a2.2 2.2 0 0 1-1.8-1 2 2 0 0 1-.4-1.1c0-.4.1-.8.3-1 .2-.4.4-.7.8-.8a2.1 2.1 0 0 1 2.1 0 2 2 0 0 1 1 1.8 2 2 0 0 1-1 1.8c-.3.2-.7.3-1 .3Zm4.4-4h1l-5 8.5h-.9l5-8.6Zm-4.5 3.2c.4 0 .7-.1 1-.4.2-.2.3-.5.3-1 0-.3 0-.6-.3-.9-.3-.3-.6-.4-1-.4-.3 0-.6.1-.9.4-.2.3-.3.6-.3 1s0 .7.3 1c.3.2.6.3 1 .3Zm5 5.4c-.4 0-.7 0-1-.2-.4-.2-.6-.5-.8-.8-.2-.3-.3-.7-.3-1a2 2 0 0 1 1-1.9 2 2 0 0 1 1.1-.3c.4 0 .7.1 1 .3a2 2 0 0 1 1.1 1.8 2 2 0 0 1-1 1.9l-1 .2Zm0-.7c.4 0 .7-.2 1-.4.2-.3.3-.6.3-1s-.1-.7-.4-1c-.2-.2-.5-.3-.9-.3-.3 0-.7.1-.9.4-.2.2-.4.5-.4 1 0 .3.2.6.4.9.2.3.6.4 1 .4ZM327.4 131.9h-1.2v1.6h-1v-1.6h-4.4v-.3l2.9-6.7h1l-2.6 6h3v-2.8h1v2.9h1.3v.9Zm2.4 1.7c-.3 0-.5 0-.6-.2a.8.8 0 0 1-.3-.6.8.8 0 0 1 .9-.8c.2 0 .4 0 .5.2.2.2.3.3.3.6l-.3.6-.5.2Zm8.7-1.7h-1.2v1.6h-1v-1.6H332v-.3l2.8-6.7h1l-2.5 6h3v-2.8h1v2.9h1.2v.9Zm3.7-7v8.6h-1V126l-1.9.6-.2-1 2.7-.8h.4Zm2.6 0h1v8.6h-1v-8.6Zm6.7 8.6h-1.3l-4.3-4.6 3.9-4h1.3l-3.8 4 4.2 4.6ZM271.4 88h-3.2l-.4 1H266l3.6-8h.5l3.5 8H272l-.5-1Zm-1.6-4-1 2.6h2l-1-2.6Zm8.2-1c.6 0 1 0 1.5.3.4.3.8.7 1 1.1.3.5.4 1 .4 1.6 0 .6-.1 1.1-.4 1.6-.2.5-.6.9-1 1.1-.5.3-1 .4-1.5.4l-1-.1c-.3-.2-.6-.3-.8-.6v2.8h-1.6V83h1.5v.7c.2-.3.5-.5.8-.6.3-.2.7-.3 1.1-.3Zm-.3 4.7c.4 0 .8-.2 1-.5.4-.3.5-.7.5-1.2s-.1-.9-.4-1.2c-.3-.3-.7-.4-1.1-.4-.4 0-.8.1-1 .4-.4.3-.5.7-.5 1.2 0 .6.1 1 .4 1.2.3.3.7.5 1.1.5Zm7.6-4.7h.5v1.5h-.4c-.5 0-1 .1-1.2.4-.3.2-.4.6-.4 1.1v3h-1.6v-6h1.4v.8a2 2 0 0 1 1.7-.8Zm-21.6 19.6v1.4H258v-.3l2.8-3.1.9-1.1c.2-.3.2-.6.2-.9 0-.3 0-.6-.3-.8a1 1 0 0 0-.8-.4 1 1 0 0 0-.8.4c-.2.2-.3.5-.3.8v.6h-1.5a2.7 2.7 0 0 1 .2-2l1-.9c.4-.2 1-.4 1.5-.4s1 .1 1.4.4c.4.2.7.5 1 .9.2.4.3.8.3 1.3s-.1 1-.4 1.5c-.3.4-.7 1-1.3 1.5l-1 1.1h3Zm4.5 1.5c-.7 0-1.3-.1-1.8-.5-.4-.4-.8-.9-1-1.5-.2-.6-.4-1.3-.4-2.1 0-1.2.3-2.2.8-3 .6-.7 1.4-1 2.4-1s1.8.3 2.3 1c.5.8.8 1.8.8 3 0 .8-.1 1.5-.3 2.1-.3.6-.6 1.1-1 1.5-.6.4-1.1.5-1.8.5Zm0-1.5c1 0 1.4-.8 1.4-2.6a4 4 0 0 0-.3-2c-.2-.3-.6-.6-1.1-.6-.5 0-.9.3-1.1.7-.3.4-.4 1-.4 1.9 0 1.8.5 2.6 1.5 2.6Zm10.2 0v1.4h-5.9v-.3l2.9-3.1.8-1.1.3-.9c0-.3-.1-.6-.3-.8a1 1 0 0 0-.8-.4 1 1 0 0 0-.8.4c-.2.2-.3.5-.3.8v.6h-1.6a2.7 2.7 0 0 1 .2-2l1-.9c.4-.2 1-.4 1.5-.4s1 .1 1.4.4c.4.2.7.5 1 .9.2.4.3.8.3 1.3s-.1 1-.4 1.5c-.3.4-.7 1-1.3 1.5l-1 1.1h3Zm7 0v1.4h-5.9v-.3l2.9-3.1.8-1.1.3-.9c0-.3-.1-.6-.3-.8a1 1 0 0 0-.8-.4 1 1 0 0 0-.8.4c-.2.2-.3.5-.3.8v.6h-1.6a2.7 2.7 0 0 1 .2-2l1-.9c.4-.2 1-.4 1.5-.4s1 .1 1.4.4c.4.2.8.5 1 .9.2.4.3.8.3 1.3s-.1 1-.4 1.5c-.3.4-.7 1-1.3 1.5l-1 1.1h3ZM251.7 254.1c-1 0-1.9-.4-2.4-1.2-.5-.9-.8-2-.8-3.3 0-1.3.3-2.3.8-3.1.6-.8 1.3-1.2 2.4-1.2 1 0 1.8.4 2.3 1.2.5.8.8 1.8.8 3.1s-.3 2.4-.8 3.3c-.5.8-1.3 1.2-2.3 1.2Zm0-.9c.7 0 1.2-.3 1.6-1 .3-.6.5-1.5.5-2.6 0-1-.2-1.9-.5-2.5-.4-.6-.9-.9-1.6-.9-.8 0-1.3.3-1.6 1-.4.5-.5 1.4-.5 2.4 0 1.1.2 2 .5 2.6.3.7.9 1 1.6 1Zm5.7 1c-.3 0-.5-.1-.6-.3a.8.8 0 0 1-.3-.6.8.8 0 0 1 .9-.8c.2 0 .4 0 .5.2l.3.6c0 .3-.1.5-.3.6-.1.2-.3.2-.5.2Zm5.7 0c-1 0-1.9-.5-2.4-1.3-.5-.9-.8-2-.8-3.3 0-1.3.3-2.3.8-3.1.5-.8 1.3-1.2 2.4-1.2 1 0 1.8.4 2.3 1.2.5.8.8 1.8.8 3.1s-.3 2.4-.8 3.3c-.5.8-1.3 1.2-2.3 1.2Zm0-1c.7 0 1.2-.3 1.5-1 .4-.6.5-1.5.5-2.6 0-1-.1-1.9-.4-2.5-.4-.6-1-.9-1.6-.9-.8 0-1.3.3-1.6 1-.4.5-.5 1.4-.5 2.4 0 1.1.1 2 .5 2.6.3.7.8 1 1.6 1Zm8 1c-1 0-1.9-.5-2.4-1.3-.5-.9-.8-2-.8-3.3 0-1.3.3-2.3.8-3.1.5-.8 1.3-1.2 2.4-1.2 1 0 1.8.4 2.3 1.2.5.8.8 1.8.8 3.1s-.3 2.4-.8 3.3c-.5.8-1.3 1.2-2.3 1.2Zm0-1c.7 0 1.2-.3 1.5-1 .4-.6.5-1.5.5-2.6 0-1-.1-1.9-.5-2.5-.3-.6-.8-.9-1.5-.9-.8 0-1.3.3-1.6 1-.4.5-.5 1.4-.5 2.4 0 1.1.1 2 .5 2.6.3.7.8 1 1.6 1Zm7-3.7a2.2 2.2 0 0 1-1.8-1 2 2 0 0 1-.4-1.1c0-.4.1-.8.3-1 .2-.4.4-.7.8-.8a2.1 2.1 0 0 1 2.1 0 2 2 0 0 1 1 1.8 2 2 0 0 1-1 1.8c-.3.2-.7.3-1 .3Zm4.4-4h1l-5 8.5h-.9l5-8.6Zm-4.5 3.2c.4 0 .7-.1 1-.4.2-.2.3-.5.3-1 0-.3 0-.6-.3-.9-.3-.3-.6-.4-1-.4-.3 0-.6.1-.9.4-.2.3-.3.6-.3 1s0 .7.3 1c.3.2.6.3 1 .3Zm5 5.4c-.4 0-.7 0-1-.2-.4-.2-.6-.5-.8-.8-.2-.3-.3-.7-.3-1a2 2 0 0 1 1-1.9 2 2 0 0 1 1.1-.3c.4 0 .7.1 1 .3a2 2 0 0 1 1.1 1.8 2 2 0 0 1-1 1.9l-1 .2Zm0-.7c.4 0 .7-.2 1-.4.2-.3.3-.6.3-1s-.1-.7-.4-1c-.2-.2-.5-.3-.9-.3-.3 0-.7.1-.9.4-.2.2-.4.5-.4 1 0 .3.2.6.4.9.2.3.6.4 1 .4ZM282.5 223.4c-1 0-1.8-.4-2.3-1.3-.6-.8-.8-1.9-.8-3.2 0-1.3.3-2.4.8-3.2.5-.8 1.3-1.2 2.3-1.2 1 0 1.9.4 2.4 1.2.5.8.8 1.9.8 3.2 0 1.3-.3 2.4-.8 3.2-.5.9-1.3 1.3-2.4 1.3Zm0-1c.8 0 1.3-.3 1.6-1 .3-.5.5-1.4.5-2.5 0-1-.1-2-.5-2.5-.3-.6-.8-1-1.6-1-.7 0-1.2.4-1.6 1-.3.6-.5 1.4-.5 2.5 0 1 .2 2 .5 2.6.4.6 1 1 1.6 1ZM257.7 185v8.5h-1v-7.3l-1.9.5-.2-.8 2.7-1h.4Zm3.2 8.7c-.2 0-.4 0-.6-.3a.8.8 0 0 1-.2-.5.8.8 0 0 1 .8-.9l.6.3c.2.1.2.3.2.6 0 .2 0 .4-.2.5l-.6.3Zm5.7 0c-1 0-1.8-.4-2.3-1.3-.6-.8-.8-2-.8-3.2 0-1.3.2-2.4.8-3.2.5-.8 1.3-1.2 2.3-1.2 1 0 1.8.4 2.4 1.2.5.8.8 1.9.8 3.2 0 1.3-.3 2.4-.8 3.2-.5.9-1.3 1.3-2.4 1.3Zm0-1c.7 0 1.3-.3 1.6-1 .3-.6.5-1.4.5-2.5 0-1-.2-2-.5-2.5-.3-.6-.9-1-1.6-1-.7 0-1.2.4-1.6 1-.3.6-.5 1.4-.5 2.5 0 1 .2 2 .5 2.6.4.6.9 1 1.6 1Zm7.6-7.9a2.9 2.9 0 0 1 2.8 3.9l-.4.7-.7 1-2.1 3.1h-1.2l2.2-3.1a2 2 0 0 1-.7.1 2.8 2.8 0 0 1-2.5-1.4c-.2-.4-.3-.9-.3-1.4a2.8 2.8 0 0 1 2.9-2.9Zm0 4.9a1.9 1.9 0 0 0 2-2c0-.4-.2-.7-.3-1l-.7-.7c-.3-.2-.6-.3-1-.3a2 2 0 0 0-1.7 1 2 2 0 0 0-.2 1c0 .4 0 .7.2 1a2 2 0 0 0 1.7 1Zm4.8-4.7h1v8.5h-1V185Zm6.6 8.5h-1.3l-4.2-4.6 3.8-4h1.3l-3.8 4 4.2 4.6ZM255 163v1h-6v-.3l3-3.2c.6-.6 1-1 1.2-1.4.2-.4.4-.8.4-1.2 0-.4-.2-.9-.5-1.2-.3-.3-.7-.5-1.2-.5s-1 .2-1.2.5c-.3.4-.5.8-.5 1.3v.7h-1v-.8c0-.4 0-.8.3-1.2.2-.5.5-.8 1-1 .4-.3.9-.4 1.4-.4.5 0 1 0 1.4.3l1 1c.2.4.3.8.3 1.3 0 .4 0 .8-.2 1.1l-.6 1-1 1-1.9 2h4Zm4.7 1.1c-1 0-1.9-.4-2.4-1.2-.5-.9-.8-2-.8-3.3 0-1.3.3-2.3.8-3.1.6-.8 1.3-1.2 2.4-1.2 1 0 1.8.4 2.3 1.2.5.8.8 1.8.8 3.1s-.3 2.4-.8 3.3c-.5.8-1.3 1.2-2.3 1.2Zm0-.9c.7 0 1.2-.3 1.5-1 .4-.6.6-1.5.6-2.6 0-1-.2-1.9-.5-2.5-.4-.6-.9-.9-1.6-.9-.8 0-1.3.3-1.6 1-.4.5-.5 1.4-.5 2.4 0 1.1.2 2 .5 2.6.3.7.9 1 1.6 1Zm5.7 1c-.3 0-.5-.1-.6-.3a.8.8 0 0 1-.3-.6.8.8 0 0 1 .9-.8c.2 0 .4 0 .5.2l.3.6c0 .3-.1.5-.3.6-.1.2-.3.2-.5.2Zm5.7 0c-1 0-1.9-.5-2.4-1.3-.5-.9-.8-2-.8-3.3 0-1.3.3-2.3.8-3.1.5-.8 1.3-1.2 2.4-1.2 1 0 1.8.4 2.3 1.2.5.8.8 1.8.8 3.1s-.3 2.4-.8 3.3c-.5.8-1.3 1.2-2.3 1.2Zm0-1c.7 0 1.2-.3 1.5-1 .4-.6.5-1.5.5-2.6 0-1-.1-1.9-.5-2.5-.3-.6-.8-.9-1.5-.9-.8 0-1.3.3-1.6 1-.4.5-.5 1.4-.5 2.4 0 1.1.1 2 .5 2.6.3.7.8 1 1.6 1Zm7-3.7a2.2 2.2 0 0 1-1.8-1 2 2 0 0 1-.4-1.1c0-.4.1-.8.3-1 .2-.4.4-.7.8-.8a2.1 2.1 0 0 1 2.1 0 2 2 0 0 1 1 1.8 2 2 0 0 1-1 1.8c-.3.2-.7.3-1 .3Zm4.4-4h1l-5 8.5h-.9l5-8.6Zm-4.5 3.2c.4 0 .7-.1 1-.4.2-.2.3-.5.3-1 0-.3 0-.6-.3-.9-.3-.3-.6-.4-1-.4-.3 0-.6.1-.9.4-.2.3-.3.6-.3 1s0 .7.3 1c.3.2.6.3 1 .3Zm5 5.4c-.4 0-.7 0-1-.2-.4-.2-.6-.5-.8-.8-.2-.3-.3-.7-.3-1a2 2 0 0 1 1-1.9 2 2 0 0 1 1.1-.3c.4 0 .7.1 1 .3a2 2 0 0 1 1.1 1.8 2 2 0 0 1-1 1.9l-1 .2Zm0-.7c.4 0 .7-.2 1-.4.2-.3.3-.6.3-1s-.1-.7-.4-1c-.2-.2-.5-.3-.9-.3-.3 0-.7.1-.9.4-.2.2-.4.5-.4 1 0 .3.2.6.4.9.2.3.6.4 1 .4ZM259.3 131.9H258v1.6h-1v-1.6h-4.3v-.3l2.8-6.7h1l-2.5 6h3v-2.8h1v2.9h1.3v.9Zm2.3 1.7c-.2 0-.4 0-.5-.2a.8.8 0 0 1-.3-.6.8.8 0 0 1 .8-.8c.3 0 .5 0 .6.2.2.2.3.3.3.6l-.3.6-.6.2Zm5.7-5.5c.4 0 .8.2 1.2.4a2.4 2.4 0 0 1 1.3 2.2 2.7 2.7 0 0 1-1.6 2.6 3.3 3.3 0 0 1-4.4-1.5l.7-.5c.3.4.6.8 1 1 .3.2.7.4 1.2.4.6 0 1-.2 1.5-.6.3-.3.5-.8.5-1.3 0-.6-.2-1-.6-1.3-.3-.4-.9-.5-1.6-.5h-.8v-.3l2.2-2.9h-3.5v-1h5.1v.4l-2.2 2.9Zm6.8-3.4a2.9 2.9 0 0 1 2.7 3.9c0 .3-.2.5-.3.7l-.7 1-2.1 3.2h-1.2l2.1-3.2a2 2 0 0 1-.7.1 2.8 2.8 0 0 1-2.8-2.8 2.8 2.8 0 0 1 3-2.9Zm0 4.9a1.9 1.9 0 0 0 1.9-2c0-.4-.1-.7-.3-1-.1-.3-.4-.5-.7-.7-.3-.2-.6-.2-1-.2a2 2 0 0 0-1.6 1 2 2 0 0 0-.3 1l.3 1a2 2 0 0 0 1.7.9Zm4.7-4.7h1v8.6h-1v-8.6Zm6.7 8.6h-1.3l-4.3-4.6 3.9-4h1.3l-3.8 4 4.2 4.6Z"/><path stroke="#CBD5E1" d="M41 264.5h658M41 234.5h658M41 204.5h658M41 174.5h658M41 144.5h658M41.1 115.3l657.9-.8"/><path fill="#64748B" d="M43.7 156h3c.4 0 1 .2 1.3.4a2.2 2.2 0 0 1 1.3 2.1c0 .5-.1.9-.3 1.3l-1 .8a3 3 0 0 1-1.4.3H45v3.1h-1.3v-8Zm2.9 3.8c.4 0 .8-.1 1-.3.3-.3.4-.6.4-1s-.1-.7-.4-1c-.2-.2-.6-.3-1-.3H45v2.6h1.6Zm7-1.8.4.1v1.1h-.4c-.5 0-.9.2-1.2.5-.4.2-.5.6-.5 1.2v3.1h-1.3v-5.9h1.2v.8a2.1 2.1 0 0 1 1.7-.9Zm4.1 6.1c-.5 0-1-.1-1.5-.4-.5-.3-.9-.6-1.2-1.1a3 3 0 0 1-.4-1.6 3 3 0 0 1 1.6-2.6c.4-.3 1-.4 1.5-.4.6 0 1.1.1 1.6.4.5.3.9.6 1.1 1.1.3.5.5 1 .5 1.5 0 .6-.2 1.1-.5 1.6a3 3 0 0 1-2.7 1.5Zm0-1.1a1.8 1.8 0 0 0 1.6-1c.2-.3.3-.6.3-1l-.3-1a1.8 1.8 0 0 0-1.6-.9 1.8 1.8 0 0 0-1.5 1 2 2 0 0 0-.3 1c0 .3 0 .6.3 1 .1.2.3.5.6.6.3.2.6.3 1 .3Zm3.8 3.3-.8-.1v-1h.5c.4 0 .6-.1.8-.3.2-.1.3-.4.3-.8v-6h1.3v6.1c0 .7-.2 1.2-.6 1.6-.4.3-.9.5-1.5.5Zm1.5-9.6c-.3 0-.5 0-.7-.2a.8.8 0 0 1-.2-.6c0-.2 0-.4.2-.6l.7-.2c.2 0 .4 0 .6.2l.2.6c0 .2 0 .4-.2.6-.2.2-.4.2-.6.2Zm7.8 4-.1.8h-4.4c0 .4.3.8.6 1.1.4.3.8.4 1.3.4.6 0 1.2-.2 1.7-.7l.6.9a3.3 3.3 0 0 1-4 .6 3 3 0 0 1-1-1.2 3 3 0 0 1-.5-1.5c0-.6.2-1.1.4-1.6a3 3 0 0 1 4-1.2c.5.3.8.6 1 1 .3.4.4.9.4 1.4ZM68 159c-.4 0-.8.2-1 .4-.4.3-.6.6-.7 1h3.2c0-.4-.1-.7-.4-1-.3-.2-.7-.4-1-.4Zm7 5.1a3 3 0 1 1 0-6.2 2.8 2.8 0 0 1 2.5 1.4l-1 .7c-.3-.6-.9-.9-1.5-.9a1.8 1.8 0 0 0-1.6 1 2 2 0 0 0-.2 1c0 .3 0 .6.2 1a1.8 1.8 0 0 0 1.6.9c.6 0 1.2-.3 1.6-1l.9.8a2.9 2.9 0 0 1-2.5 1.4Zm6.6-1.1h.8v1l-1 .1c-.8 0-1.3-.1-1.7-.5-.4-.3-.6-.8-.6-1.5v-2.9h-1v-1h1v-1.6h1.3v1.5h1.8v1.1h-1.8v2.8c0 .3.1.6.3.8l.9.2Zm7.3-2.3v.8h-4.5c.1.4.3.8.7 1.1.3.3.8.4 1.3.4.6 0 1.1-.2 1.7-.7l.6.9c-.7.6-1.5 1-2.4 1-.6 0-1.1-.2-1.6-.5a3 3 0 0 1-1.1-1 3 3 0 0 1-.4-1.6c0-.6 0-1.1.3-1.6a3 3 0 0 1 4-1.2c.5.3.8.6 1 1 .3.4.4.9.4 1.4Zm-2.7-1.7c-.5 0-.8.2-1.1.4-.3.3-.5.6-.6 1h3.2c0-.4-.2-.7-.5-1-.3-.2-.6-.4-1-.4Zm10-4v9h-1.3v-.8l-.8.7-1.2.2c-.6 0-1-.1-1.5-.4-.4-.2-.8-.6-1-1-.3-.5-.4-1-.4-1.6 0-.6.1-1.1.4-1.6.2-.5.6-.9 1-1.1.4-.3 1-.4 1.5-.4.4 0 .8 0 1 .2.4.1.7.4 1 .6V155H96Zm-3.1 8c.3 0 .6 0 .9-.2l.6-.7c.2-.3.3-.6.3-1 0-.5-.1-.8-.3-1.1l-.6-.7a1.8 1.8 0 0 0-2.5.8 2 2 0 0 0-.2 1c0 .3 0 .7.2 1 .2.2.4.5.7.6.2.2.5.3.9.3Zm15.8-7v8h-1.3v-5l-2.2 3h-.5l-2.2-3v5h-1.3v-8h.4l3.4 4.4 3.3-4.5h.4Zm4.6 8.1c-.6 0-1.1-.1-1.6-.4-.4-.3-.8-.6-1.1-1.1a3 3 0 0 1-.4-1.6 3 3 0 0 1 1.5-2.6c.5-.3 1-.4 1.6-.4.6 0 1.1.1 1.6.4.5.3.8.6 1.1 1.1.3.5.4 1 .4 1.5a3 3 0 0 1-3.1 3Zm0-1.1a1.8 1.8 0 0 0 1.6-1c.2-.3.2-.6.2-1 0-.3 0-.6-.2-1a1.8 1.8 0 0 0-1.6-.9 1.8 1.8 0 0 0-1.6 1 2 2 0 0 0-.2 1c0 .3 0 .6.2 1 .2.2.4.5.7.6.2.2.6.3.9.3Zm7.5-5a2 2 0 0 1 1.6.6c.4.4.6 1 .6 1.7v3.7H122v-3.5c0-.4-.2-.8-.4-1-.2-.3-.5-.4-1-.4-.3 0-.6.1-.9.4-.2.3-.4.6-.4 1v3.5h-1.2v-5.9h1.1v.6c.5-.5 1-.7 1.8-.7Zm6.7 5h.8v1l-1 .1c-.7 0-1.3-.1-1.7-.5-.3-.3-.5-.8-.5-1.5v-2.9h-1v-1h1v-1.6h1.2v1.5h1.8v1.1h-1.8v2.8c0 .3.1.6.3.8l.9.2Zm5-5a2 2 0 0 1 1.6.6c.4.5.6 1 .6 1.7v3.7h-1.3v-3.5c0-.4 0-.7-.3-1-.2-.2-.5-.4-1-.4-.3 0-.7.2-1 .4-.2.3-.3.6-.3 1v3.5h-1.2v-9h1.2v3.7l.7-.5c.3-.2.7-.2 1-.2Zm4-3h1.2v9h-1.2v-9Zm8.5 3.1-2.9 6.6a3 3 0 0 1-.9 1.2 2 2 0 0 1-1.2.4 4 4 0 0 1-1-.1V165h.7l.7-.1.6-.7.2-.6-2.3-5.6h1.3l1.7 4.3 1.7-4.3h1.4Zm4.6-2h5.2v1.1h-4v2h3v1.2h-3v2.5h4.1v1.1h-5.3v-8Zm10.4 7.9-1.5-2.2-1.5 2.2h-1.4l2.2-3-2-2.9h1.4l1.3 2 1.3-2h1.4l-2 2.9 2.2 3h-1.4Zm2.5-5.9h1.2v5.9h-1.2v-5.9Zm.6-1.4c-.2 0-.4 0-.6-.2a.8.8 0 0 1-.2-.6c0-.2 0-.4.2-.6l.6-.2c.3 0 .5 0 .6.2l.3.6-.3.6c-.1.2-.3.2-.6.2Zm5.2 6.3h.8v1l-1 .1c-.8 0-1.3-.1-1.7-.5-.4-.3-.5-.8-.5-1.5v-2.9h-1v-1h1v-1.6h1.2v1.5h1.8v1.1h-1.8v2.8c0 .3.1.6.3.8l.9.2Zm10.5 1-2.3-3h-1.4v3H174v-8h2.9c.5 0 1 .2 1.4.4a2.2 2.2 0 0 1 1.3 2.1 2.3 2.3 0 0 1-1.5 2.2l2.3 3.3H179Zm-3.7-4.2h1.6c.4 0 .7-.1 1-.3.2-.3.4-.6.4-1s-.2-.7-.4-1c-.3-.2-.6-.3-1-.3h-1.6v2.6Zm8.3-1.8c.8 0 1.3.2 1.8.6.4.4.6 1 .6 1.8v3.6H185v-.7c-.2.3-.5.5-.8.6-.4.2-.7.2-1.1.2-.6 0-1.1-.1-1.5-.4-.4-.3-.6-.8-.6-1.3s.2-.9.6-1.2c.4-.3 1-.5 1.6-.5h1.7v-.3c0-.4-.1-.8-.4-1-.2-.2-.5-.3-.9-.3-.3 0-.6 0-.9.2l-.7.7-.8-.8 1.1-1 1.4-.2Zm-.4 5.2c.5 0 .8-.2 1.1-.4.3-.3.5-.6.5-1v-.1h-1.5l-.8.1c-.2.2-.3.3-.3.6l.3.6.7.2Zm7.3-.2h.8v1l-1 .1c-.7 0-1.3-.1-1.6-.5-.4-.3-.6-.8-.6-1.5v-2.9h-1v-1h1v-1.6h1.3v1.5h1.7v1.1h-1.7v2.8c0 .3 0 .6.2.8l1 .2Zm7.4-2.3-.1.8h-4.4c0 .4.3.8.6 1.1.4.3.8.4 1.3.4.6 0 1.2-.2 1.7-.7l.6.9c-.7.6-1.4 1-2.3 1-.6 0-1.2-.2-1.7-.5a3 3 0 0 1-1.1-1 3 3 0 0 1-.4-1.6 3 3 0 0 1 4.4-2.7c.4.2.8.5 1 .9.2.4.4.9.4 1.4ZM195 159c-.4 0-.8.2-1.1.4-.3.3-.5.6-.6 1h3.2c0-.4-.2-.7-.5-1-.2-.2-.6-.4-1-.4ZM42 186h2.9c.5 0 1 .2 1.4.4a2.2 2.2 0 0 1 1.3 2.1c0 .5-.1.9-.4 1.3-.2.3-.5.6-1 .8a3 3 0 0 1-1.3.3h-1.6v3.1H42v-8Zm2.9 3.8c.4 0 .8-.1 1-.3.2-.3.4-.6.4-1s-.2-.7-.4-1c-.2-.2-.6-.3-1-.3h-1.6v2.6h1.6Zm6.9-1.8.5.1v1.1h-.4c-.5 0-1 .2-1.3.5-.3.2-.4.6-.4 1.2v3.1h-1.3v-5.9h1.2v.8a2.1 2.1 0 0 1 1.7-.9Zm4.2 6.1c-.6 0-1-.1-1.6-.4-.4-.3-.8-.6-1-1.1a3 3 0 0 1-.5-1.6 3 3 0 0 1 1.5-2.6c.5-.3 1-.4 1.6-.4.6 0 1.1.1 1.6.4.5.3.9.6 1.1 1.1.3.5.4 1 .4 1.5 0 .6 0 1.1-.4 1.6a3 3 0 0 1-2.7 1.5Zm0-1.1a1.8 1.8 0 0 0 1.6-1c.2-.3.3-.6.3-1l-.3-1a1.8 1.8 0 0 0-1.6-.9 1.8 1.8 0 0 0-1.6 1 2 2 0 0 0-.2 1c0 .3 0 .6.2 1 .2.2.4.5.7.6.3.2.6.3 1 .3Zm3.8 3.3-.9-.1v-1h.6c.3 0 .6-.1.8-.3.2-.1.3-.4.3-.8v-6h1.3v6.1c0 .7-.2 1.2-.6 1.6-.4.3-.9.5-1.5.5Zm1.4-9.6c-.2 0-.4 0-.6-.2a.8.8 0 0 1-.2-.6c0-.2 0-.4.2-.6l.6-.2c.3 0 .5 0 .6.2l.3.6-.3.6c-.1.2-.3.2-.6.2Zm7.9 4-.1.8h-4.4c0 .4.3.8.6 1.1.4.3.8.4 1.3.4.6 0 1.2-.2 1.7-.7l.6.9c-.7.6-1.4 1-2.3 1-.6 0-1.2-.2-1.7-.5a3 3 0 0 1-1-1 3 3 0 0 1-.5-1.6 3 3 0 0 1 4.4-2.7c.5.2.8.5 1 .9.3.4.4.9.4 1.4Zm-2.8-1.7c-.4 0-.8.2-1 .4-.4.3-.6.6-.7 1h3.2c0-.4-.1-.7-.4-1-.3-.2-.7-.4-1.1-.4Zm7 5.1a3 3 0 1 1 0-6.2 2.8 2.8 0 0 1 2.4 1.4l-.8.7c-.5-.6-1-.9-1.6-.9a1.8 1.8 0 0 0-1.6 1 2 2 0 0 0-.3 1l.3 1a1.8 1.8 0 0 0 1.6.9c.6 0 1.1-.3 1.6-1l.8.8a2.9 2.9 0 0 1-2.5 1.4Zm6.6-1.1h.7v1l-1 .1c-.7 0-1.2-.1-1.6-.5-.4-.3-.6-.8-.6-1.5v-2.9h-1v-1h1v-1.6h1.3v1.5h1.8v1.1h-1.8v2.8c0 .3 0 .6.3.8l.9.2Zm7.3-2.3v.8h-4.5c0 .4.3.8.7 1.1.3.3.7.4 1.2.4.7 0 1.2-.2 1.8-.7l.6.9c-.7.6-1.5 1-2.4 1-.6 0-1.1-.2-1.6-.5a3 3 0 0 1-1.2-1 3 3 0 0 1-.4-1.6c0-.6.2-1.1.4-1.6a3 3 0 0 1 4-1.2c.5.3.8.6 1 1 .3.4.4.9.4 1.4Zm-2.8-1.7c-.4 0-.7.2-1 .4-.4.3-.6.6-.7 1H86c0-.4-.1-.7-.4-1-.3-.2-.7-.4-1-.4Zm10-4v9h-1.2v-.8l-.8.7-1.2.2c-.6 0-1-.1-1.5-.4-.5-.2-.8-.6-1-1-.3-.5-.4-1-.4-1.6 0-.6.1-1.1.3-1.6.3-.5.6-.9 1-1.1.5-.3 1-.4 1.6-.4.4 0 .7 0 1 .2.4.1.7.4 1 .6V185h1.2Zm-3 8c.3 0 .6 0 .8-.2l.7-.7c.2-.3.2-.6.2-1 0-.5 0-.8-.2-1.1l-.7-.7a1.8 1.8 0 0 0-2.4.8 2 2 0 0 0-.2 1c0 .3 0 .7.2 1l.6.6c.3.2.6.3 1 .3Zm8.3-7h5.2v1.2h-4v2h3v1.2h-3v2.5h4.1v1.1h-5.3v-8Zm10.3 8-1.4-2.2-1.5 2.2h-1.4l2.2-3-2-2.9h1.4l1.3 2 1.3-2h1.4l-2 2.9 2.2 3H110Zm2.6-5.9h1.2v5.9h-1.2v-5.9Zm.6-1.4c-.2 0-.4 0-.6-.2a.8.8 0 0 1-.3-.6l.3-.6.6-.2c.2 0 .4 0 .6.2l.3.6-.3.6c-.2.2-.4.2-.6.2Zm5.2 6.3h.8v1l-1 .1c-.8 0-1.3-.1-1.7-.5-.4-.3-.6-.8-.6-1.5v-2.9h-1v-1h1v-1.6h1.3v1.5h1.8v1.1h-1.8v2.8c0 .3.1.6.3.8l.9.2Zm9.2 1.1a4.2 4.2 0 0 1-3.6-2 4 4 0 0 1-.6-2 4 4 0 0 1 2-3.6c.7-.4 1.4-.6 2.2-.6a4 4 0 0 1 3.4 1.9l-1 .7a3 3 0 0 0-1-1c-.4-.3-.9-.4-1.4-.4-.6 0-1 .1-1.5.4-.4.2-.8.6-1 1a3 3 0 0 0-.4 1.5c0 .6.2 1 .4 1.5a2.8 2.8 0 0 0 2.5 1.5c.5 0 1-.1 1.4-.4a3 3 0 0 0 1-1l1 .7a4 4 0 0 1-3.4 1.8Zm7.4 0c-.5 0-1-.1-1.5-.4-.5-.3-.9-.6-1.2-1.1a3 3 0 0 1-.4-1.6 3 3 0 0 1 1.6-2.6c.4-.3 1-.4 1.5-.4.6 0 1.1.1 1.6.4.5.3.9.6 1.1 1.1.3.5.5 1 .5 1.5 0 .6-.2 1.1-.5 1.6a3 3 0 0 1-2.7 1.5Zm0-1.1a1.8 1.8 0 0 0 1.6-1c.2-.3.3-.6.3-1l-.3-1a1.8 1.8 0 0 0-1.6-.9 1.8 1.8 0 0 0-1.6 1 2 2 0 0 0-.2 1c0 .3 0 .6.2 1 .2.2.4.5.7.6.3.2.6.3 1 .3Zm7.1 1.1c-.5 0-1 0-1.3-.3-.4-.2-.7-.5-1-.9-.1-.4-.3-.9-.3-1.4v-3.4h1.3v3.5c0 .4.1.8.4 1 .2.2.5.4 1 .4.3 0 .6-.2.8-.4.3-.2.4-.6.4-1v-3.5h1.3v3.4c0 .5-.1 1-.4 1.4-.2.4-.5.7-.9 1l-1.3.2Zm7.3-6.1a2 2 0 0 1 1.6.6c.4.4.6 1 .6 1.7v3.7h-1.3v-3.5c0-.4 0-.8-.3-1-.3-.3-.6-.4-1-.4-.3 0-.7.1-1 .4-.2.3-.3.6-.3 1v3.5h-1.3v-5.9h1.2v.6c.5-.5 1-.7 1.8-.7Zm6.7 5h.8v1l-1 .1c-.8 0-1.3-.1-1.7-.5-.4-.3-.6-.8-.6-1.5v-2.9h-1v-1h1v-1.6h1.3v1.5h1.8v1.1h-1.8v2.8c0 .3.1.6.3.8l.9.2ZM42 216h2.9c.5 0 1 .2 1.4.4a2.2 2.2 0 0 1 1.3 2.1c0 .5-.1.9-.4 1.3-.2.3-.5.6-1 .8a3 3 0 0 1-1.3.3h-1.6v3.1H42v-8Zm2.9 3.8c.4 0 .8-.1 1-.3.2-.3.4-.6.4-1s-.2-.7-.4-1c-.2-.2-.6-.3-1-.3h-1.6v2.6h1.6Zm6.9-1.8.5.1v1.1h-.4c-.5 0-1 .2-1.3.5-.3.2-.4.6-.4 1.2v3.1h-1.3v-5.9h1.2v.8a2.1 2.1 0 0 1 1.7-.9Zm4.2 6.1c-.6 0-1-.1-1.6-.4-.4-.3-.8-.6-1-1.1a3 3 0 0 1-.5-1.6 3 3 0 0 1 1.5-2.6c.5-.3 1-.4 1.6-.4.6 0 1.1.1 1.6.4.5.3.9.6 1.1 1.1.3.5.4 1 .4 1.5 0 .6 0 1.1-.4 1.6a3 3 0 0 1-2.7 1.5Zm0-1.1a1.8 1.8 0 0 0 1.6-1c.2-.3.3-.6.3-1l-.3-1a1.8 1.8 0 0 0-1.6-.9 1.8 1.8 0 0 0-1.6 1 2 2 0 0 0-.2 1c0 .3 0 .6.2 1 .2.2.4.5.7.6.3.2.6.3 1 .3Zm3.8 3.3-.9-.1v-1h.6c.3 0 .6-.1.8-.3.2-.1.3-.4.3-.8v-6h1.3v6.1c0 .7-.2 1.2-.6 1.6-.4.3-.9.5-1.5.5Zm1.4-9.6c-.2 0-.4 0-.6-.2a.8.8 0 0 1-.2-.6c0-.2 0-.4.2-.6l.6-.2c.3 0 .5 0 .6.2l.3.6-.3.6c-.1.2-.3.2-.6.2Zm7.9 4-.1.8h-4.4c0 .4.3.8.6 1.1.4.3.8.4 1.3.4.6 0 1.2-.2 1.7-.7l.6.9c-.7.6-1.4 1-2.3 1-.6 0-1.2-.2-1.7-.5a3 3 0 0 1-1-1 3 3 0 0 1-.5-1.6 3 3 0 0 1 4.4-2.7c.5.2.8.5 1 .9.3.4.4.9.4 1.4Zm-2.8-1.7c-.4 0-.8.2-1 .4-.4.3-.6.6-.7 1h3.2c0-.4-.1-.7-.4-1-.3-.2-.7-.4-1.1-.4Zm7 5.1a3 3 0 1 1 0-6.2 2.8 2.8 0 0 1 2.4 1.4l-.8.7c-.5-.6-1-.9-1.6-.9a1.8 1.8 0 0 0-1.6 1 2 2 0 0 0-.3 1l.3 1a1.8 1.8 0 0 0 1.6.9c.6 0 1.1-.3 1.6-1l.8.8a2.9 2.9 0 0 1-2.5 1.4Zm6.6-1.1h.7v1l-1 .1c-.7 0-1.2-.1-1.6-.5-.4-.3-.6-.8-.6-1.5v-2.9h-1v-1h1v-1.6h1.3v1.5h1.8v1.1h-1.8v2.8c0 .3 0 .6.3.8l.9.2Zm7.3-2.3v.8h-4.5c0 .4.3.8.7 1.1.3.3.7.4 1.2.4.7 0 1.2-.2 1.8-.7l.6.9c-.7.6-1.5 1-2.4 1-.6 0-1.1-.2-1.6-.5a3 3 0 0 1-1.2-1 3 3 0 0 1-.4-1.6c0-.6.2-1.1.4-1.6a3 3 0 0 1 4-1.2c.5.3.8.6 1 1 .3.4.4.9.4 1.4Zm-2.8-1.7c-.4 0-.7.2-1 .4-.4.3-.6.6-.7 1H86c0-.4-.1-.7-.4-1-.3-.2-.7-.4-1-.4Zm10-4v9h-1.2v-.8l-.8.7-1.2.2c-.6 0-1-.1-1.5-.4-.5-.2-.8-.6-1-1-.3-.5-.4-1-.4-1.6 0-.6.1-1.1.3-1.6.3-.5.6-.9 1-1.1.5-.3 1-.4 1.6-.4.4 0 .7 0 1 .2.4.1.7.4 1 .6V215h1.2Zm-3 8c.3 0 .6 0 .8-.2l.7-.7c.2-.3.2-.6.2-1 0-.5 0-.8-.2-1.1l-.7-.7a1.8 1.8 0 0 0-2.4.8 2 2 0 0 0-.2 1c0 .3 0 .7.2 1l.6.6c.3.2.6.3 1 .3ZM102 224a3.4 3.4 0 0 1-3-1.7l.9-.7.9 1c.3.2.7.3 1.2.3.4 0 .7-.1 1-.3.2-.2.3-.5.3-.8 0-.3 0-.5-.2-.7l-1-.5-.8-.4c-.6-.3-1-.6-1.4-1-.3-.2-.4-.7-.4-1.2 0-.4 0-.8.3-1.1.2-.4.5-.6.9-.8a3 3 0 0 1 1.3-.3 3 3 0 0 1 2.5 1.5l-.9.6-.7-.7-1-.2c-.3 0-.6 0-.8.2-.2.2-.3.4-.3.7v.5l.4.4.7.3.8.4c.7.3 1.2.6 1.5 1 .3.3.4.7.4 1.2a2.2 2.2 0 0 1-1.3 2c-.4.2-.8.3-1.3.3Zm6.8-1.1h.8v1l-1 .1c-.7 0-1.2-.1-1.6-.5-.4-.3-.6-.8-.6-1.5v-2.9h-1v-1h1v-1.6h1.3v1.5h1.7v1.1h-1.7v2.8c0 .3 0 .6.3.8l.8.2Zm4.4-5c.7 0 1.3.2 1.7.6.5.4.7 1 .7 1.8v3.6h-1.2v-.7c-.2.3-.5.5-.8.6-.3.2-.7.2-1 .2-.7 0-1.2-.1-1.6-.4-.3-.3-.5-.8-.5-1.3s.2-.9.6-1.2c.4-.3.9-.5 1.5-.5h1.7v-.3c0-.4-.1-.8-.3-1-.2-.2-.5-.3-1-.3-.3 0-.6 0-.8.2l-.8.7-.7-.8 1-1 1.5-.2Zm-.4 5.2c.4 0 .8-.2 1-.4.4-.3.5-.6.5-1v-.1H113l-.8.1c-.2.2-.2.3-.2.6 0 .2 0 .4.2.6l.8.2Zm7.4-5.2.5.1v1.1h-.4c-.5 0-.9.2-1.2.5-.3.2-.5.6-.5 1.2v3.1h-1.3v-5.9h1.2v.8a2.1 2.1 0 0 1 1.7-.9Zm4.4 5h.7v1l-1 .1c-.7 0-1.2-.1-1.6-.5-.4-.3-.6-.8-.6-1.5v-2.9h-1v-1h1v-1.6h1.3v1.5h1.8v1.1h-1.8v2.8c0 .3 0 .6.3.8l.9.2Zm3.8 1.1a3 3 0 0 1-2.3-1.1l.7-.8c.2.3.5.5.8.6.2.2.5.2.8.2l.7-.1c.2-.1.3-.3.3-.5s0-.3-.2-.4a3 3 0 0 0-.6-.4l-.6-.2c-.6-.2-1-.5-1.2-.7-.2-.3-.4-.6-.4-1 0-.5.2-1 .6-1.3.4-.3 1-.4 1.5-.4.9 0 1.5.3 2 .9l-.6.8a2 2 0 0 0-1.4-.6 1 1 0 0 0-.6.1c-.2.1-.2.2-.2.4l.1.4.7.3.5.3c.6.2 1 .4 1.2.7.3.3.4.6.4 1 0 .6-.2 1-.6 1.4-.4.3-1 .4-1.6.4Zm10.8 0a4.2 4.2 0 0 1-3.6-2 4 4 0 0 1-.6-2 4 4 0 0 1 2.1-3.6c.7-.4 1.4-.6 2.1-.6a4 4 0 0 1 3.4 1.9l-1 .7a3 3 0 0 0-1-1c-.4-.3-.9-.4-1.4-.4-.5 0-1 .1-1.4.4-.5.2-.8.6-1 1a3 3 0 0 0-.4 1.5c0 .6 0 1 .3 1.5a2.8 2.8 0 0 0 2.5 1.5c.5 0 1-.1 1.4-.4a3 3 0 0 0 1-1l1 .7c-.3.6-.8 1-1.4 1.3a4 4 0 0 1-2 .5Zm7.5 0c-.6 0-1.1-.1-1.6-.4-.5-.3-.9-.6-1.1-1.1a3 3 0 0 1-.4-1.6 3 3 0 0 1 1.5-2.6c.5-.3 1-.4 1.6-.4.5 0 1 .1 1.5.4.5.3 1 .6 1.2 1.1.3.5.4 1 .4 1.5a3 3 0 0 1-3.1 3Zm0-1.1a1.8 1.8 0 0 0 1.6-1l.2-1c0-.3 0-.6-.2-1a1.8 1.8 0 0 0-1.6-.9 1.8 1.8 0 0 0-1.6 1 2 2 0 0 0-.3 1l.3 1 .6.6c.3.2.6.3 1 .3Zm7 1.1c-.4 0-.9 0-1.3-.3-.3-.2-.7-.5-.9-.9-.2-.4-.3-.9-.3-1.4v-3.4h1.2v3.5c0 .4.2.8.4 1 .3.2.6.4 1 .4.3 0 .6-.2.9-.4.2-.2.4-.6.4-1v-3.5h1.2v3.4c0 .5 0 1-.3 1.4-.2.4-.5.7-1 1l-1.2.2Zm7.3-6.1a2 2 0 0 1 1.6.6c.4.4.6 1 .6 1.7v3.7h-1.2v-3.5c0-.4-.1-.8-.4-1-.2-.3-.5-.4-1-.4-.3 0-.6.1-.9.4-.2.3-.4.6-.4 1v3.5h-1.2v-5.9h1.2v.6c.4-.5 1-.7 1.7-.7Zm6.7 5h.8v1l-1 .1c-.7 0-1.3-.1-1.6-.5-.4-.3-.6-.8-.6-1.5v-2.9h-1v-1h1v-1.6h1.2v1.5h1.8v1.1h-1.8v2.8c0 .3.1.6.3.8l1 .2ZM42 246h2.9c.5 0 1 .2 1.4.4a2.2 2.2 0 0 1 1.3 2.1c0 .5-.1.9-.4 1.3-.2.3-.5.6-1 .8a3 3 0 0 1-1.3.3h-1.6v3.1H42v-8Zm2.9 3.8c.4 0 .8-.1 1-.3.2-.3.4-.6.4-1s-.2-.7-.4-1c-.2-.2-.6-.3-1-.3h-1.6v2.6h1.6Zm6.9-1.8.5.1v1.1h-.4c-.5 0-1 .2-1.3.5-.3.2-.4.6-.4 1.2v3.1h-1.3v-5.9h1.2v.8a2.1 2.1 0 0 1 1.7-.9Zm4.2 6.1c-.6 0-1-.1-1.6-.4-.4-.3-.8-.6-1-1.1a3 3 0 0 1-.5-1.6 3 3 0 0 1 1.5-2.6c.5-.3 1-.4 1.6-.4.6 0 1.1.1 1.6.4.5.3.9.6 1.1 1.1.3.5.4 1 .4 1.5 0 .6 0 1.1-.4 1.6a3 3 0 0 1-2.7 1.5Zm0-1.1a1.8 1.8 0 0 0 1.6-1c.2-.3.3-.6.3-1l-.3-1a1.8 1.8 0 0 0-1.6-.9 1.8 1.8 0 0 0-1.6 1 2 2 0 0 0-.2 1c0 .3 0 .6.2 1 .2.2.4.5.7.6.3.2.6.3 1 .3Zm3.8 3.3-.9-.1v-1h.6c.3 0 .6-.1.8-.3.2-.1.3-.4.3-.8v-6h1.3v6.1c0 .7-.2 1.2-.6 1.6-.4.3-.9.5-1.5.5Zm1.4-9.6c-.2 0-.4 0-.6-.2a.8.8 0 0 1-.2-.6c0-.2 0-.4.2-.6l.6-.2c.3 0 .5 0 .6.2l.3.6-.3.6c-.1.2-.3.2-.6.2Zm7.9 4-.1.8h-4.4c0 .4.3.8.6 1.1.4.3.8.4 1.3.4.6 0 1.2-.2 1.7-.7l.6.9c-.7.6-1.4 1-2.3 1-.6 0-1.2-.2-1.7-.5a3 3 0 0 1-1-1 3 3 0 0 1-.5-1.6 3 3 0 0 1 4.4-2.7c.5.2.8.5 1 .9.3.4.4.9.4 1.4Zm-2.8-1.7c-.4 0-.8.2-1 .4-.4.3-.6.6-.7 1h3.2c0-.4-.1-.7-.4-1-.3-.2-.7-.4-1.1-.4Zm7 5.1a3 3 0 1 1 0-6.2 2.8 2.8 0 0 1 2.4 1.4l-.8.7c-.5-.6-1-.9-1.6-.9a1.8 1.8 0 0 0-1.6 1 2 2 0 0 0-.3 1l.3 1a1.8 1.8 0 0 0 1.6.9c.6 0 1.1-.3 1.6-1l.8.8a2.9 2.9 0 0 1-2.5 1.4Zm6.6-1.1h.7v1l-1 .1c-.7 0-1.2-.1-1.6-.5-.4-.3-.6-.8-.6-1.5v-2.9h-1v-1h1v-1.6h1.3v1.5h1.8v1.1h-1.8v2.8c0 .3 0 .6.3.8l.9.2Zm7.3-2.3v.8h-4.5c0 .4.3.8.7 1.1.3.3.7.4 1.2.4.7 0 1.2-.2 1.8-.7l.6.9c-.7.6-1.5 1-2.4 1-.6 0-1.1-.2-1.6-.5a3 3 0 0 1-1.2-1 3 3 0 0 1-.4-1.6c0-.6.2-1.1.4-1.6a3 3 0 0 1 4-1.2c.5.3.8.6 1 1 .3.4.4.9.4 1.4Zm-2.8-1.7c-.4 0-.7.2-1 .4-.4.3-.6.6-.7 1H86c0-.4-.1-.7-.4-1-.3-.2-.7-.4-1-.4Zm10-4v9h-1.2v-.8l-.8.7-1.2.2c-.6 0-1-.1-1.5-.4-.5-.2-.8-.6-1-1-.3-.5-.4-1-.4-1.6 0-.6.1-1.1.3-1.6.3-.5.6-.9 1-1.1.5-.3 1-.4 1.6-.4.4 0 .7 0 1 .2.4.1.7.4 1 .6V245h1.2Zm-3 8c.3 0 .6 0 .8-.2l.7-.7c.2-.3.2-.6.2-1 0-.5 0-.8-.2-1.1l-.7-.7a1.8 1.8 0 0 0-2.4.8 2 2 0 0 0-.2 1c0 .3 0 .7.2 1l.6.6c.3.2.6.3 1 .3Zm15.8-7v8h-1.3v-5l-2.3 3h-.4l-2.3-3v5h-1.2v-8h.4l3.3 4.4 3.4-4.5h.4Zm4.6 8.1c-.6 0-1.1-.1-1.6-.4a3 3 0 0 1-1.5-2.7 3 3 0 0 1 1.5-2.6c.5-.3 1-.4 1.6-.4.5 0 1 .1 1.6.4.4.3.8.6 1 1.1.4.5.5 1 .5 1.5a3 3 0 0 1-3.1 3Zm0-1.1a1.8 1.8 0 0 0 1.6-1l.2-1c0-.3 0-.6-.2-1a1.8 1.8 0 0 0-1.6-.9 1.8 1.8 0 0 0-1.6 1 2 2 0 0 0-.3 1l.3 1 .6.6c.3.2.6.3 1 .3Zm7.5-5a2 2 0 0 1 1.6.6c.4.4.6 1 .6 1.7v3.7h-1.3v-3.5c0-.4 0-.8-.3-1-.3-.3-.6-.4-1-.4-.3 0-.7.1-1 .4-.2.3-.3.6-.3 1v3.5h-1.3v-5.9h1.2v.6c.5-.5 1-.7 1.8-.7Zm6.7 5h.8v1l-1 .1c-.8 0-1.3-.1-1.7-.5-.4-.3-.6-.8-.6-1.5v-2.9h-1v-1h1v-1.6h1.3v1.5h1.8v1.1h-1.8v2.8c0 .3.1.6.3.8l.9.2Zm5-5a2 2 0 0 1 1.6.6c.4.5.6 1 .6 1.7v3.7h-1.3v-3.5c0-.4 0-.7-.3-1-.3-.2-.6-.4-1-.4s-.7.2-1 .4c-.2.3-.3.6-.3 1v3.5H128v-9h1.3v3.7l.7-.5c.3-.2.6-.2 1-.2Zm4-3h1.2v9h-1.3v-9Zm8.5 3.1-2.9 6.6a3 3 0 0 1-.9 1.2 2 2 0 0 1-1.3.4 4 4 0 0 1-1-.1V255h.8l.7-.1.5-.7.3-.6-2.4-5.6h1.4l1.7 4.3 1.7-4.3h1.4Zm7 6a3.4 3.4 0 0 1-3-1.7l.9-.7.9 1c.3.2.7.3 1.2.3.4 0 .7-.1 1-.3.2-.2.3-.5.3-.8 0-.3 0-.5-.2-.7l-1-.5-.8-.4c-.6-.3-1-.6-1.4-1-.3-.2-.5-.7-.5-1.2 0-.4.2-.8.4-1.1.2-.4.5-.6.9-.8a3 3 0 0 1 1.2-.3 3 3 0 0 1 2.6 1.5l-.9.6-.7-.7-1-.2c-.3 0-.6 0-.8.2-.2.2-.4.4-.4.7 0 .2 0 .4.2.5 0 .2.2.3.3.4l.6.3 1 .4c.6.3 1 .6 1.4 1 .3.3.4.7.4 1.2a2.2 2.2 0 0 1-1.3 2c-.4.2-.8.3-1.3.3Zm6.8-1.1h.8v1l-1 .1c-.7 0-1.2-.1-1.6-.5-.4-.3-.6-.8-.6-1.5v-2.9h-1v-1h1v-1.6h1.3v1.5h1.7v1.1h-1.7v2.8c0 .3 0 .6.3.8l.8.2Zm4.4-5c.7 0 1.3.2 1.7.6.5.4.7 1 .7 1.8v3.6h-1.2v-.7c-.2.3-.5.5-.8.6-.3.2-.7.2-1 .2-.7 0-1.2-.1-1.6-.4-.4-.3-.5-.8-.5-1.3s.2-.9.5-1.2c.4-.3 1-.5 1.6-.5h1.7v-.3c0-.4-.1-.8-.3-1-.3-.2-.6-.3-1-.3-.3 0-.6 0-.8.2l-.8.7-.7-.8 1-1 1.5-.2Zm-.4 5.2c.4 0 .8-.2 1-.4.4-.3.5-.6.5-1v-.1h-1.5l-.8.1c-.2.2-.3.3-.3.6l.3.6.8.2Zm7.4-5.2.5.1v1.1h-.4c-.5 0-.9.2-1.2.5-.3.2-.5.6-.5 1.2v3.1h-1.3v-5.9h1.2v.8a2.1 2.1 0 0 1 1.7-.9Zm4.4 5h.7v1l-1 .1c-.7 0-1.2-.1-1.6-.5-.4-.3-.6-.8-.6-1.5v-2.9h-1v-1h1v-1.6h1.3v1.5h1.7v1.1H172v2.8c0 .3 0 .6.3.8l.9.2Zm10.4 1-2.2-3h-1.5v3h-1.2v-8h2.8c.6 0 1 .2 1.5.4a2.2 2.2 0 0 1 1.2 2.1 2.3 2.3 0 0 1-1.5 2.2l2.4 3.3h-1.5Zm-3.7-4.2h1.6c.5 0 .8-.1 1-.3.3-.3.4-.6.4-1s-.1-.7-.3-1c-.3-.2-.6-.3-1-.3h-1.7v2.6Zm8.4-1.8c.7 0 1.3.2 1.7.6.5.4.7 1 .7 1.8v3.6h-1.2v-.7c-.2.3-.5.5-.8.6-.3.2-.7.2-1 .2-.7 0-1.2-.1-1.5-.4-.4-.3-.6-.8-.6-1.3s.2-.9.6-1.2c.4-.3.9-.5 1.6-.5h1.6v-.3c0-.4 0-.8-.3-1-.2-.2-.5-.3-1-.3-.3 0-.5 0-.8.2l-.8.7-.7-.8 1-1 1.5-.2Zm-.4 5.2c.4 0 .8-.2 1-.4.4-.3.5-.6.5-1v-.1h-1.5l-.8.1-.2.6c0 .2 0 .4.3.6l.7.2Zm7.3-.2h.8v1l-1 .1c-.8 0-1.3-.1-1.7-.5-.4-.3-.6-.8-.6-1.5v-2.9h-1v-1h1v-1.6h1.3v1.5h1.8v1.1h-1.8v2.8c0 .3.1.6.3.8l.9.2Zm7.3-2.3v.8h-4.5c.1.4.3.8.7 1.1.3.3.7.4 1.3.4.6 0 1.1-.2 1.7-.7l.6.9c-.7.6-1.5 1-2.4 1-.6 0-1.1-.2-1.6-.5a3 3 0 0 1-1.1-1 3 3 0 0 1-.5-1.6c0-.6.2-1.1.4-1.6a3 3 0 0 1 4-1.2c.5.3.8.6 1 1 .3.4.4.9.4 1.4Zm-2.8-1.7c-.4 0-.7.2-1 .4-.3.3-.5.6-.6 1h3.2c0-.4-.2-.7-.5-1-.3-.2-.6-.4-1-.4ZM44 127h2.9c.5 0 1 .2 1.4.4a2.2 2.2 0 0 1 1.3 2.1c0 .5-.1.9-.4 1.3-.2.3-.5.6-1 .8a3 3 0 0 1-1.3.3h-1.6v3.1H44v-8Zm2.9 3.8c.4 0 .8-.1 1-.3.2-.3.4-.6.4-1s-.2-.7-.4-1c-.2-.2-.6-.3-1-.3h-1.6v2.6h1.6Zm6.9-1.8.5.1v1.1h-.4c-.5 0-1 .2-1.3.5-.3.2-.4.6-.4 1.2v3.1h-1.3v-5.9h1.2v.8a2.1 2.1 0 0 1 1.7-.9Zm4.2 6.1c-.6 0-1-.1-1.6-.4-.4-.3-.8-.6-1-1.1a3 3 0 0 1-.5-1.6 3 3 0 0 1 1.5-2.6c.5-.3 1-.4 1.6-.4.6 0 1.1.1 1.6.4.5.3.9.6 1.1 1.1.3.5.4 1 .4 1.5 0 .6 0 1.1-.4 1.6a3 3 0 0 1-2.7 1.5Zm0-1.1a1.8 1.8 0 0 0 1.6-1c.2-.3.3-.6.3-1l-.3-1a1.8 1.8 0 0 0-1.6-.9 1.8 1.8 0 0 0-1.6 1 2 2 0 0 0-.2 1c0 .3 0 .6.2 1 .2.2.4.5.7.6.3.2.6.3 1 .3Zm3.8 3.3-.9-.1v-1h.6c.3 0 .6-.1.8-.3.2-.1.3-.4.3-.8v-6h1.3v6.1c0 .7-.2 1.2-.6 1.6-.4.3-.9.5-1.5.5Zm1.4-9.6c-.2 0-.4 0-.6-.2a.8.8 0 0 1-.2-.6c0-.2 0-.4.2-.6l.6-.2c.3 0 .5 0 .6.2l.3.6-.3.6c-.1.2-.3.2-.6.2Zm7.9 4-.1.8h-4.4c0 .4.3.8.6 1.1.4.3.8.4 1.3.4.6 0 1.2-.2 1.7-.7l.6.9c-.7.6-1.4 1-2.3 1-.6 0-1.2-.2-1.7-.5a3 3 0 0 1-1-1 3 3 0 0 1-.5-1.6 3 3 0 0 1 4.4-2.7c.5.2.8.5 1 .9.3.4.4.9.4 1.4Zm-2.8-1.7c-.4 0-.8.2-1 .4-.4.3-.6.6-.7 1h3.2c0-.4-.1-.7-.4-1-.3-.2-.7-.4-1.1-.4Zm7 5.1a3 3 0 1 1 0-6.2 2.8 2.8 0 0 1 2.4 1.4l-.8.7c-.5-.6-1-.9-1.6-.9a1.8 1.8 0 0 0-1.6 1 2 2 0 0 0-.3 1l.3 1a1.8 1.8 0 0 0 1.6.9c.6 0 1.1-.3 1.6-1l.8.8a2.9 2.9 0 0 1-2.5 1.4Zm6.6-1.1h.7v1l-1 .1c-.7 0-1.2-.1-1.6-.5-.4-.3-.6-.8-.6-1.5v-2.9h-1v-1h1v-1.6h1.3v1.5h1.8v1.1h-1.8v2.8c0 .3 0 .6.3.8l.9.2Zm7.3-2.3v.8h-4.5c0 .4.3.8.7 1.1.3.3.7.4 1.2.4.7 0 1.2-.2 1.8-.7l.6.9c-.7.6-1.5 1-2.4 1-.6 0-1.1-.2-1.6-.5a3 3 0 0 1-1.2-1 3 3 0 0 1-.4-1.6c0-.6.2-1.1.4-1.6a3 3 0 0 1 4-1.2c.5.3.8.6 1 1 .3.4.4.9.4 1.4Zm-2.8-1.7c-.4 0-.7.2-1 .4-.4.3-.6.6-.7 1H88c0-.4-.1-.7-.4-1-.3-.2-.7-.4-1-.4Zm10-4v9h-1.2v-.8l-.8.7-1.2.2c-.6 0-1-.1-1.5-.4-.5-.2-.8-.6-1-1-.3-.5-.4-1-.4-1.6 0-.6.1-1.1.3-1.6.3-.5.6-.9 1-1.1.5-.3 1-.4 1.6-.4.4 0 .7 0 1 .2.4.1.7.4 1 .6V126h1.2Zm-3 8c.3 0 .6 0 .8-.2l.7-.7c.2-.3.2-.6.2-1 0-.5 0-.8-.2-1.1l-.7-.7a1.8 1.8 0 0 0-2.4.8 2 2 0 0 0-.2 1c0 .3 0 .7.2 1l.6.6c.3.2.6.3 1 .3Zm8.3-7h5.2v1.2h-4v2h3v1.2h-3v2.5h4.1v1.1h-5.3v-8Zm9.7 2a2 2 0 0 1 1.6.6c.4.4.6 1 .6 1.7v3.7h-1.3v-3.5c0-.4-.1-.8-.4-1-.2-.3-.5-.4-.9-.4s-.7.1-1 .4c-.2.3-.3.6-.3 1v3.5h-1.3v-5.9h1.2v.6c.4-.5 1-.7 1.8-.7Zm9.7-3v9h-1.2v-.8c-.2.3-.5.5-.9.7l-1.2.2c-.5 0-1-.1-1.5-.4-.4-.2-.7-.6-1-1-.2-.5-.4-1-.4-1.6 0-.6.2-1.1.4-1.6.3-.5.6-.9 1-1.1.5-.3 1-.4 1.5-.4.4 0 .8 0 1.1.2.4.1.7.4.9.6V126h1.3Zm-3 8c.3 0 .5 0 .8-.2l.7-.7.2-1c0-.5 0-.8-.2-1.1l-.7-.7a1.8 1.8 0 0 0-2.4.8 2 2 0 0 0-.3 1c0 .3.1.7.3 1 .1.2.3.5.6.6.3.2.6.3 1 .3Zm4.8-4.9h1.2v5.9H123v-5.9Zm.6-1.4c-.2 0-.4 0-.6-.2a.8.8 0 0 1-.2-.6c0-.2 0-.4.2-.6l.6-.2c.3 0 .5 0 .6.2l.3.6-.3.6c-.1.2-.3.2-.6.2Zm5.4 1.3a2 2 0 0 1 1.6.6c.4.4.6 1 .6 1.7v3.7H130v-3.5c0-.4-.2-.8-.4-1-.2-.3-.5-.4-1-.4-.3 0-.6.1-.9.4-.2.3-.4.6-.4 1v3.5H126v-5.9h1.1v.6c.5-.5 1-.7 1.8-.7Zm9.8.1v5.3c0 1-.3 1.6-.9 2.1a3 3 0 0 1-2.1.8 4 4 0 0 1-2.8-1.1l.7-.9c.3.3.6.5 1 .6.3.2.6.2 1 .2.6 0 1-.1 1.3-.4.3-.3.5-.7.5-1.2v-.5c-.2.3-.5.5-.9.7l-1.1.2a3 3 0 0 1-1.5-.4c-.4-.2-.7-.6-1-1a3 3 0 0 1-.4-1.6c0-.5.2-1 .4-1.5.3-.4.6-.8 1-1 .5-.3 1-.4 1.5-.4.4 0 .9 0 1.2.2.4.2.7.4.9.7v-.8h1.2Zm-3 4.7c.4 0 .8-.2 1.2-.5.3-.3.5-.8.5-1.4 0-.6-.2-1-.5-1.3-.4-.3-.8-.5-1.3-.5s-1 .2-1.3.5c-.3.3-.5.8-.5 1.3 0 .6.2 1 .5 1.4.4.3.8.5 1.3.5Zm8.2-6.7h1.3v3.1h4v-3.1h1.3v7.9h-1.3v-3.6h-4v3.6h-1.3v-8Zm13.8 4.6v.8h-4.5c.1.4.3.8.7 1.1.3.3.7.4 1.2.4.7 0 1.2-.2 1.8-.7l.6.9c-.7.6-1.5 1-2.4 1-.6 0-1.1-.2-1.6-.5a3 3 0 0 1-1.2-1 3 3 0 0 1-.4-1.6c0-.6.2-1.1.4-1.6a3 3 0 0 1 4-1.2c.5.3.8.6 1 1 .3.4.4.9.4 1.4ZM155 130c-.4 0-.7.2-1 .4-.4.3-.6.6-.7 1h3.3c0-.4-.2-.7-.5-1-.3-.2-.6-.4-1-.4Zm6.5-1c.8 0 1.3.2 1.8.6.4.4.6 1 .6 1.8v3.6h-1.1v-.7c-.3.3-.5.5-.8.6-.4.2-.7.2-1.1.2-.6 0-1.1-.1-1.5-.4-.4-.3-.6-.8-.6-1.3s.2-.9.6-1.2c.4-.3 1-.5 1.6-.5h1.7v-.3c0-.4-.2-.8-.4-1-.2-.2-.5-.3-.9-.3-.3 0-.6 0-.9.2l-.7.7-.8-.8 1.1-1 1.4-.2Zm-.4 5.2c.5 0 .8-.2 1.1-.4.3-.3.5-.6.5-1v-.1H161l-.8.1c-.2.2-.3.3-.3.6l.3.6.7.2Zm10.3-8.2v9h-1.1v-.8l-.9.7-1.2.2c-.6 0-1-.1-1.5-.4-.4-.2-.8-.6-1-1-.3-.5-.4-1-.4-1.6 0-.6.1-1.1.4-1.6.2-.5.6-.9 1-1.1.5-.3 1-.4 1.5-.4.4 0 .8 0 1.1.2.4.1.6.4.9.6V126h1.2Zm-3 8c.3 0 .6 0 .9-.2.2-.2.5-.4.6-.7.2-.3.3-.6.3-1 0-.5-.1-.8-.3-1.1-.1-.3-.4-.5-.6-.7a1.8 1.8 0 0 0-2.5.8 2 2 0 0 0-.2 1c0 .3 0 .7.2 1 .2.2.4.5.7.6.3.2.6.3 1 .3Zm7.6 1.1a3 3 0 1 1 0-6.2 2.8 2.8 0 0 1 2.5 1.4l-.9.7c-.4-.6-1-.9-1.6-.9a1.8 1.8 0 0 0-1.6 1 2 2 0 0 0-.2 1c0 .3 0 .6.2 1a1.8 1.8 0 0 0 1.6.9c.6 0 1.2-.3 1.6-1l.9.8a2.9 2.9 0 0 1-2.5 1.4Zm6.5 0c-.6 0-1-.1-1.6-.4-.4-.3-.8-.6-1.1-1.1a3 3 0 0 1-.4-1.6 3 3 0 0 1 1.5-2.6c.5-.3 1-.4 1.6-.4.6 0 1.1.1 1.6.4.5.3.8.6 1.1 1.1.3.5.4 1 .4 1.5a3 3 0 0 1-3.1 3Zm0-1.1a1.8 1.8 0 0 0 1.6-1c.2-.3.2-.6.2-1 0-.3 0-.6-.2-1a1.8 1.8 0 0 0-1.6-.9 1.8 1.8 0 0 0-1.6 1 2 2 0 0 0-.2 1c0 .3 0 .6.2 1 .2.2.4.5.7.6.2.2.6.3.9.3Zm7 1.1c-.4 0-.8 0-1.2-.3-.4-.2-.7-.5-1-.9-.2-.4-.3-.9-.3-1.4v-3.4h1.3v3.5c0 .4 0 .8.3 1 .3.2.6.4 1 .4s.7-.2 1-.4c.2-.2.3-.6.3-1v-3.5h1.3v3.4c0 .5-.2 1-.4 1.4-.2.4-.5.7-1 1l-1.2.2Zm7.4-6.1a2 2 0 0 1 1.6.6c.4.4.6 1 .6 1.7v3.7h-1.3v-3.5c0-.4-.1-.8-.4-1-.2-.3-.5-.4-.9-.4s-.7.1-1 .4c-.2.3-.3.6-.3 1v3.5h-1.3v-5.9h1.2v.6c.4-.5 1-.7 1.8-.7Zm6.6 5h.8v1l-1 .1c-.7 0-1.2-.1-1.6-.5-.4-.3-.6-.8-.6-1.5v-2.9h-1v-1h1v-1.6h1.3v1.5h1.7v1.1h-1.7v2.8c0 .3 0 .6.3.8l.8.2Z"/><path fill="#475569" d="M52 364.9h-1.8v3.1h-2.3v-3.1h-6.5V363l6.5-9.4h2.3v9.3H52v1.9Zm-4.1-2v-3.5a41 41 0 0 1 .1-3.1 15.3 15.3 0 0 1-1 1.6l-3.5 5H48Zm5.9 3.9c0-.5 0-1 .4-1.1.2-.3.6-.4 1-.4s.7.1 1 .4c.3.2.4.6.4 1 0 .6-.1 1-.4 1.2-.3.3-.6.4-1 .4s-.8-.2-1-.4c-.3-.2-.4-.6-.4-1.1ZM68 357c0 .6-.2 1.2-.4 1.7l-1.1 1.1c-.5.3-1 .6-1.6.7 1.2.2 2 .6 2.6 1.1.6.6.9 1.4.9 2.3 0 .8-.2 1.6-.6 2.2a4 4 0 0 1-1.8 1.5c-.9.4-2 .6-3.2.6-.8 0-1.5 0-2.2-.2a8 8 0 0 1-1.8-.6v-2a9 9 0 0 0 3.8 1c1.2 0 2-.3 2.6-.8.5-.4.8-1 .8-1.8 0-.5-.2-1-.4-1.3-.3-.3-.7-.5-1.3-.7-.5-.2-1.2-.2-2-.2H61v-1.9h1.2c.8 0 1.5 0 2-.3.5-.2.9-.5 1.1-.8l.3-1.2c0-.6-.2-1.1-.6-1.5-.4-.3-1-.5-1.7-.5a4.9 4.9 0 0 0-2.4.6l-1 .6-1-1.6a7.7 7.7 0 0 1 4.5-1.5c1.4 0 2.6.3 3.4 1A3 3 0 0 1 68 357Zm12 2.8c0 .9-.1 1.7-.3 2.5 0 .8-.3 1.6-.6 2.3a6 6 0 0 1-1.2 1.9c-.5.5-1.2 1-2 1.2a7.9 7.9 0 0 1-3.8.4h-.9v-2a6.4 6.4 0 0 0 1.8.3 5 5 0 0 0 2.8-.7c.7-.5 1.1-1 1.4-1.9.3-.8.5-1.7.5-2.7h-.1l-.7.9-1 .6c-.5.2-1 .2-1.6.2-.8 0-1.6-.1-2.2-.5-.6-.3-1-.8-1.4-1.5-.3-.7-.5-1.4-.5-2.4s.2-1.9.6-2.6a4 4 0 0 1 1.6-1.7 5 5 0 0 1 2.5-.6 5 5 0 0 1 2 .4c.6.3 1.1.7 1.6 1.2.4.5.8 1.2 1 2 .3.7.4 1.7.4 2.7Zm-5-4.4c-.8 0-1.4.3-1.8.8-.5.4-.7 1.2-.7 2.2 0 .8.2 1.4.6 2 .4.4 1 .6 1.8.6.5 0 1 0 1.4-.3.4-.2.7-.5 1-.9l.3-1a4.1 4.1 0 0 0-.7-2.3l-.8-.8c-.3-.2-.7-.3-1.2-.3ZM87.1 368H86l-2.3-3.2-.7.5v2.7h-1.1v-7.1h1.1v3.4l.5-.6.4-.5 2-2.3h1.3l-2.6 3 2.7 4.1ZM258.6 368h-9.7v-1.7l3.7-3.8a46.8 46.8 0 0 0 2.8-3.4l.3-1.5c0-.7-.2-1.2-.6-1.6-.4-.4-.9-.5-1.5-.5a4 4 0 0 0-1.8.3 8 8 0 0 0-1.6 1l-1.2-1.4 1.2-1a6.2 6.2 0 0 1 3.5-.9c.9 0 1.7.2 2.3.5a3.5 3.5 0 0 1 2 3.3 5 5 0 0 1-.4 2.2c-.3.6-.7 1.3-1.3 2l-2 2-2.5 2.4h6.8v2.1Zm11.4-7.1c0 1.1 0 2.1-.3 3a7 7 0 0 1-.8 2.4 4 4 0 0 1-1.5 1.4c-.6.3-1.4.5-2.3.5-1 0-2-.3-2.7-.9a5.2 5.2 0 0 1-1.6-2.5c-.3-1-.5-2.4-.5-4 0-1.5.2-2.8.5-3.9a5 5 0 0 1 1.5-2.5c.7-.6 1.7-.9 2.8-.9 1.2 0 2 .3 2.8.9a5 5 0 0 1 1.6 2.5c.3 1 .5 2.4.5 4Zm-7.4 0c0 1.2.1 2.2.3 3 .1.8.4 1.4.8 1.8.3.4.8.6 1.4.6a2 2 0 0 0 1.5-.6c.4-.4.7-1 .8-1.8a15.5 15.5 0 0 0 0-6c-.1-.9-.4-1.5-.8-1.9a2 2 0 0 0-1.5-.6 2 2 0 0 0-1.4.6c-.4.4-.7 1-.8 1.8-.2.9-.3 1.9-.3 3Zm9.6 5.9c0-.5.1-1 .4-1.1.3-.3.6-.4 1-.4s.8.1 1 .4c.3.2.5.6.5 1 0 .6-.2 1-.5 1.2-.2.3-.6.4-1 .4s-.7-.2-1-.4c-.3-.2-.4-.6-.4-1.1Zm14.7-6c0 1.2 0 2.2-.2 3.1a7 7 0 0 1-.9 2.4c-.4.6-.9 1-1.5 1.4-.6.3-1.3.5-2.2.5-1.1 0-2-.3-2.7-.9a5.2 5.2 0 0 1-1.6-2.5c-.4-1-.6-2.4-.6-4 0-1.5.2-2.8.5-3.9a5 5 0 0 1 1.6-2.5c.7-.6 1.6-.9 2.8-.9 1 0 2 .3 2.7.9a5 5 0 0 1 1.6 2.5c.4 1 .5 2.4.5 4Zm-7.3 0c0 1.3 0 2.3.2 3 .2.9.4 1.5.8 1.9.4.4.9.6 1.5.6a2 2 0 0 0 1.5-.6c.3-.4.6-1 .8-1.8l.2-3c0-1.2 0-2.2-.2-3-.2-.9-.5-1.5-.8-1.9a2 2 0 0 0-1.5-.6 2 2 0 0 0-1.5.6c-.4.4-.6 1-.8 1.8-.2.9-.2 1.9-.2 3Zm10.2 0c.5 0 1 .2 1.2.5.3.4.4 1 .4 1.7a3 3 0 0 1-.4 1.6c-.3.4-.7.6-1.2.6s-.9-.2-1.2-.6a3 3 0 0 1-.4-1.6c0-.7.2-1.3.4-1.7.3-.3.7-.5 1.2-.5Zm0 .8c-.2 0-.4 0-.5.3a3 3 0 0 0-.1 1.1l.1 1c.1.3.3.4.5.4s.4 0 .5-.3l.1-1.1-.1-1c-.1-.3-.3-.4-.5-.4Zm4.8-.7-4 7.1h-1l4-7.1h1Zm-.1 2.7c.5 0 .9.2 1.2.6.2.4.4 1 .4 1.6a3 3 0 0 1-.4 1.7c-.3.4-.7.6-1.2.6-.6 0-1-.2-1.2-.6a3 3 0 0 1-.4-1.7c0-.7.1-1.2.4-1.6.2-.4.6-.6 1.2-.6Zm0 .8c-.2 0-.4.1-.5.4a3 3 0 0 0-.1 1l.1 1.1c.1.3.3.4.5.4s.3-.1.4-.4c.2-.2.2-.6.2-1 0-.5 0-.9-.2-1.1 0-.3-.2-.4-.4-.4ZM516.6 368h-2.3v-11l.1-.8-.5.4-.6.6-1.7 1.3-1.1-1.5 4.2-3.3h2V368Zm5.2-1.2c0-.5 0-1 .4-1.1.2-.3.6-.4 1-.4s.7.1 1 .4c.3.2.4.6.4 1 0 .6-.1 1-.4 1.2-.3.3-.6.4-1 .4s-.8-.2-1-.4c-.3-.2-.4-.6-.4-1.1Zm14.7-6c0 1.2 0 2.2-.3 3.1a7 7 0 0 1-.8 2.4 4 4 0 0 1-1.5 1.4c-.6.3-1.4.5-2.3.5-1 0-2-.3-2.7-.9a5.2 5.2 0 0 1-1.6-2.5c-.3-1-.5-2.4-.5-4 0-1.5.2-2.8.5-3.9a5 5 0 0 1 1.5-2.5c.7-.6 1.7-.9 2.8-.9 1.1 0 2 .3 2.8.9a5 5 0 0 1 1.6 2.5c.3 1 .5 2.4.5 4Zm-7.4 0c0 1.3.1 2.3.3 3 .1.9.4 1.5.8 1.9.3.4.8.6 1.4.6a2 2 0 0 0 1.5-.6c.4-.4.7-1 .8-1.8a15.6 15.6 0 0 0 0-6c-.1-.9-.4-1.5-.8-1.9a2 2 0 0 0-1.5-.6 2 2 0 0 0-1.5.6c-.3.4-.6 1-.7 1.8-.2.9-.3 1.9-.3 3Zm18.8-1c0 .9 0 1.7-.2 2.5 0 .8-.3 1.6-.6 2.3a6 6 0 0 1-1.2 1.9c-.5.5-1.2 1-2 1.2a7.9 7.9 0 0 1-3.8.4h-.9v-2a6.4 6.4 0 0 0 1.8.3 5 5 0 0 0 2.8-.7c.7-.5 1.1-1 1.4-1.9.3-.8.5-1.7.5-2.7h-.1l-.7.9-1 .6c-.5.2-1 .2-1.6.2-.8 0-1.6-.1-2.2-.5-.6-.3-1-.8-1.4-1.5-.3-.7-.5-1.4-.5-2.4s.2-1.9.6-2.6a4 4 0 0 1 1.6-1.7 5 5 0 0 1 2.5-.6 5 5 0 0 1 2 .4c.6.3 1.1.7 1.6 1.2.4.5.8 1.2 1 2 .3.7.4 1.7.4 2.7Zm-5-4.4c-.7 0-1.3.3-1.7.8-.5.4-.7 1.2-.7 2.2 0 .8.2 1.4.6 2 .4.4 1 .6 1.8.6.5 0 1 0 1.4-.3.4-.2.7-.5 1-.9l.3-1a4.2 4.2 0 0 0-.7-2.3l-.8-.8c-.3-.2-.7-.3-1.2-.3Zm12.3 12.6H554l-2.3-3.2-.7.5v2.7h-1.1v-7.1h1.1v3.4l.5-.6.4-.5 2-2.3h1.3l-2.6 3 2.7 4.1Z"/><path fill="#64748B" d="M42 332h2.9c.5 0 1 .2 1.4.4a2.2 2.2 0 0 1 1.3 2.1c0 .5-.1.9-.4 1.3-.2.3-.5.6-1 .8a3 3 0 0 1-1.3.3h-1.6v3.1H42v-8Zm2.9 3.8c.4 0 .8-.1 1-.3.2-.3.4-.6.4-1s-.2-.7-.4-1c-.2-.2-.6-.3-1-.3h-1.6v2.6h1.6Zm6.9-1.8.5.1v1.1h-.4c-.5 0-1 .2-1.3.5-.3.2-.4.6-.4 1.2v3.1h-1.3v-5.9h1.2v.8a2.1 2.1 0 0 1 1.7-.9Zm4.2 6.1c-.6 0-1-.1-1.6-.4-.4-.3-.8-.6-1-1.1a3 3 0 0 1-.5-1.6 3 3 0 0 1 1.5-2.6c.5-.3 1-.4 1.6-.4.6 0 1.1.1 1.6.4.5.3.9.6 1.1 1.1.3.5.4 1 .4 1.5 0 .6 0 1.1-.4 1.6a3 3 0 0 1-2.7 1.5Zm0-1.1a1.8 1.8 0 0 0 1.6-1c.2-.3.3-.6.3-1l-.3-1a1.8 1.8 0 0 0-1.6-.9 1.8 1.8 0 0 0-1.6 1 2 2 0 0 0-.2 1c0 .3 0 .6.2 1 .2.2.4.5.7.6.3.2.6.3 1 .3Zm3.8 3.3-.9-.1v-1h.6c.3 0 .6-.1.8-.3.2-.1.3-.4.3-.8v-6h1.3v6.1c0 .7-.2 1.2-.6 1.6-.4.3-.9.5-1.5.5Zm1.4-9.6c-.2 0-.4 0-.6-.2a.8.8 0 0 1-.2-.6c0-.2 0-.4.2-.6l.6-.2c.3 0 .5 0 .6.2l.3.6-.3.6c-.1.2-.3.2-.6.2Zm7.9 4-.1.8h-4.4c0 .4.3.8.6 1.1.4.3.8.4 1.3.4.6 0 1.2-.2 1.7-.7l.6.9c-.7.6-1.4 1-2.3 1-.6 0-1.2-.2-1.7-.5a3 3 0 0 1-1-1 3 3 0 0 1-.5-1.6 3 3 0 0 1 4.4-2.7c.5.2.8.5 1 .9.3.4.4.9.4 1.4Zm-2.8-1.7c-.4 0-.8.2-1 .4-.4.3-.6.6-.7 1h3.2c0-.4-.1-.7-.4-1-.3-.2-.7-.4-1.1-.4Zm7 5.1a3 3 0 1 1 0-6.2 2.8 2.8 0 0 1 2.4 1.4l-.8.7c-.5-.6-1-.9-1.6-.9a1.8 1.8 0 0 0-1.6 1 2 2 0 0 0-.3 1l.3 1a1.8 1.8 0 0 0 1.6.9c.6 0 1.1-.3 1.6-1l.8.8a2.9 2.9 0 0 1-2.5 1.4Zm6.6-1.1h.7v1l-1 .1c-.7 0-1.2-.1-1.6-.5-.4-.3-.6-.8-.6-1.5v-2.9h-1v-1h1v-1.6h1.3v1.5h1.8v1.1h-1.8v2.8c0 .3 0 .6.3.8l.9.2Zm7.3-2.3v.8h-4.5c0 .4.3.8.7 1.1.3.3.7.4 1.2.4.7 0 1.2-.2 1.8-.7l.6.9c-.7.6-1.5 1-2.4 1-.6 0-1.1-.2-1.6-.5a3 3 0 0 1-1.2-1 3 3 0 0 1-.4-1.6c0-.6.2-1.1.4-1.6a3 3 0 0 1 4-1.2c.5.3.8.6 1 1 .3.4.4.9.4 1.4Zm-2.8-1.7c-.4 0-.7.2-1 .4-.4.3-.6.6-.7 1H86c0-.4-.1-.7-.4-1-.3-.2-.7-.4-1-.4Zm10-4v9h-1.2v-.8l-.8.7-1.2.2c-.6 0-1-.1-1.5-.4-.5-.2-.8-.6-1-1-.3-.5-.4-1-.4-1.6 0-.6.1-1.1.3-1.6.3-.5.6-.9 1-1.1.5-.3 1-.4 1.6-.4.4 0 .7 0 1 .2.4.1.7.4 1 .6V331h1.2Zm-3 8c.3 0 .6 0 .8-.2l.7-.7c.2-.3.2-.6.2-1 0-.5 0-.8-.2-1.1l-.7-.7a1.8 1.8 0 0 0-2.4.8 2 2 0 0 0-.2 1c0 .3 0 .7.2 1l.6.6c.3.2.6.3 1 .3Zm8.3-7h5.2v1.2h-4v2h3v1.2h-3v2.5h4.1v1.1h-5.3v-8Zm9.7 2a2 2 0 0 1 1.6.6c.4.4.6 1 .6 1.7v3.7h-1.3v-3.5c0-.4-.1-.8-.4-1-.2-.3-.5-.4-.9-.4s-.7.1-1 .4c-.2.3-.3.6-.3 1v3.5h-1.3v-5.9h1.2v.6c.4-.5 1-.7 1.8-.7Zm9.7-3v9h-1.2v-.8c-.2.3-.5.5-.9.7l-1.2.2c-.5 0-1-.1-1.5-.4-.4-.2-.7-.6-1-1-.2-.5-.4-1-.4-1.6 0-.6.2-1.1.4-1.6.3-.5.6-.9 1-1.1.5-.3 1-.4 1.5-.4.4 0 .8 0 1.1.2.4.1.7.4.9.6V331h1.3Zm-3 8c.3 0 .5 0 .8-.2l.7-.7.2-1c0-.5 0-.8-.2-1.1l-.7-.7a1.8 1.8 0 0 0-2.4.8 2 2 0 0 0-.3 1c0 .3.1.7.3 1 .1.2.3.5.6.6.3.2.6.3 1 .3Zm4.8-4.9h1.2v5.9H121v-5.9Zm.6-1.4c-.2 0-.4 0-.6-.2a.8.8 0 0 1-.2-.6c0-.2 0-.4.2-.6l.6-.2c.3 0 .5 0 .6.2l.3.6-.3.6c-.1.2-.3.2-.6.2Zm5.4 1.3a2 2 0 0 1 1.6.6c.4.4.6 1 .6 1.7v3.7H128v-3.5c0-.4-.2-.8-.4-1-.2-.3-.5-.4-1-.4-.3 0-.6.1-.9.4-.2.3-.4.6-.4 1v3.5H124v-5.9h1.1v.6c.5-.5 1-.7 1.8-.7Zm9.8.1v5.3c0 1-.3 1.6-.9 2.1a3 3 0 0 1-2.1.8 4 4 0 0 1-2.8-1.1l.7-.9c.3.3.6.5 1 .6.3.2.6.2 1 .2.6 0 1-.1 1.3-.4.3-.3.5-.7.5-1.2v-.5c-.2.3-.5.5-.9.7l-1.1.2a3 3 0 0 1-1.5-.4c-.4-.2-.7-.6-1-1a3 3 0 0 1-.4-1.6c0-.5.2-1 .4-1.5.3-.4.6-.8 1-1 .5-.3 1-.4 1.5-.4.4 0 .9 0 1.2.2.4.2.7.4.9.7v-.8h1.2Zm-3 4.7c.4 0 .8-.2 1.2-.5.3-.3.5-.8.5-1.4 0-.6-.2-1-.5-1.3-.4-.3-.8-.5-1.3-.5s-1 .2-1.3.5c-.3.3-.5.8-.5 1.3 0 .6.2 1 .5 1.4.4.3.8.5 1.3.5Zm8.2-6.7h1.3v3.1h4v-3.1h1.3v7.9h-1.3v-3.6h-4v3.6h-1.3v-8Zm13.8 4.6v.8h-4.5c.1.4.3.8.7 1.1.3.3.7.4 1.2.4.7 0 1.2-.2 1.8-.7l.6.9c-.7.6-1.5 1-2.4 1-.6 0-1.1-.2-1.6-.5a3 3 0 0 1-1.2-1 3 3 0 0 1-.4-1.6c0-.6.2-1.1.4-1.6a3 3 0 0 1 4-1.2c.5.3.8.6 1 1 .3.4.4.9.4 1.4ZM153 335c-.4 0-.7.2-1 .4-.4.3-.6.6-.7 1h3.3c0-.4-.2-.7-.5-1-.3-.2-.6-.4-1-.4Zm6.5-1c.8 0 1.3.2 1.8.6.4.4.6 1 .6 1.8v3.6h-1.1v-.7c-.3.3-.5.5-.8.6-.4.2-.7.2-1.1.2-.6 0-1.1-.1-1.5-.4-.4-.3-.6-.8-.6-1.3s.2-.9.6-1.2c.4-.3 1-.5 1.6-.5h1.7v-.3c0-.4-.2-.8-.4-1-.2-.2-.5-.3-.9-.3-.3 0-.6 0-.9.2l-.7.7-.8-.8 1.1-1 1.4-.2Zm-.4 5.2c.5 0 .8-.2 1.1-.4.3-.3.5-.6.5-1v-.1H159l-.8.1c-.2.2-.3.3-.3.6l.3.6.7.2Zm10.3-8.2v9h-1.1v-.8l-.9.7-1.2.2c-.6 0-1-.1-1.5-.4-.4-.2-.8-.6-1-1-.3-.5-.4-1-.4-1.6 0-.6.1-1.1.4-1.6.2-.5.6-.9 1-1.1.5-.3 1-.4 1.5-.4.4 0 .8 0 1.1.2.4.1.6.4.9.6V331h1.2Zm-3 8c.3 0 .6 0 .9-.2.2-.2.5-.4.6-.7.2-.3.3-.6.3-1 0-.5-.1-.8-.3-1.1-.1-.3-.4-.5-.6-.7a1.8 1.8 0 0 0-2.5.8 2 2 0 0 0-.2 1c0 .3 0 .7.2 1 .2.2.4.5.7.6.3.2.6.3 1 .3Zm7.6 1.1a3 3 0 1 1 0-6.2 2.8 2.8 0 0 1 2.5 1.4l-.9.7c-.4-.6-1-.9-1.6-.9a1.8 1.8 0 0 0-1.6 1 2 2 0 0 0-.2 1c0 .3 0 .6.2 1a1.8 1.8 0 0 0 1.6.9c.6 0 1.2-.3 1.6-1l.9.8a2.9 2.9 0 0 1-2.5 1.4Zm6.5 0c-.6 0-1-.1-1.6-.4-.4-.3-.8-.6-1.1-1.1a3 3 0 0 1-.4-1.6 3 3 0 0 1 1.5-2.6c.5-.3 1-.4 1.6-.4.6 0 1.1.1 1.6.4.5.3.8.6 1.1 1.1.3.5.4 1 .4 1.5a3 3 0 0 1-3.1 3Zm0-1.1a1.8 1.8 0 0 0 1.6-1c.2-.3.2-.6.2-1 0-.3 0-.6-.2-1a1.8 1.8 0 0 0-1.6-.9 1.8 1.8 0 0 0-1.6 1 2 2 0 0 0-.2 1c0 .3 0 .6.2 1 .2.2.4.5.7.6.2.2.6.3.9.3Zm7 1.1c-.4 0-.8 0-1.2-.3-.4-.2-.7-.5-1-.9-.2-.4-.3-.9-.3-1.4v-3.4h1.3v3.5c0 .4 0 .8.3 1 .3.2.6.4 1 .4s.7-.2 1-.4c.2-.2.3-.6.3-1v-3.5h1.3v3.4c0 .5-.2 1-.4 1.4-.2.4-.5.7-1 1l-1.2.2Zm7.4-6.1a2 2 0 0 1 1.6.6c.4.4.6 1 .6 1.7v3.7h-1.3v-3.5c0-.4-.1-.8-.4-1-.2-.3-.5-.4-.9-.4s-.7.1-1 .4c-.2.3-.3.6-.3 1v3.5h-1.3v-5.9h1.2v.6c.4-.5 1-.7 1.8-.7Zm6.6 5h.8v1l-1 .1c-.7 0-1.2-.1-1.6-.5-.4-.3-.6-.8-.6-1.5v-2.9h-1v-1h1v-1.6h1.3v1.5h1.7v1.1h-1.7v2.8c0 .3 0 .6.3.8l.8.2ZM249 332h2.9c.5 0 1 .2 1.4.4a2.2 2.2 0 0 1 1.3 2.1c0 .5-.1.9-.4 1.3-.2.3-.5.6-1 .8a3 3 0 0 1-1.3.3h-1.6v3.1H249v-8Zm2.9 3.8c.4 0 .8-.1 1-.3.2-.3.4-.6.4-1s-.2-.7-.4-1c-.2-.2-.6-.3-1-.3h-1.6v2.6h1.6Zm6.9-1.8.5.1v1.1h-.4c-.5 0-1 .2-1.3.5-.3.2-.4.6-.4 1.2v3.1h-1.3v-5.9h1.2v.8a2.1 2.1 0 0 1 1.7-.9Zm4.2 6.1c-.6 0-1-.1-1.6-.4-.4-.3-.8-.6-1-1.1a3 3 0 0 1-.5-1.6 3 3 0 0 1 1.5-2.6c.5-.3 1-.4 1.6-.4.6 0 1.1.1 1.6.4.5.3.9.6 1.1 1.1.3.5.4 1 .4 1.5 0 .6 0 1.1-.4 1.6a3 3 0 0 1-2.7 1.5Zm0-1.1a1.8 1.8 0 0 0 1.6-1c.2-.3.3-.6.3-1l-.3-1a1.8 1.8 0 0 0-1.6-.9 1.8 1.8 0 0 0-1.6 1 2 2 0 0 0-.2 1c0 .3 0 .6.2 1 .2.2.4.5.7.6.3.2.6.3 1 .3Zm3.8 3.3-.9-.1v-1h.6c.3 0 .6-.1.8-.3.2-.1.3-.4.3-.8v-6h1.3v6.1c0 .7-.2 1.2-.6 1.6-.4.3-.9.5-1.5.5Zm1.4-9.6c-.2 0-.4 0-.6-.2a.8.8 0 0 1-.2-.6c0-.2 0-.4.2-.6l.6-.2c.3 0 .5 0 .6.2l.3.6-.3.6c-.1.2-.3.2-.6.2Zm7.9 4-.1.8h-4.4c0 .4.3.8.6 1.1.4.3.8.4 1.3.4.6 0 1.2-.2 1.7-.7l.6.9c-.7.6-1.4 1-2.3 1-.6 0-1.2-.2-1.6-.5a3 3 0 0 1-1.2-1 3 3 0 0 1-.4-1.6 3 3 0 0 1 4.4-2.7c.5.2.8.5 1 .9.3.4.4.9.4 1.4Zm-2.8-1.7c-.4 0-.8.2-1 .4-.4.3-.6.6-.7 1h3.2c0-.4-.1-.7-.4-1-.3-.2-.7-.4-1.1-.4Zm7 5.1a3 3 0 1 1 0-6.2 2.8 2.8 0 0 1 2.4 1.4l-.8.7c-.5-.6-1-.9-1.6-.9a1.8 1.8 0 0 0-1.6 1 2 2 0 0 0-.3 1l.3 1a1.8 1.8 0 0 0 1.6.9c.6 0 1.1-.3 1.6-1l.8.8a2.9 2.9 0 0 1-2.5 1.4Zm6.6-1.1h.7v1l-1 .1c-.7 0-1.2-.1-1.6-.5-.4-.3-.6-.8-.6-1.5v-2.9h-1v-1h1v-1.6h1.3v1.5h1.8v1.1h-1.8v2.8c0 .3.1.6.3.8l.9.2Zm7.3-2.3v.8h-4.5c.1.4.3.8.7 1.1.3.3.7.4 1.2.4.7 0 1.2-.2 1.8-.7l.6.9c-.7.6-1.5 1-2.4 1-.6 0-1.1-.2-1.6-.5a3 3 0 0 1-1.2-1 3 3 0 0 1-.4-1.6c0-.6.2-1.1.4-1.6a3 3 0 0 1 4-1.2c.5.3.8.6 1 1 .3.4.4.9.4 1.4Zm-2.8-1.7c-.4 0-.7.2-1 .4-.4.3-.6.6-.7 1h3.2c0-.4-.1-.7-.4-1-.3-.2-.7-.4-1-.4Zm10-4v9h-1.2v-.8l-.8.7-1.2.2c-.6 0-1-.1-1.5-.4-.5-.2-.8-.6-1-1-.3-.5-.4-1-.4-1.6 0-.6.1-1.1.3-1.6.3-.5.6-.9 1-1.1.5-.3 1-.4 1.6-.4.4 0 .7 0 1 .2.4.1.7.4 1 .6V331h1.2Zm-3 8c.3 0 .6 0 .8-.2l.7-.7c.2-.3.2-.6.2-1 0-.5 0-.8-.2-1.1l-.7-.7a1.8 1.8 0 0 0-2.4.8 2 2 0 0 0-.2 1c0 .3 0 .7.2 1l.6.6c.3.2.6.3 1 .3Zm15.8-7v8h-1.3v-5l-2.3 3h-.4l-2.3-3v5h-1.2v-8h.4l3.3 4.4 3.4-4.5h.4Zm4.6 8.1c-.6 0-1.1-.1-1.6-.4a3 3 0 0 1-1.5-2.7 3 3 0 0 1 1.5-2.6c.5-.3 1-.4 1.6-.4.5 0 1 .1 1.6.4.4.3.8.6 1 1.1.4.5.5 1 .5 1.5a3 3 0 0 1-3.1 3Zm0-1.1a1.8 1.8 0 0 0 1.6-1l.2-1c0-.3 0-.6-.2-1a1.8 1.8 0 0 0-1.6-.9 1.8 1.8 0 0 0-1.6 1 2 2 0 0 0-.3 1l.3 1 .6.6c.3.2.6.3 1 .3Zm7.5-5a2 2 0 0 1 1.6.6c.4.4.6 1 .6 1.7v3.7h-1.3v-3.5c0-.4 0-.8-.3-1-.3-.3-.6-.4-1-.4-.3 0-.7.1-1 .4-.2.3-.3.6-.3 1v3.5h-1.3v-5.9h1.2v.6c.5-.5 1-.7 1.8-.7Zm6.7 5h.8v1l-1 .1c-.8 0-1.3-.1-1.7-.5-.4-.3-.6-.8-.6-1.5v-2.9h-1v-1h1v-1.6h1.3v1.5h1.8v1.1h-1.8v2.8c0 .3.1.6.3.8l.9.2Zm5-5a2 2 0 0 1 1.6.6c.4.5.6 1 .6 1.7v3.7h-1.3v-3.5c0-.4 0-.7-.3-1-.3-.2-.6-.4-1-.4s-.7.2-1 .4c-.2.3-.3.6-.3 1v3.5H335v-9h1.3v3.7l.7-.5c.3-.2.6-.2 1-.2Zm4-3h1.2v9h-1.3v-9Zm8.5 3.1-2.9 6.6a3 3 0 0 1-.9 1.2 2 2 0 0 1-1.3.4 4 4 0 0 1-1-.1V341h.8l.7-.1.5-.7.3-.6-2.4-5.6h1.4l1.7 4.3 1.7-4.3h1.4Zm4.6-2h5.2v1.1h-4v2h3v1.2h-3v2.5h4.1v1.1h-5.3v-8Zm10.3 7.9-1.4-2.2-1.5 2.2h-1.4l2.1-3-2-2.9h1.5l1.3 2 1.3-2h1.4l-2 2.9 2.2 3h-1.5Zm2.6-5.9h1.2v5.9H368v-5.9Zm.6-1.4c-.2 0-.4 0-.6-.2a.8.8 0 0 1-.3-.6l.3-.6.6-.2c.2 0 .4 0 .6.2l.3.6-.3.6c-.2.2-.4.2-.6.2Zm5.2 6.3h.7v1l-1 .1c-.7 0-1.2-.1-1.6-.5-.4-.3-.6-.8-.6-1.5v-2.9h-1v-1h1v-1.6h1.3v1.5h1.8v1.1h-1.8v2.8c0 .3.1.6.3.8l.9.2Zm10.5 1-2.3-3h-1.5v3h-1.2v-8h2.9c.5 0 1 .2 1.4.4a2.2 2.2 0 0 1 1.3 2.1 2.3 2.3 0 0 1-1.6 2.2l2.4 3.3h-1.4Zm-3.8-4.2h1.6c.5 0 .8-.1 1-.3.3-.3.4-.6.4-1s0-.7-.3-1c-.3-.2-.6-.3-1-.3h-1.7v2.6Zm8.4-1.8c.7 0 1.3.2 1.8.6.4.4.6 1 .6 1.8v3.6h-1.2v-.7c-.2.3-.4.5-.8.6-.3.2-.6.2-1 .2-.7 0-1.2-.1-1.5-.4-.4-.3-.6-.8-.6-1.3s.2-.9.6-1.2c.4-.3 1-.5 1.6-.5h1.7v-.3c0-.4-.2-.8-.4-1-.2-.2-.5-.3-1-.3-.2 0-.5 0-.8.2l-.7.7-.8-.8 1.1-1 1.4-.2Zm-.4 5.2c.4 0 .8-.2 1.1-.4.3-.3.4-.6.4-1v-.1h-1.5l-.7.1c-.2.2-.3.3-.3.6 0 .2 0 .4.3.6l.7.2Zm7.3-.2h.8v1l-1 .1c-.7 0-1.3-.1-1.7-.5-.3-.3-.5-.8-.5-1.5v-2.9h-1v-1h1v-1.6h1.2v1.5h1.8v1.1h-1.8v2.8c0 .3.1.6.3.8l.9.2Zm7.3-2.3v.8h-4.4c0 .4.2.8.6 1.1.3.3.8.4 1.3.4.6 0 1.2-.2 1.7-.7l.6.9c-.7.6-1.5 1-2.4 1-.6 0-1.1-.2-1.6-.5a3 3 0 0 1-1.1-1 3 3 0 0 1-.4-1.6 3 3 0 0 1 4.4-2.7c.4.2.7.5 1 .9.2.4.3.9.3 1.4Zm-2.7-1.7c-.4 0-.8.2-1.1.4-.3.3-.5.6-.6 1h3.2c0-.4-.2-.7-.5-1-.3-.2-.6-.4-1-.4ZM510 332h2.9c.5 0 1 .2 1.4.4a2.2 2.2 0 0 1 1.3 2.1c0 .5-.1.9-.4 1.3-.2.3-.5.6-1 .8a3 3 0 0 1-1.3.3h-1.6v3.1H510v-8Zm2.9 3.8c.4 0 .8-.1 1-.3.2-.3.4-.6.4-1s-.2-.7-.4-1c-.2-.2-.6-.3-1-.3h-1.6v2.6h1.6Zm6.9-1.8.5.1v1.1h-.4c-.5 0-1 .2-1.3.5-.3.2-.4.6-.4 1.2v3.1h-1.3v-5.9h1.2v.8a2.1 2.1 0 0 1 1.7-.9Zm4.2 6.1c-.6 0-1-.1-1.6-.4-.4-.3-.8-.6-1-1.1a3 3 0 0 1-.5-1.6 3 3 0 0 1 1.5-2.6c.5-.3 1-.4 1.6-.4.6 0 1.1.1 1.6.4.5.3.9.6 1.1 1.1.3.5.4 1 .4 1.5 0 .6 0 1.1-.4 1.6a3 3 0 0 1-2.7 1.5Zm0-1.1a1.8 1.8 0 0 0 1.6-1c.2-.3.3-.6.3-1l-.3-1a1.8 1.8 0 0 0-1.6-.9 1.8 1.8 0 0 0-1.6 1 2 2 0 0 0-.2 1c0 .3 0 .6.2 1 .2.2.4.5.7.6.3.2.6.3 1 .3Zm3.8 3.3-.9-.1v-1h.6c.3 0 .6-.1.8-.3.2-.1.3-.4.3-.8v-6h1.3v6.1c0 .7-.2 1.2-.6 1.6-.4.3-.9.5-1.5.5Zm1.4-9.6c-.2 0-.4 0-.6-.2a.8.8 0 0 1-.2-.6c0-.2 0-.4.2-.6l.6-.2c.3 0 .5 0 .6.2l.3.6-.3.6c-.1.2-.3.2-.6.2Zm7.9 4-.1.8h-4.4c0 .4.3.8.6 1.1.4.3.8.4 1.3.4.6 0 1.2-.2 1.7-.7l.6.9a3.3 3.3 0 0 1-4 .6 3 3 0 0 1-1-1.2 3 3 0 0 1-.5-1.5 3 3 0 0 1 4.4-2.7c.5.2.8.5 1 .9.3.4.4.9.4 1.4Zm-2.8-1.7c-.4 0-.8.2-1 .4-.4.3-.6.6-.7 1h3.2c0-.4-.1-.7-.4-1-.3-.2-.7-.4-1.1-.4Zm7 5.1a3 3 0 1 1 0-6.2 2.8 2.8 0 0 1 2.4 1.4l-.8.7c-.5-.6-1-.9-1.6-.9a1.8 1.8 0 0 0-1.6 1 2 2 0 0 0-.3 1l.3 1a1.8 1.8 0 0 0 1.6.9c.6 0 1.1-.3 1.6-1l.8.8a2.9 2.9 0 0 1-2.5 1.4Zm6.6-1.1h.7v1l-1 .1c-.7 0-1.2-.1-1.6-.5-.4-.3-.6-.8-.6-1.5v-2.9h-1v-1h1v-1.6h1.3v1.5h1.8v1.1h-1.8v2.8c0 .3 0 .6.3.8l.9.2Zm7.3-2.3v.8h-4.5c0 .4.3.8.7 1.1.3.3.7.4 1.2.4.7 0 1.2-.2 1.8-.7l.6.9c-.7.6-1.5 1-2.4 1-.6 0-1.1-.2-1.6-.5a3 3 0 0 1-1.2-1 3 3 0 0 1-.4-1.6c0-.6.2-1.1.4-1.6a3 3 0 0 1 4-1.2c.5.3.8.6 1 1 .3.4.4.9.4 1.4Zm-2.8-1.7c-.4 0-.7.2-1 .4-.4.3-.6.6-.7 1h3.2c0-.4-.1-.7-.4-1-.3-.2-.7-.4-1-.4Zm10-4v9h-1.2v-.8l-.8.7-1.2.2c-.6 0-1-.1-1.5-.4-.5-.2-.8-.6-1-1-.3-.5-.4-1-.4-1.6 0-.6.1-1.1.3-1.6.3-.5.6-.9 1-1.1.5-.3 1-.4 1.6-.4.4 0 .7 0 1 .2.4.1.7.4 1 .6V331h1.2Zm-3 8c.3 0 .6 0 .8-.2l.7-.7c.2-.3.2-.6.2-1 0-.5 0-.8-.2-1.1l-.7-.7a1.8 1.8 0 0 0-2.4.8 2 2 0 0 0-.2 1c0 .3 0 .7.2 1l.6.6c.3.2.6.3 1 .3Zm8.3-7h5.2v1.2h-4v2h3v1.2h-3v2.5h4.1v1.1h-5.3v-8Zm10.3 8-1.4-2.2-1.5 2.2h-1.4l2.2-3-2-2.9h1.4l1.3 2 1.3-2h1.4l-2 2.9 2.2 3H578Zm2.6-5.9h1.2v5.9h-1.2v-5.9Zm.6-1.4c-.2 0-.4 0-.6-.2a.8.8 0 0 1-.3-.6l.3-.6.6-.2c.2 0 .4 0 .6.2l.3.6-.3.6c-.2.2-.4.2-.6.2Zm5.2 6.3h.8v1l-1 .1c-.8 0-1.3-.1-1.7-.5-.4-.3-.6-.8-.6-1.5v-2.9h-1v-1h1v-1.6h1.3v1.5h1.8v1.1h-1.8v2.8c0 .3.1.6.3.8l.9.2Zm9.2 1.1a4.2 4.2 0 0 1-3.6-2 4 4 0 0 1-.6-2 4 4 0 0 1 2-3.6c.7-.4 1.4-.6 2.2-.6a4 4 0 0 1 3.4 1.9l-1 .7a3 3 0 0 0-1-1c-.4-.3-.9-.4-1.4-.4-.6 0-1 .1-1.5.4-.4.2-.8.6-1 1a3 3 0 0 0-.4 1.5c0 .6.2 1 .4 1.5a2.8 2.8 0 0 0 2.5 1.5c.5 0 1-.1 1.4-.4a3 3 0 0 0 1-1l1 .7a4 4 0 0 1-3.4 1.8Zm7.4 0c-.5 0-1-.1-1.5-.4-.5-.3-.9-.6-1.2-1.1a3 3 0 0 1-.4-1.6 3 3 0 0 1 1.6-2.6c.4-.3 1-.4 1.5-.4.6 0 1.1.1 1.6.4.5.3.9.6 1.1 1.1.3.5.5 1 .5 1.5 0 .6-.2 1.1-.5 1.6a3 3 0 0 1-2.7 1.5Zm0-1.1a1.8 1.8 0 0 0 1.6-1c.2-.3.3-.6.3-1l-.3-1a1.8 1.8 0 0 0-1.6-.9 1.8 1.8 0 0 0-1.6 1 2 2 0 0 0-.2 1c0 .3 0 .6.2 1 .2.2.4.5.7.6.3.2.6.3 1 .3Zm7.1 1.1c-.5 0-1 0-1.3-.3-.4-.2-.7-.5-1-.9-.1-.4-.3-.9-.3-1.4v-3.4h1.3v3.5c0 .4.1.8.4 1 .2.2.5.4 1 .4.3 0 .6-.2.8-.4.3-.2.4-.6.4-1v-3.5h1.3v3.4c0 .5-.1 1-.4 1.4-.2.4-.5.7-.9 1l-1.3.2Zm7.3-6.1a2 2 0 0 1 1.6.6c.4.4.6 1 .6 1.7v3.7h-1.3v-3.5c0-.4 0-.8-.3-1-.3-.3-.6-.4-1-.4-.3 0-.7.1-1 .4-.2.3-.3.6-.3 1v3.5h-1.3v-5.9h1.2v.6c.5-.5 1-.7 1.8-.7Zm6.7 5h.8v1l-1 .1c-.8 0-1.3-.1-1.7-.5-.4-.3-.6-.8-.6-1.5v-2.9h-1v-1h1v-1.6h1.3v1.5h1.8v1.1h-1.8v2.8c0 .3.1.6.3.8l.9.2Z"/><path stroke="#02A9F7" stroke-width="2" d="M247 115H293V144H247z"/><path fill="#475569" d="M41 44.8h2v3.5h4v-3.5h2V54h-2v-4h-4v4h-2v-9.2ZM57.3 50l-.1 1h-4.9c.1.5.4.9.7 1 .3.3.8.4 1.3.4.6 0 1.3-.2 1.9-.7l.8 1.3a4.2 4.2 0 0 1-4.7.6 3.5 3.5 0 0 1-1.9-3.2 3.6 3.6 0 0 1 1.8-3.1 3.7 3.7 0 0 1 3.5 0c.5.2 1 .6 1.2 1.1.3.5.4 1 .4 1.6ZM54 48.4c-.4 0-.8.2-1 .4-.4.3-.6.6-.7 1h3.2c0-.4-.2-.7-.5-1-.3-.2-.6-.4-1-.4Zm7.5-1.5c.9 0 1.6.3 2.1.8.6.5.9 1.2.9 2.2V54h-1.8v-.7c-.2.3-.5.5-1 .6a3 3 0 0 1-1.1.3c-.7 0-1.3-.2-1.7-.6A2 2 0 0 1 58 52c0-.6.2-1.1.7-1.5a3 3 0 0 1 2-.5h1.7v-.3c0-.4-.2-.7-.4-1l-1-.2c-.3 0-.6 0-.9.2-.3.1-.6.4-.9.7l-1-1.2c.9-1 1.9-1.4 3-1.4Zm-.4 5.9c.4 0 .8-.1 1-.4.3-.3.5-.6.5-1H61l-.7.1c-.2.1-.3.3-.3.5 0 .3.1.4.3.6l.7.2Zm12-9.3V54h-1.8v-.9c-.2.4-.5.6-1 .8a3 3 0 0 1-1.2.3 3.3 3.3 0 0 1-3-1.8 4 4 0 0 1-.4-1.9c0-.6.2-1.3.5-1.8a3.2 3.2 0 0 1 2.9-1.8c.9 0 1.6.3 2 .8v-4.2h2Zm-3.7 9c.5 0 1-.2 1.3-.5.3-.4.5-.8.5-1.5 0-.6-.2-1-.5-1.4-.4-.3-.8-.5-1.3-.5s-.9.2-1.2.6c-.4.3-.5.8-.5 1.3 0 .6.1 1 .5 1.4.3.4.7.5 1.2.5Zm8.7 1.7a3.8 3.8 0 0 1-3.2-1.8c-.3-.6-.5-1.2-.5-1.9a3.5 3.5 0 0 1 1.8-3.1 3.8 3.8 0 0 1 3.7 0c.5.3 1 .7 1.2 1.2l-1.3 1-.7-.7c-.3-.2-.6-.3-1-.3-.5 0-1 .2-1.3.6-.3.3-.5.8-.5 1.3 0 .6.2 1 .5 1.4.4.4.8.5 1.3.5.4 0 .7 0 1-.2.2-.2.5-.4.7-.8l1.3 1a3.3 3.3 0 0 1-3 1.8Zm7.4 0a3.7 3.7 0 0 1-3.2-1.8c-.3-.6-.4-1.2-.4-1.9 0-.6.1-1.2.4-1.8.4-.6.8-1 1.4-1.3.6-.3 1.2-.5 1.9-.5a3.7 3.7 0 0 1 3.7 3.6c0 .7-.2 1.3-.5 1.9-.3.5-.8 1-1.4 1.3-.5.3-1.2.5-1.9.5Zm0-1.8c.6 0 1-.2 1.3-.5.4-.4.6-.8.6-1.4 0-.5-.2-1-.6-1.3-.3-.4-.7-.6-1.2-.6-.6 0-1 .2-1.3.6-.4.3-.5.8-.5 1.3 0 .6.1 1 .5 1.4.3.3.7.5 1.3.5Zm8.3 1.8c-.7 0-1.2-.2-1.7-.4a3 3 0 0 1-1.1-1.2c-.3-.4-.5-1-.5-1.7v-3.8h2v4c0 .4 0 .7.3 1 .3.2.6.3 1 .3.3 0 .6 0 .9-.3.2-.3.3-.6.3-1v-4h2v3.8c0 .7-.2 1.3-.5 1.7-.3.5-.6 1-1.1 1.2-.5.2-1 .4-1.6.4Zm8.6-7.3c.8 0 1.4.3 1.9.8.4.5.7 1.2.7 2V54h-2v-4c0-.4 0-.8-.3-1-.2-.3-.5-.4-.9-.4s-.7.1-1 .4c-.2.2-.3.6-.3 1v4h-1.9v-7h1.7v.7l1-.6 1-.2Zm7.8 5.6h.9V54l-1.3.2a3 3 0 0 1-2-.7c-.5-.4-.8-1-.8-2v-2.8h-1V47h1v-1.8h2v1.8h1.9v1.6h-2v2.7c0 .4.1.7.3.8.2.2.6.3 1 .3Zm6-7.7h3.5c.7 0 1.2 0 1.7.3s1 .6 1.2 1c.3.5.4 1 .4 1.6a2.9 2.9 0 0 1-1.6 2.7c-.5.2-1 .3-1.7.3H118V54h-1.9v-9.2Zm3.5 4.3c.5 0 .8-.1 1-.4.3-.2.4-.6.4-1s-.1-.7-.4-1c-.2-.2-.6-.3-1-.3H118v2.7h1.6Zm4.6-5.6h1.9V54h-2V43.5Zm6.5 3.4c.9 0 1.6.3 2.1.8s.8 1.2.8 2.2V54H132v-.7c-.3.3-.6.5-1 .6a3 3 0 0 1-1.1.3c-.8 0-1.4-.2-1.8-.6a2 2 0 0 1-.6-1.5c0-.6.2-1.1.7-1.5a3 3 0 0 1 1.9-.5h1.7v-.3c0-.4 0-.7-.3-1l-1-.2c-.3 0-.6 0-1 .2l-.8.7-1-1.2c.8-1 1.8-1.4 3-1.4Zm-.4 5.9c.4 0 .7-.1 1-.4.3-.3.4-.6.4-1h-1.5l-.7.1-.2.5c0 .3 0 .4.2.6l.8.2Zm8.8-5.9c.8 0 1.4.3 1.9.8.4.5.7 1.2.7 2V54h-2v-4c0-.4 0-.8-.3-1-.2-.3-.5-.4-.9-.4s-.7.1-1 .4c-.2.2-.3.6-.3 1v4h-1.9v-7h1.7v.7l1-.6a3 3 0 0 1 1-.2Zm11.5-1.9c-.4 0-.7.1-1 .3-.2.1-.3.4-.3.8v1h1.6v1.6h-1.6V54h-1.8v-5.3h-1V47h1v-1.2c0-.8.2-1.5.7-2 .4-.3 1.1-.6 2-.6.3 0 .6 0 1 .2V45h-.6Zm4.5 9.2a3.7 3.7 0 0 1-3.2-1.8c-.4-.6-.5-1.2-.5-1.9 0-.6.1-1.2.5-1.8.3-.6.8-1 1.3-1.3.6-.3 1.2-.5 1.9-.5a3.7 3.7 0 0 1 3.7 3.6c0 .7-.1 1.3-.5 1.9-.3.5-.8 1-1.3 1.3-.6.3-1.2.5-2 .5Zm0-1.8c.5 0 1-.2 1.3-.5.3-.4.5-.8.5-1.4 0-.5-.2-1-.5-1.3-.4-.4-.8-.6-1.3-.6s-1 .2-1.3.6c-.3.3-.5.8-.5 1.3 0 .6.2 1 .5 1.4.3.3.8.5 1.3.5Zm8.7-5.4h.6v1.7h-.5a2 2 0 0 0-1.3.5c-.4.3-.6.7-.6 1.3V54h-1.8v-7h1.7v.9a2.4 2.4 0 0 1 1.9-1Zm10.3 5.8h-3.8l-.5 1.2h-2l4.1-9.4h.6l4.2 9.4h-2l-.6-1.2Zm-1.9-4.7-1.2 3.1h2.4l-1.2-3Zm9.4-1.2c.7 0 1.2.2 1.7.5s1 .7 1.2 1.3c.3.5.5 1.1.5 1.8a4 4 0 0 1-.5 1.9c-.3.5-.7 1-1.2 1.3-.5.3-1 .5-1.7.5l-1.2-.2-.9-.7v3.2h-1.9v-9.4h1.8v.8c.2-.3.5-.5 1-.7.3-.2.7-.3 1.2-.3Zm-.3 5.5c.5 0 .9-.1 1.2-.5.4-.3.6-.8.6-1.4 0-.5-.2-1-.6-1.3-.3-.4-.7-.6-1.2-.6s-1 .2-1.3.5c-.3.3-.5.8-.5 1.4 0 .6.2 1.1.5 1.5.4.3.8.4 1.3.4Zm8.6-5.4h.7v1.7h-.5a2 2 0 0 0-1.4.5c-.3.3-.5.7-.5 1.3V54h-1.9v-7h1.7v.9a2.4 2.4 0 0 1 2-1Zm1.7 0h1.9v7h-1.9v-7Zm1-1.3c-.4 0-.7-.1-1-.3-.2-.2-.3-.5-.3-.9 0-.3.1-.6.4-.8.2-.2.5-.3.8-.3.4 0 .7 0 .9.3.2.2.4.5.4.8 0 .4-.2.7-.4.9-.2.2-.5.3-.9.3Zm2.6-2.2h2V54h-2V43.5Zm14 8.9V54h-6.9v-.4l3.3-3.6 1-1.3c.2-.3.3-.7.3-1 0-.4-.1-.7-.3-1-.3-.2-.6-.4-1-.4s-.7.2-1 .4c-.2.3-.3.6-.3 1l.1.7h-1.9a3 3 0 0 1 .3-2.2c.3-.5.6-.9 1.1-1.2.5-.3 1.1-.4 1.8-.4.6 0 1.1.1 1.6.4a2.8 2.8 0 0 1 1.6 2.5c0 .7-.2 1.3-.5 1.8l-1.5 1.8-1.2 1.3h3.4Zm5 1.8c-.8 0-1.5-.2-2-.7-.6-.4-1-1-1.3-1.7-.3-.7-.4-1.6-.4-2.5 0-1.4.3-2.5 1-3.4.6-.9 1.5-1.3 2.7-1.3 1.2 0 2 .4 2.7 1.3.6.9 1 2 1 3.4 0 1-.2 1.8-.5 2.5s-.7 1.3-1.2 1.7c-.6.5-1.2.7-2 .7Zm0-1.8c1.1 0 1.7-1 1.7-3 0-1-.2-1.8-.4-2.3-.3-.5-.7-.8-1.3-.8-.6 0-1 .3-1.3.8-.3.5-.5 1.2-.5 2.2 0 2 .6 3.1 1.8 3.1Zm11.7 0V54h-6.8v-.4l3.3-3.6 1-1.3c.2-.3.3-.7.3-1 0-.4-.1-.7-.3-1-.3-.2-.6-.4-1-.4s-.7.2-1 .4c-.2.3-.3.6-.3 1v.7h-1.8a3.1 3.1 0 0 1 .3-2.2c.2-.5.6-.9 1.1-1.2.5-.3 1-.4 1.7-.4.6 0 1.2.1 1.7.4.5.2.9.6 1.1 1 .3.5.4 1 .4 1.5 0 .7-.1 1.3-.5 1.8l-1.4 1.8-1.2 1.3h3.4Zm8 0V54h-6.8v-.4l3.3-3.6 1-1.3c.2-.3.3-.7.3-1 0-.4 0-.7-.3-1-.2-.2-.6-.4-1-.4-.3 0-.7.2-.9.4-.2.3-.4.6-.4 1l.1.7h-1.9a3.1 3.1 0 0 1 .3-2.2c.3-.5.7-.9 1.2-1.2.5-.3 1-.4 1.7-.4.6 0 1.1.1 1.6.4.5.2.9.6 1.2 1 .2.5.4 1 .4 1.5 0 .7-.2 1.3-.5 1.8l-1.5 1.8-1.2 1.3h3.4Z"/></g><defs><clipPath id="b"><path fill="#fff" d="M0 0H457V150H0z" transform="translate(242 114)"/></clipPath><filter id="a" width="738" height="420" x="0" y="0" color-interpolation-filters="sRGB" filterUnits="userSpaceOnUse"><feFlood flood-opacity="0" result="BackgroundImageFix"/><feColorMatrix in="SourceAlpha" result="hardAlpha" values="0 0 0 0 0 0 0 0 0 0 0 0 0 0 0 0 0 0 127 0"/><feOffset dx="8" dy="8"/><feComposite in2="hardAlpha" operator="out"/><feColorMatrix values="0 0 0 0 0.886275 0 0 0 0 0.909804 0 0 0 0 0.941176 0 0 0 1 0"/><feBlend in2="BackgroundImageFix" result="effect1_dropShadow_903_40471"/><feBlend in="SourceGraphic" in2="effect1_dropShadow_903_40471" result="shape"/></filter></defs></svg>