<svg xmlns="http://www.w3.org/2000/svg" xmlns:xlink="http://www.w3.org/1999/xlink" fill="none" viewBox="0 0 748 459"><g filter="url(#a)"><rect width="737" height="448" x="1.9" y="1.3" fill="#fff" stroke="#E2E8F0" stroke-width="2" rx="11"/><path fill="#475569" d="M42 45H44v7.6h4v1.7H42v-9.2Zm13.5 5.5-.1 1h-4.9c.2.4.4.8.7 1 .4.3.8.4 1.3.4.7 0 1.3-.3 2-.7l.7 1.3a4.2 4.2 0 0 1-4.7.5 3.5 3.5 0 0 1-1.9-3.1 3.6 3.6 0 0 1 1.8-3.2 3.7 3.7 0 0 1 3.6 0c.5.3.8.6 1.1 1.1.3.5.4 1 .4 1.7Zm-3.3-1.7c-.4 0-.8 0-1 .3-.4.3-.6.6-.7 1h3.2c0-.4-.2-.7-.5-1-.2-.2-.6-.3-1-.3Zm7.5-1.6c1 0 1.6.3 2.2.8.5.5.8 1.2.8 2.2v4.1h-1.8v-.6l-.9.6a3 3 0 0 1-1.2.2c-.7 0-1.3-.2-1.7-.6a2 2 0 0 1-.7-1.5c0-.6.3-1.1.7-1.5a3 3 0 0 1 2-.5h1.7v-.3c0-.4-.1-.7-.4-.9-.2-.2-.5-.3-1-.3-.3 0-.6 0-.9.2l-.8.7-1-1.1c.8-1 1.8-1.5 3-1.5Zm-.4 5.9c.4 0 .8-.1 1-.4.3-.2.5-.6.5-1h-1.5l-.7.1c-.2.1-.3.3-.3.5 0 .3.1.5.3.6l.7.2Zm8.7-5.8h.6v1.8h-.5a2 2 0 0 0-1.4.4c-.3.3-.5.8-.5 1.4v3.4h-1.9v-7h1.8v1a2.4 2.4 0 0 1 1.9-1Zm5.4 0c.8 0 1.4.2 2 .7.4.5.6 1.2.6 2v4.3h-1.9v-4c0-.4 0-.7-.3-1-.3-.2-.6-.4-1-.4-.3 0-.7.2-1 .4-.2.3-.3.6-.3 1v4h-1.9v-7h1.8v.7l.9-.6 1.1-.2Zm4.3 0h1.9v7h-2v-7Zm1-1.3c-.4 0-.7 0-1-.3-.2-.2-.3-.5-.3-.8 0-.4.1-.6.4-.9.2-.2.5-.3.8-.3.4 0 .6.1.9.3.2.3.3.5.3.9 0 .3 0 .6-.3.8-.3.2-.5.3-.9.3Zm6.4 1.2c.8 0 1.4.3 1.9.8.4.5.7 1.2.7 2v4.3h-1.9v-4c0-.4-.1-.7-.4-1a1.3 1.3 0 0 0-1.9 0c-.2.3-.3.6-.3 1v4h-1.9v-7H83v.7l1-.6 1-.2Zm11.2.2v6.2c0 1-.3 2-1 2.5-.6.6-1.5 1-2.6 1a5 5 0 0 1-3.4-1.4l1-1.3 1.1.7 1.2.2c.5 0 1-.1 1.3-.4.4-.3.5-.7.5-1.2v-.4c-.2.3-.5.5-.9.6l-1.2.2c-.6 0-1.2-.1-1.7-.4-.5-.3-.9-.7-1.2-1.2-.3-.6-.4-1.2-.4-1.8 0-.7.1-1.3.4-1.8.3-.5.7-1 1.2-1.2.5-.3 1-.5 1.7-.5.5 0 1 .1 1.3.3.4.2.7.4 1 .8v-1h1.7Zm-3.6 5.1c.5 0 .9-.1 1.2-.5.4-.3.6-.8.6-1.4 0-.6-.2-1-.6-1.3-.3-.3-.7-.5-1.2-.5s-1 .2-1.3.5c-.3.4-.5.8-.5 1.4 0 .5.2 1 .5 1.3.4.3.8.5 1.3.5Zm12.5 2c-.7 0-1.4-.2-2-.5a3.6 3.6 0 0 1-1.8-3.2 3.5 3.5 0 0 1 1.9-3 3.8 3.8 0 0 1 3.6-.1c.6.3 1 .7 1.3 1.2l-1.4 1-.7-.7c-.2-.2-.6-.2-1-.2-.5 0-.9.1-1.2.5-.4.4-.5.8-.5 1.4 0 .5.1 1 .5 1.3.3.4.7.6 1.3.6l.9-.3.7-.7 1.4 1a3.3 3.3 0 0 1-3 1.7Zm7.4 0a3.7 3.7 0 0 1-3.7-3.6c0-.7.2-1.3.5-1.9.3-.5.8-1 1.3-1.3.6-.3 1.2-.5 1.9-.5a3.7 3.7 0 0 1 3.7 3.7c0 .6-.1 1.2-.5 1.8-.3.5-.8 1-1.3 1.3-.6.3-1.2.5-2 .5Zm0-1.8c.5 0 1-.1 1.3-.5.3-.3.5-.8.5-1.3 0-.6-.2-1-.5-1.4-.4-.4-.8-.5-1.3-.5s-1 .1-1.3.5c-.3.4-.5.8-.5 1.4 0 .5.2 1 .5 1.3.3.4.8.5 1.3.5Zm8.2 1.8c-.6 0-1.2-.1-1.7-.4A3 3 0 0 1 118 53c-.3-.5-.4-1-.4-1.7v-4h1.9v4.1c0 .4.1.7.3 1 .3.2.6.4 1 .4s.7-.2.9-.4c.3-.3.4-.6.4-1v-4h1.9v3.9c0 .6-.2 1.2-.4 1.7a3.4 3.4 0 0 1-2.8 1.5Zm8.5-7.2h.6v1.8h-.5a2 2 0 0 0-1.4.4c-.3.3-.5.8-.5 1.4v3.4h-1.9v-7h1.8v1a2.4 2.4 0 0 1 1.9-1Zm3.9 7.2c-.6 0-1.2-.1-1.7-.4-.5-.2-.9-.5-1.2-1l1-1.1c.6.6 1.2 1 1.9 1l.6-.2c.2-.1.3-.3.3-.4 0-.2 0-.3-.2-.4l-.5-.3-.8-.3c-.6-.2-1-.5-1.4-.8-.3-.4-.5-.8-.5-1.3 0-.6.3-1.2.7-1.5a3 3 0 0 1 1.9-.6c1 0 1.8.4 2.5 1l-1 1.2c-.4-.4-1-.6-1.5-.6a1 1 0 0 0-.6.1l-.2.4c0 .1 0 .2.2.3l.6.3.6.3c.7.2 1.2.5 1.5.8.3.4.5.8.5 1.3a2 2 0 0 1-.8 1.6 3 3 0 0 1-2 .6Zm10.5-4c0 .3 0 .6-.2 1h-4.8c0 .4.3.8.6 1 .4.3.8.4 1.3.4.7 0 1.3-.3 2-.7l.7 1.3a4.2 4.2 0 0 1-4.7.5 3.5 3.5 0 0 1-1.8-3.1 3.6 3.6 0 0 1 1.7-3.2 3.7 3.7 0 0 1 3.6 0c.5.3.9.6 1.1 1.1.3.5.5 1 .5 1.7Zm-3.4-1.7c-.4 0-.7 0-1 .3-.3.3-.5.6-.6 1h3.1c0-.4-.1-.7-.4-1-.3-.2-.7-.3-1-.3Zm7 5.7c-.7 0-1.2-.1-1.7-.4-.5-.2-1-.5-1.2-1l1-1.1c.5.6 1.2 1 1.9 1l.6-.2c.2-.1.2-.3.2-.4l-.1-.4-.6-.3-.7-.3c-.7-.2-1.1-.5-1.4-.8-.4-.4-.5-.8-.5-1.3 0-.6.2-1.2.7-1.5a3 3 0 0 1 1.8-.6c1 0 2 .4 2.5 1l-1 1.2c-.4-.4-1-.6-1.5-.6a1 1 0 0 0-.5.1c-.2 0-.2.2-.2.4l.1.3.6.3.7.3c.7.2 1.1.5 1.5.8.3.4.4.8.4 1.3a2 2 0 0 1-.7 1.6 3 3 0 0 1-2 .6Zm11 0a3.8 3.8 0 0 1-3.2-1.8 3.5 3.5 0 0 1 1.3-5 3.8 3.8 0 0 1 3.7 0c.5.3 1 .7 1.2 1.2l-1.3 1-.7-.7c-.3-.2-.6-.2-1-.2-.5 0-1 .1-1.3.5-.3.4-.5.8-.5 1.4 0 .5.2 1 .5 1.3.4.4.8.6 1.3.6.4 0 .7-.1 1-.3l.7-.7 1.3 1a3.3 3.3 0 0 1-3 1.7Zm7.5 0c-.7 0-1.4-.2-2-.5a3.7 3.7 0 0 1-1.7-3.1c0-.7.1-1.3.4-1.9.4-.5.8-1 1.4-1.3.6-.3 1.2-.5 1.9-.5a3.7 3.7 0 0 1 3.7 3.7c0 .6-.2 1.2-.5 1.8-.3.5-.8 1-1.4 1.3-.5.3-1.2.5-1.8.5Zm0-1.8c.5 0 1-.1 1.2-.5.4-.3.6-.8.6-1.3 0-.6-.2-1-.6-1.4-.3-.4-.7-.5-1.2-.5-.6 0-1 .1-1.3.5-.4.4-.5.8-.5 1.4 0 .5.1 1 .5 1.3.3.4.7.5 1.3.5Zm13-5.5c.9 0 1.5.3 2 .8s.7 1.2.7 2v4.3h-1.9v-4c0-.4 0-.7-.3-1-.2-.2-.5-.4-1-.4-.3 0-.6.2-.8.4-.3.3-.4.6-.4 1v4h-1.9v-4c0-.4 0-.7-.3-1-.2-.2-.5-.4-1-.4-.3 0-.6.2-.8.4-.3.3-.4.6-.4 1v4h-1.9v-7h1.8v.7l.8-.6 1.1-.2c1 0 1.6.4 2 1l1-.7 1.4-.3Zm8.3 0c.7 0 1.3.2 1.8.5s.9.8 1.2 1.3c.2.5.4 1.2.4 1.9a4 4 0 0 1-.4 1.8c-.3.6-.7 1-1.2 1.3-.5.3-1.1.5-1.8.5-.4 0-.8 0-1.1-.2l-1-.6v3.1h-1.8v-9.4h1.7v.9c.2-.4.5-.6 1-.8.3-.2.8-.3 1.2-.3Zm-.3 5.6c.5 0 1-.2 1.3-.5.3-.4.5-.9.5-1.4 0-.6-.2-1-.5-1.4-.4-.4-.8-.6-1.3-.6s-.9.2-1.2.5c-.4.4-.6.8-.6 1.5 0 .6.2 1 .5 1.4.4.3.8.5 1.3.5Zm5-9h2v10.5h-2V43.8Zm10.2 6.7c0 .3 0 .6-.2 1H197c0 .4.3.8.6 1 .4.3.8.4 1.3.4.7 0 1.3-.3 2-.7l.7 1.3a4.2 4.2 0 0 1-4.7.5 3.5 3.5 0 0 1-1.8-3.1 3.6 3.6 0 0 1 1.7-3.2 3.7 3.7 0 0 1 3.6 0c.5.3.9.6 1.1 1.1.3.5.5 1 .5 1.7Zm-3.4-1.7c-.4 0-.7 0-1 .3-.3.3-.5.6-.6 1h3.1c0-.4-.1-.7-.4-1-.3-.2-.7-.3-1-.3Zm8.2 4h1v1.5l-1.4.2a3 3 0 0 1-2-.7c-.5-.4-.7-1-.7-2V49h-1.1v-1.6h1v-1.8h2v1.8h2V49h-2v2.7c0 .4 0 .7.3.9l1 .2Zm8.5-2.3-.1 1h-4.9c.2.4.4.8.7 1 .4.3.8.4 1.3.4.7 0 1.3-.3 2-.7l.7 1.3a4.2 4.2 0 0 1-4.7.5 3.5 3.5 0 0 1-1.9-3.1 3.6 3.6 0 0 1 1.8-3.2 3.7 3.7 0 0 1 3.6 0c.5.3.8.6 1.1 1.1.3.5.4 1 .4 1.7Zm-3.3-1.7c-.4 0-.8 0-1 .3-.4.3-.6.6-.7 1h3.2c0-.4-.2-.7-.5-1-.2-.2-.6-.3-1-.3Zm11.6-5v10.5h-1.7v-.8l-1 .7a3 3 0 0 1-1.3.3 3.3 3.3 0 0 1-3-1.8 4 4 0 0 1-.3-1.8c0-.7.1-1.3.4-1.9a3.2 3.2 0 0 1 3-1.8c.8 0 1.5.3 2 .9v-4.3h1.9Zm-3.6 9c.5 0 .9-.2 1.2-.5.4-.3.5-.8.5-1.4 0-.7-.1-1.1-.5-1.4-.3-.4-.7-.6-1.2-.6s-1 .2-1.3.6c-.3.3-.5.8-.5 1.4 0 .5.2 1 .5 1.4.3.3.8.5 1.3.5Z"/></g><path stroke="#E2E8F0" stroke-width="24" d="M151.5 258.7v-120a24 24 0 0 1 24-24H412"/><path stroke="#E2E8F0" stroke-width="19.2" d="M151.5 258.7v-63.8a24 24 0 0 1 24-24H490"/><path stroke="#E2E8F0" stroke-width="14.4" d="M151.5 265.9c0-5.7 4.6-10.4 10.4-10.4h458.4"/><path stroke="#E2E8F0" stroke-width="10.8" d="M151.5 255.5v45.7a24 24 0 0 0 24 24h255"/><path stroke="#E2E8F0" stroke-width="8.4" d="M151.5 260.8v107a24 24 0 0 0 24 24h413"/><path fill="url(#b)" d="M51.3 256H133.5V260.8H51.3z"/><circle cx="151.7" cy="259.9" r="28.6" fill="#FFCD41"/><mask id="c" width="58" height="58" x="123" y="231" maskUnits="userSpaceOnUse" style="mask-type:alpha"><circle cx="151.7" cy="259.9" r="28.6" fill="#CCEEFD"/></mask><g mask="url(#c)"><path fill="url(#d)" d="M101.2 230H186.3V297.7H101.2z"/></g><path fill="#1E293B" d="M118.8 222.4c-.4 0-.7 0-1-.2V221h.7c.3 0 .6 0 .7-.2.2-.1.3-.3.3-.6V215h1.5v5.2c0 .7-.2 1.2-.6 1.5-.4.4-1 .6-1.6.6Zm5.8-5.6c.7 0 1.3.2 1.7.6.4.3.6 1 .6 1.7v3.1h-1.3v-.5a2 2 0 0 1-.7.5l-1 .2a2 2 0 0 1-1.3-.5c-.3-.3-.5-.7-.5-1.1 0-.5.2-.9.5-1.2.4-.3 1-.4 1.5-.4h1.4v-.2c0-.3-.1-.6-.3-.7-.2-.2-.4-.3-.7-.3-.3 0-.5 0-.8.2l-.6.6-.8-1a3 3 0 0 1 2.3-1Zm-.3 4.5c.4 0 .6-.1.8-.3.3-.2.4-.5.4-.8h-1.2a1 1 0 0 0-.5.1c-.2 0-.2.2-.2.4s0 .3.2.4l.5.2Zm10.2-4.5c.7 0 1.2.2 1.5.6.4.3.6.9.6 1.5v3.3H135v-3c0-.4 0-.7-.2-.8a.9.9 0 0 0-.7-.3 1 1 0 0 0-.8.3 1 1 0 0 0-.2.7v3.1h-1.5v-3c0-.4 0-.7-.2-.8a.9.9 0 0 0-.7-.3 1 1 0 0 0-.7.3 1 1 0 0 0-.3.7v3.1h-1.5V217h1.4v.5l.6-.5.9-.1c.7 0 1.2.2 1.6.7l.7-.5c.3-.2.7-.2 1-.2Zm8.5 2.4-.1.8H139c.1.4.3.6.5.8.3.2.6.3 1 .3.6 0 1-.2 1.5-.5l.6 1a3.2 3.2 0 0 1-3.6.4 2.7 2.7 0 0 1-1.4-2.4 2.8 2.8 0 0 1 1.3-2.5 2.8 2.8 0 0 1 2.8 0c.3.2.6.5.8.9.3.4.4.8.4 1.2Zm-2.6-1.3c-.3 0-.6.1-.8.3l-.5.8h2.5a1 1 0 0 0-.4-.8c-.2-.2-.5-.3-.8-.3Zm5.4 4.5a3 3 0 0 1-1.2-.3l-1-.8.8-.9c.4.5 1 .8 1.5.8.2 0 .3 0 .4-.2.2 0 .2-.1.2-.3v-.2l-.5-.3-.6-.2c-.5-.2-.8-.4-1-.7-.3-.2-.4-.5-.4-1 0-.4.1-.8.5-1.1.4-.3.8-.4 1.4-.4.8 0 1.5.2 2 .8l-.8.9c-.4-.4-.8-.6-1.2-.6l-.4.1-.2.3c0 .1 0 .2.2.3l.4.2.5.2 1.2.7c.2.2.3.6.3 1 0 .5-.2.9-.6 1.2-.4.3-.9.5-1.5.5Zm8.6 0c-.6 0-1.1-.2-1.6-.5s-.9-.6-1.2-1.1l1-.8.8.8c.3.2.6.3 1 .3l.7-.2.3-.6c0-.2 0-.4-.2-.5l-.7-.4-.8-.4a4 4 0 0 1-1.2-.8c-.3-.3-.5-.7-.5-1.2a1.9 1.9 0 0 1 1.2-1.8l1.2-.2c.5 0 1 0 1.4.3l1 1-1 .8c-.4-.6-.9-.8-1.4-.8a1 1 0 0 0-.7.1l-.2.6c0 .1 0 .3.2.4l.6.4.8.3c.6.3 1 .6 1.4 1 .3.2.4.6.4 1.1a2 2 0 0 1-1.2 1.9 3 3 0 0 1-1.3.3Zm9.9-5.6c.6 0 1.1.2 1.5.6.3.3.5.9.5 1.5v3.3H165v-3c0-.4-.1-.7-.3-.8a.9.9 0 0 0-.7-.3 1 1 0 0 0-.7.3 1 1 0 0 0-.3.7v3.1h-1.4v-3c0-.4-.1-.7-.3-.8a.9.9 0 0 0-.7-.3 1 1 0 0 0-.7.3 1 1 0 0 0-.3.7v3.1h-1.4V217h1.3v.5l.7-.5.8-.1c.7 0 1.3.2 1.6.7l.8-.5c.3-.2.6-.2 1-.2Zm3.4 0h1.5v5.4h-1.5V217Zm.7-1a1 1 0 0 1-.6-.2.8.8 0 0 1-.3-.7c0-.2 0-.4.3-.6l.6-.3c.3 0 .5.1.7.3l.3.6c0 .3-.1.5-.3.7a1 1 0 0 1-.7.2Zm5 5.2h.6v1.2l-1 .2c-.6 0-1.2-.2-1.5-.5-.4-.4-.6-.9-.6-1.6v-2.2h-.8V217h.8v-1.4h1.5v1.4h1.5v1.2h-1.5v2.1c0 .3 0 .5.2.7l.8.1Zm4.6-4.2c.6 0 1.1.2 1.5.6.3.3.5.9.5 1.5v3.3h-1.4v-3c0-.4-.1-.6-.3-.8a1 1 0 0 0-.7-.3 1 1 0 0 0-.8.3 1 1 0 0 0-.2.7v3.1H175v-8h1.5v3.1l.6-.4.8-.1ZM478.3 112.4h2.6c.5 0 1 .1 1.4.3a2.2 2.2 0 0 1 1.2 2 2.2 2.2 0 0 1-1.2 2 3 3 0 0 1-1.4.3h-1.2v2.6h-1.4v-7.2Zm2.6 3.4a1 1 0 0 0 1-1 1 1 0 0 0-.2-.8 1 1 0 0 0-.8-.3h-1.2v2h1.2Zm8.9-1.6-2.6 5.8a3 3 0 0 1-.9 1.3 2 2 0 0 1-1.2.3h-1v-1.3h.7l.6-.1.5-.6.1-.4-2-5h1.5l1.3 3.5 1.4-3.5h1.6Zm3.5 4.2h.7v1.2l-1 .1c-.6 0-1.2-.2-1.5-.5-.4-.3-.6-.8-.6-1.5v-2.2h-.8v-1.3h.8V113h1.5v1.3h1.5v1.3h-1.5v2c0 .4 0 .6.2.7l.7.2Zm4.7-4.3c.6 0 1.1.2 1.5.6.3.4.5.9.5 1.6v3.3h-1.4v-3.1c0-.4-.1-.6-.3-.8a1 1 0 0 0-.7-.3 1 1 0 0 0-.8.3 1 1 0 0 0-.2.8v3H495v-8h1.5v3.2c.1-.2.4-.3.6-.4l.8-.2Zm6 5.6a2.8 2.8 0 0 1-2.9-2.8c0-.5.1-1 .4-1.4.2-.4.6-.8 1-1a3 3 0 0 1 1.5-.4 2.9 2.9 0 0 1 2.8 2.8c0 .5 0 1-.3 1.4-.3.4-.6.8-1 1a3 3 0 0 1-1.5.4Zm0-1.4c.4 0 .7 0 1-.4.2-.2.4-.6.4-1s-.2-.8-.4-1c-.3-.3-.6-.5-1-.5s-.8.2-1 .5c-.3.2-.4.6-.4 1s.1.8.4 1c.2.3.6.4 1 .4Zm6.9-4.2c.6 0 1.1.2 1.5.6.3.4.5.9.5 1.6v3.3h-1.4v-3.2c0-.3-.1-.5-.3-.7a1 1 0 0 0-.7-.3 1 1 0 0 0-.8.3 1 1 0 0 0-.3.7v3.2H508v-5.4h1.3v.5l.7-.4.9-.2Zm9.1-1.5-.7.2c-.2.2-.3.4-.3.7v.7h1.2v1.3H519v4h-1.4v-4h-.8v-1.3h.8v-.9c0-.6.2-1.1.5-1.5.4-.3.9-.5 1.5-.5.3 0 .6 0 .8.2v1.2h-.4Zm3.6 7a2.8 2.8 0 0 1-2.9-2.8c0-.4.1-.9.4-1.3.3-.4.6-.8 1-1a3 3 0 0 1 1.5-.4 2.9 2.9 0 0 1 2.9 2.8 2.8 2.8 0 0 1-1.4 2.4 3 3 0 0 1-1.5.4Zm0-1.3c.4 0 .7 0 1-.4.2-.2.4-.6.4-1s-.2-.8-.4-1c-.3-.3-.6-.5-1-.5s-.8.2-1 .5c-.3.2-.4.6-.4 1s.1.8.4 1c.2.3.6.4 1 .4Zm6.8-4.1h.5v1.3h-.4c-.5 0-.8.1-1 .4-.3.2-.4.5-.4 1v2.7h-1.5v-5.4h1.3v.7a1.9 1.9 0 0 1 1.5-.7Zm-56.9 12.2h2.4c.7 0 1.4.2 2 .5.6.3 1 .7 1.4 1.2.3.6.4 1.2.4 1.9s-.1 1.3-.4 1.8c-.4.6-.8 1-1.4 1.3-.6.3-1.3.5-2 .5h-2.4v-7.2Zm2.3 5.8c.5 0 1 0 1.3-.2.4-.2.6-.5.8-.8l.3-1.2a2 2 0 0 0-.6-1.7c-.4-.3-1-.5-1.8-.5h-.8v4.4h.8Zm7.3-4.1c.7 0 1.2.2 1.6.6.5.4.7 1 .7 1.7v3.2H484v-.6a2 2 0 0 1-.7.5l-.9.2a2 2 0 0 1-1.4-.4c-.3-.3-.4-.7-.4-1.2s.1-.9.5-1.1c.4-.3.9-.5 1.5-.5h1.3v-.2c0-.3 0-.5-.2-.7-.2-.2-.5-.2-.8-.2l-.7.1-.7.6-.8-.9a3 3 0 0 1 2.4-1.1Zm-.3 4.5c.3 0 .6 0 .8-.3.2-.2.3-.4.3-.7v-.1h-1.1a1 1 0 0 0-.6.1l-.2.4c0 .2 0 .4.2.5l.6.1Zm6.7-.2h.7v1.2l-1 .1c-.7 0-1.2-.2-1.6-.5-.4-.3-.5-.8-.5-1.5v-2.2h-.9v-1.3h.9V127h1.4v1.3h1.5v1.3h-1.5v2c0 .4.1.6.3.7l.7.2Zm4-4.3c.7 0 1.2.2 1.6.6.4.4.6 1 .6 1.7v3.2h-1.3v-.6a2 2 0 0 1-.7.5l-1 .2a2 2 0 0 1-1.3-.4c-.3-.3-.5-.7-.5-1.2s.2-.9.6-1.1c.3-.3.8-.5 1.4-.5h1.4v-.2c0-.3-.1-.5-.3-.7-.1-.2-.4-.2-.7-.2l-.7.1-.7.6-.8-.9a3 3 0 0 1 2.4-1.1Zm-.3 4.5c.3 0 .5 0 .8-.3.2-.2.3-.4.3-.7v-.1H493a1 1 0 0 0-.5.1l-.2.4c0 .2 0 .4.2.5l.6.1Zm9.3 1.1c-.6 0-1.1-.1-1.6-.4-.5-.3-.8-.7-1.1-1.2l1-.7.7.7c.3.2.6.3 1 .3.3 0 .6 0 .8-.2.2-.1.2-.3.2-.6 0-.2 0-.4-.2-.5l-.7-.4-.7-.3c-.6-.3-1-.5-1.3-.9-.3-.3-.5-.7-.5-1.2a1.9 1.9 0 0 1 1.2-1.7l1.2-.3c.6 0 1 .1 1.4.4.4.2.7.5 1 1l-1 .7c-.4-.5-.8-.8-1.4-.8a1 1 0 0 0-.6.2c-.2.1-.3.3-.3.5s0 .3.2.4c.1.2.4.3.7.4l.8.4c.6.2 1 .5 1.3.9.3.3.4.7.4 1.2a2 2 0 0 1-1.2 1.8 3 3 0 0 1-1.3.3Zm6.3 0a3 3 0 0 1-1.5-.4 2.8 2.8 0 0 1-1.4-2.4 2.7 2.7 0 0 1 1.4-2.4 3 3 0 0 1 1.5-.4c.5 0 1 .1 1.4.4.3.2.7.5.9 1l-1 .7a2 2 0 0 0-.6-.6l-.7-.2c-.4 0-.8.2-1 .5-.3.2-.4.6-.4 1s.1.8.4 1c.2.3.6.5 1 .5l.7-.2.6-.6 1 .8a2.6 2.6 0 0 1-2.3 1.3Zm3.4-5.5h1.4v5.4h-1.4v-5.4Zm.7-1a1 1 0 0 1-.7-.3.8.8 0 0 1-.2-.6c0-.3 0-.5.2-.7l.7-.2c.3 0 .5 0 .7.2l.2.7c0 .2 0 .4-.2.6a1 1 0 0 1-.7.3Zm7.2 3.4-.1.8h-3.8c.1.3.3.6.6.8.2.2.5.2 1 .2s1-.1 1.4-.5l.6 1a3.2 3.2 0 0 1-3.6.4 2.7 2.7 0 0 1-1.4-2.4 2.8 2.8 0 0 1 1.3-2.4 2.8 2.8 0 0 1 2.8 0c.4.2.6.5.9.8.2.4.3.8.3 1.3Zm-2.6-1.3c-.3 0-.6 0-.8.3-.2.2-.4.4-.5.8h2.5a1 1 0 0 0-.4-.8c-.2-.2-.5-.3-.8-.3Zm6.6-1.2c.6 0 1.1.2 1.5.6.4.4.5.9.5 1.6v3.3h-1.4v-3.2c0-.3-.1-.5-.3-.7a1 1 0 0 0-.7-.3 1 1 0 0 0-.7.3 1 1 0 0 0-.3.7v3.2h-1.5v-5.4h1.4v.5c.1-.2.4-.3.6-.4l1-.2Zm6 5.6a3 3 0 0 1-1.5-.4 2.8 2.8 0 0 1-1.4-2.4 2.7 2.7 0 0 1 1.4-2.4 3 3 0 0 1 1.5-.4c.5 0 1 .1 1.4.4.4.2.7.5 1 1l-1.1.7a2 2 0 0 0-.6-.6l-.7-.2c-.4 0-.7.2-1 .5-.3.2-.4.6-.4 1s.1.8.4 1c.3.3.6.5 1 .5l.7-.2.6-.6 1 .8a2.6 2.6 0 0 1-2.3 1.3Zm8.3-3.1-.1.8h-3.7c0 .3.2.6.5.8.2.2.6.2 1 .2.5 0 1-.1 1.4-.5l.7 1a3.2 3.2 0 0 1-3.7.4 2.7 2.7 0 0 1-1.4-2.4 2.8 2.8 0 0 1 1.4-2.4 2.8 2.8 0 0 1 2.7 0c.4.2.7.5.9.8.2.4.3.8.3 1.3Zm-2.6-1.3c-.3 0-.5 0-.8.3-.2.2-.4.4-.4.8h2.4a1 1 0 0 0-.4-.8c-.2-.2-.5-.3-.8-.3Z"/><circle cx="505.8" cy="170.9" r="28.8" fill="#2DCCD3"/><circle cx="505.8" cy="170.9" r="22.3" fill="#fff"/><mask id="e" width="33" height="33" x="489" y="154" maskUnits="userSpaceOnUse" style="mask-type:alpha"><circle cx="505.8" cy="170.8" r="15.9" fill="#D9D9D9"/></mask><g mask="url(#e)"><path fill="url(#f)" d="M-129.7-292H566.8V206.1H-129.7z"/></g><path fill="#1E293B" d="M586.8 196.1h1.5v7.2h-1.5V196Zm5.8 1.7c.7 0 1.2.2 1.5.6.4.4.6.9.6 1.5v3.4h-1.5V200c0-.3 0-.5-.3-.7a1 1 0 0 0-.7-.3 1 1 0 0 0-.7.3 1 1 0 0 0-.3.7v3.2h-1.5v-5.4h1.4v.5l.7-.4.8-.2Zm6.2 4.3h.7v1.2h-1c-.7 0-1.2 0-1.6-.4-.4-.3-.6-.8-.6-1.5V199h-.8V198h.8v-1.3h1.5v1.3h1.5v1.2h-1.5v2.2c0 .3 0 .5.2.6l.8.2Zm4.6-4.2h.4v1.3h-.4c-.4 0-.7.1-1 .4-.3.2-.4.5-.4 1v2.7h-1.5v-5.4h1.4v.7a1.9 1.9 0 0 1 1.5-.7Zm3.8 5.5a2.8 2.8 0 0 1-2.5-1.4c-.2-.4-.4-.9-.4-1.4 0-.5.2-1 .4-1.4.3-.4.6-.8 1-1a3 3 0 0 1 1.5-.4 2.9 2.9 0 0 1 2.9 2.8c0 .5-.2 1-.4 1.4-.3.4-.6.8-1 1a3 3 0 0 1-1.5.4Zm0-1.4c.4 0 .7 0 1-.4.2-.2.4-.6.4-1s-.2-.8-.4-1c-.3-.3-.6-.5-1-.5s-.7.2-1 .4c-.3.3-.4.7-.4 1.1 0 .4.1.8.4 1 .3.3.6.4 1 .4Zm9.3-6.8v8h-1.3v-.6c-.2.3-.4.5-.7.6l-1 .2c-.5 0-1-.1-1.4-.4-.3-.2-.6-.5-.9-1a3 3 0 0 1-.3-1.4c0-.5.1-1 .3-1.4a2.5 2.5 0 0 1 2.3-1.4 2 2 0 0 1 1.6.6v-3.2h1.4Zm-2.7 6.9c.3 0 .6-.2 1-.4.2-.3.3-.6.3-1.1 0-.5-.1-.8-.4-1-.3-.4-.6-.5-1-.5-.3 0-.7.2-1 .4-.2.3-.3.6-.3 1 0 .5.1.9.4 1.2.2.2.6.4 1 .4Zm6.6 1.3c-.5 0-.9-.1-1.3-.3a2.6 2.6 0 0 1-1.2-2.2v-3h1.5v3.1c0 .3 0 .6.3.8.2.2.4.3.7.3.3 0 .5-.1.7-.3.2-.2.3-.5.3-.8v-3h1.5v3c0 .4-.1.8-.4 1.2-.2.4-.5.7-.8.9-.4.2-.8.3-1.3.3Zm6.4 0a3 3 0 0 1-1.4-.4 2.8 2.8 0 0 1-1.4-2.4 2.7 2.7 0 0 1 1.4-2.4 3 3 0 0 1 2.8 0c.4.2.7.5 1 1l-1 .7a2 2 0 0 0-.6-.6l-.8-.2c-.4 0-.7.2-1 .4-.2.3-.4.7-.4 1 0 .5.2.9.4 1.1.3.3.6.5 1 .5l.8-.2.5-.6 1 .8a2.6 2.6 0 0 1-2.3 1.3Zm6.2-1.3h.6v1.2h-1c-.6 0-1.2 0-1.5-.4-.4-.3-.6-.8-.6-1.5V199h-.8V198h.8v-1.3h1.5v1.3h1.5v1.2H632v2.2c0 .3 0 .5.2.6l.8.2Zm1.7-4.2h1.5v5.4h-1.5v-5.4Zm.7-1a1 1 0 0 1-.6-.3.8.8 0 0 1-.3-.6c0-.3 0-.5.3-.7l.6-.2c.3 0 .5 0 .7.2.2.2.3.4.3.7l-.3.6a1 1 0 0 1-.7.3Zm4.8 6.5a2.8 2.8 0 0 1-2.5-1.4c-.3-.4-.4-.9-.4-1.4 0-.5.1-1 .4-1.4.2-.4.6-.8 1-1a3 3 0 0 1 1.5-.4 2.9 2.9 0 0 1 2.8 2.8c0 .5 0 1-.3 1.4-.3.4-.6.8-1.1 1a3 3 0 0 1-1.4.4Zm0-1.4c.4 0 .7 0 1-.4.2-.2.4-.6.4-1s-.2-.8-.4-1c-.3-.3-.6-.5-1-.5s-.8.2-1 .4c-.3.3-.4.7-.4 1.1 0 .4.1.8.4 1 .2.3.6.4 1 .4Zm6.9-4.2c.6 0 1 .2 1.5.6.3.4.5.9.5 1.5v3.4h-1.5V200c0-.3 0-.5-.2-.7a1 1 0 0 0-.7-.3 1 1 0 0 0-.8.3 1 1 0 0 0-.3.7v3.2h-1.4v-5.4h1.3v.5l.7-.4.9-.2Zm9.2 4.3h.7v1.2h-1c-.7 0-1.2 0-1.6-.4-.4-.3-.6-.8-.6-1.5V199h-.8V198h.8v-1.3h1.5v1.3h1.5v1.2h-1.5v2.2c0 .3 0 .5.2.6l.8.2Zm4.2 1.3a2.8 2.8 0 0 1-2.5-1.4c-.3-.4-.4-.9-.4-1.4 0-.5.1-1 .4-1.4.2-.4.6-.8 1-1a3 3 0 0 1 1.5-.4 2.9 2.9 0 0 1 2.8 2.8c0 .5 0 1-.3 1.4-.3.4-.6.8-1 1a3 3 0 0 1-1.5.4Zm0-1.4c.4 0 .7 0 1-.4.2-.2.4-.6.4-1s-.2-.8-.4-1c-.3-.3-.6-.5-1-.5s-.8.2-1 .4c-.3.3-.4.7-.4 1.1 0 .4.1.8.4 1 .2.3.6.4 1 .4Zm-71 8v7.3h-1.4v-3.8l-1.8 2.2h-.5l-1.8-2.2v3.8h-1.5V210h.5l3 3.9 3-3.9h.5Zm3.7 1.8c.7 0 1.3.2 1.7.6.4.4.6 1 .6 1.7v3.2h-1.3v-.6a2 2 0 0 1-.8.5l-.9.2a2 2 0 0 1-1.3-.4c-.4-.4-.5-.7-.5-1.2s.2-.9.5-1.1c.4-.3.9-.5 1.5-.5h1.3v-.2c0-.3 0-.5-.2-.7-.2-.2-.4-.2-.8-.2l-.7.1-.7.6-.7-.9a3 3 0 0 1 2.3-1.1Zm-.3 4.5c.3 0 .6 0 .8-.3.2-.2.3-.4.3-.7v-.1H593a1 1 0 0 0-.6.1l-.2.4c0 .2.1.4.3.5l.5.1Zm6.6 1a3 3 0 0 1-1.5-.3 2.8 2.8 0 0 1-1.4-2.4 2.7 2.7 0 0 1 1.4-2.4 3 3 0 0 1 2.8 0c.4.2.8.5 1 1l-1 .7a2 2 0 0 0-.6-.6l-.7-.2c-.4 0-.8.2-1 .4-.3.3-.4.7-.4 1 0 .5.1.9.4 1.1.2.3.6.5 1 .5l.7-.2.6-.6 1 .8a2.6 2.6 0 0 1-2.3 1.3Zm6.3-5.5c.6 0 1 .2 1.4.6.4.4.6.9.6 1.5v3.4h-1.5v-3.1c0-.4 0-.6-.3-.8a1 1 0 0 0-.7-.3 1 1 0 0 0-.7.3 1 1 0 0 0-.3.8v3H603v-8h1.4v3.2l.7-.4c.2-.2.5-.2.8-.2Zm3.4.1h1.4v5.4h-1.4v-5.4Zm.7-1a1 1 0 0 1-.7-.3.8.8 0 0 1-.2-.6c0-.3 0-.5.2-.7l.7-.2c.3 0 .5 0 .7.2l.2.7c0 .2 0 .4-.2.6a1 1 0 0 1-.7.3Zm5 .9c.7 0 1.2.2 1.5.6.4.4.6.9.6 1.5v3.4h-1.5V214c0-.3 0-.5-.2-.7a1 1 0 0 0-.8-.3 1 1 0 0 0-.7.3 1 1 0 0 0-.3.7v3.2h-1.4v-5.4h1.3v.5l.7-.4.9-.2Zm8.5 2.5v.8h-3.8c0 .3.2.6.5.8.2.2.6.2 1 .2.5 0 1-.1 1.5-.5l.6 1a3.2 3.2 0 0 1-3.7.4 2.7 2.7 0 0 1-1.4-2.4 2.8 2.8 0 0 1 1.4-2.4 2.8 2.8 0 0 1 2.7 0c.4.2.7.4.9.8.2.4.3.8.3 1.3Zm-2.6-1.3c-.3 0-.5 0-.8.3-.2.2-.4.4-.4.8h2.4a1 1 0 0 0-.4-.8c-.2-.2-.4-.3-.8-.3Zm6.9-2.9h1.4v5.8h3.1v1.4h-4.5V210Zm10.5 4.2-.1.8h-3.7c0 .3.2.6.5.8.2.2.6.2 1 .2.5 0 1-.1 1.4-.5l.7 1a3.2 3.2 0 0 1-3.7.4 2.7 2.7 0 0 1-1.4-2.4 2.8 2.8 0 0 1 1.4-2.4 2.8 2.8 0 0 1 2.7 0c.4.2.7.4.9.8.2.4.3.8.3 1.3Zm-2.6-1.3c-.3 0-.5 0-.8.3-.2.2-.4.4-.4.8h2.4a1 1 0 0 0-.4-.8c-.2-.2-.5-.3-.8-.3Zm6-1.2c.6 0 1.2.2 1.6.6.4.4.6 1 .6 1.7v3.2h-1.3v-.6a2 2 0 0 1-.7.5l-1 .2a2 2 0 0 1-1.3-.4c-.3-.4-.5-.7-.5-1.2s.2-.9.5-1.1c.4-.3.9-.5 1.5-.5h1.4v-.2c0-.3-.1-.5-.3-.7-.2-.2-.4-.2-.7-.2l-.8.1-.6.6-.8-.9a3 3 0 0 1 2.3-1.1Zm-.4 4.5c.4 0 .6 0 .8-.3.3-.2.4-.4.4-.7v-.1h-1.2a1 1 0 0 0-.5.1c-.2.1-.2.3-.2.4 0 .2 0 .4.2.5l.5.1Zm6.8-4.4h.5v1.3h-.4c-.4 0-.8.1-1 .4-.3.2-.4.5-.4 1v2.7h-1.5v-5.4h1.4v.7a1.9 1.9 0 0 1 1.4-.7Zm4.3-.1c.6 0 1.1.2 1.5.6.3.4.5.9.5 1.5v3.4H653V214c0-.3-.1-.5-.3-.7a1 1 0 0 0-.7-.3 1 1 0 0 0-.8.3 1 1 0 0 0-.2.7v3.2h-1.5v-5.4h1.4v.5c.1-.2.4-.3.6-.4l1-.2Zm3.4.1h1.5v5.4h-1.5v-5.4Zm.8-1a1 1 0 0 1-.7-.3.8.8 0 0 1-.3-.6c0-.3.1-.5.3-.7l.7-.2c.2 0 .4 0 .6.2.2.2.3.4.3.7l-.3.6a1 1 0 0 1-.6.3Zm5 .9c.7 0 1.1.2 1.5.6.4.4.5.9.5 1.5v3.4h-1.4V214c0-.3-.1-.5-.3-.7a1 1 0 0 0-.7-.3 1 1 0 0 0-.7.3 1 1 0 0 0-.3.7v3.2h-1.5v-5.4h1.4v.5l.6-.4 1-.2Zm8.8.1v4.8c0 .8-.2 1.5-.7 2-.5.4-1.2.6-2 .6-1 0-2-.3-2.7-1l.8-1 .8.5c.3.2.6.2 1 .2s.7 0 1-.3c.2-.2.4-.5.4-1v-.2l-.8.4-.9.2c-.5 0-.9-.1-1.3-.3l-1-1-.2-1.4c0-.5 0-1 .3-1.3.2-.4.5-.8 1-1 .3-.2.7-.3 1.2-.3.4 0 .7 0 1 .2.3.1.6.3.8.6v-.7h1.3Zm-2.8 4c.4 0 .7-.2 1-.4.2-.3.4-.6.4-1 0-.5-.2-.9-.4-1.1-.3-.2-.6-.4-1-.4s-.7.2-1 .4c-.2.3-.4.6-.4 1a1.4 1.4 0 0 0 1.4 1.4Z"/><circle cx="626.4" cy="253.1" r="28.8" fill="#2DCCD3"/><circle cx="626.4" cy="253.1" r="22.3" fill="#fff"/><mask id="g" width="33" height="32" x="610" y="237" maskUnits="userSpaceOnUse" style="mask-type:alpha"><circle cx="626.4" cy="253.1" r="15.9" fill="#D9D9D9"/></mask><g mask="url(#g)"><path fill="url(#h)" d="M-9.1-209.7H687.4V288.4H-9.1z"/></g><path fill="#1E293B" d="M389.6 261.8v7.3H388v-3.8l-1.8 2.2h-.5l-1.8-2.2v3.8h-1.4v-7.3h.5l3 3.9 3-3.9h.5Zm3.6 1.8c.7 0 1.3.2 1.7.6.4.4.6 1 .6 1.7v3.2h-1.3v-.6a2 2 0 0 1-.7.5l-1 .2a2 2 0 0 1-1.3-.5c-.3-.3-.5-.6-.5-1.1 0-.5.2-.9.6-1.1.3-.3.8-.5 1.4-.5h1.4v-.2c0-.3-.1-.5-.3-.7-.2-.2-.4-.2-.7-.2l-.8.1-.6.6-.8-.9a3 3 0 0 1 2.3-1.1Zm-.3 4.5c.4 0 .6 0 .8-.3.3-.2.4-.4.4-.7v-.1h-1.2a1 1 0 0 0-.5.1c-.2.1-.2.3-.2.4 0 .2 0 .4.2.5l.6.1Zm6.6 1a3 3 0 0 1-1.5-.3 2.8 2.8 0 0 1-1.4-2.4 2.7 2.7 0 0 1 1.4-2.4 3 3 0 0 1 2.9 0c.4.2.7.5 1 1l-1.1.7a2 2 0 0 0-.6-.6l-.7-.2c-.4 0-.7.2-1 .4-.3.3-.4.7-.4 1 0 .5.1.9.4 1.1.3.3.6.5 1 .5l.7-.2.6-.6 1 .8a2.6 2.6 0 0 1-2.3 1.3Zm6.3-5.5c.6 0 1.1.2 1.5.6.3.4.5.9.5 1.5v3.4h-1.4V266c0-.4-.1-.6-.3-.8a1 1 0 0 0-.7-.3 1 1 0 0 0-.8.3 1 1 0 0 0-.2.8v3h-1.5v-8h1.5v3.2c.1-.2.3-.4.6-.5l.8-.1Zm3.4.1h1.5v5.4h-1.5v-5.4Zm.7-1a1 1 0 0 1-.6-.3.8.8 0 0 1-.3-.6c0-.3.1-.5.3-.7.2-.2.4-.2.6-.2.3 0 .5 0 .7.2.2.2.3.4.3.7l-.3.6a1 1 0 0 1-.7.3Zm5.1.9c.6 0 1.1.2 1.5.6.3.4.5.9.5 1.5v3.4h-1.4v-3.2c0-.3-.1-.5-.3-.7a1 1 0 0 0-.7-.3 1 1 0 0 0-.8.3 1 1 0 0 0-.2.7v3.2H412v-5.4h1.4v.5c.1-.2.4-.3.6-.4.3-.2.6-.2 1-.2Zm8.4 2.5v.8h-3.8c0 .3.3.6.5.8l1 .2c.5 0 1-.1 1.5-.5l.6 1a3.2 3.2 0 0 1-3.6.4 2.7 2.7 0 0 1-1.5-2.4 2.8 2.8 0 0 1 4.1-2.5c.4.2.7.5 1 1l.2 1.2Zm-2.5-1.3c-.3 0-.6 0-.8.3-.3.2-.4.4-.5.8h2.4a1 1 0 0 0-.3-.8c-.2-.2-.5-.3-.8-.3Zm6.8-2.9h1.5v5.8h3v1.4h-4.5v-7.2Zm10.5 4.2v.8h-3.8c0 .3.3.6.5.8l1 .2c.5 0 1-.1 1.5-.5l.6 1a3.2 3.2 0 0 1-3.7.4 2.7 2.7 0 0 1-1.4-2.4 2.8 2.8 0 0 1 4.1-2.5c.4.2.7.5 1 1l.2 1.2Zm-2.5-1.3c-.3 0-.6 0-.8.3-.3.2-.4.4-.5.8h2.4a1 1 0 0 0-.3-.8c-.2-.2-.5-.3-.8-.3Zm5.9-1.2c.7 0 1.2.2 1.6.6.4.4.7 1 .7 1.7v3.2h-1.4v-.6a2 2 0 0 1-.7.5l-1 .2a2 2 0 0 1-1.3-.5c-.3-.3-.5-.6-.5-1.1 0-.5.2-.9.6-1.1.3-.3.8-.5 1.5-.5h1.3v-.2c0-.3 0-.5-.3-.7-.1-.2-.4-.2-.7-.2l-.7.1-.7.6-.8-.9a3 3 0 0 1 2.4-1.1Zm-.3 4.5c.3 0 .6 0 .8-.3.2-.2.3-.4.3-.7v-.1h-1.1a1 1 0 0 0-.6.1l-.2.4c0 .2 0 .4.2.5l.6.1Zm6.8-4.5.4.1v1.3h-.3c-.5 0-.8.1-1 .4-.4.2-.5.5-.5 1v2.7h-1.4v-5.4h1.3v.7a1.9 1.9 0 0 1 1.5-.8Zm4.3 0c.6 0 1 .2 1.4.6.4.4.6.9.6 1.5v3.4h-1.5v-3.2c0-.3 0-.5-.3-.7a1 1 0 0 0-.7-.3 1 1 0 0 0-.7.3 1 1 0 0 0-.3.7v3.2h-1.5v-5.4h1.4v.5l.7-.4c.2-.2.5-.2.9-.2Zm3.4.1h1.4v5.4h-1.4v-5.4Zm.7-1a1 1 0 0 1-.7-.3.8.8 0 0 1-.2-.6c0-.3 0-.5.2-.7.2-.2.4-.2.7-.2.2 0 .5 0 .6.2.2.2.3.4.3.7 0 .2 0 .4-.3.6a1 1 0 0 1-.6.3Zm5 .9c.7 0 1.2.2 1.5.6.4.4.6.9.6 1.5v3.4H462v-3.2c0-.3 0-.5-.2-.7a1 1 0 0 0-.8-.3 1 1 0 0 0-.7.3 1 1 0 0 0-.3.7v3.2h-1.4v-5.4h1.3v.5l.7-.4c.3-.2.6-.2.9-.2Zm8.9.1v4.8c0 .8-.3 1.5-.8 2-.5.4-1.2.6-2 .6-1 0-1.9-.3-2.6-1l.7-1 .9.5c.2.2.5.2.9.2s.7 0 1-.3c.3-.2.4-.5.4-1v-.2l-.7.4-1 .2c-.4 0-.9-.1-1.3-.3-.3-.3-.7-.6-.9-1-.2-.4-.3-.8-.3-1.4 0-.5.1-1 .3-1.3.3-.4.6-.8 1-1 .3-.2.8-.3 1.3-.3.3 0 .7 0 1 .2.3.1.5.3.7.6v-.7h1.4Zm-2.8 4c.3 0 .6-.2 1-.4.2-.3.3-.6.3-1 0-.5-.1-.9-.4-1.1-.2-.2-.6-.4-1-.4-.3 0-.7.2-1 .4-.2.3-.3.6-.3 1 0 .5.1.8.4 1 .2.3.6.5 1 .5Zm-83.3 8.4-.8.2-.2.7v.7h1.2v1.2h-1.2v4.2h-1.5v-4.2h-.7v-1.2h.7v-.9c0-.6.2-1.1.6-1.5.3-.3.8-.5 1.5-.5l.8.1v1.3h-.4Zm3.5 7a2.8 2.8 0 0 1-2.9-2.8c0-.4.2-.9.4-1.3.3-.5.6-.8 1-1a3 3 0 0 1 1.5-.4 2.9 2.9 0 0 1 2.9 2.8c0 .5-.1 1-.4 1.4-.2.4-.6.8-1 1a3 3 0 0 1-1.5.4Zm0-1.3c.4 0 .7-.1 1-.4.3-.2.4-.6.4-1s-.1-.8-.4-1c-.3-.3-.6-.5-1-.5s-.7.2-1 .4c-.2.3-.4.7-.4 1 0 .5.2.9.4 1.1.3.3.6.4 1 .4Zm6.8-4.2.5.1v1.3h-.4c-.4 0-.8.1-1 .4-.3.2-.4.5-.4 1v2.7h-1.5v-5.4h1.4v.7a1.9 1.9 0 0 1 1.4-.8Zm4.5-1.7h2.4c.7 0 1.4.2 2 .5.6.3 1 .7 1.4 1.2.3.6.5 1.2.5 1.9s-.2 1.3-.5 1.8c-.4.6-.8 1-1.4 1.3-.6.3-1.3.5-2 .5H399v-7.2Zm2.4 5.8c.4 0 .9 0 1.2-.2.4-.2.7-.5.9-.8l.3-1.2a2 2 0 0 0-.7-1.7c-.4-.4-1-.5-1.7-.5h-.9v4.4h.9Zm7.2-4.1c.7 0 1.3.2 1.7.6.4.4.6 1 .6 1.7v3.2h-1.4v-.6a2 2 0 0 1-.7.5l-.9.2a2 2 0 0 1-1.3-.5c-.4-.3-.5-.6-.5-1.1 0-.5.2-.9.5-1.1.4-.3.9-.5 1.5-.5h1.3v-.2c0-.3 0-.5-.2-.7-.2-.2-.4-.2-.8-.2l-.7.1-.7.6-.7-.9a3 3 0 0 1 2.3-1.1Zm-.3 4.5c.3 0 .6 0 .8-.3.2-.2.3-.4.3-.7v-.1h-1.1a1 1 0 0 0-.6.1l-.2.4.2.5.6.1Zm6.7-.2h.7v1.2h-1c-.7 0-1.2 0-1.6-.4-.3-.3-.5-.8-.5-1.5v-2.3h-.9v-1.2h.9v-1.3h1.4v1.3h1.6v1.2H414v2.2c0 .3.1.5.3.6l.7.2Zm4-4.3c.7 0 1.2.2 1.6.6.5.4.7 1 .7 1.7v3.2H420v-.6a2 2 0 0 1-.7.5l-.9.2a2 2 0 0 1-1.4-.5c-.3-.3-.5-.6-.5-1.1 0-.5.2-.9.6-1.1.4-.3.8-.5 1.5-.5h1.3v-.2c0-.3 0-.5-.3-.7-.1-.2-.4-.2-.7-.2l-.7.1-.7.6-.8-.9a3 3 0 0 1 2.4-1.1Zm-.3 4.5c.3 0 .6 0 .8-.3.2-.2.3-.4.3-.7v-.1h-1.1a1 1 0 0 0-.6.1l-.2.4c0 .2 0 .4.2.5l.6.1Zm7-6.2h4.9v1.4h-3.3v1.4h2.4v1.2h-2.4v1.8h3.4v1.4h-5v-7.2Zm9 1.7c.7 0 1.2.2 1.6.6.3.4.5.9.5 1.5v3.4h-1.4v-3.2c0-.3-.1-.5-.3-.7a1 1 0 0 0-.7-.3 1 1 0 0 0-.8.3 1 1 0 0 0-.3.7v3.2H432v-5.4h1.3v.5l.7-.4c.3-.2.6-.2.9-.2Zm8.9.1v4.8c0 .8-.3 1.5-.8 2-.5.4-1.2.6-2 .6-1 0-1.9-.3-2.6-1l.8-1 .8.5c.3.2.6.2.9.2.4 0 .8 0 1-.3.3-.2.4-.5.4-1v-.2l-.7.4-1 .2-1.2-.3-1-1c-.2-.4-.3-.8-.3-1.4 0-.5.1-1 .4-1.3.2-.4.5-.8.9-1 .4-.2.8-.3 1.3-.3.4 0 .7 0 1 .2.3.1.5.3.7.6v-.7h1.4Zm-2.8 4c.4 0 .7-.2 1-.4.2-.3.3-.6.3-1 0-.5-.1-.9-.4-1.1-.2-.2-.5-.4-1-.4-.3 0-.6.2-1 .4-.2.3-.3.6-.3 1 0 .5.1.8.4 1 .3.3.6.5 1 .5Zm4.2-4h1.5v5.4H445v-5.4Zm.7-1a1 1 0 0 1-.6-.3.8.8 0 0 1-.3-.6c0-.3.1-.5.3-.7.2-.2.4-.2.6-.2.3 0 .5 0 .7.2.2.2.3.4.3.7l-.3.6a1 1 0 0 1-.7.3Zm5.1.9c.6 0 1.1.2 1.5.6.4.4.5.9.5 1.5v3.4h-1.4v-3.2c0-.3-.1-.5-.3-.7a1 1 0 0 0-.7-.3 1 1 0 0 0-.7.3 1 1 0 0 0-.3.7v3.2H448v-5.4h1.4v.5c.1-.2.4-.3.6-.4.3-.2.6-.2 1-.2Zm8.4 2.5v.8h-3.8c0 .3.3.6.5.8l1 .2c.5 0 1-.1 1.5-.5l.6 1a3.2 3.2 0 0 1-3.6.4 2.7 2.7 0 0 1-1.5-2.4 2.8 2.8 0 0 1 4.1-2.5c.4.2.7.5 1 1l.2 1.2Zm-2.5-1.3c-.3 0-.6 0-.8.3-.3.2-.4.4-.5.8h2.4a1 1 0 0 0-.3-.8c-.2-.2-.5-.3-.8-.3Zm8.7 1.3-.1.8h-3.7c0 .3.2.6.5.8l1 .2c.5 0 1-.1 1.4-.5l.6 1a3.2 3.2 0 0 1-3.6.4 2.7 2.7 0 0 1-1.4-2.4 2.8 2.8 0 0 1 1.4-2.4 2.8 2.8 0 0 1 2.7 0c.4.1.7.4.9.8.2.4.3.8.3 1.3Zm-2.6-1.3c-.3 0-.6 0-.8.3-.2.2-.4.4-.4.8h2.4a1 1 0 0 0-.4-.8c-.2-.2-.5-.3-.8-.3Zm6.5-1.2.5.1v1.3h-.4c-.4 0-.8.1-1 .4-.3.2-.4.5-.4 1v2.7h-1.5v-5.4h1.4v.7a1.9 1.9 0 0 1 1.4-.8Zm3.1 5.6a3 3 0 0 1-1.2-.3l-1-.7.8-1c.4.6 1 .8 1.5.8l.5-.1.2-.4s0-.2-.2-.2l-.4-.2-.6-.3-1-.6c-.3-.3-.4-.6-.4-1 0-.5.1-.9.5-1.2.4-.3.9-.4 1.4-.4.8 0 1.5.3 2 .8l-.8.9c-.3-.3-.7-.5-1.2-.5h-.4l-.1.4v.2l.5.2.5.3 1.2.6c.2.3.3.6.3 1 0 .5-.2 1-.6 1.2-.4.3-.8.5-1.5.5Z"/><circle cx="427.9" cy="319.8" r="28.8" fill="#2DCCD3"/><circle cx="427.9" cy="319.8" r="22.3" fill="#fff"/><mask id="i" width="32" height="33" x="412" y="303" maskUnits="userSpaceOnUse" style="mask-type:alpha"><circle cx="427.9" cy="319.8" r="15.9" fill="#D9D9D9"/></mask><g mask="url(#i)"><path fill="url(#j)" d="M-207.5-143H489V355.1H-207.5z"/></g><path fill="#1E293B" d="M561.2 338.6h-2.9l-.4 1h-1.6l3.2-7.3h.5l3.2 7.3h-1.6l-.4-1Zm-1.4-3.6-1 2.4h2l-1-2.4Zm9.4-3.5v8H568v-.6l-.7.6-1 .2c-.5 0-1-.1-1.4-.4-.4-.2-.7-.6-.9-1a3 3 0 0 1-.3-1.4c0-.5 0-1 .3-1.5a2.5 2.5 0 0 1 2.3-1.3 2 2 0 0 1 1.6.6v-3.2h1.4Zm-2.8 6.9c.4 0 .7-.2 1-.4.2-.3.4-.6.4-1.1 0-.5-.2-.9-.4-1.1-.3-.3-.6-.4-1-.4s-.7.1-1 .4c-.2.3-.4.6-.4 1 0 .5.2.9.4 1.2.3.2.6.4 1 .4Zm9.4-4.2-2.6 5.5h-.5l-2.6-5.5h1.5l1.4 3 1.3-3h1.5Zm2.9-.1c.7 0 1.2.2 1.6.6.5.4.7 1 .7 1.7v3.2h-1.4v-.6a2 2 0 0 1-.7.5l-.9.2a2 2 0 0 1-1.4-.5c-.3-.3-.4-.6-.4-1.1 0-.5.1-.9.5-1.2.4-.2.9-.4 1.5-.4h1.3v-.2c0-.3 0-.5-.2-.7-.2-.2-.5-.3-.8-.3l-.7.2-.7.6-.8-1a3 3 0 0 1 2.4-1Zm-.3 4.5c.3 0 .6 0 .8-.3.2-.2.3-.4.3-.7v-.1h-1.1a1 1 0 0 0-.6.1l-.2.4c0 .2 0 .4.2.5l.6.1Zm6.9-4.5c.6 0 1 .2 1.4.6.4.4.6.9.6 1.5v3.4h-1.5v-3.2c0-.3 0-.5-.2-.7a1 1 0 0 0-.8-.3 1 1 0 0 0-.7.3 1 1 0 0 0-.3.7v3.2h-1.4v-5.4h1.3v.5l.7-.5.9-.1Zm6 5.6a3 3 0 0 1-1.5-.4 2.8 2.8 0 0 1-1.4-2.4 2.7 2.7 0 0 1 1.4-2.4 3 3 0 0 1 1.4-.4c.6 0 1 .1 1.4.3l1 1-1 .8a2 2 0 0 0-.6-.6l-.7-.2c-.4 0-.8.2-1 .4-.3.3-.4.7-.4 1 0 .5.1.8.4 1.1.2.3.6.4 1 .4.2 0 .5 0 .7-.2.2 0 .4-.3.6-.5l1 .8a2.6 2.6 0 0 1-2.4 1.3Zm8.3-3.1-.1.8h-3.8l.5.8 1 .2c.5 0 1-.2 1.5-.5l.6 1a3.2 3.2 0 0 1-3.6.4 2.7 2.7 0 0 1-1.5-2.4 2.8 2.8 0 0 1 1.4-2.4 2.8 2.8 0 0 1 2.7 0c.4.1.7.4 1 .8.1.4.3.8.3 1.3Zm-2.6-1.3c-.3 0-.6 0-.8.3-.3.1-.4.4-.5.7h2.4a1 1 0 0 0-.3-.7c-.2-.2-.5-.3-.8-.3Zm9-3.8v8h-1.3v-.6l-.7.6-1 .2c-.5 0-1-.1-1.4-.4-.3-.2-.7-.6-.9-1a3 3 0 0 1-.3-1.4l.3-1.5a2.5 2.5 0 0 1 2.3-1.3 2 2 0 0 1 1.6.6v-3.2h1.4Zm-2.7 6.9c.3 0 .6-.2.9-.4.3-.3.4-.6.4-1.1 0-.5-.1-.9-.4-1.1-.3-.3-.6-.4-1-.4-.3 0-.7.1-1 .4-.2.3-.3.6-.3 1 0 .5.1.9.4 1.2.2.2.6.4 1 .4Zm14.3-6.1v7.3H616v-3.9l-1.8 2.3h-.4l-1.8-2.3v3.9h-1.5v-7.3h.5l3 3.8 3-3.8h.5Zm3.7 1.8c.7 0 1.2.2 1.6.6.4.4.7 1 .7 1.7v3.2h-1.4v-.6a2 2 0 0 1-.7.5l-1 .2a2 2 0 0 1-1.3-.5c-.3-.3-.5-.6-.5-1.1 0-.5.2-.9.6-1.2.3-.2.8-.4 1.5-.4h1.3v-.2c0-.3 0-.5-.3-.7-.1-.2-.4-.3-.7-.3l-.7.2-.7.6-.8-1a3 3 0 0 1 2.4-1Zm-.3 4.5c.3 0 .6 0 .8-.3.2-.2.3-.4.3-.7v-.1H621a1 1 0 0 0-.6.1l-.2.4c0 .2 0 .4.2.5l.6.1Zm6.5 1a3 3 0 0 1-1.4-.3 2.8 2.8 0 0 1-1.4-2.4 2.7 2.7 0 0 1 1.4-2.4 3 3 0 0 1 1.4-.4c.5 0 1 .1 1.4.3l1 1-1 .8a2 2 0 0 0-.6-.6l-.8-.2c-.4 0-.7.2-1 .4-.2.3-.4.7-.4 1 0 .5.2.8.4 1.1.3.3.6.4 1 .4.3 0 .6 0 .8-.2.2 0 .4-.3.5-.5l1 .8a2.6 2.6 0 0 1-2.3 1.3Zm6.3-5.5c.7 0 1.1.2 1.5.6.4.4.5.9.5 1.5v3.4h-1.4v-3.2c0-.3-.1-.5-.3-.7a1 1 0 0 0-.7-.3 1 1 0 0 0-.7.3 1 1 0 0 0-.3.7v3.2h-1.5v-8.1h1.5v3.2l.6-.5.8-.1Zm3.4.1h1.5v5.4h-1.5v-5.4Zm.8-1a1 1 0 0 1-.7-.3.8.8 0 0 1-.3-.6c0-.3.1-.5.3-.7.2-.2.4-.2.7-.2.2 0 .4 0 .6.2.2.2.3.4.3.7 0 .2 0 .4-.3.6a1 1 0 0 1-.6.3Zm5 .9c.7 0 1.2.2 1.5.6.4.4.6.9.6 1.5v3.4h-1.5v-3.2c0-.3 0-.5-.3-.7a1 1 0 0 0-.7-.3 1 1 0 0 0-.7.3 1 1 0 0 0-.3.7v3.2h-1.5v-5.4h1.4v.5l.7-.5.8-.1Zm8.5 2.5-.1.8h-3.8l.5.8 1 .2c.5 0 1-.2 1.5-.5l.6 1a3.2 3.2 0 0 1-3.6.4 2.7 2.7 0 0 1-1.4-2.4 2.8 2.8 0 0 1 1.3-2.4 2.8 2.8 0 0 1 2.8 0c.3.1.6.4.8.8.3.4.4.8.4 1.3Zm-2.6-1.3c-.3 0-.6 0-.8.3-.2.1-.4.4-.5.7h2.5a1 1 0 0 0-.4-.7c-.2-.2-.5-.3-.8-.3Zm-66.1 11.1h1.4v5.8h3.1v1.4h-4.5v-7.2Zm10.5 4.2-.1.8h-3.7c0 .3.2.6.5.8l1 .2c.5 0 1-.2 1.4-.5l.7 1a3.2 3.2 0 0 1-3.7.4 2.7 2.7 0 0 1-1.4-2.4 2.8 2.8 0 0 1 1.4-2.4 2.8 2.8 0 0 1 2.7 0c.4.1.7.4.9.8.2.4.3.8.3 1.3Zm-2.6-1.3c-.3 0-.6 0-.8.3-.2.1-.4.4-.4.7h2.4a1 1 0 0 0-.4-.7c-.2-.2-.5-.3-.8-.3Zm6-1.2c.6 0 1.2.2 1.6.6.4.4.6 1 .6 1.7v3.2h-1.3v-.6a2 2 0 0 1-.7.5l-1 .2a2 2 0 0 1-1.3-.5c-.3-.3-.5-.6-.5-1.1 0-.5.2-.9.5-1.2.4-.2.9-.4 1.5-.4h1.4v-.2c0-.3-.1-.5-.3-.7-.2-.2-.4-.3-.7-.3l-.8.2-.6.6-.8-1a3 3 0 0 1 2.3-1Zm-.4 4.5c.4 0 .6 0 .8-.3.3-.2.4-.4.4-.7v-.1h-1.2a1 1 0 0 0-.5.1c-.2.1-.2.2-.2.4s0 .4.2.5l.5.1Zm6.8-4.5.5.1v1.3h-.4c-.4 0-.8.1-1 .3-.3.3-.4.6-.4 1v2.8h-1.5v-5.4h1.4v.6a1.9 1.9 0 0 1 1.4-.7Zm4.3 0c.6 0 1.1.2 1.5.6.3.4.5.9.5 1.5v3.4H608v-3.2c0-.3-.1-.5-.3-.7a1 1 0 0 0-.7-.3 1 1 0 0 0-.8.3 1 1 0 0 0-.2.7v3.2h-1.5v-5.4h1.3v.5l.7-.5 1-.1Zm3.4.1h1.5v5.4h-1.5v-5.4Zm.8-1a1 1 0 0 1-.7-.3.8.8 0 0 1-.3-.6c0-.3.1-.5.3-.7.2-.2.4-.2.7-.2.2 0 .4 0 .6.2.2.2.3.4.3.7l-.3.6a1 1 0 0 1-.6.3Zm5 .9c.7 0 1.1.2 1.5.6.4.4.5.9.5 1.5v3.4h-1.4v-3.2c0-.3-.1-.5-.3-.7a1 1 0 0 0-.7-.3 1 1 0 0 0-.7.3 1 1 0 0 0-.3.7v3.2h-1.5v-5.4h1.4v.5l.6-.5 1-.1Zm8.8.1v4.8c0 .8-.2 1.5-.7 2-.5.4-1.2.6-2 .6-1 0-2-.3-2.7-1l.8-1 .8.5 1 .2c.4 0 .7-.1 1-.3.2-.2.4-.5.4-1v-.2l-.8.4-.9.2c-.5 0-.9-.1-1.3-.3l-1-1-.2-1.4c0-.5 0-1 .3-1.3.2-.5.5-.8 1-1 .3-.2.7-.3 1.2-.3.4 0 .7 0 1 .2.3.1.6.3.8.6v-.7h1.3Zm-2.8 4c.4 0 .7-.2 1-.4.2-.3.4-.6.4-1 0-.6-.2-.9-.4-1.1-.3-.3-.6-.4-1-.4s-.7.2-1 .4c-.2.3-.4.6-.4 1a1.4 1.4 0 0 0 1.4 1.4Z"/><circle cx="604" cy="391.7" r="28.8" fill="#2DCCD3"/><circle cx="604" cy="391.7" r="22.3" fill="#fff"/><mask id="k" width="33" height="33" x="588" y="375" maskUnits="userSpaceOnUse" style="mask-type:alpha"><circle cx="604.4" cy="391.7" r="15.9" fill="#D9D9D9"/></mask><g mask="url(#k)"><path fill="url(#l)" d="M-31.1-71.1H665.4V427H-31.1z"/></g><path fill="#1E293B" d="M377.4 57h2.7c.5 0 .9.1 1.3.3a2.2 2.2 0 0 1 1.2 2 2.2 2.2 0 0 1-1.2 2 3 3 0 0 1-1.3.4h-1.3v2.5h-1.4V57Zm2.7 3.4c.3 0 .6-.1.8-.3l.2-.8a1 1 0 0 0-.2-.7 1 1 0 0 0-.8-.3h-1.3v2h1.3Zm8.8-1.6-2.6 5.8a3 3 0 0 1-.9 1.3 2 2 0 0 1-1.2.3h-1v-1.3h.7l.6-.1c.2-.1.4-.3.5-.6l.2-.3-2-5h1.5l1.3 3.4 1.4-3.5h1.5Zm3.6 4.2h.7v1.2l-1 .1c-.7 0-1.2-.2-1.6-.5-.4-.3-.6-.8-.6-1.5v-2.2h-.8v-1.3h.8v-1.3h1.5v1.3h1.5v1.3h-1.5v2c0 .4 0 .6.2.7l.8.2Zm4.7-4.3c.6 0 1 .2 1.4.6.4.4.5 1 .5 1.6v3.3h-1.4V61c0-.3-.1-.6-.3-.8a1 1 0 0 0-.7-.3 1 1 0 0 0-.7.3 1 1 0 0 0-.3.8v3h-1.5v-8h1.5v3.2l.6-.4.9-.2Zm5.9 5.6a2.8 2.8 0 0 1-2.5-1.4c-.2-.4-.4-.9-.4-1.4 0-.5.2-1 .4-1.4.3-.4.6-.8 1-1a3 3 0 0 1 1.5-.4 2.9 2.9 0 0 1 2.9 2.8c0 .5-.2 1-.4 1.4-.3.4-.6.8-1 1a3 3 0 0 1-1.5.4Zm0-1.3c.4 0 .7-.2 1-.5.3-.2.4-.6.4-1s-.1-.8-.4-1c-.3-.3-.6-.5-1-.5s-.7.2-1 .5c-.2.2-.4.6-.4 1s.2.8.4 1c.3.3.6.5 1 .5Zm7-4.3c.5 0 1 .2 1.4.6.3.4.5 1 .5 1.6v3.3h-1.4V61c0-.4-.1-.6-.3-.8a1 1 0 0 0-.7-.3 1 1 0 0 0-.7.3 1 1 0 0 0-.3.8v3H407v-5.3h1.4v.5c.1-.2.4-.3.6-.4l1-.2Zm9-1.4-.7.1c-.2.2-.2.4-.2.7v.7h1.1v1.3h-1.1v4h-1.5v-4h-.7v-1.3h.7V58c0-.7.2-1.2.6-1.5.3-.4.8-.6 1.5-.6.3 0 .5 0 .8.2v1.2h-.5Zm3.6 7a2.8 2.8 0 0 1-2.5-1.4c-.2-.4-.4-.9-.4-1.4 0-.5.2-1 .4-1.4.3-.4.6-.8 1-1a3 3 0 0 1 1.5-.4 2.9 2.9 0 0 1 2.9 2.8c0 .5-.1 1-.4 1.4-.3.4-.6.8-1 1a3 3 0 0 1-1.5.4Zm0-1.3c.4 0 .7-.2 1-.5.3-.2.4-.6.4-1s-.1-.8-.4-1c-.3-.3-.6-.5-1-.5s-.7.2-1 .5c-.2.2-.4.6-.4 1s.2.8.4 1c.3.3.6.5 1 .5Zm6.8-4.2h.5v1.3h-.4c-.4 0-.8.1-1 .4-.3.2-.4.5-.4 1v2.7h-1.5v-5.4h1.4v.7a1.9 1.9 0 0 1 1.4-.7Zm-44.8 15.5 1 .7c.2.3.3.6.3 1a2 2 0 0 1-1.1 2l-1.2.2h-3.2V71h2.5l1.2.3a1.9 1.9 0 0 1 1 1.7c0 .6-.1 1-.5 1.3Zm-2.8-2v1.6h1c.3 0 .5 0 .7-.2l.2-.6c0-.2 0-.4-.2-.6l-.7-.2h-1Zm1.6 4.6c.4 0 .6 0 .8-.2.2-.2.3-.4.3-.7 0-.2-.1-.5-.3-.6a1 1 0 0 0-.8-.3H382V77h1.6Zm8.6-1.7-.1.8h-3.7c0 .3.2.6.5.8.2.2.6.3 1 .3.5 0 1-.2 1.4-.6l.7 1a3.2 3.2 0 0 1-3.7.4 2.7 2.7 0 0 1-1.4-2.4 2.8 2.8 0 0 1 1.4-2.4 2.8 2.8 0 0 1 2.7 0c.4.2.7.5.9.8.2.4.3.8.3 1.3Zm-2.6-1.3c-.3 0-.5 0-.8.3-.2.2-.4.4-.4.8h2.4a1 1 0 0 0-.4-.8c-.2-.2-.5-.3-.8-.3Zm9.1-1v4.7c0 .9-.2 1.5-.7 2-.6.4-1.2.6-2 .6-1 0-2-.3-2.7-1l.8-1 .8.5c.3.2.6.2 1 .2s.7 0 1-.3c.2-.2.3-.5.3-1v-.2c-.1.2-.4.3-.7.5l-.9.1c-.5 0-1-.1-1.3-.3-.4-.2-.7-.6-1-1l-.2-1.3c0-.6 0-1 .3-1.4.2-.4.5-.7 1-1 .3-.2.7-.3 1.2-.3.4 0 .7 0 1 .2.3.2.6.3.8.6v-.7h1.3Zm-2.8 3.9c.4 0 .7-.1 1-.4.2-.2.4-.6.4-1 0-.5-.2-.9-.4-1.1-.3-.2-.6-.3-1-.3s-.7 0-1 .3c-.2.3-.4.6-.4 1a1.4 1.4 0 0 0 1.4 1.4Zm4.3-4h1.4v5.4h-1.4v-5.4Zm.7-1a1 1 0 0 1-.7-.3.8.8 0 0 1-.3-.6c0-.3.1-.5.3-.7l.7-.2c.2 0 .5 0 .6.2.2.2.3.4.3.7 0 .2 0 .4-.3.6a1 1 0 0 1-.6.3Zm5 1c.7 0 1.2.1 1.5.5.4.4.6 1 .6 1.6v3.3h-1.5V75c0-.4 0-.6-.3-.8a1 1 0 0 0-.7-.3 1 1 0 0 0-.7.3 1 1 0 0 0-.3.8v3H403v-5.3h1.3v.5l.7-.4.9-.2Zm6.4 0c.6 0 1 .1 1.4.5.4.4.6 1 .6 1.6v3.3h-1.5V75c0-.4 0-.6-.2-.8a1 1 0 0 0-.8-.3 1 1 0 0 0-.7.3 1 1 0 0 0-.3.8v3h-1.4v-5.3h1.3v.5l.7-.4.9-.2Zm8.4 2.4-.1.8h-3.7c0 .3.2.6.5.8.2.2.6.3 1 .3.5 0 1-.2 1.4-.6l.7 1a3.2 3.2 0 0 1-3.7.4 2.7 2.7 0 0 1-1.4-2.4 2.8 2.8 0 0 1 1.4-2.4 2.8 2.8 0 0 1 2.7 0c.4.2.7.5.9.8.2.4.3.8.3 1.3Zm-2.6-1.3c-.3 0-.6 0-.8.3-.2.2-.4.4-.4.8h2.4a1 1 0 0 0-.4-.8c-.2-.2-.5-.3-.8-.3Zm6.5-1.1h.5v1.3h-.4c-.4 0-.8.1-1 .4-.3.2-.4.5-.4 1v2.7h-1.5v-5.4h1.4v.7a1.9 1.9 0 0 1 1.4-.7Zm3.2 5.5a3 3 0 0 1-1.3-.3l-1-.7.8-1c.4.6 1 .8 1.5.8l.5-.1.2-.3c0-.2 0-.2-.2-.3l-.4-.2-.6-.3-1-.6c-.3-.3-.4-.6-.4-1 0-.5.2-.9.5-1.2.4-.2.9-.4 1.4-.4.8 0 1.5.3 2 .8l-.8 1c-.3-.4-.7-.6-1.2-.6l-.4.1-.1.3v.2c.2 0 .3.2.5.3l.5.2 1.2.6c.2.3.3.6.3 1 0 .5-.2 1-.6 1.3-.3.3-.8.4-1.4.4Z"/><circle cx="404.9" cy="116" r="28.8" fill="#2DCCD3"/><circle cx="404.9" cy="116" r="22.3" fill="#fff"/><mask id="m" width="32" height="33" x="389" y="98" maskUnits="userSpaceOnUse" style="mask-type:alpha"><circle cx="404.9" cy="114.7" r="15.9" fill="#D9D9D9"/></mask><g mask="url(#m)"><path fill="url(#n)" d="M-230.6-348.1H465.9V150H-230.6z"/></g><path fill="#64748B" d="M204.7 92.1c.7.3 1.1.8 1.1 1.5 0 .4 0 .7-.3 1-.2.2-.4.4-.8.5a3 3 0 0 1-1.1.2 3 3 0 0 1-1.2-.2c-.3-.1-.6-.3-.8-.6l-.2-.9c0-.7.3-1.2 1.1-1.5-.6-.3-.9-.8-.9-1.4 0-.5.2-.9.6-1.1.4-.3.8-.5 1.4-.5.6 0 1 .2 1.4.5.4.2.6.6.6 1.1 0 .6-.3 1-1 1.4Zm-1.1-2a1 1 0 0 0-.6.2c-.2.1-.2.3-.2.5s0 .3.2.4l.6.4.6-.4c.2 0 .2-.2.2-.4s0-.4-.2-.5a1 1 0 0 0-.6-.2Zm0 4.2c.3 0 .6 0 .7-.2.2-.1.3-.3.3-.5 0-.3 0-.4-.2-.6l-.8-.4-.8.4-.2.6c0 .2 0 .4.2.5l.8.2Zm7.6 0h-.7v.9h-1.3v-1h-3V94l2-4.6h1.2l-1.6 3.9h1.4v-1.7h1.3v1.7h.7v1Zm7.3-1.6-.1.7h-3.1c0 .3.2.5.4.6.2.2.5.3.8.3a2 2 0 0 0 1.3-.5l.5.8a2.7 2.7 0 0 1-3 .4 2.3 2.3 0 0 1-1.3-2 2.3 2.3 0 0 1 1.2-2 2.4 2.4 0 0 1 2.3 0c.3.1.5.3.7.7.2.3.3.6.3 1Zm-2.2-1a1 1 0 0 0-.7.2c-.1.1-.3.3-.3.6h2c0-.3-.1-.5-.3-.6a1 1 0 0 0-.7-.3Zm8.2-1c.5 0 1 .1 1.2.4.3.4.5.8.5 1.3v2.8H225v-2.6l-.2-.6a.7.7 0 0 0-.6-.3c-.3 0-.5.1-.6.3-.2.1-.2.3-.2.6v2.6H222v-2.6c0-.3 0-.5-.2-.6a.7.7 0 0 0-.5-.3c-.3 0-.5.1-.6.3-.2.1-.3.3-.3.6v2.6h-1.2v-4.5h1.1v.4l.6-.3.7-.2c.6 0 1 .3 1.3.7l.7-.5.8-.2Zm5.3 0c.4 0 .8 0 1.1.2a2.5 2.5 0 0 1 1 2c0 .5 0 1-.2 1.3l-.8.8a2 2 0 0 1-1.1.3 2 2 0 0 1-.7-.1l-.6-.4v2h-1.2v-6h1v.5l.7-.5.8-.2Zm-.2 3.5c.3 0 .6-.1.8-.3.2-.3.3-.6.3-1 0-.3 0-.6-.3-.8a1 1 0 0 0-.8-.4c-.3 0-.6.1-.8.4-.2.2-.3.5-.3.9s0 .7.3.9c.2.2.5.3.8.3Zm3.2-5.8h1.2v6.8h-1.2v-6.8Zm4.5 6.9c-.5 0-.9-.1-1.2-.3-.4-.2-.7-.5-.9-.9a2.3 2.3 0 0 1 0-2.3c.2-.4.5-.6.9-.9.3-.2.7-.3 1.2-.3a2.4 2.4 0 0 1 2.4 2.4c0 .4-.1.8-.3 1.1-.3.4-.5.7-1 .9-.3.2-.7.3-1.1.3Zm0-1.1c.3 0 .6-.1.8-.4.2-.2.3-.5.3-.8 0-.4 0-.7-.3-.9a1 1 0 0 0-.8-.4 1 1 0 0 0-.8.4c-.3.2-.4.5-.4.9 0 .3.1.6.4.8.2.3.4.4.8.4Zm7.5-3.5-2.2 4.9c-.2.4-.4.8-.7 1-.3.2-.6.3-1 .3a3 3 0 0 1-.8 0v-1.1h1.1l.3-.6.2-.3-1.7-4.2h1.2l1.1 3 1.2-3h1.3Zm4.6 2v.7h-3.2c0 .3.2.5.4.6.2.2.5.3.8.3a2 2 0 0 0 1.3-.5l.5.8a2.7 2.7 0 0 1-3 .4 2.3 2.3 0 0 1-1.2-2 2.3 2.3 0 0 1 1.1-2 2.4 2.4 0 0 1 2.3 0c.3.1.5.3.7.7.2.3.3.6.3 1Zm-2.2-1a1 1 0 0 0-.6.2c-.2.1-.4.3-.4.6h2c0-.3 0-.5-.3-.6a1 1 0 0 0-.7-.3Zm7.2 1v.7h-3.2c0 .3.2.5.4.6.3.2.5.3.9.3a2 2 0 0 0 1.2-.5l.5.8a2.7 2.7 0 0 1-3 .4 2.3 2.3 0 0 1-1.2-2 2.3 2.3 0 0 1 1.1-2 2.4 2.4 0 0 1 2.3 0c.3.1.6.3.8.7l.2 1Zm-2.1-1a1 1 0 0 0-.7.2c-.2.1-.3.3-.4.6h2c0-.3 0-.5-.2-.6a1 1 0 0 0-.7-.3Zm4.4 3.6c-.4 0-.7 0-1-.2-.4-.2-.6-.4-.8-.7l.6-.7c.4.4.8.6 1.2.6h.4l.2-.4-.1-.2-.4-.2-.4-.2-1-.5-.2-.8c0-.4.1-.8.4-1 .3-.2.7-.4 1.2-.4a2 2 0 0 1 1.6.7l-.6.8c-.3-.3-.7-.5-1-.5l-.4.1v.5l.4.1.4.2 1 .6c.2.2.3.5.3.8 0 .4-.2.8-.5 1a2 2 0 0 1-1.3.4Zm7.5-4.7c.5 0 .9.2 1.2.5.3.4.4.8.4 1.3v2.8h-1.2v-2.6c0-.3 0-.5-.2-.6a.8.8 0 0 0-.6-.3c-.3 0-.5.1-.6.3-.2.1-.3.3-.3.6v2.6h-1.2v-6.8h1.2v2.7l.6-.3.7-.2Zm4.5 0c.6 0 1 .2 1.4.5.4.4.5.8.5 1.4v2.7h-1v-.4l-.7.4a2 2 0 0 1-.7.1c-.5 0-.9-.1-1.2-.4-.3-.2-.4-.5-.4-1 0-.3.2-.6.5-.9a2 2 0 0 1 1.2-.3h1.1v-.2c0-.3 0-.5-.2-.6l-.6-.2-.6.1-.6.5-.6-.7c.5-.7 1.1-1 2-1Zm-.2 3.8c.2 0 .5 0 .6-.2.2-.2.3-.4.3-.7H268l-.2.4c0 .2 0 .3.2.4l.5.1Zm7.4-3.7-2.3 4.6h-.4l-2.2-4.6h1.3l1.1 2.6 1.2-2.6h1.3Zm4.6 2-.1.7h-3.1c0 .3.2.5.4.6.2.2.5.3.8.3a2 2 0 0 0 1.3-.5l.5.8a2.7 2.7 0 0 1-3 .4 2.3 2.3 0 0 1-1.3-2 2.3 2.3 0 0 1 1.2-2 2.4 2.4 0 0 1 2.3 0c.3.1.5.3.7.7.2.3.3.6.3 1Zm-2.2-1a1 1 0 0 0-.6.2c-.2.1-.4.3-.4.6h2c0-.3-.1-.5-.3-.6a1 1 0 0 0-.7-.3Zm7.7 2.5h.6v1l-.8.1a2 2 0 0 1-1.3-.4c-.3-.3-.5-.7-.5-1.3v-1.8h-.7v-1h.7v-1.2h1.2v1.1h1.3v1h-1.3v1.8c0 .3 0 .5.2.6l.6.1Zm3.2-3.6c.6 0 1 .2 1.4.5.4.4.5.8.5 1.4v2.7h-1v-.4l-.7.4a2 2 0 0 1-.7.1c-.5 0-.9-.1-1.2-.4-.2-.2-.4-.5-.4-1 0-.3.2-.6.5-.9a2 2 0 0 1 1.2-.3h1.1v-.2c0-.3 0-.5-.2-.6l-.6-.2-.6.1-.6.5-.6-.7c.5-.7 1.2-1 2-1Zm-.2 3.8c.3 0 .5 0 .7-.2l.2-.7h-1.4l-.1.4.1.4.5.1Zm6.2.8-1.8-2.5v2.5h-1.2v-6.8h1.2v4.2l1.6-1.9h1.5l-1.7 2 1.8 2.5h-1.4Zm6-2.5-.1.7H298c0 .3.2.5.4.6.2.2.5.3.8.3a2 2 0 0 0 1.3-.5l.5.8a2.7 2.7 0 0 1-3 .4 2.3 2.3 0 0 1-1.3-2 2.3 2.3 0 0 1 1.2-2 2.4 2.4 0 0 1 2.3 0c.3.1.5.3.7.7.2.3.3.6.3 1Zm-2.2-1a1 1 0 0 0-.6.2c-.2.1-.4.3-.4.6h2c0-.3-.1-.5-.3-.6a1 1 0 0 0-.7-.3Zm5.5-1c.5 0 .9.1 1.2.4.3.4.4.8.4 1.3v2.8H305v-2.6c0-.3 0-.5-.2-.6a.8.8 0 0 0-.6-.3c-.3 0-.5.1-.6.3-.2.1-.3.3-.3.6v2.6H302v-4.5h1.1v.4l.6-.3.8-.2Zm7.4 3.5h.6v1l-.8.1a2 2 0 0 1-1.4-.4c-.3-.3-.4-.7-.4-1.3v-1.8h-.7v-1h.7v-1.2h1.2v1.1h1.3v1H311v1.8c0 .3 0 .5.2.6l.6.1Zm3.8-3.6c.5 0 1 .2 1.2.5.3.4.5.8.5 1.3v2.8h-1.2v-2.6c0-.3-.1-.5-.3-.6a.8.8 0 0 0-.5-.3c-.3 0-.5.1-.7.3l-.2.6v2.6h-1.2v-6.8h1.2v2.7l.5-.3.7-.2Zm2.8.1h1.2v4.5h-1.2v-4.5Zm.6-.8-.6-.2a.7.7 0 0 1-.2-.6c0-.2 0-.4.2-.5.2-.2.4-.2.6-.2.2 0 .4 0 .5.2.2.1.3.3.3.5l-.3.6-.5.2Zm3.1 5.4c-.4 0-.7 0-1-.2l-.8-.7.6-.7c.4.4.8.6 1.3.6h.4l.1-.4v-.2l-.4-.2-.5-.2-1-.5-.2-.8c0-.4.1-.8.4-1 .3-.2.7-.4 1.2-.4a2 2 0 0 1 1.6.7l-.6.8c-.3-.3-.6-.5-1-.5l-.4.1v.5l.4.1.4.2 1 .6c.2.2.3.5.3.8 0 .4-.2.8-.5 1a2 2 0 0 1-1.3.4Zm7.2 0c-.5 0-.9-.1-1.2-.3-.4-.2-.7-.5-.9-.8L327 93a2.3 2.3 0 0 1 1.2-2 2.4 2.4 0 0 1 2.3 0c.3.1.6.4.8.7l-.8.7-.5-.5a1 1 0 0 0-.6-.2c-.4 0-.6.2-.9.4-.2.2-.3.5-.3.9 0 .3.1.6.3.8.3.3.5.4.9.4.2 0 .4 0 .6-.2.2 0 .3-.2.5-.5l.8.7a2.1 2.1 0 0 1-2 1.1Zm4.7 0L333 95c-.3-.2-.6-.5-.8-.9a2.3 2.3 0 0 1 0-2.3c.2-.4.5-.6.8-.9.4-.2.8-.3 1.3-.3a2.4 2.4 0 0 1 2.3 2.4c0 .4 0 .8-.3 1.1-.2.4-.5.7-.8.9-.4.2-.8.3-1.3.3Zm0-1.1c.4 0 .7-.1.9-.4.2-.2.3-.5.3-.8 0-.4-.1-.7-.3-.9a1 1 0 0 0-.8-.4 1 1 0 0 0-.9.4c-.2.2-.3.5-.3.9a1 1 0 0 0 1.2 1.2Zm5.3 1.1c-.4 0-.7 0-1-.2a2 2 0 0 1-.8-.8c-.2-.3-.2-.7-.2-1v-2.6h1.2v2.6c0 .3 0 .5.2.7l.6.2c.3 0 .5 0 .6-.2.2-.2.2-.4.2-.7v-2.6h1.3v2.5c0 .4-.1.8-.3 1.1l-.7.8-1 .2Zm5.5-4.6h.4v1.1h-.4c-.3 0-.6.1-.8.3-.2.2-.3.5-.3.9v2.2h-1.3v-4.5h1.2v.6a1.6 1.6 0 0 1 1.2-.6Zm2.5 4.6c-.4 0-.8 0-1-.2-.4-.2-.7-.4-.9-.7l.6-.7c.4.4.8.6 1.3.6h.4l.2-.4-.1-.2-.4-.2-.5-.2c-.4-.1-.7-.3-.9-.5-.2-.2-.3-.5-.3-.8 0-.4.2-.8.5-1 .3-.2.7-.4 1.1-.4a2 2 0 0 1 1.6.7l-.6.8c-.3-.3-.6-.5-1-.5l-.3.1-.1.2v.3l.4.1.5.2 1 .6.2.8c0 .4-.2.8-.5 1a2 2 0 0 1-1.2.4Zm6.7-2.6v.7h-3.2c0 .3.2.5.4.6.3.2.5.3.9.3a2 2 0 0 0 1.2-.5l.5.8a2.7 2.7 0 0 1-3 .4 2.3 2.3 0 0 1-1.2-2 2.3 2.3 0 0 1 1.1-2 2.4 2.4 0 0 1 2.3 0c.3.1.6.3.7.7.2.3.3.6.3 1Zm-2.1-1a1 1 0 0 0-.7.2c-.2.1-.3.3-.4.6h2c0-.3 0-.5-.3-.6a1 1 0 0 0-.6-.3ZM212.5 309.4c.7.3 1.1.8 1.1 1.5 0 .4 0 .7-.3 1-.2.2-.4.4-.8.5a3 3 0 0 1-1.1.2 3 3 0 0 1-1.2-.2c-.3-.1-.6-.3-.8-.6-.2-.2-.2-.5-.2-.9 0-.7.3-1.2 1.1-1.5-.6-.3-.9-.8-.9-1.4 0-.5.2-.8.6-1.1.3-.3.8-.4 1.4-.4.6 0 1 .1 1.4.4.4.3.5.6.5 1.1 0 .6-.3 1-.8 1.4Zm-1.1-2a1 1 0 0 0-.6.2c-.2.1-.2.3-.2.5s0 .3.2.4c0 .2.3.3.6.4.3-.1.5-.2.6-.4l.2-.4c0-.2 0-.4-.2-.5a1 1 0 0 0-.6-.2Zm0 4.2c.3 0 .6 0 .7-.2.2-.1.3-.3.3-.5 0-.3 0-.4-.3-.6l-.7-.4-.8.4c-.2.2-.2.4-.2.6 0 .2 0 .4.2.5.2.2.5.2.8.2Zm7.6 0h-.8v.9H217v-1h-3v-.3l2-4.6h1.2l-1.6 4h1.4v-1.8h1.2v1.7h.8v1Zm7.3-1.6-.1.7H223c0 .3.2.5.4.6.2.2.5.3.8.3a2 2 0 0 0 1.2-.5l.5.8a2.7 2.7 0 0 1-3 .4 2.3 2.3 0 0 1-1.2-2 2.3 2.3 0 0 1 1.2-2 2.4 2.4 0 0 1 2.2 0c.4.1.6.4.8.7.2.3.3.6.3 1Zm-2.2-1a1 1 0 0 0-.7.2c-.2.1-.3.4-.3.6h2c0-.2-.1-.5-.3-.6a1 1 0 0 0-.7-.3Zm8.2-1c.5 0 1 .1 1.2.4.3.4.5.8.5 1.3v2.8h-1.2v-2.6c0-.3-.1-.5-.3-.6a.7.7 0 0 0-.5-.3c-.3 0-.5.1-.6.3-.2.1-.2.3-.2.6v2.6h-1.3v-2.6c0-.3 0-.5-.2-.6a.7.7 0 0 0-.6-.3c-.2 0-.4.1-.5.3-.2.1-.3.3-.3.6v2.6h-1.2V308h1.1v.4l.6-.3.7-.2c.6 0 1 .3 1.3.7l.6-.5.9-.2Zm5.3 0c.4 0 .8 0 1.1.3.3.2.6.4.8.8.2.3.3.7.3 1.2l-.3 1.2-.8.8a2 2 0 0 1-1.1.3 2 2 0 0 1-.8-.1l-.5-.4v2H235v-6h1.2v.5c.1-.2.3-.4.6-.5l.8-.2Zm-.2 3.5c.3 0 .6-.1.8-.3.2-.3.3-.6.3-1 0-.3 0-.6-.3-.8a1 1 0 0 0-.8-.4c-.3 0-.6.2-.8.4-.2.2-.4.5-.4.9s.2.7.4.9c.2.2.5.3.8.3Zm3.2-5.7h1.2v6.7h-1.2v-6.7Zm4.5 6.8c-.5 0-.9-.1-1.2-.3-.4-.2-.7-.5-.9-.8l-.3-1.2a2.3 2.3 0 0 1 1.2-2c.3-.2.7-.4 1.2-.4a2.4 2.4 0 0 1 2.4 2.4c0 .4-.1.8-.4 1.2l-.8.8-1.2.3Zm0-1.1c.3 0 .6-.1.8-.4.2-.2.3-.5.3-.8 0-.4 0-.7-.3-.9a1 1 0 0 0-.8-.3 1 1 0 0 0-.9.3c-.2.2-.3.5-.3.9a1 1 0 0 0 1.2 1.2Zm7.5-3.5-2.2 4.9c-.2.5-.4.8-.7 1-.3.2-.6.3-1 .3a3 3 0 0 1-.8 0v-1h.5l.5-.2c.2 0 .3-.2.4-.5l.2-.3-1.8-4.2h1.3l1.1 3 1.2-3h1.3Zm4.6 2-.1.7H254c0 .3.2.5.4.6.2.2.5.3.8.3a2 2 0 0 0 1.3-.5l.5.8a2.7 2.7 0 0 1-3 .4 2.3 2.3 0 0 1-1.2-2 2.3 2.3 0 0 1 1-2 2.4 2.4 0 0 1 2.4 0c.3.1.5.4.7.7.2.3.3.6.3 1Zm-2.2-1a1 1 0 0 0-.6.2c-.2.1-.4.4-.4.6h2c0-.2-.1-.5-.3-.6a1 1 0 0 0-.7-.3Zm7.2 1v.7H259c0 .3.2.5.4.6.3.2.5.3.9.3a2 2 0 0 0 1.2-.5l.5.8a2.7 2.7 0 0 1-3 .4 2.3 2.3 0 0 1-1.2-2 2.3 2.3 0 0 1 1.1-2 2.4 2.4 0 0 1 2.3 0c.3.1.6.4.7.7.2.3.3.6.3 1Zm-2.1-1a1 1 0 0 0-.7.2c-.2.1-.3.4-.4.6h2c0-.2 0-.5-.3-.6a1 1 0 0 0-.6-.3Zm4.4 3.6c-.4 0-.7 0-1-.2-.4-.2-.6-.4-.8-.7l.6-.7c.4.4.8.6 1.2.6h.4l.2-.4-.1-.2-.4-.2-.4-.2-1-.5c-.2-.2-.3-.5-.3-.8 0-.4.2-.8.5-1 .3-.2.7-.4 1.2-.4a2 2 0 0 1 1.6.7l-.6.8c-.3-.3-.7-.5-1-.5l-.4.1-.1.3.1.2.4.2.4.1 1 .6.2.8c0 .4-.1.8-.4 1a2 2 0 0 1-1.3.4Zm7.4-4.7c.6 0 1 .2 1.3.5.3.4.4.8.4 1.3v2.8h-1.2v-2.6c0-.2 0-.5-.2-.6a.8.8 0 0 0-.6-.3c-.3 0-.5.1-.6.3-.2.1-.3.4-.3.6v2.6h-1.2v-6.7h1.2v2.6l.6-.3.6-.2Zm4.6 0c.6 0 1 .2 1.4.5.3.4.5.8.5 1.5v2.6h-1.1v-.4l-.6.4a2 2 0 0 1-.8.1c-.4 0-.8-.1-1-.4-.4-.2-.5-.5-.5-1 0-.3.2-.6.5-.9a2 2 0 0 1 1.2-.3h1.1v-.2c0-.3 0-.5-.2-.6l-.6-.2c-.3 0-.5 0-.6.2-.2 0-.4.2-.6.4l-.6-.7c.5-.6 1.1-1 2-1Zm-.2 3.8c.2 0 .5 0 .6-.2.2-.2.3-.4.3-.7h-1l-.4.1-.2.3c0 .2 0 .3.2.4l.5.1Zm7.3-3.7-2.2 4.6h-.4l-2.2-4.6h1.3l1.1 2.6 1.2-2.6h1.2Zm4.7 2-.1.7H285c0 .3.2.5.4.6.2.2.5.3.8.3a2 2 0 0 0 1.2-.5l.6.8a2.7 2.7 0 0 1-3 .4 2.3 2.3 0 0 1-1.3-2 2.3 2.3 0 0 1 1.2-2 2.4 2.4 0 0 1 2.3 0c.3.1.5.4.7.7.2.3.3.6.3 1Zm-2.2-1a1 1 0 0 0-.7.2l-.3.6h2c0-.2-.1-.5-.3-.6a1 1 0 0 0-.7-.3Zm7.7 2.5h.6v1l-.8.1a2 2 0 0 1-1.3-.4c-.4-.3-.5-.7-.5-1.3v-1.8h-.7v-1h.7v-1.2h1.2v1.1h1.3v1H293v1.8c0 .3 0 .5.2.6l.6.1Zm3.2-3.6c.6 0 1 .2 1.4.5.4.4.5.8.5 1.5v2.6h-1v-.4l-.7.4a2 2 0 0 1-.7.1c-.5 0-.9-.1-1.2-.4-.2-.2-.4-.5-.4-1 0-.3.2-.6.5-.9a2 2 0 0 1 1.2-.3h1.1v-.2c0-.3 0-.5-.2-.6l-.6-.2c-.2 0-.4 0-.6.2-.2 0-.4.2-.6.4l-.6-.7c.5-.6 1.2-1 2-1Zm-.2 3.8c.3 0 .5 0 .7-.2l.2-.7h-1l-.4.1-.2.3.2.4.5.1Zm6.2.8-1.8-2.5v2.5H300v-6.7h1.2v4.1l1.6-1.9h1.5l-1.7 2 1.8 2.5H303Zm6-2.5-.1.7h-3.1c0 .3.2.5.4.6.2.2.5.3.8.3a2 2 0 0 0 1.3-.5l.5.8a2.7 2.7 0 0 1-3 .4 2.3 2.3 0 0 1-1.3-2 2.3 2.3 0 0 1 1.2-2 2.4 2.4 0 0 1 2.3 0c.3.1.5.4.7.7.2.3.3.6.3 1Zm-2.2-1a1 1 0 0 0-.7.2l-.3.6h2c0-.2-.1-.5-.3-.6a1 1 0 0 0-.7-.3Zm5.4-1c.6 0 1 .1 1.3.4.3.4.4.8.4 1.3v2.8h-1.2v-2.6c0-.3 0-.5-.2-.6a.8.8 0 0 0-.6-.3c-.3 0-.5.1-.6.3-.2.1-.3.3-.3.6v2.6h-1.2V308h1.1v.5l.6-.4.7-.2Zm7.5 3.5h.6v1l-.8.1a2 2 0 0 1-1.4-.4c-.3-.3-.4-.7-.4-1.3v-1.8h-.7v-1h.7v-1.2h1.2v1.1h1.2v1H319v1.8c0 .3 0 .5.2.6l.6.1Zm3.8-3.6c.5 0 1 .2 1.2.5.3.4.5.8.5 1.3v2.8H324v-2.6c0-.2-.1-.5-.3-.6a.8.8 0 0 0-.6-.3l-.6.3-.2.6v2.6h-1.2v-6.7h1.2v2.6l.5-.3.7-.2Zm2.8.1h1.2v4.5h-1.2V308Zm.6-.8-.6-.2a.7.7 0 0 1-.2-.6c0-.2 0-.4.2-.5.2-.2.3-.2.6-.2.2 0 .4 0 .5.2.2.1.2.3.2.5s0 .4-.2.6l-.5.2Zm3.1 5.4c-.4 0-.7 0-1-.2-.4-.2-.6-.4-.8-.7l.6-.7c.4.4.8.6 1.2.6h.4c.2-.1.2-.2.2-.4l-.1-.2s-.2 0-.3-.2l-.5-.2-1-.5-.2-.8c0-.4.1-.8.4-1 .3-.2.7-.4 1.2-.4a2 2 0 0 1 1.6.7l-.6.8c-.3-.3-.6-.5-1-.5l-.4.1v.5l.4.2.4.1 1 .6c.2.2.3.5.3.8 0 .4-.2.8-.5 1a2 2 0 0 1-1.3.4Zm7.2 0c-.5 0-.9 0-1.2-.3l-1-.8-.2-1.2a2.3 2.3 0 0 1 1.2-2 2.4 2.4 0 0 1 2.3 0c.3.1.6.4.8.7l-.9.7c0-.2-.2-.4-.4-.5a1 1 0 0 0-.6-.1c-.4 0-.6 0-.9.3-.2.2-.3.5-.3.9l.3.9c.3.2.5.3.9.3.2 0 .4 0 .6-.2l.4-.4.9.6a2.1 2.1 0 0 1-2 1.1Zm4.7 0-1.2-.3-.8-.8-.3-1.2c0-.5 0-.8.3-1.2.2-.4.5-.6.8-.8.4-.2.8-.4 1.2-.4a2.4 2.4 0 0 1 2.4 2.4c0 .4 0 .8-.3 1.2-.2.3-.5.6-.9.8-.3.2-.7.3-1.2.3Zm0-1.1c.4 0 .6-.1.9-.4.2-.2.3-.5.3-.8 0-.4-.1-.7-.3-.9a1 1 0 0 0-.9-.3 1 1 0 0 0-.8.3c-.2.2-.3.5-.3.9a1 1 0 0 0 1.2 1.2Zm5.3 1.1c-.4 0-.7 0-1-.2a2 2 0 0 1-.8-.8c-.2-.3-.2-.6-.2-1V308h1.2v2.6c0 .3 0 .5.2.7l.6.2c.2 0 .4 0 .6-.2.2-.2.2-.4.2-.7V308h1.3v2.5c0 .5-.1.8-.3 1.1l-.7.8-1 .2Zm5.5-4.6h.4v1.1h-.4c-.3 0-.6.1-.8.3-.2.2-.4.5-.4.9v2.2h-1.2V308h1.1v.6a1.6 1.6 0 0 1 1.3-.6Zm2.5 4.6c-.4 0-.8 0-1-.2-.4-.2-.7-.4-.9-.7l.6-.7c.4.4.8.6 1.3.6h.4l.2-.4-.2-.2-.3-.2-.5-.2c-.4-.1-.7-.3-.9-.5-.2-.2-.3-.5-.3-.8 0-.4.2-.8.5-1 .3-.2.7-.4 1.1-.4a2 2 0 0 1 1.6.7l-.6.8c-.3-.3-.6-.5-1-.5l-.3.1-.1.3v.2l.4.2.5.1.9.6c.2.2.3.5.3.8 0 .4-.2.8-.5 1a2 2 0 0 1-1.2.4Zm6.7-2.6v.7h-3.2c0 .3.2.5.4.6.3.2.5.3.9.3a2 2 0 0 0 1.2-.5l.5.8a2.7 2.7 0 0 1-3 .4 2.3 2.3 0 0 1-1.2-2 2.3 2.3 0 0 1 1.1-2 2.4 2.4 0 0 1 2.3 0c.3.1.6.4.7.7.2.3.3.6.3 1Zm-2.1-1a1 1 0 0 0-.7.2c-.2.1-.3.4-.4.6h2c0-.2 0-.5-.3-.6a1 1 0 0 0-.6-.3Z"/><defs><pattern id="d" width="1" height="1" patternContentUnits="objectBoundingBox"><use xlink:href="#o" transform="matrix(.00058 0 0 .00074 -.1 0)"/></pattern><pattern id="f" width="1" height="1" patternContentUnits="objectBoundingBox"><use xlink:href="#p" transform="scale(.00073 .00102)"/></pattern><pattern id="h" width="1" height="1" patternContentUnits="objectBoundingBox"><use xlink:href="#p" transform="scale(.00073 .00102)"/></pattern><pattern id="j" width="1" height="1" patternContentUnits="objectBoundingBox"><use xlink:href="#p" transform="scale(.00073 .00102)"/></pattern><pattern id="l" width="1" height="1" patternContentUnits="objectBoundingBox"><use xlink:href="#p" transform="scale(.00073 .00102)"/></pattern><pattern id="n" width="1" height="1" patternContentUnits="objectBoundingBox"><use xlink:href="#p" transform="scale(.00073 .00102)"/></pattern><linearGradient id="b" x1="127.3" x2="51.3" y1="260.8" y2="260.8" gradientUnits="userSpaceOnUse"><stop stop-color="#E2E8F0"/><stop offset="1" stop-color="#D9D9D9" stop-opacity="0"/></linearGradient><filter id="a" width="747" height="458" x=".9" y=".3" color-interpolation-filters="sRGB" filterUnits="userSpaceOnUse"><feFlood flood-opacity="0" result="BackgroundImageFix"/><feColorMatrix in="SourceAlpha" result="hardAlpha" values="0 0 0 0 0 0 0 0 0 0 0 0 0 0 0 0 0 0 127 0"/><feOffset dx="8" dy="8"/><feComposite in2="hardAlpha" operator="out"/><feColorMatrix values="0 0 0 0 0.886275 0 0 0 0 0.909804 0 0 0 0 0.941176 0 0 0 1 0"/><feBlend in2="BackgroundImageFix" result="effect1_dropShadow_1208_8015"/><feBlend in="SourceGraphic" in2="effect1_dropShadow_1208_8015" result="shape"/></filter></defs></svg>