<svg fill="none" xmlns="http://www.w3.org/2000/svg" viewBox="0 0 738 388"><g filter="url(#a)"><rect x="1" y="1" width="728" height="378" rx="11" fill="#fff" stroke="#E2E8F0" stroke-width="2"/><path fill="#02A9F7" d="M198 81.1H654V105.1H198z"/><path d="M665.6 92.4c.4.1.8.4 1 .7.4.4.5.8.5 1.3s0 .9-.3 1.2c-.2.4-.5.6-.9.8l-1.2.3c-.6 0-1-.1-1.5-.4l-1-1 1-.8.6.7c.2.2.5.3.8.3.4 0 .6-.1.8-.3.3-.2.4-.4.4-.8 0-.3-.1-.5-.4-.7l-1-.2h-.8V93l1.4-1.9h-2.2V90h4.2v.3l-1.4 2.1Zm5.4 0c.5.1.9.4 1.2.7.3.4.4.8.4 1.3s0 .9-.3 1.2c-.2.4-.5.6-.9.8-.4.2-.8.3-1.3.3s-1-.1-1.4-.4l-1-1 1-.8.6.7c.2.2.5.3.8.3.3 0 .6-.1.8-.3.2-.2.4-.4.4-.8 0-.3-.2-.5-.4-.7l-1-.2h-.8V93l1.4-1.9h-2.2V90h4.2v.3l-1.5 2.1Zm3.5 4.3a1 1 0 0 1-1-1l.3-.6c.2-.2.4-.3.7-.3.3 0 .5.1.6.3.2.2.3.4.3.7 0 .2 0 .5-.2.6-.2.2-.4.3-.7.3Zm4.8-4.3c.5.1.9.4 1.2.7.3.4.4.8.4 1.3s0 .9-.3 1.2c-.2.4-.5.6-1 .8-.3.2-.7.3-1.2.3s-1-.1-1.4-.4l-1-1 1-.8.6.7c.2.2.5.3.8.3.3 0 .6-.1.8-.3.2-.2.3-.4.3-.8 0-.3 0-.5-.3-.7l-1-.2h-.8V93l1.3-1.9h-2.2V90h4.3v.3l-1.5 2.1Zm4.2.8c-.3 0-.6-.1-.8-.3-.3-.1-.5-.3-.6-.6-.2-.2-.3-.5-.3-.8 0-.3.1-.6.3-.8.1-.3.3-.5.6-.6.2-.2.5-.2.8-.2a1.7 1.7 0 0 1 1.5.8c.2.2.2.5.2.8 0 .3 0 .6-.2.8a1.7 1.7 0 0 1-1.5.9ZM687 90h1.1l-3.8 6.6h-1l3.7-6.6Zm-3.3 2.2c.1 0 .3 0 .4-.2l.2-.5c0-.2 0-.4-.2-.5a.6.6 0 0 0-.4-.2c-.2 0-.4 0-.5.2-.2.1-.2.3-.2.5s0 .4.2.5c0 .2.3.2.5.2Zm4 4.5c-.3 0-.6 0-.8-.2l-.7-.6-.2-.9.2-.8.7-.6.8-.2c.3 0 .6 0 .9.2a1.6 1.6 0 0 1 .8 1.4c0 .4 0 .6-.2.9a1.7 1.7 0 0 1-1.5.8Zm0-1 .5-.1.2-.6c0-.2 0-.3-.2-.5a.6.6 0 0 0-.5-.2l-.5.2-.1.5.1.6.5.2Z" fill="#02A9F7"/><path fill="#02A9F7" d="M198 120.1H641V144.1H198z"/><path d="M652.7 131.4c.5.1.8.4 1.1.7.3.4.5.8.5 1.3s-.1.9-.3 1.2c-.3.4-.6.6-1 .8-.3.2-.7.3-1.2.3s-1-.1-1.4-.4c-.4-.3-.8-.6-1-1l1-.8c.1.3.4.6.6.7.2.2.5.3.8.3.3 0 .6-.1.8-.3.2-.2.3-.4.3-.8 0-.3-.1-.5-.3-.7l-1-.2h-.9v-.4l1.4-1.9H650V129h4.3v.3l-1.5 2.1Zm7.3 3v1.2H655v-.3l2.4-2.6.7-.9.2-.7c0-.3-.1-.5-.3-.7a.9.9 0 0 0-.6-.3c-.3 0-.5.1-.7.3a1 1 0 0 0-.3.7v.5h-1.3v-.6a2.1 2.1 0 0 1 1-1.8c.4-.2.8-.3 1.3-.3.4 0 .8 0 1.2.2l.8.8c.2.3.3.7.3 1 0 .5-.1 1-.4 1.3a9 9 0 0 1-1 1.3l-.9 1h2.5Zm1.9 1.3a1 1 0 0 1-1-1l.3-.6c.2-.2.4-.3.7-.3.3 0 .5.1.6.3.2.2.3.4.3.7 0 .2 0 .5-.2.6-.2.2-.4.3-.7.3Zm6.7-1.3v1.2h-4.9v-.3l2.4-2.6c.3-.3.6-.6.7-.9.2-.2.2-.5.2-.7 0-.3 0-.5-.2-.7a.9.9 0 0 0-.7-.3c-.3 0-.5.1-.7.3a1 1 0 0 0-.2.7v.5H664a2.2 2.2 0 0 1 .2-1.6c.2-.3.4-.6.8-.8l1.2-.3c.5 0 .9 0 1.2.2.4.2.6.5.8.8.2.3.3.7.3 1 0 .5-.1 1-.3 1.3a9 9 0 0 1-1.1 1.3l-.9 1h2.5Zm2.8-2.2-.9-.3-.6-.6-.2-.8c0-.3 0-.6.2-.8l.6-.6c.3-.2.6-.2.9-.2a1.7 1.7 0 0 1 1.5.8l.2.8c0 .3 0 .6-.2.8a1.7 1.7 0 0 1-1.5.9Zm3.4-3.2h1l-3.7 6.6H671l3.8-6.6Zm-3.4 2.2c.2 0 .4 0 .5-.2l.2-.5-.2-.5a.6.6 0 0 0-.5-.2c-.2 0-.4 0-.5.2l-.2.5.2.5c.1.2.3.2.5.2Zm4 4.5c-.2 0-.5 0-.8-.2l-.6-.6c-.2-.3-.2-.5-.2-.9 0-.3 0-.5.2-.8l.6-.6.9-.2c.3 0 .6 0 .8.2a1.6 1.6 0 0 1 .9 1.4c0 .4-.1.6-.3.9a1.7 1.7 0 0 1-1.4.8Zm0-1 .5-.1c.2-.2.2-.3.2-.6 0-.2 0-.3-.2-.5a.6.6 0 0 0-.4-.2l-.5.2-.2.5c0 .3 0 .4.2.6l.5.2Z" fill="#02A9F7"/><path fill="#02A9F7" d="M198 159.1H620V183.1H198z"/><path d="M631.7 170.4c.5.1.9.4 1.2.7.3.4.4.8.4 1.3s0 .9-.3 1.2c-.2.4-.5.6-1 .8-.3.2-.7.3-1.2.3s-1-.1-1.4-.4l-1-1 1-.8.6.7c.2.2.5.3.8.3.3 0 .6-.1.8-.3.2-.2.3-.4.3-.8 0-.3 0-.5-.3-.7l-1-.2h-.8v-.4l1.3-1.9H629V168h4.3v.3l-1.5 2.1Zm5.2-2.4v6.6h-1.4v-5l-1.2.4-.3-1.2 2.4-.8h.5Zm2.3 6.7a1 1 0 0 1-1-1l.3-.6c.2-.2.4-.3.7-.3.3 0 .5.1.6.3.2.2.3.4.3.7 0 .2 0 .5-.2.6-.2.2-.4.3-.7.3Zm4-6.7v6.6h-1.4v-5l-1.2.4-.3-1.2 2.4-.8h.5Zm3.2 3.2-.9-.3c-.2-.1-.5-.3-.6-.6-.2-.2-.2-.5-.2-.8 0-.3 0-.6.2-.8.1-.3.4-.5.6-.6.3-.2.6-.2.9-.2a1.7 1.7 0 0 1 1.4.8c.2.2.3.5.3.8 0 .3-.1.6-.3.8a1.7 1.7 0 0 1-1.4.9Zm3.4-3.2h1l-3.7 6.6H646l3.8-6.6Zm-3.4 2.2c.2 0 .3 0 .4-.2.2-.1.2-.3.2-.5s0-.4-.2-.5a.6.6 0 0 0-.4-.2c-.2 0-.4 0-.5.2l-.2.5c0 .2 0 .4.2.5.1.2.3.2.5.2Zm4 4.5c-.3 0-.5 0-.8-.2l-.6-.6c-.2-.3-.3-.5-.3-.9 0-.3.1-.5.3-.8l.6-.6.8-.2c.4 0 .6 0 .9.2a1.6 1.6 0 0 1 .9 1.4c0 .4-.1.6-.3.9a1.7 1.7 0 0 1-1.5.8Zm0-1 .5-.1.2-.6c0-.2 0-.3-.2-.5a.6.6 0 0 0-.4-.2c-.3 0-.4.1-.5.2-.2.2-.2.3-.2.5 0 .3 0 .4.2.6 0 0 .2.2.5.2Z" fill="#02A9F7"/><path fill="#02A9F7" d="M198 198.1H600V222.1H198z"/><path d="M611.6 209.4c.4.1.8.4 1.1.7.3.4.5.8.5 1.3s-.1.9-.4 1.2c-.2.4-.5.6-.9.8-.3.2-.8.3-1.2.3-.6 0-1-.1-1.5-.4l-1-1 1-.8c.2.3.4.6.7.7.2.2.4.3.8.3.3 0 .6-.1.8-.3.2-.2.3-.4.3-.8 0-.3-.1-.5-.3-.7l-1-.2h-.9v-.4l1.4-1.9h-2.2V207h4.3v.3l-1.5 2.1Zm5.2 4.3c-.6 0-1-.1-1.4-.5-.4-.3-.7-.7-1-1.2l-.2-1.8c0-1 .2-1.8.7-2.4.4-.6 1-1 2-1 .8 0 1.4.4 1.8 1 .5.6.7 1.4.7 2.4 0 .7 0 1.3-.3 1.8-.2.5-.5 1-.9 1.2-.3.4-.8.5-1.4.5Zm0-1.2c.8 0 1.2-.8 1.2-2.3 0-.7 0-1.2-.3-1.5a1 1 0 0 0-.9-.6 1 1 0 0 0-1 .6l-.2 1.5c0 1.5.4 2.3 1.2 2.3Zm4.5 1.2a1 1 0 0 1-1-1l.3-.6c.2-.2.4-.3.7-.3.2 0 .5.1.6.3.2.2.3.4.3.7 0 .2 0 .5-.3.6-.1.2-.3.3-.6.3Zm7.1-1.2h-.8v1h-1.4v-1H623v-.4l2-5.1h1.5l-1.8 4.4h1.6v-1.9h1.4v1.9h.8v1.1Zm2.1-2.3c-.3 0-.6-.1-.8-.3-.3-.1-.5-.3-.7-.6l-.2-.8c0-.3 0-.6.2-.8.2-.3.4-.5.7-.6.2-.2.5-.2.8-.2a1.7 1.7 0 0 1 1.5.8l.2.8c0 .3 0 .6-.2.8a1.7 1.7 0 0 1-1.5.9Zm3.4-3.2h1.1l-3.8 6.6h-1l3.7-6.6Zm-3.4 2.2c.2 0 .4 0 .5-.2l.2-.5c0-.2 0-.4-.2-.5a.6.6 0 0 0-.5-.2c-.2 0-.3 0-.5.2l-.1.5.1.5c.2.2.3.2.5.2Zm4 4.5c-.2 0-.5 0-.8-.2l-.6-.6-.2-.9c0-.3 0-.5.2-.8l.6-.6.9-.2c.3 0 .6 0 .8.2a1.6 1.6 0 0 1 .9 1.4c0 .4 0 .6-.2.9a1.7 1.7 0 0 1-1.5.8Zm.1-1 .5-.1.1-.6-.1-.5a.6.6 0 0 0-.5-.2l-.5.2-.2.5c0 .3 0 .4.2.6l.5.2Z" fill="#02A9F7"/><path fill="#02A9F7" d="M198 237.1H587V261.1H198z"/><path d="M600.4 251.4v1.2h-5v-.3l2.5-2.6.7-.9.2-.7c0-.3-.1-.5-.3-.7a.9.9 0 0 0-.6-.3c-.3 0-.5.1-.7.3a1 1 0 0 0-.3.7v.5h-1.3a2.2 2.2 0 0 1 .2-1.6c.2-.3.5-.6.9-.8.3-.2.7-.3 1.2-.3.4 0 .8 0 1.2.2l.8.8c.2.3.3.7.3 1 0 .5-.1 1-.4 1.3a9 9 0 0 1-1 1.3l-.9 1h2.5Zm4.6-2.2c.9.3 1.3.9 1.3 1.6 0 .4-.1.7-.3 1a2 2 0 0 1-.9.7l-1.3.2c-.5 0-.9 0-1.3-.2a2 2 0 0 1-.8-.7c-.3-.3-.4-.6-.4-1 0-.7.5-1.3 1.3-1.6-.6-.4-1-1-1-1.6 0-.5.2-1 .7-1.3.4-.3.9-.4 1.5-.4.7 0 1.2.1 1.6.4.4.3.6.8.6 1.3 0 .7-.3 1.2-1 1.6Zm-1.2-2.2a1 1 0 0 0-.6.1l-.3.6c0 .2 0 .3.2.5l.7.4.7-.4c.2-.2.2-.3.2-.5 0-.3 0-.4-.2-.6a1 1 0 0 0-.7-.1Zm0 4.6c.4 0 .7 0 .9-.2l.3-.6c0-.3-.1-.5-.3-.6l-.9-.5a3 3 0 0 0-.8.5c-.2.1-.3.3-.3.6 0 .2 0 .4.3.6l.8.2Zm4.4 1.1a1 1 0 0 1-1-1l.3-.6c.2-.2.4-.3.7-.3l.6.3c.2.2.3.4.3.7 0 .2-.1.5-.3.6-.1.2-.4.3-.6.3Zm5.5-3.5c.8.3 1.3.9 1.3 1.6 0 .4-.1.7-.3 1a2 2 0 0 1-1 .7l-1.2.2c-.5 0-1 0-1.3-.2a2 2 0 0 1-.9-.7c-.2-.3-.3-.6-.3-1 0-.7.5-1.3 1.3-1.6-.6-.4-1-1-1-1.6 0-.5.2-1 .6-1.3.4-.3 1-.4 1.6-.4.6 0 1.2.1 1.6.4.4.3.6.8.6 1.3 0 .7-.3 1.2-1 1.6Zm-1.2-2.2a1 1 0 0 0-.7.1l-.2.6c0 .2 0 .3.2.5l.7.4.7-.4.2-.5c0-.3 0-.4-.2-.6a1 1 0 0 0-.7-.1Zm0 4.6c.4 0 .6 0 .8-.2l.3-.6c0-.3 0-.5-.2-.6l-.9-.5a3 3 0 0 0-.8.5c-.2.1-.3.3-.3.6 0 .2 0 .4.3.6l.8.2Zm5.1-2.4c-.3 0-.6-.1-.8-.3-.3-.1-.5-.3-.7-.6l-.2-.8c0-.3 0-.6.2-.8.2-.3.4-.5.7-.6.2-.2.5-.2.8-.2a1.7 1.7 0 0 1 1.5.8l.2.8c0 .3 0 .6-.2.8a1.7 1.7 0 0 1-1.5.9Zm3.4-3.2h1.1l-3.8 6.6h-1l3.7-6.6Zm-3.4 2.2c.2 0 .4 0 .5-.2l.2-.5c0-.2 0-.4-.2-.5a.6.6 0 0 0-.5-.2c-.2 0-.3 0-.5.2l-.1.5.1.5c.2.2.3.2.5.2Zm4 4.5c-.2 0-.5 0-.8-.2l-.6-.6-.2-.9c0-.3 0-.5.2-.8l.6-.6.9-.2c.3 0 .6 0 .8.2a1.6 1.6 0 0 1 .9 1.4c0 .4 0 .6-.2.9a1.7 1.7 0 0 1-1.5.8Zm.1-1 .5-.1.1-.6-.1-.5a.6.6 0 0 0-.5-.2l-.5.2-.2.5c0 .3 0 .4.2.6l.5.2Z" fill="#02A9F7"/><path fill="#02A9F7" d="M198 276.1H574V300.1H198z"/><path d="M587.7 290.4v1.2h-4.9v-.3l2.4-2.6.7-.9.2-.7c0-.3 0-.5-.3-.7a.9.9 0 0 0-.6-.3c-.3 0-.5.1-.7.3a1 1 0 0 0-.3.7v.5H583v-.6a2.1 2.1 0 0 1 1-1.8c.4-.2.8-.3 1.3-.3.4 0 .8 0 1.2.2l.8.8c.2.3.3.7.3 1 0 .5-.1 1-.4 1.3a9 9 0 0 1-1 1.3l-.9 1h2.5Zm4.6-2.2c.9.3 1.3.9 1.3 1.6 0 .4-.1.7-.3 1a2 2 0 0 1-.9.7l-1.3.2c-.4 0-.9 0-1.3-.2a2 2 0 0 1-.8-.7c-.2-.3-.3-.6-.3-1 0-.7.4-1.3 1.3-1.6-.7-.4-1-1-1-1.6 0-.5.2-1 .6-1.3.4-.3.9-.4 1.5-.4.7 0 1.2.1 1.6.4.4.3.6.8.6 1.3 0 .7-.3 1.2-1 1.6Zm-1.2-2.2a1 1 0 0 0-.6.1l-.3.6c0 .2 0 .3.2.5l.7.4.7-.4c.2-.2.3-.3.3-.5 0-.3-.1-.4-.3-.6a1 1 0 0 0-.7-.1Zm0 4.6c.4 0 .7 0 .9-.2l.3-.6c0-.3-.1-.5-.3-.6l-.9-.5a3 3 0 0 0-.8.5c-.2.1-.3.3-.3.6l.3.6.8.2Zm4.4 1.1a1 1 0 0 1-1-1l.3-.6c.2-.2.4-.3.7-.3.2 0 .5.1.6.3.2.2.3.4.3.7 0 .2 0 .5-.3.6-.1.2-.4.3-.6.3Zm6.3-6.7v.3l-3 6.3h-1.5l2.7-5.4h-2.8V285h4.6Zm2.5 3.2-.9-.3-.6-.6-.2-.8c0-.3 0-.6.2-.8l.6-.6c.3-.2.6-.2.9-.2a1.7 1.7 0 0 1 1.5.8l.2.8c0 .3 0 .6-.2.8a1.7 1.7 0 0 1-1.5.9Zm3.4-3.2h1l-3.7 6.6h-1.1l3.8-6.6Zm-3.4 2.2c.2 0 .4 0 .5-.2l.2-.5-.2-.5a.6.6 0 0 0-.5-.2c-.2 0-.4 0-.5.2l-.2.5.2.5c.1.2.3.2.5.2Zm4 4.5c-.2 0-.5 0-.8-.2l-.6-.6c-.2-.3-.2-.5-.2-.9 0-.3 0-.5.2-.8l.6-.6.9-.2c.3 0 .6 0 .8.2a1.6 1.6 0 0 1 .9 1.4c0 .4 0 .6-.2.9a1.7 1.7 0 0 1-1.5.8Zm0-1 .5-.1c.2-.2.2-.3.2-.6 0-.2 0-.3-.2-.5a.6.6 0 0 0-.4-.2l-.5.2-.2.5c0 .3 0 .4.2.6l.5.2Z" fill="#02A9F7"/><path fill="#02A9F7" d="M198 315.1H561V339.1H198z"/><path d="M574.5 329.4v1.2h-4.8v-.3l2.3-2.6c.4-.3.6-.6.7-.9.2-.2.3-.5.3-.7 0-.3-.1-.5-.3-.7a.9.9 0 0 0-.7-.3c-.2 0-.5.1-.6.3a1 1 0 0 0-.3.7v.5h-1.3a2.2 2.2 0 0 1 .2-1.6l.8-.8c.4-.2.8-.3 1.3-.3.4 0 .8 0 1.1.2a2 2 0 0 1 1.2 1.9c0 .4-.2.8-.4 1.2a9 9 0 0 1-1 1.3l-1 1h2.5Zm4.7-2.2c.8.3 1.3.9 1.3 1.6 0 .4-.1.7-.3 1a2 2 0 0 1-1 .7l-1.2.2c-.5 0-1 0-1.3-.2a2 2 0 0 1-.9-.7c-.2-.3-.3-.6-.3-1 0-.7.5-1.3 1.3-1.6-.6-.4-1-1-1-1.6 0-.5.2-1 .6-1.3.4-.3 1-.4 1.6-.4.6 0 1.2.1 1.6.4.4.3.6.8.6 1.3 0 .7-.3 1.2-1 1.6ZM578 325a1 1 0 0 0-.7.1l-.2.6c0 .2 0 .3.2.5l.7.4.7-.4.2-.5c0-.3 0-.4-.2-.6a1 1 0 0 0-.7-.1Zm0 4.6c.4 0 .6 0 .8-.2l.3-.6c0-.3 0-.5-.2-.6l-.9-.5a3 3 0 0 0-.8.5c-.2.1-.3.3-.3.6 0 .2 0 .4.3.6l.8.2Zm4.4 1.1a1 1 0 0 1-1-1l.3-.6c.2-.2.4-.3.7-.3l.6.3c.2.2.3.4.3.7 0 .2-.1.5-.3.6l-.6.3Zm4.4-4.6c.4 0 .7.1 1 .3.4.2.7.5.9.8.2.3.3.7.3 1.1 0 .5-.1.9-.4 1.3a2.4 2.4 0 0 1-2 1.1c-.5 0-.9 0-1.2-.3l-1-.8c-.2-.4-.3-.8-.3-1.3l.1-.7.3-.6.5-.7 1.7-2.3h1.6l-1.5 2.1Zm-.2 3.4c.3 0 .5-.1.7-.4.2-.2.3-.4.3-.8a1 1 0 0 0-.3-.7 1 1 0 0 0-.7-.4 1 1 0 0 0-.8.4 1 1 0 0 0-.3.7c0 .4 0 .6.3.8.2.3.4.4.8.4Zm4.8-2.3c-.3 0-.6-.1-.8-.3-.3-.1-.5-.3-.6-.6-.2-.2-.3-.5-.3-.8 0-.3.1-.6.3-.8.1-.3.3-.5.6-.6.2-.2.5-.2.8-.2a1.7 1.7 0 0 1 1.5.8c.2.2.2.5.2.8 0 .3 0 .6-.2.8a1.7 1.7 0 0 1-1.5.9Zm3.4-3.2h1.1l-3.8 6.6h-1l3.7-6.6Zm-3.4 2.2c.2 0 .4 0 .5-.2l.2-.5c0-.2 0-.4-.2-.5a.6.6 0 0 0-.5-.2c-.2 0-.3 0-.4.2-.2.1-.2.3-.2.5s0 .4.2.5c0 .2.2.2.4.2Zm4.1 4.5c-.3 0-.6 0-.8-.2l-.7-.6-.2-.9c0-.3 0-.5.2-.8l.7-.6.8-.2c.3 0 .6 0 .9.2a1.6 1.6 0 0 1 .8 1.4c0 .4 0 .6-.2.9a1.7 1.7 0 0 1-1.5.8Zm0-1 .5-.1.2-.6-.2-.5a.6.6 0 0 0-.5-.2l-.5.2-.2.5.2.6.5.2Z" fill="#02A9F7"/><path d="M86.9 89h.7v6h-.7v-6Zm3.5 6.1a2 2 0 0 1-1.7-.9l.4-.4.6.5.7.2c.2 0 .4 0 .6-.2.2-.1.2-.3.2-.5l-.1-.4-.6-.3-.5-.1-.8-.5a1 1 0 0 1-.2-.8c0-.3.1-.6.4-.9.3-.2.6-.3 1-.3.3 0 .6 0 .9.2l.6.5-.4.4-.5-.3-.6-.1a1 1 0 0 0-.5.1c-.2.1-.2.2-.2.4l.1.3.6.3.4.2.9.6c.2.2.2.4.2.7 0 .4-.1.7-.4 1-.3.2-.7.3-1.1.3Zm4.4-4.6c.5 0 .9.2 1.2.5.3.3.5.7.5 1.3V95h-.7v-.6c-.1.2-.3.4-.6.5a2 2 0 0 1-.8.2c-.5 0-.9-.1-1.2-.3a1 1 0 0 1-.4-1c0-.3.2-.6.5-.8.2-.2.6-.4 1.1-.4h1.4v-.3c0-.4-.1-.7-.3-.9a1 1 0 0 0-.8-.2l-.7.1a2 2 0 0 0-.6.6l-.4-.4c.2-.3.4-.6.8-.7.3-.2.6-.3 1-.3Zm-.4 4 .7-.1.5-.5.2-.6h-2c-.2.2-.3.3-.3.5 0 .3.1.4.3.5.2.2.4.2.6.2Zm5.9-4c.4 0 .7.1 1 .3.4.2.7.5.8.9.2.3.3.7.3 1.1 0 .4 0 .8-.3 1.2-.1.3-.4.6-.7.8a2.3 2.3 0 0 1-2 0c-.4 0-.6-.2-.8-.5v.7H98v-6.8h.6v3l.7-.5 1-.2Zm-.1 4a1.5 1.5 0 0 0 1.3-.8l.2-.9c0-.3 0-.6-.2-.8-.1-.3-.3-.5-.6-.6-.2-.2-.5-.2-.7-.2l-.8.1-.6.6-.2 1c0 .3.1.6.3.8 0 .3.3.5.5.6l.8.2Zm7.4-2v.5H104c0 .5.3.8.6 1 .3.3.6.5 1 .5.6 0 1-.2 1.4-.6l.4.4c-.2.3-.5.5-.8.6l-1 .2c-.4 0-.8-.1-1.1-.3a2.3 2.3 0 0 1-1.2-2 2.3 2.3 0 0 1 1.1-2c.4-.2.7-.3 1.2-.3.3 0 .7.1 1 .3.3.1.5.4.7.7.2.3.3.6.3 1Zm-2-1.4c-.4 0-.7.2-1 .4-.3.2-.5.5-.5 1h2.8c0-.5-.2-.8-.4-1-.3-.2-.6-.4-1-.4Zm3.2-2.8h.7V95h-.7v-6.8Zm2.2 0h.7V95h-.7v-6.8Zm3.8 2.2c.5 0 1 .2 1.2.5.3.3.5.7.5 1.3V95h-.7v-.6c-.1.2-.3.4-.6.5a2 2 0 0 1-.8.2c-.5 0-.9-.1-1.1-.3a1 1 0 0 1-.5-1c0-.3.2-.6.5-.8.3-.2.6-.4 1.1-.4h1.4v-.3c0-.4-.1-.7-.3-.9a1 1 0 0 0-.8-.2l-.7.1a2 2 0 0 0-.5.6l-.5-.4c.2-.3.5-.6.8-.7.3-.2.6-.3 1-.3Zm-.3 4 .6-.1.5-.5.2-.6h-2c-.2.2-.3.3-.3.5 0 .3.1.4.3.5.2.2.4.2.7.2Zm8.7.6a3 3 0 0 1-2.6-1.5 3 3 0 0 1-.4-1.6c0-.5 0-1 .4-1.5a3 3 0 0 1 2.7-1.5 3 3 0 0 1 2.4 1.2l-.5.5c-.2-.4-.5-.6-.9-.8-.3-.2-.6-.3-1-.3a2.3 2.3 0 0 0-2.1 1.2l-.3 1.2c0 .5 0 .9.3 1.3a2.3 2.3 0 0 0 2 1.2c.5 0 .8-.1 1.1-.3.4-.2.7-.5.9-.8l.5.4c-.2.4-.6.7-1 1a3 3 0 0 1-1.5.3Zm5.2-4.6c.6 0 1 .2 1.3.5.3.3.5.7.5 1.3V95h-.7v-.6l-.6.5a2 2 0 0 1-.9.2c-.4 0-.8-.1-1-.3a1 1 0 0 1-.5-1c0-.3.2-.6.4-.8.3-.2.7-.4 1.2-.4h1.4v-.3c0-.4-.1-.7-.3-.9a1 1 0 0 0-.8-.2l-.7.1a2 2 0 0 0-.6.6l-.4-.4c.2-.3.4-.6.7-.7.3-.2.7-.3 1-.3Zm-.3 4 .7-.1.5-.5.2-.6h-2c-.2.2-.3.3-.3.5 0 .3.1.4.3.5.2.2.4.2.6.2Zm3.5-6.3h.7V95h-.7v-6.8Zm2.2 0h.7V95h-.7v-6.8Zm3.8 2.3c.6 0 1 .2 1.3.5.3.3.4.7.4 1.3V95h-.6v-.6l-.6.5a2 2 0 0 1-.9.2c-.4 0-.8-.1-1-.3a1 1 0 0 1-.5-1c0-.3.1-.6.4-.8.3-.2.7-.4 1.2-.4h1.4v-.3c0-.4-.1-.7-.3-.9a1 1 0 0 0-.8-.2l-.7.1a2 2 0 0 0-.6.6l-.4-.4c.2-.3.4-.6.7-.7.3-.2.7-.3 1-.3Zm-.3 4 .7-.1.5-.5.2-.6H136.6l-.2.5c0 .3 0 .4.3.5.1.2.4.2.6.2Zm5.5-4c.5 0 1 .2 1.2.5.3.3.4.7.4 1.2V95h-.7v-2.7c0-.3 0-.6-.2-.8a1 1 0 0 0-.8-.3c-.4 0-.7 0-.9.3-.2.2-.3.5-.3.8V95h-.7v-6.8h.7v3c.2-.3.3-.4.6-.5l.7-.2Zm4.7 0c.5 0 1 .2 1.2.5.3.3.5.7.5 1.3V95h-.7v-.6c-.1.2-.3.4-.6.5a2 2 0 0 1-.8.2c-.5 0-.8-.1-1.1-.3a1 1 0 0 1-.5-1c0-.3.2-.6.5-.8.3-.2.6-.4 1.1-.4h1.4v-.3c0-.4 0-.7-.3-.9a1 1 0 0 0-.8-.2l-.7.1a2 2 0 0 0-.5.6l-.5-.4c.2-.3.5-.6.8-.7.3-.2.6-.3 1-.3Zm-.3 4 .6-.1.5-.5.2-.6h-2c-.2.2-.2.3-.2.5 0 .3 0 .4.2.5.2.2.4.2.7.2Zm5.5-4c.5 0 .9.2 1.2.5.3.3.4.7.4 1.2V95h-.7v-2.7c0-.3-.1-.6-.3-.8a1 1 0 0 0-.8-.3c-.3 0-.6 0-.8.3-.2.2-.3.5-.3.8V95h-.7v-4.4h.6v.5l.6-.4.8-.2Z" fill="#94A3B8"/><circle cx="177" cy="90" r="14" fill="#CBD5E1"/><mask id="b" style="mask-type:alpha" maskUnits="userSpaceOnUse" x="164" y="77" width="26" height="26"><circle cx="177" cy="90" r="12.8" fill="#CCEEFD"/></mask><g mask="url(#b)"><path d="M177 83c1 0 1.8.3 2.4 1 .7.6 1 1.4 1 2.3 0 1-.3 1.7-1 2.4-.6.6-1.4 1-2.4 1a3.3 3.3 0 0 1-3.4-3.4c0-.9.4-1.7 1-2.3.7-.7 1.5-1 2.4-1Zm-2.2 8.2h4.4c.3 0 .7.1 1 .4l1.2.9A7.8 7.8 0 0 1 183 95c.2.3.2.6 0 .9 0 .3-.2.5-.5.6-.8.5-1.7.8-2.6 1a15.6 15.6 0 0 1-5.8 0c-1-.2-1.8-.5-2.6-1-.2 0-.4-.3-.5-.6-.2-.3-.2-.6 0-.9.1-.4.3-.9.7-1.3.3-.5.6-1 1-1.3l1-1a2 2 0 0 1 1.1-.3Z" fill="#475569"/></g><path d="M59 130h3.8v.7h-3.1v1.8H62v.6h-2.4v2.3h3.2v.6h-4v-6Zm6.6 1.5c.5 0 1 .2 1.3.5.3.3.4.7.4 1.3v2.7h-.6v-.6l-.7.5a2 2 0 0 1-.8.2c-.5 0-.8-.1-1.1-.3a1 1 0 0 1-.4-1c0-.3.1-.6.4-.8.3-.2.7-.4 1.1-.4h1.4v-.3c0-.4 0-.7-.3-.9a1 1 0 0 0-.7-.2l-.7.1a2 2 0 0 0-.6.6l-.5-.4c.2-.3.5-.6.8-.7.3-.2.6-.3 1-.3Zm-.3 4 .7-.1.4-.5c.2-.2.2-.4.2-.6h-2l-.2.5c0 .3 0 .4.2.5.2.2.4.2.7.2Zm5.5-4 .3.1v.6H71c-.3 0-.5 0-.7.2-.2 0-.4.2-.5.4-.2.2-.2.4-.2.7v2.5h-.7v-4.4h.6v.6l.6-.4c.3-.2.5-.2.8-.2Zm3.2 0c.6 0 1 .2 1.2.5.3.3.5.7.5 1.2v2.8H75v-2.7c0-.3-.1-.6-.3-.8a1 1 0 0 0-.8-.3c-.3 0-.6 0-.8.3-.2.2-.4.5-.4.8v2.7H72v-4.4h.7v.5l.6-.4.7-.2Zm7 2v.5h-3.4c0 .5.2.8.5 1 .3.3.6.5 1 .5.6 0 1-.2 1.4-.6l.4.4c-.2.3-.5.5-.8.6l-1 .2c-.4 0-.8-.1-1.1-.3a2.3 2.3 0 0 1-1.2-2 2.3 2.3 0 0 1 1.1-2l1.2-.3c.3 0 .7.1 1 .3.3.1.5.4.7.7.2.3.3.6.3 1Zm-2-1.4c-.3 0-.6.2-.9.4-.3.2-.4.5-.5 1h2.8c0-.5-.2-.8-.4-1-.3-.2-.6-.4-1-.4Zm4.6 4a2 2 0 0 1-1.7-.9l.4-.4.6.5.7.2c.2 0 .4 0 .6-.2l.2-.5c0-.1 0-.3-.2-.4l-.6-.3-.4-.1-.8-.5a1 1 0 0 1-.3-.8c0-.3.2-.6.5-.9.2-.2.6-.3 1-.3.3 0 .6 0 .8.2l.7.5-.4.4-.5-.3-.6-.1a1 1 0 0 0-.6.1l-.2.4.2.3.6.3.4.2.8.6c.2.2.3.4.3.7 0 .4-.1.7-.4 1-.3.2-.7.3-1.1.3Zm4.6-.6h.6v.5l-.8.1c-.4 0-.8-.1-1-.4-.3-.2-.4-.5-.4-1v-2.5h-.8v-.6h.8v-1.2h.7v1.2h1.3v.6h-1.3v2.4c0 .3 0 .6.2.7l.7.2Zm4.2-5.4h.7v2.4h3.3v-2.4h.7v5.9h-.7v-2.9h-3.3v2.9h-.7v-6Zm8.2 6a2.2 2.2 0 0 1-2-1.1l-.3-1.2a2.2 2.2 0 0 1 1.2-2 2.2 2.2 0 0 1 2.3 0 2.3 2.3 0 0 1 1.1 2 2.3 2.3 0 0 1-2.3 2.3Zm0-.6c.3 0 .6-.1.8-.3.3-.1.5-.3.6-.5l.2-.9c0-.3 0-.6-.2-.8-.1-.3-.3-.5-.6-.6-.2-.2-.5-.2-.8-.2a1.5 1.5 0 0 0-1.3.8c-.2.2-.3.5-.3.8 0 .3.1.6.3.8a1.6 1.6 0 0 0 1.3.9Zm5.9-4c.4 0 .7.1 1 .3.4.2.7.5.8.8l.3 1.2c0 .4 0 .8-.3 1.2l-.7.8a2.3 2.3 0 0 1-2 .1l-.8-.5v2.2h-.7v-6h.7v.7l.7-.6 1-.2Zm-.1 4 .7-.2.6-.6.2-.9c0-.3 0-.6-.2-.8-.1-.3-.3-.5-.6-.6-.2-.2-.5-.2-.7-.2l-.8.1-.6.6-.2.9.2 1 .6.5.8.2Zm5.7-4a2 2 0 0 1 1.9 1.1l.3 1.2c0 .4 0 .8-.3 1.2-.2.3-.4.6-.8.8-.3.2-.7.3-1 .3-.4 0-.7 0-1-.2l-.7-.5v2.2h-.7v-6h.7v.7l.7-.6 1-.2Zm0 4 .7-.2.6-.6.2-.9c0-.3 0-.6-.2-.8-.1-.3-.3-.5-.6-.6-.2-.2-.5-.2-.8-.2l-.7.1-.6.6-.2.9c0 .4 0 .7.2 1l.6.5.7.2Zm7.3-2v.5h-3.5c0 .5.2.8.5 1 .3.3.7.5 1.1.5.5 0 1-.2 1.4-.6l.4.4c-.2.3-.5.5-.8.6l-1 .2-1.2-.3a2.3 2.3 0 0 1-1-2 2.3 2.3 0 0 1 1-2c.4-.2.7-.3 1.1-.3.4 0 .8.1 1 .3.4.1.6.4.8.7.2.3.2.6.2 1Zm-2-1.4c-.3 0-.7.2-1 .4-.2.2-.4.5-.4 1h2.7c0-.5-.1-.8-.4-1-.2-.2-.5-.4-.9-.4Zm5.3-.5h.3v.6h-.3c-.2 0-.4 0-.7.2-.2 0-.3.2-.5.4l-.1.7v2.5h-.7v-4.4h.6v.6l.6-.4c.2-.2.5-.2.8-.2Zm11.7-1.5-2.2 6h-.3l-1.9-4.7-1.9 4.7h-.2l-2.3-6h.8l1.6 4.5 1.9-4.6h.3l1.8 4.6 1.6-4.5h.8Zm2.3 1.4c.5 0 1 .2 1.3.5.3.3.4.7.4 1.3v2.7h-.6v-.6l-.6.5a2 2 0 0 1-.9.2c-.4 0-.8-.1-1.1-.3a1 1 0 0 1-.4-1c0-.3.1-.6.4-.8.3-.2.7-.4 1.2-.4h1.3v-.3c0-.4 0-.7-.3-.9a1 1 0 0 0-.7-.2l-.7.1a2 2 0 0 0-.6.6l-.5-.4c.2-.3.5-.6.8-.7.3-.2.7-.3 1-.3Zm-.3 4 .7-.1.4-.5c.2-.2.2-.4.2-.6h-2l-.2.5c0 .3 0 .4.2.5.2.2.4.2.7.2Zm5.3.6a1.7 1.7 0 0 1-1.8-1.8v-2.7h.6v2.7c0 .4.1.6.4.8.2.3.4.4.8.4.3 0 .5-.1.8-.4.2-.2.3-.5.3-.8v-2.7h.7v2.7l-.3 1-.6.6-1 .2Zm7.4-4.5v4a2 2 0 0 1-.5 1.5 2 2 0 0 1-1.6.6c-.4 0-.8 0-1.2-.2a3 3 0 0 1-.8-.6l.4-.5.7.5.9.2c.5 0 .8-.1 1-.4.3-.3.5-.6.5-1v-.5l-.7.6a2.3 2.3 0 0 1-2-.1 2 2 0 0 1-.8-.8c-.2-.4-.3-.7-.3-1.2 0-.4 0-.8.3-1 .1-.4.4-.7.7-.9.4-.2.7-.3 1.1-.3.4 0 .7 0 1 .2l.7.6v-.7h.6Zm-2.2 3.7c.3 0 .6 0 .8-.2.2 0 .4-.2.5-.5.2-.2.3-.5.3-.9 0-.3-.1-.6-.3-.8 0-.3-.3-.4-.5-.6a1.7 1.7 0 0 0-1.6 0l-.5.6c-.2.3-.2.5-.2.8 0 .4 0 .6.2.9l.5.5c.3.2.5.2.8.2Zm5.8-3.8c.5 0 .9.2 1.2.5.3.3.4.7.4 1.2v2.8h-.7v-2.7c0-.3-.1-.6-.3-.8a1 1 0 0 0-.8-.3c-.3 0-.6 0-.8.3-.2.2-.3.5-.3.8v2.7h-.7v-6.8h.7v3c.1-.3.3-.4.5-.5l.8-.2Z" fill="#94A3B8"/><circle cx="177" cy="132" r="14" fill="#CBD5E1"/><mask id="c" style="mask-type:alpha" maskUnits="userSpaceOnUse" x="164" y="119" width="26" height="26"><circle cx="177" cy="132" r="12.8" fill="#CCEEFD"/></mask><g mask="url(#c)"><path d="M177 125c1 0 1.8.3 2.4 1 .7.6 1 1.4 1 2.3 0 1-.3 1.7-1 2.4-.6.6-1.4 1-2.4 1a3.3 3.3 0 0 1-3.4-3.4c0-.9.4-1.7 1-2.3.7-.7 1.5-1 2.4-1Zm-2.2 8.2h4.4c.3 0 .7.1 1 .4l1.2.9a7.8 7.8 0 0 1 1.6 2.6c.2.3.2.6 0 .9 0 .3-.2.5-.5.6-.8.5-1.7.8-2.6 1a15.7 15.7 0 0 1-5.8 0c-1-.2-1.8-.5-2.6-1-.2 0-.4-.3-.5-.6-.2-.3-.2-.6 0-.9.1-.4.3-.9.7-1.3.3-.5.6-1 1-1.3a6 6 0 0 1 1-1 2 2 0 0 1 1.1-.3Z" fill="#475569"/></g><path d="m66.7 170-2.5 6.1h-.3l-2.6-6h.8l2 4.6 1.9-4.6h.7Zm1 1.6h.8v4.4h-.7v-4.4Zm.4-1.2-.3-.1a.5.5 0 0 1-.2-.4s0-.2.2-.3l.3-.2c.2 0 .3 0 .4.2l.2.3-.2.4-.4.1Zm3.9 5.7a2.3 2.3 0 0 1-1.2-4.3 2.3 2.3 0 0 1 2.2 0c.3.1.6.4.8.7l-.5.4a1.6 1.6 0 0 0-2.1-.5c-.3.1-.5.3-.6.6l-.2.8c0 .3 0 .6.2.8.1.3.3.5.6.6a1.6 1.6 0 0 0 2-.4l.6.3c-.2.3-.5.6-.8.7-.3.2-.6.3-1 .3Zm4.8-.6h.6v.5l-.8.1c-.4 0-.8-.1-1-.4-.3-.2-.5-.5-.5-1v-2.5h-.7v-.6h.7v-1.2h.7v1.2h1.4v.6h-1.4v2.4c0 .3.1.6.3.7l.7.2Zm3.5.6a2.2 2.2 0 0 1-2-1.1l-.3-1.2a2.2 2.2 0 0 1 1.1-2l1.2-.3c.4 0 .8.1 1.1.3a2.3 2.3 0 0 1 1.2 2 2.3 2.3 0 0 1-2.3 2.3Zm0-.6c.3 0 .5-.1.8-.3l.5-.5.3-.9-.2-.8-.6-.6c-.3-.2-.5-.2-.8-.2a1.5 1.5 0 0 0-1.4.8l-.2.8c0 .3 0 .6.2.8a1.6 1.6 0 0 0 1.4.9Zm5.5-4 .3.1v.6H86c-.3 0-.5 0-.7.2-.2 0-.4.2-.5.4-.2.2-.2.4-.2.7v2.5h-.7v-4.4h.6v.6l.6-.4c.3-.2.5-.2.8-.2Zm1.3.1h.6v4.4h-.6v-4.4Zm.3-1.2-.4-.1a.5.5 0 0 1-.1-.4l.1-.3.4-.2c.1 0 .3 0 .4.2l.1.3-.1.4-.4.1Zm3.4 1.1c.6 0 1 .2 1.3.5.3.3.5.7.5 1.3v2.7h-.7v-.6l-.6.5a2 2 0 0 1-.9.2c-.4 0-.8-.1-1-.3a1 1 0 0 1-.5-1c0-.3.1-.6.4-.8.3-.2.7-.4 1.2-.4h1.4v-.3c0-.4-.1-.7-.3-.9a1 1 0 0 0-.8-.2l-.7.1a2 2 0 0 0-.6.6l-.4-.4c.2-.3.4-.6.7-.7.3-.2.7-.3 1-.3Zm-.3 4 .7-.1.5-.5.2-.6h-2c-.2.2-.3.3-.3.5 0 .3.1.4.3.5.1.2.4.2.6.2Zm9.3-.7h-3l-.5 1.2h-.7l2.6-6h.2l2.6 6h-.7l-.5-1.2Zm-1.5-3.6-1.2 3h2.4l-1.2-3Zm3.8-2h.7v6.8h-.7v-6.8Zm6 2.4-2.1 5a2 2 0 0 1-.7.8c-.2.2-.5.3-.8.3h-.7v-.7h1.1l.4-.6.3-.5-1.9-4.3h.8l1.4 3.5 1.5-3.5h.7Zm3 0c.5 0 1 0 1.2.4.3.3.5.7.5 1.2v2.8h-.7v-2.7c0-.3-.1-.6-.3-.8a1 1 0 0 0-.8-.3c-.4 0-.6 0-.9.3-.2.2-.3.5-.3.8v2.7h-.7v-4.4h.7v.5c.1-.2.3-.3.6-.4l.7-.2Zm4.7 0c.5 0 1 0 1.2.4.4.3.5.7.5 1.3v2.7h-.6v-.6l-.7.5a2 2 0 0 1-.8.2c-.5 0-.8-.1-1.1-.3a1 1 0 0 1-.4-1c0-.3.1-.6.4-.8.3-.2.7-.4 1.1-.4h1.4v-.3c0-.4 0-.7-.3-.9a1 1 0 0 0-.7-.2l-.7.1a2 2 0 0 0-.6.6l-.5-.4c.2-.3.5-.6.8-.7.3-.2.6-.3 1-.3Zm-.3 4 .6-.2.5-.5c.2-.2.2-.4.2-.6h-2l-.2.5c0 .3 0 .4.2.5.2.2.4.2.7.2Zm6-5.5h.8v2.4h3.3v-2.4h.7v5.9h-.7v-2.9h-3.3v2.9h-.7v-6Zm8.1 6a1.7 1.7 0 0 1-1.8-1.8v-2.7h.7v2.7c0 .4 0 .6.3.8.2.3.5.4.8.4.3 0 .6-.1.8-.4.2-.2.3-.5.3-.8v-2.7h.7v2.7c0 .3 0 .6-.2 1l-.7.6-.9.2Zm5-6.3a1 1 0 0 0-.7.2c-.2 0-.2.3-.2.6v1h1v.6h-1v3.8h-.7v-3.8h-.7v-.6h.7v-1c0-.5.1-.9.4-1.1.2-.2.6-.3 1-.3h.6v.6h-.4Zm2.4 0a1 1 0 0 0-.6.2c-.2 0-.3.3-.3.6v1h1.1v.6h-1v3.8h-.8v-3.8h-.6v-.6h.6v-1c0-.5.2-.9.4-1.1.3-.2.6-.3 1-.3h.6v.6h-.4Zm5.9 1.7c.5 0 .8.2 1.1.5.3.3.4.7.4 1.2v2.8h-.6v-2.7c0-.3-.1-.6-.3-.8a1 1 0 0 0-.8-.3 1 1 0 0 0-1.1 1.1v2.7h-.7v-2.7c0-.3-.1-.6-.3-.8a1 1 0 0 0-.7-.3 1 1 0 0 0-.9.3c-.2.2-.3.5-.3.8v2.7h-.7v-4.4h.7v.5l.6-.4.7-.2c.3 0 .6 0 .8.2.2.1.4.3.5.6a1.8 1.8 0 0 1 1.6-.8Zm4.6 0c.5 0 1 .2 1.2.5.3.3.5.7.5 1.3v2.7h-.7v-.6c-.1.2-.3.4-.6.5a2 2 0 0 1-.8.2c-.5 0-.8-.1-1.1-.3a1 1 0 0 1-.5-1c0-.3.2-.6.5-.8.3-.2.6-.4 1.1-.4h1.4v-.3c0-.4 0-.7-.3-.9a1 1 0 0 0-.8-.2l-.7.1a2 2 0 0 0-.5.6l-.5-.4c.2-.3.5-.6.8-.7.3-.2.6-.3 1-.3Zm-.3 4 .6-.1.5-.5.2-.6h-2c-.2.2-.2.3-.2.5 0 .3 0 .4.2.5.2.2.4.2.7.2Zm5.5-4c.5 0 .9.2 1.2.5.3.3.4.7.4 1.2v2.8h-.7v-2.7c0-.3-.1-.6-.3-.8a1 1 0 0 0-.8-.3c-.3 0-.6 0-.8.3-.2.2-.3.5-.3.8v2.7h-.7v-4.4h.6v.5l.6-.4.8-.2Z" fill="#94A3B8"/><circle cx="177" cy="171" r="14" fill="#CBD5E1"/><mask id="d" style="mask-type:alpha" maskUnits="userSpaceOnUse" x="164" y="158" width="26" height="26"><circle cx="177" cy="171" r="12.8" fill="#CCEEFD"/></mask><g mask="url(#d)"><path d="M177 164c1 0 1.8.3 2.4 1 .7.6 1 1.4 1 2.3 0 1-.3 1.7-1 2.4-.6.6-1.4 1-2.4 1a3.3 3.3 0 0 1-3.4-3.4c0-.9.4-1.7 1-2.3.7-.7 1.5-1 2.4-1Zm-2.2 8.2h4.4c.3 0 .7.1 1 .4l1.2.9a7.8 7.8 0 0 1 1.6 2.6c.2.3.2.6 0 .9 0 .3-.2.5-.5.6-.8.5-1.7.8-2.6 1a15.7 15.7 0 0 1-5.8 0c-1-.2-1.8-.5-2.6-1-.2 0-.4-.3-.5-.6-.2-.3-.2-.6 0-.9.1-.4.3-.9.7-1.3.3-.5.6-1 1-1.3a6 6 0 0 1 1-1 2 2 0 0 1 1.1-.3Z" fill="#475569"/></g><path d="M69.6 211.7c.3.1.6.3.8.6.2.3.3.6.3 1 0 .3 0 .6-.2.9l-.7.6-1 .2h-2.4v-6h2c.6 0 1 .2 1.3.5.3.3.4.6.4 1a1.4 1.4 0 0 1-.5 1.2Zm-2.5-2v1.8h1.3c.3 0 .6 0 .7-.2.2-.2.3-.4.3-.7 0-.3 0-.5-.3-.7l-.7-.2H67Zm1.7 4.7c.4 0 .7-.1.9-.3.2-.2.3-.5.3-.8a1 1 0 0 0-.3-.8c-.2-.2-.5-.3-1-.3h-1.6v2.2h1.7Zm4.7-3.9c.5 0 .9.2 1.2.5.3.3.5.7.5 1.3v2.7h-.7v-.6c-.1.2-.3.4-.6.5a2 2 0 0 1-.8.2c-.5 0-.9-.1-1.2-.3a1 1 0 0 1-.4-1c0-.3.2-.6.5-.8.2-.2.6-.4 1.1-.4h1.4v-.3c0-.4-.1-.7-.3-.9a1 1 0 0 0-.8-.2l-.7.1a2 2 0 0 0-.6.6l-.4-.4c.2-.3.4-.6.8-.7.3-.2.6-.3 1-.3Zm-.4 4 .7-.1.5-.5.2-.6h-2c-.2.2-.3.3-.3.5 0 .3.1.4.3.5.2.2.4.2.6.2Zm7.4-3.9-2.2 5a2 2 0 0 1-.6.8c-.2.2-.5.3-.8.3h-.7v-.7h1.1l.4-.6.2-.5-1.8-4.3h.8l1.4 3.5 1.5-3.5h.7Zm1-2.3h.7v6.7h-.7v-6.8Zm6.1 4.2v.5H84c0 .5.2.8.5 1 .3.3.7.5 1.1.5.5 0 1-.2 1.4-.6l.4.4c-.3.3-.5.5-.8.6l-1 .2-1.2-.3a2.3 2.3 0 0 1-1.1-2 2.3 2.3 0 0 1 1.1-2c.3-.2.7-.3 1.1-.3.4 0 .8.1 1 .3.4.1.6.4.8.7.2.3.2.6.2 1Zm-2-1.4c-.3 0-.7.2-1 .4-.2.2-.4.5-.5 1H87c0-.5-.1-.8-.4-1-.2-.2-.5-.4-.9-.4Zm7.2 1.4v.5h-3.5c0 .5.2.8.5 1 .3.3.6.5 1 .5.6 0 1-.2 1.4-.6l.4.4c-.2.3-.5.5-.8.6l-1 .2c-.4 0-.8-.1-1.1-.3a2.3 2.3 0 0 1-1.2-2 2.3 2.3 0 0 1 1.1-2l1.2-.3c.4 0 .7.1 1 .3.3.1.5.4.7.7.2.3.3.6.3 1Zm-2-1.4c-.4 0-.7.2-1 .4-.3.2-.4.5-.5 1H92c0-.5-.2-.8-.4-1-.3-.2-.6-.4-1-.4Zm5.8-2h1.7c.7 0 1.3 0 1.8.3.4.3.8.6 1 1a3 3 0 0 1 0 3c-.2.6-.6 1-1 1.2-.5.3-1.1.4-1.8.4h-1.7v-6Zm1.7 5.3c.5 0 1-.1 1.4-.3.4-.2.6-.5.8-.9.2-.3.3-.7.3-1.2 0-.4 0-.8-.3-1.2a2 2 0 0 0-.8-.8c-.4-.2-.8-.3-1.4-.3h-1v4.7h1Zm6.2.7a1.7 1.7 0 0 1-1.8-1.8v-2.7h.7v2.7c0 .4.1.6.3.8.2.3.5.4.8.4.4 0 .6-.1.8-.4.2-.2.3-.5.3-.8v-2.7h.7v2.7c0 .3 0 .6-.2 1l-.6.6-1 .2Zm3.3-6.8h.7v6.7h-.7v-6.8Zm4.2 6.8a2.3 2.3 0 0 1-1.2-4.3 2.3 2.3 0 0 1 2.2 0c.4.1.6.4.8.7l-.5.4a1.6 1.6 0 0 0-2.1-.5c-.3.1-.4.3-.6.6l-.2.8c0 .3 0 .6.2.8l.6.6a1.6 1.6 0 0 0 2.1-.4l.5.3c-.2.3-.5.6-.8.7-.3.2-.6.3-1 .3Zm6.8-2.6v.5h-3.5c0 .5.2.8.5 1 .3.3.7.5 1.1.5.5 0 1-.2 1.3-.6l.5.4c-.3.3-.5.5-.8.6l-1 .2-1.2-.3a2.3 2.3 0 0 1-1.1-2 2.3 2.3 0 0 1 1-2l1.2-.3c.4 0 .7.1 1 .3.3.1.6.4.8.7l.2 1Zm-2-1.4c-.4 0-.7.2-1 .4-.2.2-.4.5-.5 1h2.8c0-.5-.1-.8-.4-1-.2-.2-.5-.4-.9-.4Zm11.3-2.1v6h-.7v-4.3l-2 2.6h-.2l-1.9-2.6v4.3h-.7v-6h.3l2.4 3.4 2.5-3.4h.3Zm5.4 3.5v.5H130c0 .5.2.8.5 1 .3.3.7.5 1.1.5.5 0 1-.2 1.4-.6l.4.4c-.3.3-.5.5-.8.6l-1 .2-1.2-.3a2.3 2.3 0 0 1-1.1-2 2.3 2.3 0 0 1 1.1-2c.3-.2.7-.3 1.1-.3.4 0 .7.1 1 .3.4.1.6.4.8.7l.2 1Zm-2-1.4c-.3 0-.7.2-1 .4-.2.2-.4.5-.5 1h2.8c0-.5-.1-.8-.4-1-.2-.2-.5-.4-.9-.4Zm5.3-.6c.5 0 .9.2 1.1.5.3.3.5.7.5 1.2v2.8h-.7v-2.7c0-.3-.1-.6-.3-.8a1 1 0 0 0-.8-.3c-.3 0-.6 0-.8.3-.2.2-.4.5-.4.8v2.7h-.6v-4.4h.6v.5l.6-.4.8-.2Zm7.2-2.3v6.8h-.6v-.7l-.7.6a2.2 2.2 0 0 1-2.1-.1l-.8-.8-.3-1.2c0-.4.1-.8.3-1.1a2.1 2.1 0 0 1 1.9-1.2c.3 0 .6 0 1 .2.2.1.5.3.6.6v-3h.7Zm-2.2 6.3.8-.2c.2-.1.4-.3.5-.6.2-.2.2-.5.2-.9s0-.7-.2-1l-.5-.5a1.6 1.6 0 0 0-1.6 0l-.6.7-.2.8.2.8.6.6c.2.2.5.3.8.3Zm7.7-2v.5h-3.6c0 .5.3.8.6 1 .3.3.6.5 1 .5.6 0 1-.2 1.4-.6l.4.4c-.2.3-.5.5-.8.6l-1 .2c-.4 0-.8-.1-1.1-.3a2.3 2.3 0 0 1-1.2-2 2.3 2.3 0 0 1 1.1-2c.4-.2.7-.3 1.2-.3.3 0 .7.1 1 .3.3.1.5.4.7.7.2.3.3.6.3 1Zm-2-1.4c-.4 0-.7.2-1 .4-.3.2-.5.5-.5 1h2.7c0-.5 0-.8-.3-1-.3-.2-.6-.4-1-.4Zm6.3 3.3v.6h-3.6v-.2l2.5-3.6h-2.3v-.6h3.3v.2l-2.5 3.6h2.6Z" fill="#94A3B8"/><circle cx="176" cy="210" r="14" fill="#CBD5E1"/><mask id="e" style="mask-type:alpha" maskUnits="userSpaceOnUse" x="163" y="197" width="26" height="26"><circle cx="176" cy="210" r="12.8" fill="#CCEEFD"/></mask><g mask="url(#e)"><path d="M176 203c1 0 1.8.3 2.4 1 .7.6 1 1.4 1 2.3 0 1-.3 1.7-1 2.4-.6.6-1.4 1-2.4 1a3.3 3.3 0 0 1-3.4-3.4c0-.9.4-1.7 1-2.3.7-.7 1.5-1 2.4-1Zm-2.2 8.2h4.4c.3 0 .7.1 1 .4l1.2.9a7.8 7.8 0 0 1 1.6 2.6c.2.3.2.6 0 .9 0 .3-.2.5-.5.6-.8.5-1.7.8-2.6 1a15.7 15.7 0 0 1-5.8 0c-1-.2-1.8-.5-2.6-1-.2 0-.4-.3-.5-.6-.2-.3-.2-.6 0-.9.1-.4.3-.9.7-1.3.3-.5.6-1 1-1.3a6 6 0 0 1 1-1 2 2 0 0 1 1.1-.3Z" fill="#475569"/></g><path d="M84.4 245h.7v2.5h3.3v-2.4h.7v5.9h-.7v-2.9h-3.3v2.9h-.7v-6Zm10.2 3.5v.5H91c0 .5.2.8.5 1 .3.3.7.5 1 .5.6 0 1-.2 1.4-.6l.4.4c-.2.3-.5.5-.8.6l-1 .2a2.3 2.3 0 0 1-2.3-2.3 2.3 2.3 0 0 1 1.2-2c.3-.2.7-.3 1.1-.3.4 0 .7.1 1 .3.3.1.6.4.7.7.2.3.3.6.3 1Zm-2-1.4c-.4 0-.7.2-1 .4-.2.2-.4.5-.5 1H94c0-.5-.1-.8-.4-1-.2-.2-.6-.4-1-.4Zm3.2-.5h.7v4.4h-.7v-4.4Zm.4-1.2-.4-.1a.5.5 0 0 1-.2-.4s0-.2.2-.3l.4-.2c.1 0 .2 0 .3.2l.2.3c0 .2 0 .3-.2.4l-.3.1Zm6-1.2v6.8h-.7v-.7c-.1.3-.4.4-.7.6a2.2 2.2 0 0 1-2-.1c-.4-.2-.6-.5-.8-.8l-.3-1.2c0-.4.1-.8.3-1.1a2.1 2.1 0 0 1 1.9-1.2c.3 0 .6 0 1 .2l.6.6v-3h.7Zm-2.2 6.3.7-.2c.3-.1.5-.3.6-.6l.2-.9c0-.4 0-.7-.2-1l-.6-.5a1.6 1.6 0 0 0-1.5 0l-.6.7-.2.8c0 .3 0 .6.2.8.2.3.3.5.6.6.2.2.5.3.8.3Zm3.7-3.9h.7v4.4h-.7v-4.4Zm.4-1.2-.4-.1a.5.5 0 0 1-.2-.4l.2-.3.4-.2c.1 0 .2 0 .3.2l.2.3c0 .2 0 .3-.2.4l-.3.1Zm4.3 5.7-.8-.1v-.6h.7l.7-.1c.2-.2.3-.4.3-.7V245h.7v4.5c0 .5-.2.9-.5 1.1-.2.3-.6.4-1 .4Zm5 0a2.2 2.2 0 0 1-2-1.1l-.2-1.2a2.2 2.2 0 0 1 1.1-2l1.2-.3c.4 0 .8.1 1.1.3a2.3 2.3 0 0 1 1.2 2 2.3 2.3 0 0 1-2.3 2.3Zm0-.6c.4 0 .6-.1.9-.3l.5-.5.3-.9-.2-.8-.6-.6c-.3-.2-.5-.2-.8-.2a1.5 1.5 0 0 0-1.4.8l-.2.8c0 .3 0 .6.2.8a1.6 1.6 0 0 0 1.4.9Zm5.6-4 .3.1v.6h-.2c-.3 0-.5 0-.7.2-.2 0-.4.2-.5.4-.2.2-.2.4-.2.7v2.5h-.7v-4.4h.6v.6l.6-.4c.3-.2.5-.2.8-.2Zm5.3-2.3v6.8h-.6v-.7l-.7.6a2.2 2.2 0 0 1-2-.1c-.4-.2-.7-.5-.9-.8l-.3-1.2c0-.4.1-.8.3-1.1a2.1 2.1 0 0 1 2-1.2c.2 0 .6 0 .8.2.3.1.6.3.7.6v-3h.7Zm-2.2 6.3.8-.2c.2-.1.4-.3.5-.6.2-.2.2-.5.2-.9s0-.7-.2-1l-.5-.5a1.6 1.6 0 0 0-1.6 0l-.5.7c-.2.2-.2.5-.2.8 0 .3 0 .6.2.8 0 .3.3.5.5.6.3.2.5.3.8.3Zm3.7-3.9h.7v4.4h-.7v-4.4Zm.4-1.2-.4-.1a.5.5 0 0 1-.1-.4l.1-.3.4-.2c.1 0 .3 0 .4.2l.1.3-.1.4-.4.1Zm3.9 1.1c.5 0 .9.2 1.2.5.2.3.4.7.4 1.2v2.8h-.7v-2.7c0-.3-.1-.6-.3-.8a1 1 0 0 0-.8-.3c-.3 0-.6 0-.8.3-.2.2-.3.5-.3.8v2.7h-.7v-4.4h.6v.5l.6-.4.8-.2Zm9.5 4.5-1.9-2.5h-1.3v2.5h-.7v-6h2.1c.4 0 .7.1 1 .3.3.1.5.3.7.6l.2.9c0 .4 0 .7-.3 1-.2.3-.5.5-1 .6l2 2.6h-.8Zm-3.2-3.1h1.4c.4 0 .7-.1.9-.3.2-.2.3-.5.3-.8a1 1 0 0 0-.3-.8c-.2-.2-.5-.3-.9-.3h-1.4v2.2Zm8.7-1.3-2.2 5a2 2 0 0 1-.6.8c-.2.2-.5.3-.9.3h-.6v-.7h1.1l.4-.6.2-.5-1.8-4.3h.8l1.4 3.5 1.5-3.5h.7Zm2.4 0c.5 0 1 0 1.2.4.3.3.5.7.5 1.3v2.7h-.7v-.6c-.1.2-.3.4-.6.5a2 2 0 0 1-.8.2c-.5 0-.8-.1-1.1-.3a1 1 0 0 1-.5-1c0-.3.2-.6.5-.8.3-.2.6-.4 1.1-.4h1.4v-.3c0-.4 0-.7-.3-.9a1 1 0 0 0-.8-.2l-.7.1a2 2 0 0 0-.5.6l-.5-.4c.2-.3.5-.6.8-.7.3-.2.6-.3 1-.3Zm-.3 4 .6-.2.5-.5.2-.6h-2c-.2.2-.2.3-.2.5 0 .3 0 .4.2.5.2.2.4.2.7.2Zm5.5-4c.5 0 .9 0 1.2.4.3.3.4.7.4 1.2v2.8h-.7v-2.7c0-.3-.1-.6-.3-.8a1 1 0 0 0-.8-.3c-.3 0-.6 0-.8.3-.2.2-.3.5-.3.8v2.7h-.7v-4.4h.6v.5l.6-.4.8-.2Z" fill="#94A3B8"/><circle cx="177" cy="247" r="14" fill="#CBD5E1"/><mask id="f" style="mask-type:alpha" maskUnits="userSpaceOnUse" x="164" y="234" width="26" height="26"><circle cx="177" cy="247" r="12.8" fill="#CCEEFD"/></mask><g mask="url(#f)"><path d="M177 240c1 0 1.8.3 2.4 1 .7.6 1 1.4 1 2.3 0 1-.3 1.7-1 2.4-.6.6-1.4 1-2.4 1a3.3 3.3 0 0 1-3.4-3.4c0-.9.4-1.7 1-2.3.7-.7 1.5-1 2.4-1Zm-2.2 8.2h4.4c.3 0 .7.1 1 .4l1.2.9a7.8 7.8 0 0 1 1.6 2.6c.2.3.2.6 0 .9 0 .3-.2.5-.5.6-.8.5-1.7.8-2.6 1a15.7 15.7 0 0 1-5.8 0c-1-.2-1.8-.5-2.6-1-.2 0-.4-.3-.5-.6-.2-.3-.2-.6 0-.9.1-.4.3-.9.7-1.3.3-.5.6-1 1-1.3a6 6 0 0 1 1-1 2 2 0 0 1 1.1-.3Z" fill="#475569"/></g><path d="M75.6 291.8h-3l-.4 1.2h-.8l2.6-6h.3l2.5 6h-.7l-.5-1.2Zm-1.5-3.6-1.2 3h2.4l-1.2-3Zm7 .4-2 4.5H79l-2.1-4.5h.7L79 292l1.4-3.3h.8Zm4.8 1.9v.5h-3.5c0 .5.2.8.5 1 .3.3.7.5 1.1.5.5 0 1-.2 1.4-.6l.4.4c-.3.3-.5.5-.8.6l-1 .2-1.2-.3a2.3 2.3 0 0 1-1.1-2 2.3 2.3 0 0 1 1.1-2c.3-.2.7-.3 1.1-.3.4 0 .7.1 1 .3.4.1.6.4.8.7l.2 1Zm-2-1.4c-.3 0-.7.2-1 .4-.2.2-.4.5-.5 1h2.8c0-.5-.1-.8-.4-1-.2-.2-.5-.4-.9-.4Zm5.3-.5h.3v.6h-.3c-.2 0-.5 0-.7.2-.2 0-.3.2-.5.4l-.2.7v2.5h-.6v-4.4h.6v.6l.6-.4c.2-.2.5-.2.8-.2Zm5 0-2.1 5a2 2 0 0 1-.6.8c-.3.2-.5.3-.9.3H90v-.7h1.2l.4-.6.2-.5-1.8-4.3h.7l1.5 3.5 1.4-3.5h.8Zm3.6-1.5h3.8v.6h-3v1.8h2.3v.6h-2.4v2.3h3.3v.6h-4v-6Zm5-.9h.8v6.8h-.7v-6.8Zm2.3 2.4h.7v4.4h-.7v-4.4Zm.3-1.2-.3-.1a.5.5 0 0 1-.2-.4s0-.2.2-.3l.3-.2c.2 0 .3 0 .4.2l.2.3c0 .2 0 .3-.2.4l-.4.1Zm1.2 7.3a2 2 0 0 1-.6 0v-.6h.4c.3 0 .5 0 .7-.2l.2-.6v-4.7h.7v4.7c0 .5-.1.8-.4 1-.2.3-.6.4-1 .4Zm1-7.3-.3-.1a.5.5 0 0 1-.2-.4s0-.2.2-.3l.4-.2c.1 0 .2 0 .3.2l.2.3c0 .2 0 .3-.2.4l-.3.1Zm3.5 1.1c.5 0 1 .2 1.2.5.4.3.5.7.5 1.3v2.7h-.6v-.6l-.7.5a2 2 0 0 1-.8.2c-.5 0-.8-.1-1.1-.3a1 1 0 0 1-.4-1c0-.3.1-.6.4-.8.3-.2.7-.4 1.1-.4h1.4v-.3c0-.4 0-.7-.3-.9a1 1 0 0 0-.7-.2l-.7.1a2 2 0 0 0-.6.6l-.5-.4c.2-.3.5-.6.8-.7.3-.2.6-.3 1-.3Zm-.3 4 .6-.1.5-.5c.2-.2.2-.4.2-.6h-2l-.2.5c0 .3 0 .4.2.5.2.2.4.2.7.2Zm5.5-4c.5 0 .9.2 1.2.5.3.3.4.7.4 1.2v2.8h-.7v-2.7c0-.3 0-.6-.3-.8a1 1 0 0 0-.8-.3c-.3 0-.6 0-.8.3-.2.2-.3.5-.3.8v2.7h-.7v-6.8h.7v3c.1-.3.3-.4.5-.5l.8-.2Zm5.7-1.4h2c.4 0 .8 0 1 .2.3.1.6.3.7.6.2.3.2.5.2.9 0 .3 0 .6-.2.9l-.7.6-1 .2h-1.3v2.5h-.7v-6Zm2 2.8c.4 0 .7-.1.9-.3.2-.2.3-.5.3-.8a1 1 0 0 0-.3-.8c-.2-.2-.5-.3-.9-.3h-1.3v2.2h1.3Zm6.9.6-.1.5h-3.5c0 .5.2.8.5 1 .3.3.7.5 1.1.5.5 0 1-.2 1.4-.6l.4.4c-.2.3-.5.5-.8.6l-1 .2c-.4 0-.8-.1-1.1-.3a2.3 2.3 0 0 1-1.2-2 2.3 2.3 0 0 1 1.1-2c.4-.2.7-.3 1.2-.3.3 0 .7.1 1 .3.3.1.5.4.7.7.2.3.3.6.3 1Zm-2-1.4c-.4 0-.7.2-1 .4-.3.2-.5.5-.5 1h2.7c0-.5 0-.8-.3-1-.3-.2-.6-.4-1-.4Zm4.7-.6c.6 0 1 .2 1.3.5.3.3.5.7.5 1.3v2.7h-.7v-.6l-.6.5a2 2 0 0 1-.9.2c-.4 0-.8-.1-1-.3a1 1 0 0 1-.5-1c0-.3.1-.6.4-.8.3-.2.7-.4 1.2-.4h1.4v-.3c0-.4-.1-.7-.3-.9a1 1 0 0 0-.8-.2l-.7.1a2 2 0 0 0-.6.6l-.4-.4c.2-.3.4-.6.7-.7.3-.2.7-.3 1-.3Zm-.3 4 .7-.1.5-.5.2-.6h-2c-.2.2-.3.3-.3.5 0 .3.1.4.3.5.1.2.4.2.6.2Zm5.5-4 .4.1v.6h-.3c-.2 0-.5 0-.7.2-.2 0-.4.2-.5.4l-.2.7v2.5h-.7v-4.4h.7v.6c.1-.2.3-.3.6-.4.2-.2.5-.2.7-.2Zm2.6 4.6a2 2 0 0 1-1.7-.9l.4-.4.6.5.7.2c.2 0 .4 0 .6-.2l.2-.5c0-.1 0-.3-.2-.4l-.6-.3-.4-.1-.8-.5a1 1 0 0 1-.3-.8c0-.3.2-.6.5-.9.2-.2.6-.3 1-.3.3 0 .6 0 .8.2l.7.5-.4.4-.6-.3-.5-.1a1 1 0 0 0-.6.1l-.2.4.2.3.6.3.4.2.8.6c.2.2.3.4.3.7 0 .4-.1.7-.4 1-.3.2-.7.3-1.1.3Zm4.7 0a2.2 2.2 0 0 1-2-1.1l-.2-1.2a2.2 2.2 0 0 1 1-2c.4-.2.8-.3 1.3-.3.4 0 .8.1 1.1.3a2.3 2.3 0 0 1 1.1 2 2.3 2.3 0 0 1-2.3 2.3Zm0-.6c.3 0 .6-.1.8-.3.3-.1.5-.3.6-.6.2-.2.2-.5.2-.8 0-.3 0-.6-.2-.8-.1-.3-.3-.5-.5-.6-.3-.2-.6-.2-.8-.2a1.5 1.5 0 0 0-1.4.8c-.2.2-.2.5-.2.8 0 .3 0 .6.2.8a1.6 1.6 0 0 0 1.3.9Zm5.6-4c.5 0 .9.2 1.2.5.3.3.4.7.4 1.2v2.8h-.7v-2.7c0-.3-.1-.6-.3-.8a1 1 0 0 0-.8-.3c-.3 0-.6 0-.8.3-.2.2-.3.5-.3.8v2.7h-.7v-4.4h.6v.5l.6-.4.8-.2Z" fill="#94A3B8"/><circle cx="176" cy="289" r="14" fill="#CBD5E1"/><mask id="g" style="mask-type:alpha" maskUnits="userSpaceOnUse" x="163" y="276" width="26" height="26"><circle cx="176" cy="289" r="12.8" fill="#CCEEFD"/></mask><g mask="url(#g)"><path d="M176 282c1 0 1.8.3 2.4 1 .7.6 1 1.4 1 2.3 0 1-.3 1.7-1 2.4-.6.6-1.4 1-2.4 1a3.3 3.3 0 0 1-3.4-3.4c0-.9.4-1.7 1-2.3.7-.7 1.5-1 2.4-1Zm-2.2 8.2h4.4c.3 0 .7.1 1 .4l1.2.9a7.8 7.8 0 0 1 1.6 2.6c.2.3.2.6 0 .9 0 .3-.2.5-.5.6-.8.5-1.7.8-2.6 1a15.7 15.7 0 0 1-5.8 0c-1-.2-1.8-.5-2.6-1-.2 0-.4-.3-.5-.6-.2-.3-.2-.6 0-.9.1-.4.3-.9.7-1.3.3-.5.6-1 1-1.3a6 6 0 0 1 1-1 2 2 0 0 1 1.1-.3Z" fill="#475569"/></g><path d="M58 325v6h-.7v-4.3l-2 2.6h-.2l-1.9-2.6v4.3h-.7v-6h.2l2.5 3.4 2.5-3.4h.3Zm3 1.5c.6 0 1 .2 1.3.5.3.3.5.7.5 1.3v2.7H62v-.6c-.1.2-.3.4-.6.5a2 2 0 0 1-.8.2c-.5 0-.9-.1-1.1-.3a1 1 0 0 1-.5-1c0-.3.2-.6.5-.8.2-.2.6-.4 1.1-.4h1.4v-.3c0-.4-.1-.7-.3-.9a1 1 0 0 0-.8-.2l-.7.1a2 2 0 0 0-.5.6l-.5-.4c.2-.3.4-.6.8-.7.3-.2.6-.3 1-.3Zm-.3 4 .7-.1.5-.5.2-.6h-2c-.2.2-.3.3-.3.5 0 .3.1.4.3.5.2.2.4.2.6.2Zm5.6-4 .3.1v.6h-.3c-.2 0-.5 0-.7.2-.2 0-.3.2-.5.4l-.2.7v2.5h-.6v-4.4h.6v.6l.6-.4c.2-.2.5-.2.8-.2Zm3 4h.6v.5l-.7.1c-.5 0-.8-.1-1.1-.4-.3-.2-.4-.5-.4-1v-2.5H67v-.6h.7v-1.2h.7v1.2h1.4v.6h-1.4v2.4c0 .3 0 .6.2.7l.7.2Zm1.6-3.9h.7v4.4H71v-4.4Zm.4-1.2-.4-.1a.5.5 0 0 1-.1-.4l.1-.3.4-.2c.1 0 .3 0 .4.2l.1.3-.1.4-.4.1Zm3.9 1.1c.5 0 .9.2 1.2.5.2.3.4.7.4 1.2v2.8H76v-2.7c0-.3-.1-.6-.3-.8a1 1 0 0 0-.8-.3c-.3 0-.6 0-.8.3-.2.2-.4.5-.4.8v2.7h-.6v-4.4h.6v.5l.6-.4.8-.2Zm4.6 0c.5 0 1 .2 1.3.5.3.3.4.7.4 1.3v2.7H81v-.6l-.6.5a2 2 0 0 1-.9.2c-.4 0-.8-.1-1-.3a1 1 0 0 1-.5-1c0-.3.1-.6.4-.8.3-.2.7-.4 1.2-.4h1.3v-.3c0-.4 0-.7-.2-.9a1 1 0 0 0-.8-.2l-.7.1a2 2 0 0 0-.6.6l-.5-.4c.2-.3.5-.6.8-.7.3-.2.7-.3 1-.3Zm-.3 4 .7-.1.5-.5.1-.6h-2l-.2.5c0 .3 0 .4.3.5.1.2.3.2.6.2Zm8.8.6a3 3 0 0 1-2.7-1.5 3 3 0 0 1-.4-1.6 3 3 0 0 1 1.5-2.7 3 3 0 0 1 1.6-.3 3 3 0 0 1 2.5 1.2l-.6.5c-.2-.4-.5-.6-.8-.8a2.3 2.3 0 0 0-3.2 1c-.2.3-.3.7-.3 1.1 0 .5.1.9.3 1.3a2.3 2.3 0 0 0 2 1.2c.5 0 .9-.1 1.2-.3l.8-.8.6.4-1 1a3 3 0 0 1-1.5.3Zm5.2-4.6c.5 0 1 .2 1.2.5.4.3.5.7.5 1.3v2.7h-.6v-.6l-.7.5a2 2 0 0 1-.8.2c-.5 0-.8-.1-1.1-.3a1 1 0 0 1-.4-1c0-.3.1-.6.4-.8.3-.2.7-.4 1.1-.4h1.4v-.3c0-.4 0-.7-.3-.9a1 1 0 0 0-.7-.2l-.8.1a2 2 0 0 0-.5.6l-.5-.4c.2-.3.5-.6.8-.7.3-.2.6-.3 1-.3Zm-.3 4 .6-.1.5-.5c.2-.2.2-.4.2-.6h-2c-.2.2-.2.3-.2.5 0 .3 0 .4.2.5.2.2.4.2.7.2Zm8.3-4c.5 0 .9.2 1.2.5.2.3.4.7.4 1.2v2.8h-.7v-2.7c0-.3-.1-.6-.3-.8a1 1 0 0 0-.8-.3 1 1 0 0 0-1.1 1.1v2.7h-.7v-2.7c0-.3 0-.6-.3-.8a1 1 0 0 0-.7-.3 1 1 0 0 0-.8.3c-.2.2-.3.5-.3.8v2.7h-.7v-4.4h.6v.5l.6-.4.7-.2c.3 0 .6 0 .8.2.3.1.5.3.6.6a1.8 1.8 0 0 1 1.5-.8Zm5.3 0a2 2 0 0 1 1.9 1.1l.3 1.2c0 .4 0 .8-.3 1.2l-.7.8c-.4.2-.7.3-1.2.3-.3 0-.6 0-.9-.2l-.7-.5v2.2h-.7v-6h.7v.7l.7-.6 1-.2Zm0 4 .7-.2.6-.6.2-.9c0-.3 0-.6-.2-.8-.1-.3-.3-.5-.6-.6-.2-.2-.5-.2-.8-.2l-.7.1-.6.6-.2.9c0 .4 0 .7.2 1l.6.5.7.2Zm5-4c.5 0 1 .2 1.2.5.4.3.5.7.5 1.3v2.7h-.6v-.6l-.7.5a2 2 0 0 1-.8.2c-.5 0-.8-.1-1.1-.3a1 1 0 0 1-.4-1c0-.3.1-.6.4-.8.3-.2.7-.4 1.1-.4h1.4v-.3c0-.4 0-.7-.3-.9a1 1 0 0 0-.7-.2l-.7.1a2 2 0 0 0-.6.6l-.5-.4c.2-.3.5-.6.8-.7.3-.2.6-.3 1-.3Zm-.3 4 .6-.1c.3-.1.4-.3.5-.5.2-.2.2-.4.2-.6h-2l-.2.5c0 .3 0 .4.2.5.2.2.4.2.7.2Zm5.5-4c.5 0 .9.2 1.2.5.3.3.4.7.4 1.2v2.8h-.7v-2.7c0-.3 0-.6-.3-.8a1 1 0 0 0-.8-.3c-.3 0-.6 0-.8.3-.2.2-.3.5-.3.8v2.7h-.7v-4.4h.6v.5l.6-.4.8-.2Zm4.7 0c.5 0 .9.2 1.2.5.3.3.5.7.5 1.3v2.7h-.7v-.6l-.6.5a2 2 0 0 1-.9.2c-.4 0-.8-.1-1-.3a1 1 0 0 1-.5-1c0-.3.2-.6.4-.8.3-.2.7-.4 1.2-.4h1.4v-.3c0-.4-.1-.7-.3-.9a1 1 0 0 0-.8-.2l-.7.1a2 2 0 0 0-.6.6l-.4-.4c.2-.3.4-.6.7-.7l1-.3Zm-.4 4 .7-.1.5-.5.2-.6h-2c-.2.2-.3.3-.3.5 0 .3.1.4.3.5.2.2.4.2.6.2Zm6.1-5.4h1.8c.6 0 1.2 0 1.7.3s.9.6 1.1 1c.3.5.4 1 .4 1.6 0 .6-.1 1.1-.4 1.6-.2.4-.6.8-1.1 1-.5.3-1 .4-1.7.4h-1.8v-6Zm1.8 5.3c.5 0 1-.1 1.3-.3.4-.2.7-.5.9-.9.2-.3.3-.7.3-1.2l-.3-1.2a2 2 0 0 0-.9-.8c-.4-.2-.8-.3-1.3-.3h-1v4.7h1Zm6.4.7a2.2 2.2 0 0 1-2-1.1l-.3-1.2a2.2 2.2 0 0 1 1.1-2l1.2-.3c.4 0 .8.1 1.1.3a2.3 2.3 0 0 1 1.2 2 2.3 2.3 0 0 1-2.3 2.3Zm0-.6c.3 0 .5-.1.8-.3l.6-.6.2-.8-.2-.8-.6-.6c-.3-.2-.5-.2-.8-.2a1.5 1.5 0 0 0-1.4.8l-.2.8c0 .3 0 .6.2.8a1.6 1.6 0 0 0 1.4.9Zm10-3.9-1.9 4.5h-.2l-1.5-3.3-1.5 3.3h-.2l-2-4.5h.8l1.3 3.3 1.5-3.4h.2l1.5 3.3 1.2-3.2h.8Zm3 0c.5 0 .9 0 1.2.4.3.3.4.7.4 1.2v2.8h-.7v-2.7c0-.3 0-.6-.3-.8a1 1 0 0 0-.8-.3c-.3 0-.6 0-.8.3-.2.2-.3.5-.3.8v2.7h-.7v-4.4h.6v.5l.6-.4.8-.2Zm4.4 4.5a2 2 0 0 1-1.7-.9l.4-.4.6.5.7.2c.2 0 .4 0 .6-.2l.2-.5c0-.1 0-.3-.2-.4l-.6-.3-.4-.1-.8-.5a1 1 0 0 1-.3-.8c0-.3.2-.6.4-.9.3-.2.7-.3 1.1-.3.3 0 .6 0 .8.2l.7.5-.5.4-.5-.3-.5-.1a1 1 0 0 0-.6.1l-.2.4c0 .1 0 .3.2.3l.5.3.5.2.8.6c.2.2.3.4.3.7 0 .4-.1.7-.4 1-.3.2-.7.3-1.1.3Z" fill="#94A3B8"/><circle cx="176" cy="327" r="14" fill="#CBD5E1"/><mask id="h" style="mask-type:alpha" maskUnits="userSpaceOnUse" x="163" y="314" width="26" height="26"><circle cx="176" cy="327" r="12.8" fill="#CCEEFD"/></mask><g mask="url(#h)"><path d="M176 320c1 0 1.8.3 2.4 1 .7.6 1 1.4 1 2.3 0 1-.3 1.7-1 2.4-.6.6-1.4 1-2.4 1a3.3 3.3 0 0 1-3.4-3.4c0-.9.4-1.7 1-2.3.7-.7 1.5-1 2.4-1Zm-2.2 8.2h4.4c.3 0 .7.1 1 .4l1.2.9a7.8 7.8 0 0 1 1.6 2.6c.2.3.2.6 0 .9 0 .3-.2.5-.5.6-.8.5-1.7.8-2.6 1a15.7 15.7 0 0 1-5.8 0c-1-.2-1.8-.5-2.6-1-.2 0-.4-.3-.5-.6-.2-.3-.2-.6 0-.9.1-.4.3-.9.7-1.3.3-.5.6-1 1-1.3a6 6 0 0 1 1-1 2 2 0 0 1 1.1-.3Z" fill="#475569"/></g><path d="M46.1 49.4c.5.1.9.4 1.1.8.3.3.4.8.4 1.3a2.4 2.4 0 0 1-1.3 2.2l-1.5.3H41v-8.6h3c.5 0 1 .1 1.4.3a2.2 2.2 0 0 1 1.3 2.1 2 2 0 0 1-.6 1.6Zm-3.4-2.5v2h1.2c.3 0 .6-.1.8-.3.2-.2.3-.4.3-.7 0-.3 0-.5-.3-.7-.2-.2-.5-.3-.8-.3h-1.2Zm2 5.6c.4 0 .7-.1.9-.3.2-.2.3-.4.3-.8a1 1 0 0 0-.3-.8c-.2-.2-.5-.3-1-.3h-2v2.2h2Zm7.5-5h.6v1.6h-.5c-.5 0-1 .2-1.3.4-.3.3-.4.7-.4 1.3V54h-1.8v-6.4h1.6v.7a2.3 2.3 0 0 1 1.8-.8Zm7.4 3v.9H55c.1.4.3.7.6 1l1.2.2c.6 0 1.2-.2 1.8-.6l.7 1.2a3.9 3.9 0 0 1-4.3.5 3.3 3.3 0 0 1-1.8-3A3.3 3.3 0 0 1 55 48a3.4 3.4 0 0 1 3.3 0c.4.2.8.5 1 1 .3.5.4 1 .4 1.5Zm-3-1.7c-.4 0-.8.2-1 .4-.3.2-.5.5-.6 1h3c0-.5-.2-.8-.5-1-.3-.2-.6-.4-1-.4Zm7-1.4c.7 0 1.4.3 2 .7.4.5.7 1.2.7 2V54h-1.6v-.6l-1 .5c-.2.2-.6.3-1 .3-.7 0-1.2-.2-1.6-.6-.4-.3-.6-.8-.6-1.4 0-.5.2-1 .6-1.3.5-.4 1-.5 1.8-.5h1.6V50c0-.4 0-.7-.3-.9-.2-.2-.5-.3-.9-.3l-.9.3-.8.6-.9-1c.7-1 1.7-1.4 2.8-1.4Zm-.4 5.5c.3 0 .7-.1 1-.4.2-.2.3-.5.3-1h-1.4c-.3 0-.5 0-.6.2-.2 0-.3.3-.3.5s.1.4.3.5l.7.2Zm9 1.1-2.6-3.6V54h-1.8v-9.8h1.8v6.1l2.3-2.7h2l-2.3 2.8 2.6 3.6h-2Zm9-9.8V54h-1.7v-.8l-.8.7-1.2.3a3 3 0 0 1-1.6-.5c-.5-.3-.9-.7-1.1-1.2-.3-.5-.4-1-.4-1.7s0-1.2.4-1.7a3 3 0 0 1 2.7-1.7c.8 0 1.4.3 1.9.8v-4H81Zm-3.4 8.4c.4 0 .8-.2 1.1-.5.4-.3.5-.7.5-1.3 0-.6-.1-1-.5-1.3-.3-.3-.7-.5-1.1-.5-.5 0-.9.2-1.2.5-.3.3-.5.7-.5 1.3 0 .5.2 1 .5 1.3.3.3.7.5 1.2.5Zm8 1.5c-.6 0-1.2-.1-1.7-.4-.5-.3-1-.7-1.2-1.2-.4-.5-.5-1.1-.5-1.7 0-.6.1-1.2.5-1.7.3-.5.7-1 1.2-1.2.5-.3 1.1-.5 1.7-.5a3.4 3.4 0 0 1 3.5 3.4c0 .6-.2 1.2-.5 1.7s-.7.9-1.2 1.2c-.6.3-1.1.4-1.8.4Zm0-1.6c.5 0 1-.1 1.2-.5.3-.3.5-.7.5-1.2s-.2-1-.5-1.3c-.3-.3-.7-.5-1.2-.5-.4 0-.8.2-1.2.5-.3.4-.4.8-.4 1.3s.1 1 .4 1.2c.4.4.8.5 1.2.5Zm14.6-5-3 6.7h-.6L95 50.4 93 54.2h-.5l-3-6.6h1.8l1.5 3.6 1.8-3.8h.6l1.8 3.8 1.5-3.6h1.8Zm4.4 0c.7 0 1.3.2 1.8.6.4.5.6 1.1.6 2V54h-1.7v-3.8c0-.3-.1-.6-.4-.9-.2-.2-.5-.3-.8-.3-.4 0-.7.1-1 .3l-.2 1V54h-1.8v-6.4h1.6v.5l.8-.5 1.1-.2Zm10.6 6.6c-.7 0-1.3-.1-1.8-.4a3.4 3.4 0 0 1-1.7-3c0-.5.2-1.1.5-1.6s.7-1 1.2-1.2c.6-.3 1.1-.5 1.8-.5a3.4 3.4 0 0 1 3.4 3.4c0 .6-.1 1.2-.4 1.7-.3.5-.8.9-1.3 1.2-.5.3-1.1.4-1.7.4Zm0-1.6c.4 0 .8-.1 1.2-.5.3-.3.4-.7.4-1.2s-.1-1-.4-1.3c-.4-.3-.8-.5-1.2-.5-.5 0-1 .2-1.2.5-.3.4-.5.8-.5 1.3s.2 1 .5 1.2c.3.4.7.5 1.2.5Zm7.9-6.8c-.4 0-.7 0-.9.2-.2.1-.3.4-.3.8v.9h1.4V49h-1.4v5h-1.7v-5h-1v-1.4h1v-1c0-.9.2-1.5.6-1.9.5-.4 1-.6 1.9-.6l1 .1v1.5h-.6Zm4.3-.3h3.2c.6 0 1.2.1 1.6.4.5.2.9.5 1.1 1 .3.4.4.8.4 1.4a2.7 2.7 0 0 1-1.5 2.4c-.4.3-1 .4-1.6.4h-1.4v3h-1.8v-8.6Zm3.2 4c.5 0 .8 0 1-.3.2-.2.3-.5.3-1 0-.3 0-.6-.3-.8-.2-.2-.6-.3-1-.3h-1.4v2.4h1.4Zm7.7-2 .5.2V49h-.4c-.6 0-1 .2-1.3.4-.3.3-.5.7-.5 1.3V54h-1.7v-6.4h1.6v.7a2.3 2.3 0 0 1 1.8-.8Zm7.4 3-.1 1h-4.5c0 .4.3.7.6 1l1.2.2c.6 0 1.2-.2 1.8-.6l.7 1.2a3.9 3.9 0 0 1-4.4.5 3.3 3.3 0 0 1-1.7-3 3.3 3.3 0 0 1 1.7-2.8 3.4 3.4 0 0 1 3.3 0c.4.2.8.5 1 1 .3.5.4 1 .4 1.5Zm-3-1.6c-.5 0-.8.2-1 .4-.3.2-.5.5-.6 1h2.9c0-.5-.1-.8-.4-1-.3-.2-.6-.4-1-.4Zm10.7-4.5V54H152v-.8c-.2.3-.5.5-.9.7l-1.2.3a3 3 0 0 1-1.6-.5c-.5-.3-.8-.7-1.1-1.2-.3-.5-.4-1-.4-1.7s.1-1.2.4-1.7a3 3 0 0 1 2.7-1.7c.8 0 1.5.3 2 .8v-4h1.7Zm-3.4 8.3c.5 0 .9-.2 1.2-.5.3-.3.5-.7.5-1.3 0-.6-.2-1-.5-1.3-.3-.3-.7-.5-1.2-.5-.4 0-.8.2-1.2.5-.3.3-.4.7-.4 1.3 0 .5.1 1 .4 1.3.4.3.8.5 1.2.5Zm5-5h1.7V54h-1.7v-6.4Zm.9-1.3c-.3 0-.6-.1-.8-.3a1 1 0 0 1-.4-.8c0-.3.2-.5.4-.8.2-.2.4-.3.8-.3.3 0 .5.1.8.3.2.3.3.5.3.8 0 .3-.1.6-.3.8-.3.2-.5.3-.8.3Zm5.5 7.9c-.6 0-1.2-.2-1.7-.5s-1-.7-1.3-1.2c-.3-.5-.4-1.1-.4-1.7a3.3 3.3 0 0 1 1.7-3 3.5 3.5 0 0 1 3.4 0c.5.3.9.7 1.1 1.2l-1.2 1c-.2-.3-.4-.6-.7-.7-.2-.2-.5-.3-.8-.3-.5 0-1 .2-1.3.5-.3.4-.4.8-.4 1.3s.1 1 .4 1.3c.4.3.8.4 1.3.4.3 0 .6 0 .8-.2l.7-.7 1.2 1a3 3 0 0 1-2.8 1.6Zm7.3-1.6h.8V54a5 5 0 0 1-1.2.2c-.8 0-1.4-.2-1.9-.6-.4-.4-.7-1-.7-1.9V49h-1v-1.4h1v-1.7h1.8v1.7h1.8V49h-1.8v2.6c0 .3.1.6.3.8l.9.2Zm7.9-2.2-.1 1h-4.5c0 .4.3.7.6 1l1.2.2c.6 0 1.2-.2 1.8-.6l.7 1.2a3.9 3.9 0 0 1-4.4.5 3.2 3.2 0 0 1-1.7-3A3.3 3.3 0 0 1 172 48a3.4 3.4 0 0 1 3.3 0c.5.2.8.5 1 1 .3.5.5 1 .5 1.5Zm-3.1-1.6c-.4 0-.7.2-1 .4-.3.2-.5.5-.5 1h2.9c0-.5-.2-.8-.4-1-.3-.2-.6-.4-1-.4Zm10.8-4.5V54h-1.7v-.8l-.8.7-1.2.3a3 3 0 0 1-1.6-.5c-.5-.3-.9-.7-1.1-1.2-.3-.5-.4-1-.4-1.7s0-1.2.4-1.7a3 3 0 0 1 2.7-1.7c.8 0 1.4.3 1.9.8v-4h1.8Zm-3.4 8.3c.4 0 .8-.2 1.1-.5.4-.3.5-.7.5-1.3 0-.6-.1-1-.5-1.3-.3-.3-.7-.5-1.1-.5-.5 0-.9.2-1.2.5-.3.3-.5.7-.5 1.3 0 .5.2 1 .5 1.3.3.3.7.5 1.2.5ZM195 54l-2.3-3h-1.3v3h-1.7v-8.6h3.2c.6 0 1.1.1 1.6.4.5.2.8.5 1.1 1 .3.4.4.8.4 1.4a2.7 2.7 0 0 1-1.5 2.4l2.4 3.4h-2Zm-3.6-4.6h1.5c.4 0 .7 0 1-.3.2-.2.3-.5.3-1 0-.3-.1-.6-.3-.8-.3-.2-.6-.3-1-.3h-1.5v2.4Zm12.2 1-.1 1H199c0 .4.3.7.6 1l1.2.2c.6 0 1.2-.2 1.8-.6l.7 1.2a3.9 3.9 0 0 1-4.4.5 3.3 3.3 0 0 1-1.7-3A3.4 3.4 0 0 1 199 48a3.4 3.4 0 0 1 3.2 0c.5.2.9.5 1.1 1 .3.5.4 1 .4 1.5Zm-3-1.6c-.5 0-.8.2-1 .4-.3.2-.5.5-.6 1h2.9c0-.5-.1-.8-.4-1-.3-.2-.6-.4-1-.4Zm6.3 5.4c-.5 0-1-.2-1.5-.4s-.8-.5-1.1-.9l.8-1c.6.5 1.2.8 1.8.8l.6-.1c.2-.1.3-.2.3-.4s0-.3-.2-.3l-.5-.3-.7-.3a4 4 0 0 1-1.3-.8c-.3-.3-.4-.7-.4-1.2 0-.6.2-1 .6-1.4.5-.3 1-.5 1.7-.5 1 0 1.8.3 2.3 1l-.8 1a2 2 0 0 0-1.5-.5 1 1 0 0 0-.5 0l-.2.4c0 .1 0 .2.2.3l.5.3.6.2c.7.3 1.1.6 1.4.9.3.2.4.6.4 1.1 0 .6-.2 1.1-.7 1.5-.4.4-1 .6-1.8.6Zm3.7-6.6h1.8V54h-1.8v-6.4Zm.9-1.3c-.3 0-.6-.1-.8-.3a1 1 0 0 1-.3-.8c0-.3 0-.5.3-.8.2-.2.5-.3.8-.3.3 0 .6.1.8.3.2.3.3.5.3.8 0 .3 0 .6-.3.8-.2.2-.5.3-.8.3Zm9 1.3v5.7c0 1-.4 1.8-1 2.4-.6.5-1.4.8-2.4.8-1.2 0-2.2-.4-3.1-1.2l.9-1.2 1 .6 1 .2c.6 0 1-.1 1.3-.4.3-.2.5-.6.5-1.1V53c-.2.3-.5.5-.9.6a3 3 0 0 1-1 .2c-.7 0-1.2-.1-1.7-.4-.4-.3-.8-.6-1-1.1-.3-.5-.4-1-.4-1.7 0-.6 0-1.2.4-1.7.2-.4.6-.8 1-1 .5-.3 1-.5 1.6-.5.5 0 .9.1 1.3.3.3.1.6.4.8.7v-.8h1.7Zm-3.4 4.7c.4 0 .8-.1 1.1-.4.4-.3.5-.8.5-1.3 0-.6-.1-1-.5-1.3-.3-.2-.7-.4-1.1-.4-.5 0-.9.2-1.2.5-.3.3-.5.7-.5 1.2s.2 1 .5 1.3c.3.3.7.4 1.2.4Zm8.5-4.9c.7 0 1.3.3 1.7.7.5.5.7 1.1.7 2V54h-1.8v-3.8c0-.3 0-.6-.3-.9-.2-.2-.5-.3-.9-.3-.3 0-.6.1-.8.3-.3.3-.4.6-.4 1V54h-1.7v-6.4h1.6v.5l.8-.5 1-.2Zm6.6 0c.8 0 1.5.3 2 .7.5.5.7 1.2.7 2V54h-1.6v-.6l-.8.5c-.4.2-.7.3-1.1.3-.7 0-1.3-.2-1.7-.6-.4-.3-.6-.8-.6-1.4 0-.5.3-1 .7-1.3.4-.4 1-.5 1.8-.5h1.6V50c0-.4-.1-.7-.3-.9-.2-.2-.5-.3-1-.3l-.8.3-.8.6-1-1c.8-1 1.7-1.4 2.9-1.4Zm-.4 5.5c.4 0 .7-.1 1-.4.2-.2.4-.5.4-1h-1.4c-.3 0-.5 0-.7.2l-.2.5c0 .2 0 .4.2.5l.7.2Zm8-.3h.8V54a5 5 0 0 1-1.2.2c-.8 0-1.4-.2-1.9-.6-.4-.4-.7-1-.7-1.9V49h-1v-1.4h1v-1.7h1.8v1.7h1.8V49h-1.8v2.6c0 .3 0 .6.3.8l.9.2Zm2-5h1.7V54h-1.7v-6.4Zm.8-1.3c-.3 0-.5-.1-.8-.3a1 1 0 0 1-.3-.8c0-.3.1-.5.3-.8.3-.2.5-.3.8-.3.4 0 .6.1.8.3.3.3.4.5.4.8 0 .3-.1.6-.4.8-.2.2-.4.3-.8.3Zm5.6 7.8c-.6 0-1.2-.1-1.7-.4a3.4 3.4 0 0 1-1.7-3c0-.5.1-1.1.4-1.6.3-.5.7-1 1.3-1.2.5-.3 1-.5 1.7-.5a3.4 3.4 0 0 1 3.5 3.4c0 .6-.2 1.2-.5 1.7s-.7.9-1.3 1.2c-.5.3-1 .4-1.7.4Zm0-1.6c.5 0 .9-.1 1.2-.5.3-.3.5-.7.5-1.2s-.2-1-.5-1.3c-.3-.3-.7-.5-1.2-.5s-.9.2-1.2.5c-.3.4-.5.8-.5 1.3s.2 1 .5 1.2c.3.4.7.5 1.2.5Zm8.2-5c.8 0 1.3.2 1.8.6.4.5.6 1.1.6 2V54h-1.7v-3.8c0-.3-.1-.6-.4-.9-.2-.2-.5-.3-.8-.3-.4 0-.7.1-.9.3-.2.3-.3.6-.3 1V54h-1.8v-6.4h1.6v.5l.8-.5 1.1-.2Zm12.9 6.5-2.2-3h-1.3v3H264v-8.6h3.2c.6 0 1.2.1 1.6.4.5.2.9.5 1.1 1 .3.4.4.8.4 1.4a2.7 2.7 0 0 1-1.5 2.4l2.5 3.4h-2Zm-3.5-4.6h1.4c.4 0 .8 0 1-.3.2-.2.3-.5.3-1 0-.3 0-.6-.3-.8-.2-.2-.6-.3-1-.3h-1.4v2.4Zm8.8-2c.8 0 1.5.3 2 .7.5.5.8 1.2.8 2V54h-1.7v-.6l-.8.5c-.3.2-.7.3-1.1.3-.7 0-1.3-.2-1.6-.6-.4-.3-.6-.8-.6-1.4 0-.5.2-1 .6-1.3.4-.4 1-.5 1.8-.5h1.6V50c0-.4-.1-.7-.3-.9-.2-.2-.5-.3-.9-.3l-.9.3-.8.6-1-1c.8-1 1.8-1.4 2.9-1.4Zm-.4 5.5c.4 0 .7-.1 1-.4.3-.2.4-.5.4-1h-1.4c-.3 0-.5 0-.6.2-.2 0-.3.3-.3.5s.1.4.3.5l.6.2Zm8-.3h.8V54a5 5 0 0 1-1.2.2c-.8 0-1.4-.2-1.9-.6-.4-.4-.6-1-.6-1.9V49h-1v-1.4h1v-1.7h1.7v1.7h1.8V49H281v2.6c0 .3.1.6.3.8l1 .2Zm7.9-2.2-.1 1h-4.5c0 .4.3.7.6 1l1.2.2c.6 0 1.2-.2 1.8-.6l.7 1.2a3.9 3.9 0 0 1-4.4.5 3.3 3.3 0 0 1-1.7-3 3.3 3.3 0 0 1 1.6-2.8 3.4 3.4 0 0 1 3.3 0c.5.2.9.5 1.1 1 .3.5.4 1 .4 1.5Zm-3.1-1.6c-.4 0-.7.2-1 .4-.3.2-.4.5-.5 1h2.9c0-.5-.2-.8-.4-1-.3-.2-.6-.4-1-.4Zm7.4.3h5.6v1.5h-5.6V49Zm17.8-3.7v8.8h-.6l-5-5.3V54H305v-8.7h.5l5 5.2v-5h1.8Zm7.7 5c0 .3 0 .6-.2 1h-4.5c.1.4.3.7.7 1l1.1.2c.7 0 1.3-.2 1.8-.6l.8 1.2a3.9 3.9 0 0 1-4.4.5 3.3 3.3 0 0 1-1.7-3A3.3 3.3 0 0 1 315 48a3.4 3.4 0 0 1 3.3 0c.5.2.8.5 1 1 .3.5.5 1 .5 1.5Zm-3.1-1.6c-.4 0-.7.2-1 .4-.3.2-.5.5-.6 1h3c0-.5-.2-.8-.5-1-.2-.2-.6-.4-1-.4Zm8.1 5.2-1.3-2-1.4 2h-2l2.4-3.3-2.2-3.1h2l1.2 1.8 1.2-1.8h2l-2.3 3L327 54h-2Zm6.2-1.4h.8V54a5 5 0 0 1-1.2.2c-.8 0-1.5-.2-2-.6-.4-.4-.6-1-.6-1.9V49h-1v-1.4h1v-1.7h1.8v1.7h1.8V49h-1.8v2.6c0 .3 0 .6.2.8l1 .2Zm9-2V54h-1.8v-3.4l-3-5.2h2l2 3.4 1.8-3.4h2l-3 5.2Zm8.9-.2-.1 1h-4.5c0 .4.3.7.6 1l1.2.2c.6 0 1.2-.2 1.8-.6l.7 1.2a3.9 3.9 0 0 1-4.4.5 3.3 3.3 0 0 1-1.7-3 3.4 3.4 0 0 1 1.6-2.8 3.4 3.4 0 0 1 3.3 0c.5.2.8.5 1 1 .4.5.5 1 .5 1.5Zm-3.1-1.6c-.4 0-.7.2-1 .4-.3.2-.5.5-.5 1h2.9c0-.5-.2-.8-.4-1-.3-.2-.6-.4-1-.4Zm7-1.4c.8 0 1.5.3 2 .7.5.5.7 1.2.7 2V54H354v-.6c-.2.2-.5.4-.9.5-.3.2-.7.3-1 .3-.7 0-1.3-.2-1.7-.6-.4-.3-.6-.8-.6-1.4 0-.5.2-1 .7-1.3.4-.4 1-.5 1.7-.5h1.7V50c0-.4-.1-.7-.4-.9-.2-.2-.4-.3-.8-.3s-.7.1-1 .3l-.7.6-1-1c.8-1 1.7-1.4 2.9-1.4Zm-.4 5.5c.4 0 .7-.1 1-.4.2-.2.4-.5.4-1h-1.4c-.3 0-.5 0-.7.2l-.2.5c0 .2 0 .4.2.5l.7.2Zm8-5.4h.6v1.6h-.4c-.6 0-1 .2-1.3.4-.3.3-.5.7-.5 1.3V54h-1.7v-6.4h1.6v.7a2.2 2.2 0 0 1 1.8-.8Zm8.8 0a3 3 0 0 1 1.6.4c.5.3.8.6 1 1.2.4.5.5 1 .5 1.7 0 .6-.1 1.2-.4 1.7a3 3 0 0 1-2.7 1.6c-.5 0-.9 0-1.2-.2-.4-.2-.7-.4-.9-.7v.8h-1.6v-9.8h1.8v4c.4-.5 1-.8 1.9-.8Zm-.3 5c.4 0 .8-.1 1.1-.4.4-.4.5-.8.5-1.3 0-.6-.1-1-.5-1.3-.3-.3-.7-.5-1.1-.5-.5 0-.9.2-1.2.5-.3.3-.5.7-.5 1.3 0 .6.2 1 .5 1.3.3.3.7.5 1.2.5Zm10.8-5-3.1 7c-.3.7-.7 1.2-1 1.5-.5.3-1 .5-1.6.5-.3 0-.7 0-1.1-.2V55h.7c.4 0 .6 0 .8-.2.2 0 .4-.3.6-.6l.2-.5-2.5-6h1.9l1.5 4.2 1.7-4.2h1.9Zm4.5-2h5.6V47H386v2.2h3.2v1.5H386V54h-1.7v-8.6Zm9.4 8.7c-.6 0-1-.2-1.5-.4-.5-.3-.8-.6-1-1-.3-.5-.5-1-.5-1.6v-3.6h1.8v3.7c0 .4.1.7.3 1l1 .2c.2 0 .5 0 .8-.3.2-.2.3-.5.3-.9v-3.7h1.8v3.6a3 3 0 0 1-.4 1.5c-.3.5-.6.8-1 1-.5.3-1 .5-1.6.5Zm4.5-10h1.8V54h-1.8v-9.8Zm3.4 0h1.7V54h-1.7v-9.8Zm14.3 1.2v8.8h-.6l-5-5.3V54h-1.7v-8.7h.5l5 5.2v-5h1.8Zm4.3 2c.8 0 1.5.3 2 .7.5.5.7 1.2.7 2V54h-1.6v-.6c-.2.2-.5.4-.9.5-.3.2-.7.3-1 .3-.7 0-1.3-.2-1.7-.6-.4-.3-.6-.8-.6-1.4 0-.5.2-1 .7-1.3.4-.4 1-.5 1.7-.5h1.7V50c0-.4-.1-.7-.4-.9-.2-.2-.4-.3-.8-.3s-.7.1-1 .3l-.7.6-1-1c.8-1 1.7-1.4 2.9-1.4Zm-.4 5.5c.4 0 .7-.1 1-.4.2-.2.4-.5.4-1h-1.4c-.3 0-.5 0-.7.2l-.2.5c0 .2 0 .4.2.5l.7.2Zm12.2-5.5c.7 0 1.3.3 1.7.7.5.5.7 1.1.7 2V54h-1.8v-3.7c0-.4 0-.7-.3-1a1 1 0 0 0-.8-.3c-.4 0-.6.1-.9.3-.2.3-.3.6-.3 1V54h-1.7v-3.7c0-.4-.1-.7-.4-1a1 1 0 0 0-.8-.3c-.3 0-.6.1-.8.3-.3.3-.4.6-.4 1V54h-1.7v-6.4h1.6v.5l.8-.5 1-.2c.9 0 1.5.3 2 1 .2-.3.5-.6.8-.7a3 3 0 0 1 1.3-.3Zm10 3-.1 1h-4.6c.1.4.4.7.7 1l1.1.2c.7 0 1.3-.2 1.8-.6l.8 1.2a3.9 3.9 0 0 1-4.4.5 3.3 3.3 0 0 1-1.7-3 3.3 3.3 0 0 1 1.6-2.8 3.4 3.4 0 0 1 3.3 0c.5.2.8.5 1 1 .3.5.5 1 .5 1.5Zm-3.1-1.6c-.4 0-.7.2-1 .4-.3.2-.5.5-.6 1h3c0-.5-.2-.8-.5-1-.2-.2-.5-.4-1-.4Z" fill="#475569"/></g><defs><filter id="a" x="0" y="0" width="738" height="388" filterUnits="userSpaceOnUse" color-interpolation-filters="sRGB"><feFlood flood-opacity="0" result="BackgroundImageFix"/><feColorMatrix in="SourceAlpha" values="0 0 0 0 0 0 0 0 0 0 0 0 0 0 0 0 0 0 127 0" result="hardAlpha"/><feOffset dx="8" dy="8"/><feComposite in2="hardAlpha" operator="out"/><feColorMatrix values="0 0 0 0 0.886275 0 0 0 0 0.909804 0 0 0 0 0.941176 0 0 0 1 0"/><feBlend in2="BackgroundImageFix" result="effect1_dropShadow_903_24985"/><feBlend in="SourceGraphic" in2="effect1_dropShadow_903_24985" result="shape"/></filter></defs></svg>