<svg fill="none" xmlns="http://www.w3.org/2000/svg" viewBox="0 0 738 476"><g filter="url(#a)"><rect x="1" y="1" width="648" height="466" rx="11" fill="#fff" stroke="#E2E8F0" stroke-width="2"/><rect x="40" y="129" width="32" height="6" rx="3" fill="#E2E8F0"/><rect x="40" y="238" width="32" height="6" rx="3" fill="#E2E8F0"/><rect x="40" y="347" width="32" height="6" rx="3" fill="#E2E8F0"/><rect x="78" y="422" width="20" height="6" rx="3" fill="#E2E8F0"/><rect x="223" y="422" width="20" height="6" rx="3" fill="#E2E8F0"/><rect x="368" y="422" width="20" height="6" rx="3" fill="#E2E8F0"/><rect x="513" y="422" width="20" height="6" rx="3" fill="#E2E8F0"/><path d="M88 408V76M233 408V76M378 408V76M523 408V76" stroke="#E2E8F0"/><path fill="#02A9F7" d="M88 207H448V275H88z"/><path fill="#02A9F7" d="M88 316H493V384H88z"/><path fill="#02A9F7" d="M88 98H568V166H88z"/><path d="M526.2 157h195.6c4.2 0 7.2 2.7 7.2 5.6v149.8c0 3-3 5.6-7.2 5.6H526.2c-4.2 0-7.2-2.7-7.2-5.6V162.6c0-3 3-5.6 7.2-5.6Z" fill="#fff" stroke="#E2E8F0" stroke-width="2"/><path d="M520 162a4 4 0 0 1 4-4h200a4 4 0 0 1 4 4v39H520v-39Z" fill="#E2E8F0"/><path d="M543 175.4h1.7v3.3h3.8v-3.3h1.8v8.6h-1.8v-3.7h-3.8v3.7H543v-8.6Zm9 2.2h1.7v6.4h-1.8v-6.4Zm.8-1.3c-.3 0-.6-.1-.8-.3a1 1 0 0 1-.3-.8c0-.3.1-.5.3-.8.2-.2.5-.3.8-.3.3 0 .6.1.8.3.2.3.3.5.3.8 0 .3 0 .6-.3.8-.2.2-.5.3-.8.3Zm9 1.3v5.7c0 1-.3 1.8-1 2.4-.5.5-1.4.8-2.4.8-1.2 0-2.2-.4-3.1-1.2l.9-1.2 1 .6 1.1.2c.5 0 1-.1 1.2-.4.4-.2.5-.6.5-1.1v-.4c-.2.3-.5.5-.8.6a3 3 0 0 1-1.2.2c-.5 0-1-.1-1.5-.4-.5-.3-.9-.6-1.1-1.1-.3-.5-.4-1-.4-1.7 0-.6.1-1.2.4-1.7.2-.4.6-.8 1-1 .5-.3 1-.5 1.6-.5.5 0 1 .1 1.3.3.3.1.6.4.9.7v-.8h1.6Zm-3.4 4.7c.5 0 .8-.1 1.2-.4.3-.3.4-.8.4-1.3 0-.6-.1-1-.4-1.3-.4-.2-.7-.4-1.2-.4s-.9.2-1.2.5c-.3.3-.5.7-.5 1.2s.2 1 .5 1.3c.4.3.7.4 1.2.4Zm8.5-4.9c.7 0 1.3.3 1.7.7.5.5.7 1.1.7 2v3.9h-1.8v-3.7c0-.4 0-.7-.3-1-.2-.2-.5-.3-.8-.3-.4 0-.7.1-1 .4-.2.2-.3.5-.3.9v3.7h-1.7v-9.8h1.7v4c.2-.3.5-.5.8-.6l1-.2Zm7.6-2h3.2c.6 0 1.1.1 1.6.4.5.2.8.5 1.1 1 .3.4.4.8.4 1.4a2.7 2.7 0 0 1-1.5 2.4c-.5.3-1 .4-1.6.4h-1.5v3h-1.7v-8.6Zm3.2 4c.4 0 .7 0 1-.3.2-.2.3-.5.3-1 0-.3-.1-.6-.3-.8-.3-.2-.6-.3-1-.3h-1.5v2.4h1.5Zm10.1 1v1h-4.6c.1.4.3.7.6 1l1.2.2c.6 0 1.2-.2 1.8-.6l.7 1.2a3.9 3.9 0 0 1-4.3.5 3.3 3.3 0 0 1-1.8-3 3.3 3.3 0 0 1 1.7-2.8 3.4 3.4 0 0 1 3.3 0c.4.2.8.5 1 1 .3.5.4 1 .4 1.5Zm-3-1.6c-.4 0-.8.2-1 .4-.3.2-.5.5-.6 1h3c0-.5-.2-.8-.5-1-.3-.2-.6-.4-1-.4Zm7.7-1.3h.5v1.6h-.4c-.6 0-1 .2-1.3.4-.3.3-.5.7-.5 1.3v3.2h-1.7v-6.4h1.6v.7a2.3 2.3 0 0 1 1.8-.8Zm4.7-1.8c-.4 0-.7 0-.9.2-.2.1-.3.4-.3.8v.9h1.5v1.4H596v5h-1.7v-5h-1v-1.4h1v-1c0-.9.2-1.5.6-1.9.5-.4 1-.6 1.9-.6l1 .1v1.5h-.6Zm4.2 8.4c-.7 0-1.2-.1-1.8-.4a3.4 3.4 0 0 1-1.7-3c0-.5.2-1.1.5-1.6s.7-1 1.2-1.2c.6-.3 1.1-.5 1.8-.5a3.4 3.4 0 0 1 3.4 3.4c0 .6-.1 1.2-.4 1.7-.3.5-.8.9-1.3 1.2-.5.3-1.1.4-1.7.4Zm0-1.6c.5 0 .8-.1 1.2-.5.3-.3.4-.7.4-1.2s-.1-1-.4-1.3c-.4-.3-.7-.5-1.2-.5s-1 .2-1.2.5c-.3.4-.5.8-.5 1.3s.2 1 .5 1.2c.3.4.7.5 1.2.5Zm8-5h.6v1.6h-.4c-.6 0-1 .2-1.3.4-.3.3-.5.7-.5 1.3v3.2h-1.7v-6.4h1.6v.7a2.3 2.3 0 0 1 1.8-.8Zm9 0c.8 0 1.4.2 1.9.6.4.5.6 1.1.6 2v3.9h-1.8v-3.7c0-.4 0-.7-.3-1a1 1 0 0 0-.8-.3l-.9.3c-.2.3-.3.6-.3 1v3.7h-1.7v-3.7c0-.4-.1-.7-.3-1a1 1 0 0 0-.9-.3c-.3 0-.6.1-.8.3-.3.3-.4.6-.4 1v3.7H611v-6.4h1.6v.5l.8-.5 1-.2c.9 0 1.5.3 2 1 .2-.3.5-.6.9-.7a3 3 0 0 1 1.2-.3Zm10 3v.9h-4.5c0 .4.3.7.6 1l1.2.2c.6 0 1.2-.2 1.8-.6l.7 1.2a3.9 3.9 0 0 1-4.4.5 3.3 3.3 0 0 1-1.7-3 3.3 3.3 0 0 1 1.6-2.8 3.4 3.4 0 0 1 3.3 0c.5.2.8.5 1 1 .3.5.5 1 .5 1.5Zm-3-1.7c-.4 0-.7.2-1 .4-.3.2-.5.5-.5 1h2.9c0-.5-.2-.8-.4-1-.3-.2-.6-.4-1-.4Zm7.7-1.3h.6v1.6h-.5c-.5 0-1 .2-1.3.4-.3.3-.4.7-.4 1.3v3.2h-1.8v-6.4h1.6v.7a2.3 2.3 0 0 1 1.8-.8Z" fill="#64748B"/><path d="M542.8 215.4h2.4c.5 0 1 0 1.3.3.3.1.6.4.8.7.2.3.3.7.3 1.1a2 2 0 0 1-1.1 1.9c-.4.2-.8.3-1.3.3h-1v2.3h-1.4v-6.6Zm2.4 3c.4 0 .6 0 .8-.2l.2-.7c0-.3 0-.5-.2-.7a1 1 0 0 0-.8-.2h-1v1.9h1Zm6-1.4h.3v1.2h-.3c-.4 0-.7.2-1 .4-.2.2-.3.5-.3 1v2.4h-1.4v-5h1.2v.6a1.7 1.7 0 0 1 1.4-.6Zm5.6 2.2v.8h-3.5c0 .3.2.5.4.7.3.2.6.3 1 .3s.9-.2 1.3-.5l.6.9a3 3 0 0 1-3.4.4 2.5 2.5 0 0 1-1.3-2.3 2.6 2.6 0 0 1 1.3-2.2 2.6 2.6 0 0 1 2.5 0c.4.1.6.4.8.8.2.3.3.7.3 1.1Zm-2.4-1.2c-.2 0-.5.1-.7.3-.2.2-.4.4-.4.7h2.2a1 1 0 0 0-.3-.7c-.2-.2-.5-.3-.8-.3Zm8.3-3.5v7.5h-1.2v-.6l-.7.5c-.3.2-.6.2-.9.2-.5 0-.9 0-1.2-.3-.4-.2-.7-.5-.9-1-.2-.3-.3-.8-.3-1.3s.1-1 .3-1.3a2.3 2.3 0 0 1 2.1-1.3 2 2 0 0 1 1.5.6v-3h1.3Zm-2.6 6.4c.4 0 .7-.1 1-.3.2-.3.3-.6.3-1 0-.5-.1-.8-.4-1-.2-.3-.5-.4-.9-.4-.3 0-.6 0-.9.3-.2.3-.3.6-.3 1s0 .8.3 1c.3.3.6.4 1 .4Zm3.9-3.8h1.3v4.9H564v-5Zm.6-1-.6-.3a.8.8 0 0 1-.2-.6c0-.2 0-.4.2-.5l.6-.3c.3 0 .5 0 .6.3.2.1.3.3.3.6 0 .2 0 .4-.3.5-.1.2-.3.3-.6.3Zm4.3 6c-.5 0-1 0-1.3-.3l-1-1c-.2-.4-.3-.8-.3-1.3a2.5 2.5 0 0 1 1.3-2.2c.4-.2.8-.4 1.3-.4s1 .2 1.3.4c.4.2.7.5.9.9l-1 .7-.5-.5c-.2-.2-.4-.2-.7-.2-.3 0-.6.1-.9.4-.2.2-.4.5-.4 1 0 .3.2.6.4.9.3.3.6.4 1 .4.2 0 .4 0 .6-.2l.5-.5 1 .7a2.4 2.4 0 0 1-2.2 1.2Zm5.6-1.2h.7v1.1l-1 .1c-.6 0-1-.1-1.4-.4-.4-.4-.6-.8-.6-1.4v-2.1h-.7V217h.7v-1.3h1.4v1.3h1.4v1h-1.4v2c0 .3 0 .5.2.6.2.2.4.2.7.2Zm6-1.7v.8H577l.5.7c.2.2.5.3.9.3.5 0 1-.2 1.4-.5l.5.9a3 3 0 0 1-3.3.4 2.5 2.5 0 0 1-1.3-2.3 2.6 2.6 0 0 1 1.2-2.2 2.6 2.6 0 0 1 2.6 0c.3.1.6.4.8.8.2.3.3.7.3 1.1Zm-2.3-1.2c-.3 0-.5.1-.8.3l-.4.7h2.3a1 1 0 0 0-.4-.7c-.2-.2-.4-.3-.7-.3Zm8.3-3.5v7.5h-1.3v-.6l-.6.5c-.3.2-.6.2-1 .2s-.8 0-1.2-.3c-.4-.2-.6-.5-.8-1-.2-.3-.4-.8-.4-1.3s.2-1 .4-1.3a2.3 2.3 0 0 1 2-1.3 2 2 0 0 1 1.5.6v-3h1.4Zm-2.6 6.4.9-.3c.2-.3.3-.6.3-1 0-.5 0-.8-.3-1-.3-.3-.6-.4-.9-.4-.4 0-.7 0-1 .3-.2.3-.3.6-.3 1s.1.8.4 1c.2.3.5.4.9.4Zm10.7 1.1-1.8-2.3h-1v2.3h-1.3v-6.6h2.5c.5 0 .9 0 1.2.3.4.1.7.4.9.7.2.3.3.7.3 1.1a2 2 0 0 1-1.2 2l1.9 2.5h-1.5Zm-2.7-3.5h1c.4 0 .6-.1.8-.3.2-.2.3-.4.3-.7 0-.3-.1-.5-.3-.7a1 1 0 0 0-.7-.2h-1.1v1.9Zm9.3.7v.8h-3.6l.5.7c.3.2.6.3 1 .3s.9-.2 1.3-.5l.6.9a3 3 0 0 1-3.4.4 2.5 2.5 0 0 1-1.3-2.3 2.6 2.6 0 0 1 1.3-2.2 2.6 2.6 0 0 1 2.5 0c.3.1.6.4.8.8.2.3.3.7.3 1.1Zm-2.4-1.2c-.3 0-.5.1-.7.3l-.5.7h2.3a1 1 0 0 0-.3-.7c-.2-.2-.5-.3-.8-.3Zm5 4.1c-.5 0-.9 0-1.2-.2-.4-.2-.7-.4-.9-.7l.7-.9c.4.5.9.7 1.4.7h.4l.2-.4-.1-.2-.4-.3-.5-.2-1-.6c-.3-.2-.4-.5-.4-.9s.2-.8.5-1c.4-.3.8-.5 1.3-.5.8 0 1.4.3 1.8.8l-.7.8c-.3-.3-.7-.5-1-.5l-.5.1-.1.3.1.2.4.2.5.2c.5.2.8.4 1 .7.3.2.4.5.4.8 0 .5-.2 1-.6 1.2-.3.3-.8.4-1.3.4Zm2.8-5h1.4v4.9h-1.4v-5Zm.7-1c-.3 0-.5-.1-.6-.3a.8.8 0 0 1-.3-.6c0-.2.1-.4.3-.5.1-.2.3-.3.6-.3.2 0 .4 0 .6.3.2.1.3.3.3.6 0 .2-.1.4-.3.5l-.6.3Zm6.9 1v4.3c0 .9-.3 1.5-.7 1.9-.5.4-1.1.6-1.9.6-1 0-1.7-.3-2.4-.9l.7-1 .8.5.8.2c.4 0 .7-.1 1-.3.2-.2.3-.5.3-.9v-.2l-.6.4-.9.2c-.4 0-.8-.2-1.2-.4-.4-.2-.7-.5-.9-.8-.2-.4-.3-.8-.3-1.3s.1-1 .4-1.3c.2-.4.4-.7.8-.8.4-.3.8-.4 1.2-.4l1 .2c.2.2.5.3.6.6v-.6h1.3Zm-2.6 3.6.9-.3c.2-.3.3-.6.3-1 0-.5 0-.8-.3-1-.3-.2-.6-.3-1-.3-.3 0-.6.1-.8.3-.3.3-.4.6-.4 1s.1.7.4 1c.2.2.5.3.9.3Zm6.5-3.8c.6 0 1 .2 1.4.6.3.3.5.8.5 1.4v3.1h-1.4v-2.9c0-.3 0-.5-.2-.7a.9.9 0 0 0-.7-.3 1 1 0 0 0-.7.3 1 1 0 0 0-.2.7v2.9h-1.4v-5h1.2v.5l.7-.4.8-.2Zm5 0c.7 0 1.2.2 1.6.6.4.3.6.9.6 1.6v2.9h-1.2v-.5a2 2 0 0 1-.7.5l-.8.1c-.6 0-1-.1-1.3-.4-.3-.3-.5-.6-.5-1 0-.5.2-.9.5-1.1.4-.3.8-.4 1.4-.4h1.3v-.2c0-.3-.1-.5-.3-.7l-.7-.2c-.2 0-.4 0-.6.2-.2 0-.5.3-.7.5l-.7-.8c.6-.7 1.3-1 2.2-1Zm-.2 4.2c.3 0 .6 0 .8-.2.2-.2.3-.5.3-.8h-1.1l-.5.1-.2.4c0 .2 0 .3.2.4l.5.1Zm6.1-.2h.7v1.1l-1 .1c-.6 0-1-.1-1.4-.4-.3-.4-.5-.8-.5-1.4v-2.1h-.8V217h.8v-1.3h1.3v1.3h1.4v1h-1.4v2l.2.6c.2.2.4.2.7.2Zm1.6-3.8h1.3v4.9h-1.3v-5Zm.6-1-.6-.3a.8.8 0 0 1-.2-.6c0-.2 0-.4.2-.5l.6-.3c.3 0 .5 0 .6.3.2.1.3.3.3.6 0 .2 0 .4-.3.5-.1.2-.3.3-.6.3Zm4.3 6c-.5 0-1-.1-1.3-.3a2.6 2.6 0 0 1-1.3-2.3c0-.5 0-.9.3-1.3l1-1c.4-.1.8-.3 1.3-.3a2.7 2.7 0 0 1 2.3 1.3c.3.4.4.8.4 1.3s-.1 1-.4 1.3c-.2.4-.5.7-1 1-.4.2-.8.3-1.3.3Zm0-1.2c.4 0 .7-.2 1-.4.2-.3.3-.6.3-1s-.1-.7-.4-1c-.2-.2-.5-.3-.9-.3s-.7.1-.9.4c-.2.2-.4.5-.4 1 0 .3.2.6.4.9.2.2.5.4 1 .4Zm6.3-4c.6 0 1 .2 1.4.6.3.3.5.8.5 1.4v3.1h-1.4v-2.9c0-.3 0-.5-.2-.7a.9.9 0 0 0-.7-.3 1 1 0 0 0-.7.3 1 1 0 0 0-.2.7v2.9H639v-5h1.3v.5c.1-.2.4-.3.6-.4l.8-.2Zm-95 18.1-1.7-2.3h-1v2.3h-1.3v-6.6h2.4c.5 0 1 0 1.3.3.3.1.6.4.8.7.2.3.3.7.3 1.1a2 2 0 0 1-1.1 2l1.8 2.5h-1.5Zm-2.7-3.5h1.1c.4 0 .6-.1.8-.3l.2-.7c0-.3 0-.5-.2-.7a1 1 0 0 0-.8-.2h-1v1.9Zm6.8-1.6c.6 0 1.2.2 1.5.6.4.3.6.9.6 1.6v2.9h-1.2v-.5a2 2 0 0 1-.7.5l-.8.1c-.6 0-1-.1-1.3-.4-.3-.3-.4-.6-.4-1 0-.5.1-.9.5-1.1.3-.3.8-.4 1.3-.4h1.3v-.2c0-.3-.1-.5-.3-.7l-.7-.2c-.2 0-.4 0-.6.2-.2 0-.4.3-.7.5l-.7-.8c.6-.7 1.3-1 2.2-1Zm-.3 4.2c.3 0 .6 0 .8-.2.2-.2.3-.5.3-.8h-1l-.6.1-.2.4c0 .2 0 .3.2.4l.5.1Zm6.2-.2h.6v1.1l-1 .1c-.6 0-1-.1-1.4-.4-.3-.4-.5-.8-.5-1.4v-2.1h-.8V230h.8v-1.3h1.3v1.3h1.4v1h-1.4v2c0 .3.1.5.3.6.1.2.3.2.7.2Zm6-1.7v.8h-3.5c0 .3.2.5.4.7.3.2.6.3 1 .3s.9-.2 1.3-.5l.6.9a3 3 0 0 1-3.4.4 2.5 2.5 0 0 1-1.3-2.3 2.6 2.6 0 0 1 1.3-2.2 2.6 2.6 0 0 1 2.5 0c.4.1.6.4.8.8.2.3.3.7.3 1.1Zm-2.4-1.2c-.2 0-.5.1-.7.3-.2.2-.4.4-.4.7h2.2a1 1 0 0 0-.3-.7c-.2-.2-.5-.3-.8-.3Zm8.6-2.4c-.4 0-.6 0-.7.2-.2 0-.2.3-.2.6v.7h1v1h-1v3.9h-1.4v-3.8h-.7V230h.7v-.9c0-.6.2-1 .5-1.3a2 2 0 0 1 1.4-.5h.8v1.2a3 3 0 0 0-.4 0Zm3.2 6.5c-.5 0-1-.1-1.4-.3a2.6 2.6 0 0 1-1.3-2.3c0-.5.1-.9.4-1.3.2-.4.5-.7 1-1 .3-.1.8-.3 1.3-.3a2.7 2.7 0 0 1 2.3 1.3c.2.4.3.8.3 1.3s0 1-.3 1.3l-1 1c-.4.2-.9.3-1.3.3Zm0-1.2c.3 0 .6-.2.9-.4.2-.3.3-.6.3-1s0-.7-.3-1c-.3-.2-.6-.3-1-.3-.3 0-.6.1-.9.4-.2.2-.3.5-.3 1l.3.9c.3.2.6.4 1 .4Zm6.2-4 .4.2v1.1h-.3c-.4 0-.8.2-1 .4-.3.2-.4.5-.4 1v2.4h-1.3v-5h1.2v.6a1.7 1.7 0 0 1 1.4-.6Zm9.6-1.5v6.7h-.5l-3.8-4v3.9h-1.4v-6.7h.5l3.8 4v-3.9h1.4Zm5.9 3.8-.1.8h-3.5l.5.7c.2.2.5.3 1 .3.4 0 .9-.2 1.3-.5l.5.9a3 3 0 0 1-3.3.4 2.5 2.5 0 0 1-1.3-2.3 2.6 2.6 0 0 1 1.2-2.2 2.6 2.6 0 0 1 2.6 0c.3.1.6.4.8.8.2.3.3.7.3 1.1Zm-2.4-1.2c-.3 0-.5.1-.8.3l-.4.7h2.3a1 1 0 0 0-.4-.7c-.2-.2-.4-.3-.7-.3Zm6.3 4-1-1.6-1.1 1.6H594l1.9-2.6-1.7-2.3h1.5l1 1.4.9-1.4h1.5l-1.7 2.3 1.8 2.6h-1.5Zm4.7-1 .6-.1v1.1l-.9.1c-.6 0-1.1-.1-1.5-.4-.3-.4-.5-.8-.5-1.4v-2.1h-.8V230h.8v-1.3h1.4v1.3h1.4v1h-1.4v2c0 .3 0 .5.2.6.1.2.4.2.7.2Zm7-1.6v2.6H608v-2.6l-2.3-4h1.5l1.5 2.6 1.4-2.6h1.5l-2.3 4Zm6.8-.2-.1.8h-3.5l.5.7c.2.2.5.3 1 .3.4 0 .9-.2 1.3-.5l.5.9a3 3 0 0 1-3.3.4 2.5 2.5 0 0 1-1.3-2.3 2.6 2.6 0 0 1 1.2-2.2 2.6 2.6 0 0 1 2.6 0c.3.1.6.4.8.8.2.3.3.7.3 1.1Zm-2.4-1.2c-.3 0-.5.1-.8.3l-.4.7h2.3a1 1 0 0 0-.4-.7c-.2-.2-.4-.3-.7-.3Zm5.4-1c.6 0 1.1.1 1.5.5.4.3.6.9.6 1.6v2.9H620v-.5a2 2 0 0 1-.6.5l-.9.1c-.5 0-1-.1-1.2-.4-.3-.3-.5-.6-.5-1 0-.5.2-.9.5-1.1.4-.3.8-.4 1.4-.4h1.2v-.2c0-.3 0-.5-.2-.7l-.7-.2c-.2 0-.5 0-.7.2-.2 0-.4.3-.6.5l-.7-.8c.6-.7 1.3-1 2.2-1Zm-.3 4.1c.3 0 .5 0 .7-.2.2-.2.3-.5.3-.8h-1l-.5.1c-.2.1-.2.2-.2.4s0 .3.2.4l.5.1Zm6.2-4.1h.4v1.2h-.3c-.4 0-.8.2-1 .4-.2.2-.4.5-.4 1v2.4h-1.3v-5h1.2v.6a1.7 1.7 0 0 1 1.4-.6Z" fill="#02A9F7"/><path d="M542.8 253.4h2.4c.5 0 1 0 1.3.3.3.1.6.4.8.7.2.3.3.7.3 1.1a2 2 0 0 1-1.1 1.9c-.4.2-.8.3-1.3.3h-1v2.3h-1.4v-6.6Zm2.4 3c.4 0 .6 0 .8-.2l.2-.7c0-.3 0-.5-.2-.7a1 1 0 0 0-.8-.2h-1v1.9h1Zm6-1.4h.3v1.2h-.3c-.4 0-.7.2-1 .4-.2.2-.3.5-.3 1v2.4h-1.4v-5h1.2v.6a1.7 1.7 0 0 1 1.4-.6Zm5.6 2.2v.8h-3.5c0 .3.2.5.4.7.3.2.6.3 1 .3s.9-.2 1.3-.5l.6.9a3 3 0 0 1-3.4.4 2.5 2.5 0 0 1-1.3-2.3 2.6 2.6 0 0 1 1.3-2.2 2.6 2.6 0 0 1 2.5 0c.4.1.6.4.8.8.2.3.3.7.3 1.1Zm-2.4-1.2c-.2 0-.5.1-.7.3-.2.2-.4.4-.4.7h2.2a1 1 0 0 0-.3-.7c-.2-.2-.5-.3-.8-.3Zm8.3-3.5v7.5h-1.2v-.6l-.7.5c-.3.2-.6.2-.9.2-.5 0-.9 0-1.2-.3-.4-.2-.7-.5-.9-1-.2-.3-.3-.8-.3-1.3s.1-1 .3-1.3a2.3 2.3 0 0 1 2.1-1.3 2 2 0 0 1 1.5.6v-3h1.3Zm-2.6 6.4c.4 0 .7-.1 1-.3.2-.3.3-.6.3-1 0-.5-.1-.8-.4-1-.2-.3-.5-.4-.9-.4-.3 0-.6 0-.9.3-.2.3-.3.6-.3 1s0 .8.3 1c.3.3.6.4 1 .4Zm3.9-3.8h1.3v4.9H564v-5Zm.6-1-.6-.3a.8.8 0 0 1-.2-.6c0-.2 0-.4.2-.5l.6-.3c.3 0 .5 0 .6.3.2.1.3.3.3.6 0 .2 0 .4-.3.5-.1.2-.3.3-.6.3Zm4.3 6c-.5 0-1 0-1.3-.3l-1-1c-.2-.4-.3-.8-.3-1.3a2.5 2.5 0 0 1 1.3-2.2c.4-.2.8-.4 1.3-.4s1 .2 1.3.4c.4.2.7.5.9.9l-1 .7-.5-.5c-.2-.2-.4-.2-.7-.2-.3 0-.6.1-.9.4-.2.2-.4.5-.4 1 0 .3.2.6.4.9.3.3.6.4 1 .4.2 0 .4 0 .6-.2l.5-.5 1 .7a2.4 2.4 0 0 1-2.2 1.2Zm5.6-1.2h.7v1.1l-1 .1c-.6 0-1-.1-1.4-.4-.4-.4-.6-.8-.6-1.4v-2.1h-.7V255h.7v-1.3h1.4v1.3h1.4v1h-1.4v2c0 .3 0 .5.2.6.2.2.4.2.7.2Zm6-1.7v.8H577l.5.7c.2.2.5.3.9.3.5 0 1-.2 1.4-.5l.5.9a3 3 0 0 1-3.3.4 2.5 2.5 0 0 1-1.3-2.3 2.6 2.6 0 0 1 1.2-2.2 2.6 2.6 0 0 1 2.6 0c.3.1.6.4.8.8.2.3.3.7.3 1.1Zm-2.3-1.2c-.3 0-.5.1-.8.3l-.4.7h2.3a1 1 0 0 0-.4-.7c-.2-.2-.4-.3-.7-.3Zm8.3-3.5v7.5h-1.3v-.6l-.6.5c-.3.2-.6.2-1 .2s-.8 0-1.2-.3c-.4-.2-.6-.5-.8-1-.2-.3-.4-.8-.4-1.3s.2-1 .4-1.3a2.3 2.3 0 0 1 2-1.3 2 2 0 0 1 1.5.6v-3h1.4Zm-2.6 6.4.9-.3c.2-.3.3-.6.3-1 0-.5 0-.8-.3-1-.3-.3-.6-.4-.9-.4-.4 0-.7 0-1 .3-.2.3-.3.6-.3 1s.1.8.4 1c.2.3.5.4.9.4Zm10.7 1.1-1.8-2.3h-1v2.3h-1.3v-6.6h2.5c.5 0 .9 0 1.2.3.4.1.7.4.9.7.2.3.3.7.3 1.1a2 2 0 0 1-1.2 2l1.9 2.5h-1.5Zm-2.7-3.5h1c.4 0 .6-.1.8-.3.2-.2.3-.4.3-.7 0-.3-.1-.5-.3-.7a1 1 0 0 0-.7-.2h-1.1v1.9Zm9.3.7v.8h-3.6l.5.7c.3.2.6.3 1 .3s.9-.2 1.3-.5l.6.9a3 3 0 0 1-3.4.4 2.5 2.5 0 0 1-1.3-2.3 2.6 2.6 0 0 1 1.3-2.2 2.6 2.6 0 0 1 2.5 0c.3.1.6.4.8.8.2.3.3.7.3 1.1Zm-2.4-1.2c-.3 0-.5.1-.7.3l-.5.7h2.3a1 1 0 0 0-.3-.7c-.2-.2-.5-.3-.8-.3Zm5 4.1c-.5 0-.9 0-1.2-.2-.4-.2-.7-.4-.9-.7l.7-.9c.4.5.9.7 1.4.7h.4l.2-.4-.1-.2-.4-.3-.5-.2-1-.6c-.3-.2-.4-.5-.4-.9s.2-.8.5-1c.4-.3.8-.5 1.3-.5.8 0 1.4.3 1.8.8l-.7.8c-.3-.3-.7-.5-1-.5l-.5.1-.1.3.1.2.4.2.5.2c.5.2.8.4 1 .7.3.2.4.5.4.8 0 .5-.2 1-.6 1.2-.3.3-.8.4-1.3.4Zm2.8-5h1.4v4.9h-1.4v-5Zm.7-1c-.3 0-.5-.1-.6-.3a.8.8 0 0 1-.3-.6c0-.2.1-.4.3-.5.1-.2.3-.3.6-.3.2 0 .4 0 .6.3.2.1.3.3.3.6 0 .2-.1.4-.3.5l-.6.3Zm6.9 1v4.3c0 .9-.3 1.5-.7 1.9-.5.4-1.1.6-1.9.6-1 0-1.7-.3-2.4-.9l.7-1 .8.5.8.2c.4 0 .7-.1 1-.3.2-.2.3-.5.3-.9v-.2l-.6.4-.9.2c-.4 0-.8-.2-1.2-.4-.4-.2-.7-.5-.9-.8-.2-.4-.3-.8-.3-1.3s.1-1 .4-1.3c.2-.4.4-.7.8-.9l1.2-.3 1 .2c.2.2.5.3.6.6v-.6h1.3Zm-2.6 3.6.9-.3c.2-.3.3-.6.3-1 0-.5 0-.8-.3-1-.3-.2-.6-.3-1-.3-.3 0-.6.1-.8.3-.3.3-.4.6-.4 1s.1.7.4 1c.2.2.5.3.9.3Zm6.5-3.8c.6 0 1 .2 1.4.6.3.3.5.8.5 1.4v3.1h-1.4v-2.9c0-.3 0-.5-.2-.7a.9.9 0 0 0-.7-.3 1 1 0 0 0-.7.3 1 1 0 0 0-.2.7v2.9h-1.4v-5h1.2v.5l.7-.4.8-.2Zm5 0c.7 0 1.2.2 1.6.6.4.3.6.9.6 1.6v2.9h-1.2v-.5a2 2 0 0 1-.7.5l-.8.1c-.6 0-1-.1-1.3-.4-.3-.3-.5-.6-.5-1 0-.5.2-.9.5-1.1.4-.3.8-.4 1.4-.4h1.3v-.2c0-.3-.1-.5-.3-.7l-.7-.2c-.2 0-.4 0-.6.2-.2 0-.5.3-.7.5l-.7-.8c.6-.7 1.3-1 2.2-1Zm-.2 4.2c.3 0 .6 0 .8-.2.2-.2.3-.5.3-.8h-1.1l-.5.1-.2.4c0 .2 0 .3.2.4l.5.1Zm6.1-.2h.7v1.1l-1 .1c-.6 0-1-.1-1.4-.4-.3-.4-.5-.8-.5-1.4v-2.1h-.8V255h.8v-1.3h1.3v1.3h1.4v1h-1.4v2l.2.6c.2.2.4.2.7.2Zm1.6-3.8h1.3v4.9h-1.3v-5Zm.6-1-.6-.3a.8.8 0 0 1-.2-.6c0-.2 0-.4.2-.5l.6-.3c.3 0 .5 0 .6.3.2.1.3.3.3.6 0 .2 0 .4-.3.5-.1.2-.3.3-.6.3Zm4.3 6c-.5 0-1-.1-1.3-.3a2.6 2.6 0 0 1-1.3-2.3c0-.5 0-.9.3-1.3l1-1c.4-.1.8-.3 1.3-.3a2.7 2.7 0 0 1 2.3 1.3c.3.4.4.8.4 1.3s-.1 1-.4 1.3c-.2.4-.5.7-1 1-.4.2-.8.3-1.3.3Zm0-1.2c.4 0 .7-.2 1-.4.2-.3.3-.6.3-1s-.1-.7-.4-1c-.2-.2-.5-.3-.9-.3s-.7.1-.9.4c-.2.2-.4.5-.4 1 0 .3.2.6.4.9.2.2.5.4 1 .4Zm6.3-4c.6 0 1 .2 1.4.6.3.3.5.8.5 1.4v3.1h-1.4v-2.9c0-.3 0-.5-.2-.7a.9.9 0 0 0-.7-.3 1 1 0 0 0-.7.3 1 1 0 0 0-.2.7v2.9H639v-5h1.3v.5c.1-.2.4-.3.6-.4l.8-.2Zm-96 18.2c-.6 0-1.1-.1-1.7-.4-.5-.3-1-.7-1.3-1.3-.3-.5-.4-1-.4-1.7 0-.6.1-1.2.5-1.7.3-.6.7-1 1.2-1.3a3.6 3.6 0 0 1 3.5 0c.5.3 1 .7 1.2 1.2l-1 .7c-.5-.7-1.1-1-1.9-1-.4 0-.8 0-1.1.2a2 2 0 0 0-.8.8l-.2 1.1c0 .4 0 .8.2 1.1.2.4.5.6.8.8a2.2 2.2 0 0 0 3-.8l1 .7c-.3.5-.7.9-1.2 1.2-.5.3-1 .4-1.7.4Zm6.2 0c-.5 0-.9-.1-1.3-.3a2.6 2.6 0 0 1-1.3-2.3c0-.5.1-.9.3-1.3l1-1 1.3-.3a2.7 2.7 0 0 1 2.3 1.3c.3.4.4.8.4 1.3s-.1 1-.4 1.3c-.2.4-.5.7-1 1-.3.2-.8.3-1.3.3Zm0-1.2c.4 0 .7-.2 1-.4.2-.3.3-.6.3-1s-.1-.7-.3-1c-.3-.2-.6-.3-1-.3-.3 0-.6.1-.9.4-.2.2-.3.5-.3 1 0 .3 0 .6.3.9.3.2.6.4 1 .4Zm5.9 1.2c-.4 0-.8 0-1.2-.3-.3-.2-.6-.4-.8-.8-.2-.3-.3-.7-.3-1.2V268h1.4v3c0 .2 0 .4.2.6.2.2.4.3.7.3.3 0 .5-.1.6-.3.2-.2.3-.4.3-.7v-2.8h1.4v2.7c0 .5-.1.9-.3 1.2a2 2 0 0 1-.8.8l-1.2.3Zm6.1-5.2c.6 0 1 .2 1.4.6.3.4.5.8.5 1.4v3.1h-1.3v-2.9c0-.3-.1-.5-.3-.7a.9.9 0 0 0-.7-.3 1 1 0 0 0-.6.3 1 1 0 0 0-.3.7v2.9h-1.3v-5h1.2v.5l.6-.4.8-.2Zm5.6 4h.7v1.1l-1 .1c-.6 0-1-.1-1.4-.4-.4-.4-.5-.8-.5-1.4v-2.1h-.8V268h.8v-1.3h1.3v1.3h1.4v1h-1.4v2l.2.6c.2.2.4.2.7.2ZM542.8 291.4h1.3v2.5h3v-2.5h1.3v6.6H547v-2.9h-2.9v2.9h-1.3v-6.6Zm11.5 3.8-.1.8h-3.5l.5.7c.3.2.6.3 1 .3s.9-.2 1.3-.5l.6.9a3 3 0 0 1-3.4.4 2.5 2.5 0 0 1-1.3-2.3 2.6 2.6 0 0 1 1.2-2.2 2.6 2.6 0 0 1 2.6 0c.3.1.6.4.8.8.2.3.3.7.3 1.1Zm-2.4-1.2c-.3 0-.5.1-.7.3-.3.2-.4.4-.5.7h2.3a1 1 0 0 0-.3-.7c-.2-.2-.5-.3-.8-.3Zm5.4-1c.6 0 1.1.1 1.5.5.4.4.6.9.6 1.6v2.9h-1.2v-.5a2 2 0 0 1-.7.5l-.9.1c-.5 0-.9-.1-1.2-.4-.3-.3-.5-.6-.5-1 0-.5.2-.9.5-1.1.4-.3.8-.4 1.4-.4h1.2v-.2c0-.3 0-.5-.2-.7l-.7-.2c-.2 0-.5 0-.7.2-.2 0-.4.3-.6.5l-.7-.8c.6-.7 1.3-1 2.2-1Zm-.3 4.1c.3 0 .5 0 .7-.2.2-.2.3-.5.3-.8h-1l-.5.1-.2.4c0 .2 0 .3.2.4l.5.1Zm8.5-6.6v7.5h-1.2v-.6l-.7.5c-.2.2-.5.2-.9.2s-.9 0-1.2-.3c-.4-.2-.7-.5-.9-1-.2-.3-.3-.8-.3-1.3s.1-1 .3-1.3a2.3 2.3 0 0 1 2.1-1.3 2 2 0 0 1 1.5.6v-3h1.3Zm-2.5 6.4c.3 0 .6-.1.8-.3.3-.3.4-.6.4-1 0-.5-.1-.8-.4-1-.2-.3-.5-.4-.8-.4-.4 0-.7 0-1 .3-.2.3-.3.6-.3 1s.1.8.3 1c.3.3.6.4 1 .4Zm6.2 1.2c-.5 0-1 0-1.4-.3l-1-1c-.2-.4-.3-.8-.3-1.3a2.5 2.5 0 0 1 1.3-2.2c.4-.2.9-.4 1.4-.4.4 0 .9.2 1.2.4.4.2.7.5.9.9l-1 .7c0-.2-.3-.4-.5-.5-.1-.2-.4-.2-.6-.2-.4 0-.7.1-1 .4-.2.2-.3.5-.3 1 0 .3 0 .6.3.9.3.3.6.4 1 .4.2 0 .4 0 .6-.2l.6-.5.9.7a2.4 2.4 0 0 1-2.1 1.2Zm5.3 0c-.5 0-1-.1-1.4-.3a2.6 2.6 0 0 1-1.3-2.3c0-.5.1-.9.4-1.3.2-.4.5-.7 1-1 .3-.1.8-.3 1.3-.3a2.7 2.7 0 0 1 2.3 1.3c.2.4.3.8.3 1.3s0 1-.3 1.3l-1 1c-.4.2-.9.3-1.3.3Zm0-1.2c.3 0 .6-.2.9-.4.2-.3.4-.6.4-1s-.2-.7-.4-1c-.3-.2-.6-.3-1-.3-.3 0-.6.1-.8.4-.3.2-.4.5-.4 1 0 .3.1.6.4.9.2.2.5.4.9.4Zm5.8 1.2c-.4 0-.8 0-1.2-.3-.3-.2-.6-.4-.8-.8-.2-.3-.3-.7-.3-1.2V293h1.4v3c0 .2 0 .4.2.6.2.2.5.3.7.3.3 0 .5-.1.7-.3.2-.2.2-.4.2-.7v-2.8h1.4v2.7c0 .5-.1.9-.3 1.2a2 2 0 0 1-.8.8c-.4.2-.7.3-1.2.3Zm6.2-5.2c.5 0 1 .2 1.3.6.4.4.5.8.5 1.4v3.1H587v-2.9c0-.3 0-.5-.3-.7a.9.9 0 0 0-.6-.3 1 1 0 0 0-.7.3 1 1 0 0 0-.3.7v2.9h-1.3v-5h1.2v.5l.7-.4.8-.2Zm5.6 4h.6v1.1l-1 .1c-.5 0-1-.1-1.4-.4-.3-.4-.5-.8-.5-1.4v-2.1h-.8V293h.8v-1.3h1.4v1.3h1.4v1h-1.4v2c0 .3 0 .5.2.6.1.2.4.2.7.2Z" fill="#94A3B8"/><path d="M686.1 215.4v6.6h-1.4v-5l-1.2.4-.3-1.2 2.4-.8h.5Zm6.1 5.4v1.2h-4.8v-.3l2.3-2.5.7-1c.2-.2.3-.5.3-.7 0-.3-.1-.5-.3-.7a.9.9 0 0 0-.7-.3c-.2 0-.5.1-.6.3a1 1 0 0 0-.3.7v.5h-1.3a2.2 2.2 0 0 1 .2-1.6l.8-.8c.4-.2.8-.3 1.3-.3.4 0 .8 0 1.1.3a2 2 0 0 1 1.1 1.8c0 .4 0 .9-.3 1.2a9 9 0 0 1-1 1.3l-1 1h2.5Zm1.9 1.3a1 1 0 0 1-1-1l.3-.6c.2-.2.4-.2.7-.2.2 0 .4 0 .6.2.2.2.3.4.3.7 0 .3-.1.5-.3.7l-.6.2Zm6.6-1.3v1.2h-4.9v-.3l2.4-2.5.7-1 .2-.7c0-.3 0-.5-.3-.7a.9.9 0 0 0-.6-.3c-.3 0-.5.1-.7.3a1 1 0 0 0-.3.7l.1.5h-1.4v-.5a2.1 2.1 0 0 1 1-2l1.3-.2c.4 0 .8 0 1.2.3.3.1.6.4.8.7.2.3.3.7.3 1 0 .5-.1 1-.4 1.3a9 9 0 0 1-1 1.3l-.9 1h2.5Zm2.7-2.2-.9-.2-.6-.6c-.2-.3-.2-.6-.2-.9 0-.3 0-.6.2-.8.1-.3.3-.5.6-.6l.9-.2a1.7 1.7 0 0 1 1.4.8c.2.2.3.5.3.8l-.3.9a1.7 1.7 0 0 1-1.4.8Zm3.4-3.2h1L704 222h-1l3.8-6.6Zm-3.4 2.2c.2 0 .3 0 .4-.2.2 0 .2-.3.2-.5s0-.4-.2-.5a.6.6 0 0 0-.4-.2c-.2 0-.4 0-.5.2l-.2.5c0 .2 0 .4.2.5.1.2.3.2.5.2Zm4 4.5c-.3 0-.6 0-.8-.2-.3-.1-.5-.3-.6-.6-.2-.3-.3-.5-.3-.8l.3-.9.6-.6.8-.2c.3 0 .6 0 .9.2a1.6 1.6 0 0 1 .8 1.5c0 .3 0 .5-.2.8a1.7 1.7 0 0 1-1.5.8Zm0-1 .5-.1.2-.5c0-.2 0-.4-.2-.6a.6.6 0 0 0-.5-.2c-.2 0-.3.1-.4.3-.2 0-.2.2-.2.5 0 .2 0 .3.2.5l.4.2Z" fill="#02A9F7"/><path d="M703 253.4v.4l-3 6.2h-1.5l2.7-5.4h-2.8v-1.2h4.6Zm3 6.7c-.5 0-1-.1-1.4-.4-.4-.3-.7-.8-.9-1.3-.2-.5-.3-1.1-.3-1.8 0-1 .2-1.8.7-2.4.4-.6 1-1 2-1 .8 0 1.4.4 1.9 1 .4.6.6 1.4.6 2.4a5 5 0 0 1-.2 1.8c-.2.5-.5 1-1 1.3-.3.3-.8.4-1.4.4Zm0-1.2c.8 0 1.3-.8 1.3-2.2 0-.7-.1-1.3-.3-1.6a1 1 0 0 0-1-.6 1 1 0 0 0-1 .6l-.2 1.6c0 1.4.4 2.2 1.2 2.2ZM696 293.7c.3 0 .7.1 1 .3a2 2 0 0 1 1.2 1.8c0 .5-.1.9-.4 1.2-.2.4-.5.6-.9.8-.3.2-.8.3-1.2.3a2.7 2.7 0 0 1-2.5-1.5l1-.6c.1.3.4.5.6.6.2.2.5.3.8.3.4 0 .6-.1.9-.3.2-.2.3-.4.3-.8 0-.3-.1-.5-.3-.7l-1-.2h-1.6v-3.5h4v1.2h-2.7v1.2h.8Zm7.5-2.3v.4l-3 6.2H699l2.7-5.4h-2.9v-1.2h4.7Zm3 2.3c.4 0 .8.1 1.1.3a2 2 0 0 1 1.2 1.8c0 .5-.1.9-.3 1.2-.3.4-.6.6-1 .8-.3.2-.8.3-1.2.3a2.7 2.7 0 0 1-2.5-1.5l1-.6c.1.3.4.5.6.6.2.2.5.3.8.3.4 0 .6-.1.9-.3.2-.2.3-.4.3-.8 0-.3-.1-.5-.3-.7l-1-.2h-1.6v-3.5h4v1.2h-2.7v1.2h.8Z" fill="#94A3B8"/><path d="M46.1 49.4c.5.1.9.4 1.1.8.3.3.4.8.4 1.3a2.4 2.4 0 0 1-1.3 2.2l-1.5.3H41v-8.6h3c.5 0 1 .1 1.4.3a2.2 2.2 0 0 1 1.3 2.1 2 2 0 0 1-.6 1.6Zm-3.4-2.5v2h1.2c.3 0 .6-.1.8-.3.2-.2.3-.4.3-.7 0-.3 0-.5-.3-.7-.2-.2-.5-.3-.8-.3h-1.2Zm2 5.6c.4 0 .7-.1.9-.3.2-.2.3-.4.3-.8a1 1 0 0 0-.3-.8c-.2-.2-.5-.3-1-.3h-2v2.2h2Zm7.5-5h.6v1.6h-.5c-.5 0-1 .2-1.3.4-.3.3-.4.7-.4 1.3V54h-1.8v-6.4h1.6v.7a2.3 2.3 0 0 1 1.8-.8Zm7.4 3v.9H55c.1.4.3.7.6 1l1.2.2c.6 0 1.2-.2 1.8-.6l.7 1.2a3.9 3.9 0 0 1-4.3.5 3.3 3.3 0 0 1-1.8-3A3.3 3.3 0 0 1 55 48a3.4 3.4 0 0 1 3.3 0c.4.2.8.5 1 1 .3.5.4 1 .4 1.5Zm-3-1.7c-.4 0-.8.2-1 .4-.3.2-.5.5-.6 1h3c0-.5-.2-.8-.5-1-.3-.2-.6-.4-1-.4Zm7-1.4c.7 0 1.4.3 2 .7.4.5.7 1.2.7 2V54h-1.6v-.6l-1 .5c-.2.2-.6.3-1 .3-.7 0-1.2-.2-1.6-.6-.4-.3-.6-.8-.6-1.4 0-.5.2-1 .6-1.3.5-.4 1-.5 1.8-.5h1.6V50c0-.4 0-.7-.3-.9-.2-.2-.5-.3-.9-.3l-.9.3-.8.6-.9-1c.7-1 1.7-1.4 2.8-1.4Zm-.4 5.5c.3 0 .7-.1 1-.4.2-.2.3-.5.3-1h-1.4c-.3 0-.5 0-.6.2-.2 0-.3.3-.3.5s.1.4.3.5l.7.2Zm9 1.1-2.6-3.6V54h-1.8v-9.8h1.8v6.1l2.3-2.7h2l-2.3 2.8 2.6 3.6h-2Zm9-9.8V54h-1.7v-.8l-.8.7-1.2.3a3 3 0 0 1-1.6-.5c-.5-.3-.9-.7-1.1-1.2-.3-.5-.4-1-.4-1.7s0-1.2.4-1.7a3 3 0 0 1 2.7-1.7c.8 0 1.4.3 1.9.8v-4H81Zm-3.4 8.4c.4 0 .8-.2 1.1-.5.4-.3.5-.7.5-1.3 0-.6-.1-1-.5-1.3-.3-.3-.7-.5-1.1-.5-.5 0-.9.2-1.2.5-.3.3-.5.7-.5 1.3 0 .5.2 1 .5 1.3.3.3.7.5 1.2.5Zm8 1.5c-.6 0-1.2-.1-1.7-.4-.5-.3-1-.7-1.2-1.2-.4-.5-.5-1.1-.5-1.7 0-.6.1-1.2.5-1.7.3-.5.7-1 1.2-1.2.5-.3 1.1-.5 1.7-.5a3.4 3.4 0 0 1 3.5 3.4c0 .6-.2 1.2-.5 1.7s-.7.9-1.2 1.2c-.6.3-1.1.4-1.8.4Zm0-1.6c.5 0 1-.1 1.2-.5.3-.3.5-.7.5-1.2s-.2-1-.5-1.3c-.3-.3-.7-.5-1.2-.5-.4 0-.8.2-1.2.5-.3.4-.4.8-.4 1.3s.1 1 .4 1.2c.4.4.8.5 1.2.5Zm14.6-5-3 6.7h-.6L95 50.4 93 54.2h-.5l-3-6.6h1.8l1.5 3.6 1.8-3.8h.6l1.8 3.8 1.5-3.6h1.8Zm4.4 0c.7 0 1.3.2 1.8.6.4.5.6 1.1.6 2V54h-1.7v-3.8c0-.3-.1-.6-.4-.9-.2-.2-.5-.3-.8-.3-.4 0-.7.1-1 .3l-.2 1V54h-1.8v-6.4h1.6v.5l.8-.5 1.1-.2Zm10.6 6.6c-.7 0-1.3-.1-1.8-.4a3.4 3.4 0 0 1-1.7-3c0-.5.2-1.1.5-1.6s.7-1 1.2-1.2c.6-.3 1.1-.5 1.8-.5a3.4 3.4 0 0 1 3.4 3.4c0 .6-.1 1.2-.4 1.7-.3.5-.8.9-1.3 1.2-.5.3-1.1.4-1.7.4Zm0-1.6c.4 0 .8-.1 1.2-.5.3-.3.4-.7.4-1.2s-.1-1-.4-1.3c-.4-.3-.8-.5-1.2-.5-.5 0-1 .2-1.2.5-.3.4-.5.8-.5 1.3s.2 1 .5 1.2c.3.4.7.5 1.2.5Zm7.9-6.8c-.4 0-.7 0-.9.2-.2.1-.3.4-.3.8v.9h1.4V49h-1.4v5h-1.7v-5h-1v-1.4h1v-1c0-.9.2-1.5.6-1.9.5-.4 1-.6 1.9-.6l1 .1v1.5h-.6Zm4.3-.3h3.2c.6 0 1.2.1 1.6.4.5.2.9.5 1.1 1 .3.4.4.8.4 1.4a2.7 2.7 0 0 1-1.5 2.4c-.4.3-1 .4-1.6.4h-1.4v3h-1.8v-8.6Zm3.2 4c.5 0 .8 0 1-.3.2-.2.3-.5.3-1 0-.3 0-.6-.3-.8-.2-.2-.6-.3-1-.3h-1.4v2.4h1.4Zm7.7-2 .5.2V49h-.4c-.6 0-1 .2-1.3.4-.3.3-.5.7-.5 1.3V54h-1.7v-6.4h1.6v.7a2.3 2.3 0 0 1 1.8-.8Zm7.4 3-.1 1h-4.5c0 .4.3.7.6 1l1.2.2c.6 0 1.2-.2 1.8-.6l.7 1.2a3.9 3.9 0 0 1-4.4.5 3.3 3.3 0 0 1-1.7-3 3.3 3.3 0 0 1 1.7-2.8 3.4 3.4 0 0 1 3.3 0c.4.2.8.5 1 1 .3.5.4 1 .4 1.5Zm-3-1.6c-.5 0-.8.2-1 .4-.3.2-.5.5-.6 1h2.9c0-.5-.1-.8-.4-1-.3-.2-.6-.4-1-.4Zm10.7-4.5V54H152v-.8c-.2.3-.5.5-.9.7l-1.2.3a3 3 0 0 1-1.6-.5c-.5-.3-.8-.7-1.1-1.2-.3-.5-.4-1-.4-1.7s.1-1.2.4-1.7a3 3 0 0 1 2.7-1.7c.8 0 1.5.3 2 .8v-4h1.7Zm-3.4 8.3c.5 0 .9-.2 1.2-.5.3-.3.5-.7.5-1.3 0-.6-.2-1-.5-1.3-.3-.3-.7-.5-1.2-.5-.4 0-.8.2-1.2.5-.3.3-.4.7-.4 1.3 0 .5.1 1 .4 1.3.4.3.8.5 1.2.5Zm5-5h1.7V54h-1.7v-6.4Zm.9-1.3c-.3 0-.6-.1-.8-.3a1 1 0 0 1-.4-.8c0-.3.2-.5.4-.8.2-.2.4-.3.8-.3.3 0 .5.1.8.3.2.3.3.5.3.8 0 .3-.1.6-.3.8-.3.2-.5.3-.8.3Zm5.5 7.9c-.6 0-1.2-.2-1.7-.5s-1-.7-1.3-1.2c-.3-.5-.4-1.1-.4-1.7a3.3 3.3 0 0 1 1.7-3 3.5 3.5 0 0 1 3.4 0c.5.3.9.7 1.1 1.2l-1.2 1c-.2-.3-.4-.6-.7-.7-.2-.2-.5-.3-.8-.3-.5 0-1 .2-1.3.5-.3.4-.4.8-.4 1.3s.1 1 .4 1.3c.4.3.8.4 1.3.4.3 0 .6 0 .8-.2l.7-.7 1.2 1a3 3 0 0 1-2.8 1.6Zm7.3-1.6h.8V54a5 5 0 0 1-1.2.2c-.8 0-1.4-.2-1.9-.6-.4-.4-.7-1-.7-1.9V49h-1v-1.4h1v-1.7h1.8v1.7h1.8V49h-1.8v2.6c0 .3.1.6.3.8l.9.2Zm7.9-2.2-.1 1h-4.5c0 .4.3.7.6 1l1.2.2c.6 0 1.2-.2 1.8-.6l.7 1.2a3.9 3.9 0 0 1-4.4.5 3.2 3.2 0 0 1-1.7-3A3.3 3.3 0 0 1 172 48a3.4 3.4 0 0 1 3.3 0c.5.2.8.5 1 1 .3.5.5 1 .5 1.5Zm-3.1-1.6c-.4 0-.7.2-1 .4-.3.2-.5.5-.5 1h2.9c0-.5-.2-.8-.4-1-.3-.2-.6-.4-1-.4Zm10.8-4.5V54h-1.7v-.8l-.8.7-1.2.3a3 3 0 0 1-1.6-.5c-.5-.3-.9-.7-1.1-1.2-.3-.5-.4-1-.4-1.7s0-1.2.4-1.7a3 3 0 0 1 2.7-1.7c.8 0 1.4.3 1.9.8v-4h1.8Zm-3.4 8.3c.4 0 .8-.2 1.1-.5.4-.3.5-.7.5-1.3 0-.6-.1-1-.5-1.3-.3-.3-.7-.5-1.1-.5-.5 0-.9.2-1.2.5-.3.3-.5.7-.5 1.3 0 .5.2 1 .5 1.3.3.3.7.5 1.2.5ZM195 54l-2.3-3h-1.3v3h-1.7v-8.6h3.2c.6 0 1.1.1 1.6.4.5.2.8.5 1.1 1 .3.4.4.8.4 1.4a2.7 2.7 0 0 1-1.5 2.4l2.4 3.4h-2Zm-3.6-4.6h1.5c.4 0 .7 0 1-.3.2-.2.3-.5.3-1 0-.3-.1-.6-.3-.8-.3-.2-.6-.3-1-.3h-1.5v2.4Zm12.2 1-.1 1H199c0 .4.3.7.6 1l1.2.2c.6 0 1.2-.2 1.8-.6l.7 1.2a3.9 3.9 0 0 1-4.4.5 3.3 3.3 0 0 1-1.7-3A3.4 3.4 0 0 1 199 48a3.4 3.4 0 0 1 3.2 0c.5.2.9.5 1.1 1 .3.5.4 1 .4 1.5Zm-3-1.6c-.5 0-.8.2-1 .4-.3.2-.5.5-.6 1h2.9c0-.5-.1-.8-.4-1-.3-.2-.6-.4-1-.4Zm6.3 5.4c-.5 0-1-.2-1.5-.4s-.8-.5-1.1-.9l.8-1c.6.5 1.2.8 1.8.8l.6-.1c.2-.1.3-.2.3-.4s0-.3-.2-.3l-.5-.3-.7-.3a4 4 0 0 1-1.3-.8c-.3-.3-.4-.7-.4-1.2 0-.6.2-1 .6-1.4.5-.3 1-.5 1.7-.5 1 0 1.8.3 2.3 1l-.8 1a2 2 0 0 0-1.5-.5 1 1 0 0 0-.5 0l-.2.4c0 .1 0 .2.2.3l.5.3.6.2c.7.3 1.1.6 1.4.9.3.2.4.6.4 1.1 0 .6-.2 1.1-.7 1.5-.4.4-1 .6-1.8.6Zm3.7-6.6h1.8V54h-1.8v-6.4Zm.9-1.3c-.3 0-.6-.1-.8-.3a1 1 0 0 1-.3-.8c0-.3 0-.5.3-.8.2-.2.5-.3.8-.3.3 0 .6.1.8.3.2.3.3.5.3.8 0 .3 0 .6-.3.8-.2.2-.5.3-.8.3Zm9 1.3v5.7c0 1-.4 1.8-1 2.4-.6.5-1.4.8-2.4.8-1.2 0-2.2-.4-3.1-1.2l.9-1.2 1 .6 1 .2c.6 0 1-.1 1.3-.4.3-.2.5-.6.5-1.1V53c-.2.3-.5.5-.9.6a3 3 0 0 1-1 .2c-.7 0-1.2-.1-1.7-.4-.4-.3-.8-.6-1-1.1-.3-.5-.4-1-.4-1.7 0-.6 0-1.2.4-1.7.2-.4.6-.8 1-1 .5-.3 1-.5 1.6-.5.5 0 .9.1 1.3.3.3.1.6.4.8.7v-.8h1.7Zm-3.4 4.7c.4 0 .8-.1 1.1-.4.4-.3.5-.8.5-1.3 0-.6-.1-1-.5-1.3-.3-.2-.7-.4-1.1-.4-.5 0-.9.2-1.2.5-.3.3-.5.7-.5 1.2s.2 1 .5 1.3c.3.3.7.4 1.2.4Zm8.5-4.9c.7 0 1.3.3 1.7.7.5.5.7 1.1.7 2V54h-1.8v-3.8c0-.3 0-.6-.3-.9-.2-.2-.5-.3-.9-.3-.3 0-.6.1-.8.3-.3.3-.4.6-.4 1V54h-1.7v-6.4h1.6v.5l.8-.5 1-.2Zm6.6 0c.8 0 1.5.3 2 .7.5.5.7 1.2.7 2V54h-1.6v-.6l-.8.5c-.4.2-.7.3-1.1.3-.7 0-1.3-.2-1.7-.6-.4-.3-.6-.8-.6-1.4 0-.5.3-1 .7-1.3.4-.4 1-.5 1.8-.5h1.6V50c0-.4-.1-.7-.3-.9-.2-.2-.5-.3-1-.3l-.8.3-.8.6-1-1c.8-1 1.7-1.4 2.9-1.4Zm-.4 5.5c.4 0 .7-.1 1-.4.2-.2.4-.5.4-1h-1.4c-.3 0-.5 0-.7.2l-.2.5c0 .2 0 .4.2.5l.7.2Zm8-.3h.8V54a5 5 0 0 1-1.2.2c-.8 0-1.4-.2-1.9-.6-.4-.4-.7-1-.7-1.9V49h-1v-1.4h1v-1.7h1.8v1.7h1.8V49h-1.8v2.6c0 .3 0 .6.3.8l.9.2Zm2-5h1.7V54h-1.7v-6.4Zm.8-1.3c-.3 0-.5-.1-.8-.3a1 1 0 0 1-.3-.8c0-.3.1-.5.3-.8.3-.2.5-.3.8-.3.4 0 .6.1.8.3.3.3.4.5.4.8 0 .3-.1.6-.4.8-.2.2-.4.3-.8.3Zm5.6 7.8c-.6 0-1.2-.1-1.7-.4a3.4 3.4 0 0 1-1.7-3c0-.5.1-1.1.4-1.6.3-.5.7-1 1.3-1.2.5-.3 1-.5 1.7-.5a3.4 3.4 0 0 1 3.5 3.4c0 .6-.2 1.2-.5 1.7s-.7.9-1.3 1.2c-.5.3-1 .4-1.7.4Zm0-1.6c.5 0 .9-.1 1.2-.5.3-.3.5-.7.5-1.2s-.2-1-.5-1.3c-.3-.3-.7-.5-1.2-.5s-.9.2-1.2.5c-.3.4-.5.8-.5 1.3s.2 1 .5 1.2c.3.4.7.5 1.2.5Zm8.2-5c.8 0 1.3.2 1.8.6.4.5.6 1.1.6 2V54h-1.7v-3.8c0-.3-.1-.6-.4-.9-.2-.2-.5-.3-.8-.3-.4 0-.7.1-.9.3-.2.3-.3.6-.3 1V54h-1.8v-6.4h1.6v.5l.8-.5 1.1-.2Zm12.9 6.5-2.2-3h-1.3v3H264v-8.6h3.2c.6 0 1.2.1 1.6.4.5.2.9.5 1.1 1 .3.4.4.8.4 1.4a2.7 2.7 0 0 1-1.5 2.4l2.5 3.4h-2Zm-3.5-4.6h1.4c.4 0 .8 0 1-.3.2-.2.3-.5.3-1 0-.3 0-.6-.3-.8-.2-.2-.6-.3-1-.3h-1.4v2.4Zm8.8-2c.8 0 1.5.3 2 .7.5.5.8 1.2.8 2V54h-1.7v-.6l-.8.5c-.3.2-.7.3-1.1.3-.7 0-1.3-.2-1.6-.6-.4-.3-.6-.8-.6-1.4 0-.5.2-1 .6-1.3.4-.4 1-.5 1.8-.5h1.6V50c0-.4-.1-.7-.3-.9-.2-.2-.5-.3-.9-.3l-.9.3-.8.6-1-1c.8-1 1.8-1.4 2.9-1.4Zm-.4 5.5c.4 0 .7-.1 1-.4.3-.2.4-.5.4-1h-1.4c-.3 0-.5 0-.6.2-.2 0-.3.3-.3.5s.1.4.3.5l.6.2Zm8-.3h.8V54a5 5 0 0 1-1.2.2c-.8 0-1.4-.2-1.9-.6-.4-.4-.6-1-.6-1.9V49h-1v-1.4h1v-1.7h1.7v1.7h1.8V49H281v2.6c0 .3.1.6.3.8l1 .2Zm7.9-2.2-.1 1h-4.5c0 .4.3.7.6 1l1.2.2c.6 0 1.2-.2 1.8-.6l.7 1.2a3.9 3.9 0 0 1-4.4.5 3.3 3.3 0 0 1-1.7-3 3.3 3.3 0 0 1 1.6-2.8 3.4 3.4 0 0 1 3.3 0c.5.2.9.5 1.1 1 .3.5.4 1 .4 1.5Zm-3.1-1.6c-.4 0-.7.2-1 .4-.3.2-.4.5-.5 1h2.9c0-.5-.2-.8-.4-1-.3-.2-.6-.4-1-.4Zm7.4.3h5.6v1.5h-5.6V49Zm17.8-3.7v8.8h-.6l-5-5.3V54H305v-8.7h.5l5 5.2v-5h1.8Zm7.7 5c0 .3 0 .6-.2 1h-4.5c.1.4.3.7.7 1l1.1.2c.7 0 1.3-.2 1.8-.6l.8 1.2a3.9 3.9 0 0 1-4.4.5 3.3 3.3 0 0 1-1.7-3A3.3 3.3 0 0 1 315 48a3.4 3.4 0 0 1 3.3 0c.5.2.8.5 1 1 .3.5.5 1 .5 1.5Zm-3.1-1.6c-.4 0-.7.2-1 .4-.3.2-.5.5-.6 1h3c0-.5-.2-.8-.5-1-.2-.2-.6-.4-1-.4Zm8.1 5.2-1.3-2-1.4 2h-2l2.4-3.3-2.2-3.1h2l1.2 1.8 1.2-1.8h2l-2.3 3L327 54h-2Zm6.2-1.4h.8V54a5 5 0 0 1-1.2.2c-.8 0-1.5-.2-2-.6-.4-.4-.6-1-.6-1.9V49h-1v-1.4h1v-1.7h1.8v1.7h1.8V49h-1.8v2.6c0 .3 0 .6.2.8l1 .2Zm9-2V54h-1.8v-3.4l-3-5.2h2l2 3.4 1.8-3.4h2l-3 5.2Zm8.9-.2-.1 1h-4.5c0 .4.3.7.6 1l1.2.2c.6 0 1.2-.2 1.8-.6l.7 1.2a3.9 3.9 0 0 1-4.4.5 3.3 3.3 0 0 1-1.7-3 3.4 3.4 0 0 1 1.6-2.8 3.4 3.4 0 0 1 3.3 0c.5.2.8.5 1 1 .4.5.5 1 .5 1.5Zm-3.1-1.6c-.4 0-.7.2-1 .4-.3.2-.5.5-.5 1h2.9c0-.5-.2-.8-.4-1-.3-.2-.6-.4-1-.4Zm7-1.4c.8 0 1.5.3 2 .7.5.5.7 1.2.7 2V54H354v-.6c-.2.2-.5.4-.9.5-.3.2-.7.3-1 .3-.7 0-1.3-.2-1.7-.6-.4-.3-.6-.8-.6-1.4 0-.5.2-1 .7-1.3.4-.4 1-.5 1.7-.5h1.7V50c0-.4-.1-.7-.4-.9-.2-.2-.4-.3-.8-.3s-.7.1-1 .3l-.7.6-1-1c.8-1 1.7-1.4 2.9-1.4Zm-.4 5.5c.4 0 .7-.1 1-.4.2-.2.4-.5.4-1h-1.4c-.3 0-.5 0-.7.2l-.2.5c0 .2 0 .4.2.5l.7.2Zm8-5.4h.6v1.6h-.4c-.6 0-1 .2-1.3.4-.3.3-.5.7-.5 1.3V54h-1.7v-6.4h1.6v.7a2.2 2.2 0 0 1 1.8-.8Z" fill="#475569"/></g><defs><filter id="a" x="0" y="0" width="738" height="476" filterUnits="userSpaceOnUse" color-interpolation-filters="sRGB"><feFlood flood-opacity="0" result="BackgroundImageFix"/><feColorMatrix in="SourceAlpha" values="0 0 0 0 0 0 0 0 0 0 0 0 0 0 0 0 0 0 127 0" result="hardAlpha"/><feOffset dx="8" dy="8"/><feComposite in2="hardAlpha" operator="out"/><feColorMatrix values="0 0 0 0 0.886275 0 0 0 0 0.909804 0 0 0 0 0.941176 0 0 0 1 0"/><feBlend in2="BackgroundImageFix" result="effect1_dropShadow_903_25365"/><feBlend in="SourceGraphic" in2="effect1_dropShadow_903_25365" result="shape"/></filter></defs></svg>