<svg fill="none" xmlns="http://www.w3.org/2000/svg" viewBox="0 0 738 432"><g filter="url(#a)"><rect x="1" y="1" width="572" height="422" rx="11" fill="#fff" stroke="#E2E8F0" stroke-width="2"/><path d="M46.6 49c.5.2.9.5 1.2.9.3.4.4.8.4 1.4a2.6 2.6 0 0 1-1.5 2.4c-.4.2-1 .3-1.5.3H41v-9.2h3.2c.6 0 1.1 0 1.6.3a2.4 2.4 0 0 1 1.4 2.2c0 .7-.3 1.3-.7 1.7Zm-3.7-2.6v2.1h1.3c.4 0 .7-.1.9-.3.2-.2.3-.4.3-.8a1 1 0 0 0-.3-.7c-.2-.2-.5-.3-1-.3H43Zm2.1 6c.5 0 .8-.1 1-.3.2-.2.4-.5.4-.9a1 1 0 0 0-.4-.8c-.2-.2-.5-.3-1-.3H43v2.3H45Zm8.1-5.4h.6v1.7h-.5a2 2 0 0 0-1.3.5c-.3.3-.5.7-.5 1.3V54h-2v-7h1.8v.9a2.4 2.4 0 0 1 2-1Zm8 3.1v1h-5c.2.5.4.9.7 1 .4.3.8.4 1.3.4.7 0 1.3-.2 2-.7l.7 1.3a4.2 4.2 0 0 1-4.7.6 3.5 3.5 0 0 1-1.8-3.2 3.6 3.6 0 0 1 1.7-3.1 3.7 3.7 0 0 1 3.6 0c.5.2.8.6 1.1 1.1.3.5.4 1 .4 1.6Zm-3.3-1.7c-.4 0-.7.2-1 .4-.3.3-.5.6-.6 1h3.1c0-.4-.2-.7-.4-1-.3-.2-.7-.4-1-.4Zm7.5-1.5c1 0 1.6.3 2.2.8.5.5.8 1.2.8 2.2V54h-1.8v-.7c-.2.3-.5.5-.9.6a3 3 0 0 1-1.2.3c-.7 0-1.3-.2-1.7-.6A2 2 0 0 1 62 52c0-.6.3-1.1.7-1.5a3 3 0 0 1 2-.5h1.7v-.3c0-.4-.1-.7-.3-1l-1-.2c-.3 0-.7 0-1 .2l-.8.7-1-1.2c.8-1 1.8-1.4 3-1.4Zm-.4 5.9c.4 0 .8-.1 1-.4.4-.3.5-.6.5-1h-1.5l-.7.1c-.2.1-.3.3-.3.5 0 .3.1.4.3.6l.7.2Zm9.7 1.2L72 50.2V54h-2V43.5h2V50l2.4-3h2.3L74 50.2l2.8 3.9h-2.2Zm9.7-10.5V54h-1.7v-.9c-.3.4-.6.6-1 .8a3 3 0 0 1-1.2.3 3.3 3.3 0 0 1-3-1.8 4 4 0 0 1-.4-1.9c0-.6.1-1.3.4-1.8a3.2 3.2 0 0 1 3-1.8c.8 0 1.5.3 2 .8v-4.2h2Zm-3.6 9c.5 0 .9-.2 1.2-.5.4-.4.6-.8.6-1.5 0-.6-.2-1-.6-1.4-.3-.3-.7-.5-1.2-.5s-1 .2-1.3.6c-.3.3-.5.8-.5 1.3 0 .6.2 1 .5 1.4.4.4.8.5 1.3.5Zm8.7 1.7c-.7 0-1.4-.2-2-.5a3.6 3.6 0 0 1-1.8-3.1c0-.7.2-1.3.5-1.9.4-.6.8-1 1.4-1.3.6-.3 1.2-.5 1.9-.5a3.7 3.7 0 0 1 3.7 3.6c0 .7-.2 1.3-.5 1.9-.3.5-.8 1-1.4 1.3-.5.3-1.2.5-1.8.5Zm0-1.8c.5 0 1-.2 1.2-.5.4-.4.6-.8.6-1.4 0-.5-.2-1-.6-1.3-.3-.4-.7-.6-1.2-.6-.6 0-1 .2-1.3.6-.4.3-.5.8-.5 1.3 0 .6.1 1 .5 1.4.3.3.7.5 1.3.5Zm15.6-5.3-3.2 7h-.6l-2-4-2 4h-.6l-3.2-7h2l1.6 4 1.9-4.2h.6l2 4 1.6-3.8h2Zm4.8-.2c.8 0 1.4.3 1.9.8s.7 1.2.7 2V54h-1.9v-4c0-.4-.1-.8-.4-1-.2-.3-.5-.4-.9-.4s-.7.1-1 .4c-.2.2-.3.6-.3 1v4H106v-7h1.8v.7l.8-.6 1.2-.2Zm11.4 7.3c-.7 0-1.4-.2-2-.5a3.6 3.6 0 0 1-1.8-3.1c0-.7.2-1.3.5-1.9.4-.6.8-1 1.4-1.3.6-.3 1.2-.5 1.9-.5a3.7 3.7 0 0 1 3.7 3.6c0 .7-.2 1.3-.5 1.9-.3.5-.8 1-1.4 1.3-.5.3-1.2.5-1.8.5Zm0-1.8c.5 0 1-.2 1.2-.5.4-.4.6-.8.6-1.4 0-.5-.2-1-.6-1.3-.3-.4-.7-.6-1.2-.6-.6 0-1 .2-1.3.6-.4.3-.5.8-.5 1.3 0 .6.1 1 .5 1.4.3.3.7.5 1.3.5Zm8.5-7.4c-.4 0-.7.1-1 .3-.2.1-.3.4-.3.8v1h1.6v1.6h-1.6V54h-1.9v-5.3h-1V47h1v-1.2c0-.8.3-1.5.8-2 .4-.3 1-.6 2-.6.3 0 .6 0 1 .2V45h-.6Zm4.7-.2h3.4c.7 0 1.2 0 1.8.3.5.3.8.6 1.1 1 .3.5.5 1 .5 1.6a2.9 2.9 0 0 1-1.6 2.7c-.6.2-1.1.3-1.8.3h-1.6V54h-1.8v-9.2Zm3.4 4.3c.5 0 .8-.1 1-.4.3-.2.4-.6.4-1s0-.7-.3-1c-.3-.2-.6-.3-1-.3h-1.7v2.7h1.6ZM146 47h.7v1.7h-.5a2 2 0 0 0-1.4.5c-.3.3-.5.7-.5 1.3V54h-1.9v-7h1.7v.9a2.4 2.4 0 0 1 2-1Zm4.9 7.2c-.7 0-1.3-.2-2-.5a3.7 3.7 0 0 1-1.7-3.2c0-.6.1-1.2.5-1.8.3-.6.7-1 1.3-1.3.6-.3 1.2-.5 1.9-.5a3.7 3.7 0 0 1 3.7 3.6c0 .7-.2 1.3-.5 1.9-.3.5-.8 1-1.4 1.3-.5.3-1.2.5-1.8.5Zm0-1.8c.5 0 1-.2 1.2-.5.4-.4.6-.8.6-1.4 0-.5-.2-1-.6-1.3-.3-.4-.7-.6-1.2-.6s-1 .2-1.3.6c-.3.3-.5.8-.5 1.3 0 .6.2 1 .5 1.4.3.3.8.5 1.3.5ZM164 47c.8 0 1.4.3 2 .8.4.5.6 1.2.6 2V54h-1.9v-4c0-.4 0-.8-.3-1-.2-.3-.5-.4-1-.4-.3 0-.6.1-.8.4-.3.2-.4.5-.4 1v4h-1.9v-4c0-.4 0-.8-.3-1-.2-.3-.5-.4-.9-.4s-.7.1-1 .4c-.2.2-.3.6-.3 1v4H156v-7h1.8v.7c.2-.3.5-.4.8-.6l1.1-.2c1 0 1.6.3 2 1l1-.7 1.4-.3Zm7.6 7.3a3.7 3.7 0 0 1-3.7-3.6c0-.7.1-1.3.5-1.9.3-.6.7-1 1.3-1.3.6-.3 1.2-.5 1.9-.5a3.7 3.7 0 0 1 3.7 3.6 3.6 3.6 0 0 1-1.9 3.1c-.5.4-1.1.6-1.8.6Zm0-1.8c.5 0 1-.2 1.3-.5.3-.4.5-.8.5-1.4 0-.5-.2-1-.5-1.3-.4-.4-.8-.6-1.3-.6s-1 .2-1.3.6c-.3.3-.5.8-.5 1.3 0 .6.2 1 .5 1.4.3.3.8.5 1.3.5Zm8.6 0h1V54l-1.4.2a3 3 0 0 1-2-.7c-.5-.4-.8-1-.8-2v-2.8h-1V47h1v-1.8h2v1.8h1.9v1.6h-2v2.7c0 .4.1.7.3.8.2.2.6.3 1 .3Zm2.1-5.3h2V54h-2v-7Zm1-1.4c-.4 0-.6-.1-.9-.3-.2-.2-.3-.5-.3-.9 0-.3 0-.6.3-.8.3-.2.5-.3.9-.3.3 0 .6 0 .8.3.3.2.4.5.4.8 0 .4-.1.7-.4.9-.2.2-.5.3-.8.3Zm6 8.5c-.7 0-1.3-.2-2-.5-.5-.3-1-.8-1.2-1.3-.4-.6-.5-1.2-.5-1.9 0-.6.1-1.2.5-1.8.3-.6.7-1 1.3-1.3.6-.3 1.2-.5 1.9-.5a3.7 3.7 0 0 1 3.7 3.6c0 .7-.2 1.3-.5 1.9-.3.5-.8 1-1.4 1.3-.5.3-1.2.5-1.8.5Zm0-1.8c.5 0 1-.2 1.3-.5.3-.4.5-.8.5-1.4 0-.5-.2-1-.5-1.3-.4-.4-.8-.6-1.3-.6s-1 .2-1.3.6c-.3.3-.5.8-.5 1.3 0 .6.2 1 .5 1.4.3.3.8.5 1.3.5ZM198 47c.8 0 1.4.3 2 .8.4.5.6 1.2.6 2V54h-1.9v-4c0-.4 0-.8-.3-1-.3-.3-.6-.4-1-.4-.3 0-.7.1-1 .4-.2.2-.3.6-.3 1v4h-1.9v-7h1.8v.7l.9-.6 1.1-.2Zm11.4 7.3a3.7 3.7 0 0 1-3.2-1.8c-.4-.6-.5-1.2-.5-1.9 0-.6.1-1.2.5-1.8.3-.6.7-1 1.3-1.3.6-.3 1.2-.5 1.9-.5a3.7 3.7 0 0 1 3.7 3.6c0 .7-.2 1.3-.5 1.9-.3.5-.8 1-1.4 1.3-.5.3-1.1.5-1.8.5Zm0-1.8c.5 0 1-.2 1.3-.5.3-.4.5-.8.5-1.4 0-.5-.2-1-.5-1.3-.4-.4-.8-.6-1.3-.6s-1 .2-1.3.6c-.3.3-.5.8-.5 1.3 0 .6.2 1 .5 1.4.3.3.8.5 1.3.5ZM218 45c-.4 0-.7.1-1 .3l-.2.8v1h1.5v1.6h-1.5V54h-2v-5.3h-1V47h1v-1.2c0-.8.3-1.5.8-2 .5-.3 1.1-.6 2-.6.3 0 .7 0 1 .2V45h-.6Zm4.7-.2h6.2v1.7h-4.3v1.8h3.1V50h-3.1v2.3h4.5V54h-6.4v-9.2Zm14 2.3-3.4 7h-.6l-3.5-7h2L233 51l1.7-4h2Zm7.2 3-.1 1h-4.9c.1.5.4.9.7 1 .3.3.8.4 1.3.4.7 0 1.3-.2 2-.7l.7 1.3a4.2 4.2 0 0 1-4.7.6 3.5 3.5 0 0 1-1.9-3.2 3.6 3.6 0 0 1 1.8-3.1 3.7 3.7 0 0 1 3.5 0c.5.2 1 .6 1.2 1.1.3.5.4 1 .4 1.6Zm-3.3-1.7c-.4 0-.8.2-1 .4-.4.3-.6.6-.7 1h3.2c0-.4-.2-.7-.5-1-.3-.2-.6-.4-1-.4ZM249 47c.8 0 1.5.3 2 .8.4.5.6 1.2.6 2V54h-1.9v-4c0-.4 0-.8-.3-1-.3-.3-.6-.4-1-.4-.3 0-.6.1-.9.4-.2.2-.4.6-.4 1v4h-1.8v-7h1.7v.7l.9-.6 1.1-.2Zm7.9 5.6h.9V54l-1.3.2a3 3 0 0 1-2-.7c-.6-.4-.8-1-.8-2v-2.8h-1.1V47h1v-1.8h2v1.8h2v1.6h-2v2.7c0 .4 0 .7.3.8.2.2.5.3 1 .3Zm4.3 1.7c-.6 0-1.1-.1-1.6-.4-.5-.2-1-.6-1.2-1l1-1.1c.5.6 1.2 1 1.9 1l.6-.2c.2-.1.2-.3.2-.5l-.1-.3-.6-.3-.7-.3c-.7-.3-1.1-.5-1.4-.9-.4-.3-.5-.7-.5-1.2 0-.7.2-1.2.7-1.5a3 3 0 0 1 1.8-.6c1 0 1.9.4 2.5 1l-1 1.2c-.4-.4-1-.6-1.5-.6a1 1 0 0 0-.5 0l-.2.4.1.4.6.3.7.2c.7.3 1.1.6 1.5 1 .3.2.4.6.4 1.2a2 2 0 0 1-.7 1.6 3 3 0 0 1-2 .6Zm13.6-.2-2.4-3.3H271V54h-1.9v-9.2h3.5c.6 0 1.2 0 1.7.3s1 .6 1.2 1c.3.5.4 1 .4 1.6a2.9 2.9 0 0 1-1.6 2.7L277 54h-2.1Zm-3.8-5h1.6c.4 0 .8 0 1-.3.3-.2.4-.6.4-1s-.1-.7-.4-1c-.2-.2-.6-.3-1-.3H271v2.7Zm9.5-2c1 0 1.6.2 2.2.7.5.5.8 1.2.8 2.2V54h-1.7v-.7c-.3.3-.6.5-1 .6a3 3 0 0 1-1.2.3c-.7 0-1.3-.2-1.7-.6a2 2 0 0 1-.7-1.5c0-.6.3-1.1.7-1.5a3 3 0 0 1 2-.5h1.7v-.3c0-.4-.1-.7-.3-1l-1-.2c-.3 0-.7 0-1 .2l-.8.7-1-1.2c.8-1 1.8-1.4 3-1.4Zm-.4 5.8c.5 0 .8-.1 1-.4.4-.3.5-.6.5-1h-1.5l-.7.1c-.2.1-.3.3-.3.5 0 .3.1.4.3.6l.7.2Zm8.6-.3h1V54l-1.4.2a3 3 0 0 1-2-.7c-.5-.4-.8-1-.8-2v-2.8h-1V47h1v-1.8h2v1.8h1.9v1.6h-2v2.7c0 .4.1.7.3.8.2.2.6.3 1 .3Zm8.5-2.4-.1 1h-4.9c.1.5.4.9.7 1 .3.3.8.4 1.3.4.7 0 1.3-.2 1.9-.7l.8 1.3a4.2 4.2 0 0 1-4.7.6 3.5 3.5 0 0 1-1.9-3.2 3.6 3.6 0 0 1 1.8-3.1 3.7 3.7 0 0 1 3.5 0c.5.2 1 .6 1.2 1.1.3.5.4 1 .4 1.6Zm-3.3-1.7c-.4 0-.8.2-1 .4-.4.3-.6.6-.7 1h3.2c0-.4-.2-.7-.5-1-.3-.2-.6-.4-1-.4Z" fill="#475569"/><path fill-rule="evenodd" clip-rule="evenodd" d="M72 362.1V69.8h1v292.3h-1ZM149 362.1V69.8h1v292.3h-1ZM302 362.1V69.8h1v292.3h-1ZM455 362.1V69.8h1v292.3h-1Z" fill="#E2E8F0"/><path d="M40 124.5a5 5 0 0 1 4.9-5h20.2a5 5 0 0 1 4.9 5 5 5 0 0 1-4.9 5H44.9a5 5 0 0 1-4.9-5ZM58 379c0-2.7 2.1-5 4.7-5h19.6c2.6 0 4.7 2.3 4.7 5 0 2.8-2.1 5-4.7 5H62.7a4.9 4.9 0 0 1-4.7-5ZM134 379a5 5 0 0 1 4.9-5h20.2a5 5 0 0 1 4.9 5 5 5 0 0 1-4.9 5h-20.2a5 5 0 0 1-4.9-5ZM211 379a5 5 0 0 1 4.9-5h20.2a5 5 0 0 1 4.9 5 5 5 0 0 1-4.9 5h-20.2a5 5 0 0 1-4.9-5ZM288 379c0-2.7 2.1-5 4.7-5h19.6c2.6 0 4.7 2.3 4.7 5 0 2.8-2.1 5-4.7 5h-19.6a4.9 4.9 0 0 1-4.7-5ZM365 379c0-2.7 2.1-5 4.7-5h19.6c2.6 0 4.7 2.3 4.7 5 0 2.8-2.1 5-4.7 5h-19.6a4.9 4.9 0 0 1-4.7-5ZM441 379a5 5 0 0 1 4.9-5h20.2a5 5 0 0 1 4.9 5 5 5 0 0 1-4.9 5h-20.2a5 5 0 0 1-4.9-5ZM40 211a5 5 0 0 1 4.9-5h20.2a5 5 0 0 1 4.9 5 5 5 0 0 1-4.9 5H44.9a5 5 0 0 1-4.9-5ZM40 298c0-2.5 2.2-4.5 4.9-4.5h20.2c2.7 0 4.9 2 4.9 4.5s-2.2 4.5-4.9 4.5H44.9c-2.7 0-4.9-2-4.9-4.5Z" fill="#E2E8F0"/><path d="M73 94.7h361v29.8H73V94.7ZM73 181.2h250V211H73v-29.8ZM73 268.7h167v29.8H73v-29.8Z" fill="#02A9F7"/><path d="M73 124.5h119v29.8H73v-29.8ZM73 211h37v29.8H73V211ZM73 298.5h250v29.8H73v-29.8Z" fill="#9576D2"/><path d="M513.1 63H720c2.6 0 4.9.8 6.5 2 1.7 1.2 2.6 2.8 2.6 4.4v119.8c0 1.6-1 3.2-2.6 4.4-1.6 1.2-4 2-6.5 2H513c-2.6 0-4.9-.8-6.5-2-1.7-1.2-2.6-2.8-2.6-4.4V69.4c0-1.6 1-3.2 2.6-4.4 1.6-1.2 4-2 6.5-2Z" fill="#fff" stroke="#E2E8F0" stroke-width="2"/><path d="M528 90.2c-.8 0-1.6-.2-2.3-.6a4.4 4.4 0 0 1-2.2-3.9 4.4 4.4 0 0 1 2.3-3.9 4.7 4.7 0 0 1 4.5 0 4 4 0 0 1 1.6 1.6l-1.4 1c-.6-1-1.4-1.5-2.4-1.5-.6 0-1 .1-1.5.4-.4.2-.7.5-1 1a3 3 0 0 0-.3 1.4c0 .6.1 1 .4 1.5.2.4.5.7 1 1a3 3 0 0 0 3.8-1.1l1.4 1a4 4 0 0 1-1.6 1.5c-.7.4-1.4.6-2.2.6Zm8 0c-.6 0-1.2-.2-1.7-.5s-1-.7-1.2-1.2a3.3 3.3 0 0 1 0-3.4c.3-.5.7-1 1.2-1.2.5-.3 1.1-.5 1.8-.5a3.4 3.4 0 0 1 3.4 3.4c0 .6-.1 1.2-.5 1.7-.3.5-.7.9-1.2 1.2-.5.3-1.1.4-1.8.4Zm0-1.7c.5 0 1-.1 1.2-.5.4-.3.5-.7.5-1.2s-.1-1-.5-1.3a1.6 1.6 0 0 0-2.4 0c-.3.4-.4.8-.4 1.3s.1 1 .5 1.2c.3.4.7.5 1.2.5Zm12.2-5c.8 0 1.4.2 1.8.6.5.5.7 1.1.7 2V90h-1.8v-3.7c0-.4 0-.7-.3-1a1 1 0 0 0-.8-.3c-.4 0-.7.1-.9.3-.2.3-.3.6-.3 1V90h-1.8v-3.7c0-.4 0-.7-.3-1a1 1 0 0 0-.8-.3c-.4 0-.7.1-.9.3-.2.3-.3.6-.3 1V90h-1.8v-6.4h1.7v.5c.2-.2.4-.4.8-.5l1-.2c.8 0 1.5.3 1.9 1 .2-.3.6-.6 1-.7a3 3 0 0 1 1.1-.3Zm7.7 0a3 3 0 0 1 1.6.4c.5.3.8.6 1.1 1.2.3.5.4 1 .4 1.7 0 .6-.1 1.2-.4 1.7a3 3 0 0 1-3.8 1.5l-.8-.6v3h-1.8v-8.8h1.6v.8c.2-.3.5-.6.9-.7.3-.2.7-.3 1.2-.3Zm-.3 5c.4 0 .8-.1 1.1-.4.4-.4.5-.8.5-1.3s-.1-1-.5-1.3c-.3-.3-.7-.5-1.1-.5-.5 0-.9.2-1.2.5-.3.3-.5.7-.5 1.3 0 .5.2 1 .5 1.3.3.3.7.5 1.2.5Zm7.3-5c.8 0 1.5.2 2 .6.5.5.8 1.2.8 2V90H564v-.6l-.8.5c-.3.2-.7.3-1.1.3-.7 0-1.3-.2-1.6-.6-.4-.3-.6-.8-.6-1.4 0-.5.2-1 .6-1.3.4-.4 1-.5 1.8-.5h1.6V86c0-.4-.1-.7-.3-.9-.2-.2-.5-.3-.9-.3l-.9.3-.8.6-1-1c.8-1 1.8-1.4 2.9-1.4Zm-.4 5.4c.4 0 .7-.1 1-.4.3-.2.4-.5.4-1h-1.4c-.3 0-.5 0-.6.2-.2 0-.3.3-.3.5s.1.4.3.5l.6.2Zm8-5.4h.7v1.6h-.5c-.5 0-1 .2-1.3.4-.3.3-.4.7-.4 1.3V90h-1.8v-6.4h1.6v.7a2.3 2.3 0 0 1 1.8-.8Zm7.5 3v.9h-4.6c.1.4.3.7.6 1l1.2.2c.6 0 1.2-.2 1.8-.6l.7 1.2a3.9 3.9 0 0 1-4.4.5 3.3 3.3 0 0 1-1.7-3 3.4 3.4 0 0 1 1.7-2.8 3.4 3.4 0 0 1 3.3 0c.4.2.8.5 1 1 .3.5.4 1 .4 1.5Zm-3-1.7c-.4 0-.8.2-1 .4-.3.2-.5.5-.6 1h3c0-.5-.2-.8-.5-1-.3-.2-.6-.4-1-.4Zm11 3.8h1V90a5 5 0 0 1-1.3.2c-.8 0-1.4-.2-1.9-.6-.4-.4-.7-1-.7-1.9V85h-1v-1.4h1v-1.7h1.8v1.7h1.8V85h-1.8v2.6c0 .3 0 .6.3.8l.9.2Zm5 1.5c-.6 0-1.2-.1-1.7-.4a3.4 3.4 0 0 1-1.7-3c0-.5.1-1.1.4-1.6.3-.5.7-1 1.3-1.2.5-.3 1-.5 1.7-.5a3.4 3.4 0 0 1 3.5 3.4c0 .6-.2 1.2-.5 1.7s-.7.9-1.3 1.2c-.5.3-1 .4-1.7.4Zm0-1.6c.5 0 .9-.1 1.2-.5.3-.3.5-.7.5-1.2s-.2-1-.5-1.3c-.3-.3-.7-.5-1.2-.5s-.9.2-1.2.5c-.3.4-.5.8-.5 1.3s.2 1 .5 1.2c.3.4.7.5 1.2.5Z" fill="#475569"/><path d="M528 122.2c-.8 0-1.5-.2-2.2-.6a4.4 4.4 0 0 1 2.3-8.3 4.3 4.3 0 0 1 3.6 1.8l-1.3 1a2.8 2.8 0 0 0-2.3-1.2c-.6 0-1 .1-1.5.4-.4.2-.7.5-1 1a3 3 0 0 0-.3 1.4c0 .6.1 1 .4 1.5a2.7 2.7 0 0 0 2.5 1.4c.5 0 .9-.1 1.3-.3l1-.8v-.7H528v-1.5h4v2.5c-.3.7-.9 1.3-1.6 1.7-.7.4-1.5.7-2.4.7Zm8.8-6.7h.6v1.6h-.5c-.5 0-1 .2-1.2.4-.3.3-.5.7-.5 1.3v3.2h-1.7v-6.4h1.6v.7a2.3 2.3 0 0 1 1.7-.8Zm4.5 6.6c-.6 0-1.2-.1-1.7-.4a3.4 3.4 0 0 1-1.7-3c0-.5.1-1.1.4-1.6.3-.5.7-1 1.3-1.2.5-.3 1-.5 1.7-.5a3.4 3.4 0 0 1 3.5 3.4c0 .6-.2 1.2-.5 1.7s-.7.9-1.3 1.2c-.5.3-1 .4-1.7.4Zm0-1.6c.5 0 .9-.1 1.2-.5.3-.3.5-.7.5-1.2s-.2-1-.5-1.3c-.3-.3-.7-.5-1.2-.5s-.9.2-1.2.5c-.3.4-.4.8-.4 1.3s.1 1 .4 1.2c.3.4.7.5 1.2.5Zm7.6 1.7c-.5 0-1-.2-1.5-.4-.5-.3-.8-.6-1-1-.3-.5-.4-1-.4-1.6v-3.6h1.7v3.7c0 .4.1.7.3 1l1 .2c.3 0 .5 0 .8-.3.2-.2.3-.5.3-.9v-3.7h1.8v3.6a3 3 0 0 1-.4 1.5c-.3.5-.6.8-1 1-.5.3-1 .5-1.6.5Zm8.2-6.8a3 3 0 0 1 1.6.5c.5.3.9.6 1.1 1.2.3.5.4 1 .4 1.7 0 .6-.1 1.2-.4 1.7a3 3 0 0 1-2.7 1.7 3 3 0 0 1-1-.2l-1-.6v3h-1.7v-8.8h1.6v.8c.3-.3.5-.6.9-.7l1.2-.3Zm-.3 5.2c.4 0 .8-.2 1.2-.5.3-.4.4-.8.4-1.3s-.1-1-.4-1.3c-.3-.3-.7-.5-1.2-.5s-.8.2-1.2.5c-.3.3-.4.7-.4 1.3 0 .5.1 1 .4 1.3.3.3.7.5 1.2.5Z" fill="#64748B"/><path d="M505 141h223v22H505v-22Z" fill="#F8FAFC"/><path fill-rule="evenodd" clip-rule="evenodd" d="M729.4 141.7H503.6v20.4h225.8v-20.4Zm-226.4-.5v21.5h227v-21.5H503Z" fill="#E2E8F0"/><path d="M505 162h223v21H505v-21Z" fill="#F8FAFC"/><path fill-rule="evenodd" clip-rule="evenodd" d="M729.4 162.1H503.6v20.4h225.8V162Zm-226.4-.6V183h227v-21.5H503Z" fill="#E2E8F0"/><path fill-rule="evenodd" clip-rule="evenodd" d="M706.4 155.7a.5.5 0 0 1 0-.7l2.2-2.5-2.2-2.6a.5.5 0 0 1 0-.7c.2-.2.4-.2.6 0l2.5 3 .2.3c0 .1 0 .2-.2.3l-2.5 3h-.6ZM706.4 175a.5.5 0 0 1 0-.7l2.2-2.6-2.2-2.6a.5.5 0 0 1 0-.6c.2-.2.4-.2.6 0l2.5 2.9.2.3c0 .1 0 .3-.2.4L707 175c-.2.2-.4.2-.6 0Z" fill="#64748B"/><path d="M527.7 156.1a4.2 4.2 0 0 1-3.7-2 4 4 0 0 1-.5-2c0-.8.1-1.5.5-2.1a4.2 4.2 0 0 1 3.6-2 4.2 4.2 0 0 1 3.7 2c.4.6.6 1.3.6 2a4 4 0 0 1-2.1 3.6c-.7.4-1.4.5-2.1.5Zm0-1.5c.4 0 .9 0 1.3-.3.4-.2.7-.5.9-.9.2-.4.3-.9.3-1.4 0-.5-.1-.9-.3-1.3-.2-.4-.5-.7-1-1-.3-.2-.8-.3-1.2-.3-.5 0-1 .1-1.3.4-.4.2-.7.5-1 .9-.2.4-.3.8-.3 1.3s.1 1 .3 1.4l1 1 1.3.2Zm11-4.5-2.9 6h-.5l-3-6h1.7l1.5 3.3 1.5-3.3h1.7Zm6.2 2.6-.1.9h-4.2c.1.4.3.6.6.9.3.2.7.3 1 .3.7 0 1.2-.2 1.7-.6l.7 1a3.6 3.6 0 0 1-4 .5 3 3 0 0 1-1.6-2.7 3 3 0 0 1 1.5-2.7 3.2 3.2 0 0 1 3 0c.5.2.8.6 1 1 .3.4.4.9.4 1.4Zm-2.9-1.5c-.3 0-.6.1-.9.4l-.5.8h2.7c0-.3-.1-.6-.4-.8-.2-.3-.5-.4-.9-.4Zm7.2-1.2h.5v1.5h-.4c-.5 0-1 .1-1.2.4-.3.2-.4.6-.4 1.1v3H546v-6h1.5v.8a2 2 0 0 1 1.7-.8Zm3.7 0c.8 0 1.4.1 1.8.6.5.4.7 1 .7 1.9v3.5H554v-.6l-.7.6-1 .1c-.7 0-1.2-.1-1.6-.4-.3-.4-.5-.8-.5-1.3 0-.6.2-1 .6-1.3.4-.3 1-.5 1.6-.5h1.5v-.2a1 1 0 0 0-.3-.8c-.2-.2-.4-.3-.8-.3l-.8.2a3 3 0 0 0-.8.6l-.8-1c.7-.8 1.5-1.2 2.6-1.2Zm-.3 5c.3 0 .6-.2.9-.4.2-.2.3-.5.3-.8h-1.3a1 1 0 0 0-.6 0l-.2.5c0 .2 0 .4.2.5l.7.2Zm4.3-8h1.6v9h-1.6v-9Zm3 0h1.7v9H560v-9ZM524 169h5.2v1.5h-3.7v1.7h2.8v1.3h-2.8v2h3.9v1.5h-5.5v-8Zm13.5 2c.7 0 1.2.1 1.6.6.4.4.6 1 .6 1.7v3.7h-1.6v-3.5c0-.3-.1-.6-.3-.8a1 1 0 0 0-.8-.3 1 1 0 0 0-.7.3c-.2.2-.3.5-.3.8v3.5h-1.7v-3.5c0-.3 0-.6-.3-.8a1 1 0 0 0-.7-.3 1 1 0 0 0-.8.3c-.2.2-.3.5-.3.8v3.5h-1.6v-6h1.5v.6l.7-.5 1-.2c.7 0 1.3.3 1.7.9.2-.3.5-.5.8-.6l1.2-.3Zm7 0c.6 0 1 0 1.5.3s.8.7 1 1.1c.3.5.4 1 .4 1.6 0 .6-.1 1.1-.4 1.6-.2.5-.5.9-1 1.1-.4.3-1 .4-1.5.4l-1-.1-.7-.6v2.8H541V171h1.5v.7c.2-.3.5-.5.8-.6.4-.2.7-.3 1.1-.3Zm-.3 4.7c.5 0 .8-.2 1.1-.5.3-.3.5-.7.5-1.2s-.2-.9-.5-1.2c-.3-.3-.6-.4-1-.4-.5 0-.8.1-1.1.4-.3.3-.5.7-.5 1.2 0 .6.2 1 .5 1.2.3.3.6.5 1 .5Zm4.4-7.7h1.6v9h-1.6v-9Zm5.9 9.1c-.6 0-1.1-.1-1.6-.4-.5-.3-.9-.6-1.1-1.1a3 3 0 0 1-.5-1.6c0-.5.2-1 .5-1.5a3 3 0 0 1 1.1-1.2c.5-.2 1-.4 1.6-.4a3.2 3.2 0 0 1 3.2 3.1c0 .6-.1 1.1-.4 1.6a3 3 0 0 1-1.2 1.1c-.5.3-1 .4-1.6.4Zm0-1.5c.5 0 .8-.1 1.1-.4.3-.3.5-.7.5-1.2 0-.4-.2-.8-.5-1.1-.3-.3-.6-.5-1-.5-.5 0-.9.2-1.2.5-.3.3-.4.7-.4 1.1 0 .5.1.9.4 1.2.3.3.7.4 1.1.4Zm10-4.5-2.8 6.4c-.3.6-.6 1-1 1.4-.4.3-.9.4-1.4.4a4 4 0 0 1-1-.1v-1.4h.6l.8-.1c.2-.1.3-.3.5-.7l.2-.4-2.3-5.5h1.7l1.4 3.9 1.6-4h1.7Zm6.2 2.6c0 .3 0 .6-.2.9h-4.1c0 .4.3.6.6.9.3.2.6.3 1 .3.6 0 1.2-.2 1.7-.6l.7 1a3.6 3.6 0 0 1-4 .5 3 3 0 0 1-1.7-2.7 3 3 0 0 1 1.6-2.7 3.2 3.2 0 0 1 3 0 2.7 2.7 0 0 1 1.3 2.4Zm-2.9-1.5c-.3 0-.6.1-.9.4-.3.2-.4.5-.5.8h2.7c0-.3-.2-.6-.4-.8-.3-.3-.6-.4-.9-.4Zm9.6 1.5-.1.9H573c0 .4.3.6.6.9.3.2.6.3 1 .3.6 0 1.2-.2 1.7-.6l.7 1a3.6 3.6 0 0 1-4 .5 3 3 0 0 1-1.6-2.7 3 3 0 0 1 1.5-2.7 3.2 3.2 0 0 1 3 0 2.7 2.7 0 0 1 1.3 2.4Zm-2.9-1.5c-.3 0-.6.1-.9.4l-.5.8h2.7c0-.3-.1-.6-.4-.8-.2-.3-.5-.4-.9-.4Zm12.7.7v.5l-5.5 2.4v-1.4l3-1.3-3-1.2v-1.4l5.5 2.4Zm4.5-3.8h5.2v1.4h-3.6v2h3v1.5h-3v3h-1.6v-8Zm11.5 4.6-.1.9h-4.2c0 .4.3.6.6.9.3.2.6.3 1 .3.6 0 1.2-.2 1.7-.6l.7 1a3.6 3.6 0 0 1-4 .5 3 3 0 0 1-1.6-2.7 3 3 0 0 1 1.5-2.7 3.2 3.2 0 0 1 3 0 2.7 2.7 0 0 1 1.3 2.4Zm-2.9-1.5c-.3 0-.6.1-.9.4l-.5.8h2.7c0-.3-.1-.6-.4-.8-.2-.3-.5-.4-.9-.4Zm11-1.3c.6 0 1.2.2 1.6.7.4.4.6 1 .6 1.7v3.7h-1.7v-3.5c0-.3 0-.6-.2-.8a1 1 0 0 0-.8-.3 1 1 0 0 0-.8.3c-.2.2-.3.5-.3.8v3.5h-1.6v-3.5c0-.3-.1-.6-.3-.8a1 1 0 0 0-.8-.3 1 1 0 0 0-.8.3c-.2.2-.3.5-.3.8v3.5h-1.6v-6h1.5v.6l.7-.5 1-.2c.8 0 1.4.3 1.7.9l.9-.6c.3-.2.7-.3 1.1-.3Zm6 0c.8 0 1.4.2 1.9.7.4.4.7 1 .7 1.9v3.5h-1.5v-.6l-.8.6-1 .1c-.7 0-1.2-.1-1.5-.4-.4-.4-.6-.8-.6-1.3 0-.6.2-1 .6-1.3.4-.3 1-.5 1.7-.5h1.5v-.2a1 1 0 0 0-.3-.8c-.2-.2-.5-.3-.9-.3l-.8.2a3 3 0 0 0-.7.6l-.9-1c.7-.8 1.6-1.2 2.6-1.2Zm-.3 5c.4 0 .6 0 .9-.3.2-.2.4-.5.4-.8H617a1 1 0 0 0-.6 0c-.2.2-.3.3-.3.5s.1.4.3.5l.6.2Zm4.3-7.9h1.6v9h-1.6v-9Zm8.7 5.7-.1.9h-4.2c.1.4.3.6.6.9.3.2.6.3 1 .3.7 0 1.2-.2 1.7-.6l.7 1a3.6 3.6 0 0 1-4 .5 3 3 0 0 1-1.6-2.7 3 3 0 0 1 1.5-2.7 3.2 3.2 0 0 1 3 0c.5.2.8.6 1 1 .3.4.4.9.4 1.4Zm-2.9-1.5c-.3 0-.6.1-.9.4l-.5.8h2.7c0-.3-.1-.6-.4-.8-.2-.3-.5-.4-.9-.4Z" fill="#64748B"/></g><defs><filter id="a" x="0" y="0" width="738" height="432" filterUnits="userSpaceOnUse" color-interpolation-filters="sRGB"><feFlood flood-opacity="0" result="BackgroundImageFix"/><feColorMatrix in="SourceAlpha" values="0 0 0 0 0 0 0 0 0 0 0 0 0 0 0 0 0 0 127 0" result="hardAlpha"/><feOffset dx="8" dy="8"/><feComposite in2="hardAlpha" operator="out"/><feColorMatrix values="0 0 0 0 0.886275 0 0 0 0 0.909804 0 0 0 0 0.941176 0 0 0 1 0"/><feBlend in2="BackgroundImageFix" result="effect1_dropShadow_903_28776"/><feBlend in="SourceGraphic" in2="effect1_dropShadow_903_28776" result="shape"/></filter></defs></svg>