<svg fill="none" xmlns="http://www.w3.org/2000/svg" viewBox="0 0 748 459"><g filter="url(#a)"><rect x="1.6" y="1.4" width="737" height="448" rx="11" fill="#fff" stroke="#E2E8F0" stroke-width="2"/></g><circle cx="58.6" cy="409.1" r="5.3" fill="#ABEBED"/><rect x="70.4" y="402.7" width="39.2" height="12.8" rx="6.4" fill="#E2E8F0"/><circle cx="137.8" cy="409.1" r="5.3" fill="#81E0E5"/><rect x="149.9" y="402.7" width="39.2" height="12.8" rx="6.4" fill="#E2E8F0"/><circle cx="207.3" cy="409.1" r="5.3" fill="#2DCCD3"/><rect x="219.6" y="402.7" width="39.2" height="12.8" rx="6.4" fill="#E2E8F0"/><circle cx="277" cy="409.1" r="5.3" fill="#24A3A9"/><rect x="288.4" y="402.7" width="39.2" height="12.8" rx="6.4" fill="#E2E8F0"/><circle cx="345.8" cy="409.1" r="5.3" fill="#1D8187"/><rect x="356.3" y="402.7" width="39.2" height="12.8" rx="6.4" fill="#E2E8F0"/><path d="M47.6 49.1c.5.2.9.5 1.2.9.3.4.4.8.4 1.4a2.6 2.6 0 0 1-1.5 2.4c-.4.2-1 .3-1.5.3H42V45h3.2c.6 0 1.1 0 1.5.3a2.4 2.4 0 0 1 1.5 2.3c0 .6-.3 1.2-.7 1.6Zm-3.7-2.6v2.1h1.3c.4 0 .7 0 .9-.3.2-.2.3-.4.3-.7a1 1 0 0 0-.3-.8c-.2-.2-.5-.3-1-.3H44Zm2.1 6c.4 0 .8-.1 1-.3.2-.2.4-.5.4-.9a1 1 0 0 0-.4-.8c-.2-.2-.6-.3-1-.3H44v2.3H46Zm8.1-5.4h.6V49h-.5a2 2 0 0 0-1.3.4c-.4.3-.5.8-.5 1.4V54h-2v-7h1.8v1a2.4 2.4 0 0 1 2-1Zm8 3.2v1h-5c.2.4.4.8.7 1 .4.2.8.4 1.3.4.7 0 1.3-.3 2-.7l.7 1.3a4.2 4.2 0 0 1-4.7.5 3.5 3.5 0 0 1-1.9-3.1 3.6 3.6 0 0 1 1.8-3.2 3.7 3.7 0 0 1 3.6 0c.5.2.8.6 1.1 1.1.3.5.4 1 .4 1.7Zm-3.3-1.7c-.4 0-.7 0-1 .3-.3.3-.5.6-.6 1h3.1c0-.4-.2-.7-.4-1-.3-.2-.7-.3-1.1-.3Zm7.5-1.6c1 0 1.6.3 2.2.8.5.5.8 1.2.8 2.2v4.1h-1.8v-.7c-.2.3-.5.5-.9.7a3 3 0 0 1-1.2.2c-.7 0-1.3-.2-1.7-.6a2 2 0 0 1-.7-1.5c0-.6.3-1.1.7-1.5a3 3 0 0 1 2-.5h1.7v-.3c0-.4-.1-.7-.3-1l-1-.2c-.4 0-.7 0-1 .2l-.8.7-1-1.1c.8-1 1.8-1.5 3-1.5ZM66 53c.4 0 .8-.1 1-.4.4-.2.5-.6.5-1h-1.5l-.7.1c-.2.1-.3.3-.3.5 0 .3.1.5.3.6l.7.2Zm9.7 1.2-2.8-3.8V54H71V43.6h1.8v6.5l2.5-3h2.3L75 50.4l2.8 3.8h-2.2Zm9.7-10.5v10.5h-1.7v-.8l-1 .7a3 3 0 0 1-1.3.3 3.3 3.3 0 0 1-3-1.8 4 4 0 0 1-.3-1.8c0-.7.1-1.4.4-1.9a3.2 3.2 0 0 1 3-1.8c.8 0 1.5.3 2 .9v-4.3h2Zm-3.6 9c.5 0 .9-.2 1.2-.5.4-.3.5-.8.5-1.4 0-.7-.1-1.1-.5-1.5-.3-.3-.7-.5-1.2-.5s-1 .2-1.3.6c-.3.3-.5.8-.5 1.3 0 .6.2 1 .5 1.4.4.4.8.6 1.3.6Zm8.6 1.7a3.7 3.7 0 0 1-3.2-1.8c-.3-.6-.4-1.2-.4-1.9 0-.6.1-1.2.4-1.8.4-.5.8-1 1.4-1.3.6-.3 1.2-.5 1.9-.5a3.7 3.7 0 0 1 3.7 3.6c0 .7-.2 1.3-.5 1.9-.3.5-.8 1-1.4 1.3-.5.3-1.2.5-1.9.5Zm0-1.8c.6 0 1-.1 1.3-.5.4-.4.6-.8.6-1.3 0-.6-.2-1-.6-1.4-.3-.4-.7-.5-1.2-.5-.6 0-1 .1-1.3.5-.4.4-.5.8-.5 1.4 0 .5.1 1 .5 1.3.3.4.7.5 1.3.5Zm15.7-5.3-3.2 7h-.6l-2-4-2 4h-.6l-3.2-7h2l1.6 4L100 47h.6l2 4 1.6-3.8h2Zm4.8-.2c.8 0 1.4.3 1.9.8s.7 1.2.7 2v4.3h-1.9v-4c0-.4-.1-.8-.4-1a1.3 1.3 0 0 0-1.9 0c-.2.2-.3.6-.3 1v4H107v-7h1.7v.7l1-.6 1-.2Zm11.4 7.3c-.7 0-1.4-.2-2-.5a3.6 3.6 0 0 1-1.8-3.1c0-.7.2-1.3.5-1.9.4-.5.8-1 1.4-1.3.6-.3 1.2-.5 1.9-.5a3.7 3.7 0 0 1 3.7 3.6c0 .7-.2 1.3-.5 1.9-.3.5-.8 1-1.4 1.3-.5.3-1.2.5-1.8.5Zm0-1.8c.5 0 .9-.1 1.2-.5.4-.4.6-.8.6-1.3 0-.6-.2-1-.6-1.4-.3-.4-.7-.5-1.2-.5-.6 0-1 .1-1.3.5-.4.4-.5.8-.5 1.4 0 .5.1 1 .5 1.3.3.4.7.5 1.3.5Zm8.5-7.4c-.4 0-.8.1-1 .3-.2.2-.3.4-.3.8v1h1.6v1.6h-1.6V54h-1.9v-5.3h-1v-1.6h1V46c0-1 .3-1.6.8-2 .4-.4 1-.6 2-.6l1 .1v1.6h-.6Zm7.6 9.2c-.8 0-1.5-.2-2.1-.6a4 4 0 0 1-1.5-1.5l1.3-1c.3.5.6.8 1 1 .3.3.8.4 1.3.4.4 0 .7 0 1-.3.2-.1.3-.4.3-.7 0-.3 0-.5-.3-.6a4 4 0 0 0-.9-.6l-1-.4a5 5 0 0 1-1.6-1.1c-.4-.4-.6-1-.6-1.6a2.4 2.4 0 0 1 1.5-2.3c.5-.2 1-.3 1.6-.3.7 0 1.3.2 1.8.5s1 .7 1.2 1.3l-1.3 1c-.5-.8-1-1.1-1.7-1.1-.4 0-.6 0-.9.2-.2.2-.3.4-.3.7 0 .2 0 .4.2.6l.9.5 1 .4A5 5 0 0 1 141 50c.3.4.5.9.5 1.5A2.6 2.6 0 0 1 140 54c-.5.2-1 .3-1.6.3Zm9.3-.2-2.8-3.8V54h-1.9V43.6h1.9v6.5l2.5-3h2.2l-2.6 3.2 2.8 3.8h-2.1Zm3-7h1.9v7h-1.9v-7Zm1-1.3c-.4 0-.7 0-1-.3-.1-.2-.3-.5-.3-.8 0-.4.2-.6.4-.9.2-.2.5-.3.8-.3.4 0 .7.1.9.3.2.3.4.5.4.9 0 .3-.2.6-.4.8-.2.2-.5.3-.9.3Zm2.6-2.2h2v10.5h-2V43.6Zm3.6 0h2v10.5h-2V43.6Zm5.9 10.7c-.6 0-1.2-.1-1.6-.4-.5-.2-1-.5-1.3-1l1-1.1c.6.6 1.2 1 2 1l.6-.2.2-.4c0-.2 0-.3-.2-.4l-.5-.3-.7-.3c-.7-.2-1.2-.5-1.5-.8-.3-.4-.4-.8-.4-1.3 0-.6.2-1.2.7-1.5a3 3 0 0 1 1.8-.6c1 0 1.9.4 2.5 1l-1 1.2c-.4-.4-1-.6-1.5-.6a1 1 0 0 0-.5.1c-.2 0-.2.2-.2.4l.1.3.6.3.7.3c.6.2 1.1.5 1.4.8.3.4.5.8.5 1.3a2 2 0 0 1-.8 1.6 3 3 0 0 1-1.9.6Zm15.5-3.8-1.3 1.7 1.6 2h-2.2l-.6-.8a4 4 0 0 1-4 .6c-.5-.3-.9-.6-1.1-1-.3-.3-.4-.8-.4-1.3s.1-1 .4-1.3a7 7 0 0 1 1.4-1.5l-.6-1-.2-1c0-.6.3-1.2.7-1.6.4-.4 1-.6 1.7-.6s1.3.2 1.7.6c.4.4.6.8.6 1.4 0 .5 0 .9-.3 1.3-.3.3-.6.8-1.2 1.2l1.4 1.6A113.1 113.1 0 0 0 178 49l1.4 1-.3.5Zm-4.6-4.2c-.2 0-.4 0-.5.2l-.2.5.1.4.5.6.6-.5.1-.6-.1-.4-.5-.2Zm-.3 6.3a2 2 0 0 0 1.3-.5l-1.6-2-.7.8a1 1 0 0 0-.2.6c0 .4 0 .6.3.8.3.2.6.3 1 .3Zm13.3 1.7c-.8 0-1.5-.2-2.1-.6a4 4 0 0 1-1.5-1.5l1.3-1c.3.5.7.8 1 1 .4.3.8.4 1.3.4.4 0 .7 0 1-.3.2-.1.3-.4.3-.7 0-.3 0-.5-.2-.6a4 4 0 0 0-1-.6l-1-.4a5 5 0 0 1-1.6-1.1c-.4-.4-.6-1-.6-1.6A2.4 2.4 0 0 1 186 45c.5-.2 1-.3 1.6-.3.7 0 1.3.2 1.8.5s1 .7 1.2 1.3l-1.3 1c-.4-.8-1-1.1-1.7-1.1-.3 0-.6 0-.8.2-.3.2-.4.4-.4.7l.3.6.8.5 1 .4a5 5 0 0 1 1.8 1.2c.4.4.5.9.5 1.5a2.6 2.6 0 0 1-1.5 2.5c-.5.2-1 .3-1.7.3Zm9.3-.2-2.8-3.8V54h-1.9V43.6h2v6.5l2.4-3h2.3l-2.6 3.2L199 54h-2.2Zm3-7h2v7h-2v-7Zm1-1.3c-.4 0-.7 0-.9-.3-.2-.2-.3-.5-.3-.8 0-.4 0-.6.3-.9.2-.2.5-.3.9-.3.3 0 .6.1.8.3.3.3.4.5.4.9 0 .3-.1.6-.4.8-.2.2-.5.3-.8.3Zm2.6-2.2h2v10.5h-2V43.6Zm3.7 0h1.9v10.5h-2V43.6Zm12.2 9.3h-3.7l-.6 1.2h-2l4.1-9.4h.7l4 9.4h-2l-.5-1.2Zm-1.8-4.7-1.3 3.2h2.5l-1.2-3.2Zm8.3 6c-.6 0-1.1 0-1.6-.3a3 3 0 0 1-1.2-1.1c-.2-.5-.4-1-.4-1.7v-4h2v4.1c0 .4 0 .7.3 1 .2.2.5.4 1 .4.3 0 .6-.2.8-.4.3-.3.4-.6.4-1v-4h1.9V51c0 .6-.1 1.2-.4 1.7-.3.4-.7.8-1.2 1-.4.4-1 .5-1.6.5Zm8.4-1.6h1V54l-1.4.2a3 3 0 0 1-2-.7c-.5-.4-.8-1-.8-2v-2.8h-1v-1.6h1v-1.8h2v1.8h1.9v1.6h-2v2.7c0 .4.1.7.3.9l1 .2Zm5.3 1.7a3.7 3.7 0 0 1-3.7-3.6c0-.7.2-1.3.5-1.9.3-.5.8-1 1.4-1.3a3.7 3.7 0 0 1 5.6 3.1c0 .7-.2 1.3-.5 1.9-.4.5-.8 1-1.4 1.3-.6.3-1.2.5-1.9.5Zm0-1.8c.5 0 1-.1 1.3-.5.4-.4.5-.8.5-1.3 0-.6-.1-1-.5-1.4-.3-.4-.8-.5-1.3-.5s-1 .1-1.3.5c-.3.4-.5.8-.5 1.4 0 .5.2 1 .5 1.3.4.4.8.5 1.3.5Zm13.2-5.5c.8 0 1.4.3 1.9.8.4.5.7 1.2.7 2v4.3h-2v-4c0-.4 0-.8-.3-1-.2-.2-.5-.4-.8-.4-.4 0-.7.2-1 .4-.2.2-.3.6-.3 1v4h-2v-4c0-.4 0-.8-.2-1-.3-.2-.6-.4-1-.4-.3 0-.6.2-.9.4-.2.2-.3.6-.3 1v4h-2v-7h1.8v.7l.9-.6 1-.2c1 0 1.7.4 2.1 1l1-.7c.4-.2.9-.3 1.4-.3Zm7 0a3 3 0 0 1 2.2.8c.6.5.8 1.2.8 2.2v4.1h-1.7v-.7c-.2.3-.6.5-1 .7a3 3 0 0 1-1.1.2c-.7 0-1.3-.2-1.8-.6a2 2 0 0 1-.6-1.5c0-.6.2-1.1.7-1.5a3 3 0 0 1 2-.5h1.7v-.3c0-.4-.2-.7-.4-1l-1-.2c-.3 0-.6 0-.9.2l-.9.7-1-1.1c.9-1 1.9-1.5 3-1.5Zm-.3 5.9c.4 0 .8-.1 1-.4.3-.2.5-.6.5-1h-1.5l-.7.1c-.2.1-.3.3-.3.5 0 .3 0 .5.3.6l.7.2Zm8.6-.3h.9V54l-1.3.2a3 3 0 0 1-2-.7c-.6-.4-.8-1-.8-2v-2.8h-1v-1.6h1v-1.8h1.9v1.8h2v1.6h-2v2.7c0 .4 0 .7.3.9l1 .2Zm2.1-5.4h1.9v7h-1.9v-7Zm1-1.4c-.4 0-.7 0-1-.3-.1-.2-.3-.5-.3-.8 0-.4.2-.6.4-.9.2-.2.5-.3.8-.3.4 0 .7.1.9.3.2.3.4.5.4.9 0 .3-.2.6-.4.8-.2.2-.5.3-.9.3Zm6 8.5a3.7 3.7 0 0 1-3.7-3.6c0-.7.1-1.3.4-1.9.4-.5.8-1 1.4-1.3a3.7 3.7 0 0 1 5.6 3.1c0 .7-.2 1.3-.5 1.9-.4.5-.8 1-1.4 1.3-.6.3-1.2.5-1.9.5Zm0-1.8c.5 0 .9-.1 1.2-.5.4-.4.5-.8.5-1.3 0-.6-.1-1-.5-1.4-.3-.4-.7-.5-1.3-.5-.5 0-1 .1-1.2.5-.4.4-.5.8-.5 1.4 0 .5.1 1 .5 1.3.3.4.7.5 1.2.5ZM286 47c.8 0 1.4.3 1.9.8.4.5.7 1.2.7 2v4.3h-1.9v-4c0-.4-.1-.8-.4-1a1.3 1.3 0 0 0-1.9 0c-.2.2-.3.6-.3 1v4h-1.9v-7h1.7v.7l1-.6 1-.2Zm8.2-2.1h1.9V54h-2V45Zm7.4 2.1c.8 0 1.4.3 2 .8.4.5.6 1.2.6 2v4.3h-1.9v-4c0-.4 0-.8-.3-1-.3-.2-.6-.4-1-.4-.3 0-.7.2-1 .4-.2.2-.3.6-.3 1v4h-1.9v-7h1.8v.7l.9-.6 1.1-.2Zm11.2-3.4v10.5h-1.7v-.8l-1 .7a3 3 0 0 1-1.2.3c-.7 0-1.3-.2-1.8-.5s-.9-.7-1.2-1.3a4 4 0 0 1-.4-1.8c0-.7.1-1.4.4-1.9a3.2 3.2 0 0 1 3-1.8c.8 0 1.5.3 2 .9v-4.3h2Zm-3.6 9c.5 0 .9-.2 1.2-.5.4-.3.6-.8.6-1.4 0-.7-.2-1.1-.6-1.5-.3-.3-.7-.5-1.2-.5s-1 .2-1.3.6c-.3.3-.5.8-.5 1.3 0 .6.2 1 .5 1.4.4.4.8.6 1.3.6Zm11.8-2.3v1h-5c.2.4.4.8.7 1 .4.2.8.4 1.3.4.7 0 1.3-.3 2-.7l.7 1.3a4.2 4.2 0 0 1-4.7.5 3.5 3.5 0 0 1-1.8-3.1 3.6 3.6 0 0 1 1.7-3.2 3.7 3.7 0 0 1 3.6 0c.5.2.9.6 1.1 1.1.3.5.4 1 .4 1.7Zm-3.3-1.7c-.4 0-.7 0-1 .3-.3.3-.5.6-.6 1h3.1c0-.4-.1-.7-.4-1-.3-.2-.7-.3-1-.3Zm8.8 5.5L325 52l-1.5 2.2h-2l2.5-3.6-2.4-3.3h2.1l1.3 2 1.3-2h2.2l-2.4 3.3 2.5 3.6h-2Zm12.6 0-2.4-3.2h-1.4V54h-1.8V45h3.4c.7 0 1.2.1 1.7.4.5.2 1 .5 1.2 1 .3.5.5 1 .5 1.6a2.9 2.9 0 0 1-1.7 2.6l2.6 3.6h-2Zm-3.8-5h1.6c.5 0 .8 0 1-.3.3-.2.4-.5.4-1 0-.3-.1-.6-.4-.9-.2-.2-.5-.4-1-.4h-1.6v2.7Zm9.5-2a3 3 0 0 1 2.2.7c.5.5.8 1.2.8 2.2v4.1h-1.7v-.7l-1 .7a3 3 0 0 1-1.1.2c-.8 0-1.4-.2-1.8-.6a2 2 0 0 1-.6-1.5c0-.6.2-1.1.7-1.5a3 3 0 0 1 1.9-.5h1.7v-.3c0-.4 0-.7-.3-1l-1-.2c-.3 0-.6 0-1 .2l-.8.7-1-1.1c.8-1 1.8-1.5 3-1.5Zm-.3 5.8c.4 0 .7-.1 1-.4.3-.2.4-.6.4-1h-1.5l-.7.1-.2.5c0 .3 0 .5.2.6l.8.2Zm8.8-5.9c.8 0 1.4.3 1.9.8.4.5.7 1.2.7 2v4.3h-2v-4c0-.4 0-.8-.3-1a1.3 1.3 0 0 0-1.9 0c-.2.2-.3.6-.3 1v4h-2v-7h1.8v.7l1-.6a3 3 0 0 1 1-.2Zm11.2.2v6.1c0 1.2-.3 2-1 2.6-.6.6-1.5 1-2.6 1a5 5 0 0 1-3.4-1.4l1-1.3 1.1.7 1.2.2c.5 0 1-.1 1.3-.4.3-.3.5-.7.5-1.2V53c-.2.3-.6.5-1 .6l-1.1.2c-.6 0-1.2-.1-1.7-.4-.5-.3-1-.7-1.2-1.2-.3-.6-.4-1.2-.4-1.8 0-.7.1-1.3.4-1.8.3-.6.7-1 1.2-1.2.5-.3 1-.5 1.7-.5.5 0 1 .1 1.3.3.4.2.7.4 1 .8v-1h1.7Zm-3.6 5.1c.5 0 .9-.2 1.2-.5.4-.3.5-.8.5-1.4 0-.6-.1-1-.5-1.3-.3-.3-.7-.5-1.2-.5s-1 .2-1.3.5c-.3.4-.5.8-.5 1.4 0 .5.2 1 .5 1.3.4.3.8.5 1.3.5Zm11.8-2-.1 1h-4.9c.2.4.4.8.7 1 .4.2.8.4 1.3.4.7 0 1.3-.3 2-.7l.7 1.3a4.2 4.2 0 0 1-4.7.5 3.5 3.5 0 0 1-1.9-3.1 3.6 3.6 0 0 1 1.8-3.2 3.7 3.7 0 0 1 3.6 0c.5.2.8.6 1.1 1.1.3.5.4 1 .4 1.7Zm-3.3-1.7c-.4 0-.8 0-1 .3-.4.3-.6.6-.7 1h3.2c0-.4-.2-.7-.5-1-.2-.2-.6-.3-1-.3Z" fill="#475569"/><path stroke="#F1F5F9" stroke-width="2" d="M249.5 357 249.5 83.8"/><path stroke="#F1F5F9" stroke-width="2" d="M474.4 357 474.4 83.8"/><path stroke="#F1F5F9" stroke-width="2" d="M362 357 362 83.8"/><path stroke="#F1F5F9" stroke-width="2" d="M586.8 357 586.8 83.8"/><path d="M129.4 109.8a3.5 3.5 0 0 1-3-1.7c-.3-.5-.4-1-.4-1.7a3.3 3.3 0 0 1 1.7-3 3.5 3.5 0 0 1 3.4 0c.5.3.9.7 1.2 1.1l-.8.6c-.3-.3-.5-.6-.9-.8-.3-.2-.7-.3-1.1-.3-.5 0-.9 0-1.3.3-.3.2-.6.5-.8.9-.2.3-.3.8-.3 1.2 0 .5 0 .9.3 1.3a2.3 2.3 0 0 0 2 1.2c.5 0 .9-.1 1.2-.3.4-.2.6-.5.9-.9l.8.6a3 3 0 0 1-1.2 1.1c-.5.3-1 .4-1.7.4Zm6.2 0c-.5 0-1 0-1.4-.3-.3-.2-.7-.6-.9-1-.2-.3-.3-.8-.3-1.2a2.5 2.5 0 0 1 1.2-2.3c.4-.2.9-.3 1.4-.3.4 0 .9.1 1.3.3l1 1c.2.4.3.8.3 1.3 0 .4-.1.9-.4 1.2a2.5 2.5 0 0 1-2.2 1.3Zm0-1a1.5 1.5 0 0 0 1.3-.7l.2-.8c0-.3 0-.6-.2-.9a1.5 1.5 0 0 0-1.3-.7 1.5 1.5 0 0 0-1.4.7l-.2.9.2.8.6.6.8.2Zm9.2-4.1c.6 0 1 .2 1.3.5.4.4.5.9.5 1.4v3.1h-1v-2.9c0-.3-.1-.6-.3-.8a1 1 0 0 0-.7-.3 1 1 0 0 0-1.1 1v3h-1v-2.9c0-.3-.2-.6-.3-.8a1 1 0 0 0-.8-.3 1 1 0 0 0-.8.3c-.2.2-.3.5-.3.8v3h-1v-5h1v.5c.1-.2.3-.4.6-.5l.8-.1c.3 0 .6 0 .9.2l.6.6c.1-.3.4-.5.7-.6l1-.2Zm5.9 0a2.3 2.3 0 0 1 2 1.3c.3.3.4.8.4 1.3 0 .4-.1.9-.3 1.3-.2.4-.5.7-.9.9-.3.2-.8.3-1.2.3-.3 0-.7 0-1-.2a2 2 0 0 1-.7-.5v2.4h-1v-6.7h1v.7c.2-.3.4-.5.7-.6l1-.2Zm-.2 4.2.8-.2.5-.6c.2-.2.2-.5.2-.8 0-.3 0-.6-.2-.9l-.5-.5c-.2-.2-.5-.2-.8-.2l-.7.1-.6.6-.2.9.2.9.6.5.7.2Zm5.8 1c-.4 0-.8-.2-1-.3a2 2 0 0 1-.9-.8c-.2-.3-.2-.7-.2-1.1v-2.9h1v3c0 .3.1.6.3.8.2.2.5.3.8.3.3 0 .6-.1.8-.3.2-.2.3-.5.3-.9v-2.9h1v2.9c0 .4 0 .8-.2 1.1a2 2 0 0 1-.8.8l-1 .2Zm5.8-1h.6v.8a4 4 0 0 1-.8.1 2 2 0 0 1-1.4-.4c-.3-.3-.4-.7-.4-1.3v-2.4h-.8v-.9h.8v-1.3h1v1.3h1.5v1H161v2.2c0 .3 0 .6.3.7l.7.2Zm6-2v.7h-3.7c0 .4.2.7.5 1 .3.2.6.3 1 .3.6 0 1-.2 1.5-.6l.5.7c-.6.6-1.2.8-2 .8-.5 0-1 0-1.3-.3-.4-.2-.7-.5-1-1-.2-.3-.3-.8-.3-1.2 0-.5.1-1 .3-1.3a2.5 2.5 0 0 1 3.4-1l.8.8c.2.3.3.7.3 1.1Zm-2.3-1.3c-.4 0-.7.1-1 .3-.2.2-.3.5-.4.9h2.6c0-.4 0-.7-.3-.9-.3-.2-.6-.3-1-.3Zm5.8-.8h.4v1h-.3c-.4 0-.8 0-1 .3-.3.2-.4.6-.4 1v2.6h-1.1v-4.9h1v.6a1.8 1.8 0 0 1 1.4-.6Zm6.6-.1a2.3 2.3 0 0 1 2.1 1.3c.2.3.4.8.4 1.3 0 .4-.2.9-.4 1.3s-.5.7-.8.9c-.4.2-.8.3-1.3.3-.3 0-.6 0-.9-.2a2 2 0 0 1-.7-.5v2.4h-1v-6.7h1v.7c.1-.3.4-.5.7-.6l1-.2Zm-.1 4.2.7-.2.6-.6.2-.8c0-.3 0-.6-.2-.9-.2-.2-.3-.4-.6-.5-.2-.2-.4-.2-.7-.2l-.8.1c-.2.2-.4.3-.5.6l-.2.9c0 .3 0 .6.2.9l.5.5.8.2Zm6-4.1h.5v1h-.3c-.5 0-.8 0-1 .3-.4.2-.5.6-.5 1v2.6h-1v-4.9h1v.6a1.8 1.8 0 0 1 1.4-.6Zm3.5 5c-.5 0-1 0-1.3-.3-.4-.2-.7-.6-1-1-.2-.3-.3-.8-.3-1.2a2.5 2.5 0 0 1 1.3-2.3c.4-.2.8-.3 1.3-.3s1 .1 1.3.3l1 1c.2.4.3.8.3 1.3 0 .4-.1.9-.3 1.2a2.5 2.5 0 0 1-2.3 1.3Zm0-1a1.5 1.5 0 0 0 1.3-.7c.2-.3.2-.5.2-.8 0-.3 0-.6-.2-.9a1.5 1.5 0 0 0-2.6 0c-.2.3-.2.6-.2.9 0 .3 0 .5.2.8l.5.6.8.2Zm8.5-4v4.4c0 .8-.2 1.4-.6 1.8-.5.4-1 .6-1.8.6a3.3 3.3 0 0 1-2.4-.9l.6-.7.8.5 1 .2c.4 0 .7-.2 1-.4.2-.2.4-.6.4-1v-.4l-.7.5c-.3.2-.6.2-1 .2s-.8 0-1.2-.3c-.4-.2-.7-.5-.9-.9-.2-.3-.3-.8-.3-1.2 0-.5.1-1 .3-1.3.2-.4.5-.7.9-.9l1.2-.3c.4 0 .7 0 1 .2l.8.6v-.7h1Zm-2.5 3.9c.4 0 .8-.1 1-.4.3-.3.5-.7.5-1.2s-.2-.8-.5-1c-.2-.3-.6-.5-1-.5s-.8.2-1 .5c-.3.2-.5.6-.5 1 0 .5.2.9.4 1.2.3.3.7.4 1.1.4Zm6.4-4 .4.1v1h-.4c-.4 0-.7 0-1 .3-.3.2-.4.6-.4 1v2.6h-1v-4.9h1v.6a1.8 1.8 0 0 1 1.4-.6Zm3 0c.6 0 1 .2 1.4.5.4.4.6.9.6 1.5v3h-1v-.5l-.7.5-.9.1c-.5 0-.9-.1-1.2-.4-.3-.2-.5-.6-.5-1s.2-.8.5-1c.4-.3.8-.4 1.3-.4h1.4v-.3c0-.4 0-.6-.2-.8-.2-.2-.5-.3-.8-.3l-.7.2c-.3.1-.5.3-.7.6l-.6-.7c.3-.3.6-.6 1-.7.3-.2.7-.3 1-.3Zm-.3 4.3c.3 0 .6 0 .9-.3.2-.2.3-.5.3-.8v-.1h-1.2l-.7.1-.2.5c0 .2 0 .3.2.4.2.2.4.2.7.2Zm9.2-4.3c.6 0 1 .2 1.3.5.4.4.5.9.5 1.4v3.1h-1v-2.9c0-.3-.1-.6-.3-.8a1 1 0 0 0-.8-.3 1 1 0 0 0-1 1v3h-1v-2.9c0-.3-.2-.6-.4-.8a1 1 0 0 0-.7-.3 1 1 0 0 0-.8.3c-.2.2-.3.5-.3.8v3h-1v-5h1v.5c.1-.2.3-.4.6-.5l.8-.1c.3 0 .6 0 .8.2.3.1.5.3.6.6l.7-.6 1-.2Zm8.7 0c.6 0 1 .2 1.4.5.3.4.5.9.5 1.4v3.1h-1.1v-2.9c0-.3-.1-.6-.3-.8a1 1 0 0 0-.7-.3 1 1 0 0 0-1.1 1v3h-1v-2.9c0-.3-.1-.6-.3-.8a1 1 0 0 0-.8-.3 1 1 0 0 0-.8.3c-.2.2-.3.5-.3.8v3h-1v-5h1v.5c.1-.2.3-.4.6-.5l.8-.1c.3 0 .6 0 .9.2l.6.6c.2-.3.4-.5.7-.6l1-.2Zm3.2.1h1v5h-1v-5Zm.5-1.1-.5-.2a.6.6 0 0 1-.2-.5c0-.2 0-.4.2-.5.2-.2.3-.2.5-.2s.4 0 .5.2c.2.1.3.3.3.5s-.1.3-.3.5l-.5.2Zm4.4 1c.6 0 1 .2 1.4.5.3.4.5.9.5 1.4v3.1h-1v-3c0-.3-.2-.5-.4-.7a1 1 0 0 0-.7-.4c-.4 0-.6.2-.9.4-.2.2-.3.5-.3.8v3h-1v-5h1v.5a2 2 0 0 1 1.4-.6Zm8 .1v4.4c0 .8-.2 1.4-.6 1.8-.5.4-1 .6-1.8.6a3.3 3.3 0 0 1-2.4-.9l.6-.7.8.5 1 .2c.4 0 .7-.2 1-.4.3-.2.4-.6.4-1v-.4l-.7.5c-.3.2-.6.2-1 .2s-.8 0-1.2-.3a2.6 2.6 0 0 1-1.2-2.2c0-.4.2-.8.4-1.2.2-.4.5-.7.8-.9l1.2-.3c.4 0 .8 0 1 .2l.8.6v-.7h1Zm-2.5 3.9c.4 0 .8-.1 1-.4.4-.3.5-.7.5-1.2s-.1-.8-.4-1c-.3-.3-.7-.5-1-.5-.5 0-.8.2-1.1.5-.3.2-.5.6-.5 1 0 .5.2.9.5 1.2.3.3.6.4 1 .4Zm-103.3 8c.6 0 1.1.2 1.5.5.3.4.5.9.5 1.5v3h-1v-.5l-.6.5-1 .1c-.4 0-.9-.1-1.2-.4-.3-.2-.4-.6-.4-1s.1-.8.4-1c.4-.3.8-.4 1.4-.4h1.4v-.3c0-.4-.1-.6-.3-.8-.2-.2-.5-.3-.8-.3l-.7.2-.7.6-.6-.7a2.4 2.4 0 0 1 2.1-1Zm-.3 4.3c.3 0 .6 0 .9-.3.2-.2.4-.5.4-.8v-.1h-1.3l-.7.1-.2.5c0 .2.1.3.3.4.1.2.3.2.6.2Zm6.1-4.3c.6 0 1 .2 1.4.5.3.4.5.9.5 1.4v3.1h-1v-3c0-.3-.2-.5-.4-.7a1 1 0 0 0-.8-.4c-.3 0-.5.2-.8.4-.2.2-.3.5-.3.8v3h-1v-5h1v.5a2 2 0 0 1 1.4-.6Zm8-2.5v7.5h-1v-.7c-.1.3-.4.5-.7.6-.3.2-.6.2-1 .2s-.9 0-1.2-.3c-.4-.2-.7-.5-.9-1a2.8 2.8 0 0 1 0-2.6l.9-.9 1.2-.3c.4 0 .7 0 1 .2l.7.5v-3.2h1Zm-2.5 6.7c.3 0 .5 0 .7-.2l.6-.5.2-1c0-.3 0-.6-.2-.8l-.6-.6a1.5 1.5 0 0 0-2.2 1.5c0 .3 0 .6.2.8l.5.6.8.2Zm8.2 1a2.5 2.5 0 0 1-2-1l.6-.7.6.5c.3.2.5.2.8.2l.5-.1c.2-.1.3-.3.3-.4l-.2-.4-.5-.2-.5-.3a3 3 0 0 1-1-.5c-.2-.3-.3-.5-.3-.9s.1-.8.5-1a2 2 0 0 1 1.2-.4c.7 0 1.3.3 1.7.8l-.6.6a1.6 1.6 0 0 0-1.1-.5l-.5.1-.2.4c0 .1 0 .2.2.3l.5.3.4.1c.5.2.8.5 1 .7.3.2.4.5.4.8 0 .5-.2.9-.5 1.1-.4.3-.8.4-1.3.4Zm5.2 0c-.5 0-1-.2-1.3-.4-.4-.2-.7-.6-1-1-.2-.3-.3-.8-.3-1.2a2.5 2.5 0 0 1 1.3-2.3c.4-.2.8-.3 1.3-.3s.9.1 1.3.3l1 1c.2.4.3.8.3 1.3 0 .4-.1.9-.4 1.2a2.5 2.5 0 0 1-2.2 1.3Zm0-1a1.5 1.5 0 0 0 1.3-.8l.2-.8c0-.3 0-.6-.2-.9a1.5 1.5 0 0 0-1.3-.7 1.5 1.5 0 0 0-1.3.7c-.2.3-.2.6-.2.9 0 .3 0 .5.2.8 0 .2.3.4.5.6l.8.2Zm5.9-5.8-.7.1c-.2.2-.3.4-.3.7v1h1.2v.8h-1.2v4h-1v-4h-.7v-.9h.7v-1c0-.6.1-1 .4-1.3.3-.2.8-.4 1.3-.4l.7.1v.9h-.4Zm3 5.8h.6v.8a4 4 0 0 1-.9.1 2 2 0 0 1-1.3-.4c-.3-.3-.5-.7-.5-1.3v-2.4h-.8v-.9h.8v-1.3h1v1.3h1.5v1h-1.4v2.2c0 .3 0 .6.2.7l.7.2Zm9.1-4-2.2 5h-.3l-1.6-3.3-1.5 3.2h-.4l-2.1-5h1l1.4 3.2 1.5-3.3h.3l1.5 3.3 1.3-3.2h1.1Zm2.6-.2c.6 0 1 .2 1.4.5.4.4.6.9.6 1.5v3h-1v-.5l-.7.5-.9.1c-.5 0-.9-.1-1.2-.4-.3-.2-.5-.6-.5-1s.2-.8.5-1c.3-.3.8-.4 1.3-.4h1.4v-.3c0-.4 0-.6-.3-.8-.1-.2-.4-.3-.7-.3l-.8.2-.6.6-.6-.7a2.4 2.4 0 0 1 2-1Zm-.4 4.3c.4 0 .7 0 1-.3.2-.2.3-.5.3-.8v-.1H176l-.7.1-.2.5c0 .2 0 .3.2.4.2.2.4.2.6.2Zm6.1-4.2h.4v1h-.3c-.4 0-.7 0-1 .3-.3.2-.4.6-.4 1v2.6h-1v-4.9h1v.6a1.8 1.8 0 0 1 1.3-.6Zm5.7 2.1v.7h-3.7c0 .4.2.7.5 1 .3.2.6.3 1 .3.6 0 1-.2 1.5-.6l.5.7c-.6.6-1.2.8-2 .8-.5 0-1 0-1.3-.3-.4-.2-.7-.5-1-1-.2-.3-.3-.8-.3-1.2 0-.5 0-1 .3-1.3a2.5 2.5 0 0 1 3.4-1l.8.8c.2.3.3.7.3 1.1Zm-2.3-1.3c-.4 0-.7.1-1 .3-.2.2-.3.5-.4.9h2.6c0-.4 0-.7-.3-.9-.3-.2-.6-.3-1-.3Zm6.1-3.4h1v7.5h-1v-7.5Zm4.4 2.5c.6 0 1 .2 1.4.5.4.4.6.9.6 1.5v3h-1v-.5l-.7.5-.9.1c-.5 0-1-.1-1.2-.4-.3-.2-.5-.6-.5-1s.2-.8.5-1c.3-.3.8-.4 1.3-.4h1.4v-.3c0-.4 0-.6-.3-.8-.2-.2-.4-.3-.7-.3l-.8.2-.6.6-.6-.7a2.4 2.4 0 0 1 2-1Zm-.4 4.3c.4 0 .7 0 1-.3.2-.2.3-.5.3-.8v-.1h-1.3l-.6.1c-.2.1-.2.3-.2.5s0 .3.2.4c.2.2.4.2.6.2Zm6.2-4.3c.6 0 1 .2 1.3.5.4.4.5.9.5 1.4v3.1h-1v-3c0-.3-.1-.5-.3-.7a1 1 0 0 0-.8-.4c-.3 0-.6.2-.8.4-.2.2-.3.5-.3.8v3h-1v-5h1v.5a2 2 0 0 1 1.4-.6Zm8 .1v4.4c0 .8-.2 1.4-.7 1.8-.4.4-1 .6-1.8.6a3.3 3.3 0 0 1-2.3-.9l.6-.7.8.5.9.2c.4 0 .8-.2 1-.4.3-.2.4-.6.4-1v-.4c-.1.2-.4.4-.7.5-.3.2-.6.2-1 .2s-.8 0-1.1-.3c-.4-.2-.7-.5-.9-.9-.2-.3-.3-.8-.3-1.2 0-.5.1-1 .3-1.3.2-.4.5-.7.9-.9.3-.2.7-.3 1.2-.3.4 0 .7 0 1 .2l.7.6v-.7h1Zm-2.5 3.9c.4 0 .7-.1 1-.4.3-.3.5-.7.5-1.2s-.2-.8-.5-1c-.3-.3-.6-.5-1-.5s-.8.2-1 .5c-.4.2-.5.6-.5 1 0 .5.1.9.4 1.2.3.3.7.4 1 .4Zm6 1.1c-.4 0-.8 0-1-.2a2 2 0 0 1-.9-.8l-.2-1.1v-2.9h1v3c0 .3.1.6.3.8.2.2.5.3.8.3.3 0 .6-.1.8-.3.2-.2.3-.5.3-.9v-2.9h1v2.9c0 .4 0 .8-.2 1.1a2 2 0 0 1-.8.8l-1 .2Zm5.4-5.1c.6 0 1.1.2 1.5.5.3.4.5.9.5 1.5v3h-1v-.5l-.6.5-1 .1c-.4 0-.9-.1-1.2-.4-.3-.2-.4-.6-.4-1s.1-.8.4-1c.4-.3.8-.4 1.4-.4h1.4v-.3c0-.4-.1-.6-.3-.8-.2-.2-.5-.3-.8-.3l-.7.2-.6.6-.7-.7a2.4 2.4 0 0 1 2.1-1Zm-.3 4.3c.3 0 .6 0 .9-.3.2-.2.4-.5.4-.8v-.1h-1.3l-.6.1c-.2.1-.3.3-.3.5s.1.3.3.4c.1.2.3.2.6.2Zm8.5-4.2v4.4c0 .8-.2 1.4-.7 1.8-.4.4-1 .6-1.8.6a3.3 3.3 0 0 1-2.3-.9l.6-.7.8.5.9.2c.4 0 .8-.2 1-.4.3-.2.5-.6.5-1v-.4l-.8.5c-.3.2-.6.2-1 .2s-.8 0-1.1-.3c-.4-.2-.7-.5-.9-.9-.2-.3-.3-.8-.3-1.2 0-.5.1-1 .3-1.3.2-.4.5-.7.9-.9.3-.2.7-.3 1.2-.3.4 0 .7 0 1 .2l.7.6v-.7h1Zm-2.5 3.9c.4 0 .7-.1 1-.4.3-.3.5-.7.5-1.2s-.2-.8-.5-1c-.3-.3-.6-.5-1-.5s-.8.2-1 .5c-.4.2-.5.6-.5 1 0 .5.1.9.4 1.2.3.3.7.4 1 .4Zm8.4-1.8v.7h-3.7c0 .4.2.7.5 1 .3.2.7.3 1 .3.6 0 1-.2 1.5-.6l.5.7c-.6.6-1.2.8-2 .8-.5 0-.9 0-1.3-.3-.4-.2-.7-.5-1-1-.2-.3-.3-.8-.3-1.2 0-.5.1-1 .3-1.3a2.5 2.5 0 0 1 2.2-1.3 2.2 2.2 0 0 1 2 1.1c.2.3.3.7.3 1.1Zm-2.3-1.3-.9.3c-.3.2-.4.5-.5.9h2.7c0-.4-.2-.7-.4-.9-.3-.2-.5-.3-.9-.3Zm5 4.2a2.5 2.5 0 0 1-2-1l.6-.6.6.5c.2.2.5.2.7.2l.6-.1c.2-.1.2-.3.2-.4l-.1-.4-.6-.2-.5-.3a3 3 0 0 1-1-.5l-.2-.9c0-.4.1-.8.5-1a2 2 0 0 1 1.2-.4c.7 0 1.3.3 1.7.8l-.6.6a1.6 1.6 0 0 0-1.1-.5l-.5.1-.2.4.1.3.6.3.4.1c.5.2.8.5 1 .7.3.2.4.5.4.8 0 .5-.2.9-.6 1.1-.3.3-.7.4-1.3.4Z" fill="#475569"/><path transform="translate(290.1 98)" fill="#24A3A9" d="M0 0H145.5V29.5H0z"/><path transform="translate(435.7 98)" fill="#1D8187" d="M0 0H152.1V29.5H0z"/><path transform="translate(314.7 98)" fill="#2DCCD3" d="M0 0H21V29.5H0z"/><path transform="translate(276.7 98)" fill="#81E0E5" d="M0 0H38V29.5H0z"/><path transform="translate(250.5 98)" fill="#ABEBED" d="M0 0H26.1V29.5H0z"/><path transform="translate(510.7 187)" fill="#24A3A9" d="M0 0H53.8V29.5H0z"/><path transform="translate(564.4 187)" fill="#1D8187" d="M0 0H23.3V29.5H0z"/><path transform="translate(443 187)" fill="#2DCCD3" d="M0 0H67.6V29.5H0z"/><path transform="translate(362.9 187)" fill="#81E0E5" d="M0 0H81.8V29.5H0z"/><path transform="translate(250.5 187)" fill="#ABEBED" d="M0 0H114V29.5H0z"/><path transform="translate(520.3 230.8)" fill="#24A3A9" d="M0 0H47.7V29.5H0z"/><path transform="translate(550 230.8)" fill="#1D8187" d="M0 0H37.8V29.5H0z"/><path transform="translate(461 230.8)" fill="#2DCCD3" d="M0 0H62.9V29.5H0z"/><path transform="translate(264.6 230.8)" fill="#81E0E5" d="M0 0H196.3V29.5H0z"/><path transform="translate(250.5 230.8)" fill="#ABEBED" d="M0 0H14.1V29.5H0z"/><path transform="translate(516.6 274.3)" fill="#24A3A9" d="M0 0H51.4V29.5H0z"/><path transform="translate(568 274.3)" fill="#1D8187" d="M0 0H19.8V29.5H0z"/><path transform="translate(364.5 274.3)" fill="#2DCCD3" d="M0 0H152.1V29.5H0z"/><path transform="translate(281 274)" fill="#81E0E5" d="M0 0H83.5V29.5H0z"/><path transform="translate(250.5 274.3)" fill="#ABEBED" d="M0 0H30.4V29.5H0z"/><path transform="translate(341.3 319.9)" fill="#24A3A9" d="M0 0H86.8V29.5H0z"/><path transform="translate(428 319.9)" fill="#1D8187" d="M0 0H159.7V29.5H0z"/><path transform="translate(326.5 319.9)" fill="#2DCCD3" d="M0 0H14.8V29.5H0z"/><path transform="translate(287.9 319.9)" fill="#81E0E5" d="M0 0H38.6V29.5H0z"/><path transform="translate(250.5 319.9)" fill="#ABEBED" d="M0 0H40.3V29.5H0z"/><path transform="translate(341.3 142.4)" fill="#24A3A9" d="M0 0H111.6V29.5H0z"/><path transform="translate(452.9 142.6)" fill="#1D8187" d="M0 0H135.1V29.4H0z"/><path transform="translate(325.2 142.4)" fill="#2DCCD3" d="M0 0H16.1V29.5H0z"/><path transform="translate(296.3 142.4)" fill="#81E0E5" d="M0 0H30.1V29.5H0z"/><path transform="translate(250.5 142.4)" fill="#ABEBED" d="M0 0H45.8V29.5H0z"/><path d="M604.5 333.8c1 .4 1.5 1 1.5 2 0 .4-.1.8-.4 1.1-.2.4-.6.6-1 .8a4 4 0 0 1-1.5.3c-.6 0-1.1 0-1.6-.3-.4-.2-.8-.4-1-.8a2 2 0 0 1-.4-1.2c0-.9.5-1.5 1.5-2-.8-.4-1.2-1-1.2-1.8 0-.7.3-1.2.8-1.5a3 3 0 0 1 1.9-.6 3 3 0 0 1 1.8.6c.5.3.8.8.8 1.5 0 .8-.4 1.4-1.2 1.9ZM603 331c-.4 0-.6 0-.8.2-.2.2-.3.4-.3.7 0 .2 0 .4.2.6l.9.5.8-.5.3-.6c0-.3-.1-.5-.3-.7l-.8-.2Zm0 5.6c.4 0 .7-.1 1-.3.2-.2.3-.4.3-.7 0-.3 0-.6-.3-.7l-1-.6-1 .6c-.3.1-.4.4-.4.7 0 .3.1.5.4.7.2.2.5.3 1 .3Zm8.3-3c1 .5 1.6 1.1 1.6 2 0 .5-.2.9-.4 1.2-.3.4-.6.6-1 .8a4 4 0 0 1-1.6.3c-.6 0-1.1 0-1.6-.3-.4-.2-.8-.4-1-.8a2 2 0 0 1-.4-1.2c0-.9.5-1.5 1.6-2-.8-.4-1.2-1-1.2-1.8 0-.7.2-1.2.7-1.5a3 3 0 0 1 1.9-.6 3 3 0 0 1 1.9.6c.5.3.7.8.7 1.5 0 .8-.4 1.4-1.2 1.9Zm-1.4-2.6c-.3 0-.6 0-.8.2-.2.2-.3.4-.3.7 0 .2 0 .4.3.6l.8.5.8-.5.3-.6c0-.3-.1-.5-.3-.7l-.8-.2Zm0 5.6c.4 0 .8-.1 1-.3.2-.2.4-.4.4-.7 0-.3-.2-.6-.4-.7l-1-.6-1 .6c-.2.1-.4.4-.4.7 0 .3.2.5.4.7.2.2.6.3 1 .3ZM606 291.1v1.4h-6v-.4l3-3 .8-1.1.2-1c0-.3 0-.5-.3-.8a1 1 0 0 0-.8-.3 1 1 0 0 0-.8.4c-.2.2-.3.5-.3.8v.6h-1.6a2.7 2.7 0 0 1 .3-2c.2-.3.5-.7 1-1 .4-.2.9-.3 1.4-.3.6 0 1 .1 1.4.4.5.2.8.5 1 .9.3.3.4.8.4 1.3s-.2 1-.4 1.5L604 290l-1 1.1h3Zm4.2 1.5c-.7 0-1.2-.2-1.7-.5-.5-.4-.8-.9-1-1.5-.3-.6-.4-1.4-.4-2.1 0-1.2.3-2.2.8-3 .5-.7 1.3-1 2.3-1 1 0 1.8.3 2.4 1 .5.8.8 1.8.8 3 0 .7-.1 1.5-.4 2-.2.7-.6 1.2-1 1.6-.5.3-1 .5-1.8.5Zm0-1.5c1 0 1.5-.9 1.5-2.6a4 4 0 0 0-.4-2c-.2-.4-.6-.6-1-.6-.6 0-1 .2-1.2.7-.2.4-.3 1-.3 1.9 0 1.7.5 2.6 1.4 2.6Zm7.5 1.5c-.7 0-1.2-.2-1.7-.5-.5-.4-.8-.9-1-1.5-.3-.6-.4-1.4-.4-2.1 0-1.2.3-2.2.8-3 .5-.7 1.3-1 2.3-1 1 0 1.8.3 2.4 1 .5.8.8 1.8.8 3 0 .7-.1 1.5-.4 2-.2.7-.6 1.2-1 1.6-.5.3-1 .5-1.8.5Zm0-1.5c1 0 1.5-.9 1.5-2.6a4 4 0 0 0-.4-2c-.2-.4-.6-.6-1-.6-.6 0-1 .2-1.2.7-.2.4-.3 1-.3 1.9 0 1.7.5 2.6 1.4 2.6ZM606 247.4v1.4h-6v-.3l3-3.1.8-1.1.2-.9c0-.3 0-.6-.3-.8a1 1 0 0 0-.8-.4 1 1 0 0 0-.8.4c-.2.2-.3.5-.3.8v.6h-1.6a2.7 2.7 0 0 1 .3-2c.2-.3.5-.6 1-.9.4-.2.9-.4 1.4-.4.6 0 1 .2 1.4.4.5.2.8.5 1 .9.3.4.4.8.4 1.3s-.2 1-.4 1.5l-1.3 1.5-1 1.1h3Zm4-4c.5 0 1 .1 1.4.4.4.2.7.5 1 1 .2.3.3.8.3 1.3a2.8 2.8 0 0 1-3 2.8 2.8 2.8 0 0 1-2.5-1.4c-.2-.4-.3-.9-.3-1.4l.1-.9.4-.7.6-.9 2-2.7h1.9l-1.9 2.5Zm-.2 4c.4 0 .7 0 1-.3.2-.3.3-.6.3-1s-.1-.7-.4-1c-.2-.2-.5-.3-1-.3-.3 0-.6.1-.8.4-.3.2-.4.5-.4 1 0 .3.1.6.4.9.2.2.5.4.9.4Zm8.2-2.7c1 .4 1.5 1 1.5 2 0 .4-.1.8-.4 1.2-.2.3-.5.6-1 .8a4 4 0 0 1-1.5.2c-.6 0-1.1 0-1.6-.2-.4-.2-.8-.5-1-.8a2 2 0 0 1-.4-1.2c0-1 .5-1.6 1.6-2-.8-.5-1.2-1-1.2-1.9 0-.6.2-1.1.7-1.5a3 3 0 0 1 1.9-.6 3 3 0 0 1 1.8.6c.5.4.8.9.8 1.5 0 .8-.4 1.4-1.2 1.9Zm-1.4-2.7c-.4 0-.6.1-.8.3-.2.1-.3.3-.3.6s0 .4.2.6l.9.5.8-.5.3-.6c0-.3-.1-.5-.3-.6-.2-.2-.5-.3-.8-.3Zm0 5.6c.4 0 .7 0 1-.3.2-.1.3-.4.3-.7 0-.3 0-.5-.3-.7l-1-.5-1 .5c-.3.2-.4.4-.4.7 0 .3.1.6.4.8l1 .2ZM603.7 199.5c.5.1 1 .4 1.3.8a2.5 2.5 0 0 1 .1 3c-.2.4-.6.8-1 1l-1.5.3a3 3 0 0 1-1.7-.5c-.5-.3-1-.7-1.2-1.3l1.1-.8.8.9 1 .2c.3 0 .7 0 1-.3.2-.2.3-.5.3-.9a1 1 0 0 0-.4-.8 2 2 0 0 0-1.2-.3h-1v-.4l1.7-2.4h-2.7v-1.4h5.1v.4l-1.7 2.5Zm8.6 3.6v1.4h-5.9v-.3l2.9-3.1.8-1.1c.2-.3.3-.6.3-1 0-.2-.1-.5-.3-.7a1 1 0 0 0-.8-.4 1 1 0 0 0-.8.4c-.2.2-.3.5-.3.8v.6h-1.6a2.7 2.7 0 0 1 .2-2l1-.9c.4-.2 1-.4 1.5-.4s1 .1 1.4.4c.4.2.7.5 1 .9.2.4.3.8.3 1.3s-.1 1-.4 1.5c-.3.4-.7 1-1.3 1.5l-1 1.1h3Zm5.4-2.7c1 .4 1.6 1 1.6 2 0 .4-.2.8-.4 1.2l-1 .8a4 4 0 0 1-1.6.2c-.6 0-1 0-1.5-.2s-.8-.5-1.1-.8a2 2 0 0 1-.4-1.2c0-1 .5-1.6 1.6-2-.8-.5-1.2-1-1.2-1.9 0-.6.2-1.1.7-1.5a3 3 0 0 1 1.9-.6 3 3 0 0 1 1.9.6c.5.4.7.9.7 1.5 0 .8-.4 1.4-1.2 1.9Zm-1.4-2.7c-.3 0-.6.1-.8.3-.2.1-.3.3-.3.6 0 .2 0 .4.3.6.1.2.4.3.8.5.4-.2.7-.3.8-.5l.3-.6c0-.3-.1-.5-.3-.6-.2-.2-.5-.3-.8-.3Zm0 5.6c.4 0 .8 0 1-.3.2-.1.4-.4.4-.7 0-.3-.2-.5-.4-.7-.2-.2-.5-.4-1-.5-.5.1-.8.3-1 .5-.2.2-.4.4-.4.7 0 .3.2.6.4.7.2.2.6.3 1 .3ZM606.3 158.9h-1v1.3h-1.6v-1.3h-4v-.4l2.5-6.2h1.6l-2 5.2h1.9v-2.2h1.6v2.2h1v1.4Zm4.2-3.7c.5.1 1 .4 1.3.8.4.4.6 1 .6 1.6 0 .5-.1 1-.4 1.4-.3.4-.6.8-1.1 1l-1.5.3a3 3 0 0 1-1.7-.5c-.5-.3-1-.7-1.2-1.3l1.1-.8.8.9 1 .2c.4 0 .7 0 1-.3.2-.2.3-.5.3-.9a1 1 0 0 0-.4-.8 2 2 0 0 0-1.2-.3h-1v-.5l1.7-2.3H607v-1.4h5.1v.4l-1.7 2.5Zm6-.4c.4 0 .8.1 1.2.4.4.2.8.5 1 1 .3.3.4.8.4 1.3s-.1 1-.4 1.5l-1 1a3 3 0 0 1-4-1c-.3-.5-.4-1-.4-1.5l.1-.9.3-.7.7-.9 2-2.7h1.8l-1.8 2.5Zm-.3 4c.3 0 .7 0 .9-.3.3-.3.4-.6.4-1s-.1-.7-.4-1c-.2-.2-.6-.3-1-.3-.3 0-.6 0-.9.4-.2.2-.3.5-.3.9s0 .7.3 1c.3.2.6.3 1 .3ZM604.5 111.8c1 .4 1.5 1 1.5 2 0 .4-.1.8-.4 1.2-.2.3-.6.6-1 .7a4 4 0 0 1-1.5.3c-.6 0-1.1 0-1.6-.3-.4-.1-.8-.4-1-.7a2 2 0 0 1-.4-1.2c0-1 .5-1.6 1.5-2-.8-.5-1.2-1.1-1.2-1.9 0-.6.3-1.2.8-1.5a3 3 0 0 1 1.9-.6 3 3 0 0 1 1.8.6c.5.3.8.9.8 1.5 0 .8-.4 1.4-1.2 1.9ZM603 109c-.4 0-.6.1-.8.3-.2.1-.3.3-.3.6 0 .2 0 .4.2.6l.9.5.8-.5.3-.6c0-.3-.1-.5-.3-.6-.3-.2-.5-.3-.8-.3Zm0 5.6c.4 0 .7 0 1-.3.2-.2.3-.4.3-.7 0-.3 0-.5-.3-.7l-1-.5c-.5.1-.8.3-1 .5-.3.2-.4.4-.4.7 0 .3.1.5.4.7.2.2.5.3 1 .3Zm9.8-.2v1.4H607v-.4l2.8-3 .9-1.1c.2-.3.3-.6.3-1 0-.3-.1-.5-.3-.8a1 1 0 0 0-.8-.3 1 1 0 0 0-.9.4c-.2.2-.3.5-.3.8l.1.6h-1.6a2.7 2.7 0 0 1 .2-2l1-1c.4-.2 1-.3 1.5-.3s1 .1 1.4.4c.4.2.7.5 1 .9.2.3.3.8.3 1.2 0 .6-.1 1-.4 1.5l-1.3 1.6-1 1.1h3Zm6.5-6.5v.4l-3.6 7.5H614l3.2-6.5h-3.4V108h5.6Z" fill="#475569"/><rect x="237.4" y="363.4" width="26.2" height="12.8" rx="6.4" fill="#E2E8F0"/><rect x="349.9" y="363.4" width="26.2" height="12.8" rx="6.4" fill="#E2E8F0"/><rect x="462.1" y="363.4" width="26.2" height="12.8" rx="6.4" fill="#E2E8F0"/><rect x="574.4" y="363.4" width="26.2" height="12.8" rx="6.4" fill="#E2E8F0"/><rect x="164" y="150.5" width="73.5" height="18" rx="9" fill="#E2E8F0"/><rect x="127.6" y="194" width="109.9" height="18" rx="9" fill="#E2E8F0"/><rect x="127.6" y="240" width="109.9" height="18" rx="9" fill="#E2E8F0"/><rect x="149.9" y="284.4" width="87.6" height="18" rx="9" fill="#E2E8F0"/><rect x="127.6" y="329.1" width="109.9" height="18" rx="9" fill="#E2E8F0"/><path d="M601.8 71.6h-2.1v-1.2h5.6v1.2H603V77h-1.3v-5.4Zm5.8 5.5c-.5 0-1-.1-1.3-.3a2.6 2.6 0 0 1-1.3-2.3c0-.5 0-.9.3-1.3.2-.4.6-.7 1-1 .4-.1.8-.3 1.3-.3a2.6 2.6 0 0 1 2.7 2.6c0 .5-.2 1-.4 1.3-.2.4-.6.7-1 1-.4.2-.8.3-1.3.3Zm0-1.2c.4 0 .7-.2 1-.4.2-.3.3-.6.3-1s-.1-.7-.4-1c-.2-.2-.5-.3-.9-.3s-.7.1-1 .4c-.2.2-.3.5-.3 1 0 .3.1.6.4.9.2.2.5.4.9.4Zm6.2 0h.6V77l-1 .1c-.6 0-1-.1-1.4-.4-.3-.4-.5-.8-.5-1.4v-2.1h-.8V72h.8v-1.2h1.3v1.3h1.4v1h-1.4v2c0 .3.1.5.3.6.1.2.3.2.7.2Zm3.5-4c.7 0 1.2.2 1.5.6.4.3.6.9.6 1.6V77h-1.2v-.5a2 2 0 0 1-.7.5l-.8.1c-.6 0-1-.1-1.3-.4-.3-.3-.4-.6-.4-1 0-.5.1-.9.5-1.1.3-.3.8-.4 1.3-.4h1.3V74c0-.3-.1-.5-.3-.7l-.6-.2c-.3 0-.5 0-.7.2-.2 0-.4.3-.7.5l-.7-.8c.6-.7 1.3-1 2.2-1Zm-.3 4.2c.3 0 .6 0 .8-.2.2-.2.3-.5.3-.8h-1l-.6.1-.2.4c0 .2 0 .3.2.4l.5.1Zm3.6-6.6h1.4V77h-1.4v-7.5Zm7.5 7.6a3 3 0 0 1-1.5-.4 3 3 0 0 1-1-1l.9-.7.7.7.9.2c.3 0 .5 0 .7-.2l.2-.5c0-.2 0-.4-.2-.5a3 3 0 0 0-.6-.3l-.7-.4c-.5-.2-1-.4-1.2-.7-.3-.3-.4-.7-.4-1.1a1.7 1.7 0 0 1 1-1.7l1.2-.2c.5 0 1 0 1.3.3.4.2.6.6.9 1l-1 .6c-.3-.5-.7-.7-1.2-.7a1 1 0 0 0-.6.2c-.2 0-.2.2-.2.4l.1.4.6.4.8.3c.5.3 1 .5 1.2.8.3.3.4.7.4 1.1a1.8 1.8 0 0 1-1.1 1.8l-1.2.2Zm6.6-.1-2-2.7V77h-1.3v-7.5h1.3v4.7l1.8-2.2h1.6l-1.8 2.2 2 2.8h-1.6Zm2.2-5h1.3v5H637v-5Zm.7-1c-.3 0-.5 0-.6-.2a.8.8 0 0 1-.3-.5c0-.3 0-.5.3-.6.1-.2.3-.3.6-.3.2 0 .4 0 .6.3l.2.5c0 .3 0 .5-.2.6l-.6.3Zm1.9-1.5h1.3V77h-1.3v-7.5Zm2.6 0h1.3V77h-1.3v-7.5Zm4.2 7.6c-.5 0-.9 0-1.2-.2-.4-.2-.7-.4-.9-.7l.7-.9c.4.5.9.7 1.4.7h.4l.2-.4-.1-.2-.4-.3-.5-.2-1-.6c-.3-.2-.4-.5-.4-.9s.2-.8.5-1c.4-.3.8-.5 1.3-.5.8 0 1.4.3 1.8.8l-.7.8c-.3-.3-.7-.5-1-.5l-.5.1-.1.3.1.2.4.2.5.2c.5.2.8.4 1 .7.3.2.4.5.4.8 0 .5-.2 1-.6 1.2-.3.3-.8.4-1.3.4Z" fill="#475569"/><defs><filter id="a" x=".6" y=".4" width="747" height="458" filterUnits="userSpaceOnUse" color-interpolation-filters="sRGB"><feFlood flood-opacity="0" result="BackgroundImageFix"/><feColorMatrix in="SourceAlpha" values="0 0 0 0 0 0 0 0 0 0 0 0 0 0 0 0 0 0 127 0" result="hardAlpha"/><feOffset dx="8" dy="8"/><feComposite in2="hardAlpha" operator="out"/><feColorMatrix values="0 0 0 0 0.886275 0 0 0 0 0.909804 0 0 0 0 0.941176 0 0 0 1 0"/><feBlend in2="BackgroundImageFix" result="effect1_dropShadow_1208_7891"/><feBlend in="SourceGraphic" in2="effect1_dropShadow_1208_7891" result="shape"/></filter></defs></svg>