<svg width="739" height="392" viewBox="0 0 739 392" fill="none" xmlns="http://www.w3.org/2000/svg">
<g filter="url(#filter0_d_903_39004)">
<rect width="731" height="384" rx="12" fill="white"/>
<rect x="0.5" y="0.5" width="730" height="383" rx="11.5" stroke="#E2E8F0"/>
</g>
<path d="M54.6346 55.164H57.4915L51.6989 41.7382H50.8123L45 55.164H47.8569L48.5859 53.4458H53.9056L54.6346 55.164ZM52.9796 51.2282H49.5119L51.2457 46.7729L52.9796 51.2282Z" fill="#475569"/>
<path d="M62.2424 55.4038C64.3703 55.4038 66.045 54.285 66.045 52.2471C66.045 50.7087 65.0599 49.9495 63.3064 49.2303L62.3606 48.8307C61.6513 48.531 61.3361 48.3312 61.3361 47.9516C61.3361 47.4721 61.7498 47.2524 62.3803 47.2524C63.1684 47.2524 63.9368 47.592 64.5673 48.1914L65.9071 46.5331C65.0205 45.5342 63.8186 45.0547 62.4 45.0547C60.3313 45.0547 58.8142 46.1136 58.8142 48.0116C58.8142 49.5699 59.819 50.3491 61.474 51.0284L62.5182 51.4679C63.1093 51.7277 63.5231 51.9075 63.5231 52.367C63.5231 52.9264 62.9517 53.1861 62.2818 53.1861C61.2376 53.1861 60.3313 52.6667 59.5432 51.8475L58.2034 53.4858C59.0703 54.6446 60.5086 55.4038 62.2424 55.4038Z" fill="#475569"/>
<path d="M71.2086 55.4038C73.3365 55.4038 75.0112 54.285 75.0112 52.2471C75.0112 50.7087 74.0261 49.9495 72.2726 49.2303L71.3269 48.8307C70.6176 48.531 70.3023 48.3312 70.3023 47.9516C70.3023 47.4721 70.7161 47.2524 71.3466 47.2524C72.1347 47.2524 72.9031 47.592 73.5336 48.1914L74.8733 46.5331C73.9867 45.5342 72.7848 45.0547 71.3663 45.0547C69.2975 45.0547 67.7804 46.1136 67.7804 48.0116C67.7804 49.5699 68.7852 50.3491 70.4402 51.0284L71.4845 51.4679C72.0756 51.7277 72.4893 51.9075 72.4893 52.367C72.4893 52.9264 71.9179 53.1861 71.248 53.1861C70.2038 53.1861 69.2975 52.6667 68.5094 51.8475L67.1696 53.4858C68.0365 54.6446 69.4748 55.4038 71.2086 55.4038Z" fill="#475569"/>
<path d="M78.3425 43.3365C79.2883 43.3365 80.0567 42.6172 80.0567 41.6782C80.0567 40.7192 79.2883 40 78.3425 40C77.3968 40 76.6481 40.7192 76.6481 41.6782C76.6481 42.6172 77.3968 43.3365 78.3425 43.3365ZM77.0225 55.164H79.6823V45.2744H77.0225V55.164Z" fill="#475569"/>
<path d="M89.6628 45.2744V46.5131C88.9929 45.5941 87.8895 45.0547 86.4709 45.0547C83.8111 45.0547 81.8014 46.9727 81.8014 49.9495C81.8014 52.8864 83.7914 54.8644 86.4709 54.8644C87.6925 54.8644 88.7367 54.4648 89.446 53.6856V54.225C89.446 55.8233 88.3427 56.5626 86.8453 56.5626C85.5843 56.5626 84.6386 56.0431 83.6732 55.2839L82.2743 57.1619C83.3776 58.1609 84.9341 59 87.062 59C89.9977 59 92.1059 57.4017 92.1059 54.0652V45.2744H89.6628ZM87.0226 52.5868C85.6631 52.5868 84.5007 51.5678 84.5007 49.9295C84.5007 48.2913 85.6434 47.3523 87.0226 47.3523C88.2442 47.3523 89.4854 48.0915 89.4854 49.9096C89.4854 51.7277 88.2639 52.5868 87.0226 52.5868Z" fill="#475569"/>
<path d="M100.043 45.0547C98.8414 45.0547 97.8563 45.4942 97.1864 46.1735V45.2744H94.7433V55.164H97.4031V49.3901C97.4031 48.2513 98.1715 47.4721 99.2552 47.4721C100.339 47.4721 101.068 48.2513 101.068 49.3901V55.164H103.708V49.0305C103.708 46.653 102.329 45.0547 100.043 45.0547Z" fill="#475569"/>
<path d="M116.086 55.4038C118.667 55.4038 120.637 53.9054 120.637 51.448C120.637 49.5699 119.475 48.511 117.426 47.592L115.948 46.9327C115.002 46.4932 114.431 46.1735 114.431 45.4143C114.431 44.5352 115.18 44.1356 116.046 44.1356C117.11 44.1356 117.898 44.6951 118.529 45.654L120.342 44.2355C119.573 42.7971 118.115 41.7382 116.046 41.7382C113.603 41.7382 111.732 43.1966 111.732 45.4742C111.732 47.3722 113.091 48.4511 114.884 49.2702L116.283 49.9096C117.307 50.3891 117.938 50.6887 117.938 51.5478C117.938 52.4669 117.229 53.0063 116.086 53.0063C114.529 53.0063 113.603 52.0873 112.894 51.0883L111.062 52.4869C112.027 54.245 113.84 55.4038 116.086 55.4038Z" fill="#475569"/>
<path d="M127.21 55.4038C129.751 55.4038 131.682 53.6057 131.682 50.8086V45.2744H129.022V51.0284C129.022 52.1872 128.215 52.9264 127.21 52.9264C126.166 52.9264 125.358 52.1872 125.358 51.0284V45.2744H122.698V50.8086C122.698 53.6057 124.629 55.4038 127.21 55.4038Z" fill="#475569"/>
<path d="M139.801 45.0547C138.58 45.0547 137.575 45.4742 136.885 46.2334V40.1798H134.225V55.164H136.669V53.9453C137.338 54.8644 138.462 55.4038 139.801 55.4038C142.56 55.4038 144.53 53.2061 144.53 50.2292C144.53 47.2524 142.56 45.0547 139.801 45.0547ZM139.309 52.9464C138.087 52.9464 136.846 52.1272 136.846 50.2292C136.846 48.3512 138.067 47.4921 139.309 47.4921C140.688 47.4921 141.831 48.531 141.831 50.2093C141.831 51.8875 140.708 52.9464 139.309 52.9464Z" fill="#475569"/>
<path d="M152.192 45.0547C150.853 45.0547 149.73 45.5741 149.06 46.5131V45.2744H146.617V58.7603H149.276V54.205C149.966 54.9642 150.991 55.4038 152.192 55.4038C154.951 55.4038 156.921 53.1861 156.921 50.2093C156.921 47.2324 154.951 45.0547 152.192 45.0547ZM151.7 52.9464C150.459 52.9464 149.237 52.0873 149.237 50.2093C149.237 48.3113 150.478 47.4921 151.7 47.4921C153.099 47.4921 154.222 48.551 154.222 50.2292C154.222 51.9075 153.079 52.9464 151.7 52.9464Z" fill="#475569"/>
<path d="M159.008 55.164H161.668V40.1798H159.008V55.164Z" fill="#475569"/>
<path d="M168.299 45.0547C166.584 45.0547 165.186 45.714 164.043 47.0925L165.422 48.7508C166.23 47.8917 166.959 47.3922 168.003 47.3922C169.205 47.3922 169.816 48.0515 169.816 49.1304V49.5699H167.373C165.126 49.5699 163.688 50.6488 163.688 52.4469C163.688 54.1251 164.929 55.4038 167.057 55.4038C168.318 55.4038 169.343 54.9443 170.032 54.205V55.164H172.475V49.2902C172.475 46.4732 170.781 45.0547 168.299 45.0547ZM167.767 53.4259C166.939 53.4259 166.368 53.0263 166.368 52.347C166.368 51.6877 166.86 51.3481 167.727 51.3481H169.816V51.4679C169.816 52.6267 168.89 53.4259 167.767 53.4259Z" fill="#475569"/>
<path d="M180.335 45.0547C179.133 45.0547 178.148 45.4942 177.478 46.1735V45.2744H175.035V55.164H177.695V49.3901C177.695 48.2513 178.464 47.4721 179.547 47.4721C180.631 47.4721 181.36 48.2513 181.36 49.3901V55.164H184V49.0305C184 46.653 182.621 45.0547 180.335 45.0547Z" fill="#475569"/>
<path d="M300.544 270.043H302.541V265.827H306.86V270.043H308.857V260.28H306.86V264.023H302.541V260.28H300.544V270.043Z" fill="#475569"/>
<path d="M317.747 265.96C317.747 264.067 316.356 262.558 314.3 262.558C312.141 262.558 310.469 264.23 310.469 266.389C310.469 268.549 312.155 270.22 314.478 270.22C315.602 270.22 316.578 269.821 317.406 269.126L316.578 267.765C315.986 268.223 315.336 268.505 314.537 268.505C313.472 268.505 312.717 267.987 312.481 267.055H317.613C317.673 266.803 317.747 266.375 317.747 265.96ZM314.226 264.171C315.069 264.171 315.794 264.718 315.809 265.65H312.481C312.703 264.733 313.383 264.171 314.226 264.171Z" fill="#475569"/>
<path d="M322.307 262.558C321.02 262.558 319.97 263.046 319.112 264.067L320.148 265.295C320.754 264.659 321.301 264.289 322.085 264.289C322.988 264.289 323.446 264.777 323.446 265.576V265.901H321.612C319.926 265.901 318.846 266.7 318.846 268.031C318.846 269.274 319.778 270.22 321.375 270.22C322.322 270.22 323.091 269.88 323.609 269.333V270.043H325.443V265.694C325.443 263.609 324.171 262.558 322.307 262.558ZM321.908 268.756C321.287 268.756 320.858 268.46 320.858 267.957C320.858 267.469 321.227 267.218 321.878 267.218H323.446V267.306C323.446 268.164 322.751 268.756 321.908 268.756Z" fill="#475569"/>
<path d="M332.69 258.949V263.431C332.172 262.869 331.418 262.558 330.501 262.558C328.43 262.558 326.951 264.185 326.951 266.389C326.951 268.593 328.43 270.22 330.501 270.22C331.506 270.22 332.35 269.836 332.852 269.141V270.043H334.687V258.949H332.69ZM330.87 268.401C329.82 268.401 328.977 267.617 328.977 266.375C328.977 265.132 329.835 264.363 330.87 264.363C331.787 264.363 332.719 264.999 332.719 266.389C332.719 267.795 331.787 268.401 330.87 268.401Z" fill="#475569"/>
<path d="M340.173 270.22C341.622 270.22 342.747 269.496 343.353 268.401L341.963 267.336C341.534 267.942 341.001 268.386 340.202 268.386C339.063 268.386 338.28 267.528 338.28 266.375C338.28 265.236 339.063 264.378 340.202 264.378C341.016 264.378 341.548 264.821 341.963 265.443L343.353 264.363C342.747 263.268 341.637 262.558 340.173 262.558C337.984 262.558 336.253 264.215 336.253 266.375C336.253 268.549 337.984 270.22 340.173 270.22Z" fill="#475569"/>
<path d="M348.175 270.206C350.379 270.206 352.124 268.505 352.124 266.375C352.124 264.245 350.379 262.558 348.19 262.558C345.986 262.558 344.27 264.23 344.27 266.375C344.27 268.519 345.986 270.206 348.175 270.206ZM348.19 268.371C347.095 268.371 346.296 267.543 346.296 266.389C346.296 265.221 347.095 264.378 348.19 264.378C349.269 264.378 350.083 265.236 350.083 266.389C350.083 267.528 349.269 268.371 348.19 268.371Z" fill="#475569"/>
<path d="M356.996 270.22C358.905 270.22 360.354 268.889 360.354 266.818V262.721H358.357V266.981C358.357 267.839 357.751 268.386 356.996 268.386C356.213 268.386 355.606 267.839 355.606 266.981V262.721H353.609V266.818C353.609 268.889 355.059 270.22 356.996 270.22Z" fill="#475569"/>
<path d="M366.242 262.558C365.34 262.558 364.6 262.884 364.098 263.387V262.721H362.263V270.043H364.26V265.768C364.26 264.925 364.837 264.348 365.651 264.348C366.464 264.348 367.011 264.925 367.011 265.768V270.043H368.994V265.502C368.994 263.742 367.958 262.558 366.242 262.558Z" fill="#475569"/>
<path d="M374.673 268.431C373.756 268.431 373.312 268.135 373.312 267.292V264.407H375.383V262.721H373.312V260.872H371.315V262.721H370.161V264.407H371.315V267.469C371.315 269.348 372.439 270.22 374.244 270.22C374.762 270.22 375.205 270.146 375.619 270.043V268.371C375.235 268.401 374.91 268.431 374.673 268.431Z" fill="#475569"/>
<path d="M55.5941 220.157C57.5318 220.157 59.0109 219.047 59.0109 217.228C59.0109 215.838 58.1382 215.054 56.5999 214.373L55.4905 213.885C54.7806 213.56 54.3516 213.323 54.3516 212.761C54.3516 212.11 54.9137 211.814 55.5645 211.814C56.3632 211.814 56.9549 212.229 57.4282 212.939L58.789 211.888C58.2122 210.823 57.1176 210.039 55.5645 210.039C53.7304 210.039 52.3252 211.119 52.3252 212.805C52.3252 214.211 53.3458 215.009 54.6918 215.616L55.742 216.089C56.5112 216.444 56.9845 216.666 56.9845 217.302C56.9845 217.982 56.452 218.382 55.5941 218.382C54.4256 218.382 53.7304 217.701 53.1979 216.962L51.8223 217.997C52.547 219.299 53.9079 220.157 55.5941 220.157Z" fill="#475569"/>
<path d="M63.9453 220.157C65.8534 220.157 67.3029 218.826 67.3029 216.755V212.658H65.3061V216.918C65.3061 217.775 64.6996 218.323 63.9453 218.323C63.1613 218.323 62.5549 217.775 62.5549 216.918V212.658H60.558V216.755C60.558 218.826 62.0076 220.157 63.9453 220.157Z" fill="#475569"/>
<path d="M73.3982 212.495C72.4811 212.495 71.7267 212.805 71.209 213.368V208.886H69.2122V219.979H71.0463V219.077C71.5492 219.757 72.3923 220.157 73.3982 220.157C75.469 220.157 76.9481 218.53 76.9481 216.326C76.9481 214.122 75.469 212.495 73.3982 212.495ZM73.0284 218.337C72.1113 218.337 71.1794 217.731 71.1794 216.326C71.1794 214.935 72.0965 214.299 73.0284 214.299C74.0638 214.299 74.9217 215.069 74.9217 216.311C74.9217 217.554 74.0786 218.337 73.0284 218.337Z" fill="#475569"/>
<path d="M82.7006 212.495C81.6948 212.495 80.8517 212.879 80.3488 213.575V212.658H78.5146V222.642H80.5115V219.269C81.0292 219.831 81.7983 220.157 82.7006 220.157C84.7714 220.157 86.2505 218.515 86.2505 216.311C86.2505 214.107 84.7714 212.495 82.7006 212.495ZM82.3308 218.337C81.3989 218.337 80.4819 217.701 80.4819 216.311C80.4819 214.906 81.4137 214.299 82.3308 214.299C83.381 214.299 84.2241 215.083 84.2241 216.326C84.2241 217.568 83.3662 218.337 82.3308 218.337Z" fill="#475569"/>
<path d="M87.8171 219.979H89.8139V208.886H87.8171V219.979Z" fill="#475569"/>
<path d="M94.792 212.495C93.5052 212.495 92.455 212.983 91.5971 214.004L92.6325 215.231C93.2389 214.595 93.7862 214.225 94.5702 214.225C95.4724 214.225 95.931 214.714 95.931 215.512V215.838H94.0968C92.4106 215.838 91.3308 216.636 91.3308 217.968C91.3308 219.21 92.2627 220.157 93.8602 220.157C94.8068 220.157 95.576 219.817 96.0937 219.269V219.979H97.9278V215.631C97.9278 213.545 96.6558 212.495 94.792 212.495ZM94.3927 218.692C93.7714 218.692 93.3425 218.397 93.3425 217.894C93.3425 217.406 93.7123 217.154 94.3631 217.154H95.931V217.243C95.931 218.101 95.2358 218.692 94.3927 218.692Z" fill="#475569"/>
<path d="M103.828 212.495C102.926 212.495 102.187 212.82 101.684 213.323V212.658H99.8496V219.979H101.846V215.705C101.846 214.861 102.423 214.285 103.237 214.285C104.05 214.285 104.598 214.861 104.598 215.705V219.979H106.58V215.438C106.58 213.678 105.544 212.495 103.828 212.495Z" fill="#475569"/>
<path d="M110.869 220.157C112.466 220.157 113.723 219.329 113.723 217.82C113.723 216.681 112.984 216.119 111.667 215.586L110.957 215.29C110.425 215.069 110.188 214.921 110.188 214.64C110.188 214.285 110.499 214.122 110.972 214.122C111.564 214.122 112.141 214.373 112.614 214.817L113.62 213.589C112.954 212.85 112.052 212.495 110.987 212.495C109.434 212.495 108.295 213.279 108.295 214.684C108.295 215.838 109.049 216.415 110.292 216.918L111.076 217.243C111.519 217.435 111.83 217.568 111.83 217.909C111.83 218.323 111.401 218.515 110.898 218.515C110.114 218.515 109.434 218.13 108.842 217.524L107.836 218.737C108.487 219.595 109.567 220.157 110.869 220.157Z" fill="#475569"/>
<path d="M272.204 220.157C274.29 220.157 276.006 219.047 276.864 217.509V214.625H272.175V216.355H274.867V217.154C274.334 217.894 273.432 218.367 272.293 218.367C270.326 218.367 269.039 216.991 269.039 215.098C269.039 213.234 270.281 211.888 272.175 211.888C273.373 211.888 274.246 212.421 274.896 213.323L276.316 212.155C275.384 210.823 273.95 210.039 272.204 210.039C269.261 210.039 266.983 212.229 266.983 215.098C266.983 217.968 269.276 220.157 272.204 220.157Z" fill="#475569"/>
<path d="M281.953 220.142C284.157 220.142 285.902 218.441 285.902 216.311C285.902 214.181 284.157 212.495 281.968 212.495C279.764 212.495 278.048 214.166 278.048 216.311C278.048 218.456 279.764 220.142 281.953 220.142ZM281.968 218.308C280.873 218.308 280.074 217.48 280.074 216.326C280.074 215.157 280.873 214.314 281.968 214.314C283.047 214.314 283.861 215.172 283.861 216.326C283.861 217.465 283.047 218.308 281.968 218.308Z" fill="#475569"/>
<path d="M290.464 212.495C289.177 212.495 288.127 212.983 287.269 214.004L288.304 215.231C288.911 214.595 289.458 214.225 290.242 214.225C291.144 214.225 291.603 214.714 291.603 215.512V215.838H289.769C288.082 215.838 287.003 216.636 287.003 217.968C287.003 219.21 287.935 220.157 289.532 220.157C290.479 220.157 291.248 219.817 291.766 219.269V219.979H293.6V215.631C293.6 213.545 292.328 212.495 290.464 212.495ZM290.065 218.692C289.443 218.692 289.014 218.397 289.014 217.894C289.014 217.406 289.384 217.154 290.035 217.154H291.603V217.243C291.603 218.101 290.908 218.692 290.065 218.692Z" fill="#475569"/>
<path d="M295.521 219.979H297.518V208.886H295.521V219.979Z" fill="#475569"/>
<path d="M301.86 220.157C303.458 220.157 304.715 219.329 304.715 217.82C304.715 216.681 303.976 216.119 302.659 215.586L301.949 215.29C301.417 215.069 301.18 214.921 301.18 214.64C301.18 214.285 301.491 214.122 301.964 214.122C302.556 214.122 303.132 214.373 303.606 214.817L304.612 213.589C303.946 212.85 303.044 212.495 301.979 212.495C300.426 212.495 299.287 213.279 299.287 214.684C299.287 215.838 300.041 216.415 301.283 216.918L302.067 217.243C302.511 217.435 302.822 217.568 302.822 217.909C302.822 218.323 302.393 218.515 301.89 218.515C301.106 218.515 300.426 218.13 299.834 217.524L298.828 218.737C299.479 219.595 300.559 220.157 301.86 220.157Z" fill="#475569"/>
<path d="M540.183 111.066H545.89V109.539H541.872V107.449H544.713V106.01H541.872V104.333H545.74V102.806H540.183V111.066Z" fill="#475569"/>
<path d="M550.611 104.733C549.848 104.733 549.222 105.009 548.797 105.434V104.871H547.245V111.066H548.934V107.449C548.934 106.736 549.422 106.248 550.111 106.248C550.799 106.248 551.262 106.736 551.262 107.449V111.066H552.939V107.224C552.939 105.735 552.063 104.733 550.611 104.733Z" fill="#475569"/>
<path d="M557.107 104.733C556.018 104.733 555.129 105.146 554.403 106.01L555.279 107.049C555.792 106.511 556.256 106.198 556.919 106.198C557.682 106.198 558.07 106.611 558.07 107.287V107.562H556.518C555.092 107.562 554.178 108.238 554.178 109.364C554.178 110.416 554.966 111.217 556.318 111.217C557.119 111.217 557.77 110.929 558.208 110.466V111.066H559.76V107.387C559.76 105.622 558.684 104.733 557.107 104.733ZM556.769 109.977C556.243 109.977 555.88 109.727 555.88 109.302C555.88 108.889 556.193 108.676 556.744 108.676H558.07V108.751C558.07 109.477 557.482 109.977 556.769 109.977Z" fill="#475569"/>
<path d="M564.928 104.733C564.152 104.733 563.514 104.996 563.076 105.472V101.679H561.386V111.066H562.938V110.303C563.364 110.879 564.077 111.217 564.928 111.217C566.68 111.217 567.932 109.84 567.932 107.975C567.932 106.11 566.68 104.733 564.928 104.733ZM564.615 109.677C563.839 109.677 563.051 109.164 563.051 107.975C563.051 106.798 563.827 106.26 564.615 106.26C565.491 106.26 566.217 106.911 566.217 107.962C566.217 109.014 565.504 109.677 564.615 109.677Z" fill="#475569"/>
<path d="M569.257 111.066H570.947V101.679H569.257V111.066Z" fill="#475569"/>
<path d="M578.426 107.612C578.426 106.01 577.249 104.733 575.51 104.733C573.682 104.733 572.268 106.148 572.268 107.975C572.268 109.802 573.695 111.217 575.66 111.217C576.611 111.217 577.437 110.879 578.138 110.29L577.437 109.139C576.936 109.527 576.386 109.765 575.71 109.765C574.809 109.765 574.17 109.327 573.97 108.538H578.313C578.363 108.325 578.426 107.962 578.426 107.612ZM575.447 106.098C576.161 106.098 576.774 106.561 576.786 107.349H573.97C574.158 106.573 574.734 106.098 575.447 106.098Z" fill="#475569"/>
<path d="M587.282 111.217C588.884 111.217 590.223 110.428 590.937 109.164L589.66 108.263C589.11 109.139 588.334 109.652 587.295 109.652C585.755 109.652 584.629 108.538 584.629 106.949C584.629 105.347 585.755 104.22 587.295 104.22C588.334 104.22 589.11 104.733 589.66 105.609L590.937 104.708C590.211 103.444 588.884 102.656 587.295 102.656C584.829 102.656 582.889 104.508 582.889 106.936C582.889 109.364 584.829 111.217 587.282 111.217Z" fill="#475569"/>
<path d="M595.092 111.204C596.956 111.204 598.433 109.765 598.433 107.962C598.433 106.16 596.956 104.733 595.104 104.733C593.239 104.733 591.787 106.148 591.787 107.962C591.787 109.777 593.239 111.204 595.092 111.204ZM595.104 109.652C594.178 109.652 593.502 108.951 593.502 107.975C593.502 106.986 594.178 106.273 595.104 106.273C596.018 106.273 596.706 106.999 596.706 107.975C596.706 108.939 596.018 109.652 595.104 109.652Z" fill="#475569"/>
<path d="M601.755 111.217C603.107 111.217 604.171 110.516 604.171 109.239C604.171 108.275 603.545 107.8 602.431 107.349L601.83 107.099C601.38 106.911 601.179 106.786 601.179 106.548C601.179 106.248 601.442 106.11 601.843 106.11C602.343 106.11 602.831 106.323 603.232 106.698L604.083 105.66C603.52 105.034 602.756 104.733 601.855 104.733C600.541 104.733 599.577 105.397 599.577 106.586C599.577 107.562 600.216 108.05 601.267 108.476L601.93 108.751C602.306 108.914 602.569 109.026 602.569 109.314C602.569 109.665 602.206 109.827 601.78 109.827C601.117 109.827 600.541 109.502 600.04 108.989L599.189 110.015C599.74 110.741 600.654 111.217 601.755 111.217Z" fill="#475569"/>
<path d="M608.627 109.702C607.851 109.702 607.476 109.452 607.476 108.738V106.298H609.228V104.871H607.476V103.307H605.786V104.871H604.81V106.298H605.786V108.889C605.786 110.478 606.737 111.217 608.264 111.217C608.702 111.217 609.078 111.154 609.428 111.066V109.652C609.103 109.677 608.827 109.702 608.627 109.702Z" fill="#475569"/>
<path d="M617.117 111.204C618.981 111.204 620.458 109.765 620.458 107.962C620.458 106.16 618.981 104.733 617.129 104.733C615.264 104.733 613.812 106.148 613.812 107.962C613.812 109.777 615.264 111.204 617.117 111.204ZM617.129 109.652C616.203 109.652 615.527 108.951 615.527 107.975C615.527 106.986 616.203 106.273 617.129 106.273C618.043 106.273 618.731 106.999 618.731 107.975C618.731 108.939 618.043 109.652 617.129 109.652Z" fill="#475569"/>
<path d="M624.881 103.044C625.044 103.044 625.194 103.056 625.382 103.081V101.667C625.144 101.592 624.844 101.529 624.456 101.529C623.017 101.529 622.065 102.268 622.065 103.857V104.871H621.189V106.298H622.065V111.066H623.755V106.298H625.119V104.871H623.755V104.007C623.755 103.294 624.13 103.044 624.881 103.044Z" fill="#475569"/>
<path d="M638.486 102.806L636.646 107.662L634.481 102.656H633.918L631.752 107.687L629.913 102.806H628.035L631.339 111.217H631.89L634.206 106.035L636.509 111.217H637.059L640.363 102.806H638.486Z" fill="#475569"/>
<path d="M643.725 111.204C645.59 111.204 647.067 109.765 647.067 107.962C647.067 106.16 645.59 104.733 643.738 104.733C641.873 104.733 640.421 106.148 640.421 107.962C640.421 109.777 641.873 111.204 643.725 111.204ZM643.738 109.652C642.811 109.652 642.135 108.951 642.135 107.975C642.135 106.986 642.811 106.273 643.738 106.273C644.651 106.273 645.34 106.999 645.34 107.975C645.34 108.939 644.651 109.652 643.738 109.652Z" fill="#475569"/>
<path d="M651.64 104.796C650.964 104.796 650.351 105.084 649.938 105.609V104.871H648.386V111.066H650.076V107.975C650.076 106.861 650.764 106.36 651.74 106.36H652.191V104.871C652.028 104.821 651.865 104.796 651.64 104.796Z" fill="#475569"/>
<path d="M659.346 111.066L656.83 107.612L659.158 104.871H657.156L654.928 107.512V101.679H653.238V111.066H654.928V107.637L657.419 111.066H659.346Z" fill="#475569"/>
<path d="M663.346 103.044C663.508 103.044 663.659 103.056 663.846 103.081V101.667C663.608 101.592 663.308 101.529 662.92 101.529C661.481 101.529 660.53 102.268 660.53 103.857V104.871H659.653V106.298H660.53V111.066H662.219V106.298H663.583V104.871H662.219V104.007C662.219 103.294 662.595 103.044 663.346 103.044Z" fill="#475569"/>
<path d="M667.473 111.204C669.338 111.204 670.815 109.765 670.815 107.962C670.815 106.16 669.338 104.733 667.486 104.733C665.621 104.733 664.169 106.148 664.169 107.962C664.169 109.777 665.621 111.204 667.473 111.204ZM667.486 109.652C666.56 109.652 665.884 108.951 665.884 107.975C665.884 106.986 666.56 106.273 667.486 106.273C668.399 106.273 669.088 106.999 669.088 107.975C669.088 108.939 668.399 109.652 667.486 109.652Z" fill="#475569"/>
<path d="M675.388 104.796C674.712 104.796 674.099 105.084 673.686 105.609V104.871H672.134V111.066H673.824V107.975C673.824 106.861 674.512 106.36 675.488 106.36H675.939V104.871C675.776 104.821 675.614 104.796 675.388 104.796Z" fill="#475569"/>
<path d="M679.831 111.217C681.057 111.217 682.008 110.603 682.521 109.677L681.345 108.776C680.982 109.289 680.531 109.665 679.856 109.665C678.892 109.665 678.229 108.939 678.229 107.962C678.229 106.999 678.892 106.273 679.856 106.273C680.544 106.273 680.995 106.648 681.345 107.174L682.521 106.26C682.008 105.334 681.07 104.733 679.831 104.733C677.978 104.733 676.514 106.135 676.514 107.962C676.514 109.802 677.978 111.217 679.831 111.217Z" fill="#475569"/>
<path d="M689.455 107.612C689.455 106.01 688.279 104.733 686.539 104.733C684.712 104.733 683.297 106.148 683.297 107.975C683.297 109.802 684.724 111.217 686.689 111.217C687.64 111.217 688.466 110.879 689.167 110.29L688.466 109.139C687.966 109.527 687.415 109.765 686.739 109.765C685.838 109.765 685.2 109.327 685 108.538H689.343C689.393 108.325 689.455 107.962 689.455 107.612ZM686.476 106.098C687.19 106.098 687.803 106.561 687.816 107.349H685C685.187 106.573 685.763 106.098 686.476 106.098Z" fill="#475569"/>
<path d="M620.11 269.041C621.601 269.041 622.739 268.188 622.739 266.788C622.739 265.719 622.067 265.116 620.884 264.592L620.031 264.217C619.485 263.967 619.155 263.785 619.155 263.352C619.155 262.852 619.587 262.624 620.088 262.624C620.702 262.624 621.157 262.943 621.521 263.489L622.568 262.681C622.124 261.862 621.282 261.259 620.088 261.259C618.677 261.259 617.596 262.089 617.596 263.386C617.596 264.467 618.381 265.082 619.416 265.548L620.224 265.912C620.816 266.185 621.18 266.356 621.18 266.845C621.18 267.369 620.77 267.676 620.11 267.676C619.212 267.676 618.677 267.152 618.267 266.584L617.209 267.38C617.767 268.381 618.813 269.041 620.11 269.041Z" fill="#475569"/>
<path d="M629.265 265.764C629.265 264.308 628.196 263.147 626.614 263.147C624.953 263.147 623.667 264.433 623.667 266.094C623.667 267.755 624.964 269.041 626.751 269.041C627.615 269.041 628.366 268.734 629.003 268.199L628.366 267.152C627.911 267.505 627.41 267.721 626.796 267.721C625.977 267.721 625.397 267.323 625.215 266.606H629.163C629.208 266.413 629.265 266.083 629.265 265.764ZM626.557 264.388C627.206 264.388 627.763 264.809 627.775 265.525H625.215C625.385 264.82 625.909 264.388 626.557 264.388Z" fill="#475569"/>
<path d="M633.354 267.664C632.648 267.664 632.307 267.437 632.307 266.788V264.57H633.9V263.272H632.307V261.85H630.771V263.272H629.883V264.57H630.771V266.925C630.771 268.37 631.636 269.041 633.024 269.041C633.422 269.041 633.763 268.984 634.082 268.905V267.619C633.786 267.642 633.536 267.664 633.354 267.664Z" fill="#475569"/>
<path d="M642.073 269.041C643.677 269.041 644.997 268.188 645.657 267.004V264.786H642.05V266.117H644.121V266.731C643.711 267.3 643.017 267.664 642.141 267.664C640.627 267.664 639.638 266.606 639.638 265.15C639.638 263.716 640.593 262.681 642.05 262.681C642.971 262.681 643.643 263.09 644.143 263.785L645.236 262.886C644.519 261.862 643.415 261.259 642.073 261.259C639.808 261.259 638.056 262.943 638.056 265.15C638.056 267.357 639.82 269.041 642.073 269.041Z" fill="#475569"/>
<path d="M649.571 269.03C651.267 269.03 652.609 267.721 652.609 266.083C652.609 264.444 651.267 263.147 649.583 263.147C647.887 263.147 646.568 264.433 646.568 266.083C646.568 267.733 647.887 269.03 649.571 269.03ZM649.583 267.619C648.741 267.619 648.126 266.982 648.126 266.094C648.126 265.195 648.741 264.547 649.583 264.547C650.413 264.547 651.039 265.207 651.039 266.094C651.039 266.97 650.413 267.619 649.583 267.619Z" fill="#475569"/>
<path d="M656.118 263.147C655.128 263.147 654.321 263.523 653.661 264.308L654.457 265.252C654.924 264.763 655.345 264.479 655.948 264.479C656.642 264.479 656.994 264.854 656.994 265.468V265.719H655.584C654.286 265.719 653.456 266.333 653.456 267.357C653.456 268.313 654.173 269.041 655.402 269.041C656.13 269.041 656.721 268.779 657.12 268.358V268.905H658.53V265.559C658.53 263.955 657.552 263.147 656.118 263.147ZM655.811 267.915C655.333 267.915 655.003 267.687 655.003 267.3C655.003 266.925 655.288 266.731 655.788 266.731H656.994V266.8C656.994 267.46 656.46 267.915 655.811 267.915Z" fill="#475569"/>
<path d="M660.009 268.905H661.545V260.371H660.009V268.905Z" fill="#475569"/>
<path d="M620.11 320.242C621.601 320.242 622.739 319.389 622.739 317.989C622.739 316.92 622.067 316.317 620.884 315.794L620.031 315.418C619.485 315.168 619.155 314.986 619.155 314.553C619.155 314.053 619.587 313.825 620.088 313.825C620.702 313.825 621.157 314.144 621.521 314.69L622.568 313.882C622.124 313.063 621.282 312.46 620.088 312.46C618.677 312.46 617.596 313.29 617.596 314.587C617.596 315.668 618.381 316.283 619.416 316.749L620.224 317.113C620.816 317.386 621.18 317.557 621.18 318.046C621.18 318.57 620.77 318.877 620.11 318.877C619.212 318.877 618.677 318.354 618.267 317.785L617.209 318.581C617.767 319.582 618.813 320.242 620.11 320.242Z" fill="#475569"/>
<path d="M629.265 316.965C629.265 315.509 628.196 314.349 626.614 314.349C624.953 314.349 623.667 315.634 623.667 317.295C623.667 318.957 624.964 320.242 626.751 320.242C627.615 320.242 628.366 319.935 629.003 319.4L628.366 318.354C627.911 318.706 627.41 318.922 626.796 318.922C625.977 318.922 625.397 318.524 625.215 317.807H629.163C629.208 317.614 629.265 317.284 629.265 316.965ZM626.557 315.589C627.206 315.589 627.763 316.01 627.775 316.727H625.215C625.385 316.021 625.909 315.589 626.557 315.589Z" fill="#475569"/>
<path d="M633.354 318.866C632.648 318.866 632.307 318.638 632.307 317.989V315.771H633.9V314.474H632.307V313.051H630.771V314.474H629.883V315.771H630.771V318.126C630.771 319.571 631.636 320.242 633.024 320.242C633.422 320.242 633.763 320.185 634.082 320.106V318.82C633.786 318.843 633.536 318.866 633.354 318.866Z" fill="#475569"/>
<path d="M642.073 320.242C643.677 320.242 644.997 319.389 645.657 318.206V315.987H642.05V317.318H644.121V317.933C643.711 318.501 643.017 318.866 642.141 318.866C640.627 318.866 639.638 317.807 639.638 316.351C639.638 314.917 640.593 313.882 642.05 313.882C642.971 313.882 643.643 314.292 644.143 314.986L645.236 314.087C644.519 313.063 643.415 312.46 642.073 312.46C639.808 312.46 638.056 314.144 638.056 316.351C638.056 318.558 639.82 320.242 642.073 320.242Z" fill="#475569"/>
<path d="M649.571 320.231C651.267 320.231 652.609 318.922 652.609 317.284C652.609 315.646 651.267 314.349 649.583 314.349C647.887 314.349 646.568 315.634 646.568 317.284C646.568 318.934 647.887 320.231 649.571 320.231ZM649.583 318.82C648.741 318.82 648.126 318.183 648.126 317.295C648.126 316.397 648.741 315.748 649.583 315.748C650.413 315.748 651.039 316.408 651.039 317.295C651.039 318.172 650.413 318.82 649.583 318.82Z" fill="#475569"/>
<path d="M656.118 314.349C655.128 314.349 654.321 314.724 653.661 315.509L654.457 316.453C654.924 315.964 655.345 315.68 655.948 315.68C656.642 315.68 656.994 316.055 656.994 316.67V316.92H655.584C654.286 316.92 653.456 317.534 653.456 318.558C653.456 319.514 654.173 320.242 655.402 320.242C656.13 320.242 656.721 319.981 657.12 319.56V320.106H658.53V316.761C658.53 315.156 657.552 314.349 656.118 314.349ZM655.811 319.116C655.333 319.116 655.003 318.888 655.003 318.501C655.003 318.126 655.288 317.933 655.788 317.933H656.994V318.001C656.994 318.661 656.46 319.116 655.811 319.116Z" fill="#475569"/>
<path d="M660.009 320.106H661.545V311.572H660.009V320.106Z" fill="#475569"/>
<path d="M40 237.046H245.943V344H40V237.046Z" fill="#F8FAFC"/>
<path d="M305.171 321.421C307.065 321.421 308.647 320.489 309.49 318.995L307.982 317.93C307.331 318.966 306.414 319.572 305.186 319.572C303.367 319.572 302.036 318.256 302.036 316.377C302.036 314.484 303.367 313.153 305.186 313.153C306.414 313.153 307.331 313.759 307.982 314.795L309.49 313.73C308.632 312.236 307.065 311.304 305.186 311.304C302.272 311.304 299.979 313.493 299.979 316.363C299.979 319.232 302.272 321.421 305.171 321.421Z" fill="#475569"/>
<path d="M314.401 321.406C316.605 321.406 318.35 319.705 318.35 317.575C318.35 315.445 316.605 313.759 314.415 313.759C312.211 313.759 310.496 315.431 310.496 317.575C310.496 319.72 312.211 321.406 314.401 321.406ZM314.415 319.572C313.321 319.572 312.522 318.744 312.522 317.59C312.522 316.422 313.321 315.579 314.415 315.579C315.495 315.579 316.309 316.437 316.309 317.59C316.309 318.729 315.495 319.572 314.415 319.572Z" fill="#475569"/>
<path d="M322.276 321.421C323.873 321.421 325.13 320.593 325.13 319.084C325.13 317.945 324.391 317.383 323.074 316.851L322.364 316.555C321.832 316.333 321.595 316.185 321.595 315.904C321.595 315.549 321.906 315.386 322.379 315.386C322.971 315.386 323.548 315.638 324.021 316.082L325.027 314.854C324.361 314.114 323.459 313.759 322.394 313.759C320.841 313.759 319.702 314.543 319.702 315.948C319.702 317.102 320.456 317.679 321.699 318.182L322.483 318.507C322.926 318.7 323.237 318.833 323.237 319.173C323.237 319.587 322.808 319.779 322.305 319.779C321.521 319.779 320.841 319.395 320.249 318.788L319.243 320.001C319.894 320.859 320.974 321.421 322.276 321.421Z" fill="#475569"/>
<path d="M330.397 319.631C329.48 319.631 329.036 319.336 329.036 318.493V315.608H331.107V313.922H329.036V312.073H327.04V313.922H325.886V315.608H327.04V318.67C327.04 320.549 328.164 321.421 329.968 321.421C330.486 321.421 330.93 321.347 331.344 321.244V319.572C330.959 319.602 330.634 319.631 330.397 319.631Z" fill="#475569"/>
<path d="M340.43 321.406C342.634 321.406 344.379 319.705 344.379 317.575C344.379 315.445 342.634 313.759 340.445 313.759C338.241 313.759 336.525 315.431 336.525 317.575C336.525 319.72 338.241 321.406 340.43 321.406ZM340.445 319.572C339.35 319.572 338.552 318.744 338.552 317.59C338.552 316.422 339.35 315.579 340.445 315.579C341.525 315.579 342.338 316.437 342.338 317.59C342.338 318.729 341.525 319.572 340.445 319.572Z" fill="#475569"/>
<path d="M349.607 311.762C349.799 311.762 349.976 311.777 350.198 311.807V310.135C349.917 310.047 349.562 309.973 349.104 309.973C347.403 309.973 346.279 310.845 346.279 312.724V313.922H345.243V315.608H346.279V321.244H348.275V315.608H349.888V313.922H348.275V312.901C348.275 312.058 348.719 311.762 349.607 311.762Z" fill="#475569"/>
<path d="M363.652 313.922L361.951 318.004L359.924 313.759H359.258L357.262 318.093L355.531 313.922H353.431L356.833 321.421H357.483L359.599 317.161L361.699 321.421H362.35L365.752 313.922H363.652Z" fill="#475569"/>
<path d="M370.129 321.406C372.332 321.406 374.078 319.705 374.078 317.575C374.078 315.445 372.332 313.759 370.143 313.759C367.939 313.759 366.224 315.431 366.224 317.575C366.224 319.72 367.939 321.406 370.129 321.406ZM370.143 319.572C369.049 319.572 368.25 318.744 368.25 317.59C368.25 316.422 369.049 315.579 370.143 315.579C371.223 315.579 372.037 316.437 372.037 317.59C372.037 318.729 371.223 319.572 370.143 319.572Z" fill="#475569"/>
<path d="M379.483 313.833C378.684 313.833 377.959 314.173 377.471 314.795V313.922H375.637V321.244H377.634V317.59C377.634 316.274 378.447 315.682 379.601 315.682H380.133V313.922C379.941 313.863 379.749 313.833 379.483 313.833Z" fill="#475569"/>
<path d="M388.59 321.244L385.617 317.161L388.368 313.922H386.001L383.368 317.043V310.15H381.371V321.244H383.368V317.191L386.312 321.244H388.59Z" fill="#475569"/>
<path d="M393.317 311.762C393.509 311.762 393.686 311.777 393.908 311.807V310.135C393.627 310.047 393.272 309.973 392.814 309.973C391.113 309.973 389.989 310.845 389.989 312.724V313.922H388.953V315.608H389.989V321.244H391.985V315.608H393.598V313.922H391.985V312.901C391.985 312.058 392.429 311.762 393.317 311.762Z" fill="#475569"/>
<path d="M398.195 321.406C400.399 321.406 402.144 319.705 402.144 317.575C402.144 315.445 400.399 313.759 398.21 313.759C396.006 313.759 394.29 315.431 394.29 317.575C394.29 319.72 396.006 321.406 398.195 321.406ZM398.21 319.572C397.115 319.572 396.316 318.744 396.316 317.59C396.316 316.422 397.115 315.579 398.21 315.579C399.289 315.579 400.103 316.437 400.103 317.59C400.103 318.729 399.289 319.572 398.21 319.572Z" fill="#475569"/>
<path d="M407.549 313.833C406.75 313.833 406.025 314.173 405.537 314.795V313.922H403.703V321.244H405.7V317.59C405.7 316.274 406.513 315.682 407.667 315.682H408.2V313.922C408.007 313.863 407.815 313.833 407.549 313.833Z" fill="#475569"/>
<path d="M412.799 321.421C414.248 321.421 415.373 320.696 415.979 319.602L414.589 318.537C414.16 319.143 413.627 319.587 412.828 319.587C411.689 319.587 410.906 318.729 410.906 317.575C410.906 316.437 411.689 315.579 412.828 315.579C413.642 315.579 414.174 316.022 414.589 316.644L415.979 315.564C415.373 314.469 414.263 313.759 412.799 313.759C410.61 313.759 408.879 315.416 408.879 317.575C408.879 319.75 410.61 321.421 412.799 321.421Z" fill="#475569"/>
<path d="M424.173 317.161C424.173 315.268 422.783 313.759 420.727 313.759C418.567 313.759 416.896 315.431 416.896 317.59C416.896 319.75 418.582 321.421 420.904 321.421C422.029 321.421 423.005 321.022 423.833 320.327L423.005 318.966C422.413 319.424 421.762 319.705 420.964 319.705C419.899 319.705 419.144 319.188 418.908 318.256H424.04C424.099 318.004 424.173 317.575 424.173 317.161ZM420.653 315.372C421.496 315.372 422.221 315.919 422.236 316.851H418.908C419.129 315.934 419.81 315.372 420.653 315.372Z" fill="#475569"/>
<path d="M429.404 317.339H435.794V315.667H429.404V317.339Z" fill="#475569"/>
<path d="M448.842 311.481H446.639L444.494 315.357L442.334 311.481H440.116L443.488 317.413V321.244H445.485V317.398L448.842 311.481Z" fill="#475569"/>
<path d="M452.422 321.244H454.419V313.286H457.555V311.481H449.301V313.286H452.422V321.244Z" fill="#475569"/>
<path d="M458.871 321.244H462.066C465.202 321.244 467.391 319.217 467.391 316.333C467.391 313.404 465.202 311.481 462.066 311.481H458.871V321.244ZM460.868 319.439V313.286H462.051C464.018 313.286 465.335 314.41 465.335 316.333C465.335 318.212 464.018 319.439 462.051 319.439H460.868Z" fill="#475569"/>
<path d="M40 112.732C40 109.276 42.8018 106.474 46.2579 106.474H138.42C141.876 106.474 144.678 109.276 144.678 112.732C144.678 116.189 141.876 118.99 138.42 118.99H46.2579C42.8018 118.99 40 116.189 40 112.732Z" fill="#E2E8F0"/>
<path d="M51.3779 266.061C51.3779 262.605 54.1797 259.803 57.6359 259.803H108.837C112.293 259.803 115.095 262.605 115.095 266.061C115.095 269.517 112.293 272.319 108.837 272.319H57.6359C54.1797 272.319 51.3779 269.517 51.3779 266.061Z" fill="#CBD5E1"/>
<path d="M121.922 266.061C121.922 262.605 124.724 259.803 128.18 259.803H156.625C160.081 259.803 162.883 262.605 162.883 266.061C162.883 269.517 160.081 272.319 156.625 272.319H128.18C124.724 272.319 121.922 269.517 121.922 266.061Z" fill="#CBD5E1"/>
<path d="M40 163.934C40 160.477 42.8018 157.676 46.2579 157.676H288.61C292.066 157.676 294.868 160.477 294.868 163.934C294.868 167.39 292.066 170.192 288.61 170.192H46.2579C42.8018 170.192 40 167.39 40 163.934Z" fill="#E2E8F0"/>
<path d="M40 93.3896C40 89.9335 42.8018 87.1317 46.2579 87.1317H86.0811C89.5372 87.1317 92.339 89.9335 92.339 93.3896C92.339 96.8458 89.5372 99.6476 86.0811 99.6476H46.2579C42.8018 99.6476 40 96.8458 40 93.3896Z" fill="#CBD5E1"/>
<path d="M40 144.591C40 141.135 42.8018 138.333 46.2579 138.333H86.0811C89.5372 138.333 92.339 141.135 92.339 144.591C92.339 148.047 89.5372 150.849 86.0811 150.849H46.2579C42.8018 150.849 40 148.047 40 144.591Z" fill="#CBD5E1"/>
<path d="M291.457 265.491C291.457 271.147 286.872 275.731 281.216 275.731C275.561 275.731 270.976 271.147 270.976 265.491C270.976 259.836 275.561 255.251 281.216 255.251C286.872 255.251 291.457 259.836 291.457 265.491Z" fill="#FFCD41"/>
<path d="M281.216 264.353C282.473 264.353 283.492 263.335 283.492 262.078C283.492 260.821 282.473 259.802 281.216 259.802C279.96 259.802 278.941 260.821 278.941 262.078C278.941 263.335 279.96 264.353 281.216 264.353Z" fill="white"/>
<path d="M275.907 271.18C275.907 268.248 278.284 265.871 281.216 265.871C284.149 265.871 286.526 268.248 286.526 271.18H275.907Z" fill="white"/>
<path fill-rule="evenodd" clip-rule="evenodd" d="M604.351 273.456C608.75 273.456 612.316 269.89 612.316 265.491C612.316 261.093 608.75 257.527 604.351 257.527C599.952 257.527 596.387 261.093 596.387 265.491C596.387 269.89 599.952 273.456 604.351 273.456ZM608.042 264.204C608.431 263.815 608.431 263.185 608.042 262.796C607.653 262.407 607.023 262.407 606.634 262.796L603.356 266.075L602.068 264.787C601.68 264.399 601.049 264.399 600.66 264.787C600.272 265.176 600.272 265.807 600.66 266.195L602.652 268.187C603.04 268.575 603.671 268.575 604.06 268.187L608.042 264.204Z" fill="#0287C6"/>
<path fill-rule="evenodd" clip-rule="evenodd" d="M604.351 324.657C608.75 324.657 612.316 321.091 612.316 316.693C612.316 312.294 608.75 308.728 604.351 308.728C599.952 308.728 596.387 312.294 596.387 316.693C596.387 321.091 599.952 324.657 604.351 324.657ZM608.042 315.405C608.431 315.017 608.431 314.386 608.042 313.997C607.653 313.609 607.023 313.609 606.634 313.997L603.356 317.276L602.068 315.989C601.68 315.6 601.049 315.6 600.66 315.989C600.272 316.377 600.272 317.008 600.66 317.397L602.652 319.388C603.04 319.776 603.671 319.776 604.06 319.388L608.042 315.405Z" fill="#0287C6"/>
<path d="M291.457 316.692C291.457 322.348 286.872 326.933 281.216 326.933C275.561 326.933 270.976 322.348 270.976 316.692C270.976 311.037 275.561 306.452 281.216 306.452C286.872 306.452 291.457 311.037 291.457 316.692Z" fill="#2E700E"/>
<path d="M280.102 314.856C280.212 314.783 280.348 314.717 280.505 314.666L280.505 315.874C280.348 315.823 280.212 315.758 280.102 315.684C279.843 315.512 279.794 315.351 279.794 315.27C279.794 315.189 279.843 315.029 280.102 314.856Z" fill="white"/>
<path d="M281.927 318.718L281.927 317.511C282.084 317.562 282.22 317.627 282.33 317.701C282.589 317.873 282.639 318.034 282.639 318.115C282.639 318.196 282.589 318.356 282.33 318.529C282.22 318.602 282.084 318.668 281.927 318.718Z" fill="white"/>
<path fill-rule="evenodd" clip-rule="evenodd" d="M281.216 322.381C284.358 322.381 286.905 319.834 286.905 316.692C286.905 313.55 284.358 311.003 281.216 311.003C278.074 311.003 275.527 313.55 275.527 316.692C275.527 319.834 278.074 322.381 281.216 322.381ZM281.927 313.137C281.927 312.744 281.609 312.426 281.216 312.426C280.824 312.426 280.505 312.744 280.505 313.137V313.202C280.063 313.285 279.654 313.445 279.313 313.673C278.8 314.015 278.372 314.566 278.372 315.27C278.372 315.975 278.8 316.525 279.313 316.868C279.654 317.095 280.063 317.255 280.505 317.338L280.505 318.719C280.227 318.628 280.021 318.493 279.905 318.36C279.648 318.063 279.199 318.031 278.902 318.289C278.606 318.546 278.574 318.995 278.831 319.292C279.231 319.753 279.836 320.057 280.505 320.182L280.505 320.248C280.505 320.641 280.824 320.959 281.216 320.959C281.609 320.959 281.927 320.641 281.927 320.248L281.927 320.183C282.37 320.1 282.778 319.939 283.119 319.712C283.633 319.37 284.061 318.819 284.061 318.115C284.061 317.41 283.633 316.859 283.119 316.517C282.778 316.29 282.37 316.13 281.927 316.047L281.927 314.666C282.206 314.757 282.412 314.892 282.527 315.025C282.785 315.322 283.234 315.354 283.53 315.096C283.827 314.839 283.859 314.39 283.601 314.093C283.201 313.632 282.596 313.328 281.927 313.202V313.137Z" fill="white"/>
<path fill-rule="evenodd" clip-rule="evenodd" d="M687.871 194.135H41.1287V342.865H687.871V194.135ZM40 193V344H689V193H40Z" fill="#E2E8F0"/>
<path d="M463 107.085C463 99.8582 468.858 94 476.085 94H495.996V120.17H476.085C468.858 120.17 463 114.311 463 107.085Z" fill="#70C945"/>
<path d="M528.993 107.085C528.993 114.311 523.134 120.17 515.908 120.17L495.996 120.17L495.996 94.0001L515.908 94.0001C523.134 94.0001 528.993 99.8583 528.993 107.085Z" fill="#E2E8F0"/>
<path fill-rule="evenodd" clip-rule="evenodd" d="M480.067 115.618C484.466 115.618 488.032 112.052 488.032 107.654C488.032 103.255 484.466 99.6891 480.067 99.6891C475.668 99.6891 472.102 103.255 472.102 107.654C472.102 112.052 475.668 115.618 480.067 115.618ZM483.758 106.367C484.147 105.978 484.147 105.347 483.758 104.959C483.369 104.57 482.739 104.57 482.35 104.959L479.071 108.237L477.784 106.95C477.396 106.561 476.765 106.561 476.376 106.95C475.988 107.339 475.988 107.969 476.376 108.358L478.368 110.349C478.756 110.738 479.387 110.738 479.775 110.349L483.758 106.367Z" fill="white"/>
<path fill-rule="evenodd" clip-rule="evenodd" d="M688 238H40V237H688V238Z" fill="#E2E8F0"/>
<path fill-rule="evenodd" clip-rule="evenodd" d="M688 289L244 289L244 288L688 288L688 289Z" fill="#E2E8F0"/>
<defs>
<filter id="filter0_d_903_39004" x="0" y="0" width="739" height="392" filterUnits="userSpaceOnUse" color-interpolation-filters="sRGB">
<feFlood flood-opacity="0" result="BackgroundImageFix"/>
<feColorMatrix in="SourceAlpha" type="matrix" values="0 0 0 0 0 0 0 0 0 0 0 0 0 0 0 0 0 0 127 0" result="hardAlpha"/>
<feOffset dx="8" dy="8"/>
<feComposite in2="hardAlpha" operator="out"/>
<feColorMatrix type="matrix" values="0 0 0 0 0.886275 0 0 0 0 0.909804 0 0 0 0 0.941176 0 0 0 1 0"/>
<feBlend mode="normal" in2="BackgroundImageFix" result="effect1_dropShadow_903_39004"/>
<feBlend mode="normal" in="SourceGraphic" in2="effect1_dropShadow_903_39004" result="shape"/>
</filter>
</defs>
</svg>
