<svg width="738" height="484" viewBox="0 0 738 484" fill="none" xmlns="http://www.w3.org/2000/svg">
<g filter="url(#filter0_d_903_29003)">
<rect x="0.5" y="0.5" width="729" height="475" rx="11.5" fill="white" stroke="#E2E8F0"/>
<path d="M528 61H730V463C730 469.627 724.627 475 718 475H528V61Z" fill="#F2FBFF"/>
<path d="M0 13C0 6.37257 5.37258 1 12 1H56V476H12C5.37258 476 0 470.627 0 464V13Z" fill="#F1F5F9"/>
<path d="M28 394.508C26.5469 394.508 25.25 394.766 24.1094 395.281C22.9375 395.766 21.875 396.484 20.9219 397.438C20.0625 398.297 19.3516 399.352 18.7891 400.602C18.2578 401.914 17.9922 403.211 17.9922 404.492C17.9922 405.93 18.2578 407.234 18.7891 408.406C19.2734 409.578 19.9844 410.633 20.9219 411.57C21.7656 412.414 22.8281 413.125 24.1094 413.703C25.4062 414.234 26.7031 414.5 28 414.5C29.4219 414.5 30.7188 414.234 31.8906 413.703C33.0938 413.203 34.1562 412.492 35.0781 411.57C35.9688 410.68 36.6875 409.617 37.2344 408.383C37.75 407.133 38.0078 405.836 38.0078 404.492C38.0078 403.07 37.75 401.773 37.2344 400.602C36.7656 399.461 36.0469 398.406 35.0781 397.438C34.2031 396.562 33.1406 395.844 31.8906 395.281C30.6406 394.766 29.3438 394.508 28 394.508ZM28 396.5C28.5469 396.5 29.0469 396.633 29.5 396.898C29.9688 397.164 30.3359 397.531 30.6016 398C30.8672 398.453 31 398.953 31 399.5C31 400.047 30.8672 400.555 30.6016 401.023C30.3359 401.477 29.9688 401.836 29.5 402.102C29.0469 402.367 28.5469 402.5 28 402.5C27.4531 402.5 26.9453 402.367 26.4766 402.102C26.0234 401.836 25.6641 401.477 25.3984 401.023C25.1328 400.555 25 400.047 25 399.5C25 398.953 25.1328 398.453 25.3984 398C25.6641 397.531 26.0234 397.164 26.4766 396.898C26.9453 396.633 27.4531 396.5 28 396.5ZM30.1328 412.508H25.9375C25.6562 412.508 25.3438 412.297 25 411.875C24.6562 411.438 24.3281 410.875 24.0156 410.188C23.7188 409.484 23.4844 408.758 23.3125 408.008C23.1094 407.211 23.0078 406.492 23.0078 405.852C23.0078 405.133 23.125 404.57 23.3594 404.164C23.6406 403.727 24.0625 403.508 24.625 403.508H31.3516C31.9141 403.508 32.3359 403.727 32.6172 404.164C32.8672 404.57 33 405.133 33.0156 405.852C33.0156 406.492 32.9219 407.211 32.7344 408.008C32.5625 408.758 32.3203 409.484 32.0078 410.188C31.7109 410.875 31.3984 411.43 31.0703 411.852C30.7266 412.289 30.4141 412.508 30.1328 412.508Z" fill="#CBD5E1"/>
<path d="M31.4922 451.297L25.8906 445.602C25.7031 445.398 25.4688 445.297 25.1875 445.297C24.9219 445.297 24.6953 445.398 24.5078 445.602C24.3047 445.789 24.1953 446.016 24.1797 446.281C24.1641 446.547 24.2344 446.789 24.3906 447.008L29.2891 452L24.3906 456.992C24.2031 457.195 24.1094 457.43 24.1094 457.695C24.1094 457.961 24.2031 458.195 24.3906 458.398C24.5938 458.602 24.8281 458.703 25.0938 458.703C25.3594 458.703 25.5938 458.602 25.7969 458.398L31.4922 452.797C31.7109 452.594 31.8281 452.344 31.8438 452.047C31.8594 451.734 31.7422 451.484 31.4922 451.297H31.5391H31.4922Z" fill="#CBD5E1"/>
<path d="M26.6641 91.7344C27.6328 91.7344 28.5469 91.9141 29.4062 92.2734C30.2656 92.6328 31.0234 93.1406 31.6797 93.7969C32.3359 94.4531 32.8438 95.2031 33.2031 96.0469C33.5781 96.9219 33.7656 97.8438 33.7656 98.8125C33.7656 100.078 33.4062 101.312 32.6875 102.516L36.1562 106.008C36.3125 106.164 36.3906 106.359 36.3906 106.594C36.3906 106.828 36.3125 107.023 36.1562 107.18L35.0312 108.305C34.875 108.461 34.6797 108.539 34.4453 108.539C34.2109 108.539 34.0156 108.461 33.8594 108.305L30.3906 104.836C29.2031 105.539 27.9609 105.891 26.6641 105.891C25.6953 105.891 24.7812 105.711 23.9219 105.352C23.0625 104.992 22.3047 104.484 21.6484 103.828C20.9922 103.172 20.4844 102.414 20.125 101.555C19.7656 100.695 19.5859 99.7812 19.5859 98.8125C19.5859 97.8438 19.7656 96.9297 20.125 96.0703C20.4844 95.2109 20.9922 94.4531 21.6484 93.7969C22.3047 93.1406 23.0625 92.6328 23.9219 92.2734C24.7812 91.9141 25.6953 91.7344 26.6641 91.7344ZM26.6641 93.8906C26.0078 93.8906 25.375 94.0234 24.7656 94.2891C24.1562 94.5391 23.625 94.8906 23.1719 95.3438C22.7188 95.7969 22.3672 96.3203 22.1172 96.9141C21.8672 97.5078 21.7422 98.1406 21.7422 98.8125C21.7422 99.4688 21.8672 100.102 22.1172 100.711C22.3828 101.305 22.7422 101.828 23.1953 102.281C24.1641 103.25 25.3203 103.734 26.6641 103.734C27.3203 103.734 27.9531 103.602 28.5625 103.336C29.1875 103.07 29.7188 102.719 30.1562 102.281C31.1094 101.328 31.5859 100.172 31.5859 98.8125C31.5859 98.1562 31.4531 97.5234 31.1875 96.9141C30.9375 96.2891 30.5859 95.75 30.1328 95.2969C29.6797 94.8438 29.1562 94.5 28.5625 94.2656C27.9844 94.0156 27.3516 93.8906 26.6641 93.8906Z" fill="#CBD5E1"/>
<path d="M27.3672 154.031L20.8281 152.695V140.977L27.3672 142.312V154.031ZM28.6562 154.031V142.312L35.1484 140.977V152.695L28.6562 154.031ZM36.5781 153.938V143.086H37.375V154.781L28 156.797L18.625 154.781V143.086H19.4453V153.938L28 155.766L36.5781 153.938Z" fill="#CBD5E1"/>
<path d="M19.4688 190.875H36.5078C36.8516 190.875 37.1406 190.758 37.375 190.523C37.6094 190.289 37.7266 190 37.7266 189.656V188.438C37.7266 188.094 37.6094 187.805 37.375 187.57C37.1406 187.336 36.8516 187.219 36.5078 187.219H19.4688C19.125 187.219 18.8359 187.336 18.6016 187.57C18.3672 187.805 18.25 188.094 18.25 188.438V189.656C18.25 190 18.3672 190.289 18.6016 190.523C18.8359 190.758 19.125 190.875 19.4688 190.875ZM19.4688 196.969H31.6328C31.9609 196.969 32.2422 196.852 32.4766 196.617C32.7266 196.367 32.8516 196.078 32.8516 195.75V194.508C32.8516 194.18 32.7266 193.898 32.4766 193.664C32.2422 193.43 31.9609 193.312 31.6328 193.312H19.4688C19.125 193.312 18.8359 193.43 18.6016 193.664C18.3672 193.898 18.25 194.18 18.25 194.508V195.75C18.25 196.078 18.3672 196.367 18.6016 196.617C18.8359 196.852 19.125 196.969 19.4688 196.969ZM19.4688 203.039H28C28.3281 203.039 28.6094 202.922 28.8438 202.688C29.0938 202.453 29.2188 202.164 29.2188 201.82V200.625C29.2188 200.281 29.0938 199.992 28.8438 199.758C28.6094 199.523 28.3281 199.406 28 199.406H19.4688C19.125 199.406 18.8359 199.523 18.6016 199.758C18.3672 199.992 18.25 200.281 18.25 200.625V201.82C18.25 202.164 18.3672 202.453 18.6016 202.688C18.8359 202.922 19.125 203.039 19.4688 203.039Z" fill="#CBD5E1"/>
<path d="M38.0078 248.508V238.5L26.9922 236.508V249.305C26.9922 249.617 27.1094 249.875 27.3438 250.078C27.5938 250.266 27.875 250.336 28.1875 250.289L38.0078 248.508ZM25 249V238.008L23.0078 237.492V248.203C23.0078 248.531 23.1328 248.797 23.3828 249C23.6328 249.188 23.9141 249.25 24.2266 249.188L25 249ZM20.9922 247.992V238.992L19 238.5V247.219C19 247.547 19.125 247.812 19.375 248.016C19.6406 248.203 19.9297 248.258 20.2422 248.18L20.9922 247.992Z" fill="#CBD5E1"/>
<path d="M35.9922 299.508L31.1875 288.305L20.0078 283.5L24.8125 294.703L35.9922 299.508ZM29.2891 292.805C28.9297 293.164 28.5 293.344 28 293.344C27.5 293.344 27.0703 293.164 26.7109 292.805C26.3516 292.445 26.1719 292.016 26.1719 291.516C26.1719 291 26.3516 290.562 26.7109 290.203C27.0703 289.844 27.5 289.664 28 289.664C28.5 289.664 28.9297 289.844 29.2891 290.203C29.6484 290.562 29.8281 291 29.8281 291.516C29.8281 292.016 29.6484 292.445 29.2891 292.805Z" fill="#64748B"/>
<path d="M21.3906 328.5H34.6094C35.0469 328.5 35.4453 328.609 35.8047 328.828C36.1641 329.047 36.4531 329.344 36.6719 329.719C36.8906 330.078 37 330.477 37 330.914V344.086C37 344.523 36.8906 344.922 36.6719 345.281C36.4531 345.641 36.1641 345.93 35.8047 346.148C35.4453 346.367 35.0469 346.477 34.6094 346.477H20.9922L28.4922 338.953L31.3281 341.812L32.2891 333.211L23.7109 334.172L26.5 337.008L19 344.531V330.914C19 330.477 19.1094 330.078 19.3281 329.719C19.5469 329.344 19.8359 329.047 20.1953 328.828C20.5547 328.609 20.9531 328.5 21.3906 328.5Z" fill="#CBD5E1"/>
<circle cx="28" cy="38" r="21" fill="#CBD5E1"/>
<path fill-rule="evenodd" clip-rule="evenodd" d="M18.2896 29.6202C18.2896 30.5149 17.553 31.2404 16.6445 31.2404C15.736 31.2404 15 30.5149 15 29.6202C15 28.7255 15.736 28 16.6445 28C17.553 28 18.2896 28.7255 18.2896 29.6202Z" fill="#F1F5F9"/>
<path fill-rule="evenodd" clip-rule="evenodd" d="M20.4593 37.7304C20.1834 37.7304 19.9043 37.661 19.6484 37.5159C18.8717 37.0743 18.6055 36.0956 19.0539 35.3306L22.8585 28.8404C23.3069 28.0755 24.3007 27.8133 25.0774 28.2549C25.8547 28.6966 26.1209 29.6753 25.6718 30.4402L21.8679 36.9305C21.5668 37.4434 21.0208 37.7304 20.4593 37.7304Z" fill="#F1F5F9"/>
<path fill-rule="evenodd" clip-rule="evenodd" d="M24.3043 44.2891C24.0284 44.2891 23.7493 44.2198 23.4934 44.0747C22.7167 43.633 22.4505 42.6543 22.899 41.8894L24.1208 39.8047C24.5693 39.0398 25.5631 38.7776 26.3397 39.2192C27.1171 39.6615 27.3833 40.6396 26.9342 41.4051L25.713 43.4892C25.4119 44.0021 24.8659 44.2891 24.3043 44.2891Z" fill="#F1F5F9"/>
<path fill-rule="evenodd" clip-rule="evenodd" d="M28.771 36.6696C28.4951 36.6696 28.2159 36.6002 27.96 36.4551C27.1834 36.0135 26.9171 35.0348 27.3656 34.2699L30.5408 28.8531C30.9899 28.0882 31.983 27.826 32.7597 28.2677C33.537 28.7093 33.8032 29.6874 33.3548 30.4529L30.1796 35.8697C29.8785 36.3826 29.3325 36.6696 28.771 36.6696Z" fill="#F1F5F9"/>
<path fill-rule="evenodd" clip-rule="evenodd" d="M28.1601 50.8666C27.8842 50.8666 27.6051 50.7979 27.3492 50.6522C26.5725 50.2105 26.3063 49.2324 26.7547 48.4669L32.9979 37.818C33.4463 37.0531 34.4401 36.7909 35.2168 37.2325C35.9934 37.6742 36.2597 38.6529 35.8112 39.4178L29.5687 50.0667C29.2676 50.5796 28.7216 50.8666 28.1601 50.8666Z" fill="#F1F5F9"/>
<path fill-rule="evenodd" clip-rule="evenodd" d="M37.6483 34.6828C37.3724 34.6828 37.0933 34.6134 36.8374 34.4683C36.0607 34.0261 35.7945 33.048 36.243 32.2831L38.2564 28.8486C38.7048 28.0837 39.6986 27.8215 40.4753 28.2632C41.2519 28.7048 41.5182 29.6835 41.0697 30.4484L39.057 33.8829C38.7558 34.3958 38.2098 34.6828 37.6483 34.6828Z" fill="#F1F5F9"/>
<path d="M106.292 42.78H113.67V44.854H108.587V47.659H112.752V49.733H108.587V54H106.292V42.78ZM115.237 45.585H117.532V54H115.237V45.585ZM116.376 43.936C115.968 43.936 115.622 43.8 115.339 43.528C115.055 43.256 114.914 42.9217 114.914 42.525C114.914 42.117 115.055 41.777 115.339 41.505C115.622 41.233 115.968 41.097 116.376 41.097C116.784 41.097 117.129 41.233 117.413 41.505C117.707 41.777 117.855 42.117 117.855 42.525C117.855 42.9217 117.707 43.256 117.413 43.528C117.129 43.8 116.784 43.936 116.376 43.936ZM122.522 54.204C121.785 54.204 121.117 54.0623 120.516 53.779C119.915 53.4843 119.422 53.082 119.037 52.572L120.193 51.178C120.93 51.9373 121.717 52.317 122.556 52.317C122.862 52.317 123.117 52.2603 123.321 52.147C123.525 52.0223 123.627 51.8467 123.627 51.62C123.627 51.4387 123.559 51.3027 123.423 51.212C123.298 51.11 123.077 50.991 122.76 50.855L121.859 50.481C121.088 50.1637 120.51 49.8123 120.125 49.427C119.751 49.0417 119.564 48.5373 119.564 47.914C119.564 47.1207 119.847 46.503 120.414 46.061C120.992 45.619 121.74 45.398 122.658 45.398C123.916 45.398 124.925 45.8173 125.684 46.656L124.528 48.067C123.961 47.5343 123.332 47.268 122.641 47.268C122.358 47.268 122.137 47.319 121.978 47.421C121.819 47.523 121.74 47.6703 121.74 47.863C121.74 48.0217 121.802 48.152 121.927 48.254C122.063 48.356 122.295 48.475 122.624 48.611L123.44 48.951C124.256 49.2797 124.851 49.6367 125.225 50.022C125.61 50.396 125.803 50.8947 125.803 51.518C125.803 52.3567 125.491 53.014 124.868 53.49C124.256 53.966 123.474 54.204 122.522 54.204ZM131.567 54.204C130.74 54.204 129.981 54.0113 129.289 53.626C128.609 53.2293 128.065 52.6967 127.657 52.028C127.261 51.348 127.062 50.6 127.062 49.784C127.062 48.968 127.261 48.2257 127.657 47.557C128.065 46.8883 128.609 46.3613 129.289 45.976C129.981 45.5907 130.74 45.398 131.567 45.398C132.395 45.398 133.12 45.585 133.743 45.959C134.367 46.3217 134.86 46.826 135.222 47.472L133.624 48.713C133.364 48.3277 133.069 48.0273 132.74 47.812C132.423 47.5967 132.043 47.489 131.601 47.489C130.955 47.489 130.423 47.71 130.003 48.152C129.595 48.5827 129.391 49.1267 129.391 49.784C129.391 50.4527 129.595 51.008 130.003 51.45C130.423 51.8807 130.955 52.096 131.601 52.096C132.032 52.096 132.406 51.994 132.723 51.79C133.052 51.5747 133.352 51.2743 133.624 50.889L135.222 52.113C134.86 52.759 134.361 53.269 133.726 53.643C133.103 54.017 132.383 54.204 131.567 54.204ZM140.369 45.398C141.469 45.398 142.341 45.7097 142.987 46.333C143.645 46.945 143.973 47.8347 143.973 49.002V54H141.865V53.184C141.559 53.5013 141.185 53.7507 140.743 53.932C140.313 54.1133 139.831 54.204 139.298 54.204C138.403 54.204 137.695 53.9717 137.173 53.507C136.652 53.031 136.391 52.4247 136.391 51.688C136.391 50.9287 136.675 50.3337 137.241 49.903C137.819 49.461 138.596 49.24 139.57 49.24H141.678V48.866C141.678 48.4013 141.542 48.0387 141.27 47.778C141.01 47.5173 140.624 47.387 140.114 47.387C139.684 47.387 139.298 47.4833 138.958 47.676C138.618 47.8573 138.261 48.1463 137.887 48.543L136.697 47.132C137.672 45.976 138.896 45.398 140.369 45.398ZM139.91 52.521C140.409 52.521 140.828 52.368 141.168 52.062C141.508 51.7447 141.678 51.3423 141.678 50.855V50.753H139.876C139.502 50.753 139.213 50.8267 139.009 50.974C138.805 51.11 138.703 51.3197 138.703 51.603C138.703 51.8863 138.811 52.113 139.026 52.283C139.253 52.4417 139.548 52.521 139.91 52.521ZM146.182 41.25H148.477V54H146.182V41.25ZM160.152 49.58V54H157.857V49.597L153.981 42.78H156.531L159.013 47.234L161.478 42.78H164.011L160.152 49.58ZM171.95 49.308C171.95 49.716 171.899 50.1353 171.797 50.566H165.898C166.034 51.0987 166.306 51.5123 166.714 51.807C167.133 52.0903 167.649 52.232 168.261 52.232C169.088 52.232 169.87 51.9487 170.607 51.382L171.559 52.946C170.562 53.7847 169.44 54.204 168.193 54.204C167.32 54.204 166.533 54.0113 165.83 53.626C165.127 53.2407 164.578 52.7137 164.181 52.045C163.784 51.365 163.586 50.617 163.586 49.801C163.586 48.985 163.779 48.2427 164.164 47.574C164.549 46.894 165.076 46.3613 165.745 45.976C166.425 45.5907 167.173 45.398 167.989 45.398C168.76 45.398 169.445 45.5737 170.046 45.925C170.647 46.265 171.111 46.7353 171.44 47.336C171.78 47.9253 171.95 48.5827 171.95 49.308ZM167.904 47.251C167.417 47.251 166.992 47.404 166.629 47.71C166.266 48.016 166.023 48.4297 165.898 48.951H169.723C169.712 48.4297 169.53 48.016 169.179 47.71C168.828 47.404 168.403 47.251 167.904 47.251ZM177.192 45.398C178.291 45.398 179.164 45.7097 179.81 46.333C180.467 46.945 180.796 47.8347 180.796 49.002V54H178.688V53.184C178.382 53.5013 178.008 53.7507 177.566 53.932C177.135 54.1133 176.653 54.204 176.121 54.204C175.225 54.204 174.517 53.9717 173.996 53.507C173.474 53.031 173.214 52.4247 173.214 51.688C173.214 50.9287 173.497 50.3337 174.064 49.903C174.642 49.461 175.418 49.24 176.393 49.24H178.501V48.866C178.501 48.4013 178.365 48.0387 178.093 47.778C177.832 47.5173 177.447 47.387 176.937 47.387C176.506 47.387 176.121 47.4833 175.781 47.676C175.441 47.8573 175.084 48.1463 174.71 48.543L173.52 47.132C174.494 45.976 175.718 45.398 177.192 45.398ZM176.733 52.521C177.231 52.521 177.651 52.368 177.991 52.062C178.331 51.7447 178.501 51.3423 178.501 50.855V50.753H176.699C176.325 50.753 176.036 50.8267 175.832 50.974C175.628 51.11 175.526 51.3197 175.526 51.603C175.526 51.8863 175.633 52.113 175.849 52.283C176.075 52.4417 176.37 52.521 176.733 52.521ZM187.424 45.483C187.708 45.483 187.957 45.517 188.172 45.585V47.608H187.56C186.869 47.608 186.319 47.795 185.911 48.169C185.503 48.5317 185.299 49.0757 185.299 49.801V54H183.004V45.585H185.112V46.588C185.396 46.2367 185.736 45.9647 186.132 45.772C186.529 45.5793 186.96 45.483 187.424 45.483ZM196.199 44.854H192.612V42.78H202.098V44.854H198.494V54H196.199V44.854ZM203.457 45.585H205.752V54H203.457V45.585ZM204.596 43.936C204.188 43.936 203.843 43.8 203.559 43.528C203.276 43.256 203.134 42.9217 203.134 42.525C203.134 42.117 203.276 41.777 203.559 41.505C203.843 41.233 204.188 41.097 204.596 41.097C205.004 41.097 205.35 41.233 205.633 41.505C205.928 41.777 206.075 42.117 206.075 42.525C206.075 42.9217 205.928 43.256 205.633 43.528C205.35 43.8 205.004 43.936 204.596 43.936ZM217.815 45.398C218.801 45.398 219.577 45.7097 220.144 46.333C220.71 46.945 220.994 47.761 220.994 48.781V54H218.699V49.104C218.699 48.6053 218.563 48.2087 218.291 47.914C218.019 47.6193 217.656 47.472 217.203 47.472C216.749 47.472 216.375 47.6193 216.081 47.914C215.797 48.2087 215.656 48.5883 215.656 49.053V54H213.361V49.104C213.361 48.6053 213.225 48.2087 212.953 47.914C212.681 47.6193 212.318 47.472 211.865 47.472C211.4 47.472 211.026 47.6193 210.743 47.914C210.459 48.2087 210.318 48.6053 210.318 49.104V54H208.023V45.585H210.131V46.333C210.414 46.0383 210.76 45.8117 211.168 45.653C211.576 45.483 212.023 45.398 212.511 45.398C213.621 45.398 214.454 45.8003 215.01 46.605C215.338 46.231 215.741 45.9363 216.217 45.721C216.704 45.5057 217.237 45.398 217.815 45.398ZM231.068 49.308C231.068 49.716 231.017 50.1353 230.915 50.566H225.016C225.152 51.0987 225.424 51.5123 225.832 51.807C226.251 52.0903 226.767 52.232 227.379 52.232C228.206 52.232 228.988 51.9487 229.725 51.382L230.677 52.946C229.68 53.7847 228.558 54.204 227.311 54.204C226.438 54.204 225.651 54.0113 224.948 53.626C224.245 53.2407 223.696 52.7137 223.299 52.045C222.902 51.365 222.704 50.617 222.704 49.801C222.704 48.985 222.897 48.2427 223.282 47.574C223.667 46.894 224.194 46.3613 224.863 45.976C225.543 45.5907 226.291 45.398 227.107 45.398C227.878 45.398 228.563 45.5737 229.164 45.925C229.765 46.265 230.229 46.7353 230.558 47.336C230.898 47.9253 231.068 48.5827 231.068 49.308ZM227.022 47.251C226.535 47.251 226.11 47.404 225.747 47.71C225.384 48.016 225.141 48.4297 225.016 48.951H228.841C228.83 48.4297 228.648 48.016 228.297 47.71C227.946 47.404 227.521 47.251 227.022 47.251ZM232.859 41.25H235.154V54H232.859V41.25ZM237.424 45.585H239.719V54H237.424V45.585ZM238.563 43.936C238.155 43.936 237.809 43.8 237.526 43.528C237.243 43.256 237.101 42.9217 237.101 42.525C237.101 42.117 237.243 41.777 237.526 41.505C237.809 41.233 238.155 41.097 238.563 41.097C238.971 41.097 239.317 41.233 239.6 41.505C239.895 41.777 240.042 42.117 240.042 42.525C240.042 42.9217 239.895 43.256 239.6 43.528C239.317 43.8 238.971 43.936 238.563 43.936ZM246.563 45.398C247.537 45.398 248.308 45.7097 248.875 46.333C249.441 46.945 249.725 47.761 249.725 48.781V54H247.447V49.087C247.447 48.5997 247.299 48.2087 247.005 47.914C246.721 47.608 246.347 47.455 245.883 47.455C245.418 47.455 245.033 47.608 244.727 47.914C244.432 48.2087 244.285 48.5997 244.285 49.087V54H241.99V45.585H244.098V46.35C244.392 46.0553 244.749 45.823 245.169 45.653C245.599 45.483 246.064 45.398 246.563 45.398ZM259.822 49.308C259.822 49.716 259.771 50.1353 259.669 50.566H253.77C253.906 51.0987 254.178 51.5123 254.586 51.807C255.005 52.0903 255.521 52.232 256.133 52.232C256.96 52.232 257.742 51.9487 258.479 51.382L259.431 52.946C258.434 53.7847 257.312 54.204 256.065 54.204C255.192 54.204 254.405 54.0113 253.702 53.626C252.999 53.2407 252.45 52.7137 252.053 52.045C251.656 51.365 251.458 50.617 251.458 49.801C251.458 48.985 251.651 48.2427 252.036 47.574C252.421 46.894 252.948 46.3613 253.617 45.976C254.297 45.5907 255.045 45.398 255.861 45.398C256.632 45.398 257.317 45.5737 257.918 45.925C258.519 46.265 258.983 46.7353 259.312 47.336C259.652 47.9253 259.822 48.5827 259.822 49.308ZM255.776 47.251C255.289 47.251 254.864 47.404 254.501 47.71C254.138 48.016 253.895 48.4297 253.77 48.951H257.595C257.584 48.4297 257.402 48.016 257.051 47.71C256.7 47.404 256.275 47.251 255.776 47.251Z" fill="#475569"/>
<path d="M105.988 92.42H107.743V95.709H111.539V92.42H113.294V101H111.539V97.295H107.743V101H105.988V92.42ZM121.107 97.412C121.107 97.724 121.068 98.0447 120.99 98.374H116.479C116.583 98.7813 116.791 99.0977 117.103 99.323C117.424 99.5397 117.818 99.648 118.286 99.648C118.919 99.648 119.517 99.4313 120.08 98.998L120.808 100.194C120.045 100.835 119.187 101.156 118.234 101.156C117.567 101.156 116.964 101.009 116.427 100.714C115.89 100.419 115.469 100.016 115.166 99.505C114.863 98.985 114.711 98.413 114.711 97.789C114.711 97.165 114.858 96.5973 115.153 96.086C115.448 95.566 115.851 95.1587 116.362 94.864C116.882 94.5693 117.454 94.422 118.078 94.422C118.667 94.422 119.192 94.5563 119.651 94.825C120.11 95.085 120.466 95.4447 120.717 95.904C120.977 96.3547 121.107 96.8573 121.107 97.412ZM118.013 95.839C117.64 95.839 117.315 95.956 117.038 96.19C116.761 96.424 116.574 96.7403 116.479 97.139H119.404C119.395 96.7403 119.257 96.424 118.988 96.19C118.719 95.956 118.394 95.839 118.013 95.839ZM125.115 94.422C125.956 94.422 126.623 94.6603 127.117 95.137C127.62 95.605 127.871 96.2853 127.871 97.178V101H126.259V100.376C126.025 100.619 125.739 100.809 125.401 100.948C125.072 101.087 124.704 101.156 124.296 101.156C123.612 101.156 123.07 100.978 122.671 100.623C122.273 100.259 122.073 99.7953 122.073 99.232C122.073 98.6513 122.29 98.1963 122.723 97.867C123.165 97.529 123.759 97.36 124.504 97.36H126.116V97.074C126.116 96.7187 126.012 96.4413 125.804 96.242C125.605 96.0427 125.31 95.943 124.92 95.943C124.591 95.943 124.296 96.0167 124.036 96.164C123.776 96.3027 123.503 96.5237 123.217 96.827L122.307 95.748C123.053 94.864 123.989 94.422 125.115 94.422ZM124.764 99.869C125.146 99.869 125.466 99.752 125.726 99.518C125.986 99.2753 126.116 98.9677 126.116 98.595V98.517H124.738C124.452 98.517 124.231 98.5733 124.075 98.686C123.919 98.79 123.841 98.9503 123.841 99.167C123.841 99.3837 123.924 99.557 124.088 99.687C124.262 99.8083 124.487 99.869 124.764 99.869ZM135.995 91.25V101H134.383V100.207C134.167 100.51 133.876 100.744 133.512 100.909C133.157 101.074 132.758 101.156 132.316 101.156C131.718 101.156 131.181 101.013 130.704 100.727C130.236 100.432 129.868 100.029 129.599 99.518C129.331 99.0067 129.196 98.4303 129.196 97.789C129.196 97.1477 129.331 96.5713 129.599 96.06C129.868 95.5487 130.236 95.15 130.704 94.864C131.181 94.5693 131.718 94.422 132.316 94.422C133.131 94.422 133.772 94.6777 134.24 95.189V91.25H135.995ZM132.641 99.557C133.083 99.557 133.465 99.4097 133.785 99.115C134.106 98.8117 134.266 98.3697 134.266 97.789C134.266 97.217 134.106 96.7793 133.785 96.476C133.465 96.164 133.083 96.008 132.641 96.008C132.173 96.008 131.779 96.1727 131.458 96.502C131.138 96.8227 130.977 97.2473 130.977 97.776C130.977 98.3133 131.133 98.7467 131.445 99.076C131.766 99.3967 132.165 99.557 132.641 99.557ZM140.817 101.156C140.185 101.156 139.604 101.009 139.075 100.714C138.555 100.411 138.139 100.003 137.827 99.492C137.524 98.972 137.372 98.4 137.372 97.776C137.372 97.152 137.524 96.5843 137.827 96.073C138.139 95.5617 138.555 95.1587 139.075 94.864C139.604 94.5693 140.185 94.422 140.817 94.422C141.45 94.422 142.005 94.565 142.481 94.851C142.958 95.1283 143.335 95.514 143.612 96.008L142.39 96.957C142.191 96.6623 141.966 96.4327 141.714 96.268C141.472 96.1033 141.181 96.021 140.843 96.021C140.349 96.021 139.942 96.19 139.621 96.528C139.309 96.8573 139.153 97.2733 139.153 97.776C139.153 98.2873 139.309 98.712 139.621 99.05C139.942 99.3793 140.349 99.544 140.843 99.544C141.173 99.544 141.459 99.466 141.701 99.31C141.953 99.1453 142.182 98.9157 142.39 98.621L143.612 99.557C143.335 100.051 142.954 100.441 142.468 100.727C141.992 101.013 141.441 101.156 140.817 101.156ZM147.85 101.143C147.217 101.143 146.637 100.996 146.108 100.701C145.588 100.398 145.176 99.9903 144.873 99.479C144.57 98.959 144.418 98.3913 144.418 97.776C144.418 97.1607 144.57 96.5973 144.873 96.086C145.176 95.566 145.592 95.1587 146.121 94.864C146.65 94.5693 147.23 94.422 147.863 94.422C148.496 94.422 149.076 94.5737 149.605 94.877C150.134 95.1717 150.55 95.5747 150.853 96.086C151.165 96.5973 151.321 97.1607 151.321 97.776C151.321 98.3913 151.165 98.959 150.853 99.479C150.55 99.9903 150.129 100.398 149.592 100.701C149.063 100.996 148.483 101.143 147.85 101.143ZM147.863 99.531C148.34 99.531 148.734 99.3663 149.046 99.037C149.367 98.7077 149.527 98.2917 149.527 97.789C149.527 97.2863 149.367 96.866 149.046 96.528C148.734 96.19 148.34 96.021 147.863 96.021C147.378 96.021 146.979 96.19 146.667 96.528C146.355 96.8573 146.199 97.2777 146.199 97.789C146.199 98.2917 146.355 98.7077 146.667 99.037C146.979 99.3663 147.378 99.531 147.863 99.531ZM155.603 101.156C155.04 101.156 154.529 101.035 154.069 100.792C153.619 100.541 153.263 100.19 153.003 99.739C152.752 99.2883 152.626 98.764 152.626 98.166V94.565H154.381V98.309C154.381 98.6817 154.494 98.9807 154.719 99.206C154.953 99.4313 155.248 99.544 155.603 99.544C155.941 99.544 156.223 99.4313 156.448 99.206C156.682 98.9807 156.799 98.6817 156.799 98.309V94.565H158.554V98.166C158.554 98.764 158.424 99.2883 158.164 99.739C157.913 100.19 157.562 100.541 157.111 100.792C156.661 101.035 156.158 101.156 155.603 101.156ZM163.729 94.422C164.475 94.422 165.064 94.6603 165.497 95.137C165.931 95.605 166.147 96.229 166.147 97.009V101H164.405V97.243C164.405 96.8703 164.293 96.5713 164.067 96.346C163.851 96.112 163.565 95.995 163.209 95.995C162.854 95.995 162.559 96.112 162.325 96.346C162.1 96.5713 161.987 96.8703 161.987 97.243V101H160.232V94.565H161.844V95.15C162.07 94.9247 162.343 94.747 162.663 94.617C162.993 94.487 163.348 94.422 163.729 94.422ZM171.139 99.583C171.243 99.583 171.52 99.5657 171.971 99.531V101C171.555 101.104 171.152 101.156 170.762 101.156C169.947 101.156 169.314 100.957 168.864 100.558C168.413 100.151 168.188 99.544 168.188 98.738V96.047H167.174V94.565H168.188V92.94H169.943V94.565H171.763V96.047H169.943V98.582C169.943 98.946 170.038 99.206 170.229 99.362C170.419 99.5093 170.723 99.583 171.139 99.583Z" fill="#64748B"/>
<path d="M105.988 246.42H111.63V248.006H107.743V250.151H110.928V251.737H107.743V255H105.988V246.42ZM115.55 255.156C114.986 255.156 114.475 255.035 114.016 254.792C113.565 254.541 113.21 254.19 112.95 253.739C112.698 253.288 112.573 252.764 112.573 252.166V248.565H114.328V252.309C114.328 252.682 114.44 252.981 114.666 253.206C114.9 253.431 115.194 253.544 115.55 253.544C115.888 253.544 116.169 253.431 116.395 253.206C116.629 252.981 116.746 252.682 116.746 252.309V248.565H118.501V252.166C118.501 252.764 118.371 253.288 118.111 253.739C117.859 254.19 117.508 254.541 117.058 254.792C116.607 255.035 116.104 255.156 115.55 255.156ZM120.179 245.25H121.934V255H120.179V245.25ZM123.67 245.25H125.425V255H123.67V245.25ZM126.875 250.099H130.151V251.568H126.875V250.099ZM134.906 253.583C135.01 253.583 135.288 253.566 135.738 253.531V255C135.322 255.104 134.919 255.156 134.529 255.156C133.715 255.156 133.082 254.957 132.631 254.558C132.181 254.151 131.955 253.544 131.955 252.738V250.047H130.941V248.565H131.955V246.94H133.71V248.565H135.53V250.047H133.71V252.582C133.71 252.946 133.806 253.206 133.996 253.362C134.187 253.509 134.49 253.583 134.906 253.583ZM137.013 248.565H138.768V255H137.013V248.565ZM137.884 247.304C137.572 247.304 137.307 247.2 137.091 246.992C136.874 246.784 136.766 246.528 136.766 246.225C136.766 245.913 136.874 245.653 137.091 245.445C137.307 245.237 137.572 245.133 137.884 245.133C138.196 245.133 138.46 245.237 138.677 245.445C138.902 245.653 139.015 245.913 139.015 246.225C139.015 246.528 138.902 246.784 138.677 246.992C138.46 247.2 138.196 247.304 137.884 247.304ZM147.992 248.422C148.746 248.422 149.339 248.66 149.773 249.137C150.206 249.605 150.423 250.229 150.423 251.009V255H148.668V251.256C148.668 250.875 148.564 250.571 148.356 250.346C148.148 250.121 147.87 250.008 147.524 250.008C147.177 250.008 146.891 250.121 146.666 250.346C146.449 250.571 146.341 250.862 146.341 251.217V255H144.586V251.256C144.586 250.875 144.482 250.571 144.274 250.346C144.066 250.121 143.788 250.008 143.442 250.008C143.086 250.008 142.8 250.121 142.584 250.346C142.367 250.571 142.259 250.875 142.259 251.256V255H140.504V248.565H142.116V249.137C142.332 248.912 142.597 248.738 142.909 248.617C143.221 248.487 143.563 248.422 143.936 248.422C144.785 248.422 145.422 248.73 145.847 249.345C146.098 249.059 146.406 248.834 146.77 248.669C147.142 248.504 147.55 248.422 147.992 248.422ZM158.127 251.412C158.127 251.724 158.088 252.045 158.01 252.374H153.499C153.603 252.781 153.811 253.098 154.123 253.323C154.443 253.54 154.838 253.648 155.306 253.648C155.938 253.648 156.536 253.431 157.1 252.998L157.828 254.194C157.065 254.835 156.207 255.156 155.254 255.156C154.586 255.156 153.984 255.009 153.447 254.714C152.909 254.419 152.489 254.016 152.186 253.505C151.882 252.985 151.731 252.413 151.731 251.789C151.731 251.165 151.878 250.597 152.173 250.086C152.467 249.566 152.87 249.159 153.382 248.864C153.902 248.569 154.474 248.422 155.098 248.422C155.687 248.422 156.211 248.556 156.671 248.825C157.13 249.085 157.485 249.445 157.737 249.904C157.997 250.355 158.127 250.857 158.127 251.412ZM155.033 249.839C154.66 249.839 154.335 249.956 154.058 250.19C153.78 250.424 153.594 250.74 153.499 251.139H156.424C156.415 250.74 156.276 250.424 156.008 250.19C155.739 249.956 155.414 249.839 155.033 249.839ZM169.172 251.412C169.172 251.724 169.133 252.045 169.055 252.374H164.544C164.648 252.781 164.856 253.098 165.168 253.323C165.488 253.54 165.883 253.648 166.351 253.648C166.983 253.648 167.581 253.431 168.145 252.998L168.873 254.194C168.11 254.835 167.252 255.156 166.299 255.156C165.631 255.156 165.029 255.009 164.492 254.714C163.954 254.419 163.534 254.016 163.231 253.505C162.927 252.985 162.776 252.413 162.776 251.789C162.776 251.165 162.923 250.597 163.218 250.086C163.512 249.566 163.915 249.159 164.427 248.864C164.947 248.569 165.519 248.422 166.143 248.422C166.732 248.422 167.256 248.556 167.716 248.825C168.175 249.085 168.53 249.445 168.782 249.904C169.042 250.355 169.172 250.857 169.172 251.412ZM166.078 249.839C165.705 249.839 165.38 249.956 165.103 250.19C164.825 250.424 164.639 250.74 164.544 251.139H167.469C167.46 250.74 167.321 250.424 167.053 250.19C166.784 249.956 166.459 249.839 166.078 249.839ZM176.976 248.565V257.34H175.221V254.376C174.987 254.627 174.705 254.822 174.376 254.961C174.047 255.091 173.687 255.156 173.297 255.156C172.699 255.156 172.162 255.009 171.685 254.714C171.217 254.419 170.849 254.016 170.58 253.505C170.311 252.994 170.177 252.417 170.177 251.776C170.177 251.135 170.311 250.563 170.58 250.06C170.849 249.549 171.217 249.15 171.685 248.864C172.162 248.569 172.699 248.422 173.297 248.422C173.739 248.422 174.138 248.504 174.493 248.669C174.857 248.834 175.147 249.068 175.364 249.371V248.565H176.976ZM173.622 253.557C174.064 253.557 174.445 253.405 174.766 253.102C175.087 252.79 175.247 252.348 175.247 251.776C175.247 251.195 175.087 250.758 174.766 250.463C174.445 250.16 174.064 250.008 173.622 250.008C173.145 250.008 172.747 250.173 172.426 250.502C172.114 250.823 171.958 251.252 171.958 251.789C171.958 252.318 172.118 252.747 172.439 253.076C172.76 253.397 173.154 253.557 173.622 253.557ZM181.629 255.156C181.065 255.156 180.554 255.035 180.095 254.792C179.644 254.541 179.289 254.19 179.029 253.739C178.777 253.288 178.652 252.764 178.652 252.166V248.565H180.407V252.309C180.407 252.682 180.519 252.981 180.745 253.206C180.979 253.431 181.273 253.544 181.629 253.544C181.967 253.544 182.248 253.431 182.474 253.206C182.708 252.981 182.825 252.682 182.825 252.309V248.565H184.58V252.166C184.58 252.764 184.45 253.288 184.19 253.739C183.938 254.19 183.587 254.541 183.137 254.792C182.686 255.035 182.183 255.156 181.629 255.156ZM186.258 248.565H188.013V255H186.258V248.565ZM187.129 247.304C186.817 247.304 186.552 247.2 186.336 246.992C186.119 246.784 186.011 246.528 186.011 246.225C186.011 245.913 186.119 245.653 186.336 245.445C186.552 245.237 186.817 245.133 187.129 245.133C187.441 245.133 187.705 245.237 187.922 245.445C188.147 245.653 188.26 245.913 188.26 246.225C188.26 246.528 188.147 246.784 187.922 246.992C187.705 247.2 187.441 247.304 187.129 247.304ZM195.989 248.565L192.804 255.156H192.219L189.034 248.565H190.88L192.505 252.205L194.13 248.565H195.989ZM199.396 248.422C200.236 248.422 200.904 248.66 201.398 249.137C201.9 249.605 202.152 250.285 202.152 251.178V255H200.54V254.376C200.306 254.619 200.02 254.809 199.682 254.948C199.352 255.087 198.984 255.156 198.577 255.156C197.892 255.156 197.35 254.978 196.952 254.623C196.553 254.259 196.354 253.795 196.354 253.232C196.354 252.651 196.57 252.196 197.004 251.867C197.446 251.529 198.039 251.36 198.785 251.36H200.397V251.074C200.397 250.719 200.293 250.441 200.085 250.242C199.885 250.043 199.591 249.943 199.201 249.943C198.871 249.943 198.577 250.017 198.317 250.164C198.057 250.303 197.784 250.524 197.498 250.827L196.588 249.748C197.333 248.864 198.269 248.422 199.396 248.422ZM199.045 253.869C199.426 253.869 199.747 253.752 200.007 253.518C200.267 253.275 200.397 252.968 200.397 252.595V252.517H199.019C198.733 252.517 198.512 252.573 198.356 252.686C198.2 252.79 198.122 252.95 198.122 253.167C198.122 253.384 198.204 253.557 198.369 253.687C198.542 253.808 198.767 253.869 199.045 253.869ZM203.841 245.25H205.596V255H203.841V245.25ZM213.364 251.412C213.364 251.724 213.325 252.045 213.247 252.374H208.736C208.84 252.781 209.048 253.098 209.36 253.323C209.681 253.54 210.075 253.648 210.543 253.648C211.176 253.648 211.774 253.431 212.337 252.998L213.065 254.194C212.302 254.835 211.444 255.156 210.491 255.156C209.824 255.156 209.221 255.009 208.684 254.714C208.147 254.419 207.726 254.016 207.423 253.505C207.12 252.985 206.968 252.413 206.968 251.789C206.968 251.165 207.115 250.597 207.41 250.086C207.705 249.566 208.108 249.159 208.619 248.864C209.139 248.569 209.711 248.422 210.335 248.422C210.924 248.422 211.449 248.556 211.908 248.825C212.367 249.085 212.723 249.445 212.974 249.904C213.234 250.355 213.364 250.857 213.364 251.412ZM210.27 249.839C209.897 249.839 209.572 249.956 209.295 250.19C209.018 250.424 208.831 250.74 208.736 251.139H211.661C211.652 250.74 211.514 250.424 211.245 250.19C210.976 249.956 210.651 249.839 210.27 249.839ZM218.23 248.422C218.976 248.422 219.565 248.66 219.998 249.137C220.432 249.605 220.648 250.229 220.648 251.009V255H218.906V251.243C218.906 250.87 218.794 250.571 218.568 250.346C218.352 250.112 218.066 249.995 217.71 249.995C217.355 249.995 217.06 250.112 216.826 250.346C216.601 250.571 216.488 250.87 216.488 251.243V255H214.733V248.565H216.345V249.15C216.571 248.925 216.844 248.747 217.164 248.617C217.494 248.487 217.849 248.422 218.23 248.422ZM225.64 253.583C225.744 253.583 226.021 253.566 226.472 253.531V255C226.056 255.104 225.653 255.156 225.263 255.156C224.448 255.156 223.815 254.957 223.365 254.558C222.914 254.151 222.689 253.544 222.689 252.738V250.047H221.675V248.565H222.689V246.94H224.444V248.565H226.264V250.047H224.444V252.582C224.444 252.946 224.539 253.206 224.73 253.362C224.92 253.509 225.224 253.583 225.64 253.583Z" fill="#64748B"/>
<path d="M110.057 378.156C109.216 378.156 108.445 377.961 107.743 377.571C107.05 377.181 106.499 376.648 106.092 375.972C105.693 375.287 105.494 374.533 105.494 373.71C105.494 372.887 105.698 372.137 106.105 371.461C106.512 370.776 107.063 370.239 107.756 369.849C108.458 369.459 109.229 369.264 110.07 369.264C110.885 369.264 111.621 369.455 112.28 369.836C112.947 370.209 113.472 370.729 113.853 371.396L112.527 372.332C111.92 371.37 111.101 370.889 110.07 370.889C109.541 370.889 109.065 371.01 108.64 371.253C108.224 371.496 107.895 371.834 107.652 372.267C107.418 372.692 107.301 373.177 107.301 373.723C107.301 374.269 107.418 374.754 107.652 375.179C107.895 375.604 108.224 375.937 108.64 376.18C109.065 376.414 109.541 376.531 110.07 376.531C111.101 376.531 111.92 376.05 112.527 375.088L113.853 376.024C113.48 376.691 112.96 377.216 112.293 377.597C111.626 377.97 110.88 378.156 110.057 378.156ZM118.168 378.143C117.536 378.143 116.955 377.996 116.426 377.701C115.906 377.398 115.495 376.99 115.191 376.479C114.888 375.959 114.736 375.391 114.736 374.776C114.736 374.161 114.888 373.597 115.191 373.086C115.495 372.566 115.911 372.159 116.439 371.864C116.968 371.569 117.549 371.422 118.181 371.422C118.814 371.422 119.395 371.574 119.923 371.877C120.452 372.172 120.868 372.575 121.171 373.086C121.483 373.597 121.639 374.161 121.639 374.776C121.639 375.391 121.483 375.959 121.171 376.479C120.868 376.99 120.448 377.398 119.91 377.701C119.382 377.996 118.801 378.143 118.168 378.143ZM118.181 376.531C118.658 376.531 119.052 376.366 119.364 376.037C119.685 375.708 119.845 375.292 119.845 374.789C119.845 374.286 119.685 373.866 119.364 373.528C119.052 373.19 118.658 373.021 118.181 373.021C117.696 373.021 117.297 373.19 116.985 373.528C116.673 373.857 116.517 374.278 116.517 374.789C116.517 375.292 116.673 375.708 116.985 376.037C117.297 376.366 117.696 376.531 118.181 376.531ZM125.09 378.156C124.526 378.156 124.015 378.048 123.556 377.831C123.096 377.606 122.719 377.298 122.425 376.908L123.309 375.842C123.872 376.423 124.474 376.713 125.116 376.713C125.35 376.713 125.545 376.67 125.701 376.583C125.857 376.488 125.935 376.353 125.935 376.18C125.935 376.041 125.883 375.937 125.779 375.868C125.683 375.79 125.514 375.699 125.272 375.595L124.583 375.309C123.993 375.066 123.551 374.798 123.257 374.503C122.971 374.208 122.828 373.823 122.828 373.346C122.828 372.739 123.044 372.267 123.478 371.929C123.92 371.591 124.492 371.422 125.194 371.422C126.156 371.422 126.927 371.743 127.508 372.384L126.624 373.463C126.19 373.056 125.709 372.852 125.181 372.852C124.964 372.852 124.795 372.891 124.674 372.969C124.552 373.047 124.492 373.16 124.492 373.307C124.492 373.428 124.539 373.528 124.635 373.606C124.739 373.684 124.916 373.775 125.168 373.879L125.792 374.139C126.416 374.39 126.871 374.663 127.157 374.958C127.451 375.244 127.599 375.625 127.599 376.102C127.599 376.743 127.36 377.246 126.884 377.61C126.416 377.974 125.818 378.156 125.09 378.156ZM132.228 376.583C132.332 376.583 132.609 376.566 133.06 376.531V378C132.644 378.104 132.241 378.156 131.851 378.156C131.036 378.156 130.403 377.957 129.953 377.558C129.502 377.151 129.277 376.544 129.277 375.738V373.047H128.263V371.565H129.277V369.94H131.032V371.565H132.852V373.047H131.032V375.582C131.032 375.946 131.127 376.206 131.318 376.362C131.508 376.509 131.812 376.583 132.228 376.583ZM141.045 378.143C140.413 378.143 139.832 377.996 139.303 377.701C138.783 377.398 138.372 376.99 138.068 376.479C137.765 375.959 137.613 375.391 137.613 374.776C137.613 374.161 137.765 373.597 138.068 373.086C138.372 372.566 138.788 372.159 139.316 371.864C139.845 371.569 140.426 371.422 141.058 371.422C141.691 371.422 142.272 371.574 142.8 371.877C143.329 372.172 143.745 372.575 144.048 373.086C144.36 373.597 144.516 374.161 144.516 374.776C144.516 375.391 144.36 375.959 144.048 376.479C143.745 376.99 143.325 377.398 142.787 377.701C142.259 377.996 141.678 378.143 141.045 378.143ZM141.058 376.531C141.535 376.531 141.929 376.366 142.241 376.037C142.562 375.708 142.722 375.292 142.722 374.789C142.722 374.286 142.562 373.866 142.241 373.528C141.929 373.19 141.535 373.021 141.058 373.021C140.573 373.021 140.174 373.19 139.862 373.528C139.55 373.857 139.394 374.278 139.394 374.789C139.394 375.292 139.55 375.708 139.862 376.037C140.174 376.366 140.573 376.531 141.058 376.531ZM149.111 369.667C148.712 369.667 148.417 369.745 148.227 369.901C148.036 370.048 147.941 370.304 147.941 370.668V371.565H149.358V373.047H147.941V378H146.186V373.047H145.276V371.565H146.186V370.512C146.186 369.706 146.407 369.104 146.849 368.705C147.291 368.298 147.897 368.094 148.669 368.094C149.007 368.094 149.327 368.142 149.631 368.237V369.706C149.44 369.68 149.267 369.667 149.111 369.667ZM163.3 371.565L160.31 378.156H159.738L157.892 374.412L156.033 378.156H155.461L152.471 371.565H154.317L155.838 375.231L157.593 371.422H158.178L159.959 375.153L161.454 371.565H163.3ZM167.147 378.143C166.514 378.143 165.934 377.996 165.405 377.701C164.885 377.398 164.473 376.99 164.17 376.479C163.867 375.959 163.715 375.391 163.715 374.776C163.715 374.161 163.867 373.597 164.17 373.086C164.473 372.566 164.889 372.159 165.418 371.864C165.947 371.569 166.527 371.422 167.16 371.422C167.793 371.422 168.373 371.574 168.902 371.877C169.431 372.172 169.847 372.575 170.15 373.086C170.462 373.597 170.618 374.161 170.618 374.776C170.618 375.391 170.462 375.959 170.15 376.479C169.847 376.99 169.426 377.398 168.889 377.701C168.36 377.996 167.78 378.143 167.147 378.143ZM167.16 376.531C167.637 376.531 168.031 376.366 168.343 376.037C168.664 375.708 168.824 375.292 168.824 374.789C168.824 374.286 168.664 373.866 168.343 373.528C168.031 373.19 167.637 373.021 167.16 373.021C166.675 373.021 166.276 373.19 165.964 373.528C165.652 373.857 165.496 374.278 165.496 374.789C165.496 375.292 165.652 375.708 165.964 376.037C166.276 376.366 166.675 376.531 167.16 376.531ZM175.368 371.487C175.585 371.487 175.776 371.513 175.94 371.565V373.112H175.472C174.944 373.112 174.523 373.255 174.211 373.541C173.899 373.818 173.743 374.234 173.743 374.789V378H171.988V371.565H173.6V372.332C173.817 372.063 174.077 371.855 174.38 371.708C174.684 371.561 175.013 371.487 175.368 371.487ZM181.37 378L178.783 374.438V378H177.028V368.25H178.783V374.308L181.097 371.565H183.177L180.759 374.412L183.372 378H181.37ZM187.527 369.667C187.128 369.667 186.833 369.745 186.643 369.901C186.452 370.048 186.357 370.304 186.357 370.668V371.565H187.774V373.047H186.357V378H184.602V373.047H183.692V371.565H184.602V370.512C184.602 369.706 184.823 369.104 185.265 368.705C185.707 368.298 186.313 368.094 187.085 368.094C187.423 368.094 187.743 368.142 188.047 368.237V369.706C187.856 369.68 187.683 369.667 187.527 369.667ZM191.814 378.143C191.181 378.143 190.601 377.996 190.072 377.701C189.552 377.398 189.14 376.99 188.837 376.479C188.534 375.959 188.382 375.391 188.382 374.776C188.382 374.161 188.534 373.597 188.837 373.086C189.14 372.566 189.556 372.159 190.085 371.864C190.614 371.569 191.194 371.422 191.827 371.422C192.46 371.422 193.04 371.574 193.569 371.877C194.098 372.172 194.514 372.575 194.817 373.086C195.129 373.597 195.285 374.161 195.285 374.776C195.285 375.391 195.129 375.959 194.817 376.479C194.514 376.99 194.093 377.398 193.556 377.701C193.027 377.996 192.447 378.143 191.814 378.143ZM191.827 376.531C192.304 376.531 192.698 376.366 193.01 376.037C193.331 375.708 193.491 375.292 193.491 374.789C193.491 374.286 193.331 373.866 193.01 373.528C192.698 373.19 192.304 373.021 191.827 373.021C191.342 373.021 190.943 373.19 190.631 373.528C190.319 373.857 190.163 374.278 190.163 374.789C190.163 375.292 190.319 375.708 190.631 376.037C190.943 376.366 191.342 376.531 191.827 376.531ZM200.035 371.487C200.252 371.487 200.443 371.513 200.607 371.565V373.112H200.139C199.611 373.112 199.19 373.255 198.878 373.541C198.566 373.818 198.41 374.234 198.41 374.789V378H196.655V371.565H198.267V372.332C198.484 372.063 198.744 371.855 199.047 371.708C199.351 371.561 199.68 371.487 200.035 371.487ZM204.649 378.156C204.017 378.156 203.436 378.009 202.907 377.714C202.387 377.411 201.971 377.003 201.659 376.492C201.356 375.972 201.204 375.4 201.204 374.776C201.204 374.152 201.356 373.584 201.659 373.073C201.971 372.562 202.387 372.159 202.907 371.864C203.436 371.569 204.017 371.422 204.649 371.422C205.282 371.422 205.837 371.565 206.313 371.851C206.79 372.128 207.167 372.514 207.444 373.008L206.222 373.957C206.023 373.662 205.798 373.433 205.546 373.268C205.304 373.103 205.013 373.021 204.675 373.021C204.181 373.021 203.774 373.19 203.453 373.528C203.141 373.857 202.985 374.273 202.985 374.776C202.985 375.287 203.141 375.712 203.453 376.05C203.774 376.379 204.181 376.544 204.675 376.544C205.005 376.544 205.291 376.466 205.533 376.31C205.785 376.145 206.014 375.916 206.222 375.621L207.444 376.557C207.167 377.051 206.786 377.441 206.3 377.727C205.824 378.013 205.273 378.156 204.649 378.156ZM214.646 374.412C214.646 374.724 214.607 375.045 214.529 375.374H210.018C210.122 375.781 210.33 376.098 210.642 376.323C210.963 376.54 211.357 376.648 211.825 376.648C212.458 376.648 213.056 376.431 213.619 375.998L214.347 377.194C213.584 377.835 212.726 378.156 211.773 378.156C211.106 378.156 210.503 378.009 209.966 377.714C209.429 377.419 209.008 377.016 208.705 376.505C208.402 375.985 208.25 375.413 208.25 374.789C208.25 374.165 208.397 373.597 208.692 373.086C208.987 372.566 209.39 372.159 209.901 371.864C210.421 371.569 210.993 371.422 211.617 371.422C212.206 371.422 212.731 371.556 213.19 371.825C213.649 372.085 214.005 372.445 214.256 372.904C214.516 373.355 214.646 373.857 214.646 374.412ZM211.552 372.839C211.179 372.839 210.854 372.956 210.577 373.19C210.3 373.424 210.113 373.74 210.018 374.139H212.943C212.934 373.74 212.796 373.424 212.527 373.19C212.258 372.956 211.933 372.839 211.552 372.839Z" fill="#64748B"/>
<rect x="105" y="119" width="66" height="15" rx="7.5" fill="#E2E8F0"/>
<rect x="105" y="269" width="66" height="14" rx="7" fill="#E2E8F0"/>
<rect x="105" y="392" width="66" height="14" rx="7" fill="#E2E8F0"/>
<rect x="105" y="146" width="72" height="15" rx="7.5" fill="#E2E8F0"/>
<rect x="105" y="296" width="72" height="14" rx="7" fill="#E2E8F0"/>
<rect x="105" y="419" width="72" height="14" rx="7" fill="#E2E8F0"/>
<rect x="105" y="174" width="60" height="14" rx="7" fill="#E2E8F0"/>
<rect x="105" y="323" width="60" height="15" rx="7.5" fill="#E2E8F0"/>
<rect x="105" y="201" width="72" height="14" rx="7" fill="#E2E8F0"/>
<rect x="440" y="29" width="123" height="32" rx="4" fill="#475569"/>
<path d="M456.686 48.8194C458.298 48.8194 459.514 47.8645 459.514 46.3548C459.514 45.1806 458.771 44.5226 457.492 43.929L456.545 43.4903C455.854 43.1548 455.368 42.9226 455.368 42.2774C455.368 41.5806 455.969 41.2452 456.648 41.2452C457.377 41.2452 457.991 41.6194 458.426 42.2774L459.373 41.5419C458.861 40.6645 457.889 40.0194 456.648 40.0194C455.189 40.0194 453.986 40.9226 453.986 42.329C453.986 43.5806 454.933 44.2129 455.957 44.6903L456.891 45.129C457.633 45.4774 458.132 45.7355 458.132 46.4065C458.132 47.1419 457.543 47.5935 456.673 47.5935C455.624 47.5935 454.946 46.9484 454.46 46.2387L453.5 46.9742C454.14 48.0968 455.278 48.8194 456.686 48.8194Z" fill="white"/>
<path d="M463.846 48.8194C465.381 48.8194 466.571 47.7355 466.571 46.0194V42.3419H465.228V46.1226C465.228 47.0129 464.614 47.5677 463.846 47.5677C463.053 47.5677 462.426 47.0129 462.426 46.1226V42.3419H461.095V46.0194C461.095 47.7355 462.285 48.8194 463.846 48.8194Z" fill="white"/>
<path d="M471.898 42.2C471.028 42.2 470.273 42.5355 469.799 43.1161V39H468.456V48.6774H469.71V47.8C470.183 48.4452 470.989 48.8194 471.911 48.8194C473.689 48.8194 474.981 47.4 474.981 45.5161C474.981 43.6323 473.689 42.2 471.898 42.2ZM471.68 47.5806C470.746 47.5806 469.787 46.9613 469.787 45.5161C469.787 44.0839 470.733 43.4387 471.68 43.4387C472.755 43.4387 473.6 44.2774 473.6 45.5032C473.6 46.729 472.768 47.5806 471.68 47.5806Z" fill="white"/>
<path d="M483.629 42.2C482.708 42.2 481.953 42.6129 481.505 43.1935C481.134 42.5871 480.494 42.2 479.598 42.2C478.844 42.2 478.217 42.471 477.782 42.9355V42.3419H476.528V48.6774H477.871V44.9097C477.871 44.0323 478.434 43.4387 479.253 43.4387C480.059 43.4387 480.571 44.0323 480.571 44.9097V48.6774H481.914V44.8452C481.914 44.0452 482.477 43.4387 483.296 43.4387C484.115 43.4387 484.601 44.0323 484.601 44.9097V48.6774H485.958V44.7161C485.958 43.2323 485.113 42.2 483.629 42.2Z" fill="white"/>
<path d="M488.501 40.871C489 40.871 489.41 40.4839 489.41 39.9806C489.41 39.4774 489 39.0774 488.501 39.0774C487.99 39.0774 487.58 39.4774 487.58 39.9806C487.58 40.4839 487.99 40.871 488.501 40.871ZM487.823 48.6774H489.167V42.3419H487.823V48.6774Z" fill="white"/>
<path d="M494.014 47.5935C493.233 47.5935 492.773 47.3355 492.773 46.4968V43.5161H494.641V42.3419H492.773V40.6774H491.416V42.3419H490.393V43.5161H491.416V46.6129C491.416 48.1484 492.338 48.8194 493.732 48.8194C494.155 48.8194 494.5 48.7548 494.845 48.6774V47.529C494.513 47.5677 494.244 47.5935 494.014 47.5935Z" fill="white"/>
<path d="M503.235 42.2C502.314 42.2 501.508 42.5742 501.047 43.2323V42.3419H499.793V51H501.137V47.9032C501.623 48.4839 502.378 48.8194 503.235 48.8194C505.026 48.8194 506.319 47.4 506.319 45.5032C506.319 43.6194 505.026 42.2 503.235 42.2ZM503.018 47.5806C502.071 47.5806 501.124 46.9355 501.124 45.5032C501.124 44.0581 502.084 43.4387 503.018 43.4387C504.105 43.4387 504.937 44.2903 504.937 45.5161C504.937 46.7419 504.092 47.5806 503.018 47.5806Z" fill="white"/>
<path d="M507.865 48.6774H509.209V39H507.865V48.6774Z" fill="white"/>
<path d="M513.57 42.2C512.508 42.2 511.574 42.6258 510.921 43.5548L511.701 44.3548C512.2 43.7613 512.712 43.4129 513.442 43.4129C514.299 43.4129 514.785 43.8903 514.785 44.7677V45.1806H513.007C511.599 45.1806 510.691 45.8774 510.691 46.9871C510.691 48.0839 511.561 48.8194 512.879 48.8194C513.749 48.8194 514.44 48.5097 514.887 47.9677V48.6774H516.141V44.8452C516.141 43.0903 515.079 42.2 513.57 42.2ZM513.16 47.7742C512.546 47.7742 512.06 47.4903 512.06 46.9355C512.06 46.4194 512.456 46.1613 513.173 46.1613H514.785V46.2774C514.785 47.1419 514.043 47.7742 513.16 47.7742Z" fill="white"/>
<path d="M521.146 42.2C520.352 42.2 519.713 42.4839 519.265 42.9613V42.3419H518.011V48.6774H519.354V44.8968C519.354 44.0323 519.956 43.4258 520.787 43.4258C521.619 43.4258 522.157 44.0323 522.157 44.8968V48.6774H523.5V44.7161C523.5 43.2323 522.63 42.2 521.146 42.2Z" fill="white"/>
<path d="M539.5 50.4444L546.5 52L539.5 38L532.5 52L539.5 50.4444ZM539.5 50.4444V44.2222" stroke="white" stroke-width="1.67" stroke-linecap="round" stroke-linejoin="round"/>
<path d="M593.678 50C595.286 50 596.499 49.0276 596.499 47.4901C596.499 46.2943 595.759 45.6242 594.482 45.0197L593.538 44.5729C592.848 44.2313 592.363 43.9947 592.363 43.3377C592.363 42.6281 592.963 42.2865 593.64 42.2865C594.367 42.2865 594.98 42.6675 595.414 43.3377L596.358 42.5887C595.848 41.6951 594.878 41.0381 593.64 41.0381C592.185 41.0381 590.985 41.958 590.985 43.3903C590.985 44.6649 591.929 45.3088 592.951 45.795L593.882 46.2418C594.623 46.5966 595.12 46.8594 595.12 47.5427C595.12 48.2917 594.533 48.7516 593.665 48.7516C592.619 48.7516 591.942 48.0946 591.457 47.3719L590.5 48.1209C591.138 49.2641 592.274 50 593.678 50Z" fill="#475569"/>
<path d="M600.975 48.7516C600.196 48.7516 599.737 48.4888 599.737 47.6347V44.5992H601.6V43.4034H599.737V41.7083H598.384V43.4034H597.363V44.5992H598.384V47.753C598.384 49.3167 599.303 50 600.694 50C601.115 50 601.46 49.9343 601.805 49.8555V48.6859C601.473 48.7254 601.205 48.7516 600.975 48.7516Z" fill="#475569"/>
<path d="M605.575 43.2589C604.516 43.2589 603.584 43.6925 602.933 44.6386L603.712 45.4534C604.21 44.8489 604.72 44.4941 605.448 44.4941C606.303 44.4941 606.788 44.9803 606.788 45.8739V46.2943H605.014C603.61 46.2943 602.704 47.0039 602.704 48.134C602.704 49.251 603.572 50 604.886 50C605.754 50 606.443 49.6846 606.89 49.1327V49.8555H608.141V45.9527C608.141 44.1656 607.082 43.2589 605.575 43.2589ZM605.167 48.9356C604.554 48.9356 604.069 48.6465 604.069 48.0815C604.069 47.5558 604.465 47.293 605.18 47.293H606.788V47.4113C606.788 48.2917 606.048 48.9356 605.167 48.9356Z" fill="#475569"/>
<path d="M613.082 43.3377C612.367 43.3377 611.704 43.6531 611.257 44.2444V43.4034H610.006V49.8555H611.346V46.4126C611.346 45.2168 612.189 44.6255 613.184 44.6255H613.593V43.4034C613.452 43.364 613.299 43.3377 613.082 43.3377Z" fill="#475569"/>
<path d="M617.69 48.7516C616.911 48.7516 616.452 48.4888 616.452 47.6347V44.5992H618.315V43.4034H616.452V41.7083H615.099V43.4034H614.078V44.5992H615.099V47.753C615.099 49.3167 616.018 50 617.409 50C617.83 50 618.175 49.9343 618.519 49.8555V48.6859C618.187 48.7254 617.919 48.7516 617.69 48.7516Z" fill="#475569"/>
<path d="M626.378 50C627.552 50 628.471 49.4087 629.02 48.502L628.075 47.753C627.654 48.3443 627.131 48.7254 626.39 48.7254C625.242 48.7254 624.425 47.8187 624.425 46.6229C624.425 45.4534 625.242 44.5335 626.39 44.5335C627.144 44.5335 627.667 44.9277 628.075 45.5191L629.02 44.7569C628.484 43.8502 627.565 43.2589 626.378 43.2589C624.527 43.2589 623.059 44.7306 623.059 46.6229C623.059 48.5283 624.527 50 626.378 50Z" fill="#475569"/>
<path d="M633.283 50C635.146 50 636.614 48.502 636.614 46.6229C636.614 44.7438 635.146 43.2589 633.283 43.2589C631.432 43.2589 629.977 44.7306 629.977 46.6229C629.977 48.502 631.432 50 633.283 50ZM633.283 48.7254C632.172 48.7254 631.343 47.8318 631.343 46.636C631.343 45.4271 632.172 44.5204 633.295 44.5204C634.393 44.5204 635.235 45.4271 635.235 46.636C635.235 47.8187 634.393 48.7254 633.283 48.7254Z" fill="#475569"/>
<path d="M638.15 49.8555H639.49V40H638.15V49.8555Z" fill="#475569"/>
<path d="M641.428 49.8555H642.768V40H641.428V49.8555Z" fill="#475569"/>
<path d="M647.119 43.2589C646.059 43.2589 645.128 43.6925 644.477 44.6386L645.255 45.4534C645.753 44.8489 646.264 44.4941 646.991 44.4941C647.846 44.4941 648.331 44.9803 648.331 45.8739V46.2943H646.557C645.153 46.2943 644.247 47.0039 644.247 48.134C644.247 49.251 645.115 50 646.429 50C647.297 50 647.987 49.6846 648.433 49.1327V49.8555H649.684V45.9527C649.684 44.1656 648.625 43.2589 647.119 43.2589ZM646.71 48.9356C646.098 48.9356 645.613 48.6465 645.613 48.0815C645.613 47.5558 646.008 47.293 646.723 47.293H648.331V47.4113C648.331 48.2917 647.591 48.9356 646.71 48.9356Z" fill="#475569"/>
<path d="M654.983 43.2589C654.115 43.2589 653.362 43.6005 652.889 44.1919V40H651.549V49.8555H652.8V48.9619C653.272 49.6189 654.076 50 654.995 50C656.77 50 658.059 48.5545 658.059 46.636C658.059 44.7175 656.77 43.2589 654.983 43.2589ZM654.766 48.7385C653.834 48.7385 652.877 48.1078 652.877 46.636C652.877 45.1774 653.821 44.5204 654.766 44.5204C655.838 44.5204 656.68 45.3745 656.68 46.6229C656.68 47.8712 655.851 48.7385 654.766 48.7385Z" fill="#475569"/>
<path d="M662.511 50C664.375 50 665.842 48.502 665.842 46.6229C665.842 44.7438 664.375 43.2589 662.511 43.2589C660.661 43.2589 659.206 44.7306 659.206 46.6229C659.206 48.502 660.661 50 662.511 50ZM662.511 48.7254C661.401 48.7254 660.571 47.8318 660.571 46.636C660.571 45.4271 661.401 44.5204 662.524 44.5204C663.622 44.5204 664.464 45.4271 664.464 46.636C664.464 47.8187 663.622 48.7254 662.511 48.7254Z" fill="#475569"/>
<path d="M670.455 43.3377C669.74 43.3377 669.076 43.6531 668.63 44.2444V43.4034H667.379V49.8555H668.719V46.4126C668.719 45.2168 669.561 44.6255 670.557 44.6255H670.965V43.4034C670.825 43.364 670.672 43.3377 670.455 43.3377Z" fill="#475569"/>
<path d="M674.453 43.2589C673.393 43.2589 672.462 43.6925 671.811 44.6386L672.589 45.4534C673.087 44.8489 673.598 44.4941 674.325 44.4941C675.18 44.4941 675.665 44.9803 675.665 45.8739V46.2943H673.891C672.487 46.2943 671.581 47.0039 671.581 48.134C671.581 49.251 672.449 50 673.764 50C674.631 50 675.321 49.6846 675.767 49.1327V49.8555H677.018V45.9527C677.018 44.1656 675.959 43.2589 674.453 43.2589ZM674.044 48.9356C673.432 48.9356 672.947 48.6465 672.947 48.0815C672.947 47.5558 673.342 47.293 674.057 47.293H675.665V47.4113C675.665 48.2917 674.925 48.9356 674.044 48.9356Z" fill="#475569"/>
<path d="M681.781 48.7516C681.002 48.7516 680.543 48.4888 680.543 47.6347V44.5992H682.406V43.4034H680.543V41.7083H679.19V43.4034H678.169V44.5992H679.19V47.753C679.19 49.3167 680.109 50 681.5 50C681.921 50 682.266 49.9343 682.61 49.8555V48.6859C682.278 48.7254 682.01 48.7516 681.781 48.7516Z" fill="#475569"/>
<path d="M684.645 41.9054C685.143 41.9054 685.551 41.5112 685.551 40.9987C685.551 40.4862 685.143 40.0788 684.645 40.0788C684.135 40.0788 683.726 40.4862 683.726 40.9987C683.726 41.5112 684.135 41.9054 684.645 41.9054ZM683.969 49.8555H685.309V43.4034H683.969V49.8555Z" fill="#475569"/>
<path d="M690.157 50C692.02 50 693.488 48.502 693.488 46.6229C693.488 44.7438 692.02 43.2589 690.157 43.2589C688.306 43.2589 686.851 44.7306 686.851 46.6229C686.851 48.502 688.306 50 690.157 50ZM690.157 48.7254C689.046 48.7254 688.217 47.8318 688.217 46.636C688.217 45.4271 689.046 44.5204 690.17 44.5204C691.267 44.5204 692.11 45.4271 692.11 46.636C692.11 47.8187 691.267 48.7254 690.157 48.7254Z" fill="#475569"/>
<path d="M698.152 43.2589C697.36 43.2589 696.722 43.548 696.275 44.0342V43.4034H695.025V49.8555H696.365V46.0053C696.365 45.1248 696.965 44.5072 697.794 44.5072C698.624 44.5072 699.16 45.1248 699.16 46.0053V49.8555H700.5V45.8213C700.5 44.3101 699.632 43.2589 698.152 43.2589Z" fill="#475569"/>
<rect x="575.5" y="29.5" width="140" height="31" rx="3.5" stroke="#475569"/>
<path d="M569.021 122.186C570.472 122.787 571.197 123.727 571.197 125.008C571.197 125.654 571.016 126.221 570.653 126.708C570.302 127.184 569.809 127.552 569.174 127.813C568.539 128.074 567.814 128.204 566.998 128.204C566.182 128.204 565.451 128.074 564.805 127.813C564.17 127.552 563.672 127.184 563.309 126.708C562.958 126.221 562.782 125.654 562.782 125.008C562.782 123.716 563.519 122.775 564.992 122.186C563.859 121.529 563.292 120.65 563.292 119.551C563.292 118.622 563.638 117.896 564.329 117.375C565.032 116.842 565.921 116.576 566.998 116.576C568.075 116.576 568.959 116.842 569.65 117.375C570.353 117.896 570.704 118.622 570.704 119.551C570.704 120.662 570.143 121.54 569.021 122.186ZM566.998 118.429C566.545 118.429 566.171 118.537 565.876 118.752C565.581 118.967 565.434 119.268 565.434 119.653C565.434 119.993 565.559 120.276 565.808 120.503C566.069 120.73 566.465 120.968 566.998 121.217C567.531 120.968 567.922 120.73 568.171 120.503C568.432 120.276 568.562 119.987 568.562 119.636C568.562 119.262 568.415 118.967 568.12 118.752C567.825 118.537 567.451 118.429 566.998 118.429ZM566.998 126.334C567.621 126.334 568.097 126.204 568.426 125.943C568.755 125.682 568.919 125.342 568.919 124.923C568.919 124.492 568.76 124.147 568.443 123.886C568.126 123.625 567.644 123.382 566.998 123.155C566.352 123.393 565.87 123.642 565.553 123.903C565.236 124.164 565.077 124.504 565.077 124.923C565.077 125.342 565.241 125.682 565.57 125.943C565.899 126.204 566.375 126.334 566.998 126.334ZM577.4 128.204C576.425 128.204 575.604 127.943 574.935 127.422C574.266 126.901 573.768 126.198 573.439 125.314C573.11 124.419 572.946 123.416 572.946 122.305C572.946 120.594 573.326 119.211 574.085 118.157C574.844 117.103 575.949 116.576 577.4 116.576C578.851 116.576 579.95 117.103 580.698 118.157C581.457 119.211 581.837 120.594 581.837 122.305C581.837 123.416 581.673 124.419 581.344 125.314C581.015 126.198 580.517 126.901 579.848 127.422C579.191 127.943 578.375 128.204 577.4 128.204ZM577.4 126.079C578.783 126.079 579.474 124.827 579.474 122.322C579.474 121.132 579.304 120.231 578.964 119.619C578.635 119.007 578.114 118.701 577.4 118.701C576.675 118.701 576.142 119.007 575.802 119.619C575.473 120.231 575.309 121.132 575.309 122.322C575.309 124.827 576.006 126.079 577.4 126.079ZM592.356 126.164H590.928V128H588.633V126.164H583.057V125.552L586.525 116.78H588.888L585.913 124.226H588.633V121.081H590.928V124.226H592.356V126.164Z" fill="#64748B"/>
<path d="M562.765 214.591H567.049V216.512H562.765V214.591ZM572.915 209.78V221H570.62V212.5L568.495 213.18L567.951 211.157L572.15 209.78H572.915ZM580.333 213.894C581.092 214.098 581.732 214.5 582.254 215.101C582.775 215.702 583.036 216.444 583.036 217.328C583.036 218.076 582.843 218.745 582.458 219.334C582.084 219.923 581.574 220.382 580.928 220.711C580.282 221.04 579.573 221.204 578.803 221.204C577.873 221.204 577.057 220.972 576.355 220.507C575.652 220.042 575.108 219.425 574.723 218.654L576.321 217.532C576.661 218.042 577.018 218.427 577.392 218.688C577.766 218.949 578.213 219.079 578.735 219.079C579.301 219.079 579.766 218.926 580.129 218.62C580.503 218.303 580.69 217.878 580.69 217.345C580.69 216.824 580.491 216.427 580.095 216.155C579.709 215.872 579.143 215.73 578.395 215.73H576.984V215.135L579.33 211.854H575.59V209.78H582.815V210.392L580.333 213.894ZM593.425 223.244C592.337 222.757 591.447 221.901 590.756 220.677C590.064 219.442 589.719 217.832 589.719 215.849C589.719 213.854 590.064 212.245 590.756 211.021C591.447 209.786 592.337 208.924 593.425 208.437L594.326 209.814C593.544 210.335 592.915 211.072 592.439 212.024C591.963 212.965 591.725 214.24 591.725 215.849C591.725 217.447 591.963 218.722 592.439 219.674C592.915 220.615 593.544 221.346 594.326 221.867L593.425 223.244ZM595.022 214.591H599.306V216.512H595.022V214.591ZM608.945 219.045V221L600.666 221.017V220.524L604.678 216.172C605.234 215.571 605.636 215.056 605.885 214.625C606.135 214.194 606.259 213.769 606.259 213.35C606.259 212.863 606.118 212.466 605.834 212.16C605.551 211.854 605.171 211.701 604.695 211.701C604.219 211.701 603.834 211.86 603.539 212.177C603.256 212.494 603.114 212.908 603.114 213.418C603.114 213.622 603.143 213.894 603.199 214.234H600.887C600.808 213.928 600.768 213.611 600.768 213.282C600.768 212.647 600.927 212.047 601.244 211.48C601.573 210.913 602.038 210.454 602.638 210.103C603.239 209.752 603.936 209.576 604.729 209.576C605.466 209.576 606.129 209.735 606.718 210.052C607.319 210.358 607.784 210.783 608.112 211.327C608.452 211.871 608.622 212.483 608.622 213.163C608.622 213.922 608.418 214.631 608.01 215.288C607.602 215.934 607.002 216.676 606.208 217.515L604.763 219.045H608.945ZM613.688 215.169C613.155 215.169 612.668 215.05 612.226 214.812C611.784 214.563 611.433 214.223 611.172 213.792C610.911 213.361 610.781 212.885 610.781 212.364C610.781 211.843 610.911 211.372 611.172 210.953C611.433 210.522 611.784 210.188 612.226 209.95C612.668 209.701 613.155 209.576 613.688 209.576C614.209 209.576 614.691 209.701 615.133 209.95C615.575 210.188 615.926 210.522 616.187 210.953C616.448 211.372 616.578 211.843 616.578 212.364C616.578 212.885 616.448 213.361 616.187 213.792C615.926 214.223 615.575 214.563 615.133 214.812C614.691 215.05 614.209 215.169 613.688 215.169ZM619.451 209.78H621.304L614.844 221H613.008L619.451 209.78ZM613.705 213.588C614.022 213.588 614.283 213.475 614.487 213.248C614.702 213.021 614.81 212.727 614.81 212.364C614.81 212.013 614.702 211.724 614.487 211.497C614.283 211.27 614.022 211.157 613.705 211.157C613.365 211.157 613.087 211.27 612.872 211.497C612.668 211.724 612.566 212.013 612.566 212.364C612.566 212.727 612.668 213.021 612.872 213.248C613.076 213.475 613.354 213.588 613.705 213.588ZM620.607 221.187C620.086 221.187 619.604 221.068 619.162 220.83C618.72 220.581 618.369 220.241 618.108 219.81C617.847 219.379 617.717 218.903 617.717 218.382C617.717 217.861 617.847 217.39 618.108 216.971C618.369 216.54 618.72 216.206 619.162 215.968C619.604 215.719 620.086 215.594 620.607 215.594C621.128 215.594 621.61 215.719 622.052 215.968C622.505 216.206 622.862 216.54 623.123 216.971C623.384 217.39 623.514 217.861 623.514 218.382C623.514 218.903 623.384 219.379 623.123 219.81C622.862 220.241 622.511 220.581 622.069 220.83C621.627 221.068 621.14 221.187 620.607 221.187ZM620.624 219.589C620.941 219.589 621.202 219.476 621.406 219.249C621.621 219.022 621.729 218.733 621.729 218.382C621.729 218.031 621.621 217.742 621.406 217.515C621.202 217.288 620.941 217.175 620.624 217.175C620.273 217.175 619.995 217.288 619.791 217.515C619.587 217.73 619.485 218.019 619.485 218.382C619.485 218.745 619.587 219.039 619.791 219.266C619.995 219.481 620.273 219.589 620.624 219.589ZM624.914 221.867C625.696 221.346 626.325 220.615 626.801 219.674C627.288 218.722 627.532 217.447 627.532 215.849C627.532 214.24 627.294 212.965 626.818 212.024C626.342 211.072 625.707 210.335 624.914 209.814L625.832 208.437C626.908 208.924 627.792 209.786 628.484 211.021C629.175 212.245 629.521 213.854 629.521 215.849C629.521 217.832 629.175 219.442 628.484 220.677C627.792 221.901 626.908 222.757 625.832 223.244L624.914 221.867Z" fill="#64748B"/>
<path d="M562.912 149H564.532V145.58H568.036V149H569.656V141.08H568.036V144.116H564.532V141.08H562.912V149ZM576.868 145.688C576.868 144.152 575.74 142.928 574.072 142.928C572.32 142.928 570.964 144.284 570.964 146.036C570.964 147.788 572.332 149.144 574.216 149.144C575.128 149.144 575.92 148.82 576.592 148.256L575.92 147.152C575.44 147.524 574.912 147.752 574.264 147.752C573.4 147.752 572.788 147.332 572.596 146.576H576.76C576.808 146.372 576.868 146.024 576.868 145.688ZM574.012 144.236C574.696 144.236 575.284 144.68 575.296 145.436H572.596C572.776 144.692 573.328 144.236 574.012 144.236ZM580.568 142.928C579.524 142.928 578.672 143.324 577.976 144.152L578.816 145.148C579.308 144.632 579.752 144.332 580.388 144.332C581.12 144.332 581.492 144.728 581.492 145.376V145.64H580.004C578.636 145.64 577.76 146.288 577.76 147.368C577.76 148.376 578.516 149.144 579.812 149.144C580.58 149.144 581.204 148.868 581.624 148.424V149H583.112V145.472C583.112 143.78 582.08 142.928 580.568 142.928ZM580.244 147.956C579.74 147.956 579.392 147.716 579.392 147.308C579.392 146.912 579.692 146.708 580.22 146.708H581.492V146.78C581.492 147.476 580.928 147.956 580.244 147.956ZM588.991 140V143.636C588.571 143.18 587.959 142.928 587.215 142.928C585.535 142.928 584.335 144.248 584.335 146.036C584.335 147.824 585.535 149.144 587.215 149.144C588.031 149.144 588.715 148.832 589.123 148.268V149H590.611V140H588.991ZM587.515 147.668C586.663 147.668 585.979 147.032 585.979 146.024C585.979 145.016 586.675 144.392 587.515 144.392C588.259 144.392 589.015 144.908 589.015 146.036C589.015 147.176 588.259 147.668 587.515 147.668ZM595.062 149.144C596.238 149.144 597.15 148.556 597.642 147.668L596.514 146.804C596.166 147.296 595.734 147.656 595.086 147.656C594.162 147.656 593.526 146.96 593.526 146.024C593.526 145.1 594.162 144.404 595.086 144.404C595.746 144.404 596.178 144.764 596.514 145.268L597.642 144.392C597.15 143.504 596.25 142.928 595.062 142.928C593.286 142.928 591.882 144.272 591.882 146.024C591.882 147.788 593.286 149.144 595.062 149.144ZM601.554 149.132C603.342 149.132 604.758 147.752 604.758 146.024C604.758 144.296 603.342 142.928 601.566 142.928C599.778 142.928 598.386 144.284 598.386 146.024C598.386 147.764 599.778 149.132 601.554 149.132ZM601.566 147.644C600.678 147.644 600.03 146.972 600.03 146.036C600.03 145.088 600.678 144.404 601.566 144.404C602.442 144.404 603.102 145.1 603.102 146.036C603.102 146.96 602.442 147.644 601.566 147.644ZM608.711 149.144C610.259 149.144 611.435 148.064 611.435 146.384V143.06H609.815V146.516C609.815 147.212 609.323 147.656 608.711 147.656C608.075 147.656 607.583 147.212 607.583 146.516V143.06H605.963V146.384C605.963 148.064 607.139 149.144 608.711 149.144ZM616.212 142.928C615.48 142.928 614.88 143.192 614.472 143.6V143.06H612.984V149H614.604V145.532C614.604 144.848 615.072 144.38 615.732 144.38C616.392 144.38 616.836 144.848 616.836 145.532V149H618.444V145.316C618.444 143.888 617.604 142.928 616.212 142.928ZM623.051 147.692C622.307 147.692 621.947 147.452 621.947 146.768V144.428H623.627V143.06H621.947V141.56H620.327V143.06H619.391V144.428H620.327V146.912C620.327 148.436 621.239 149.144 622.703 149.144C623.123 149.144 623.483 149.084 623.819 149V147.644C623.507 147.668 623.243 147.692 623.051 147.692ZM628.263 142.472V143.876L631.239 145.148L628.263 146.42V147.836L633.831 145.376V144.932L628.263 142.472ZM638.614 149.144C640.126 149.144 641.026 148.424 641.026 146.888V141.08H639.406V146.72C639.406 147.428 639.034 147.668 638.266 147.668C638.062 147.668 637.798 147.644 637.474 147.62V149C637.81 149.084 638.194 149.144 638.614 149.144ZM645.115 142.928C644.071 142.928 643.219 143.324 642.523 144.152L643.363 145.148C643.855 144.632 644.299 144.332 644.935 144.332C645.667 144.332 646.039 144.728 646.039 145.376V145.64H644.551C643.183 145.64 642.307 146.288 642.307 147.368C642.307 148.376 643.063 149.144 644.359 149.144C645.127 149.144 645.751 148.868 646.171 148.424V149H647.659V145.472C647.659 143.78 646.627 142.928 645.115 142.928ZM644.791 147.956C644.287 147.956 643.939 147.716 643.939 147.308C643.939 146.912 644.239 146.708 644.767 146.708H646.039V146.78C646.039 147.476 645.475 147.956 644.791 147.956ZM652.446 142.928C651.714 142.928 651.114 143.192 650.706 143.6V143.06H649.218V149H650.838V145.532C650.838 144.848 651.306 144.38 651.966 144.38C652.626 144.38 653.07 144.848 653.07 145.532V149H654.678V145.316C654.678 143.888 653.838 142.928 652.446 142.928ZM658.926 149.144C660.474 149.144 661.65 148.064 661.65 146.384V143.06H660.03V146.516C660.03 147.212 659.538 147.656 658.926 147.656C658.29 147.656 657.798 147.212 657.798 146.516V143.06H656.178V146.384C656.178 148.064 657.354 149.144 658.926 149.144ZM665.635 142.928C664.591 142.928 663.739 143.324 663.043 144.152L663.883 145.148C664.375 144.632 664.819 144.332 665.455 144.332C666.187 144.332 666.559 144.728 666.559 145.376V145.64H665.071C663.703 145.64 662.827 146.288 662.827 147.368C662.827 148.376 663.583 149.144 664.879 149.144C665.647 149.144 666.271 148.868 666.691 148.424V149H668.179V145.472C668.179 143.78 667.147 142.928 665.635 142.928ZM665.311 147.956C664.807 147.956 664.459 147.716 664.459 147.308C664.459 146.912 664.759 146.708 665.287 146.708H666.559V146.78C666.559 147.476 665.995 147.956 665.311 147.956ZM672.858 142.988C672.21 142.988 671.622 143.264 671.226 143.768V143.06H669.738V149H671.358V146.036C671.358 144.968 672.018 144.488 672.954 144.488H673.386V143.06C673.23 143.012 673.074 142.988 672.858 142.988ZM678.446 143.06L676.898 146.96L675.446 143.06H673.73L676.01 148.64L675.83 149.048C675.53 149.72 675.11 149.852 674.594 149.852C674.402 149.852 674.174 149.828 673.898 149.804V151.16C674.21 151.244 674.606 151.304 674.942 151.304C676.058 151.304 676.766 150.74 677.306 149.516L680.15 143.06H678.446Z" fill="#64748B"/>
<path d="M566.668 198.144C568.204 198.144 569.488 197.388 570.172 196.176L568.948 195.312C568.42 196.152 567.676 196.644 566.68 196.644C565.204 196.644 564.124 195.576 564.124 194.052C564.124 192.516 565.204 191.436 566.68 191.436C567.676 191.436 568.42 191.928 568.948 192.768L570.172 191.904C569.476 190.692 568.204 189.936 566.68 189.936C564.316 189.936 562.456 191.712 562.456 194.04C562.456 196.368 564.316 198.144 566.668 198.144ZM574.693 191.928C574.021 191.928 573.457 192.168 573.061 192.564V189H571.441V198H573.061V194.544C573.061 193.86 573.529 193.392 574.189 193.392C574.849 193.392 575.293 193.848 575.293 194.544V198H576.901V194.316C576.901 192.888 576.049 191.928 574.693 191.928ZM580.896 191.928C579.852 191.928 579 192.324 578.304 193.152L579.144 194.148C579.636 193.632 580.08 193.332 580.716 193.332C581.448 193.332 581.82 193.728 581.82 194.376V194.64H580.332C578.964 194.64 578.088 195.288 578.088 196.368C578.088 197.376 578.844 198.144 580.14 198.144C580.908 198.144 581.532 197.868 581.952 197.424V198H583.44V194.472C583.44 192.78 582.408 191.928 580.896 191.928ZM580.572 196.956C580.068 196.956 579.72 196.716 579.72 196.308C579.72 195.912 580.02 195.708 580.548 195.708H581.82V195.78C581.82 196.476 581.256 196.956 580.572 196.956ZM588.227 191.928C587.495 191.928 586.895 192.192 586.487 192.6V192.06H584.999V198H586.619V194.532C586.619 193.848 587.087 193.38 587.747 193.38C588.407 193.38 588.851 193.848 588.851 194.532V198H590.459V194.316C590.459 192.888 589.619 191.928 588.227 191.928ZM596.495 192.06V192.804C596.087 192.252 595.415 191.928 594.551 191.928C592.931 191.928 591.707 193.08 591.707 194.868C591.707 196.632 592.919 197.82 594.551 197.82C595.295 197.82 595.931 197.58 596.363 197.112V197.436C596.363 198.396 595.691 198.84 594.779 198.84C594.011 198.84 593.435 198.528 592.847 198.072L591.995 199.2C592.667 199.8 593.615 200.304 594.911 200.304C596.699 200.304 597.983 199.344 597.983 197.34V192.06H596.495ZM594.887 196.452C594.059 196.452 593.351 195.84 593.351 194.856C593.351 193.872 594.047 193.308 594.887 193.308C595.631 193.308 596.387 193.752 596.387 194.844C596.387 195.936 595.643 196.452 594.887 196.452ZM605.157 194.688C605.157 193.152 604.029 191.928 602.361 191.928C600.609 191.928 599.253 193.284 599.253 195.036C599.253 196.788 600.621 198.144 602.505 198.144C603.417 198.144 604.209 197.82 604.881 197.256L604.209 196.152C603.729 196.524 603.201 196.752 602.553 196.752C601.689 196.752 601.077 196.332 600.885 195.576H605.049C605.097 195.372 605.157 195.024 605.157 194.688ZM602.301 193.236C602.985 193.236 603.573 193.68 603.585 194.436H600.885C601.065 193.692 601.617 193.236 602.301 193.236Z" fill="#64748B"/>
<rect x="248" y="143" width="245" height="26" fill="#E2E8F0"/>
<rect x="248" y="291" width="245" height="26" fill="#E2E8F0"/>
<rect x="248" y="414" width="245" height="26" fill="#E2E8F0"/>
<rect x="248" y="169" width="245" height="25" fill="#F8FAFC"/>
<rect x="248" y="317" width="245" height="25" fill="#F8FAFC"/>
<rect x="248" y="194" width="245" height="26" fill="#E2E8F0"/>
<rect x="248" y="118" width="245" height="25" fill="#F8FAFC"/>
<rect x="248" y="266" width="245" height="25" fill="#F8FAFC"/>
<rect x="248" y="389" width="245" height="25" fill="#F8FAFC"/>
<rect opacity="0.5" x="248" y="119" width="32" height="356" fill="#CCEEFD"/>
</g>
<defs>
<filter id="filter0_d_903_29003" x="0" y="0" width="738" height="484" filterUnits="userSpaceOnUse" color-interpolation-filters="sRGB">
<feFlood flood-opacity="0" result="BackgroundImageFix"/>
<feColorMatrix in="SourceAlpha" type="matrix" values="0 0 0 0 0 0 0 0 0 0 0 0 0 0 0 0 0 0 127 0" result="hardAlpha"/>
<feOffset dx="8" dy="8"/>
<feComposite in2="hardAlpha" operator="out"/>
<feColorMatrix type="matrix" values="0 0 0 0 0.886275 0 0 0 0 0.909804 0 0 0 0 0.941176 0 0 0 1 0"/>
<feBlend mode="normal" in2="BackgroundImageFix" result="effect1_dropShadow_903_29003"/>
<feBlend mode="normal" in="SourceGraphic" in2="effect1_dropShadow_903_29003" result="shape"/>
</filter>
</defs>
</svg>
