<svg xmlns="http://www.w3.org/2000/svg" viewBox="0 0 182 46"><g clip-path="url(#a)"><mask id="b" style="mask-type:luminance" maskUnits="userSpaceOnUse" x="0" y="0" width="182" height="46"><path d="M181.8 0H.1v46h181.7V0Z" fill="#fff"/></mask><g mask="url(#b)"><path d="M39 44.4V1.8c5.2.4 10 2.9 13.5 6.8 4 4.1 6.4 9.3 8.6 14.6 3.7-9.8 10.5-20.4 22-21.4v14.8c1.4-4.6 4.2-8.8 8-11.9 4.2-3.1 9.4-4.8 14.8-4.7 9.6 0 19.2 6.5 21 16.2h-11.2c-1.9-4.3-5.9-6.1-10.5-6.1a12.7 12.7 0 0 0-12 7.8 12 12 0 0 0-1 5c0 7.5 5.1 13 13 13a12.3 12.3 0 0 0 8.7-3.2c1.3-1.4 2.2-3 2.8-4.6H104V17.9h23.6V1.8h22.2V12h-11.6v6h11.6v10h-11.6v6.1h11.6v10.2h-22.2V28.1A22.5 22.5 0 0 1 105 46c-5.3.2-10.6-1.6-14.7-4.9-3.6-3-6-7-7-11.6v14.9H72.6v-23a39 39 0 0 0-6.8 23H56c0-8.2-2.4-16.2-6.9-23v23H39ZM171.5 1.8h10.3v42.6h-9.3c-1.4-7-4.8-16-10.6-20.5v20.5h-10.4V1.8c4.7 1 10.9 5.7 14.3 9 2.3 2 4.2 4.4 5.7 7.1V1.8ZM.1 44.4l.3-1.1 1.8-6c1.5-5 3.4-9.8 5.6-14.5C13.2 11 22.3 1.6 36.2 1.6h1v42.8H26.7V34H13.4l-.2 1-.7 1.8-.8 3-.9 3.3-.3 1.3H.1Zm18-20.5h8.6v-9.7c-4.5 2-6.4 5.4-8.5 9.7Z"/></g></g><defs><clipPath id="a"><path fill="#fff" d="M.1 0h181.7v46H.1z"/></clipPath></defs></svg>