<svg fill="#676767" xmlns="http://www.w3.org/2000/svg" viewBox="0 0 335 60"><path d="M332.4 40.5c0 1.5-1 2.5-2.4 2.5s-2.5-1-2.5-2.5c0-1.4 1-2.5 2.5-2.5 1.4 0 2.4 1 2.4 2.5Zm.5 0a2.9 2.9 0 1 0-5.8 0 2.9 2.9 0 0 0 5.8 0Z"/><path d="M330.5 39.8c0 .5-.3.5-.7.5h-.3v-1h.5c.4 0 .5.3.5.5Zm.7 2.2-.7-1c0-.2-.2-.3-.3-.4.5 0 .8-.3.8-.8 0-.4-.3-.8-1-.8h-.9v3h.4v-1.3c.3 0 .4 0 .5.2l.7 1h.5ZM86.2 18l-5.5 12.8h11L86.2 18Zm16.7 25.4h-6l-3.2-7.7h-15l-3.3 7.7h-5.8l14-32h5.2l14 32ZM154.5 43.4H149V16.7h-10.1v-5.2H165l-2.2 5.2h-8.4v26.7ZM261.8 16.7h-17v8.1h10.8v5h-10.9v8.5h17v5.1h-22.6V11.5h22.7v5.2ZM301.8 43.4h-5.3V11.5h5.3v32ZM279 16.1c-3.2 0-6 1-6 3.2 0 2.5 1.6 3.4 7.6 5.3 6.6 2.2 10.2 4.4 10.1 9.8 0 6.1-4.7 9.6-11.6 9.6-4.8 0-9.2-1.6-12.5-4.5l2-5c3.1 2.5 6.7 4.3 10.7 4.3 3.4 0 5.9-1.7 5.9-4.1 0-2.1-1.2-3.5-7-5.4-6.7-2.1-10.7-4.4-10.7-9.9 0-5.4 5.1-8.4 11.5-8.4s10 2.4 10.5 2.7l-2 4.5c-1.3-.7-4.2-2-8.4-2ZM308.7 27 323 11.5H316L301.8 27l15.7 16.4h7L308.7 27ZM182.4 38.8c-6.3 0-10.9-5-10.9-11.3 0-6.3 4.6-11.4 10.9-11.4 6.2 0 10.8 5.1 10.8 11.4 0 6.2-4.6 11.3-10.8 11.3Zm0-27.8a16.5 16.5 0 1 0 0 33 16.5 16.5 0 0 0 0-33ZM216.8 38.3h-6.4V16.7h6.5c6.2 0 10.8 4.5 10.8 10.7 0 6.3-4.6 11-10.8 11Zm0-26.8h-12v32h12a16 16 0 0 0 16.5-16 16 16 0 0 0-16.5-16ZM132.6 29.3c0 9.5-5.5 14.6-13.6 14.6s-13.7-5.1-13.7-14.6V11.5h5.7V30c0 5.5 3.2 8.8 8 8.8 4.7 0 8-3.3 8-8.8V11.5h5.6v17.8ZM11.9 57.6c-1.6 0-2.4-.6-3.2-2L1.6 42.4c-.5-1-.5-1.3-.5-2l11.2.5 2.6 2.6h22.5L18.7 55a17 17 0 0 1-6.8 2.5Z"/><path d="M14.9 43.5H5.2c-3 0-4.1-1.6-4.1-3.1 0-1 .3-1.5.7-2.6L16 4l.1-.3.2-.3.4-.4.6-.3 1-.2h1.4l9.8 3.7-3.3 10.5L15 43.5Z"/><path fill-rule="evenodd" clip-rule="evenodd" d="m43.4 57.6-22.3-53c-.4-.9-1-2-2.6-2-1.5 0-2.1.7-2.5 1.4.2-.5.8-1.6 2.5-1.6H34c1.4 0 2 .9 2.4 1.6L59 57.6H43.4Z"/></svg>