<svg xmlns="http://www.w3.org/2000/svg" viewBox="0 0 1000 124" {...props}>
<g clipPath="url(#a)">
  <path d="M108 0h-1.6L79.3 95c-1.5 5.2-7 9.5-12.2 9.5H56.7L73 47.2c.2-.9-.7-1.5-1.4-1A613 613 0 0 0 .2 120.4c-.4.6-.2 1.5.6 1.5h71c30 0 46.3-9.3 52.3-31.5 4.8-18-4.6-30.3-19.7-33.5-.3 0-.6-.6 0-.7 12.7-2.1 25.6-7.3 30.2-26 4.8-19.5-9.5-30.4-26.5-30Zm503.2 13.6c-25.1 0-38.7 9.9-43.5 28.7a28.3 28.3 0 0 0 2.2 19c7 11.8 25.2 13.3 35.3 20.3 4.4 3 4.5 7.2 3.3 11.7-2.2 8.8-6.7 13-15.5 13-8.4 0-13.5-5-8.7-20.4h-26.9c-10.7 25.8 3.3 37.5 32 37.5 26 0 40.6-6.2 46.8-30.3 2.1-8.2.7-17-4.3-22.5C622 60 603.3 58 596.7 51.8c-3.3-3.1-3.3-7.5-2.3-11.3 1.8-6.9 6.4-10.7 14-10.7 11.8 0 12 7.3 9.2 16h25.3c6-18-1.9-32.2-31.7-32.2Zm-167.2.9c-37 0-47.1 7.8-59 54-11.2 43-7.5 54.3 32.5 54.3 19 0 27-1.4 38.5-3.5l13.4-50.2h-28.6l-9.5 35c-2 .1-4.5.4-8.4.4-18.7 0-16.6-5.6-8.7-36 8.2-31.7 13-37.5 24.6-37.5 11.2 0 11.3 7.6 8.5 17.1h28.4c4.6-17.8 1.5-33.6-31.7-33.6Zm335.2 0c-32 0-46 5.7-58.5 54.4-11 42.1-2.2 54.4 30.4 54.4 33.1 0 46.2-6.9 58.5-54.4 9-34.4 7.1-54.4-30.4-54.4Zm95.4 1.3c-22 0-32.1.4-38.1.2l-26.6 102.6c-.4 1.8.6 3.2 2.3 3.2h25.5l23-89.2 9.6-.2c12.3 0 14 4.4 10.7 17l-18 69.2c-.4 1.8.7 3.2 2.4 3.2h25.4l18.8-72.4c6.4-25-4.6-33.6-35-33.6Zm-718 .2L130 118.6c-.5 1.7.6 3.2 2.3 3.2h25.4l23.1-89.2 10.7-.1c9.8 0 13.4 6 11.3 14.2a21.2 21.2 0 0 1-21 16.8H178l10.6 51.2c1.3 5 3.8 7 9.5 7h22.7L211 79.5a21 21 0 0 0-3.5-7.4c-.2-.2-.3-.6.1-.7A32.4 32.4 0 0 0 231.1 47c4.4-17.2-6.4-31-33.8-31h-40.8Zm147 0L277 118.6c-.5 1.7.6 3.2 2.3 3.2h34c42.5 0 49.7-8.2 61.4-53.4 10.2-39.3 3.9-52.4-33-52.4h-38.2ZM654 16l-4.3 17H678c.3 0 .3.4 0 .6a24 24 0 0 0-8.6 13.3L651 118.6c-.5 1.8.6 3.2 2.3 3.2h27.3l23-88.6h14c7.8 0 12.6-3.3 15.3-10.2l2.6-7h-81.3Zm-399 0-26.5 102.6c-.5 1.8.5 3.2 2.2 3.2h27L284.2 19c.5-1.7-.6-3.1-2.3-3.1H255Zm265.2 0c-18.3 0-23.9 3.3-31 30.9l-13.1 50.5c-4 17 1 24.4 14.8 24.4h38.2c7.6 0 12.4-4 14.7-10.2l3.2-8h-38.4c-3.7 0-5-1.2-4.3-4.2l6.4-25.2H549l4.3-16.6h-38l4.3-16.9c1-4.4 4.2-8.1 10.3-8.1h30.5l4.3-16.6h-44.3Zm435.4 0c-18.4 0-23.9 3.3-31 30.9l-13.2 50.5c-4 17 1 24.4 14.9 24.4h38.2c7.5 0 12.4-4 14.7-10.2l3.1-8H944c-3.7 0-5-1.2-4.3-4.2l6.4-25.2h38l4.4-16.6h-38l4.2-16.9c1.2-4.4 4.3-8.1 10.4-8.1h30.5L1000 16h-44.3ZM775 31c12.2 0 13.6 6.6 5.7 37-7.8 30.2-15.5 37.5-25 37.5-12.2 0-14-4.5-5.4-37.5 7-27.4 13.8-37 24.7-37Zm-438 1.5c16.5 0 16.5 5.4 8.6 36-8 30.8-12.6 35.2-28.3 35.2h-7.8l18.4-71.1 9.1-.1ZM16.6 69.7l16.6-58.2C34.8 5.5 41.4.1 48.1.1h50.7c.8 0 1.1 1.1.5 1.6A567.7 567.7 0 0 0 18 70.4c-.6.6-1.7.1-1.5-.7Z" />
</g>
<defs>
  <clipPath id="a">
    <path fill="#fff" d="M0 0h1000v123.4H0z" />
  </clipPath>
</defs>
</svg>