<svg xmlns="http://www.w3.org/2000/svg" viewBox="0 0 81 32"><path d="M10.4 7C4.8 7 .1 9.4.1 16.6c0 5.7 3.2 9.3 10.5 9.3 8.6 0 9.2-5.7 9.2-5.7h-4.2s-1 3-5.3 3c-3.5 0-6-2.3-6-5.7h15.9v-2C20.2 12 18 7 10.4 7Zm-.1 2.7c3.4 0 5.7 2 5.7 5.1H4.3c0-3.2 3-5.1 6-5.1Z"/><path d="M20.2 0v22.3l-.1 3h4l.1-2.4s2 3 7.3 3a9 9 0 0 0 9.5-9.5 9 9 0 0 0-9.4-9.3c-5.6 0-7.3 3-7.3 3V0h-4.1Zm10.3 9.8c3.8 0 6.3 2.8 6.3 6.6 0 4.1-2.8 6.8-6.2 6.8-4.1 0-6.3-3.2-6.3-6.7 0-3.3 2-6.7 6.2-6.7Z"/><path d="M51 7c-8.6 0-9.1 4.6-9.1 5.4H46s.2-2.7 4.5-2.7c2.8 0 5 1.2 5 3.7v.9h-5c-6.6 0-10 1.9-10 5.8 0 3.8 3.2 5.9 7.5 5.9 6 0 7.8-3.3 7.8-3.3l.1 2.6h3.8l-.2-2.6v-8.8C59.6 8.2 55 7 51 7Zm4.6 9.9V18c0 1.5-1 5.3-6.5 5.3-3 0-4.3-1.5-4.3-3.2 0-3.2 4.4-3.2 10.8-3.2Z"/><path d="M57.4 7.7H62L69 21.3l6.8-13.6H80L67.7 32H63l3.6-6.8-9.3-17.5Z"/></svg>