<svg xmlns="http://www.w3.org/2000/svg" fill="none" viewBox="0 4 58 56" height="56" width="58"><g filter="url(#a)"><path fill="#000" d="M21.393 33.907 6.697 19.21a3 3 0 0 1 4.242-4.243l7.071 7.071a3 3 0 0 1 4.243-4.242l1.045 1.044c-1.159-1.175-1.504-3.414-.338-4.58a3 3 0 0 1 4.243 0l2.121 2.121a3 3 0 0 1 4.243-4.242l2.121 2.121 8.485 8.485c.985.985 2.677 3.093 2.813 8.02.02.75.314 1.47.844 2.001a2.828 2.828 0 0 1 0 4l-6.927 6.928a2.375 2.375 0 0 1-3.358 0 2.517 2.517 0 0 0-1.917-.713c-2.294.117-6.913-.1-8.957-1.166-.467-.244-.923-.53-1.432-.667L14.74 38.336a3 3 0 1 1 1.553-5.796l2.55.684 2.389.93c.152.059.276-.132.16-.247Z"/><path fill="#fff" d="m27.203 22.746-.707.707a1 1 0 0 0 1.414-1.414l-.707.707Zm-3.89-3.889-.706.707.707-.707Zm7.425.354a1 1 0 0 0 1.415-1.414l-1.415 1.414Zm-8.485 8.485a1 1 0 0 0 1.414-1.414l-1.414 1.414ZM25.24 41.15l.26-.966-.26.966ZM14.74 38.336 15 37.37l-.259.966Zm1.553-5.796.259-.966-.259.966Zm30.693-1.774 1-.028-1 .028ZM35.628 42.982l.051.998-.051-.998Zm-8.957-1.166.462-.887-.462.887Zm-7.828-8.592.363-.932-.051-.02-.053-.014-.26.966Zm2.389.93.362-.932-.362.932Zm.868-.954L7.404 18.504 5.99 19.918l14.696 14.696L22.1 33.2Zm-3.383-14.696a2 2 0 0 1 2.829 0l1.414-1.415a4 4 0 0 0-5.657 0l1.415 1.415Zm-1.414-1.415a4 4 0 0 0 0 5.657l1.415-1.414a2 2 0 0 1 0-2.828l-1.415-1.415Zm10.607 4.95-3.89-3.889-1.413 1.414 3.889 3.89 1.414-1.415Zm-4.243-7.07a2 2 0 0 1 2.829 0l1.414-1.415a4 4 0 0 0-5.657 0l1.414 1.414Zm-1.414-1.415c-.855.855-1.097 2.038-.99 3.093.105 1.057.568 2.13 1.323 2.897l1.424-1.404c-.404-.41-.693-1.044-.758-1.692-.065-.65.104-1.168.415-1.48l-1.414-1.414Zm.333 5.99.02.02 1.415-1.414-.01-.01-1.425 1.404Zm10.274-6.697 2.121 2.121 1.414-1.414-2.121-2.121-1.414 1.414Zm-.707 4.95-2.122-2.122-1.414 1.415 2.121 2.12 1.415-1.413Zm-2.122-4.95a2 2 0 0 1 2.829 0l1.414-1.414a4 4 0 0 0-5.657 0l1.414 1.414Zm-1.414-1.414a4 4 0 0 0 0 5.657l1.414-1.415a2 2 0 0 1 0-2.828l-1.414-1.414Zm-18.385 4.242 7.071 7.071 1.415-1.414-7.072-7.071-1.414 1.414Zm7.071 7.071 4.95 4.95 1.414-1.414-4.95-4.95-1.414 1.414Zm8.195 17.437L15 37.37l-.518 1.932 10.5 2.813.517-1.932ZM13.585 34.92a2 2 0 0 1 2.45-1.414l.517-1.932a4 4 0 0 0-4.9 2.829l1.933.517Zm-1.932-.517a4 4 0 0 0 2.828 4.899L15 37.37a2 2 0 0 1-1.414-2.45l-1.932-.517ZM34.98 14.968l8.485 8.485 1.414-1.414-8.485-8.485-1.414 1.414Zm8.485 8.485c.817.817 2.392 2.686 2.52 7.34l2-.055c-.143-5.2-1.952-7.545-3.105-8.699l-1.415 1.414Zm3.657 12.607-6.927 6.927 1.414 1.415 6.927-6.928-1.414-1.414Zm-11.546 5.923c-1.095.056-2.772.032-4.42-.135-1.686-.172-3.184-.481-4.024-.919l-.925 1.773c1.205.629 3.039.961 4.746 1.135 1.747.178 3.526.205 4.725.143l-.102-1.997Zm2.675 1.005c-.72-.72-1.705-1.055-2.675-1.005l.102 1.997c.453-.023.871.135 1.158.422l1.415-1.415Zm1.944 0a1.375 1.375 0 0 1-1.944 0l-1.415 1.414a3.375 3.375 0 0 0 4.773 0l-1.414-1.415Zm6.927-9.514a1.828 1.828 0 0 1 0 2.586l1.414 1.414a3.828 3.828 0 0 0 0-5.414l-1.414 1.414Zm-1.137-2.68c.028.99.415 1.958 1.137 2.68l1.414-1.414a1.938 1.938 0 0 1-.551-1.322l-2 .055Zm-29.952 2.712 2.55.684.518-1.932-2.55-.684-.518 1.932Zm2.446.65 2.389.93.725-1.864-2.388-.93-.726 1.863Zm8.016-19.188 2.121 2.122 1.414-1.415-2.121-2.121-1.414 1.414Zm-4.95 3.536 1.045 1.045 1.414-1.415-1.045-1.044-1.414 1.414Zm1.045 1.045 1.43 1.43 1.414-1.415-1.43-1.43-1.414 1.415Zm1.43 1.43 2.475 2.474 1.414-1.414-2.475-2.475-1.414 1.415Zm-3.152 14.106c1.16.452 2.111-1.005 1.23-1.885l-1.413 1.414c-.65-.65.052-1.726.908-1.392l-.725 1.863Zm4.111 7.03c.369.099.66.291 1.228.587l.925-1.773c-.366-.19-.986-.572-1.635-.746l-.518 1.932ZM7.404 15.675a2 2 0 0 1 2.828 0l1.415-1.414a4 4 0 0 0-5.657 0l1.414 1.414ZM5.99 14.261a4 4 0 0 0 0 5.657l1.414-1.414a2 2 0 0 1 0-2.829L5.99 14.261Z"/></g><path stroke="#fff" stroke-linecap="round" stroke-width="2" d="m26.414 31.485 6.364 6.364M30.656 27.243l6.364 6.364M34.899 23l6.364 6.364"/><defs><filter id="a" width="52.844" height="43.129" x=".816" y="10.261" color-interpolation-filters="sRGB" filterUnits="userSpaceOnUse"><feFlood flood-opacity="0" result="BackgroundImageFix"/><feColorMatrix in="SourceAlpha" result="hardAlpha" values="0 0 0 0 0 0 0 0 0 0 0 0 0 0 0 0 0 0 127 0"/><feOffset dy="4"/><feGaussianBlur stdDeviation="2"/><feComposite in2="hardAlpha" operator="out"/><feColorMatrix values="0 0 0 0 0 0 0 0 0 0 0 0 0 0 0 0 0 0 0.25 0"/><feBlend in2="BackgroundImageFix" result="effect1_dropShadow_1041_14874"/><feBlend in="SourceGraphic" in2="effect1_dropShadow_1041_14874" result="shape"/></filter></defs></svg>