<svg xmlns="http://www.w3.org/2000/svg" viewBox="0 0 79 16"><path d="M42.4.6H45v15.2l-9.2-9v8.5H33V.1l9.3 9V.6ZM28.8 8c0 4.4-3.4 8-7.7 8a7.8 7.8 0 0 1-7.6-8c0-4.4 3.4-8 7.6-8 4.3 0 7.7 3.6 7.7 8ZM26 8a5 5 0 0 0-4.9-5.1 5 5 0 0 0-4.8 5 5 5 0 0 0 4.8 5.2A5 5 0 0 0 26 8ZM8.8 8a10 10 0 0 0-3-1.5c-2.9-1-2.9-1.7-2.9-2 0-.8 1-1.7 2.4-1.7 1.2 0 2.2.7 2.6 1L8 4l2.2-1.6-.3-.2C10 2 8.2 0 5.3 0a6 6 0 0 0-3.7 1.3C.6 2.2.1 3.3.1 4.6a4 4 0 0 0 1.7 3.3c.7.5 1.6 1 3 1.5 2.8.9 2.8 1.6 2.8 2 0 .8-.8 1.6-2.3 1.6-1.3 0-2.2-.6-2.6-.9l-.2-.1-2.2 1.5.3.3C.6 14 2.3 16 5.3 16c1.4 0 2.7-.4 3.7-1.3.9-.8 1.4-2 1.4-3.3a4 4 0 0 0-1.6-3.2Zm40.7 0c0-4.5 3.4-8 7.6-8 4.2 0 7.7 3.5 7.7 8 0 4.3-3.5 7.9-7.7 7.9a7.8 7.8 0 0 1-7.6-8Zm2.8 0a5 5 0 0 0 4.8 5A5 5 0 0 0 62 8a5 5 0 0 0-5-5.2A5 5 0 0 0 52.3 8Zm17.1-.2c.8.6 1.7 1 3.1 1.5 2.8 1 2.8 1.6 2.8 2 0 .8-.9 1.7-2.3 1.7-1.3 0-2.2-.7-2.6-1l-.2-.1-2.2 1.5.2.3C68.3 14 70 16 73 16a5 5 0 0 0 3.6-1.4 4 4 0 0 0 1.5-3.2A4 4 0 0 0 76.5 8a10 10 0 0 0-3.1-1.5c-2.8-1-2.8-1.6-2.8-2 0-.8.9-1.7 2.4-1.7a4 4 0 0 1 2.5 1l.2.1L78 2.5l-.2-.3C77.6 2 75.9 0 73 0c-1.5 0-2.8.5-3.7 1.4a4 4 0 0 0-1.5 3.2A4 4 0 0 0 69.4 8Z"/></svg>